<?xml version="1.0" encoding="UTF-8" standalone="no"?>
<svg
   xmlns:dc="http://purl.org/dc/elements/1.1/"
   xmlns:cc="http://creativecommons.org/ns#"
   xmlns:rdf="http://www.w3.org/1999/02/22-rdf-syntax-ns#"
   xmlns:svg="http://www.w3.org/2000/svg"
   xmlns="http://www.w3.org/2000/svg"
   xmlns:xlink="http://www.w3.org/1999/xlink"
   xmlns:sodipodi="http://sodipodi.sourceforge.net/DTD/sodipodi-0.dtd"
   xmlns:inkscape="http://www.inkscape.org/namespaces/inkscape"
   viewBox="0 0 664.83051 664.83051"
   id="svg2"
   version="1.1"
   inkscape:version="0.91 r13725"
   sodipodi:docname="Analysis.svg"
   width="664.83051"
   height="664.83051">
  <metadata
     id="metadata50">
    <rdf:RDF>
      <cc:Work
         rdf:about="">
        <dc:format>image/svg+xml</dc:format>
        <dc:type
           rdf:resource="http://purl.org/dc/dcmitype/StillImage" />
        <dc:title></dc:title>
      </cc:Work>
    </rdf:RDF>
  </metadata>
  <defs
     id="defs48">
    <filter
       id="filter6213-1-5-0"
       style="color-interpolation-filters:sRGB">
      <feGaussianBlur
         stdDeviation="4.40461"
         id="feGaussianBlur7" />
    </filter>
    <filter
       id="filter6251-1-6-6"
       style="color-interpolation-filters:sRGB">
      <feGaussianBlur
         stdDeviation="2.97557"
         id="feGaussianBlur10" />
    </filter>
    <filter
       id="filter5821"
       style="color-interpolation-filters:sRGB">
      <feGaussianBlur
         stdDeviation="1.09488"
         id="feGaussianBlur13" />
    </filter>
    <filter
       id="filter4070"
       style="color-interpolation-filters:sRGB">
      <feGaussianBlur
         stdDeviation="16.97417"
         id="feGaussianBlur19" />
    </filter>
    <filter
       id="filter6624-6-7"
       style="color-interpolation-filters:sRGB">
      <feGaussianBlur
         stdDeviation="4.68691"
         id="feGaussianBlur22" />
    </filter>
    <filter
       id="filter4320"
       style="color-interpolation-filters:sRGB">
      <feGaussianBlur
         stdDeviation="5.78362"
         id="feGaussianBlur25" />
    </filter>
    <filter
       height="1.2289"
       x="-0.040660001"
       y="-0.11444"
       width="1.0813"
       id="filter4954-0"
       style="color-interpolation-filters:sRGB">
      <feGaussianBlur
         stdDeviation="10.60059"
         id="feGaussianBlur28" />
    </filter>
    <linearGradient
       y1="1638.4"
       y2="1526.4"
       x2="0"
       gradientUnits="userSpaceOnUse"
       id="linearGradient5148">
      <stop
         offset="0"
         stop-color="#713c01"
         id="stop31" />
      <stop
         offset="1"
         stop-color="#a86a0a"
         id="stop33" />
    </linearGradient>
    <linearGradient
       x1="13.539"
       x2="-243.87"
       y1="2366.1001"
       gradientUnits="userSpaceOnUse"
       y2="2660.6001"
       id="linearGradient5150">
      <stop
         offset="0"
         stop-color="#008080"
         id="stop36" />
      <stop
         offset="1"
         stop-color="#8be6e6"
         id="stop38" />
    </linearGradient>
    <linearGradient
       x1="3715.2"
       x2="4601.5"
       gradientTransform="matrix(0.2373,-0.20599,0.20083,0.23136,-778.49,2474.2)"
       y1="2863.7"
       gradientUnits="userSpaceOnUse"
       y2="1064.8"
       id="linearGradient5152">
      <stop
         offset="0"
         stop-color="#2e3436"
         id="stop41" />
      <stop
         offset="1"
         stop-color="#555753"
         id="stop43" />
    </linearGradient>
    <linearGradient
       x1="842.96997"
       x2="781.23999"
       y1="5114"
       gradientUnits="userSpaceOnUse"
       y2="4886.5"
       id="linearGradient5154">
      <stop
         offset="0"
         stop-color="#555753"
         id="stop46" />
      <stop
         offset="1"
         stop-color="#888a85"
         id="stop48" />
    </linearGradient>
    <clipPath
       clipPathUnits="userSpaceOnUse"
       id="clipPath4476">
      <rect
         style="opacity:0.5;fill:#0044a9;fill-opacity:0.50196078;stroke:none;stroke-width:28.68600082;stroke-miterlimit:4;stroke-dasharray:none;stroke-opacity:1"
         id="rect4478"
         width="664.83051"
         height="664.83051"
         x="77.118645"
         y="124.0804" />
    </clipPath>
  </defs>
  <sodipodi:namedview
     pagecolor="#ffffff"
     bordercolor="#666666"
     borderopacity="1"
     objecttolerance="10"
     gridtolerance="10"
     guidetolerance="10"
     inkscape:pageopacity="0"
     inkscape:pageshadow="2"
     inkscape:window-width="1277"
     inkscape:window-height="480"
     id="namedview46"
     showgrid="false"
     fit-margin-top="0"
     fit-margin-left="0"
     fit-margin-right="0"
     fit-margin-bottom="0"
     inkscape:zoom="0.059599"
     inkscape:cx="394.08259"
     inkscape:cy="572.3869"
     inkscape:window-x="1920"
     inkscape:window-y="191"
     inkscape:window-maximized="0"
     inkscape:current-layer="svg2" />
  <g
     id="g4427"
     clip-path="url(#clipPath4476)"
     transform="translate(-77.118645,-124.0804)">
    <path
       d="m 128.99637,364.00845 400,0"
       id="path2100"
       inkscape:connector-curvature="0"
       style="fill:none;stroke:#000000;stroke-width:8.40102005" />
    <use
       transform="translate(-4.1726726e-7,1.8653465e-6)"
       height="1052.3622"
       id="use2102"
       width="744.09448"
       xlink:href="#path2100"
       x="0"
       y="0" />
    <use
       transform="translate(-4.1726726e-7,1.8653466e-6)"
       height="1052.3622"
       width="744.09448"
       xlink:href="#use2102"
       id="use8"
       x="0"
       y="0" />
    <path
       d="m 141.06818,163.48548 374.28571,0 a 41.42857,41.42857 0 0 1 41.42857,41.42857 l 0,522.85715 a 41.42857,41.42857 0 0 1 -41.42857,41.42857 l -374.28571,0 A 41.42857,41.42857 0 0 1 99.639614,727.7712 l 0,-522.85715 a 41.42857,41.42857 0 0 1 41.428566,-41.42857"
       id="path10"
       inkscape:connector-curvature="0"
       style="fill:#f0f0f0;fill-rule:evenodd;stroke:#0a0a07;stroke-width:12.39999962;stroke-linecap:round" />
    <path
       d="m 128.10541,294.97265 220.74914,0"
       id="path12"
       inkscape:connector-curvature="0"
       style="fill:none;stroke:#000000;stroke-width:31.52318954" />
    <path
       d="m 128.21104,562.48654 400,0"
       id="path14"
       inkscape:connector-curvature="0"
       style="fill:none;stroke:#000000;stroke-width:8.40102005" />
    <use
       height="1052.3622"
       transform="translate(-0.78533042,-8.1346535e-6)"
       width="744.09448"
       xlink:href="#use2102"
       id="use16"
       x="0"
       y="0" />
    <path
       d="m 128.21105,430.16785 399.99998,0"
       id="path18"
       inkscape:connector-curvature="0"
       style="fill:none;stroke:#000000;stroke-width:8.40102005" />
    <path
       d="m 128.21105,496.32719 399.99998,0"
       id="path20"
       inkscape:connector-curvature="0"
       style="fill:none;stroke:#000000;stroke-width:8.40102005" />
    <path
       d="m 128.21104,628.64591 400,0"
       id="path22"
       inkscape:connector-curvature="0"
       style="fill:none;stroke:#000000;stroke-width:8.40102005" />
    <path
       d="m 128.21104,694.80527 400,0"
       id="path24"
       inkscape:connector-curvature="0"
       style="fill:none;stroke:#000000;stroke-width:8.40102005" />
    <use
       transform="translate(-4.1726726e-7,1.8653465e-6)"
       height="1052.3622"
       width="744.09448"
       xlink:href="#path2100"
       id="use26"
       x="0"
       y="0" />
    <path
       d="m 177.11711,266.78238 -24.86095,60.95982 214.9851,0 9.64398,0 0.6526,0 2.35662,0 c 7.7e-4,0 0.001,-60.95982 0,-60.95982 l -2.35662,0 -0.6526,0 -9.64398,0 -190.12415,0 z"
       id="path28"
       inkscape:connector-curvature="0"
       style="fill-rule:evenodd" />
    <path
       d="m 157.43473,352.68863 0,24.37054 340,0 0,-24.37054 -340,0 z"
       id="path30"
       inkscape:connector-curvature="0"
       style="fill-rule:evenodd" />
    <path
       d="m 172.93012,431.091 307.14283,0"
       id="path32"
       inkscape:connector-curvature="0"
       style="fill:none;stroke:#000000;stroke-width:21.31752968" />
    <path
       d="m 216.93473,486.34488 24.28571,20.08482 169.98661,0 c 4.58986,0 23.16124,-20.08482 18.57143,-20.08482 l -212.84375,0 z"
       id="path34"
       inkscape:connector-curvature="0"
       style="fill-rule:evenodd" />
    <path
       d="m 209.21484,432.24134 c -7.0963,-44.62673 2.1205,-90.54987 29.9064,-128.13385 36.6745,-49.60695 96.6269,-72.8175 157.3965,-67.34106 -3.2939,-3.10463 -6.7857,-6.06601 -10.5046,-8.81541 -55.1666,-40.78473 -136.0829,-24.98924 -180.6179,35.25011 -39.9406,54.02469 -36.9807,125.43906 3.8196,169.04021 z"
       id="path44"
       inkscape:connector-curvature="0"
       style="fill:#f0f0f0;fill-opacity:0.66081998;fill-rule:evenodd" />
    <g
       transform="matrix(0.34454497,0.48250724,-0.48250724,0.34454497,1477.0773,-2069.954)"
       id="g54"
       style="opacity:0.77999998;fill:#1a1a1a;filter:url(#filter4954-0)">
      <g
         id="g56">
        <path
           d="m 2641.6,3805.2 c -84.361,46.095 -109.93,65.964 -108.45,82.076 1.4829,16.111 37.239,24.348 133.24,50.927 95.998,26.579 490.45,45.984 474.44,-115.22 -16.005,-161.2 -414.87,-63.877 -499.23,-17.783 z"
           id="path58"
           inkscape:connector-curvature="0"
           style="stroke:#2e3436" />
        <path
           d="m 2546.7,3870.8 c -10.455,9.292 -14.302,16.478 -13.699,23.023 0.7274,7.9046 9.7367,13.896 30.031,21.106 -0.3855,-15.946 25.788,-35.901 108.47,-81.078 67.506,-36.885 336.4,-106.58 449.35,-50.351 -84.189,-93.377 -404.78,-12.543 -479.4,28.224 -50.09,27.369 -79.473,45.495 -94.754,59.076 z"
           id="path60"
           inkscape:connector-curvature="0"
           style="opacity:0.53070003;filter:url(#filter6213-1-5-0)" />
      </g>
      <g
         id="g62">
        <path
           transform="matrix(0.99249203,-0.12230934,0.12230934,0.99249203,0,0)"
           d="m 2033.4,4122.3 53.886,0 a 7.6504,7.6504 0 0 1 7.6504,7.6504 l 0,71.182 a 7.6504,7.6504 0 0 1 -7.6504,7.6504 l -53.886,0 a 7.6504,7.6504 0 0 1 -7.6504,-7.6504 l 0,-71.182 A 7.6504,7.6504 0 0 1 2033.4,4122.3"
           id="path64"
           inkscape:connector-curvature="0"
           style="stroke:#2e3436;stroke-linejoin:round" />
        <path
           transform="matrix(-0.09172,-0.6838,0.74424,-0.08427,-499.23,5676.1)"
           d="m 2078.6,4317.7 53.886,0 a 7.6504,7.6504 0 0 1 7.6504,7.6504 l 0,71.182 a 7.6504,7.6504 0 0 1 -7.6504,7.6504 l -53.886,0 a 7.6504,7.6504 0 0 1 -7.6504,-7.6504 l 0,-71.182 A 7.6504,7.6504 0 0 1 2078.6,4317.7"
           id="path66"
           inkscape:connector-curvature="0"
           style="opacity:0.531;filter:url(#filter6251-1-6-6)" />
      </g>
    </g>
    <g
       transform="matrix(0.34454497,0.48250724,-0.48250724,0.34454497,39.126202,-1796.6793)"
       id="g68">
      <g
         transform="translate(1036.5,-2241.9)"
         id="g70"
         style="opacity:0.77999998;fill:#1a1a1a;filter:url(#filter4954-0)">
        <path
           d="m 2641.6,3805.2 c -84.361,46.095 -109.93,65.964 -108.45,82.076 1.4829,16.111 37.239,24.348 133.24,50.927 95.998,26.579 490.45,45.984 474.44,-115.22 -16.005,-161.2 -414.87,-63.877 -499.23,-17.783 z"
           id="path72"
           inkscape:connector-curvature="0"
           style="stroke:#2e3436" />
        <path
           d="m 2546.7,3870.8 c -10.455,9.292 -14.302,16.478 -13.699,23.023 0.7274,7.9046 9.7367,13.896 30.031,21.106 -0.3855,-15.946 25.788,-35.901 108.47,-81.078 67.506,-36.885 336.4,-106.58 449.35,-50.351 -84.189,-93.377 -404.78,-12.543 -479.4,28.224 -50.09,27.369 -79.473,45.495 -94.754,59.076 z"
           id="path74"
           inkscape:connector-curvature="0"
           style="opacity:0.53070003;filter:url(#filter6213-1-5-0)" />
      </g>
      <path
         d="m 3665.8,1559.3 c -84.361,46.095 -109.93,65.964 -108.45,82.076 1.4829,16.111 37.239,24.348 133.24,50.927 95.998,26.579 490.45,45.984 474.44,-115.22 -16.005,-161.2 -414.87,-63.877 -499.23,-17.783 z"
         id="path76"
         inkscape:connector-curvature="0"
         style="fill:#8f5902;stroke:#2e3436" />
      <path
         d="m 3570.8,1624.9 c -10.455,9.292 -14.302,16.478 -13.699,23.023 0.7274,7.9046 9.7367,13.896 30.031,21.106 -0.3855,-15.946 25.788,-35.901 108.47,-81.078 67.506,-36.885 336.4,-106.58 449.35,-50.351 -84.189,-93.377 -404.78,-12.543 -479.4,28.224 -50.09,27.369 -79.473,45.495 -94.754,59.076 z"
         id="path78"
         inkscape:connector-curvature="0"
         style="opacity:0.53070003;fill:#c17d11;filter:url(#filter6213-1-5-0)" />
      <path
         transform="matrix(0.97082,-0.23982,-0.23982,-0.97082,887.15,3125.8)"
         d="m 2972.9,772.33 c -10.455,9.292 -14.302,16.478 -13.699,23.023 0.7274,7.9046 9.7367,13.896 30.031,21.106 -0.3855,-15.946 25.788,-35.901 108.47,-81.078 67.506,-36.885 336.4,-106.58 449.35,-50.351 -84.189,-93.377 -404.78,-12.543 -479.4,28.224 -50.09,27.369 -79.473,45.495 -94.754,59.076 z"
         id="path80"
         inkscape:connector-curvature="0"
         style="opacity:0.53070003;fill:#552200;filter:url(#filter6213-1-5-0)" />
      <path
         d="m 4102.2,1507.6 c -2.8807,0 -2.8911,12.498 -5.6463,13.043 25.059,4.9757 57.875,30.718 57.875,62.826 0,32.108 -26.216,58.272 -51.275,63.248 2.7556,0.5452 4.6468,10.252 7.5279,10.252 29.097,0 52.656,-37.379 52.656,-73.03 0,-35.651 -32.041,-76.34 -61.138,-76.34 z"
         id="path82"
         inkscape:connector-curvature="0"
         style="opacity:0.5;fill:url(#linearGradient5148);fill-rule:evenodd;filter:url(#filter5821)" />
      <path
         d="m 3665.8,1559.3 c -84.361,46.095 -109.93,65.964 -108.45,82.076 1.4829,16.111 37.239,24.348 133.24,50.927 95.998,26.579 490.45,45.984 474.44,-115.22 -16.005,-161.2 -414.87,-63.877 -499.23,-17.783 z"
         id="path84"
         inkscape:connector-curvature="0"
         style="fill:none;stroke:#2e3436" />
    </g>
    <path
       d="m 489.7169,463.69231 21.60684,23.53436 a 4.5358839,4.5358839 0 0 1 -0.27361,6.40891 l -31.08828,28.54208 a 4.5358839,4.5358839 0 0 1 -6.40891,-0.2737 L 451.9461,498.3696 a 4.5358839,4.5358839 0 0 1 0.27365,-6.40887 l 31.08828,-28.54208 a 4.5358839,4.5358839 0 0 1 6.40887,0.27366"
       id="path94"
       inkscape:connector-curvature="0"
       style="fill:#555753;stroke:#2e3436;stroke-width:1.18578994;stroke-linejoin:round" />
    <path
       transform="matrix(0.29833679,-0.27985541,0.29708503,0.33006638,-1436.0212,-362.51123)"
       d="m 2078.6,4317.7 53.886,0 a 7.6504,7.6504 0 0 1 7.6504,7.6504 l 0,71.182 a 7.6504,7.6504 0 0 1 -7.6504,7.6504 l -53.886,0 a 7.6504,7.6504 0 0 1 -7.6504,-7.6504 l 0,-71.182 A 7.6504,7.6504 0 0 1 2078.6,4317.7"
       id="path96"
       inkscape:connector-curvature="0"
       style="opacity:0.531;fill:#eeeeec;filter:url(#filter6251-1-6-6)" />
    <path
       d="m 489.7169,463.69231 21.60684,23.53436 a 4.5358839,4.5358839 0 0 1 -0.27361,6.40891 l -31.08828,28.54208 a 4.5358839,4.5358839 0 0 1 -6.40891,-0.2737 L 451.9461,498.3696 a 4.5358839,4.5358839 0 0 1 0.27365,-6.40887 l 31.08828,-28.54208 a 4.5358839,4.5358839 0 0 1 6.40887,0.27366"
       id="path98"
       inkscape:connector-curvature="0"
       style="fill:none;stroke:#2e3436;stroke-width:2.37157989;stroke-linejoin:round" />
    <g
       transform="matrix(0.34454497,0.48250724,-0.48250724,0.34454497,1123.8905,-674.63903)"
       id="g100"
       style="fill-rule:evenodd">
      <path
         transform="matrix(1.5458,0,0,1.5458,782.97,-1823)"
         d="m 88.436,2519.4 c 0,108.08 -87.613,195.69 -195.69,195.69 -108.077,0 -195.69,-87.613 -195.69,-195.69 0,-108.077 87.613,-195.69 195.69,-195.69 108.077,0 195.69,87.613 195.69,195.69 z"
         id="path102"
         inkscape:connector-curvature="0"
         style="opacity:0.77999998;fill:url(#linearGradient5150)" />
      <path
         d="m 610.6,1770.5 c -124.15,0 -231.23,71.893 -280.65,175.68 46.638,-27.676 101.3,-43.624 159.72,-43.624 171.09,0 309.8,136.54 309.8,304.95 0,46.209 -10.495,90.018 -29.182,129.26 89.935,-53.367 150.11,-150.46 150.11,-261.36 0,-168.41 -138.71,-304.91 -309.8,-304.91 z"
         id="path104"
         inkscape:connector-curvature="0"
         style="opacity:0.41000001;fill:#f9f9f9;filter:url(#filter4320)" />
      <g
         transform="matrix(0.97053,0,0,0.97053,-265.95,-621.36)"
         id="g106"
         style="fill:#1a1a1a;fill-opacity:0.99607999">
        <path
           d="m 907.92,2469.1 c -70.468,0.01 -141.24,24.502 -198.59,74.469 -86.213,75.11 -119.9,188.39 -97.844,293.22 -2.3139,-15.212 -3.5,-30.796 -3.5,-46.656 0,-169.64 137.28,-307.16 306.63,-307.16 109.62,0 205.79,57.624 260,144.28 -10.188,-18.526 -22.464,-36.28 -36.844,-52.906 -60.189,-69.595 -144.8,-105.26 -229.84,-105.25 z"
           id="path108"
           inkscape:connector-curvature="0"
           style="filter:url(#filter6624-6-7)" />
        <path
           d="m 907.92,2463.8 c -70.468,0.01 -141.24,24.502 -198.59,74.469 -86.213,75.11 -119.9,188.39 -97.844,293.22 -2.3139,-15.212 -3.5,-30.796 -3.5,-46.656 0,-169.64 137.28,-307.16 306.63,-307.16 109.62,0 205.79,57.624 260,144.28 -10.188,-18.526 -22.464,-36.28 -36.844,-52.906 -60.189,-69.595 -144.8,-105.26 -229.84,-105.25 z"
           id="path110"
           inkscape:connector-curvature="0" />
      </g>
      <path
         d="m 616.4,1732.1 c -78.759,0.01 -157.84,27.296 -221.94,82.938 -141.47,122.8 -156.45,337.23 -33.438,478.94 123.012,141.71 337.41,157.05 478.88,34.25 141.47,-122.8 156.42,-337.23 33.406,-478.94 -67.271,-77.498 -161.85,-117.2 -256.91,-117.19 z m 0.0625,35.594 c 85.091,-0.019 169.78,35.501 230,104.87 110.11,126.86 96.729,318.8 -29.906,428.72 -126.63,109.92 -318.57,96.199 -428.69,-30.656 -109.25,-125.86 -96.921,-315.8 26.969,-426.12 0.97504,-0.8694 1.9794,-1.7038 2.9688,-2.5625 57.381,-49.809 128.15,-74.234 198.66,-74.25 z"
         id="path112"
         inkscape:connector-curvature="0"
         style="opacity:0.77999998;fill:#2e3436;fill-opacity:0.99607999;stroke:#2e3436;stroke-width:0.89238;filter:url(#filter4070)" />
      <path
         d="m 616.8,1767.4 c -70.679,0.012 -141.65,24.487 -199.17,74.418 -126.95,110.19 -140.36,302.6 -29.978,429.76 110.38,127.17 302.79,140.92 429.73,30.73 126.95,-110.19 140.36,-302.6 29.978,-429.76 -60.366,-69.544 -145.26,-105.16 -230.56,-105.15 z m 0.72162,9.1106 c 162.94,0 295.03,132.32 295.03,295.54 0,163.22 -132.09,295.57 -295.03,295.57 -162.94,0 -295.03,-132.35 -295.03,-295.57 0,-163.22 132.09,-295.54 295.03,-295.54 z"
         id="path114"
         inkscape:connector-curvature="0"
         style="fill:url(#linearGradient5152)" />
      <g
         transform="matrix(0.98458,0,0,0.98458,-227.62,-2936)"
         id="g116"
         style="stroke:#2e3436">
        <path
           d="m 631.81,4825.4 c -143.68,124.72 -158.88,342.5 -33.944,486.43 124.936,143.93 342.69,159.5 486.37,34.783 143.68,-124.717 158.86,-342.48 33.922,-486.42 -124.97,-143.9 -342.71,-159.5 -486.39,-34.8 z m 20.694,29.932 c 0.9903,-0.883 2.0112,-1.7458 3.016,-2.618 128.62,-111.64 323.54,-97.722 435.37,31.12 111.84,128.84 98.236,323.8 -30.382,435.45 -128.62,111.64 -323.55,97.701 -435.39,-31.141 -110.96,-127.84 -98.445,-320.75 27.384,-432.81 z"
           id="path118"
           inkscape:connector-curvature="0"
           style="fill:#2e3436;fill-opacity:0.99607999;stroke-width:0.90635002" />
        <path
           d="m 631.27,4831.6 c -138.83,123.63 -152.64,336.48 -30.214,477.53 123.39,142.15 338.47,157.54 480.38,34.359 141.91,-123.181 156.91,-338.28 33.521,-480.44 -123.39,-142.15 -338.45,-157.51 -480.36,-34.335 -1.1087,0.9623 -2.2346,1.9145 -3.3275,2.8883 z m 19.019,15.189 c 131.94,-114.52 331.89,-100.24 446.61,31.929 114.72,132.169 100.78,332.17 -31.159,446.69 -131.939,114.52 -331.91,100.21 -446.63,-31.952 -114.72,-132.17 -100.76,-332.14 31.179,-446.67 z"
           id="path120"
           inkscape:connector-curvature="0"
           style="fill:url(#linearGradient5154)" />
      </g>
    </g>
  </g>
</svg>
