<?xml version="1.0" encoding="UTF-8" standalone="no"?>
<svg viewBox="0 0 64 64" xmlns="http://www.w3.org/2000/svg">
<defs>
<linearGradient gradientTransform="matrix(1.813328e-17,1,1,-1.813328e-17,-6.70302,7.12823)" gradientUnits="userSpaceOnUse" id="linearGradient1480" x2="0" y1="16.12544" y2="59.48378">
<stop offset="0" stop-color="#3ec549" stop-opacity=".50836"/>
<stop offset="1" stop-color="#4fe756" stop-opacity=".11706"/>
</linearGradient>
<linearGradient gradientTransform="matrix(1.813328e-17,1,1,-1.813328e-17,-6.64063,7.61641)" gradientUnits="userSpaceOnUse" id="linearGradient1483" x1="28.41412" x2="20.35306" y1="16.25" y2="62.97424">
<stop offset="0" stop-color="#56d760" stop-opacity=".58863"/>
<stop offset="1" stop-color="#18b01f" stop-opacity=".39216"/>
</linearGradient>
<linearGradient gradientTransform="matrix(1.813328e-17,1,1,-1.813328e-17,-6.62693,7.43473)" gradientUnits="userSpaceOnUse" id="linearGradient1486" x1="32.38206" x2="16.5042" y1="15.40625" y2="62.81013">
<stop offset="0" stop-color="#179907"/>
<stop offset="1" stop-color="#0f7402"/>
</linearGradient>
<linearGradient gradientTransform="matrix(1.813328e-17,1,1,-1.813328e-17,-6.62693,7.43473)" gradientUnits="userSpaceOnUse" id="linearGradient1489" x1="5.06804" x2="44.70229" y1="34.68702" y2="42.61263">
<stop offset="0" stop-color="#1b611f"/>
<stop offset="1" stop-color="#103f14"/>
</linearGradient>
</defs>
<path d="m24.52932,18.59098h14.0625c.0488-1 0-5 0-5 .00913-.44725.11732-.83036.53125-1s.86712-.09345 1.1875.21875l16,16c.4218.43543.4218,1.12707 0,1.5625l-16,16c-.32038.3122-.77357.41964-1.1875.25s-.52212-.584-.53125-1.03125v-5h-7.9375c-2.28125-.15625-3.28125.84375-3.28125,3.84375v6.0625c0,0 0,1-1,1-6,0-12-.0625-18-.0625-1,0-1-1-1-1v-12.5c0-14.5 8-19.5 17.15625-19.34375z" fill="url(#linearGradient1489)"/>
<path d="m8.77932,37.87223c0-7.00292 1.91619-11.44522 4.75-14.1875s6.70424-3.88634 11.03125-3.8125h.03125 14.0625c.71842.00083 1.31039-.56361 1.34375-1.28125 .05031-1.031.01155-3.43865 0-4.3125l15.25,15.25-15.25,15.28125c6e-005-.83265 0-3.41962 0-4.28125 6e-005-.74216-.60159-1.34381-1.34375-1.34375h-7.84375-.09375c-1.31742-.0728-2.63706.21119-3.5,1.1875-.88379.99991-1.125,2.35072-1.125,4v5.71875c-5.7622-.00225-11.53303-.06025-17.3125-.0625v-12.15625z" fill="url(#linearGradient1486)"/>
<path d="m9.60937,38.05391c0-6.84896 1.85689-11.036 4.5-13.59375s6.26778-3.63366 10.4375-3.5625h.03125 14.0625c1.16103.00134 2.13359-.93398 2.1875-2.09375 .02899-.59411.00656-1.4212 0-2.3125l13.21875,13.21875-13.21875,13.25c-1e-005-.90081 0-1.79719 0-2.25 9e-005-1.19834-.98916-2.18759-2.1875-2.1875h-7.78125-.0625-.0625c-1.46916-.08119-3.06433.23337-4.15625,1.46875-1.08312,1.22543-1.34375,2.83093-1.34375,4.5625v4.875c-5.19688-.0067-10.40521-.0558-15.625-.0625v-11.3125z" fill="url(#linearGradient1483)"/>
<path d="m9.63455,39.7902c-.26571-6.44027.59302-11.68118 4.3528-15.2467 2.68193-2.54336 5.50382-3.64289 10.62214-3.57152h.03125 14.0625c1.12936.00131 2.07254-.90288 2.125-2.03125 .03043-.62345.01152-1.5443 0-2.4375l13.2142,13.2142-9.79318,9.79318c-1.93197-7.88226-9.08034-13.38954-17.95227-13.38954-7.15242,0-12.29838,2.10475-16.66243,13.66913z" fill="url(#linearGradient1480)"/>
</svg>
