<?xml version="1.0" encoding="UTF-8"?>
<svg viewBox="0 0 650 500" xmlns="http://www.w3.org/2000/svg">
 <g transform="rotate(7.4303 319.12 271.87)" fill="#007fff">
  <g transform="matrix(.98901 -.11248 -.14785 -.75237 53.445 98.878)">
   <path transform="rotate(90.113 385.48 -253.55)" d="m404.87-290.14c0.94202 0.185 1.455 2.765 1.258 7.116-0.198 4.349-1.145 10.472-3.273 17.442-1.747 5.717-4.299 11.985-7.705 18.194-2.929 5.34-6.202 10.122-9.486 14.177-3.285 4.054-6.576 7.384-9.524 9.935-2.949 2.55-5.55 4.326-7.501 5.333s-3.247 1.253-3.683 0.70601c-0.43503-0.545 0.024994-1.83 1.146-3.714 1.12-1.885 2.897-4.377 5.058-7.416s4.705-6.627 7.373-10.698c2.668-4.069 5.457-8.622 8.154-13.539 3.137-5.719 5.802-11.303 8.011-16.359 2.697-6.173 4.737-11.554 6.361-15.352 1.625-3.797 2.869-6.009 3.811-5.825z"/>
   <path transform="rotate(90.113 384.45 -214.7)" d="m366.08-249.82c0.92502-0.149 2.109 1.976 3.639 5.611 1.531 3.634 3.444 8.778 5.988 14.687 2.083 4.841 4.604 10.193 7.586 15.685 2.563 4.721 5.223 9.101 7.771 13.022 2.548 3.92 4.981 7.382 7.05 10.313 2.068 2.932 3.769 5.336 4.836 7.149 1.068 1.811 1.498 3.037 1.063 3.543-0.436 0.505-1.7 0.23801-3.594-0.767s-4.413-2.754-7.26-5.244c-2.847-2.491-6.016-5.728-9.169-9.65-3.152-3.924-6.28-8.533-9.064-13.661-3.237-5.963-5.638-11.958-7.258-17.411-1.974-6.648-2.806-12.463-2.931-16.583-0.12399-4.119 0.418-6.545 1.343-6.694z"/>
   <path transform="rotate(90.113 356.54 -233.86)" d="m322.32-226.39c-0.45801-1.092 0.801-3.188 3.569-5.617 2.766-2.428 7.066-5.149 12.596-7.156 4.536-1.643 9.896-2.781 15.737-2.996 5.023-0.18599 9.916 0.326 14.371 1.288 4.456 0.96399 8.476 2.374 11.813 3.898 3.338 1.525 5.994 3.156 7.787 4.577 1.795 1.42 2.729 2.621 2.66 3.405-0.067993 0.78401-1.128 1.083-2.954 1.057-1.826-0.024994-4.418-0.365-7.576-0.774-3.157-0.41-6.882-0.884-10.974-1.197-4.092-0.312-8.551-0.45799-13.177-0.28799-5.38 0.19701-10.391 0.804-14.806 1.568-5.389 0.931-9.899 2.066-13.194 2.674-3.295 0.60899-5.394 0.653-5.852-0.43901z"/>
  </g>
  <path d="m418 246.71c19.571-6.179 52.007-14.438-86.974 2.234s-145.25 13.134-181.29 26.882c-36.033 13.748-21.636 32.175-10.858 42.377 10.777 10.202 27.681 35.378 36.928 25.073s-74.231-41.748-13.579-61.132c60.653-19.384 91.943-16.164 127.72-19.996 35.772-3.831 108.48-9.259 128.06-15.438z" stroke-width="null"/>
 </g>
</svg>
