<?xml version="1.0" encoding="UTF-8" standalone="no"?>
<svg viewBox="0 0 160 140.85191" xmlns="http://www.w3.org/2000/svg">
<defs>
<filter id="filter3398">
<feGaussianBlur stdDeviation="1.67115"/>
</filter>
<linearGradient gradientUnits="userSpaceOnUse" id="linearGradient2888" x2="0" y1="509.84375" y2="329.21875">
<stop offset="0" stop-color="#8f0"/>
<stop offset="1" stop-color="#257400"/>
</linearGradient>
</defs>
<g transform="matrix(.32096,0,0,.32096,-29.64669,-66.6034)">
<path d="m359.92918,276.03996-35.90802,76.34652 .15916.063-1.146.56716-61.88403-54.35318-135.29174,57.91371 64.58987,66.35814 .25467-.12603 .41383,1.70149-6.62134-3.05638-92.12572,8.63349 98.65156,45.08951 7.38534,78.99329 178.58509,90.17901 .0637,2.01658 1.146-.78772 .0318.6932v-.6932l139.52558-95.03142v-99.50571l73.1212-46.47591-72.10253,13.80099 54.46686-75.96842-213.31528-66.35814zm156.93841,142.98825 .12734.063-.15917.063 .0318-.12603z" fill="#00002f" fill-rule="evenodd"/>
<path d="m193.03694,421.27987 135.12586-68.30538 185.61245,65.33558-14.849,117.30707-142.55036,56.42618-139.58056-69.79028-23.75839-100.97317z" fill="#8d622f" fill-rule="evenodd"/>
<path d="m193.22443,423.25468 132.81928-67.00792-63.41821-56.23879-132.81928,57.43536 63.41821,65.81135z" fill="#9d6e2d" fill-rule="evenodd"/>
<path d="m324.34577,353.27135 35.24515-75.70988 209.39975,65.81135-54.22056,76.39303-190.42434-66.4945z" fill="#9d6e2d" fill-rule="evenodd"/>
<path d="m203.43124,547.49634 127.06611-82.38414-3.81945-112.13771 8.66324,111.7248 172.49451,81.31214-175.16257-75.90853-129.24184,77.39344z" fill-opacity=".57838" fill-rule="evenodd"/>
<path d="m376.41043,644.84093-4.11454-134.11845 142.22922-80.57671v119.657l-138.11468,95.03816z" fill="#9d6e2d" fill-rule="evenodd"/>
<path d="m514.69059,418.86901-148.13559,90.25038 79.6827-14.13725 140.08733-89.96434-71.63444,13.85121z" fill-rule="evenodd"/>
<path d="m513.95165,419.40752-141.81837,86.12216 74.18734-13.16227 130.42613-83.7599-62.7951,10.80001z" fill="#9d6e2d" fill-rule="evenodd"/>
<path d="m189.05806,424.16292 11.9657,129.22956 175.8958,89.74275-5.98285-134.01584-181.87865-84.95647z" fill="#9d6e2d" fill-rule="evenodd"/>
<path d="m187.3638,421.76978 189.55576,88.18017-73.09666,15.92142-206.90073-95.52852 90.44163-8.57307z" fill-rule="evenodd"/>
<path d="m189.05806,422.96635 183.07522,85.13947-70.59763,15.37241-199.8272-92.23443 87.34961-8.27745z" fill="#9d6e2d" fill-rule="evenodd"/>
<path d="m377.5505,644.76508-8.3973-136.65294h5.59821l2.79909,136.65294z" fill-rule="evenodd"/>
<path d="m193.03694,421.27987 132.15606-68.30538 190.06715,66.82048-191.55205-62.36578-130.67116,63.85068z" fill-rule="evenodd"/>
</g>
<g transform="matrix(.14625,0,0,.14625,30.80312,-.51253)">
<path d="m119.51221,12.55141v176.69834l-97.60816-.42408 113.36965,152.17261 113.36965,152.17261 115.70207-151.11242 115.77275-151.1831-102.13164-.49475v-177.82921h-258.47432z" fill="#88f288" fill-rule="evenodd" stroke="#008b00" stroke-width="18.0939"/>
<path d="m549.15625,395.34375c-.82074,10.76592-13.8696,14.20707-22.8125,11.9375-5.16273-.43111-11.30291-.70165-4.88091,4.8091 24.3046,32.55302 48.54199,65.15611 72.78716,97.7534l78.0625-101.875c-10.95829-.0515-21.91662-.10334-32.875-.125v-78.625h-90.28125v66.125z" fill="url(#linearGradient2888)" fill-rule="evenodd" filter="url(#filter3398)" transform="matrix(2.26174,0,0,2.26174,-1095.39,-704.914)"/>
<path d="m124.03569,189.24975c-4.28326,10.05286-26.76655,1.79041-38.44929,4.3882l-54.70608-.21812c76.18507,96.68606 86.87922,113.20375 131.50949,168.8184 28.28853-138.26124 180.43947-63.30207 211.07325-345.16334h-249.42737v172.17486z" fill="#fff5ee" fill-rule="evenodd" opacity=".55914"/>
</g>
</svg>
