<?xml version="1.0" encoding="UTF-8" standalone="no"?>
<!-- Created with Inkscape (http://www.inkscape.org/) -->

<svg
   xmlns:dc="http://purl.org/dc/elements/1.1/"
   xmlns:cc="http://creativecommons.org/ns#"
   xmlns:rdf="http://www.w3.org/1999/02/22-rdf-syntax-ns#"
   xmlns:svg="http://www.w3.org/2000/svg"
   xmlns="http://www.w3.org/2000/svg"
   xmlns:xlink="http://www.w3.org/1999/xlink"
   xmlns:sodipodi="http://sodipodi.sourceforge.net/DTD/sodipodi-0.dtd"
   xmlns:inkscape="http://www.inkscape.org/namespaces/inkscape"
   width="512"
   height="512"
   viewBox="0 0 479.99999 479.99999"
   id="svg2"
   version="1.1"
   inkscape:version="0.92.1 r15371"
   sodipodi:docname="BuildEngineIcon.svg"
   inkscape:export-filename="D:\Simon\Graphics\SVG\BuildEngineIcon.png"
   inkscape:export-xdpi="96"
   inkscape:export-ydpi="96">
  <defs
     id="defs4">
    <linearGradient
       id="linearGradient21123">
      <stop
         id="stop21125"
         stop-color="#bedcdc"
         offset="0"
         style="stop-color:#000000;stop-opacity:1" />
      <stop
         id="stop21127"
         stop-color="#8e9e9e"
         stop-opacity=".741"
         offset="0.67433178"
         style="stop-color:#000000;stop-opacity:1" />
      <stop
         id="stop21129"
         stop-color="#404f5c"
         stop-opacity=".839"
         offset="1"
         style="stop-color:#000000;stop-opacity:1" />
    </linearGradient>
    <linearGradient
       id="linearGradient21071">
      <stop
         id="stop21073"
         stop-color="#bedcdc"
         offset="0"
         style="stop-color:#ffffff;stop-opacity:1" />
      <stop
         id="stop21075"
         stop-color="#8e9e9e"
         stop-opacity=".741"
         offset=".5"
         style="stop-color:#fb0019;stop-opacity:1" />
      <stop
         id="stop21077"
         stop-color="#404f5c"
         stop-opacity=".839"
         offset="1"
         style="stop-color:#000000;stop-opacity:1" />
    </linearGradient>
    <clipPath
       clipPathUnits="userSpaceOnUse"
       id="clipPath20815">
      <rect
         style="opacity:1;fill:#005615;fill-opacity:0.70873784;fill-rule:nonzero;stroke:none;stroke-width:2;stroke-miterlimit:4;stroke-dasharray:none;stroke-dashoffset:0;stroke-opacity:1"
         id="rect20817"
         width="1417.98"
         height="1425.2146"
         x="-2987.8865"
         y="-940.76782"
         ry="147.39799" />
    </clipPath>
    <filter
       id="filter3340">
      <feGaussianBlur
         stdDeviation="3.959091"
         id="feGaussianBlur3342" />
    </filter>
    <filter
       id="filter3390">
      <feGaussianBlur
         stdDeviation="10.093933"
         id="feGaussianBlur3392" />
    </filter>
    <linearGradient
       id="linearGradient2254">
      <stop
         offset="0"
         stop-color="#bedcdc"
         id="stop2256" />
      <stop
         offset=".5"
         stop-opacity=".741"
         stop-color="#8e9e9e"
         id="stop2264" />
      <stop
         offset="1"
         stop-opacity=".839"
         stop-color="#404f5c"
         id="stop2258" />
    </linearGradient>
    <radialGradient
       r="148.86"
       gradientTransform="matrix(-0.15996637,-0.9231092,1.0180403,-0.17641278,-418.20054,1440.6652)"
       cx="611.27869"
       cy="333.67319"
       gradientUnits="userSpaceOnUse"
       xlink:href="#linearGradient21071"
       id="radialGradient2340"
       fx="611.27869"
       fy="333.67319" />
    <radialGradient
       r="148.86"
       gradientTransform="matrix(0.086859,-0.58077,0.6221,0.093576,261.99,772.78)"
       cx="380"
       cy="389.51001"
       gradientUnits="userSpaceOnUse"
       xlink:href="#linearGradient2254"
       id="radialGradient3406" />
    <clipPath
       id="clipPath20943"
       clipPathUnits="userSpaceOnUse">
      <path
         inkscape:connector-curvature="0"
         id="path20945"
         d="M 0,234 H 583.28 V 0 H 0 Z" />
    </clipPath>
    <clipPath
       clipPathUnits="userSpaceOnUse"
       id="clipPath21015">
      <rect
         style="opacity:1;fill:#005615;fill-opacity:0.70873784;fill-rule:nonzero;stroke:none;stroke-width:2;stroke-miterlimit:4;stroke-dasharray:none;stroke-dashoffset:0;stroke-opacity:1"
         id="rect21017"
         width="157.04973"
         height="185.69731"
         x="28.696365"
         y="-214.50931"
         ry="0"
         transform="scale(1,-1)" />
    </clipPath>
    <radialGradient
       inkscape:collect="always"
       xlink:href="#linearGradient21123"
       id="radialGradient21031"
       gradientUnits="userSpaceOnUse"
       gradientTransform="matrix(-0.10557,-0.9309,0.99363,-0.11268,-320.03948,1401.5158)"
       cx="607.44452"
       cy="209.62253"
       r="148.86"
       fx="607.44452"
       fy="209.62253" />
    <radialGradient
       inkscape:collect="always"
       xlink:href="#linearGradient2254"
       id="radialGradient21045"
       gradientUnits="userSpaceOnUse"
       gradientTransform="matrix(-0.10557,-0.9309,0.99363,-0.11268,-320.03948,1401.5158)"
       cx="380"
       cy="389.51001"
       r="148.86" />
    <linearGradient
       id="linearGradient847"
       inkscape:collect="always">
      <stop
         id="stop843"
         offset="0"
         style="stop-color:#ff0000;stop-opacity:1;" />
      <stop
         id="stop845"
         offset="1"
         style="stop-color:#ff0000;stop-opacity:0;" />
    </linearGradient>
    <linearGradient
       id="linearGradient839"
       inkscape:collect="always">
      <stop
         id="stop835"
         offset="0"
         style="stop-color:#ff0000;stop-opacity:1" />
      <stop
         id="stop837"
         offset="1"
         style="stop-color:#990000;stop-opacity:1" />
    </linearGradient>
    <clipPath
       id="clipPath4235"
       clipPathUnits="userSpaceOnUse">
      <path
         inkscape:connector-curvature="0"
         id="path4237"
         d="M 0,234 H 583.28 V 0 H 0 Z" />
    </clipPath>
    <linearGradient
       gradientUnits="userSpaceOnUse"
       y2="-96.085915"
       x2="80.498871"
       y1="87.890175"
       x1="12.222798"
       id="linearGradient841"
       xlink:href="#linearGradient839"
       inkscape:collect="always" />
    <linearGradient
       gradientUnits="userSpaceOnUse"
       y2="-31.345463"
       x2="39.116238"
       y1="12.934251"
       x1="-4.1161041"
       id="linearGradient849"
       xlink:href="#linearGradient847"
       inkscape:collect="always" />
  </defs>
  <sodipodi:namedview
     id="base"
     pagecolor="#ffffff"
     bordercolor="#666666"
     borderopacity="1.0"
     inkscape:pageopacity="0.0"
     inkscape:pageshadow="2"
     inkscape:zoom="0.78191752"
     inkscape:cx="575.24682"
     inkscape:cy="273.18291"
     inkscape:document-units="mm"
     inkscape:current-layer="layer1"
     showgrid="false"
     units="px"
     inkscape:window-width="1920"
     inkscape:window-height="1017"
     inkscape:window-x="1912"
     inkscape:window-y="-8"
     inkscape:window-maximized="1"
     fit-margin-top="0"
     fit-margin-left="0"
     fit-margin-right="0"
     fit-margin-bottom="0" />
  <metadata
     id="metadata7">
    <rdf:RDF>
      <cc:Work
         rdf:about="">
        <dc:format>image/svg+xml</dc:format>
        <dc:type
           rdf:resource="http://purl.org/dc/dcmitype/StillImage" />
        <dc:title></dc:title>
      </cc:Work>
    </rdf:RDF>
  </metadata>
  <g
     inkscape:label="Layer 1"
     inkscape:groupmode="layer"
     id="layer1"
     transform="translate(-27.651743,-570.70028)">
    <g
       id="g20922"
       transform="matrix(-0.80617884,-0.15734073,0.15740655,-0.80584176,100.35062,1519.6361)">
      <path
         style="fill:#c0c0c0;stroke-width:0"
         inkscape:connector-curvature="0"
         id="path2274"
         d="m -153.42348,646.14378 c -1.919,14.443 -14.276,25.605 -29.242,25.605 -14.205,0 -26.082,-10.041 -28.893,-23.413 -10.408,2.2411 -20.446,5.4599 -30.038,9.5397 5.256,13.367 0.10899,28.943 -12.703,36.34 -11.897,6.8683 -26.612,4.5282 -35.818,-4.8321 -6.4561,6.0028 -12.464,12.506 -17.909,19.453 11.462,8.902 14.883,25.138 7.4225,38.059 -7.1154,12.325 -21.791,17.594 -34.796,13.301 -3.1167,9.581 -5.4032,19.539 -6.7499,29.79 14.938,1.455 26.626,14.047 26.626,29.366 0,14.43 -10.371,26.431 -24.061,28.992 1.0186,4.591 2.1994,9.11 3.5867,13.55 2.6778,-0.70502 5.4161,-1.032 8.12,-0.97101 9.9691,0.22501 19.586,5.509 24.933,14.77 7.2778,12.606 4.1954,28.358 -6.6006,37.387 6.0239,7.929 12.736,15.31 20.051,22.043 5.562,-6.738 13.732,-10.521 22.143,-10.71 5.222,-0.11798 10.517,1.159 15.368,3.96 13.451,7.766 18.469,24.533 11.856,38.308 9.146,3.787 18.693,6.79 28.569,8.917 2.811,-13.372 14.688,-23.413 28.893,-23.413 14.966,0 27.323,11.162 29.242,25.605 8.943,-1.219 17.666,-3.129 26.103,-5.704 -4.414,-13.054 0.838,-27.843 13.226,-34.995 4.41,-2.546 9.215,-3.813 13.973,-3.936 9.568,-0.24698 18.958,4.187 24.784,12.354 8.508,-6.438 16.382,-13.679 23.513,-21.595 -10.227,-9.114 -13.021,-24.461 -5.904,-36.788 5.347,-9.261 14.964,-14.546 24.933,-14.77 3.977,-0.09 8.016,0.63098 11.856,2.216 3.446,-8.531 6.208,-17.416 8.22,-26.576 -12.831,-3.207 -22.343,-14.823 -22.343,-28.644 0,-14.699 10.766,-26.894 24.833,-29.142 -1.951,-15.014 -5.895,-29.397 -11.557,-42.891 -13.771,6.598 -30.521,1.588 -38.283,-11.856 -7.256,-12.569 -4.198,-28.271 6.526,-37.312 -6.438,-6.9339 -13.452,-13.34 -20.972,-19.104 -9.052,10.659 -24.7,13.69 -37.237,6.4511 -11.784,-6.803 -17.106,-20.52 -13.799,-33.077 -8.987,-2.8534 -18.301,-4.9722 -27.872,-6.2768 z m -22.766,106.61 c 1.022,0 2.03,0.023 3.039,0.074 4.035,0.205 7.974,0.81899 11.756,1.794 0.946,0.24301 1.888,0.50801 2.815,0.797 1.854,0.57701 3.659,1.243 5.43,1.992 0.88501,0.375 1.754,0.77799 2.615,1.19599 0.431,0.20901 0.871,0.42801 1.295,0.64801 0.06,0.03 0.116,0.069 0.175,0.099 0.578,0.299 1.152,0.605 1.718,0.922 0.62399,0.34999 1.233,0.7 1.844,1.071 1.627,0.98999 3.212,2.05 4.732,3.188 0.57001,0.426 1.139,0.87399 1.694,1.32 0.341,0.27501 0.68701,0.54001 1.021,0.82201 0.452,0.37999 0.87999,0.778 1.32,1.171 0.825,0.73601 1.636,1.486 2.416,2.266 0.502,0.50301 0.98601,1.024 1.47,1.545 0.008,0.008 0.017,0.016 0.025,0.025 0.22299,0.24 0.452,0.477 0.672,0.722 0.564,0.62701 1.107,1.266 1.644,1.918 0.151,0.183 0.3,0.36299 0.448,0.54799 0.448,0.55501 0.893,1.122 1.32,1.693 0.53299,0.71399 1.044,1.43 1.545,2.167 0.69899,1.031 1.382,2.088 2.017,3.164 0.362,0.612 0.70599,1.241 1.046,1.868 0.912,1.678 1.742,3.385 2.491,5.156 0.329,0.77499 0.651,1.549 0.94699,2.341 0.03,0.081 0.045,0.168 0.074,0.24899 0.263,0.713 0.51199,1.441 0.748,2.167 0.032,0.1 0.067,0.19899 0.099,0.299 0.092,0.28799 0.162,0.582 0.24899,0.87199 0.21501,0.711 0.43501,1.42 0.623,2.142 0.052,0.198 0.10001,0.398 0.149,0.59799 0.12801,0.51 0.235,1.029 0.349,1.544 0.14101,0.636 0.278,1.274 0.399,1.918 0.006,0.033 0.018,0.066 0.025,0.099 0.01,0.058 0.014,0.11699 0.025,0.175 0.135,0.743 0.26599,1.489 0.373,2.241 0.007,0.051 0.018,0.1 0.025,0.14999 0.023,0.16501 0.028,0.33301 0.05,0.498 0.091,0.69501 0.18201,1.39 0.24899,2.092 0.083,0.87401 0.15401,1.757 0.199,2.64 0.051,1.001 0.075,2.026 0.075,3.039 0,2.043 -0.097,4.038 -0.299,6.028 -9.9e-4,0.008 0.001,0.017 0,0.025 -0.101,0.98599 -0.22501,1.967 -0.37399,2.939 -0.001,0.008 0.002,0.017 0,0.025 -0.149,0.97101 -0.32701,1.934 -0.52301,2.889 -9.9e-4,0.008 0.002,0.017 0,0.025 -0.098,0.47801 -0.20999,0.94701 -0.323,1.42 -0.11,0.474 -0.228,0.95001 -0.349,1.419 -0.002,0.008 0.002,0.018 0,0.025 -0.242,0.938 -0.511,1.871 -0.797,2.79 -0.003,0.008 0.002,0.017 0,0.025 -0.576,1.846 -1.246,3.666 -1.993,5.43 -0.74901,1.771 -1.579,3.478 -2.491,5.156 -0.003,0.006 0.004,0.018 0,0.025 -0.909,1.671 -1.903,3.288 -2.964,4.857 -0.004,0.005 0.004,0.019 0,0.025 -0.528,0.78101 -1.079,1.537 -1.644,2.291 -0.004,0.006 0.005,0.02 0,0.025 -0.56401,0.755 -1.169,1.491 -1.768,2.217 -0.004,0.005 0.004,0.02 0,0.025 -2.411,2.919 -5.1,5.61 -8.02,8.02 -2.925,2.414 -6.085,4.553 -9.44,6.376 -1.678,0.91199 -3.41,1.742 -5.181,2.491 -1.771,0.74899 -3.576,1.416 -5.43,1.993 -0.927,0.28799 -1.869,0.55298 -2.815,0.797 -3.782,0.974 -7.721,1.588 -11.756,1.793 -1.009,0.051 -2.017,0.075 -3.039,0.075 -1.021,0 -2.03,-0.024 -3.038,-0.075 -4.035,-0.20502 -7.974,-0.819 -11.757,-1.793 -0.946,-0.24402 -1.888,-0.509 -2.814,-0.797 -1.854,-0.578 -3.66,-1.243 -5.43,-1.993 -1.771,-0.74899 -3.503,-1.579 -5.181,-2.491 -0.839,-0.45599 -1.652,-0.949 -2.466,-1.444 -0.814,-0.495 -1.626,-1.013 -2.416,-1.545 -0.78799,-0.53198 -1.557,-1.075 -2.317,-1.644 -1.519,-1.136 -2.981,-2.337 -4.383,-3.611 -0.69701,-0.63303 -1.377,-1.302 -2.043,-1.968 -0.674,-0.67398 -1.326,-1.337 -1.967,-2.042 -0.005,-0.005 0.004,-0.021 0,-0.025 -0.638,-0.702 -1.265,-1.411 -1.868,-2.142 -0.60399,-0.73099 -1.2,-1.482 -1.769,-2.242 -0.56799,-0.75998 -1.112,-1.528 -1.644,-2.316 -1.064,-1.575 -2.052,-3.204 -2.964,-4.882 -0.91199,-1.678 -1.741,-3.385 -2.491,-5.156 -0.003,-0.007 0.003,-0.018 0,-0.025 -0.371,-0.879 -0.741,-1.766 -1.071,-2.665 -0.002,-0.008 0.003,-0.018 0,-0.025 -0.332,-0.907 -0.633,-1.813 -0.921,-2.74 -0.282,-0.907 -0.53299,-1.815 -0.77199,-2.74 -0.018,-0.066 -0.033,-0.133 -0.05,-0.19899 -0.215,-0.841 -0.42,-1.71 -0.59801,-2.566 -0.045,-0.214 -0.082,-0.431 -0.125,-0.647 -0.11899,-0.60599 -0.248,-1.206 -0.34799,-1.818 -0.051,-0.30701 -0.104,-0.614 -0.15001,-0.922 -0.003,-0.024 0.004,-0.05 0,-0.075 -0.11899,-0.81001 -0.213,-1.62 -0.299,-2.441 -0.014,-0.14099 -0.036,-0.28099 -0.049,-0.423 -0.082,-0.84 -0.129,-1.691 -0.175,-2.541 -0.003,-0.067 -0.021,-0.13199 -0.025,-0.19899 -0.051,-1.009 -0.074,-2.017 -0.074,-3.039 0,-1.021 0.023,-2.03 0.074,-3.038 0.049,-0.99901 0.12399,-1.999 0.22499,-2.989 0,-0.009 -0.001,-0.017 0,-0.025 0.10001,-0.987 0.22501,-1.968 0.373,-2.939 0.001,-0.008 -0.001,-0.017 0,-0.025 0.149,-0.972 0.328,-1.934 0.52301,-2.89 0.002,-0.008 -0.001,-0.017 0,-0.024 0.196,-0.95599 0.43199,-1.902 0.67299,-2.84 0.002,-0.008 -0.002,-0.017 0,-0.025 0.241,-0.938 0.511,-1.87 0.797,-2.79 0.002,-0.007 -0.003,-0.017 0,-0.024 0.28801,-0.92699 0.589,-1.834 0.921,-2.74 0.24901,-0.68001 0.52501,-1.35 0.797,-2.018 0.031,-0.076 0.069,-0.148 0.10001,-0.224 0.134,-0.324 0.259,-0.64999 0.399,-0.97099 0.215,-0.49501 0.444,-0.98201 0.672,-1.47 0.157,-0.334 0.311,-0.66501 0.47301,-0.996 0.35799,-0.729 0.73399,-1.455 1.121,-2.167 0.004,-0.007 -0.003,-0.019 0,-0.025 0.45601,-0.839 0.925,-1.652 1.42,-2.466 0.498,-0.81999 1.008,-1.623 1.544,-2.416 0.52901,-0.782 1.08,-1.537 1.644,-2.292 0.004,-0.005 -0.004,-0.019 0,-0.024 0.565,-0.755 1.169,-1.491 1.769,-2.217 0.004,-0.005 -0.004,-0.02 0,-0.025 0.60301,-0.731 1.23,-1.441 1.868,-2.142 1.911,-2.104 3.958,-4.068 6.152,-5.878 2.924,-2.414 6.084,-4.553 9.44,-6.377 1.678,-0.91199 3.41,-1.741 5.181,-2.491 1.77,-0.74899 3.576,-1.415 5.43,-1.992 0.92601,-0.28899 1.868,-0.55399 2.814,-0.797 3.783,-0.974 7.722,-1.589 11.757,-1.794 1.008,-0.051 2.017,-0.074 3.038,-0.074 z" />
      <path
         style="opacity:0.794;fill:#a9a9a9;stroke-width:0"
         inkscape:connector-curvature="0"
         id="path2249"
         d="m -176.20348,675.55978 c -75.298,0 -136.4,61.122 -136.4,136.42 0,75.298 61.097,136.4 136.4,136.4 75.298,0 136.42,-61.097 136.42,-136.4 0,-75.298 -61.121,-136.42 -136.42,-136.42 z m 0.025,77.189 c 1.021,0 2.03,0.023 3.038,0.074 4.035,0.205 7.974,0.819 11.757,1.794 0.946,0.24301 1.888,0.50802 2.814,0.797 1.854,0.57701 3.66,1.243 5.43,1.992 2.656,1.124 5.205,2.452 7.647,3.936 1.628,0.98999 3.213,2.05 4.733,3.188 2.279,1.705 4.441,3.57 6.451,5.579 4.018,4.021 7.452,8.614 10.187,13.65 0.912,1.678 1.741,3.385 2.491,5.156 2.627,6.20501 4.224,12.956 4.583,20.025 0.05,1.00101 0.074,2.02601 0.074,3.039 0,2.043 -0.096,4.038 -0.29901,6.028 0,0.008 0.001,0.017 0,0.025 -0.1,0.98599 -0.22499,1.967 -0.37299,2.939 -10e-4,0.008 9.9e-4,0.017 0,0.025 -0.149,0.97101 -0.328,1.934 -0.52301,2.889 -0.002,0.008 0.001,0.017 0,0.025 -0.196,0.955 -0.431,1.902 -0.67299,2.839 -0.002,0.008 0.002,0.018 0,0.025 -0.242,0.938 -0.511,1.871 -0.79701,2.79 -0.002,0.008 0.003,0.017 0,0.025 -1.153,3.699 -2.663,7.237 -4.483,10.586 -0.004,0.006 0.003,0.018 0,0.025 -0.909,1.671 -1.904,3.288 -2.964,4.857 -0.004,0.005 0.004,0.019 0,0.025 -0.52901,0.78101 -1.08,1.537 -1.644,2.291 -0.004,0.006 0.004,0.02 0,0.025 -0.565,0.755 -1.169,1.491 -1.769,2.217 -0.004,0.005 0.005,0.02 0,0.025 -1.203,1.457 -2.475,2.849 -3.81,4.184 -0.674,0.67398 -1.362,1.327 -2.068,1.968 -0.701,0.63699 -1.411,1.265 -2.142,1.868 -2.924,2.414 -6.084,4.553 -9.44,6.376 -1.678,0.91199 -3.41,1.742 -5.181,2.491 -1.77001,0.74899 -3.576,1.416 -5.43001,1.993 -0.92599,0.28799 -1.86799,0.55298 -2.81399,0.797 -3.783,0.974 -7.72201,1.588 -11.75701,1.793 -1.008,0.051 -2.01699,0.075 -3.038,0.075 -1.022,0 -2.03,-0.024 -3.03899,-0.075 -4.035,-0.20502 -7.974,-0.819 -11.756,-1.793 -0.946,-0.24402 -1.88801,-0.509 -2.815,-0.797 -1.85401,-0.578 -3.659,-1.243 -5.43001,-1.993 -2.656,-1.124 -5.205,-2.451 -7.64699,-3.935 -1.62701,-0.98999 -3.212,-2.051 -4.732,-3.189 -3.045,-2.277 -5.84201,-4.836 -8.394,-7.646 -0.63699,-0.702 -1.265,-1.411 -1.868,-2.142 -2.414,-2.925 -4.553,-6.085 -6.376,-9.44 -0.91201,-1.678 -1.742,-3.385 -2.49101,-5.156 -0.003,-0.007 0.003,-0.018 0,-0.025 -0.37199,-0.879 -0.741,-1.766 -1.071,-2.665 -0.003,-0.008 0.002,-0.018 0,-0.025 -0.332,-0.907 -0.633,-1.813 -0.922,-2.74 -1.44399,-4.642 -2.336,-9.519 -2.59,-14.571 -0.051,-1.009 -0.075,-2.017 -0.075,-3.039 0,-2.051 0.095,-4.055 0.29901,-6.052 0.1,-0.987 0.22499,-1.968 0.37399,-2.939 0.001,-0.008 -0.002,-0.017 0,-0.025 0.14801,-0.972 0.327,-1.934 0.52301,-2.89 9.9e-4,-0.008 -0.002,-0.017 0,-0.024 0.19499,-0.95599 0.431,-1.902 0.672,-2.84 0.002,-0.008 -0.002,-0.017 0,-0.025 0.24199,-0.938 0.511,-1.87 0.797,-2.79 0.003,-0.007 -0.002,-0.017 0,-0.024 0.289,-0.92699 0.59,-1.834 0.922,-2.74 0.99901,-2.727 2.19,-5.349 3.562,-7.871 0.455,-0.839 0.925,-1.652 1.419,-2.466 0.49899,-0.81999 1.008,-1.623 1.545,-2.416 0.528,-0.782 1.079,-1.537 1.644,-2.292 0.003,-0.005 -0.004,-0.019 0,-0.024 0.56401,-0.755 1.169,-1.491 1.768,-2.217 0.004,-0.005 -0.004,-0.02 0,-0.025 0.603,-0.731 1.231,-1.441 1.868,-2.142 0.63701,-0.701 1.273,-1.373 1.943,-2.043 0.674,-0.674 1.362,-1.326 2.067,-1.967 0.701,-0.638 1.411,-1.265 2.142,-1.868 2.925,-2.414 6.085,-4.553 9.44,-6.377 1.678,-0.91199 3.41,-1.741 5.181,-2.491 1.771,-0.74899 3.576,-1.415 5.43,-1.992 0.927,-0.28899 1.869,-0.55399 2.815,-0.797 3.782,-0.974 7.721,-1.589 11.756,-1.794 1.009,-0.051 2.017,-0.074 3.039,-0.074 z" />
      <path
         style="opacity:0.794;fill:url(#radialGradient2340);stroke-width:0"
         inkscape:connector-curvature="0"
         id="path2252"
         d="m -176.20348,693.31578 c -65.493,0 -118.64,53.168 -118.64,118.66 0,65.493 53.143,118.64 118.64,118.64 65.492,0 118.66,-53.143 118.66,-118.64 0,-65.492 -53.168,-118.66 -118.66,-118.66 z m 0.025,59.43 c 32.683,0 59.205,26.547 59.205,59.23 0,32.684 -26.522,59.206 -59.205,59.206 -32.684,0 -59.206,-26.547 -59.206,-59.231 0,-32.683 26.522,-59.205 59.206,-59.205 z" />
      <path
         style="opacity:0.58800001;fill:#696969;stroke-width:0;filter:url(#filter3340)"
         inkscape:connector-curvature="0"
         id="path3318"
         d="m -176.18348,739.43578 c -40.092,0 -72.631,32.486 -72.631,72.516 0,40.03 32.539,72.542 72.631,72.542 40.093,0 72.631,-32.486 72.631,-72.516 v -0.026 c 0,-40.03 -32.538,-72.516 -72.631,-72.516 z m 0,16.423 c 31.07,0 56.287,25.141 56.287,56.119 0,30.977 -25.217,56.093 -56.287,56.093 -31.07,0 -56.286,-25.141 -56.286,-56.119 0,-30.977 25.216,-56.093 56.286,-56.093 z" />
      <path
         style="fill:#c0c0c0;stroke-width:0"
         inkscape:connector-curvature="0"
         id="path3313"
         d="m -176.18348,741.01578 c -39.102,0 -70.837,31.779 -70.837,70.937 0,39.159 31.735,70.962 70.837,70.962 39.103,0 70.838,-31.778 70.838,-70.937 v -0.025 c 0,-39.158 -31.735,-70.937 -70.838,-70.937 z m 0,16.066 c 30.303,0 54.897,24.593 54.897,54.896 0,30.303 -24.594,54.872 -54.897,54.872 -30.303,0 -54.896,-24.594 -54.896,-54.897 0,-30.303 24.593,-54.871 54.896,-54.871 z" />
    </g>
    <g
       transform="matrix(-0.48693423,-0.21136497,0.21145338,-0.48673063,-94.462216,1319.8433)"
       id="g21019">
      <path
         d="m -153.42348,646.14378 c -1.919,14.443 -14.276,25.605 -29.242,25.605 -14.205,0 -26.082,-10.041 -28.893,-23.413 -10.408,2.2411 -20.446,5.4599 -30.038,9.5397 5.256,13.367 0.10899,28.943 -12.703,36.34 -11.897,6.8683 -26.612,4.5282 -35.818,-4.8321 -6.4561,6.0028 -12.464,12.506 -17.909,19.453 11.462,8.902 14.883,25.138 7.4225,38.059 -7.1154,12.325 -21.791,17.594 -34.796,13.301 -3.1167,9.581 -5.4032,19.539 -6.7499,29.79 14.938,1.455 26.626,14.047 26.626,29.366 0,14.43 -10.371,26.431 -24.061,28.992 1.0186,4.591 2.1994,9.11 3.5867,13.55 2.6778,-0.70502 5.4161,-1.032 8.12,-0.97101 9.9691,0.22501 19.586,5.509 24.933,14.77 7.2778,12.606 4.1954,28.358 -6.6006,37.387 6.0239,7.929 12.736,15.31 20.051,22.043 5.562,-6.738 13.732,-10.521 22.143,-10.71 5.222,-0.11798 10.517,1.159 15.368,3.96 13.451,7.766 18.469,24.533 11.856,38.308 9.146,3.787 18.693,6.79 28.569,8.917 2.811,-13.372 14.688,-23.413 28.893,-23.413 14.966,0 27.323,11.162 29.242,25.605 8.943,-1.219 17.666,-3.129 26.103,-5.704 -4.414,-13.054 0.838,-27.843 13.226,-34.995 4.41,-2.546 9.215,-3.813 13.973,-3.936 9.568,-0.24698 18.958,4.187 24.784,12.354 8.508,-6.438 16.382,-13.679 23.513,-21.595 -10.227,-9.114 -13.021,-24.461 -5.904,-36.788 5.347,-9.261 14.964,-14.546 24.933,-14.77 3.977,-0.09 8.016,0.63098 11.856,2.216 3.446,-8.531 6.208,-17.416 8.22,-26.576 -12.831,-3.207 -22.343,-14.823 -22.343,-28.644 0,-14.699 10.766,-26.894 24.833,-29.142 -1.951,-15.014 -5.895,-29.397 -11.557,-42.891 -13.771,6.598 -30.521,1.588 -38.283,-11.856 -7.256,-12.569 -4.198,-28.271 6.526,-37.312 -6.438,-6.9339 -13.452,-13.34 -20.972,-19.104 -9.052,10.659 -24.7,13.69 -37.237,6.4511 -11.784,-6.803 -17.106,-20.52 -13.799,-33.077 -8.987,-2.8534 -18.301,-4.9722 -27.872,-6.2768 z m -22.766,106.61 c 1.022,0 2.03,0.023 3.039,0.074 4.035,0.205 7.974,0.81899 11.756,1.794 0.946,0.24301 1.888,0.50801 2.815,0.797 1.854,0.57701 3.659,1.243 5.43,1.992 0.88501,0.375 1.754,0.77799 2.615,1.19599 0.431,0.20901 0.871,0.42801 1.295,0.64801 0.06,0.03 0.116,0.069 0.175,0.099 0.578,0.299 1.152,0.605 1.718,0.922 0.62399,0.34999 1.233,0.7 1.844,1.071 1.627,0.98999 3.212,2.05 4.732,3.188 0.57001,0.426 1.139,0.87399 1.694,1.32 0.341,0.27501 0.68701,0.54001 1.021,0.82201 0.452,0.37999 0.87999,0.778 1.32,1.171 0.825,0.73601 1.636,1.486 2.416,2.266 0.502,0.50301 0.98601,1.024 1.47,1.545 0.008,0.008 0.017,0.016 0.025,0.025 0.22299,0.24 0.452,0.477 0.672,0.722 0.564,0.62701 1.107,1.266 1.644,1.918 0.151,0.183 0.3,0.36299 0.448,0.54799 0.448,0.55501 0.893,1.122 1.32,1.693 0.53299,0.71399 1.044,1.43 1.545,2.167 0.69899,1.031 1.382,2.088 2.017,3.164 0.362,0.612 0.70599,1.241 1.046,1.868 0.912,1.678 1.742,3.385 2.491,5.156 0.329,0.77499 0.651,1.549 0.94699,2.341 0.03,0.081 0.045,0.168 0.074,0.24899 0.263,0.713 0.51199,1.441 0.748,2.167 0.032,0.1 0.067,0.19899 0.099,0.299 0.092,0.28799 0.162,0.582 0.24899,0.87199 0.21501,0.711 0.43501,1.42 0.623,2.142 0.052,0.198 0.10001,0.398 0.149,0.59799 0.12801,0.51 0.235,1.029 0.349,1.544 0.14101,0.636 0.278,1.274 0.399,1.918 0.006,0.033 0.018,0.066 0.025,0.099 0.01,0.058 0.014,0.11699 0.025,0.175 0.135,0.743 0.26599,1.489 0.373,2.241 0.007,0.051 0.018,0.1 0.025,0.14999 0.023,0.16501 0.028,0.33301 0.05,0.498 0.091,0.69501 0.18201,1.39 0.24899,2.092 0.083,0.87401 0.15401,1.757 0.199,2.64 0.051,1.001 0.075,2.026 0.075,3.039 0,2.043 -0.097,4.038 -0.299,6.028 -9.9e-4,0.008 0.001,0.017 0,0.025 -0.101,0.98599 -0.22501,1.967 -0.37399,2.939 -0.001,0.008 0.002,0.017 0,0.025 -0.149,0.97101 -0.32701,1.934 -0.52301,2.889 -9.9e-4,0.008 0.002,0.017 0,0.025 -0.098,0.47801 -0.20999,0.94701 -0.323,1.42 -0.11,0.474 -0.228,0.95001 -0.349,1.419 -0.002,0.008 0.002,0.018 0,0.025 -0.242,0.938 -0.511,1.871 -0.797,2.79 -0.003,0.008 0.002,0.017 0,0.025 -0.576,1.846 -1.246,3.666 -1.993,5.43 -0.74901,1.771 -1.579,3.478 -2.491,5.156 -0.003,0.006 0.004,0.018 0,0.025 -0.909,1.671 -1.903,3.288 -2.964,4.857 -0.004,0.005 0.004,0.019 0,0.025 -0.528,0.78101 -1.079,1.537 -1.644,2.291 -0.004,0.006 0.005,0.02 0,0.025 -0.56401,0.755 -1.169,1.491 -1.768,2.217 -0.004,0.005 0.004,0.02 0,0.025 -2.411,2.919 -5.1,5.61 -8.02,8.02 -2.925,2.414 -6.085,4.553 -9.44,6.376 -1.678,0.91199 -3.41,1.742 -5.181,2.491 -1.771,0.74899 -3.576,1.416 -5.43,1.993 -0.927,0.28799 -1.869,0.55298 -2.815,0.797 -3.782,0.974 -7.721,1.588 -11.756,1.793 -1.009,0.051 -2.017,0.075 -3.039,0.075 -1.021,0 -2.03,-0.024 -3.038,-0.075 -4.035,-0.20502 -7.974,-0.819 -11.757,-1.793 -0.946,-0.24402 -1.888,-0.509 -2.814,-0.797 -1.854,-0.578 -3.66,-1.243 -5.43,-1.993 -1.771,-0.74899 -3.503,-1.579 -5.181,-2.491 -0.839,-0.45599 -1.652,-0.949 -2.466,-1.444 -0.814,-0.495 -1.626,-1.013 -2.416,-1.545 -0.78799,-0.53198 -1.557,-1.075 -2.317,-1.644 -1.519,-1.136 -2.981,-2.337 -4.383,-3.611 -0.69701,-0.63303 -1.377,-1.302 -2.043,-1.968 -0.674,-0.67398 -1.326,-1.337 -1.967,-2.042 -0.005,-0.005 0.004,-0.021 0,-0.025 -0.638,-0.702 -1.265,-1.411 -1.868,-2.142 -0.60399,-0.73099 -1.2,-1.482 -1.769,-2.242 -0.56799,-0.75998 -1.112,-1.528 -1.644,-2.316 -1.064,-1.575 -2.052,-3.204 -2.964,-4.882 -0.91199,-1.678 -1.741,-3.385 -2.491,-5.156 -0.003,-0.007 0.003,-0.018 0,-0.025 -0.371,-0.879 -0.741,-1.766 -1.071,-2.665 -0.002,-0.008 0.003,-0.018 0,-0.025 -0.332,-0.907 -0.633,-1.813 -0.921,-2.74 -0.282,-0.907 -0.53299,-1.815 -0.77199,-2.74 -0.018,-0.066 -0.033,-0.133 -0.05,-0.19899 -0.215,-0.841 -0.42,-1.71 -0.59801,-2.566 -0.045,-0.214 -0.082,-0.431 -0.125,-0.647 -0.11899,-0.60599 -0.248,-1.206 -0.34799,-1.818 -0.051,-0.30701 -0.104,-0.614 -0.15001,-0.922 -0.003,-0.024 0.004,-0.05 0,-0.075 -0.11899,-0.81001 -0.213,-1.62 -0.299,-2.441 -0.014,-0.14099 -0.036,-0.28099 -0.049,-0.423 -0.082,-0.84 -0.129,-1.691 -0.175,-2.541 -0.003,-0.067 -0.021,-0.13199 -0.025,-0.19899 -0.051,-1.009 -0.074,-2.017 -0.074,-3.039 0,-1.021 0.023,-2.03 0.074,-3.038 0.049,-0.99901 0.12399,-1.999 0.22499,-2.989 0,-0.009 -0.001,-0.017 0,-0.025 0.10001,-0.987 0.22501,-1.968 0.373,-2.939 0.001,-0.008 -0.001,-0.017 0,-0.025 0.149,-0.972 0.328,-1.934 0.52301,-2.89 0.002,-0.008 -0.001,-0.017 0,-0.024 0.196,-0.95599 0.43199,-1.902 0.67299,-2.84 0.002,-0.008 -0.002,-0.017 0,-0.025 0.241,-0.938 0.511,-1.87 0.797,-2.79 0.002,-0.007 -0.003,-0.017 0,-0.024 0.28801,-0.92699 0.589,-1.834 0.921,-2.74 0.24901,-0.68001 0.52501,-1.35 0.797,-2.018 0.031,-0.076 0.069,-0.148 0.10001,-0.224 0.134,-0.324 0.259,-0.64999 0.399,-0.97099 0.215,-0.49501 0.444,-0.98201 0.672,-1.47 0.157,-0.334 0.311,-0.66501 0.47301,-0.996 0.35799,-0.729 0.73399,-1.455 1.121,-2.167 0.004,-0.007 -0.003,-0.019 0,-0.025 0.45601,-0.839 0.925,-1.652 1.42,-2.466 0.498,-0.81999 1.008,-1.623 1.544,-2.416 0.52901,-0.782 1.08,-1.537 1.644,-2.292 0.004,-0.005 -0.004,-0.019 0,-0.024 0.565,-0.755 1.169,-1.491 1.769,-2.217 0.004,-0.005 -0.004,-0.02 0,-0.025 0.60301,-0.731 1.23,-1.441 1.868,-2.142 1.911,-2.104 3.958,-4.068 6.152,-5.878 2.924,-2.414 6.084,-4.553 9.44,-6.377 1.678,-0.91199 3.41,-1.741 5.181,-2.491 1.77,-0.74899 3.576,-1.415 5.43,-1.992 0.92601,-0.28899 1.868,-0.55399 2.814,-0.797 3.783,-0.974 7.722,-1.589 11.757,-1.794 1.008,-0.051 2.017,-0.074 3.038,-0.074 z"
         id="path21021"
         inkscape:connector-curvature="0"
         style="fill:#c0c0c0;stroke-width:0" />
      <path
         d="m -176.20348,675.55978 c -75.298,0 -136.4,61.122 -136.4,136.42 0,75.298 61.097,136.4 136.4,136.4 75.298,0 136.42,-61.097 136.42,-136.4 0,-75.298 -61.121,-136.42 -136.42,-136.42 z m 0.025,77.189 c 1.021,0 2.03,0.023 3.038,0.074 4.035,0.205 7.974,0.819 11.757,1.794 0.946,0.24301 1.888,0.50802 2.814,0.797 1.854,0.57701 3.66,1.243 5.43,1.992 2.656,1.124 5.205,2.452 7.647,3.936 1.628,0.98999 3.213,2.05 4.733,3.188 2.279,1.705 4.441,3.57 6.451,5.579 4.018,4.021 7.452,8.614 10.187,13.65 0.912,1.678 1.741,3.385 2.491,5.156 2.627,6.20501 4.224,12.956 4.583,20.025 0.05,1.00101 0.074,2.02601 0.074,3.039 0,2.043 -0.096,4.038 -0.29901,6.028 0,0.008 0.001,0.017 0,0.025 -0.1,0.98599 -0.22499,1.967 -0.37299,2.939 -10e-4,0.008 9.9e-4,0.017 0,0.025 -0.149,0.97101 -0.328,1.934 -0.52301,2.889 -0.002,0.008 0.001,0.017 0,0.025 -0.196,0.955 -0.431,1.902 -0.67299,2.839 -0.002,0.008 0.002,0.018 0,0.025 -0.242,0.938 -0.511,1.871 -0.79701,2.79 -0.002,0.008 0.003,0.017 0,0.025 -1.153,3.699 -2.663,7.237 -4.483,10.586 -0.004,0.006 0.003,0.018 0,0.025 -0.909,1.671 -1.904,3.288 -2.964,4.857 -0.004,0.005 0.004,0.019 0,0.025 -0.52901,0.78101 -1.08,1.537 -1.644,2.291 -0.004,0.006 0.004,0.02 0,0.025 -0.565,0.755 -1.169,1.491 -1.769,2.217 -0.004,0.005 0.005,0.02 0,0.025 -1.203,1.457 -2.475,2.849 -3.81,4.184 -0.674,0.67398 -1.362,1.327 -2.068,1.968 -0.701,0.63699 -1.411,1.265 -2.142,1.868 -2.924,2.414 -6.084,4.553 -9.44,6.376 -1.678,0.91199 -3.41,1.742 -5.181,2.491 -1.77001,0.74899 -3.576,1.416 -5.43001,1.993 -0.92599,0.28799 -1.86799,0.55298 -2.81399,0.797 -3.783,0.974 -7.72201,1.588 -11.75701,1.793 -1.008,0.051 -2.01699,0.075 -3.038,0.075 -1.022,0 -2.03,-0.024 -3.03899,-0.075 -4.035,-0.20502 -7.974,-0.819 -11.756,-1.793 -0.946,-0.24402 -1.88801,-0.509 -2.815,-0.797 -1.85401,-0.578 -3.659,-1.243 -5.43001,-1.993 -2.656,-1.124 -5.205,-2.451 -7.64699,-3.935 -1.62701,-0.98999 -3.212,-2.051 -4.732,-3.189 -3.045,-2.277 -5.84201,-4.836 -8.394,-7.646 -0.63699,-0.702 -1.265,-1.411 -1.868,-2.142 -2.414,-2.925 -4.553,-6.085 -6.376,-9.44 -0.91201,-1.678 -1.742,-3.385 -2.49101,-5.156 -0.003,-0.007 0.003,-0.018 0,-0.025 -0.37199,-0.879 -0.741,-1.766 -1.071,-2.665 -0.003,-0.008 0.002,-0.018 0,-0.025 -0.332,-0.907 -0.633,-1.813 -0.922,-2.74 -1.44399,-4.642 -2.336,-9.519 -2.59,-14.571 -0.051,-1.009 -0.075,-2.017 -0.075,-3.039 0,-2.051 0.095,-4.055 0.29901,-6.052 0.1,-0.987 0.22499,-1.968 0.37399,-2.939 0.001,-0.008 -0.002,-0.017 0,-0.025 0.14801,-0.972 0.327,-1.934 0.52301,-2.89 9.9e-4,-0.008 -0.002,-0.017 0,-0.024 0.19499,-0.95599 0.431,-1.902 0.672,-2.84 0.002,-0.008 -0.002,-0.017 0,-0.025 0.24199,-0.938 0.511,-1.87 0.797,-2.79 0.003,-0.007 -0.002,-0.017 0,-0.024 0.289,-0.92699 0.59,-1.834 0.922,-2.74 0.99901,-2.727 2.19,-5.349 3.562,-7.871 0.455,-0.839 0.925,-1.652 1.419,-2.466 0.49899,-0.81999 1.008,-1.623 1.545,-2.416 0.528,-0.782 1.079,-1.537 1.644,-2.292 0.003,-0.005 -0.004,-0.019 0,-0.024 0.56401,-0.755 1.169,-1.491 1.768,-2.217 0.004,-0.005 -0.004,-0.02 0,-0.025 0.603,-0.731 1.231,-1.441 1.868,-2.142 0.63701,-0.701 1.273,-1.373 1.943,-2.043 0.674,-0.674 1.362,-1.326 2.067,-1.967 0.701,-0.638 1.411,-1.265 2.142,-1.868 2.925,-2.414 6.085,-4.553 9.44,-6.377 1.678,-0.91199 3.41,-1.741 5.181,-2.491 1.771,-0.74899 3.576,-1.415 5.43,-1.992 0.927,-0.28899 1.869,-0.55399 2.815,-0.797 3.782,-0.974 7.721,-1.589 11.756,-1.794 1.009,-0.051 2.017,-0.074 3.039,-0.074 z"
         id="path21023"
         inkscape:connector-curvature="0"
         style="opacity:0.794;fill:#a9a9a9;stroke-width:0" />
      <path
         d="m -176.20348,693.31578 c -65.493,0 -118.64,53.168 -118.64,118.66 0,65.493 53.143,118.64 118.64,118.64 65.492,0 118.66,-53.143 118.66,-118.64 0,-65.492 -53.168,-118.66 -118.66,-118.66 z m 0.025,59.43 c 32.683,0 59.205,26.547 59.205,59.23 0,32.684 -26.522,59.206 -59.205,59.206 -32.684,0 -59.206,-26.547 -59.206,-59.231 0,-32.683 26.522,-59.205 59.206,-59.205 z"
         id="path21025"
         inkscape:connector-curvature="0"
         style="opacity:0.794;fill:url(#radialGradient21031);stroke-width:0" />
      <path
         d="m -176.18348,739.43578 c -40.092,0 -72.631,32.486 -72.631,72.516 0,40.03 32.539,72.542 72.631,72.542 40.093,0 72.631,-32.486 72.631,-72.516 v -0.026 c 0,-40.03 -32.538,-72.516 -72.631,-72.516 z m 0,16.423 c 31.07,0 56.287,25.141 56.287,56.119 0,30.977 -25.217,56.093 -56.287,56.093 -31.07,0 -56.286,-25.141 -56.286,-56.119 0,-30.977 25.216,-56.093 56.286,-56.093 z"
         id="path21027"
         inkscape:connector-curvature="0"
         style="opacity:0.58800001;fill:#696969;stroke-width:0;filter:url(#filter3340)" />
      <path
         d="m -176.18348,741.01578 c -39.102,0 -70.837,31.779 -70.837,70.937 0,39.159 31.735,70.962 70.837,70.962 39.103,0 70.838,-31.778 70.838,-70.937 v -0.025 c 0,-39.158 -31.735,-70.937 -70.838,-70.937 z m 0,16.066 c 30.303,0 54.897,24.593 54.897,54.896 0,30.303 -24.594,54.872 -54.897,54.872 -30.303,0 -54.896,-24.594 -54.896,-54.897 0,-30.303 24.593,-54.871 54.896,-54.871 z"
         id="path21029"
         inkscape:connector-curvature="0"
         style="fill:#c0c0c0;stroke-width:0" />
    </g>
    <g
       id="g21033"
       transform="matrix(-0.46857122,-0.3269055,0.32704224,-0.4683753,21.511456,988.92509)">
      <path
         style="fill:#c0c0c0;stroke-width:0"
         inkscape:connector-curvature="0"
         id="path21035"
         d="m -153.42348,646.14378 c -1.919,14.443 -14.276,25.605 -29.242,25.605 -14.205,0 -26.082,-10.041 -28.893,-23.413 -10.408,2.2411 -20.446,5.4599 -30.038,9.5397 5.256,13.367 0.10899,28.943 -12.703,36.34 -11.897,6.8683 -26.612,4.5282 -35.818,-4.8321 -6.4561,6.0028 -12.464,12.506 -17.909,19.453 11.462,8.902 14.883,25.138 7.4225,38.059 -7.1154,12.325 -21.791,17.594 -34.796,13.301 -3.1167,9.581 -5.4032,19.539 -6.7499,29.79 14.938,1.455 26.626,14.047 26.626,29.366 0,14.43 -10.371,26.431 -24.061,28.992 1.0186,4.591 2.1994,9.11 3.5867,13.55 2.6778,-0.70502 5.4161,-1.032 8.12,-0.97101 9.9691,0.22501 19.586,5.509 24.933,14.77 7.2778,12.606 4.1954,28.358 -6.6006,37.387 6.0239,7.929 12.736,15.31 20.051,22.043 5.562,-6.738 13.732,-10.521 22.143,-10.71 5.222,-0.11798 10.517,1.159 15.368,3.96 13.451,7.766 18.469,24.533 11.856,38.308 9.146,3.787 18.693,6.79 28.569,8.917 2.811,-13.372 14.688,-23.413 28.893,-23.413 14.966,0 27.323,11.162 29.242,25.605 8.943,-1.219 17.666,-3.129 26.103,-5.704 -4.414,-13.054 0.838,-27.843 13.226,-34.995 4.41,-2.546 9.215,-3.813 13.973,-3.936 9.568,-0.24698 18.958,4.187 24.784,12.354 8.508,-6.438 16.382,-13.679 23.513,-21.595 -10.227,-9.114 -13.021,-24.461 -5.904,-36.788 5.347,-9.261 14.964,-14.546 24.933,-14.77 3.977,-0.09 8.016,0.63098 11.856,2.216 3.446,-8.531 6.208,-17.416 8.22,-26.576 -12.831,-3.207 -22.343,-14.823 -22.343,-28.644 0,-14.699 10.766,-26.894 24.833,-29.142 -1.951,-15.014 -5.895,-29.397 -11.557,-42.891 -13.771,6.598 -30.521,1.588 -38.283,-11.856 -7.256,-12.569 -4.198,-28.271 6.526,-37.312 -6.438,-6.9339 -13.452,-13.34 -20.972,-19.104 -9.052,10.659 -24.7,13.69 -37.237,6.4511 -11.784,-6.803 -17.106,-20.52 -13.799,-33.077 -8.987,-2.8534 -18.301,-4.9722 -27.872,-6.2768 z m -22.766,106.61 c 1.022,0 2.03,0.023 3.039,0.074 4.035,0.205 7.974,0.81899 11.756,1.794 0.946,0.24301 1.888,0.50801 2.815,0.797 1.854,0.57701 3.659,1.243 5.43,1.992 0.88501,0.375 1.754,0.77799 2.615,1.19599 0.431,0.20901 0.871,0.42801 1.295,0.64801 0.06,0.03 0.116,0.069 0.175,0.099 0.578,0.299 1.152,0.605 1.718,0.922 0.62399,0.34999 1.233,0.7 1.844,1.071 1.627,0.98999 3.212,2.05 4.732,3.188 0.57001,0.426 1.139,0.87399 1.694,1.32 0.341,0.27501 0.68701,0.54001 1.021,0.82201 0.452,0.37999 0.87999,0.778 1.32,1.171 0.825,0.73601 1.636,1.486 2.416,2.266 0.502,0.50301 0.98601,1.024 1.47,1.545 0.008,0.008 0.017,0.016 0.025,0.025 0.22299,0.24 0.452,0.477 0.672,0.722 0.564,0.62701 1.107,1.266 1.644,1.918 0.151,0.183 0.3,0.36299 0.448,0.54799 0.448,0.55501 0.893,1.122 1.32,1.693 0.53299,0.71399 1.044,1.43 1.545,2.167 0.69899,1.031 1.382,2.088 2.017,3.164 0.362,0.612 0.70599,1.241 1.046,1.868 0.912,1.678 1.742,3.385 2.491,5.156 0.329,0.77499 0.651,1.549 0.94699,2.341 0.03,0.081 0.045,0.168 0.074,0.24899 0.263,0.713 0.51199,1.441 0.748,2.167 0.032,0.1 0.067,0.19899 0.099,0.299 0.092,0.28799 0.162,0.582 0.24899,0.87199 0.21501,0.711 0.43501,1.42 0.623,2.142 0.052,0.198 0.10001,0.398 0.149,0.59799 0.12801,0.51 0.235,1.029 0.349,1.544 0.14101,0.636 0.278,1.274 0.399,1.918 0.006,0.033 0.018,0.066 0.025,0.099 0.01,0.058 0.014,0.11699 0.025,0.175 0.135,0.743 0.26599,1.489 0.373,2.241 0.007,0.051 0.018,0.1 0.025,0.14999 0.023,0.16501 0.028,0.33301 0.05,0.498 0.091,0.69501 0.18201,1.39 0.24899,2.092 0.083,0.87401 0.15401,1.757 0.199,2.64 0.051,1.001 0.075,2.026 0.075,3.039 0,2.043 -0.097,4.038 -0.299,6.028 -9.9e-4,0.008 0.001,0.017 0,0.025 -0.101,0.98599 -0.22501,1.967 -0.37399,2.939 -0.001,0.008 0.002,0.017 0,0.025 -0.149,0.97101 -0.32701,1.934 -0.52301,2.889 -9.9e-4,0.008 0.002,0.017 0,0.025 -0.098,0.47801 -0.20999,0.94701 -0.323,1.42 -0.11,0.474 -0.228,0.95001 -0.349,1.419 -0.002,0.008 0.002,0.018 0,0.025 -0.242,0.938 -0.511,1.871 -0.797,2.79 -0.003,0.008 0.002,0.017 0,0.025 -0.576,1.846 -1.246,3.666 -1.993,5.43 -0.74901,1.771 -1.579,3.478 -2.491,5.156 -0.003,0.006 0.004,0.018 0,0.025 -0.909,1.671 -1.903,3.288 -2.964,4.857 -0.004,0.005 0.004,0.019 0,0.025 -0.528,0.78101 -1.079,1.537 -1.644,2.291 -0.004,0.006 0.005,0.02 0,0.025 -0.56401,0.755 -1.169,1.491 -1.768,2.217 -0.004,0.005 0.004,0.02 0,0.025 -2.411,2.919 -5.1,5.61 -8.02,8.02 -2.925,2.414 -6.085,4.553 -9.44,6.376 -1.678,0.91199 -3.41,1.742 -5.181,2.491 -1.771,0.74899 -3.576,1.416 -5.43,1.993 -0.927,0.28799 -1.869,0.55298 -2.815,0.797 -3.782,0.974 -7.721,1.588 -11.756,1.793 -1.009,0.051 -2.017,0.075 -3.039,0.075 -1.021,0 -2.03,-0.024 -3.038,-0.075 -4.035,-0.20502 -7.974,-0.819 -11.757,-1.793 -0.946,-0.24402 -1.888,-0.509 -2.814,-0.797 -1.854,-0.578 -3.66,-1.243 -5.43,-1.993 -1.771,-0.74899 -3.503,-1.579 -5.181,-2.491 -0.839,-0.45599 -1.652,-0.949 -2.466,-1.444 -0.814,-0.495 -1.626,-1.013 -2.416,-1.545 -0.78799,-0.53198 -1.557,-1.075 -2.317,-1.644 -1.519,-1.136 -2.981,-2.337 -4.383,-3.611 -0.69701,-0.63303 -1.377,-1.302 -2.043,-1.968 -0.674,-0.67398 -1.326,-1.337 -1.967,-2.042 -0.005,-0.005 0.004,-0.021 0,-0.025 -0.638,-0.702 -1.265,-1.411 -1.868,-2.142 -0.60399,-0.73099 -1.2,-1.482 -1.769,-2.242 -0.56799,-0.75998 -1.112,-1.528 -1.644,-2.316 -1.064,-1.575 -2.052,-3.204 -2.964,-4.882 -0.91199,-1.678 -1.741,-3.385 -2.491,-5.156 -0.003,-0.007 0.003,-0.018 0,-0.025 -0.371,-0.879 -0.741,-1.766 -1.071,-2.665 -0.002,-0.008 0.003,-0.018 0,-0.025 -0.332,-0.907 -0.633,-1.813 -0.921,-2.74 -0.282,-0.907 -0.53299,-1.815 -0.77199,-2.74 -0.018,-0.066 -0.033,-0.133 -0.05,-0.19899 -0.215,-0.841 -0.42,-1.71 -0.59801,-2.566 -0.045,-0.214 -0.082,-0.431 -0.125,-0.647 -0.11899,-0.60599 -0.248,-1.206 -0.34799,-1.818 -0.051,-0.30701 -0.104,-0.614 -0.15001,-0.922 -0.003,-0.024 0.004,-0.05 0,-0.075 -0.11899,-0.81001 -0.213,-1.62 -0.299,-2.441 -0.014,-0.14099 -0.036,-0.28099 -0.049,-0.423 -0.082,-0.84 -0.129,-1.691 -0.175,-2.541 -0.003,-0.067 -0.021,-0.13199 -0.025,-0.19899 -0.051,-1.009 -0.074,-2.017 -0.074,-3.039 0,-1.021 0.023,-2.03 0.074,-3.038 0.049,-0.99901 0.12399,-1.999 0.22499,-2.989 0,-0.009 -0.001,-0.017 0,-0.025 0.10001,-0.987 0.22501,-1.968 0.373,-2.939 0.001,-0.008 -0.001,-0.017 0,-0.025 0.149,-0.972 0.328,-1.934 0.52301,-2.89 0.002,-0.008 -0.001,-0.017 0,-0.024 0.196,-0.95599 0.43199,-1.902 0.67299,-2.84 0.002,-0.008 -0.002,-0.017 0,-0.025 0.241,-0.938 0.511,-1.87 0.797,-2.79 0.002,-0.007 -0.003,-0.017 0,-0.024 0.28801,-0.92699 0.589,-1.834 0.921,-2.74 0.24901,-0.68001 0.52501,-1.35 0.797,-2.018 0.031,-0.076 0.069,-0.148 0.10001,-0.224 0.134,-0.324 0.259,-0.64999 0.399,-0.97099 0.215,-0.49501 0.444,-0.98201 0.672,-1.47 0.157,-0.334 0.311,-0.66501 0.47301,-0.996 0.35799,-0.729 0.73399,-1.455 1.121,-2.167 0.004,-0.007 -0.003,-0.019 0,-0.025 0.45601,-0.839 0.925,-1.652 1.42,-2.466 0.498,-0.81999 1.008,-1.623 1.544,-2.416 0.52901,-0.782 1.08,-1.537 1.644,-2.292 0.004,-0.005 -0.004,-0.019 0,-0.024 0.565,-0.755 1.169,-1.491 1.769,-2.217 0.004,-0.005 -0.004,-0.02 0,-0.025 0.60301,-0.731 1.23,-1.441 1.868,-2.142 1.911,-2.104 3.958,-4.068 6.152,-5.878 2.924,-2.414 6.084,-4.553 9.44,-6.377 1.678,-0.91199 3.41,-1.741 5.181,-2.491 1.77,-0.74899 3.576,-1.415 5.43,-1.992 0.92601,-0.28899 1.868,-0.55399 2.814,-0.797 3.783,-0.974 7.722,-1.589 11.757,-1.794 1.008,-0.051 2.017,-0.074 3.038,-0.074 z" />
      <path
         style="opacity:0.794;fill:#a9a9a9;stroke-width:0"
         inkscape:connector-curvature="0"
         id="path21037"
         d="m -176.20348,675.55978 c -75.298,0 -136.4,61.122 -136.4,136.42 0,75.298 61.097,136.4 136.4,136.4 75.298,0 136.42,-61.097 136.42,-136.4 0,-75.298 -61.121,-136.42 -136.42,-136.42 z m 0.025,77.189 c 1.021,0 2.03,0.023 3.038,0.074 4.035,0.205 7.974,0.819 11.757,1.794 0.946,0.24301 1.888,0.50802 2.814,0.797 1.854,0.57701 3.66,1.243 5.43,1.992 2.656,1.124 5.205,2.452 7.647,3.936 1.628,0.98999 3.213,2.05 4.733,3.188 2.279,1.705 4.441,3.57 6.451,5.579 4.018,4.021 7.452,8.614 10.187,13.65 0.912,1.678 1.741,3.385 2.491,5.156 2.627,6.20501 4.224,12.956 4.583,20.025 0.05,1.00101 0.074,2.02601 0.074,3.039 0,2.043 -0.096,4.038 -0.29901,6.028 0,0.008 0.001,0.017 0,0.025 -0.1,0.98599 -0.22499,1.967 -0.37299,2.939 -10e-4,0.008 9.9e-4,0.017 0,0.025 -0.149,0.97101 -0.328,1.934 -0.52301,2.889 -0.002,0.008 0.001,0.017 0,0.025 -0.196,0.955 -0.431,1.902 -0.67299,2.839 -0.002,0.008 0.002,0.018 0,0.025 -0.242,0.938 -0.511,1.871 -0.79701,2.79 -0.002,0.008 0.003,0.017 0,0.025 -1.153,3.699 -2.663,7.237 -4.483,10.586 -0.004,0.006 0.003,0.018 0,0.025 -0.909,1.671 -1.904,3.288 -2.964,4.857 -0.004,0.005 0.004,0.019 0,0.025 -0.52901,0.78101 -1.08,1.537 -1.644,2.291 -0.004,0.006 0.004,0.02 0,0.025 -0.565,0.755 -1.169,1.491 -1.769,2.217 -0.004,0.005 0.005,0.02 0,0.025 -1.203,1.457 -2.475,2.849 -3.81,4.184 -0.674,0.67398 -1.362,1.327 -2.068,1.968 -0.701,0.63699 -1.411,1.265 -2.142,1.868 -2.924,2.414 -6.084,4.553 -9.44,6.376 -1.678,0.91199 -3.41,1.742 -5.181,2.491 -1.77001,0.74899 -3.576,1.416 -5.43001,1.993 -0.92599,0.28799 -1.86799,0.55298 -2.81399,0.797 -3.783,0.974 -7.72201,1.588 -11.75701,1.793 -1.008,0.051 -2.01699,0.075 -3.038,0.075 -1.022,0 -2.03,-0.024 -3.03899,-0.075 -4.035,-0.20502 -7.974,-0.819 -11.756,-1.793 -0.946,-0.24402 -1.88801,-0.509 -2.815,-0.797 -1.85401,-0.578 -3.659,-1.243 -5.43001,-1.993 -2.656,-1.124 -5.205,-2.451 -7.64699,-3.935 -1.62701,-0.98999 -3.212,-2.051 -4.732,-3.189 -3.045,-2.277 -5.84201,-4.836 -8.394,-7.646 -0.63699,-0.702 -1.265,-1.411 -1.868,-2.142 -2.414,-2.925 -4.553,-6.085 -6.376,-9.44 -0.91201,-1.678 -1.742,-3.385 -2.49101,-5.156 -0.003,-0.007 0.003,-0.018 0,-0.025 -0.37199,-0.879 -0.741,-1.766 -1.071,-2.665 -0.003,-0.008 0.002,-0.018 0,-0.025 -0.332,-0.907 -0.633,-1.813 -0.922,-2.74 -1.44399,-4.642 -2.336,-9.519 -2.59,-14.571 -0.051,-1.009 -0.075,-2.017 -0.075,-3.039 0,-2.051 0.095,-4.055 0.29901,-6.052 0.1,-0.987 0.22499,-1.968 0.37399,-2.939 0.001,-0.008 -0.002,-0.017 0,-0.025 0.14801,-0.972 0.327,-1.934 0.52301,-2.89 9.9e-4,-0.008 -0.002,-0.017 0,-0.024 0.19499,-0.95599 0.431,-1.902 0.672,-2.84 0.002,-0.008 -0.002,-0.017 0,-0.025 0.24199,-0.938 0.511,-1.87 0.797,-2.79 0.003,-0.007 -0.002,-0.017 0,-0.024 0.289,-0.92699 0.59,-1.834 0.922,-2.74 0.99901,-2.727 2.19,-5.349 3.562,-7.871 0.455,-0.839 0.925,-1.652 1.419,-2.466 0.49899,-0.81999 1.008,-1.623 1.545,-2.416 0.528,-0.782 1.079,-1.537 1.644,-2.292 0.003,-0.005 -0.004,-0.019 0,-0.024 0.56401,-0.755 1.169,-1.491 1.768,-2.217 0.004,-0.005 -0.004,-0.02 0,-0.025 0.603,-0.731 1.231,-1.441 1.868,-2.142 0.63701,-0.701 1.273,-1.373 1.943,-2.043 0.674,-0.674 1.362,-1.326 2.067,-1.967 0.701,-0.638 1.411,-1.265 2.142,-1.868 2.925,-2.414 6.085,-4.553 9.44,-6.377 1.678,-0.91199 3.41,-1.741 5.181,-2.491 1.771,-0.74899 3.576,-1.415 5.43,-1.992 0.927,-0.28899 1.869,-0.55399 2.815,-0.797 3.782,-0.974 7.721,-1.589 11.756,-1.794 1.009,-0.051 2.017,-0.074 3.039,-0.074 z" />
      <path
         style="opacity:0.794;fill:url(#radialGradient21045);stroke-width:0"
         inkscape:connector-curvature="0"
         id="path21039"
         d="m -176.20348,693.31578 c -65.493,0 -118.64,53.168 -118.64,118.66 0,65.493 53.143,118.64 118.64,118.64 65.492,0 118.66,-53.143 118.66,-118.64 0,-65.492 -53.168,-118.66 -118.66,-118.66 z m 0.025,59.43 c 32.683,0 59.205,26.547 59.205,59.23 0,32.684 -26.522,59.206 -59.205,59.206 -32.684,0 -59.206,-26.547 -59.206,-59.231 0,-32.683 26.522,-59.205 59.206,-59.205 z" />
      <path
         style="opacity:0.58800001;fill:#696969;stroke-width:0;filter:url(#filter3340)"
         inkscape:connector-curvature="0"
         id="path21041"
         d="m -176.18348,739.43578 c -40.092,0 -72.631,32.486 -72.631,72.516 0,40.03 32.539,72.542 72.631,72.542 40.093,0 72.631,-32.486 72.631,-72.516 v -0.026 c 0,-40.03 -32.538,-72.516 -72.631,-72.516 z m 0,16.423 c 31.07,0 56.287,25.141 56.287,56.119 0,30.977 -25.217,56.093 -56.287,56.093 -31.07,0 -56.286,-25.141 -56.286,-56.119 0,-30.977 25.216,-56.093 56.286,-56.093 z" />
      <path
         style="fill:#c0c0c0;stroke-width:0"
         inkscape:connector-curvature="0"
         id="path21043"
         d="m -176.18348,741.01578 c -39.102,0 -70.837,31.779 -70.837,70.937 0,39.159 31.735,70.962 70.837,70.962 39.103,0 70.838,-31.778 70.838,-70.937 v -0.025 c 0,-39.158 -31.735,-70.937 -70.838,-70.937 z m 0,16.066 c 30.303,0 54.897,24.593 54.897,54.896 0,30.303 -24.594,54.872 -54.897,54.872 -30.303,0 -54.896,-24.594 -54.896,-54.897 0,-30.303 24.593,-54.871 54.896,-54.871 z" />
    </g>
    <g
       transform="matrix(1.4932484,0,0,-1.7727443,-17.537061,908.17749)"
       inkscape:label="XJET_LOGO"
       id="g4229">
      <g
         transform="matrix(1.0307419,0,0,0.86831937,114.10265,112.70366)"
         id="g4239">
        <path
           sodipodi:nodetypes="ccsccccccsccccccsccccsccc"
           inkscape:connector-curvature="0"
           id="path4241"
           style="fill:url(#linearGradient841);fill-opacity:1;fill-rule:nonzero;stroke:none"
           d="m 0,0 28.31,86.95 c 6.573,1.012 12.893,1.516 18.96,1.516 3.198,0 6.444,-0.086 9.73,-0.251 3.287,-0.171 6.613,-0.507 9.983,-1.01 L 30.112108,6.2559531 30.626771,-5.4283932 74.314,-94.283 c -3.877,-0.504 -7.29,-0.884 -10.237,-1.139 -2.951,-0.252 -5.94,-0.376 -8.972,-0.376 -2.868,0 -5.775,0.124 -8.72,0.376 -2.952,0.255 -6.533,0.721 -10.743,1.393 z m -40.977,0.758 -32.608,86.447 c 3.37,0.503 6.7,0.839 9.986,1.01 3.286,0.165 6.528,0.251 9.732,0.251 6.066,0 12.385,-0.504 18.957,-1.516 L -6.096,0 -42.24,-94.029 c -4.214,-0.672 -7.796,-1.138 -10.743,-1.393 -2.951,-0.252 -5.857,-0.376 -8.721,-0.376 -3.033,0 -6.026,0.124 -8.972,0.376 -2.951,0.255 -6.364,0.635 -10.238,1.139 z" />
        <path
           sodipodi:nodetypes="cccccc"
           d="M -40.977,0.758 -73.585,87.205 -34.587901,6.2559531 -34.587751,-5.4283932 -80.914,-94.283 Z"
           style="fill:#ff0000;fill-opacity:1;fill-rule:nonzero;stroke:#000000;stroke-width:0.07927688;stroke-miterlimit:4;stroke-dasharray:none;stroke-opacity:1"
           id="path819"
           inkscape:connector-curvature="0" />
        <path
           sodipodi:nodetypes="cccccc"
           d="M 30.112108,6.2559531 66.983,87.205 35.099016,0.758 74.314,-94.283 30.626771,-5.4283932 Z"
           style="fill:#990000;fill-opacity:1;fill-rule:nonzero;stroke:#000000;stroke-width:0.07927688;stroke-miterlimit:4;stroke-dasharray:none;stroke-opacity:1"
           id="path829"
           inkscape:connector-curvature="0" />
        <path
           inkscape:connector-curvature="0"
           id="path831"
           style="fill:#cf0000;fill-opacity:1;fill-rule:nonzero;stroke:#000000;stroke-width:0.07927688;stroke-miterlimit:4;stroke-dasharray:none;stroke-opacity:1"
           d="m -34.587901,6.2559531 c 4.8e-5,-3.8947821 9.9e-5,-7.7895642 1.5e-4,-11.6843463 l 28.3624537,5.73420593 z"
           sodipodi:nodetypes="cccc" />
        <path
           sodipodi:nodetypes="cccc"
           d="M 30.626771,-5.4283932 30.112108,6.2559531 0,0 Z"
           style="fill:url(#linearGradient849);fill-opacity:1;fill-rule:nonzero;stroke:#000000;stroke-width:0.07927688;stroke-miterlimit:4;stroke-dasharray:none;stroke-opacity:1"
           id="path833"
           inkscape:connector-curvature="0" />
      </g>
    </g>
  </g>
</svg>
