<?xml version="1.0" encoding="UTF-8" standalone="no"?>
<!-- Created with Inkscape (http://www.inkscape.org/) -->

<svg
   xmlns:dc="http://purl.org/dc/elements/1.1/"
   xmlns:cc="http://creativecommons.org/ns#"
   xmlns:rdf="http://www.w3.org/1999/02/22-rdf-syntax-ns#"
   xmlns:svg="http://www.w3.org/2000/svg"
   xmlns="http://www.w3.org/2000/svg"
   xmlns:xlink="http://www.w3.org/1999/xlink"
   xmlns:sodipodi="http://sodipodi.sourceforge.net/DTD/sodipodi-0.dtd"
   xmlns:inkscape="http://www.inkscape.org/namespaces/inkscape"
   width="85.466995mm"
   height="85.46701mm"
   viewBox="0 0 85.466995 85.46701"
   version="1.1"
   id="svg8"
   inkscape:version="0.92.5 (2060ec1f9f, 2020-04-08)"
   sodipodi:docname="Tuning.svg">
  <defs
     id="defs2">
    <clipPath
       clipPathUnits="userSpaceOnUse"
       id="clipPath905">
      <path
         inkscape:connector-curvature="0"
         id="path907"
         d="m 103.25028,189.10311 c -1.52449,-0.47576 -2.79025,-1.65731 -3.368752,-3.14469 -0.626502,-1.61073 -0.0886,-4.09638 1.174682,-5.42825 0.62661,-0.6606 2.19186,-1.49719 2.80698,-1.5002 0.22837,-0.001 1.60034,-1.233 3.62252,-3.25281 l 3.25479,-3.25101 -0.26771,-0.76857 c -0.38709,-1.11109 -0.50528,-3.42218 -0.24441,-4.77922 0.12297,-0.64017 0.52461,-1.78766 0.89235,-2.55 0.6257,-1.29711 1.12002,-1.8407 7.70259,-8.4704 3.87152,-3.89924 7.40785,-7.30558 7.86559,-7.57642 1.77132,-1.04819 4.24571,-0.42818 5.24146,1.31331 0.59007,1.032 0.73138,1.94569 0.4689,3.03142 -0.20203,0.83567 -0.64804,1.32572 -7.20231,7.91352 -4.01432,4.03486 -7.07553,7.25776 -7.19514,7.5752 -0.58701,1.55787 1.0076,3.24219 2.52942,2.67171 0.28643,-0.10731 3.68126,-3.33851 7.54373,-7.18024 6.43993,-6.40529 7.09561,-7.00456 7.9013,-7.22152 2.55661,-0.68845 4.96733,1.07546 4.99162,3.65227 0.008,0.63032 -0.11571,1.3274 -0.29979,1.71472 -0.17682,0.37273 -3.45754,3.78979 -7.65268,7.97069 -6.2688,6.24745 -7.51172,7.40223 -8.49618,7.89385 -2.24975,1.12347 -4.74721,1.39835 -7.10852,0.78235 l -1.23899,-0.32308 -3.05189,3.0598 c -2.88042,2.88787 -3.06331,3.11357 -3.25518,4.01736 -0.62696,2.95298 -3.7201,4.75359 -6.61434,3.85037 z m 3.03822,-3.28962 c 1.30586,-1.19675 0.92209,-3.17692 -0.73817,-3.80881 -0.97487,-0.37121 -2.04853,-0.008 -2.66579,0.90445 -1.00309,1.48076 0.0982,3.51131 1.90456,3.51131 0.68852,0 0.95459,-0.1077 1.4994,-0.60695 z m 5.99075,-7.80177 c 2.22455,-2.21065 3.18819,-3.04934 3.50371,-3.04934 0.23945,0 0.97831,0.2173 1.64212,0.48283 1.05732,0.42299 1.40561,0.47337 2.81004,0.40619 2.84177,-0.13596 2.89291,-0.17453 10.93528,-8.23263 4.25403,-4.26243 6.97646,-7.12662 6.97646,-7.33968 0,-0.1921 -0.13749,-0.50151 -0.3059,-0.68738 -0.73951,-0.81714 -0.88765,-0.69799 -8.27984,6.66094 -7.82919,7.79394 -7.72612,7.71542 -9.93325,7.56652 -2.74367,-0.18522 -4.60087,-2.13537 -4.61653,-4.84788 -0.0115,-2.14866 0.0554,-2.23562 7.71241,-9.90557 4.2543,-4.26143 6.92189,-7.0691 6.92189,-7.28533 0,-0.48463 -0.53073,-1.0278 -1.0042,-1.0278 -0.27077,0 -2.63391,2.25021 -7.61782,7.25371 -6.72563,6.75202 -7.25245,7.32765 -7.61797,8.32326 -0.57815,1.57479 -0.54363,3.66468 0.0867,5.23986 0.27994,0.69967 0.43537,1.37254 0.37388,1.61783 -0.058,0.23105 -1.47962,1.78151 -3.15925,3.4457 l -3.05384,3.02577 0.68467,0.70117 c 0.37655,0.38564 0.72705,0.70116 0.77888,0.70116 0.0519,0 1.47508,-1.3722 3.16272,-3.04933 z"
         style="fill:#000000;stroke-width:0.18480755" />
    </clipPath>
    <filter
       id="filter6126">
      <feGaussianBlur
         id="feGaussianBlur7"
         stdDeviation=".53036" />
    </filter>
    <filter
       id="filter11428">
      <feGaussianBlur
         id="feGaussianBlur10"
         stdDeviation="1.24347" />
    </filter>
    <linearGradient
       id="linearGradient4156">
      <stop
         id="stop13"
         stop-color="#fff"
         offset="0" />
      <stop
         id="stop15"
         stop-opacity="0"
         stop-color="#fff"
         offset="1" />
    </linearGradient>
    <linearGradient
       y2="391.44925"
       y1="300.86383"
       x2="341.99622"
       x1="275.60828"
       id="linearGradient8413"
       gradientUnits="userSpaceOnUse"
       gradientTransform="matrix(0.61943542,0,0,0.61943542,-63.534069,-50.056775)">
      <stop
         id="stop18"
         stop-color="#500"
         offset="0" />
      <stop
         id="stop20"
         stop-color="#f00"
         offset="1" />
    </linearGradient>
    <linearGradient
       y2="367.88477"
       y1="287.49377"
       xlink:href="#linearGradient4156"
       x2="315.47369"
       x1="241.40979"
       id="linearGradient8411"
       gradientUnits="userSpaceOnUse"
       gradientTransform="matrix(0.73760064,0,0,0.73760064,-99.426756,-90.9552)" />
    <linearGradient
       y2="337.74042"
       y1="287.91769"
       xlink:href="#linearGradient4156"
       x2="422.97784"
       x1="380.03381"
       id="linearGradient10449"
       gradientUnits="userSpaceOnUse"
       gradientTransform="matrix(0.76865427,0,0,0.76865427,-193.59951,-77.541409)" />
    <radialGradient
       r="53.035709"
       id="radialGradient8415"
       gradientUnits="userSpaceOnUse"
       gradientTransform="matrix(-0.3457768,-0.3457768,0.41675409,-0.41675409,89.369885,457.4561)"
       cy="386.57211"
       cx="312.78131">
      <stop
         id="stop25"
         stop-opacity=".40816"
         stop-color="#fff"
         offset="0"
         style="stop-color:#ff9955;stop-opacity:1" />
      <stop
         id="stop27"
         stop-opacity="0"
         stop-color="#fff"
         offset="1"
         style="stop-color:#c87137;stop-opacity:1" />
    </radialGradient>
  </defs>
  <sodipodi:namedview
     id="base"
     pagecolor="#ffffff"
     bordercolor="#666666"
     borderopacity="1.0"
     inkscape:pageopacity="0.0"
     inkscape:pageshadow="2"
     inkscape:zoom="0.98994949"
     inkscape:cx="480.491"
     inkscape:cy="131.10104"
     inkscape:document-units="mm"
     inkscape:current-layer="layer1"
     showgrid="false"
     fit-margin-top="0"
     fit-margin-left="0"
     fit-margin-right="0"
     fit-margin-bottom="0"
     showguides="false"
     inkscape:window-width="1302"
     inkscape:window-height="829"
     inkscape:window-x="1342"
     inkscape:window-y="938"
     inkscape:window-maximized="0" />
  <metadata
     id="metadata5">
    <rdf:RDF>
      <cc:Work
         rdf:about="">
        <dc:format>image/svg+xml</dc:format>
        <dc:type
           rdf:resource="http://purl.org/dc/dcmitype/StillImage" />
        <dc:title></dc:title>
      </cc:Work>
    </rdf:RDF>
  </metadata>
  <g
     inkscape:label="Layer 1"
     inkscape:groupmode="layer"
     id="layer1"
     transform="translate(-81.885942,-121.60387)">
    <g
       id="g1229">
      <g
         id="g1152">
        <path
           d="m 164.30689,164.33737 c 0,21.91878 -17.76867,39.68746 -39.68745,39.68746 -21.91878,0 -39.68745,-17.76868 -39.68745,-39.68746 0,-21.91878 17.76867,-39.68746 39.68745,-39.68746 21.91878,0 39.68745,17.76869 39.68745,39.68746 z"
           id="path31"
           inkscape:connector-curvature="0"
           style="fill:#999999;stroke-width:0.74831569" />
        <path
           d="m 163.73861,164.33737 c 0,21.60492 -17.51425,39.11918 -39.11918,39.11918 -21.60492,0 -39.119165,-17.51426 -39.119165,-39.11918 0,-21.60493 17.514245,-39.11918 39.119165,-39.11918 21.60493,0 39.11918,17.51426 39.11918,39.11918 z"
           id="path33"
           inkscape:connector-curvature="0"
           style="fill:url(#linearGradient8411);stroke-width:0.73760062" />
        <path
           d="m 356.78571,346.11218 c 0,29.29082 -23.74489,53.03572 -53.03571,53.03572 -29.29082,0 -53.03571,-23.7449 -53.03571,-53.03572 0,-29.29082 23.74489,-53.03571 53.03571,-53.03571 29.29082,0 53.03571,23.7449 53.03571,53.03571 z"
           transform="matrix(0.67145794,0,0,0.67145794,-79.335909,-68.062406)"
           id="path35"
           inkscape:connector-curvature="0"
           style="fill:#ececec;filter:url(#filter6126)" />
        <path
           d="m 356.78571,346.11218 c 0,29.29082 -23.74489,53.03572 -53.03571,53.03572 -29.29082,0 -53.03571,-23.7449 -53.03571,-53.03572 0,-29.29082 23.74489,-53.03571 53.03571,-53.03571 29.29082,0 53.03571,23.7449 53.03571,53.03571 z"
           transform="matrix(0.64442437,0,0,0.64442437,-71.124463,-58.705758)"
           id="path37"
           inkscape:connector-curvature="0"
           style="fill:#999999;filter:url(#filter6126)" />
        <path
           d="m 157.47164,164.33737 c 0,18.14377 -14.70843,32.8522 -32.8522,32.8522 -18.14377,0 -32.8522,-14.70843 -32.8522,-32.8522 0,-18.14377 14.70843,-32.8522 32.8522,-32.8522 18.14377,0 32.8522,14.70843 32.8522,32.8522 z"
           id="path39"
           inkscape:connector-curvature="0"
           style="fill:#6c5d53;stroke-width:0.61943543" />
        <path
           d="m 155.53035,164.33737 c 0,17.07163 -13.83928,30.91092 -30.91092,30.91092 -17.07163,0 -30.910905,-13.83929 -30.910905,-30.91092 0,-17.07163 13.839275,-30.91092 30.910905,-30.91092 17.07164,0 30.91092,13.83929 30.91092,30.91092 z"
           id="path41"
           inkscape:connector-curvature="0"
           style="fill:url(#radialGradient8415);stroke-width:0.5828321" />
        <path
           d="m 125.24168,140.86948 c -10.24662,0.23112 -20.12803,5.65576 -25.623696,15.17455 -5.91115,10.23839 -5.16068,22.49545 0.887386,31.76895 0.65571,-20.39363 16.24302,-35.75403 35.60697,-34.63082 6.34825,0.36824 12.34021,2.45974 17.57054,5.83466 -2.50409,-5.72628 -6.7773,-10.72513 -12.60109,-14.0875 -4.98604,-2.87867 -10.47283,-4.18092 -15.84011,-4.05984 z"
           id="path43"
           inkscape:connector-curvature="0"
           style="opacity:0.31771001;fill:url(#linearGradient10449);stroke-width:0.76865429" />
      </g>
      <g
         style="fill:#333333"
         transform="translate(1.0583333,0.4001404)"
         id="g1205">
        <g
           style="fill:#333333"
           id="g1203"
           transform="translate(2.5259571,-2.5397935)">
          <path
             style="fill:#333333;stroke-width:0.18480755"
             d="m 103.25028,189.10311 c -1.52449,-0.47576 -2.79025,-1.65731 -3.368752,-3.14469 -0.626502,-1.61073 -0.0886,-4.09638 1.174682,-5.42825 0.62661,-0.6606 2.19186,-1.49719 2.80698,-1.5002 0.22837,-0.001 1.60034,-1.233 3.62252,-3.25281 l 3.25479,-3.25101 -0.26771,-0.76857 c -0.38709,-1.11109 -0.50528,-3.42218 -0.24441,-4.77922 0.12297,-0.64017 0.52461,-1.78766 0.89235,-2.55 0.6257,-1.29711 1.12002,-1.8407 7.70259,-8.4704 3.87152,-3.89924 7.40785,-7.30558 7.86559,-7.57642 1.77132,-1.04819 4.24571,-0.42818 5.24146,1.31331 0.59007,1.032 0.73138,1.94569 0.4689,3.03142 -0.20203,0.83567 -0.64804,1.32572 -7.20231,7.91352 -4.01432,4.03486 -7.07553,7.25776 -7.19514,7.5752 -0.58701,1.55787 1.0076,3.24219 2.52942,2.67171 0.28643,-0.10731 3.68126,-3.33851 7.54373,-7.18024 6.43993,-6.40529 7.09561,-7.00456 7.9013,-7.22152 2.55661,-0.68845 4.96733,1.07546 4.99162,3.65227 0.008,0.63032 -0.11571,1.3274 -0.29979,1.71472 -0.17682,0.37273 -3.45754,3.78979 -7.65268,7.97069 -6.2688,6.24745 -7.51172,7.40223 -8.49618,7.89385 -2.24975,1.12347 -4.74721,1.39835 -7.10852,0.78235 l -1.23899,-0.32308 -3.05189,3.0598 c -2.88042,2.88787 -3.06331,3.11357 -3.25518,4.01736 -0.62696,2.95298 -3.7201,4.75359 -6.61434,3.85037 z m 3.03822,-3.28962 c 1.30586,-1.19675 0.92209,-3.17692 -0.73817,-3.80881 -0.97487,-0.37121 -2.04853,-0.008 -2.66579,0.90445 -1.00309,1.48076 0.0982,3.51131 1.90456,3.51131 0.68852,0 0.95459,-0.1077 1.4994,-0.60695 z m 5.99075,-7.80177 c 2.22455,-2.21065 3.18819,-3.04934 3.50371,-3.04934 0.23945,0 0.97831,0.2173 1.64212,0.48283 1.05732,0.42299 1.40561,0.47337 2.81004,0.40619 2.84177,-0.13596 2.89291,-0.17453 10.93528,-8.23263 4.25403,-4.26243 6.97646,-7.12662 6.97646,-7.33968 0,-0.1921 -0.13749,-0.50151 -0.3059,-0.68738 -0.73951,-0.81714 -0.88765,-0.69799 -8.27984,6.66094 -7.82919,7.79394 -7.72612,7.71542 -9.93325,7.56652 -2.74367,-0.18522 -4.60087,-2.13537 -4.61653,-4.84788 -0.0115,-2.14866 0.0554,-2.23562 7.71241,-9.90557 4.2543,-4.26143 6.92189,-7.0691 6.92189,-7.28533 0,-0.48463 -0.53073,-1.0278 -1.0042,-1.0278 -0.27077,0 -2.63391,2.25021 -7.61782,7.25371 -6.72563,6.75202 -7.25245,7.32765 -7.61797,8.32326 -0.57815,1.57479 -0.54363,3.66468 0.0867,5.23986 0.27994,0.69967 0.43537,1.37254 0.37388,1.61783 -0.058,0.23105 -1.47962,1.78151 -3.15925,3.4457 l -3.05384,3.02577 0.68467,0.70117 c 0.37655,0.38564 0.72705,0.70116 0.77888,0.70116 0.0519,0 1.47508,-1.3722 3.16272,-3.04933 z"
             id="path1193"
             inkscape:connector-curvature="0" />
          <path
             style="fill:#333333;stroke-width:0.2651068"
             d="m 116.50391,140.29222 c -8.50503,0.47073 -16.21212,8.48376 -15.49805,17.08985 0.8595,1.95511 3.51345,0.45001 3.05664,-1.4043 0.44484,-7.01013 6.81875,-12.54379 13.70898,-12.74414 2.53272,-0.58182 0.74617,-3.66204 -1.26757,-2.94141 z"
             id="path1195"
             inkscape:connector-curvature="0" />
          <path
             style="fill:#333333;stroke-width:0.2651068"
             d="m 147.23242,170.40746 c -2.28361,0.45583 -1.13031,3.67324 -2.10547,5.27148 -1.71224,5.48109 -7.00934,9.3449 -12.68359,9.65235 -2.27149,-0.19929 -2.07333,3.43861 0.17578,3.02539 8.79266,0.005 16.92917,-8.32292 16.12695,-17.14258 -0.17515,-0.66135 -0.89181,-0.92167 -1.51367,-0.80664 z"
             id="path1197"
             inkscape:connector-curvature="0" />
          <path
             style="fill:#333333;stroke-width:0.2651068"
             d="m 118.33594,147.81761 c -5.17474,0.79504 -10.21543,5.76387 -9.79883,11.21094 1.12375,1.7893 3.40542,0.14473 3.14453,-1.61719 0.92746,-3.85342 4.60909,-6.09153 8.2168,-6.91601 1.44794,-0.95546 -0.019,-3.24138 -1.5625,-2.67774 z"
             id="path1199"
             inkscape:connector-curvature="0" />
          <path
             style="fill:#333333;stroke-width:0.2651068"
             d="m 139.76758,168.85277 c -2.33051,0.53671 -1.35441,3.89267 -3.08985,5.24414 -1.6726,2.61633 -4.97014,3.00524 -7.28515,4.62695 -0.64418,3.0716 3.68557,2.06328 5.25998,1.05169 3.65248,-1.86351 7.28251,-5.993 6.49392,-10.28997 -0.30869,-0.42558 -0.84837,-0.70195 -1.3789,-0.63281 z"
             id="path1201"
             inkscape:connector-curvature="0" />
        </g>
      </g>
      <g
         transform="translate(0.52916667,-0.52916667)"
         id="g1191">
        <g
           transform="translate(2.5259571,-2.5397935)"
           id="g1044"
           style="fill:#ffffff">
          <path
             inkscape:connector-curvature="0"
             id="path826"
             d="m 103.25028,189.10311 c -1.52449,-0.47576 -2.79025,-1.65731 -3.368752,-3.14469 -0.626502,-1.61073 -0.0886,-4.09638 1.174682,-5.42825 0.62661,-0.6606 2.19186,-1.49719 2.80698,-1.5002 0.22837,-0.001 1.60034,-1.233 3.62252,-3.25281 l 3.25479,-3.25101 -0.26771,-0.76857 c -0.38709,-1.11109 -0.50528,-3.42218 -0.24441,-4.77922 0.12297,-0.64017 0.52461,-1.78766 0.89235,-2.55 0.6257,-1.29711 1.12002,-1.8407 7.70259,-8.4704 3.87152,-3.89924 7.40785,-7.30558 7.86559,-7.57642 1.77132,-1.04819 4.24571,-0.42818 5.24146,1.31331 0.59007,1.032 0.73138,1.94569 0.4689,3.03142 -0.20203,0.83567 -0.64804,1.32572 -7.20231,7.91352 -4.01432,4.03486 -7.07553,7.25776 -7.19514,7.5752 -0.58701,1.55787 1.0076,3.24219 2.52942,2.67171 0.28643,-0.10731 3.68126,-3.33851 7.54373,-7.18024 6.43993,-6.40529 7.09561,-7.00456 7.9013,-7.22152 2.55661,-0.68845 4.96733,1.07546 4.99162,3.65227 0.008,0.63032 -0.11571,1.3274 -0.29979,1.71472 -0.17682,0.37273 -3.45754,3.78979 -7.65268,7.97069 -6.2688,6.24745 -7.51172,7.40223 -8.49618,7.89385 -2.24975,1.12347 -4.74721,1.39835 -7.10852,0.78235 l -1.23899,-0.32308 -3.05189,3.0598 c -2.88042,2.88787 -3.06331,3.11357 -3.25518,4.01736 -0.62696,2.95298 -3.7201,4.75359 -6.61434,3.85037 z m 3.03822,-3.28962 c 1.30586,-1.19675 0.92209,-3.17692 -0.73817,-3.80881 -0.97487,-0.37121 -2.04853,-0.008 -2.66579,0.90445 -1.00309,1.48076 0.0982,3.51131 1.90456,3.51131 0.68852,0 0.95459,-0.1077 1.4994,-0.60695 z m 5.99075,-7.80177 c 2.22455,-2.21065 3.18819,-3.04934 3.50371,-3.04934 0.23945,0 0.97831,0.2173 1.64212,0.48283 1.05732,0.42299 1.40561,0.47337 2.81004,0.40619 2.84177,-0.13596 2.89291,-0.17453 10.93528,-8.23263 4.25403,-4.26243 6.97646,-7.12662 6.97646,-7.33968 0,-0.1921 -0.13749,-0.50151 -0.3059,-0.68738 -0.73951,-0.81714 -0.88765,-0.69799 -8.27984,6.66094 -7.82919,7.79394 -7.72612,7.71542 -9.93325,7.56652 -2.74367,-0.18522 -4.60087,-2.13537 -4.61653,-4.84788 -0.0115,-2.14866 0.0554,-2.23562 7.71241,-9.90557 4.2543,-4.26143 6.92189,-7.0691 6.92189,-7.28533 0,-0.48463 -0.53073,-1.0278 -1.0042,-1.0278 -0.27077,0 -2.63391,2.25021 -7.61782,7.25371 -6.72563,6.75202 -7.25245,7.32765 -7.61797,8.32326 -0.57815,1.57479 -0.54363,3.66468 0.0867,5.23986 0.27994,0.69967 0.43537,1.37254 0.37388,1.61783 -0.058,0.23105 -1.47962,1.78151 -3.15925,3.4457 l -3.05384,3.02577 0.68467,0.70117 c 0.37655,0.38564 0.72705,0.70116 0.77888,0.70116 0.0519,0 1.47508,-1.3722 3.16272,-3.04933 z"
             style="fill:#ffffff;stroke-width:0.18480755" />
          <path
             inkscape:connector-curvature="0"
             id="path851"
             d="m 116.50391,140.29222 c -8.50503,0.47073 -16.21212,8.48376 -15.49805,17.08985 0.8595,1.95511 3.51345,0.45001 3.05664,-1.4043 0.44484,-7.01013 6.81875,-12.54379 13.70898,-12.74414 2.53272,-0.58182 0.74617,-3.66204 -1.26757,-2.94141 z"
             style="fill:#ffffff;stroke-width:0.2651068" />
          <path
             inkscape:connector-curvature="0"
             id="path849"
             d="m 147.23242,170.40746 c -2.28361,0.45583 -1.13031,3.67324 -2.10547,5.27148 -1.71224,5.48109 -7.00934,9.3449 -12.68359,9.65235 -2.27149,-0.19929 -2.07333,3.43861 0.17578,3.02539 8.79266,0.005 16.92917,-8.32292 16.12695,-17.14258 -0.17515,-0.66135 -0.89181,-0.92167 -1.51367,-0.80664 z"
             style="fill:#ffffff;stroke-width:0.2651068" />
          <path
             inkscape:connector-curvature="0"
             id="path847"
             d="m 118.33594,147.81761 c -5.17474,0.79504 -10.21543,5.76387 -9.79883,11.21094 1.12375,1.7893 3.40542,0.14473 3.14453,-1.61719 0.92746,-3.85342 4.60909,-6.09153 8.2168,-6.91601 1.44794,-0.95546 -0.019,-3.24138 -1.5625,-2.67774 z"
             style="fill:#ffffff;stroke-width:0.2651068" />
          <path
             inkscape:connector-curvature="0"
             id="path843"
             d="m 139.76758,168.85277 c -2.33051,0.53671 -1.35441,3.89267 -3.08985,5.24414 -1.6726,2.61633 -4.97014,3.00524 -7.28515,4.62695 -0.64418,3.0716 3.68557,2.06328 5.25998,1.05169 3.65248,-1.86351 7.28251,-5.993 6.49392,-10.28997 -0.30869,-0.42558 -0.84837,-0.70195 -1.3789,-0.63281 z"
             style="fill:#ffffff;stroke-width:0.2651068" />
        </g>
      </g>
    </g>
  </g>
</svg>
