<?xml version="1.0" encoding="UTF-8" standalone="no"?>
<svg width="533.33" xmlns="http://www.w3.org/2000/svg" height="533.33">
 <g fill-rule="evenodd">
  <g fill="none">
   <path id="path566" d="m495.3 262.13c0-125.23-99.023-226.74-221.17-226.74s-221.17 101.52-221.17 226.74c0.000046 125.23 99.023 226.74 221.17 226.74 122.15-0.000031 221.17-101.52 221.17-226.74l-221.17 0.0002h221.17z" transform="rotate(46.028 274.13 262.13)" stroke="#bf0000" stroke-width="37.117"/>
   <path id="path575" stroke-width="1.25" d="m445.61 251.24c0.032166-115.39-93.835-208.96-209.64-208.96s-209.67 93.563-209.64 208.96c-0.000092 115.37 93.858 208.9 209.64 208.9 115.78 0.000092 209.64-93.527 209.64-208.9l-209.64-0.0004h209.64z"/>
  </g>
  <path id="path564" d="m117.57 339.14c0-1.818-11.813-66.341 0-91.787 21.811-39.078 31.807-74.519 33.625-104.51 0.909 0.909 1.818 48.165-1.818 53.618-10.905 20.902-21.81 44.531-29.08 67.25 0 44.53-1.818 79.064-2.727 75.429z" fill-opacity=".578" stroke-width="1.25" fill="#fff"/>
  <path id="path567" d="m112.2 91.06l292.31 307.07" stroke="#bf0000" stroke-width="37.5" fill="none"/>
 </g>
</svg>
