<?xml version="1.0" encoding="UTF-8" standalone="no"?>
<svg viewBox="0 0 362.05173 199.5625" xmlns="http://www.w3.org/2000/svg" xmlns:xlink="http://www.w3.org/1999/xlink">
<defs>
<linearGradient id="linearGradient4463">
<stop offset="0" stop-color="#857a4d"/>
<stop offset=".5" stop-color="#eeead6"/>
<stop offset="1" stop-color="#6b633f"/>
</linearGradient>
<linearGradient gradientUnits="userSpaceOnUse" id="linearGradient7561" x1="9.011" x2="308.605" xlink:href="#linearGradient4463" y1="279.3387" y2="121.149"/>
<linearGradient gradientUnits="userSpaceOnUse" id="linearGradient7563" x1="91.7509" x2="79.6235" xlink:href="#linearGradient4463" y1="338.9892" y2="245.47"/>
<linearGradient gradientUnits="userSpaceOnUse" id="linearGradient7565" x1="81.8514" x2="189.7085" xlink:href="#linearGradient4463" y1="214.5384" y2="115.75"/>
<linearGradient gradientUnits="userSpaceOnUse" id="linearGradient7567" spreadMethod="reflect" x1="296.3547" x2="180.8547" xlink:href="#linearGradient4463" y1="372.11" y2="260.75"/>
<linearGradient gradientUnits="userSpaceOnUse" id="linearGradient7569" x1="66.5843" x2="-17.1519" xlink:href="#linearGradient4463" y1="168.9688" y2="272.9747"/>
<linearGradient gradientUnits="userSpaceOnUse" id="linearGradient7575" x1="100.0283" x2="72.2365" xlink:href="#linearGradient4463" y1="162.8803" y2="319.8821"/>
<linearGradient gradientUnits="userSpaceOnUse" id="linearGradient7577" x1="84.4522" x2="39.1426" xlink:href="#linearGradient4463" y1="314.1891" y2="65.2814"/>
<linearGradient gradientUnits="userSpaceOnUse" id="linearGradient7583" x1="56.6569" x2="11.6192" xlink:href="#linearGradient4463" y1="110.4002" y2="333.6136"/>
<radialGradient cx="49.9338" cy="315.1633" gradientTransform="matrix(-.01958,2.43042,-3.25907,-.02626,859.64811,17.45795)" gradientUnits="userSpaceOnUse" id="radialGradient3949" r="134.6276" xlink:href="#linearGradient4463"/>
</defs>
<g transform="translate(52.4375,-115.7188)">
<path d="m229.9599,171.8901-42.0355,10.7342-.018.0222h-.0313-.0313l-36.0966,3.4376-43.4705,9.2704-35.4886-11.5991-5.7268,20.4038-37.3896,7.9841h35.1433l-57.7651,70.9698 75.0429,29.4968 123.0601-29.4968 34.659-42.5819 23.106-28.3879 46.6963-14.194-19.1408-6.2542 10.6834-7.9397-21.1423,4.5021-50.0546-16.3674z" fill="#808080" opacity=".77"/>
<g stroke="url(#radialGradient3949)">
<path d="m115.146,116.25-33.2864,15.125v.0313l98.9981,41.5625 35.1162-20z" fill="url(#linearGradient7561)" stroke="url(#radialGradient3949)"/>
<path d="m-17.1519,272.9747v-100l99.0033-41.5637v100l-99.0033,41.5637" fill="url(#linearGradient7563)" stroke="url(#radialGradient3949)"/>
<path d="m81.8514,231.411v-100l99.0033,41.5637v100l-99.0033-41.5637" fill="url(#linearGradient7565)" stroke="url(#radialGradient3949)"/>
<path d="m180.8547,272.9747v-100l-99.0033,41.5637v100l99.0033-41.5637" fill="url(#linearGradient7567)" stroke="url(#radialGradient3949)"/>
<path d="m81.8514,314.5384v-100l-99.0033-41.5637v100l99.0033,41.5637" fill="url(#linearGradient7569)" stroke="url(#radialGradient3949)"/>
<path d="m195.974,132.9688-101.5175,36.9688-12.6051,44.6009 99.0064-41.5697z" fill="url(#linearGradient7575)" stroke="url(#radialGradient3949)"/>
<path d="m48.5467,136.25-100.828,36.7188h35.1162l99.0247-41.5625z" fill="url(#linearGradient7577)" stroke="url(#radialGradient3949)"/>
<path d="m-32.2813,132.9688 15.1162,40 99.0164,41.5697c-4.3593-14.4021-15.2671-45.5697-15.2671-45.5697z" fill="url(#linearGradient7583)" stroke="url(#radialGradient3949)"/>
</g>
<path d="m31.8893,226.9884c-.6171-.2481-1.0931.1587-1.0887.9296 1.5e-005,.003-1.5e-005,.005 0,.009v2.1732c-3.0606-1.0306-5.805-.9117-7.831.003-2.135.9635-3.5239,2.792-3.5239,5.2313v.9933l.7226-.1098c0,0 .6281-.0989 1.4261-.1245s1.7839.0456 2.3429.2802 1.548.9924 2.3461,1.688 1.4229,1.3204 1.4229,1.3204l.2133.2087 .2133-.0296c0,0 1.4351-.1859 2.6676-.0642v16.7821c-.0053-.0175-.0417.1211-.2515.2083-.2231.0929-.6527.0636-.8245-.009s-.6014-.4037-.8245-.6838c-.2097-.2633-.2459-.4323-.2515-.4194v-2.0421-.0278l-.003-.002c.0143-.7763-.4679-1.6029-1.0982-1.8675s-1.112.1576-1.0983.9455l-.0061-.003v2.0858c0,1.1874.6109,2.3239 1.2319,3.1036 .6111.7672 1.3278,1.3599 2.0501,1.6631s1.4414.3139 2.0532.0592c.6218-.2587 1.2288-.8851 1.2288-2.0707v-16.798c1.2332.9129 2.6708,2.305 2.6708,2.305l.2101.2074 .2133-.0296c0,0 .6281-.0988 1.4261-.1245s1.7839.0456 2.3429.2802 1.548.9924 2.3461,1.688 1.4229,1.3204 1.4229,1.3204l.7226.7165v-.9932c0-2.4393-1.3889-5.4337-3.5239-8.1896-2.0266-2.616-4.769-5.0379-7.831-6.5768v-2.1732c3e-005-.003 0-.006 0-.009 .0046-.7817-.4886-1.6016-1.1173-1.8556h1.6e-005m-32.3648-12.9489v8.8281c0,5.0301 3.0105,10.4445 6.9046,12.7037v10.7034l-4.9851-2.0925v2.5427l12.0106,5.0416v-2.5427l-4.9883-2.0939v-10.7033c3.8949,1.011 6.9046-1.8764 6.9046-6.9072v-8.8281l-10.7341-4.5057-1.1842,12.8086-1.1842-13.8027-2.744-1.1518m53.1423,22.3067-3.785,8.026 2.362.9915v18.1568l2.8459,1.1946v-18.1568l2.362.9915-3.785-11.2035m8.2798,3.4755-3.785,8.026 2.362.9915v18.1568l2.8459,1.1946v-18.1568l2.3588.9901-3.7818-11.2022m-12.5104,24.0855v2.5427l16.7379,7.0258v-2.5427l-16.7379-7.0258" fill="#4d4d4d"/>
<path d="m177.5037,269.7056v-26.7698l-26.3433,11.1265v26.7698l26.3433-11.1265" fill="#eee"/>
<path d="m154.367,256.5351v19.0646l.2975-.1249v-19.0646l-.2975.1249m.5949-.2498v19.0646l.2974-.1249v-19.0646l-.2974.1249m.8924-.3746v15.051l.5949-.2498v-15.051l-.5949.2498m1.1899-.4995v15.051l.2975-.1249v-15.051l-.2975.1249m.8924-.3747v15.051l.2975-.1249v-15.051l-.2975.1249m.8924-.3746v15.051l.5949-.2498v-15.051l-.5949.2498m.8924-.3746v15.051l1.1899-.4995v-15.051l-1.1899.4995m1.4873-.6244v15.051l.2974-.1249v-15.051l-.2974.1249m.5949-.2498v15.051l.2975-.1249v-15.051l-.2975.1249m1.1899-.4995v15.051l.5949-.2498v-15.051l-.5949.2498m.8924-.3746v19.0646l.2975-.1249v-19.0646l-.2975.1249m.5949-.2498v19.0646l.2975-.1249v-19.0646l-.2975.1249m.5949-.2498v15.051l.2975-.1249v-15.051l-.2975.1249m.8924-.3746v15.051l.8924-.3746v-15.051l-.8924.3747m1.1899-.4995v15.051l.2974-.1249v-15.051l-.2974.1249m.5949-.2498v15.051l.2975-.1249v-15.051l-.2975.1249m1.4873-.6244v15.051l.2975-.1249v-15.051l-.2975.1249m1.1899-.4995v15.051l.2975-.1249v-15.051l-.2975.1249m.8924-.3747v15.051l.8924-.3746v-15.051l-.8924.3746m1.4873-.6244v15.051l.2975-.1249v-15.051l-.2975.1249m.5949-.2498v19.0646l.2974-.1249v-19.0646l-.2974.1249m.5949-.2498v19.0646l.2975-.1249v-19.0646l-.2975.1249m-14.5943,22.8398c-.0767.0322-.1586.0769-.251.1524s-.1911.1807-.2975.2974v.439c.1046-.1424.206-.2575.2975-.3444s.1775-.1372.2603-.172c.1168-.0491.2065-.0401.2789.0397s.1116.2173.1116.3922c0,.1073-.0125.2071-.0465.3331-.0332.1241-.0921.2861-.1766.4818-.0444.1039-.1519.3484-.3254.7167s-.3181.6642-.4183.8811v.3763l1.2456-.523v-.3762l-.9203.3864 .4927-1.0691c.1167-.2533.1827-.3947.2045-.4465 .0793-.1979.1377-.3762.1673-.5092s.0465-.2606.0465-.3958c0-.2851-.0656-.4918-.1859-.6118s-.2812-.1328-.4834-.0479v3e-005m1.7383-.7298c-.0776.0326-.163.0761-.251.1367s-.1787.1377-.2789.2268v.392c.0993-.0976.1868-.1774.2696-.2386s.1601-.0986.2324-.1289c.1325-.0557.2362-.0648.3068-.003s.1116.1761.1116.3451c0,.1646-.0334.3021-.1023.4192s-.1676.2115-.2974.266l-.2417.1015v.3606l.2231-.0936c.1438-.0604.2638-.0485.3439.0281 .081.0747.1208.2099.1208.4039 0,.2102-.043.3782-.1301.525s-.2155.263-.3811.3325c-.095.0398-.1824.0506-.2696.0504s-.1685-.014-.2417-.0552v.4233c.0924.0156.1833.022.2696.0124s.1691-.0239.251-.0584c.244-.1024.4346-.2711.5671-.5046s.1952-.5097.1952-.8345c0-.2117-.0401-.3879-.1116-.5019s-.1618-.1687-.2882-.1612c.1142-.0965.1984-.2092.2603-.3601s.093-.3271.093-.5094c-2e-005-.2616-.0598-.4335-.1766-.5373-.1167-.1054-.2736-.1203-.4741-.0363v5e-005m7.8735-3.3055c-.2466.1035-.4392.3289-.5856.7005s-.2231.8276-.2231,1.3479c0,.5541.0573.9534.1766,1.1958s.2949.3152.5206.2204c.1969-.0827.3556-.2585.4741-.5126s.1766-.5514.1766-.8894c0-.3454-.0532-.593-.1673-.745s-.2687-.1851-.4648-.1028c-.0933.0392-.1827.1016-.2603.2033s-.1438.2304-.1952.3798c.0131-.4068.0666-.7231.158-.96s.2254-.3925.3997-.4657c.0661-.0278.1374-.0541.2045-.0546s.129.0183.1952.0435v-.4076c-.0733-.0134-.1365-.0147-.2045-.008s-.1383.0267-.2045.0546m-11.3129,4.8121-.4648.3519v.4076l.4648-.3676v2.5242l-.4276.1795v.3763l1.1248-.4722v-.3763l-.4369.1834v-2.9161l-.2603.1093m5.2986-2.2245-.818,2.4286v.4233l.8831-.3707v.7839l.2603-.1092v-.7839l.2789-.1171v-.3763l-.2789.1171v-2.1322l-.3253.1366m3.6067-1.5142v1.6462c.0733-.0866.1441-.1595.2138-.2152s.1432-.0915.2138-.1211c.1508-.0633.2652-.0568.3532.0398s.1301.2648.1301.4941-.042.4327-.1301.6034-.2025.2888-.3532.3521c-.0932.0392-.1859.0506-.2696.0504s-.1633-.0162-.2417-.0553v.4547c.0907.008.1757-.003.2603-.0152 .0855-.0124.1691-.0239.251-.0584 .2379-.0999.427-.2817.5577-.532s.1952-.5587.1952-.9129c0-.3439-.068-.5853-.1952-.7333s-.3027-.1708-.5206-.0794c-.0383.0161-.0732.0348-.1116.0625l-.1115.0939v-.8153l.7902-.3317v-.3606l-1.0318.4332v2e-005m3.3372-1.401v.3606l.9389-.3942-.6693,3.2128 .2789-.1171 .7065-3.4008v-.1882l-1.2549.5268m-6.8788,3.2642v1.7559l-.6693.281 .6693-2.0369m5.8377-1.369c.1185-.0496.21-.0211.2789.0867s.1116.2795.1116.5176-.0418.4438-.1116.6112-.1603.2711-.2789.3209-.2092.0208-.2789-.0867-.1023-.2848-.1023-.5215 .0334-.4417.1023-.6073 .1604-.2711.2789-.3209" fill="#1a1a1a"/>
</g>
</svg>
