<?xml version="1.0" encoding="UTF-8" standalone="no"?>
<svg
   xmlns:dc="http://purl.org/dc/elements/1.1/"
   xmlns:cc="http://creativecommons.org/ns#"
   xmlns:rdf="http://www.w3.org/1999/02/22-rdf-syntax-ns#"
   xmlns:svg="http://www.w3.org/2000/svg"
   xmlns="http://www.w3.org/2000/svg"
   xmlns:sodipodi="http://sodipodi.sourceforge.net/DTD/sodipodi-0.dtd"
   xmlns:inkscape="http://www.inkscape.org/namespaces/inkscape"
   viewBox="0 0 3234.2703 2310.0881"
   version="1.1"
   id="svg21"
   sodipodi:docname="circuits-37211.svg"
   inkscape:version="0.92.1 r15371">
  <metadata
     id="metadata25">
    <rdf:RDF>
      <cc:Work
         rdf:about="">
        <dc:format>image/svg+xml</dc:format>
        <dc:type
           rdf:resource="http://purl.org/dc/dcmitype/StillImage" />
        <dc:title></dc:title>
      </cc:Work>
    </rdf:RDF>
  </metadata>
  <sodipodi:namedview
     pagecolor="#ffffff"
     bordercolor="#666666"
     borderopacity="1"
     objecttolerance="10"
     gridtolerance="10"
     guidetolerance="10"
     inkscape:pageopacity="0"
     inkscape:pageshadow="2"
     inkscape:window-width="1920"
     inkscape:window-height="1017"
     id="namedview23"
     showgrid="false"
     inkscape:zoom="4"
     inkscape:cx="111.79969"
     inkscape:cy="15.915456"
     inkscape:window-x="-8"
     inkscape:window-y="-8"
     inkscape:window-maximized="1"
     inkscape:current-layer="svg21" />
  <defs
     id="defs7">
    <radialGradient
       id="a"
       cx="3610.9"
       cy="1983.3"
       r="529.99"
       gradientTransform="matrix(2.4444 2.7731e-7 -1.9321e-7 1.703 -6147.4 -1592.6)"
       gradientUnits="userSpaceOnUse">
      <stop
         stop-color="#00f"
         offset="0"
         id="stop2" />
      <stop
         stop-color="#00f"
         stop-opacity="0"
         offset="1"
         id="stop4" />
    </radialGradient>
  </defs>
  <g
     transform="translate(441.04 -174.34)"
     id="g19">
    <g
       transform="translate(-1474.9 -3092.3)"
       id="g17">
      <g
         transform="matrix(2.0199 0 0 2.0199 -2077 285.26)"
         id="g15">
        <g
           transform="matrix(.69717 0 0 .69717 466.39 793.32)"
           id="g13"
           fill-rule="evenodd">
          <path
             d="m1668 1090.4h2022.1a52.388 52.388 0 0 1 52.388 52.388v1284.3a52.388 52.388 0 0 1 -52.388 52.388h-2022.1a52.388 52.388 0 0 1 -52.388 -52.388v-1284.3a52.388 52.388 0 0 1 52.388 -52.388"
             id="path9"
             fill="url(#a)" />
          <path
             d="m1608.7 979.78c-37.705 0-68.068 30.94-68.068 69.357v32.989h592.05v-99.664c0-0.9022 0.0375-1.7906 0.0822-2.6815h-524.07zm558.44 0c-4.693 7.5012-7.4019 16.377-7.4019 25.894v78.547c32.608 7.585 56.636 35.057 56.636 67.989v216.98h210.37v-389.41h-259.61zm291.54 0v389.41h150.23v-187.51c0-29.173 23.645-52.681 53.045-52.681h60.639v-123.32c0-9.517-2.7091-18.392-7.4016-25.894h-256.51zm312.79 0c-2.9205 6.5079-4.5508 13.761-4.5508 21.452v127.77h276.41v-149.22h-271.86zm303.8 0v149.22h48.276v-149.22h-48.276zm80.212 0v149.22h17.325c29.4 0 53.046 23.508 53.046 52.681v342.76h83.145v-264.89c0-33.664 27.941-60.782 62.668-60.782h107.24v-197.54c0-7.6912-1.6556-14.944-4.5784-21.452h-318.85zm349.77 0v218.99h234.85v-218.99h-234.85zm266.79 0.1118v218.88h64.34v-149.64c0-37.143-28.384-67.284-64.34-69.246zm-2231.4 137.96v91.536h529.41c28.631 0 51.675 24.093 51.675 54.05v105.75h10.965v-247.35c-7.5293-2.5902-15.668-3.9945-24.179-3.9945h-567.87zm619.11 20.95v230.39h18.504v-186.09c0-17.143-7.0257-32.681-18.504-44.301zm525.63 17.039c-27.375 0-49.427 21.887-49.427 49.05v164.3h86.654v-213.35h-37.228zm81.555 0v213.35h99.484c35.663 0 64.394 31.02 64.394 69.581v85.67h112.53v-368.6h-276.41zm308.35 0v368.6h42.381c3.7779-7.4995 5.8942-15.949 5.8942-24.888v-343.71h-48.276zm80.212 0.391v368.21h43.341v-319.55c0-25.116-18.859-45.696-43.341-48.659zm243.82 73.519c-32.334 0-58.364 25.248-58.364 56.592v238.1h89.834c26.659 0 48.138-22.47 48.138-50.363v-244.33h-79.609zm105.95 0v268.18c0 29.957-23.071 54.05-51.702 54.05h-112.62v34.776h340.81c32.334 0 58.364-25.22 58.364-56.564v-300.45h-234.85zm266.79 0v327.23c0 33.664-27.941 60.754-62.667 60.754h-368.44v117.77h82.515c28.629 0 51.702 27.619 51.702 61.955v182.79h279.34c34.726 0 62.668 27.118 62.668 60.782v25.866h19.217v-837.15h-64.34zm-2231.4 7.1788v53.799h183.7c34.726 0 62.667 27.09 62.667 60.754v458.99h191.32v-371.7c-2e-4 -38.561 28.704-69.581 64.367-69.581h52.689v-81.927c0-27.894-21.452-50.335-48.111-50.335h-506.63zm0 84.776v488.77h214.43v-432.21c0-31.344-26.03-56.564-58.363-56.564h-156.07zm530.4 82.96c-33.206 0-59.899 28.901-59.899 64.804v341h36.131c26.658 0 48.111-22.47 48.111-50.363v-355.45h-24.343zm50.688 0v379.3c0 29.957-23.044 54.05-51.675 54.05h-58.912v168.49h167.11v-298.07c-25.819-3.5972-45.562-25.478-45.562-52.123v-251.65h-10.965zm38.022 0v228.44c0 15.541 7.2032 29.324 18.504 38.296v-266.73h-18.504zm56.636 0v277.46h392.54v-95.028h-119.5c-34.726 1e-4 -62.667-27.118-62.667-60.782v-121.65h-210.37zm242.31 0v94.888c0 31.344 26.03 56.564 58.363 56.564h91.863v-151.45h-150.23zm177.26 0v151.45h86.654v-151.45h-86.654zm130.98 0v69.414c0 27.894 21.425 50.363 48.084 50.363h82.981v-54.972c0-35.904-26.748-64.804-59.954-64.804h-71.111zm-17.27 123.99v27.458h148.34v-4.1341h-105.73c-17.705 0-33.289-9.2078-42.601-23.324zm181.15 23.324v4.1341h112.53v-4.1341h-112.53zm148.94 0c0.3066 0.7156 0.6241 1.423 0.9596 2.1232 2.2033-0.5838 4.3526-1.3045 6.4423-2.1232h-7.4019zm69.905 0c-7.0023 14.626-19.792 26.053-35.583 31.536 6.1122 2.0959 12.701 3.2404 19.574 3.2401h65.19v-34.776h-49.18zm76.21 0v34.776h83.145v-34.776h-83.145zm-589.91 35.112v95.028h37.255c27.375 0 49.399-21.859 49.399-49.022v-46.006h-86.654zm113.71 0v69.218c0 29.174-23.673 52.653-53.073 52.654h-60.639v92.514h74.565v-4.0224c0-34.336 23.046-61.955 51.675-61.955h135.81v-148.41h-148.34zm181.15 0v148.41h268.02v-117.77h-92.822c-23.402 3e-4 -43.706-12.316-54.471-30.642h-120.73zm295.05 30.642v117.77h83.145v-117.77h-83.145zm-1009.5 91.229v297.54h80.048v-144.25c0-33.664 27.942-60.782 62.668-60.782h249.82v-92.514h-392.54zm568.59 58.101c-19.737 0-36.617 14.111-44.054 34.413h157.08v-34.413h-113.03zm145.84 0v34.413h31.69c34.726 0 62.64 27.118 62.64 60.782v19.05h124.27c27.375 0 49.427-21.831 49.427-48.994v-65.251h-268.02zm295.05 0v88.435c-1e-3 29.173-23.645 52.681-53.046 52.682h-147.68v516.26h63.325v-383.41c0-33.664 27.942-60.782 62.668-60.782h157.88v-213.18h-83.145zm115.08 0v213.18h107.87v-155.47c0-31.971-21.481-57.71-48.138-57.709h-59.734zm-954.21 65.391c-32.334 0-58.364 25.248-58.364 56.592v117.46h77.773c31.868 0 57.514 25.249 57.514 56.62v79.804h246.86v-234.75h-48.549c-29.401 0-53.045-23.508-53.045-52.682v-23.044h-222.19zm249.22 0c0.0755 27.099 22.099 48.855 49.427 48.855h25.138v-48.855h-74.565zm100.91 0v48.855h161.14v-48.855h-161.14zm193.95 0v48.855h61.845c-3.8734-27.654-28.194-48.855-57.815-48.855h-4.03zm-1390.2 5.5588v245.25h214.43v-245.25h-214.43zm246.37 0v245.25h7.8953v-20.14c0-31.371 25.645-56.62 57.514-56.62h125.91v-168.49h-191.32zm949.85 70.167v234.75h101.18c33.206 0 59.954-28.928 59.954-64.832v-169.92h-161.14zm193.95 0v200.61c0 38.561-28.732 69.581-64.394 69.581h-129.56v188.35c0 31.971 21.454 57.71 48.111 57.709h208.26v-516.26h-62.421zm247.96 103.04c-32.334 0-58.391 25.248-58.391 56.592v356.62h103.43v-189.3c0-33.664 27.941-60.782 62.667-60.782h162.34v-76.481h-77.142c-34.726 3e-4 -62.668-27.118-62.668-60.782v-25.866h-130.24zm162.21 0c0.4892 30.928 26.31 55.671 58.336 55.67h49.509v-55.67h-107.85zm134.19 0v55.67h310.05c-0.5046-30.916-26.321-55.67-58.336-55.67h-251.71zm-1597.4 24.134c-28.019 0-50.886 20.974-53.347 47.905h153.9v-47.905h-100.55zm133.37 0v42.738c0 1.7398 0.0688 3.4631 0.1921 5.1675h97.181c32.207 0 59.168-20.228 67.246-47.905h-164.62zm205.25 0v13.548c0 38.822-33.385 70.084-74.866 70.084h-117c10.966 14.612 27.68 23.938 46.521 23.939h225.39v-107.57h-80.048zm111.98 0v107.57h105.98v-54.833c0-29.209-23.894-52.737-53.566-52.737h-52.415zm1146.8 62.514v76.481h310.08v-76.481h-310.08zm342.01 0v76.481h19.217v-76.481h-19.217zm-2276.5 21.118v39.832h156.07c26.325 0 48.464-16.705 55.787-39.832h-211.85zm246.37 0v10.056c0 33.664-27.941 60.754-62.667 60.754h-183.7v87.849c7.0423-3.7473 15.022-5.8657 23.493-5.8657h230.77v-152.79h-7.8953zm37.2 0v152.79h401.23c28.631 0 51.702 24.093 51.702 54.05v293.41h19.299v-440.86h-253.74c-32.454 0-59.138-25.702-63.682-59.386h-154.8zm504.16 59.386v434.66c0 2.0952 0.1298 4.1666 0.3565 6.2012h105.62v-440.86h-105.98zm135.29 0v440.86h529.22c0.2266-2.0342 0.3564-4.1062 0.3564-6.2012v-157.01h-231.04c-28.629 0-51.675-27.619-51.675-61.955v-215.7h-246.86zm850.45 26.955c-32.334 0-58.364 25.248-58.364 56.592v162.51h144.94c26.657 0 48.138-25.739 48.138-57.709v-161.4h-134.71zm161.06 0v188.74c0 34.336-23.074 61.955-51.702 61.955h-167.72v163.21h512.58c5.8425 0 11.51-0.7536 16.914-2.1506v-411.76h-310.08zm342.01 0v392.93c11.894-12.47 19.217-29.507 19.217-48.352v-344.58h-19.217zm-2230.3 93.994c-22.062 0-40.526 15.395-46.247 36.508v214.08c0 38.419 30.363 69.33 68.068 69.33h186.19v-319.92h-208.01zm237.32 0v319.92h426.58v-269.55c0-27.893-21.48-50.363-48.139-50.363h-378.45zm1200.9 156.7v163.21h63.325v-163.21h-63.325zm95.235 0v163.21h103.43v-163.21h-103.43z"
             id="path11"
             stroke-width=".99438"
             stroke="#000"
             fill="#f8f8ff" />
        </g>
      </g>
    </g>
  </g>
</svg>
