<?xml version="1.0" encoding="UTF-8" standalone="no"?>
<svg onload="init(evt);" viewBox="0 0 200 200" xmlns="http://www.w3.org/2000/svg" xmlns:xlink="http://www.w3.org/1999/xlink">
<defs>
<linearGradient id="linearGradient4993">
<stop offset="0" stop-color="#888ea0"/>
<stop offset="1" stop-color="#505870"/>
</linearGradient>
<linearGradient id="linearGradient4537">
<stop offset="0" stop-color="#dbdee4"/>
<stop offset="1" stop-color="#5d6f7b"/>
</linearGradient>
<linearGradient gradientUnits="userSpaceOnUse" id="linearGradient2661" x1="234.02793" x2="134.04233" y1="212.30376" y2="124.87075">
<stop offset="0" stop-color="#767e8f"/>
<stop offset="1" stop-color="#767e8f" stop-opacity="0"/>
</linearGradient>
<linearGradient gradientUnits="userSpaceOnUse" id="linearGradient2643" x1="50.46902" x2="135.67291" xlink:href="#linearGradient4537" y1="179.22047" y2="247.69269"/>
<linearGradient gradientUnits="userSpaceOnUse" id="linearGradient2645" x1="186.7426" x2="242.19218" xlink:href="#linearGradient4537" y1="78.42444" y2="111.75589"/>
<linearGradient gradientUnits="userSpaceOnUse" id="linearGradient2647" x1="85.05074" x2="194.42755" xlink:href="#linearGradient4537" y1="95.06253" y2="182.96078"/>
<linearGradient gradientUnits="userSpaceOnUse" id="linearGradient2649" x1="63.0601" x2="127.0453" xlink:href="#linearGradient4537" y1="189.85835" y2="241.27863"/>
<linearGradient gradientUnits="userSpaceOnUse" id="linearGradient2651" x1="37.88407" x2="254.66186" xlink:href="#linearGradient4537" y1="55.6374" y2="251.80473"/>
<linearGradient gradientUnits="userSpaceOnUse" id="linearGradient2653" x1="413.62598" x2="401.34604" xlink:href="#linearGradient4537" y1="473.306" y2="461.29648"/>
<linearGradient gradientUnits="userSpaceOnUse" id="linearGradient2659" x1="414.22247" x2="403.79758" xlink:href="#linearGradient4537" y1="471.89423" y2="462.42728"/>
<linearGradient gradientUnits="userSpaceOnUse" id="linearGradient2663" x1="413.31894" x2="404.13699" xlink:href="#linearGradient4537" y1="471.81152" y2="463.15634"/>
<linearGradient gradientUnits="userSpaceOnUse" id="linearGradient2665" x1="403.12033" x2="413.85022" xlink:href="#linearGradient4993" y1="462.89124" y2="474.66672"/>
<linearGradient gradientUnits="userSpaceOnUse" id="linearGradient2667" x1="413.08978" x2="400.03201" xlink:href="#linearGradient4993" y1="472.62994" y2="458.34033"/>
<linearGradient gradientUnits="userSpaceOnUse" id="linearGradient2669" x2="0" xlink:href="#linearGradient4993" y1="459.61282" y2="477.7027"/>
<radialGradient cx="336.09784" cy="379.73615" gradientTransform="matrix(1.55571,-6.0375301e-8,5.5528232e-8,1.43059,-456.22092,-485.85179)" gradientUnits="userSpaceOnUse" id="radialGradient2655" r="166.04688">
<stop offset="0" stop-color="#e8ebf2"/>
<stop offset="1" stop-color="#e8ebf2" stop-opacity="0"/>
</radialGradient>
</defs>
<script type="text/ecmascript">
	function init(evt) {
		setInterval ( "updateHands()", 1000 );
		updateHands();
	}

	function updateHands() {
		var d = new Date();
		var hour_deg = (30.0 * (d.getHours() % 12));
		var minute_deg = (0.1 * ((d.getMinutes()*60)+d.getSeconds()));

		var hour_hand = document.getElementById('hourHand');
		var minute_hand = document.getElementById('minuteHand');

		hour_hand.setAttribute('transform', 'rotate('+hour_deg+',200, 200) translate(200,200)');
		minute_hand.setAttribute('transform', 'rotate('+minute_deg+',200, 200) translate(200,200)');
	}
  </script>
<g transform="scale(.5)">
<g transform="matrix(1.33333,0,0,1.33333,-1.340146e-6,-3.0506084e-5)">
<path d="m101.06402,167.02272c-.10723.00064-.22204.00566-.32983.01832-1.53347.18008-2.69849,1.51606-2.67523,3.05979v2.40019c-2.33592.1408-4.63114.44243-6.87132.89778l-.623-2.3269c-.35075-1.42339-1.6709-2.37544-3.13332-2.27194-.91161.06324-1.74947.53528-2.27211,1.28254s-.67467,1.68767-.42144,2.56509l.623,2.3269c-2.20037.73952-4.32655,1.62928-6.37658,2.65671l-1.20935-2.10704c-.55907-.99268-1.62867-1.5906-2.76685-1.53905-1.06337.04692-2.02551.66482-2.52865,1.59401s-.48583,2.05407.05498,2.96818l1.22767,2.10704c-1.92649,1.27549-3.76781,2.6678-5.49706,4.19575l-1.72241-1.72227c-.57032-.58174-1.34747-.8998-2.16218-.89778-1.22291.00731-2.34396.74673-2.8035,1.88718s-.1616,2.44498.71462,3.29797l1.70409,1.72227c-1.52804,1.72561-2.93651,3.5528-4.21441,5.4783l-2.08888-1.20925c-.52293-.31495-1.13132-.45741-1.74074-.4214-1.32484.09292-2.45257,1.04539-2.74853,2.34522s.31206,2.64082 1.46588,3.29796l2.08888,1.20927c-1.02984,2.05566-1.917,4.18958-2.65691,6.39439l-2.32709-.62295c-.29552-.07927-.61046-.12241-.91618-.10992-1.49361.056-2.73147,1.20801-2.89512,2.69334s.81237,2.88264 2.25379,3.26134l2.30876.60462c-.45539,2.24-.75703,4.53505-.89785,6.87078h-2.38206-.03664-.25653c-1.65965.08298-2.95978,1.51021-2.87679,3.16972 .08235,1.64686 1.48986,2.93811 3.13332,2.87657h.03664 2.38206c.14088,2.32674.4267,4.62003.87953,6.85245l-2.30876.60463c-7e-005,.00611-7e-005,.01222 0,.01833-1.6046.42877-2.55435,2.09657-2.12553,3.70105s2.09674,2.55416 3.70135,2.12536l2.30876-.60463c.74339,2.20835 1.64294,4.33954 2.67524,6.39442l-2.08888,1.19092c-1.43863.82992-1.94771,2.68397-1.11774,4.12248s2.68417,1.94755 4.12279,1.11765l2.12553-1.22759c1.27042,1.92058 2.65384,3.76856 4.17776,5.49663l-1.66744,1.6673-.03665.03665c-.80431.7473-1.14144,1.88798-.87953,2.94985 .26662,1.08093 1.11234,1.94222 2.19882,2.21697 1.0709.27081 2.18484-.0978 2.93176-.89778l.01832.01832 .01832-.03664 1.70409-1.68564c1.72512,1.52682 3.55379,2.93675 5.47874,4.21409l-1.20935,2.08872c-7e-005,.0061-7e-005,.01221 0,.01831-.82998,1.43851-.32089,3.29257 1.11773,4.12247s3.29282.32087 4.1228-1.11765l1.20935-2.08871c2.04391,1.0253 4.16339,1.91726 6.35826,2.65669l-.623,2.34524c-.42882,1.60448.53924,3.25395 2.14385,3.68274s3.27253-.52089 3.70135-2.12537l.623-2.34523c2.23799.45747 4.53288.77265 6.87132.91612v2.40018c-.01549,1.09522.56789,2.09292 1.50253,2.63839 .93521.54581 2.10652.54577 3.04171,0 .93467-.54547 1.51802-1.56151 1.50253-2.65671v-2.38186c2.33877-.14356 4.63284-.4583 6.87132-.91612l.60467,2.27195 .01833.07328h.01832c.22678,1.08439 1.00346,1.97253 2.07055,2.29027 1.09481.32597 2.28279-.00179 3.06004-.8245 .76635-.81123 1.00136-1.98057.64131-3.04146h.03665l-.60467-2.30859c2.2027-.74227 4.32663-1.64536 6.37658-2.67502l1.19103,2.08871c.82997,1.43852 2.68417,1.94756 4.12279,1.11765s1.94771-2.68396 1.11774-4.12247l-1.22768-2.12536c1.92366-1.27457 3.76938-2.66959 5.49706-4.19576l1.70408,1.68564 .01833.03664 .01832-.01832c.74691.79998 1.86086,1.16859 2.93177.89778 1.08647-.27475 1.9322-1.13603 2.19881-2.21697 .26191-1.06186-.07522-2.20255-.87953-2.94985l-.03665-.03665-1.66743-1.6673c1.52381-1.72802 2.90738-3.57614 4.17776-5.49663l2.12553,1.22759c1.43862.8299 3.29282.32086 4.12279-1.11765s.32089-3.29256-1.11774-4.12248l-2.08887-1.20925c1.03187-2.05484 1.93209-4.18541 2.67523-6.3944l2.30876.62294c1.6046.4288 3.27253-.52088 3.70135-2.12536s-.52093-3.27228-2.12553-3.70105c7e-005-.00611 7e-005-.01222 0-.01833l-2.30876-.60463c.45285-2.23247.73866-4.52564.87953-6.85245h2.40038c1.0953.01549 2.09307-.56783 2.63858-1.50242 .54583-.93511.54583-2.10634 0-3.04145-.54551-.93459-1.56162-1.51791-2.6569-1.50242h-2.38206c-.14026-2.33444-.42482-4.63102-.87953-6.87078l2.30876-.60462c1.56087-.36122 2.53428-1.9053 2.25379-3.4812-.24608-1.38267-1.40623-2.39642-2.76685-2.4918-.21632-.01518-.41521-.00315-.58635.01832s-.32989.06209-.49473.10992l-2.29044.62295c-.74327-2.20816-1.64328-4.3398-2.67523-6.39439l2.1072-1.20927c1.20918-.69203 1.7885-2.13758 1.39259-3.48119s-1.66465-2.23634-3.06003-2.16199h-.01832c-.48119.03222-.94307.17219-1.35595.4214l-2.08887,1.20925c-1.27786-1.92541-2.68647-3.75276-4.21441-5.4783l1.7224-1.72227c.89234-.86777 1.14435-2.20537.65965-3.35294s-1.6185-1.8666-2.85847-1.83221c-.77969.02444-1.52487.35872-2.07055.91611l-1.72241,1.70394c-1.72808-1.52661-3.57269-2.92093-5.49706-4.19575l1.22768-2.12537c.58314-.97737.54618-2.17867-.05498-3.13306s-1.68579-1.51474-2.82181-1.4108c-.99402.08957-1.87701.66781-2.36374,1.53905l-1.20935,2.10704c-2.05501-1.0318-4.18574-1.93194-6.39491-2.67502l.623-2.30859c.26842-.93473.07661-1.94295-.53138-2.71166s-1.54355-1.18153-2.51032-1.13597c-1.324.07177-2.46659,1.00325-2.78518,2.29025l-.60467,2.30859c-2.24067-.4557-4.53508-.7569-6.87132-.89778v-2.41852c.01322-.87766-.36376-1.69044-1.0078-2.27194-.56352-.50881-1.28332-.79238-2.0339-.78784zm.01832,10.84667c24.45093,5e-005 44.26961,19.63796 44.26961,44.08291s-19.82274,44.26614-44.26961,44.26614-44.26961-19.82118-44.26961-44.26614 19.81869-44.08291 44.26961-44.08291z" fill="url(#linearGradient2643)" stroke="#373c43" stroke-linecap="round" stroke-linejoin="round" stroke-width=".47042"/>
<path d="m220.70742,65.25446c-1.05021.12331-1.82668,1.04544-1.81076,2.10265v.9637c-1.01747.07579-2.02324.19523-3.0082.37965l-.26285-.93451c-.2403-.97523-1.13006-1.6187-2.13202-1.54779-.62599.04343-1.21864.36356-1.57711.87611s-.46589,1.1791-.29206,1.78141l.23364.9053c-.94625.33477-1.85041.73618-2.74534,1.16814l-.4965-.8469c-.38349-.68102-1.11756-1.08671-1.89837-1.05133-.73086.03225-1.3787.44441-1.72315,1.08053s-.34204,1.41673.02922,2.04425l.46728.81769c-.83245.56758-1.62901,1.18444-2.39487,1.83982l-.67173-.67168c-.39146-.39934-.93027-.61467-1.4895-.61328-.838.00501-1.61173.5011-1.92757,1.28496s-.10395,1.69338.49649,2.27787l.64253.67168c-.65303.76045-1.24339,1.56638-1.81076,2.39468l-.84697-.46725c-.359-.21625-.74986-.31676-1.16823-.29203h-.02921c-.90785.06368-1.66592.71361-1.86917,1.60619s.20241,1.82758.993,2.27787l.84697.46726c-.43407.90029-.83282,1.8234-1.16823,2.77433l-.93459-.23363c-.20284-.05441-.40342-.06698-.61332-.0584-1.02391.03838-1.8738.82166-1.98599,1.83981s.53215,1.96027 1.5187,2.21946l.93459.26283c-.18445.98489-.30388,1.99057-.37968,3.00796h-.93458-.05842-.14602c-1.1356.05677-2.04278,1.02558-1.986,2.16106 .0556,1.11233 1.02592,1.97456 2.13202,1.95663v.0292h.05842 .93458c.07624,1.007.19709,2.00322.37968,2.97876l-.93459.26283c-1.09802.29344-1.75373,1.44276-1.46029,2.5407s1.44287,1.7536 2.5409,1.46018l.93459-.23363c.33778.9524.73268,1.87525 1.16823,2.77433l-.84697.46725c-.98448.5679-1.3273,1.87757-.75935,2.86195s1.84851,1.32718 2.83296.75929l.84697-.49646c.56712.83373 1.18308,1.6254 1.83996,2.39469l-.67173.64247-.02921.02921c-.54916.51338-.76289,1.2902-.58411,2.01503 .18269.74074.77151,1.32964 1.5187,1.51858 .73163.185 1.50391-.04319 2.0152-.58406l.02921-.02921 .64252-.64248c.76491.65662 1.56128,1.26962 2.39487,1.83982l-.46728.8177c-.56793.98438-.22513,2.26484.75934,2.83274s2.26501.22512 2.83296-.75929l.4965-.81769c.89124.43081 1.80228.80426 2.74534,1.13893l-.23364.93451c-.29344,1.09795.36226,2.24729 1.46029,2.5407s2.24746-.36224 2.5409-1.46017l.26285-.93451c.98386.18623 1.9887.33101 3.0082.40885v.96371c-.01066.75375.38321,1.4085 1.0222,1.78142s1.43407.37325 2.07361,0 1.06207-1.05688 1.05141-1.81062v-.93451c1.01918-.07891 2.02457-.22159 3.00819-.40885l.20444.8761 .02921.05841c.15858.73952.70164,1.33059 1.43108,1.54778 .75205.22392 1.57158.00744 2.10282-.55486 .52-.55041.67572-1.34959.43808-2.07345h.02921l-.02921-.0584-.20443-.84691c.95248-.33775 1.8754-.73263 2.77454-1.16813l.4673.81769h.0292c.56795.9844 1.84851,1.32721 2.83296.75929s1.32731-1.84833.75935-2.83274l-.49649-.8469c.83156-.56801 1.62944-1.18417 2.39487-1.83982l.67174.67168 .0292.02921c.51126.54091 1.28355.76908 2.01519.58406 .74717-.18894 1.3068-.77785 1.4895-1.51858 .17875-.7248-.03493-1.50165-.58411-2.01503l-.02921-.02921-.64253-.64247c.65011-.76227 1.24869-1.56923 1.81076-2.39469l.84697.49646c.98444.56792 2.265.22508 2.83296-.75929s.22509-2.29403-.75935-2.86195l-.81776-.46725c.43543-.8989.83041-1.82166 1.16822-2.77433l.90539.23363c1.09802.29341 2.24746-.36223 2.5409-1.46018s-.36227-2.24729-1.46029-2.5407l-.90538-.26283c.18259-.97554.30344-1.97174.37968-2.97876h.96379c.7538.01064 1.40861-.4124 1.78155-1.05132s.3733-1.43391 0-2.07345-1.05696-1.03277-1.81076-1.02212h-.93458c-.07632-1.02908-.19208-2.04071-.37968-3.03716l.90538-.23363c1.06882-.24735 1.73988-1.28687 1.54791-2.36548-.16867-.94781-.96237-1.65739-1.89838-1.72301-.15702-.011-.30209.01581-.40888.02922-.11703.01319-.20806.02554-.32126.0584l-.90539.23363c-.34083-.96096-.72804-1.89698-1.16822-2.80354l.81776-.46726c.82769-.47372 1.23563-1.44299.96379-2.36548s-1.14608-1.54034-2.10282-1.48937c-.33034.02213-.65113.12094-.93458.29203l-.81777.46725c-.57021-.83356-1.18307-1.62975-1.83996-2.39468l.67174-.67168c.6123-.59544.80005-1.51926.46728-2.30708s-1.13677-1.27931-1.98599-1.25575c-.53521.01677-1.02731.23068-1.40187.61328l-.70094.70088c-.76543-.65573-1.56318-1.27178-2.39487-1.83982l.49649-.84689c.40048-.67123.35239-1.50886-.05841-2.16106s-1.14642-1.0352-1.92758-.96372c-.68213.06146-1.30154.45348-1.63552,1.05133l-.4673.8469c-.89896-.4354-1.82181-.83035-2.77454-1.16814l.23364-.93451c.18405-.64097.03902-1.31043-.37967-1.83982s-1.06197-.81964-1.72314-.78849c-.90768.04921-1.67995.69463-1.89838,1.57699l-.23365.90531c-.98475-.18552-1.99104-.30283-3.00819-.37965v-.99291c.00915-.60501-.25978-1.14947-.70094-1.54779s-1.0447-.59507-1.63552-.52566zm.26285,6.7752c13.1139,2e-005 23.71509,10.51706 23.71509,23.62561s-10.6055,23.71323-23.71509,23.71323-23.7443-10.60467-23.7443-23.71323 10.63042-23.62561 23.7443-23.62561z" fill="url(#linearGradient2645)" stroke="#373c43" stroke-linecap="round" stroke-linejoin="round" stroke-width=".47042"/>
<path d="m149.99986,79.4042c-.13764.00083-.28503.00728-.42339.02352-1.96853.23117-3.46407,1.94619-3.43422,3.92787v3.08114c-2.99864.18075-5.94503.56795-8.82076,1.15249l-.79974-2.98706c-.45027-1.82721-2.14495-3.04936-4.02227-2.9165-1.17025.08119-2.24582.68715-2.91673,1.64641s-.86609,2.16648-.54101,3.29282l.79975,2.98706c-2.82464.94932-5.55402,2.09151-8.18566,3.41042l-1.55246-2.70482c-.71768-1.2743-2.09073-2.04187-3.55182-1.9757-1.36505.06024-2.60016.85345-3.24604,2.04626s-.62367,2.63682.07057,3.81027l1.57597,2.70482c-2.47305,1.63737-4.83677,3.42467-7.05661,5.38612l-2.21107-2.2109c-.73211-.74679-1.72975-1.15508-2.77559-1.15248-1.56986.00939-3.00896.95858-3.59887,2.42257s-.20744,3.13866.91736,4.23364l2.18754,2.21089c-1.96155,2.21517-3.76962,4.56076-5.41006,7.03253l-2.68151-1.55233c-.67128-.4043-1.45228-.58717-2.23459-.54096-1.7007.11929-3.14838,1.342-3.5283,3.01058s.40058,3.39004 1.88176,4.23363l2.68151,1.55233c-1.322,2.63887-2.46086,5.37821-3.41069,8.20855l-2.9873-.79969c-.37936-.10177-.78364-.15715-1.1761-.14112-1.91736.0719-3.5064,1.55073-3.71648,3.45746s1.04284,3.70046 2.89321,4.1866l2.96377.77616c-.58459,2.87551-.97181,5.82167-1.15258,8.82007h-3.05786-.04704c-.11317-.00425-.21618-.00566-.32931,0-2.13049.10651-3.79948,1.93866-3.69296,4.06899 .10571,2.11408 1.91254,3.77168 4.02227,3.69266h.04704 3.05786c.18085,2.98686.54776,5.93078 1.12906,8.79655l-2.96377.77617c-9e-005,.00784-9e-005,.01567 0,.02352-2.05984.55043-3.27904,2.6914-2.72856,4.75108s2.6916,3.27877 4.75145,2.72833l2.96378-.77616c.95429,2.83486 2.10905,5.57069 3.43421,8.20854l-2.68151,1.52882c-1.84678,1.06535-2.50028,3.4454-1.43484,5.29204s3.44569,2.50008 5.29246,1.43473l2.72855-1.57586c1.63086,2.46546 3.40676,4.83772 5.36302,7.05605l-2.1405,2.14034-.04705.04704c-1.0325.95932-1.46527,2.42361-1.12905,3.78675 .34225,1.3876 1.42791,2.49324 2.82264,2.84594 1.37472.34763 2.8047-.12555 3.76352-1.15249l.02352.02352 .02353-.04704 2.18754-2.16385c2.21455,1.95998 4.56203,3.76991 7.03309,5.40964l-1.55245,2.68129c-9e-005,.00784-9e-005,.01569 0,.02353-1.06544,1.84661-.41194,4.22668 1.43484,5.29204s4.22702.41189 5.29245-1.43473l1.55246-2.68131c2.62378,1.3162 5.34457,2.4612 8.16214,3.41042l-.79975,3.01059c-.55048,2.05969.69224,4.17712 2.75208,4.72756s4.20097-.66867 4.75145-2.72834l.79974-3.01058c2.87293.58724 5.81889.99183 8.82076,1.17601v3.08114c-.01988,1.40593.729,2.68668 1.92881,3.3869s2.70415.70062 3.90465,0 1.9487-2.0045 1.92881-3.41042v-3.05762c3.00229-.18427 5.9472-.58833 8.82076-1.17601l.77622,2.9165 .02353.09408h.02352c.29112,1.39203 1.28815,2.53215 2.65799,2.94002 1.40539.41845 2.93042-.00229 3.92817-1.05841 .98379-1.04139 1.28547-2.54247.82328-3.90435h.04704l-.77623-2.96354c2.82762-.95286 5.55414-2.11215 8.18567-3.43395l1.52893,2.68131c1.06544,1.84662 3.44568,2.50008 5.29245,1.43473s2.50028-3.44543 1.43485-5.29204l-1.57598-2.72834c2.46941-1.63619 4.83877-3.42697 7.05661-5.38612l2.18754,2.16385 .02353.04704 .02352-.02352c.95882,1.02693 2.38881,1.50012 3.76352,1.15249 1.39473-.3527 2.4804-1.45833 2.82265-2.84594 .33621-1.36313-.09656-2.82743-1.12906-3.78675l-.04705-.04704-2.1405-2.14034c1.95613-2.21824 3.73223-4.59071 5.36302-7.05605l2.72856,1.57586c1.84676,1.06535 4.22701.4119 5.29245-1.43473s.41193-4.22669-1.43484-5.29204l-2.68151-1.55234c1.32463-2.63781 2.48024-5.37285 3.43421-8.20854l2.96378.79968c2.05984.55044 4.20097-.66866 4.75144-2.72833s-.66871-4.20065-2.72855-4.75108c9e-005-.00785 9e-005-.01568 0-.02352l-2.96377-.77617c.58132-2.86583.94822-5.8096 1.12905-8.79655h3.08139c1.40603.01989 2.6869-.72893 3.38717-1.92865s.70068-2.70392 0-3.90434-2.00466-1.94854-3.41069-1.92866h-3.05787c-.18004-2.99674-.54533-5.94487-1.12905-8.82007l2.96377-.77616c2.0037-.46369 3.25327-2.44585 2.89321-4.46884-.3159-1.77495-1.80519-3.07629-3.55183-3.19874-.27769-.01947-.53301-.00404-.7527.02352-.21888.02469-.42349.0797-.6351.14112l-2.94025.79969c-.95414-2.83465-2.10948-5.57105-3.43421-8.20855l2.70503-1.55233c1.55224-.88836 2.29591-2.74403 1.78767-4.46883s-2.13692-2.8708-3.92817-2.77538h-.02353c-.6177.04137-1.21062.22105-1.74063.54096l-2.68151,1.55233c-1.64038-2.47165-3.44863-4.81745-5.41006-7.03253l2.21107-2.21089c1.1455-1.11396 1.469-2.83104.84679-4.3042s-2.07768-2.39616-3.66943-2.35201c-1.0009.03137-1.95749.46048-2.65799,1.176l-2.21107,2.18738c-2.21834-1.95972-4.58629-3.74963-7.05661-5.38612l1.57598-2.72834c.74858-1.25467.70113-2.79679-.07057-4.02195s-2.16406-1.94448-3.62239-1.81105c-1.27603.115-2.40953.85727-3.03434,1.9757l-1.55246,2.70482c-2.63802-1.32453-5.37326-2.48004-8.20918-3.43394l.79975-2.96354c.34456-1.19991.09835-2.49418-.68214-3.48099s-1.98147-1.51673-3.22252-1.45825c-1.69962.09213-3.16637,1.28789-3.57535,2.94002l-.77622,2.96354c-2.87637-.58497-5.82171-.97164-8.82076-1.15249v-3.10466c.01697-1.12666-.46696-2.17003-1.29371-2.9165-.7234-.65317-1.64742-1.01718-2.61095-1.01137zm.02353,13.92394c31.38781,7e-005 56.8292,25.20938 56.8292,56.58954s-25.44659,56.82474-56.8292,56.82474-56.82921-25.44459-56.82921-56.82474 25.4414-56.58954 56.82921-56.58954z" fill="url(#linearGradient2647)" stroke="#373c43" stroke-linecap="round" stroke-linejoin="round" stroke-width=".47042"/>
<path d="m423.75899,490.71738c0,17.0157-13.79395,30.80965-30.80965,30.80965s-30.80965-13.79395-30.80965-30.80965 13.79395-30.80966 30.80965-30.80966 30.80965,13.79396 30.80965,30.80966z" fill="#505870" transform="matrix(1.08278,0,0,1.0827,-324.322,-309.39694)"/>
<path d="m101.0552,180.69828c-.08052.00048-.16674.00426-.24769.01376-1.15158.13523-2.02647,1.13852-2.00901,2.29779v1.80246c-1.75419.10573-3.47782.33226-5.16012.67421l-.46785-1.74744c-.26341-1.06891-1.25479-1.78386-2.35301-1.70613-.68459.04749-1.3138.40198-1.70628.96315s-.50665,1.26738-.31649,1.92629l.46785,1.74743c-1.65241.55534-3.24909,1.22352-4.78859,1.99509l-.90818-1.58232c-.41984-.74547-1.22308-1.19448-2.07781-1.15577-.79855.03523-1.52109.49925-1.89893,1.19706s-.36484,1.54252.04129,2.22899l.92193,1.58231c-1.44672.95786-2.82949,2.00343-4.1281,3.15086l-1.29347-1.29336c-.42829-.43687-1.0119-.67572-1.62372-.67421-.91836.0055-1.76023.56078-2.10533,1.41722s-.12136,1.83609.53666,2.47666l1.2797,1.29337c-1.1475,1.29586-2.20521,2.66802-3.16487,4.114l-1.56868-.90809c-.3927-.23653-.84958-.3435-1.30723-.31647-.9949.06978-1.84179.78506-2.06405,1.76118s.23434,1.98317 1.10083,2.47666l1.56867.90811c-.77337,1.54375-1.4396,3.14624-1.99525,4.80199l-1.74756-.46783c-.22192-.05952-.45844-.09192-.68802-.08255-1.12165.04207-2.05123.90718-2.17413,2.02262s.61007,2.16476 1.69253,2.44915l1.7338.45405c-.34198,1.68216-.56851,3.40566-.67426,5.15971h-1.78885-.02751-.19265c-1.24634.06232-2.22269,1.13413-2.16037,2.38036 .06184,1.23673 1.11883,2.20642 2.35302,2.16019h.02751 1.78885c.1058,1.74732.32044,3.4695.6605,5.14597l-1.7338.45406c-5e-005,.00459-5e-005,.00917 0,.01376-1.205.322-1.91823,1.57445-1.5962,2.77936s1.57458,1.91808 2.77959,1.59608l1.7338-.45406c.55827,1.65839 1.2338,3.25884 2.00901,4.80198l-1.56867.89435c-1.08036.62323-1.46266,2.01557-.83939,3.09583s2.01572,1.46254 3.09608.83932l1.5962-.92188c.95405,1.4423 1.99294,2.83006 3.13736,4.12777l-1.25219,1.2521-.02752.02752c-.60401.56121-.85718,1.41781-.6605,2.21523 .20022.81176.83533,1.45855 1.65124,1.66489 .80421.20336 1.64074-.07346 2.20165-.67422l.01376.01376 .01376-.02751 1.27971-1.26586c1.29551,1.1466 2.66877,2.2054 4.11434,3.16463l-.90818,1.56856c-5e-005,.00458-5e-005,.00917 0,.01375-.62329,1.08028-.24098,2.47261.83938,3.09583s2.47279.24096 3.09608-.83931l.90818-1.56855c1.53491.76996 3.12656,1.4398 4.77484,1.99509l-.46785,1.76118c-.32204,1.20492.40496,2.44362 1.60995,2.76562 1.20501.322 2.45756-.39117 2.77959-1.59608l.46785-1.76118c1.68065.34353 3.40403.58023 5.16012.68796v1.80247c-.01163.82245.42647,1.57169 1.12835,1.98133s1.58193.40986 2.28422,0 1.13998-1.17264 1.12834-1.99509v-1.78871c1.75634-.1078 3.47911-.34416 5.16013-.68796l.45409,1.70614 .01376.05504h.01376c.17031.81434.75357,1.4813 1.55492,1.71991 .82215.2448 1.71429-.00135 2.29798-.61917 .57551-.60921.75199-1.48734.48161-2.28403h.02751l-.45409-1.73367c1.65415-.55742 3.24916-1.23561 4.7886-2.00885l.89442,1.56855c.62329,1.08027 2.01572,1.46255 3.09608.83931s1.46265-2.01555.83938-3.09583l-.92195-1.59607c1.4446-.95716 2.83068-2.00476 4.12811-3.15087l1.27971,1.26586 .01375.02751 .01376-.01376c.56091.60076 1.39745.87758 2.20166.67422 .8159-.20634 1.45102-.85313 1.65123-1.66489 .19669-.79742-.05648-1.65402-.66049-2.21523l-.02752-.02752-1.25219-1.2521c1.14433-1.29766 2.18334-2.68554 3.13736-4.12777l1.5962.92188c1.08035.62322 2.47279.24095 3.09607-.83932s.24098-2.4726-.83938-3.09583l-1.56867-.90811c.7749-1.54312 1.45093-3.14311 2.009-4.80198l1.7338.46782c1.205.322 2.45756-.39117 2.77959-1.59608s-.3912-2.45736-1.5962-2.77936c5e-005-.00459 5e-005-.00917 0-.01376l-1.7338-.45406c.34007-1.67651.5547-3.39859.66049-5.14597h1.80261c.82253.01165 1.57183-.42641 1.98148-1.12824s.4099-1.5818 0-2.28404-1.17272-1.1399-1.99524-1.12827h-1.78885c-.10532-1.75308-.31902-3.47773-.66049-5.15971l1.7338-.45405c1.17216-.27127 1.90316-1.43082 1.69252-2.61427-.1848-1.03834-1.05603-1.79962-2.07781-1.87125-.16245-.01139-.31181-.00237-.44033.01375-.12805.01445-.24774.04664-.37153.08255l-1.72004.46783c-.55817-1.65827-1.23404-3.25905-2.009-4.80199l1.58244-.90811c.90804-.51968 1.34309-1.60525 1.04577-2.61425s-1.25009-1.67942-2.29797-1.62359h-.01376c-.36135.02421-.70822.12931-1.01827.31647l-1.56867.90809c-.95963-1.4459-2.01744-2.81819-3.16488-4.114l1.29347-1.29337c.67012-.65168.85937-1.65615.49537-2.51795s-1.21544-1.40175-2.14661-1.37593c-.58552.01836-1.14512.26939-1.55492.68796l-1.29346,1.27961c-1.29773-1.14642-2.68297-2.19352-4.12811-3.15086l.92195-1.59608c.43791-.73397.41016-1.63611-.04129-2.35282s-1.26596-1.13751-2.11908-1.05946c-.74648.06726-1.40958.50149-1.77509,1.15577l-.90818,1.58232c-1.54323-.77485-3.14334-1.45083-4.80236-2.00885l.46786-1.73367c.20157-.70195.05753-1.45909-.39906-2.03637s-1.15915-.88729-1.88515-.85307c-.99428.0539-1.85233.75341-2.09158,1.7199l-.45409,1.73367c-1.68267-.34222-3.40568-.56842-5.16013-.67421v-1.81621c.00993-.6591-.27317-1.26948-.75681-1.70615-.42319-.3821-.96373-.59506-1.5274-.59165zm.01376,8.14548c18.3618,3e-005 33.24496,14.74743 33.24496,33.10474s-14.8862,33.24237-33.24496,33.24237-33.24496-14.88504-33.24496-33.24237 14.88316-33.10474 33.24496-33.10474z" fill="url(#linearGradient2649)" stroke="#373c43" stroke-linecap="round" stroke-linejoin="round" stroke-width=".47042"/>
<path d="m149.99986,1.8817c-81.76344,0-148.11817,66.34952-148.11817,148.10655s66.35473,148.13007 148.11817,148.13007 148.11816-66.37305 148.11818-148.13007-66.35474-148.10655-148.11818-148.10655zm0,49.11013c54.66079,1e-005 99.02772,44.33993 99.02772,98.99642s-44.36694,99.01994-99.02772,99.01994-99.02771-44.36345-99.02771-99.01994 44.36694-98.99642 99.02771-98.99642z" fill="#989dac" stroke="url(#linearGradient2651)" stroke-linecap="round" stroke-linejoin="round" stroke-width="3.76338"/>
<path d="m415.80403,468.54135c0,3.9837-3.22942,7.21312-7.21312,7.21312s-7.21312-3.22942-7.21312-7.21312 3.22943-7.21312 7.21312-7.21312 7.21312,3.22942 7.21312,7.21312z" fill="none" stroke="url(#linearGradient2653)" stroke-linecap="round" stroke-linejoin="round" stroke-width=".06873" transform="matrix(20.5351,0,0,20.53349,-8240.4589,-9470.7932)"/>
<path d="m235.90229,79.19252c-2.26979-2.74975-4.65499-5.38375-7.17422-7.90278s-5.17695-4.92756-7.92692-7.19717-5.60001-4.41953-8.56202-6.42101-6.01824-3.85963-9.17359-5.57428-6.40814-3.27139-9.73811-4.68051-6.74618-2.65481-10.23208-3.73971-7.03235-2.0099-10.65548-2.75186-7.31369-1.31312-11.05535-1.69345-7.54318-.56448-11.38466-.56448-7.643.18416-11.38465.56448-7.43223.95149-11.05536,1.69345-7.16957,1.66697-10.65547,2.75186-6.90211,2.33058-10.23208,3.73971-6.58277,2.96586-9.73812,4.68051-6.21158,3.5728-9.17359,5.57428-5.83557,4.1514-8.58554,6.42101-5.38417,4.67814-7.9034,7.19717-4.90443,5.15302-7.17422,7.90278-4.41988,5.59957-6.42151,8.56134-3.85993,6.04129-5.57472,9.19639-3.29517,6.38413-4.7044,9.71383-2.65502,6.74565-3.74,10.23128-2.01005,7.05531-2.75208,10.67816-1.2897,7.31312-1.67006,11.05448-.58805,7.51908-.58805,11.36025 .20769,7.6424.58805,11.38377 .92804,7.43164 1.67006,11.05448 1.6671,7.16901 2.75208,10.65464 2.33077,6.90156 3.74,10.23128 2.98961,6.58224 4.7044,9.73734 3.57308,6.2111 5.57472,9.17288l45.6092,26.48371c-31.83626-16.80815-53.55965-50.23932-53.55965-88.7181 1e-005-55.34562 44.92442-100.26651 100.27438-100.26651 44.92761,0 82.97125,29.60427 95.71111,70.34884l-9.80868-40.87806z" fill="url(#radialGradient2655)"/>
<path d="m149.99986,1.8817c-81.76344,0-148.11817,66.34952-148.11817,148.10655 0,27.77236 7.66503,53.77037 20.98164,75.99369l54.97097,8.70246c-2.25166-1.92053-4.47112-3.88276-6.56265-5.97412-2.51923-2.51903-4.90443-5.15303-7.17422-7.90278s-4.41988-5.62309-6.42151-8.58486-3.85993-6.01777-5.57472-9.17288-3.29517-6.40764-4.7044-9.73734-2.65502-6.74565-3.74-10.23128-2.01005-7.03179-2.75208-10.65464-1.2897-7.31312-1.67006-11.05448-.58805-7.54259-.58805-11.38377 .20769-7.61888.58805-11.36025 .92804-7.43163 1.67006-11.05448 1.6671-7.19253 2.75208-10.67816 2.33077-6.90156 3.74-10.23128 2.98961-6.55873 4.7044-9.71383 3.57308-6.23461 5.57472-9.19639 4.15172-5.81159 6.42151-8.56134 4.65499-5.38375 7.17422-7.90278 5.15343-4.92756 7.9034-7.19717 5.62353-4.41953 8.58554-6.42101 6.01824-3.85963 9.17359-5.57428 6.40815-3.27139 9.73812-4.68051 6.74618-2.65481 10.23208-3.73971 7.03235-2.0099 10.65547-2.75186 7.3137-1.31312 11.05536-1.69345 7.54318-.56448 11.38465-.56448 7.643.18416 11.38466.56448 7.43222.95149 11.05535,1.69345 7.16957,1.66697 10.65548,2.75186 6.9021,2.33058 10.23208,3.73971 6.58277,2.96586 9.73811,4.68051 6.21159,3.5728 9.17359,5.57428 5.81205,4.1514 8.56202,6.42101 5.40769,4.67814 7.92692,7.19717 4.90443,5.15302 7.17422,7.90278 4.41987,5.59957 6.42151,8.56134c1.88978,2.79625 3.63437,5.70991 5.26893,8.67894l4.25749-53.95528c-26.55207-25.16199-62.40737-40.59582-101.85036-40.59582z" fill="url(#radialGradient2655)"/>
<g transform="matrix(.7527,0,0,.75265,-157.55057,-202.64973)">
<path d="m407.96875,279.28125v6.375h.625 .625v-6.375h-.625-.625zm-18.53125.9375c-.41881.04215-.832.11137-1.25.15625l.65625,6.34375c.41743-.0449.83173-.11417 1.25-.15625l-.65625-6.34375zm38.3125,0-.65625,6.34375c.41827.04208.83257.11135 1.25.15625l.65625-6.34375c-.418-.04488-.83119-.1141-1.25-.15625zm-57.875,3.03125-1.21875.28125 1.3125,6.21875c.40602-.08741.81174-.16529 1.21875-.25l-1.3125-6.25zm77.46875,0-1.3125,6.25c.39918.08315.78928.1955 1.1875.28125l1.34375-6.25c-.40814-.08788-.80964-.19601-1.21875-.28125zm-96.625,5.0625c-.40595.13036-.814.24198-1.21875.375l1.96875,6.09375c.40794-.13418.80955-.27487 1.21875-.40625l-1.96875-6.0625zm115.75,0-1.96875,6.0625c.39975.12834.78895.27524 1.1875.40625l1.96875-6.09375c-.39282-.12906-.79355-.24845-1.1875-.375zm-134.28125,7.03125c-.38786.17147-.76976.35725-1.15625.53125l2.59375,5.8125c.3813-.17171.77357-.33084 1.15625-.5l-2.59375-5.84375zm152.8125,0-2.59375,5.84375c.38268.16916.77495.32829 1.15625.5l2.59375-5.8125c-.38649-.174-.76839-.35978-1.15625-.53125zm17.6875,8.9375-3.21875,5.5625c.36361.20879.73171.41379 1.09375.625l3.1875-5.53125c-.35864-.20917-.70237-.44938-1.0625-.65625zm-188.1875.03125c-.35573.20439-.70822.41837-1.0625.625l3.1875,5.53125 1.0625-.625-3.1875-5.53125zm-16.625,10.71875c-.35065.25344-.68241.52548-1.03125.78125l3.75,5.15625 1.03125-.75-3.75-5.1875zm221.4375.03125-3.75,5.15625 1.03125.75 3.75-5.15625-1.03125-.75zm-236.90625,12.4375c-.30633.27426-.60172.56753-.90625.84375l4.28125,4.75c.30601-.27768.59836-.56812.90625-.84375l-4.28125-4.75zm252.34375,0-4.28125,4.75c.30859.27618.6308.53426.9375.8125l4.28125-4.75c-.30519-.27676-.6305-.53771-.9375-.8125zm-266.375,13.9375c-.28947.31907-.55643.64771-.84375.96875l4.75,4.28125c.28457-.3181.55699-.65266.84375-.96875l-4.75-4.28125zm280.4375,0-4.75,4.28125c.27824.3067.53632.62891.8125.9375l4.75-4.28125c-.27753-.30995-.53297-.62939-.8125-.9375zm-292.96875,15.375c-.24208.33029-.47876.66809-.71875,1l5.15625,3.75c.24505-.33903.50269-.66272.75-1l-5.1875-3.75zm305.5,0-5.1875,3.75c.24731.33728.50495.66097.75,1l5.15625-3.75c-.23999-.33191-.47667-.66971-.71875-1zm-316.375,16.5625c-.20708.3551-.42017.70593-.625,1.0625l5.53125,3.1875c.20419-.35547.4185-.70854.625-1.0625l-5.53125-3.1875zm327.21875,0-5.53125,3.1875c.21107.36179.41635.73038.625,1.09375l5.5625-3.21875c-.20687-.36013-.44708-.70386-.65625-1.0625zm-336.28125,17.59375c-.17229.38268-.33019.77222-.5,1.15625l5.84375,2.59375c.17029-.38512.32713-.77253.5-1.15625l-5.84375-2.59375zm345.34375,0-5.8125,2.59375c.17287.38372.32971.77113.5,1.15625l5.84375-2.59375c-.17147-.38786-.35725-.76976-.53125-1.15625zm-352.5,18.5c-.12934.39363-.24818.79274-.375,1.1875l6.0625,1.96875c.12683-.39487.24556-.79381.375-1.1875l-6.0625-1.96875zm359.6875,0-6.09375,1.96875c.13017.3959.27872.79041.40625,1.1875l6.0625-1.96875c-.12655-.39395-.24594-.79468-.375-1.1875zm-364.875,19.09375c-.08788.40814-.19601.80964-.28125,1.21875l6.28125,1.34375c.08516-.40919.19336-.81056.28125-1.21875l-6.28125-1.34375zm370.0625,0-6.28125,1.34375c.08789.40819.19609.80956.28125,1.21875l6.28125-1.34375c-.08524-.40911-.19337-.81061-.28125-1.21875zm-373.21875,19.59375c-.04355.40619-.08403.81179-.125,1.21875l6.34375.65625c.04105-.40795.11252-.81159.15625-1.21875l-6.375-.65625zm376.34375,0-6.34375.65625c.04373.40716.1152.8108.15625,1.21875l6.34375-.65625c-.04107-.40806-.11258-.81145-.15625-1.21875zm-377.4375,19.75c-.00068.2091 0,.41574 0,.625s-.00067.41723 0,.625h6.40625c-.0007-.20872 0-.41612 0-.625s-.0007-.41628 0-.625h-6.40625zm372.15625,0c.0007.20872 0,.41612 0,.625s.0007.41628 0,.625h6.40625c.00067-.20777 0-.41707 0-.625s.00068-.4159 0-.625h-6.40625zm-364.84375,19.125-6.34375.65625c.04204.41767.08024.83313.125,1.25l6.375-.65625c-.0449-.41743-.11417-.83173-.15625-1.25zm363.9375,0c-.04208.41827-.11135.83257-.15625,1.25l6.34375.65625c.04488-.418.1141-.83119.15625-1.25l-6.34375-.65625zm-361,18.90625-6.28125,1.34375c.08468.40647.19397.81324.28125,1.21875l6.25-1.34375c-.08741-.40602-.16529-.81174-.25-1.21875zm358.0625,0c-.08471.40701-.16259.81273-.25,1.21875l6.25,1.34375c.08728-.40551.19657-.81228.28125-1.21875l-6.28125-1.34375zm-353.1875,18.53125-6.0625,1.96875c.12766.39729.24479.79135.375,1.1875l6.0625-1.96875c-.12944-.39369-.24817-.79263-.375-1.1875zm348.28125,0c-.12656.39399-.24584.79467-.375,1.1875l6.09375,1.96875c.12992-.39532.24762-.79104.375-1.1875l-6.09375-1.96875zm-341.46875,17.90625-5.84375,2.59375c.16601.37527.33163.75102.5,1.125l5.84375-2.59375-.5-1.125zm334.6875,0c-.16642.37637-.33112.74996-.5,1.125l5.8125,2.59375c.16837-.37398.33399-.74973.5-1.125l-5.8125-2.59375zm-326.0625,17.0625-5.53125,3.1875c.21205.36915.44178.72617.65625,1.09375l5.53125-3.1875c-.21495-.36834-.44381-.72378-.65625-1.09375zm317.40625,0c-.20978.36533-.41278.73001-.625,1.09375l5.53125,3.1875c.21126-.36211.41608-.73012.625-1.09375l-5.53125-3.1875zm-10.40625,16.0625c-.24499.33891-.4715.69409-.71875,1.03125l5.15625,3.75c.24713-.33706.50505-.66125.75-1l-5.1875-3.78125zm-296.5625.03125-5.1875,3.75c.24495.33875.50287.66294.75,1l5.15625-3.75c-.24228-.33038-.47864-.66794-.71875-1zm11.96875,14.875-4.75,4.28125c.28064.31356.56105.62583.84375.9375l4.75-4.28125-.84375-.9375zm272.59375.03125c-.27474.30695-.53573.63242-.8125.9375l4.75,4.28125c.27811-.30653.53638-.62914.8125-.9375l-4.75-4.28125zm-259.09375,13.5625-4.28125,4.75 .9375.84375 4.28125-4.75-.9375-.84375zm245.625.03125c-.3067.27824-.62891.53632-.9375.8125l4.28125,4.75c.307-.27479.63231-.53574.9375-.8125l-4.28125-4.75zm-230.8125,12.0625-3.75,5.15625c.34884.25577.6806.52781 1.03125.78125l3.75-5.1875-1.03125-.75zm216,0-1.03125.75 3.75,5.15625 1.03125-.75-3.75-5.15625zm-200,10.5-3.1875,5.53125 1.09375.625 3.1875-5.53125c-.36357-.20888-.73175-.4137-1.09375-.625zm183.96875.03125-1.0625.625 3.1875,5.53125c.35657-.20483.7074-.41792 1.0625-.625l-3.1875-5.53125zm-166.9375,8.75-2.59375,5.84375 1.15625.5 2.59375-5.84375c-.38268-.16916-.77495-.32829-1.15625-.5zm149.9375,0c-.3813.17171-.77357.33084-1.15625.5l2.59375,5.84375 1.15625-.5-2.59375-5.84375zm-132.09375,6.90625-2,6.09375 1.25.40625 1.96875-6.09375c-.41007-.13166-.80994-.27177-1.21875-.40625zm114.25.03125c-.40575.13345-.81175.24432-1.21875.375l1.96875,6.09375c.4064-.13055.81355-.27303 1.21875-.40625l-1.96875-6.0625zm-18.46875,5-1.25.28125 1.3125,6.25 1.25-.28125-1.3125-6.25zm-77.28125.03125-1.3125,6.21875c.3982.08567.78837.19809 1.1875.28125l1.3125-6.25c-.397-.08269-.79145-.16474-1.1875-.25zm18.875,3-.65625,6.375 1.25.125 .65625-6.34375c-.41827-.04208-.83257-.11135-1.25-.15625zm39.5,0c-.41743.0449-.83173.11417-1.25.15625l.65625,6.34375 1.25-.125-.65625-6.375zm-20.375,1.09375v6.375h.625 .625v-6.375h-.625-.625z"/>
<path d="m415.80403,468.54135c0,3.9837-3.22942,7.21312-7.21312,7.21312s-7.21312-3.22942-7.21312-7.21312 3.22943-7.21312 7.21312-7.21312 7.21312,3.22942 7.21312,7.21312z" fill="none" stroke="#000" stroke-linecap="round" stroke-linejoin="round" stroke-width=".04763" transform="matrix(26.24137,0,0,26.24137,-10313.395,-11826.627)"/>
<path d="m408.59375,279.25c-.41867,0-.83197.02853-1.25.03125v6.40625c.41725-.0028.83209-.03125 1.25-.03125s.83275.02845 1.25.03125v-6.40625c-.41803-.00272-.83133-.03125-1.25-.03125zm-93.53125,24.75c-.7411.42245-1.48395.84912-2.21875,1.28125l3.21875,5.53125c.72749-.42793 1.45363-.86314 2.1875-1.28125l-3.1875-5.53125zm187.0625,0-3.1875,5.53125c.7215.41106 1.44092.82945 2.15625,1.25l3.1875-5.53125c-.715-.42013-1.43529-.83903-2.15625-1.25zm-256.8125,68.8125c-.4208.71586-.83838,1.43442-1.25,2.15625l5.53125,3.1875c.40609-.71236.83465-1.41866 1.25-2.125l-5.53125-3.21875zm326.5625,0-5.53125,3.21875c.41976.71398.8397,1.43612 1.25,2.15625l5.53125-3.21875c-.41162-.72183-.8292-1.44039-1.25-2.15625zm-352.53125,94.46875c-.00272.41803-.03125.83133-.03125,1.25s.02857.83462.03125,1.25h6.40625c-.0028-.41725-.03125-.83209-.03125-1.25s.02845-.83275.03125-1.25h-6.40625zm372.09375,0c.0028.41725.03125.83209.03125,1.25s-.02845.83275-.03125,1.25h6.40625c.00268-.41538.03125-.834.03125-1.25s-.02853-.83197-.03125-1.25h-6.40625zm-341.875,91.625-5.5,3.1875c.4123.72306.82849,1.43918 1.25,2.15625l5.53125-3.1875c-.42435-.72155-.86656-1.42841-1.28125-2.15625zm318.03125,0c-.41204.72319-.82842,1.43926-1.25,2.15625l5.53125,3.1875c.42151-.71707.8377-1.43319 1.25-2.15625l-5.53125-3.1875zm-251.53125,67.375-3.1875,5.53125c.71586.4208 1.43442.83838 2.15625,1.25l3.1875-5.53125c-.72142-.41123-1.44101-.82927-2.15625-1.25zm185.0625,0c-.71524.42073-1.43483.83877-2.15625,1.25l3.1875,5.53125c.72183-.41162 1.44039-.8292 2.15625-1.25l-3.1875-5.53125zm-93.78125,25.125v6.375c.41803.00272.83133.03125 1.25.03125s.83197-.02853 1.25-.03125v-6.375c-.41725.0028-.83209.03125-1.25.03125s-.83275-.02845-1.25-.03125z"/>
<path d="m415.80403,468.54135c0,3.9837-3.22942,7.21312-7.21312,7.21312s-7.21312-3.22942-7.21312-7.21312 3.22943-7.21312 7.21312-7.21312 7.21312,3.22942 7.21312,7.21312z" fill="none" stroke="#000" stroke-linecap="round" stroke-linejoin="round" stroke-width=".0493" transform="matrix(25.35398,0,0,25.35398,-9950.8137,-11410.845)"/>
</g>
<path d="m415.80403,468.54135c0,3.9837-3.22942,7.21312-7.21312,7.21312s-7.21312-3.22942-7.21312-7.21312 3.22943-7.21312 7.21312-7.21312 7.21312,3.22942 7.21312,7.21312z" fill="none" stroke="#373c43" stroke-linecap="round" stroke-linejoin="round" stroke-width=".13561" transform="matrix(13.87677,0,0,13.87568,-5519.9237,-6351.333)"/>
<path d="m415.80403,468.54135c0,3.9837-3.22942,7.21312-7.21312,7.21312s-7.21312-3.22942-7.21312-7.21312 3.22943-7.21312 7.21312-7.21312 7.21312,3.22942 7.21312,7.21312z" fill="none" stroke="url(#linearGradient2659)" stroke-linecap="round" stroke-linejoin="round" stroke-width=".24612" transform="matrix(15.42067,0,0,15.41946,-6150.7469,-7074.6568)"/>
<path d="m149.99986,39.70215c-60.88374,0-110.29476,49.40715-110.29476,110.2861s49.41101,110.28608 110.29476,110.2861 110.29479-49.40713 110.29476-110.2861-49.41101-110.28611-110.29476-110.2861zm0,11.28968c54.66079,1e-005 99.02772,44.33993 99.02772,98.99642s-44.36694,99.01994-99.02772,99.01994-99.02771-44.36345-99.02771-99.01994 44.36694-98.99642 99.02771-98.99642z" fill="url(#linearGradient2661)"/>
<path d="m415.80403,468.54135c0,3.9837-3.22942,7.21312-7.21312,7.21312s-7.21312-3.22942-7.21312-7.21312 3.22943-7.21312 7.21312-7.21312 7.21312,3.22942 7.21312,7.21312z" fill="none" stroke="url(#linearGradient2663)" stroke-linecap="round" stroke-linejoin="round" stroke-width=".1028" transform="matrix(13.7282,0,0,13.72712,-5459.2195,-6281.7274)"/>
<path d="m149.99986,38.22037c-61.68286,0-111.77664,50.08986-111.77664,111.76788s50.09379,111.76785 111.77664,111.76787 111.77667-50.08984 111.77665-111.76787-50.09378-111.76788-111.77665-111.76788zm0,2.96354c60.08463-1e-005 108.81288,48.72442 108.81288,108.80433s-48.72825,108.80433-108.81288,108.80433-108.81287-48.72442-108.81287-108.80433 48.72824-108.80433 108.81287-108.80433z" fill="#1a2230"/>
<path d="m415.80403,468.54135c0,3.9837-3.22942,7.21312-7.21312,7.21312s-7.21312-3.22942-7.21312-7.21312 3.22943-7.21312 7.21312-7.21312 7.21312,3.22942 7.21312,7.21312z" fill="url(#linearGradient2665)" transform="matrix(1.27272,0,0,1.27262,-370.02285,-446.27737)"/>
<path d="m415.80403,468.54135c0,3.9837-3.22942,7.21312-7.21312,7.21312s-7.21312-3.22942-7.21312-7.21312 3.22943-7.21312 7.21312-7.21312 7.21312,3.22942 7.21312,7.21312z" fill="url(#linearGradient2667)" stroke="#373c43" stroke-linecap="round" stroke-linejoin="round" stroke-width=".57487" transform="matrix(.81834,0,0,.81828,-184.3692,-233.40044)"/>
<path d="m415.80403,468.54135c0,3.9837-3.22942,7.21312-7.21312,7.21312s-7.21312-3.22942-7.21312-7.21312 3.22943-7.21312 7.21312-7.21312 7.21312,3.22942 7.21312,7.21312z" fill="url(#linearGradient2669)" transform="matrix(.28614,0,0,.28612,33.08417,15.93918)"/>
<path d="m137.73374,32.76214 1.95225.31753v.62331h-5.15112v-.62331l1.74056-.31753 5.36281-7.12689-4.57485-6.77408-1.77584-.30577v-.62331h6.50358v.62331l-1.99929.30577 3.26943,4.86887 3.65753-4.86887-1.95225-.30577v-.62331h5.16288v.62331l-1.74056.30577-4.43373,5.9038 5.42162,7.99717 1.7876.31753v.62331h-6.50358v-.62331l1.99929-.31753-4.13971-6.11549-4.58662,6.11549m18.82864,0 2.02282.31753v.62331h-6.30366v-.62331l2.02282-.31753v-13.90097l-2.02282-.30577v-.62331h6.30366v.62331l-2.02282.30577v13.90097m8.04422,0 2.02281.31753v.62331h-6.30365v-.62331l2.02281-.31753v-13.90097l-2.02281-.30577v-.62331h6.30365v.62331l-2.02281.30577v13.90097" fill="#171c26" transform="scale(1.00004,.99996)"/>
<path d="m206.84932-62.33891 2.02281.31754v.62331h-6.30365v-.62331l2.02281-.31754v-13.90097l-2.02281-.30577v-.62331h6.30365v.62331l-2.02281.30577v13.90097" fill="#171c26" transform="matrix(.86606,.49998,-.50002,.86599,0,0)"/>
<path d="m202.87996-172.1826 2.02282.31753v.62331h-6.30366v-.62331l2.02282-.31753v-13.90097l-2.02282-.30578v-.62331h6.30366v.62331l-2.02282.30578v13.90097m8.04422,0 2.02281.31753v.62331h-6.30365v-.62331l2.02281-.31753v-13.90097l-2.02281-.30578v-.62331h6.30365v.62331l-2.02281.30578v13.90097" fill="#171c26" transform="matrix(.50002,.86599,-.86606,.49998,0,0)"/>
<path d="m143.98174-267.3365 2.02281.31753v.62331h-6.30365v-.62331l2.02281-.31753v-13.90097l-2.02281-.30578v-.62331h6.30365v.62331l-2.02281.30578v13.90097m8.04422,0 2.02281.31753v.62331h-6.30365v-.62331l2.02281-.31753v-13.90097l-2.02281-.30578v-.62331h6.30365v.62331l-2.02281.30578v13.90097m8.04421,0 2.02282.31753v.62331h-6.30366v-.62331l2.02282-.31753v-13.90097l-2.02282-.30578v-.62331h6.30366v.62331l-2.02282.30578v13.90097" fill="#171c26" transform="matrix(0,.99996,-1.00004,0,0,0)"/>
<path d="m48.22209-322.30409 2.02281.31753v.62331h-6.30365v-.62331l2.02281-.31753v-13.90097l-2.02281-.30578v-.62331h6.30365v.62331l-2.02281.30578v13.90097m20.01645-14.83006v.62331l-1.7288.30578-6.33894,15.20639h-.59979l-6.4095-15.20639-1.77584-.30578v-.62331h6.37422v.62331l-2.1169.30578 4.77478,11.60766 4.76302-11.60766-2.06986-.30578v-.62331h5.1276" fill="#171c26" transform="matrix(-.50002,.86599,-.86606,-.49998,0,0)"/>
<path d="m-45.62725-337.18691v.62331l-1.7288.30577-6.33894,15.20639h-.59979l-6.4095-15.20639-1.77584-.30577v-.62331h6.37422v.62331l-2.1169.30577 4.77478,11.60766 4.76302-11.60766-2.06986-.30577v-.62331h5.1276" fill="#171c26" transform="matrix(-.86606,.49998,-.50002,-.86599,0,0)"/>
<path d="m-144.80323-282.31084v.6233l-1.7288.30578-6.33894,15.20639h-.59978l-6.4095-15.20639-1.77585-.30578v-.6233h6.37422v.6233l-2.1169.30578 4.77478,11.60766 4.76303-11.60766-2.06986-.30578v-.6233h5.1276m5.43337,14.83005 2.02282.31753v.62331h-6.30366v-.62331l2.02282-.31753v-13.90097l-2.02282-.30578v-.6233h6.30366v.6233l-2.02282.30578v13.90097" fill="#171c26" transform="scale(-1.00004,-.99996)"/>
<path d="m-203.79296-187.20977v.62331l-1.7288.30577-6.33894,15.20639h-.59978l-6.4095-15.20639-1.77584-.30577v-.62331h6.37421v.62331l-2.1169.30577 4.77479,11.60767 4.76302-11.60767-2.06986-.30577v-.62331h5.1276m5.43338,14.83005 2.02281.31754v.62331h-6.30365v-.62331l2.02281-.31754v-13.90097l-2.02281-.30577v-.62331h6.30365v.62331l-2.02281.30577v13.90097m8.04421,0 2.02282.31754v.62331h-6.30366v-.62331l2.02282-.31754v-13.90097l-2.02282-.30577v-.62331h6.30366v.62331l-2.02282.30577v13.90097" fill="#171c26" transform="matrix(-.86606,-.49998,.50002,-.86599,0,0)"/>
<path d="m-207.86786-77.36605v.62331l-1.7288.30577-6.33894,15.20639h-.59979l-6.4095-15.20639-1.77584-.30577v-.62331h6.37422v.62331l-2.1169.30577 4.77478,11.60766 4.76303-11.60766-2.06986-.30577v-.62331h5.1276m5.43337,14.83005 2.02282.31754v.62331h-6.30366v-.62331l2.02282-.31754v-13.90097l-2.02282-.30577v-.62331h6.30366v.62331l-2.02282.30577v13.90097m8.04422,0 2.02281.31754v.62331h-6.30365v-.62331l2.02281-.31754v-13.90097l-2.02281-.30577v-.62331h6.30365v.62331l-2.02281.30577v13.90097m8.04421,0 2.02282.31754v.62331h-6.30366v-.62331l2.02282-.31754v-13.90097l-2.02282-.30577v-.62331h6.30366v.62331l-2.02282.30577v13.90097" fill="#171c26" transform="matrix(-.50002,-.86599,.86606,-.49998,0,0)"/>
<path d="m-156.91973,32.61787 2.02282.31753v.62331h-6.30366v-.62331l2.02282-.31753v-13.90097l-2.02282-.30577v-.62331h6.30366v.62331l-2.02282.30577v13.90097m6.62119,0 1.95225.31753v.62331h-5.15112v-.62331l1.74057-.31753 5.36281-7.12689-4.57486-6.77408-1.77584-.30577v-.62331h6.50358v.62331l-1.99929.30577 3.26943,4.86887 3.65753-4.86887-1.95225-.30577v-.62331h5.16288v.62331l-1.74056.30577-4.43372,5.9038 5.42161,7.99717 1.7876.31753v.62331h-6.50358v-.62331l1.99929-.31753-4.13971-6.11549-4.58662,6.11549" fill="#171c26" transform="matrix(0,-.99996,1.00004,0,0,0)"/>
<path d="m-59.2196,87.58545 1.95225.31753v.62331h-5.15112v-.62331l1.74056-.31753 5.36281-7.12689-4.57485-6.77408-1.77584-.30577v-.62331h6.50358v.62331l-1.99929.30577 3.26943,4.86887 3.65753-4.86887-1.95225-.30577v-.62331h5.16288v.62331l-1.74056.30577-4.43373,5.9038 5.42161,7.99717 1.7876.31753v.62331h-6.50358v-.62331l1.99929-.31753-4.13971-6.11549-4.58661,6.11549" fill="#171c26" transform="matrix(.50002,-.86599,.86606,.49998,0,0)"/>
<path d="m46.60198,87.63827 1.95225.31754v.62331h-5.15112v-.62331l1.74056-.31754 5.36281-7.12689-4.57485-6.77408-1.77584-.30577v-.62331h6.50358v.62331l-1.99929.30577 3.26943,4.86887 3.65753-4.86887-1.95225-.30577v-.62331h5.16288v.62331l-1.74056.30577-4.43373,5.9038 5.42161,7.99717 1.7876.31754v.62331h-6.50358v-.62331l1.99929-.31754-4.13971-6.11548-4.58661,6.11548m18.82864,0 2.02281.31754v.62331h-6.30365v-.62331l2.02282-.31754v-13.90097l-2.02282-.30577v-.62331h6.30365v.62331l-2.02281.30577v13.90097" fill="#171c26" transform="matrix(.86606,-.49998,.50002,.86599,0,0)"/>
</g>
<path d="m211.85727,188.64344c-6.44852-6.2952-16.79954-6.17067-23.09474.27786s-6.16282,16.7915.28571,23.08669c5.2572,5.1322 13.09874,6.00349 19.22735,2.65394 .40173,1.20323 1.12194,2.38331 2.15507,3.39189 .7714.75305 1.63168,1.32596 2.52452,1.72623-1.72773,2.46384-2.49036,4.51172-1.76533,5.21949 .77237.75401 3.02488-.21497 5.65597-2.25385-.89626,3.89301.25891,8.23227 3.41888,11.31712 1.32817,1.2966 2.86457,2.23677 4.49292,2.81534-1.43014,1.5777-2.69833,4.14372-2.2039,5.76525 1.92168,3.10298 10.05723-.98095 9.84539,1.09768 2.16124,5.07509 5.47795,9.89798 13.73987,5.04088l.56802-.35656c-3.04369,3.45371-4.74667,6.61304-3.90063,7.43895 .65617.64059 2.6883-.28675 5.14008-2.19202-.96167,4.96984.83269,10.29862 5.09194,13.6259 3.7409,2.92234 8.51039,3.62292 12.72133,2.30299 4.83371-.88526 10.18785.30837 14.57463,3.73532 7.74241,6.04826 9.52893,16.72131 3.9826,23.82112 1.32575,1.46328 3.29819.42578 5.22859-2.10565 .7649-.97914 1.38804-2.03705 1.87788-3.13041l13.10987,12.79816-6.10073,6.24931c4.60591-1.42286 9.67986-.94473 13.98276,1.44531l19.3994,18.93816 2.78735-2.85523-19.40745-18.946c-2.48799-4.24213-3.08383-9.30089-1.77326-13.93609l-6.10073,6.24931-14.67019-14.32139c.73417-5.84863-1.76553-12.16738-7.07165-16.31248-1.2231-.95548-2.52486-1.73308-3.86729-2.34596s-2.72903-1.06553-4.12545-1.34131-2.80754-.37876-4.1927-.32313c.39521-2.95284 2.49936-6.05544 1.8556-8.28866-4.75393,5.84224-12.83552,7.20852-18.1813,3.03248-3.91019-3.05461-5.28984-8.24526-3.98162-13.17032 3.04896-3.45849 4.75502-6.63625 3.90827-7.46287-.83563-.81576-3.89373.9192-7.22499,3.9737 1.75033-3.26263-.15057-6.84583-3.16899-9.70664-2.19568-2.38845-4.18334-3.33107-6.16201-3.47084 1.74297-2.45565 2.5314-4.48736 1.82948-5.17259-.57135-.55777-2.00848-.10174-3.82637,1.05548l-.78437-.45158c-.69187-2.48552-2.07576-4.56877-5.13922-5.66098-.59275-1.76578-1.38675-3.15568-2.46626-4.15122-1.38788-1.27999-3.25349-1.90288-5.7689-1.84614l-.46705-.5031c1.584-2.33163 2.25807-4.25154 1.56215-4.93091-.72463-.70739-2.75327.10342-5.17552,1.89041-.4216-.88252-1.01545-1.72958-1.78646-2.48227-1.03419-1.00958-2.23547-1.69378-3.4506-2.06479 3.20306-6.20939 2.14928-14.03377-3.10792-19.16598zm-6.94086,7.10991c2.52614,2.46603 2.57487,6.51786.10882,9.04398s-6.51786,2.57487-9.04398.1088-2.57488-6.51787-.10883-9.04397 6.51787-2.57488 9.04399-.10881zm20.50963,24.01178c.99326.94328.27447,4.01023 3.27993,5.71519 2.88876,1.63874 6.75363,2.87684 6.39622,5.09744-.61294.54696-1.23579,1.13716-1.85453,1.77098-.42296.43326-.8198.86297-1.20053,1.29414-2.64931,1.07753-6.92955,1.29332-9.81875-1.52719-3.76851-3.6789-2.65315-12.09768 2.16913-12.61638 .47704-.0513.79935.0481 1.02853.26582zm17.75233,17.47166c3.1052,2.94283 4.84901,7.1476.0487,9.99053-5.48745,2.15723-7.38178-3.55839-9.14921-5.33456-2.35516-2.4276-6.13731.29544-6.28502-3.05616-.14923-3.38649 8.64829-4.2461 10.91496-3.85225s3.104.95728 4.47058,2.25244z" fill="#040404" id="minuteHand" stroke="#040404" stroke-linecap="round" stroke-linejoin="round" stroke-width="1.91902"/>
<path d="m175.51553,121.29238c-.00084.13451.007.26999.0255.40774 .28523,2.17837 2.61669,2.57489 4.61213,3.73301 .21699,7.54683 4.97291,11.38799 7.88648,16.72851-.84188,3.9301-6.32892,7.06954-5.03256,9.12233 2.21287,2.68724 3.09219-2.26148 7.89923-.16563 1.69625.99388 2.31538,2.23187 2.94309,3.49096-1.31203,3.05656-2.10223,7.05251-2.10223,11.42838 0,4.95656 1.02691,9.42945 2.66282,12.60054-9.05976,2.45611-15.73476,10.73063-15.73475,20.56346 0,11.76465 9.55051,21.30241 21.31517,21.30241s21.30242-9.53776 21.30242-21.30241c0-9.63822-6.40388-17.79123-15.1869-20.42332 1.67911-3.17875 2.73926-7.70972 2.73926-12.74068 0-4.60494-.882-8.7886-2.31882-11.8998 .56386-1.09312 1.2307-2.15056 2.71376-3.01954 4.80705-2.09585 5.68635,2.85288 7.89923.16563 1.29636-2.05279-4.19069-5.19221-5.03257-9.12232 2.91357-5.34053 7.66949-9.18171 7.88651-16.72851 1.99542-1.15813 4.32688-1.55465 4.6121-3.73303 .018-.13774.0263-.27326.0255-.40773-.0126-2.01542-2.06454-3.59437-3.46546-3.09595 .18882-1.91815-1.61614-3.50069-2.98134-5.16-3.07808-3.05854-4.26533-2.71378-6.09003-3.51643v-10.51104l1.12118-1.12119c.29429-.765.25423-1.6999 0-2.73925 1.29568-.9724 1.25269-2.17012.91733-3.41452 .3148-1.6301-1.19912-2.20904-2.76473-2.7647-1.7447.08795-3.49174-.0063-5.23642,1.40147-1.86073.22148-2.66649-.34568-3.45273-.93008v-10.56201c1.37096-2.89569 2.31576-5.79343 2.31881-8.68914h-2.90488v-25.74894h-4.21716l-1e-005,25.74894h-2.72649c.003,2.8957.94785,5.79345 2.3188,8.68915v10.562c-.78624.5844-1.592,1.15155-3.45272.93009-1.7447-1.40783-3.49174-1.31354-5.23643-1.40147-1.56561.55565-3.07953,1.13467-2.76472,2.76469-.33536,1.2444-.37835,2.44211.91733,3.41453-.25422,1.0393-.29429,1.97424-1e-005,2.73925l1.12119,1.12118v10.51105c-1.8247.80255-3.01195.4578-6.09004,3.51642-1.36519,1.6593-3.17016,3.24185-2.98133,5.16-1.40091-.49842-3.45282,1.08046-3.46546,3.09595zm8.09033,3.09601c-.009-.94172.093-1.92083.31851-2.93035 1.80855-8.09744 12.14285-8.58737 14.002-1.33779l1e-005,16.3718c-1.50782,3.65029-2.25786,11.49059-4.73952,9.78483-.61701-.56562-1.31262-.61468-1.13393-6.485-3.12171-3.84186-8.38744-8.81141-8.44707-15.40349zm8.59996-14.12939v-10.32c3.1385-1.09858 5.71042-2.95118 7.87374-4.77773 2.16234,1.82528 4.72476,3.67996 7.861,4.77773v10.32c-2.83958.81028-5.93126,1.88705-7.861,3.6056-1.92948-1.7205-5.0323-2.7948-7.87374-3.6056zm.26755,88.94268c0-4.14888 3.36812-7.517 7.51701-7.517s7.517,3.36812 7.517,7.517-3.36813,7.50425-7.517,7.50425-7.51701-3.35536-7.51701-7.50425zm2.98132-31.82623c0-6.42225 2.08007-11.63224 4.6376-11.63224s4.62487,5.20999 4.62488,11.63225c0,4.71942-1.1196,8.7856-2.72652,10.61298-.65875-.0615-1.32548-.10192-2.00027-.10192-.61001,0-1.21213.0388-1.80918.0892-1.60643-1.83161-2.72651-5.88836-2.72651-10.60024zm6.76529-30.88341 2e-005-16.37179c1.85917-7.24956 12.19345-6.75965 14.002,1.33781 .22548,1.0095.32703,1.98861.31852,2.93034-.0596,6.59208-5.32536,11.56162-8.44707,15.40348 .17871,5.87033-.51693,5.91938-1.13393,6.48501-2.48167,1.70575-3.23168-6.13455-4.73954-9.78485z" fill="#040404" id="hourHand"/>
</g>
</svg>
