<?xml version="1.0" encoding="UTF-8"?>
<svg viewBox="0 0 100 100" xmlns="http://www.w3.org/2000/svg">
 <path transform="matrix(1.0496 0 0 1.0496 -2.0927 -.93294)" d="m96.317 48.527c0 25.77-20.915 46.685-46.685 46.685s-46.685-20.915-46.685-46.685 20.915-46.685 46.685-46.685 46.685 20.915 46.685 46.685z" fill="#f2f2f2" stroke="#000" stroke-linecap="round" stroke-linejoin="round" stroke-width="1.9055"/>
 <path transform="matrix(1.2276 0 0 1.2633 -11.06 -17.096)" d="m86.399 50.648c0 19.663-16.423 35.622-36.658 35.622s-36.658-15.959-36.658-35.622 16.423-35.622 36.658-35.622 36.658 15.959 36.658 35.622z" fill="#f9f9f9"/>
 <path d="m50.5 49.5 42.004-24.345" fill="none" stroke="#000"/>
 <path d="m49.5 49.5-42.37-23.979" fill="none" stroke="#000"/>
 <path d="m49.5 50.5-42.187 24.345" fill="none" stroke="#000"/>
 <path d="m50.5 50.5 41.638 23.612" fill="none" stroke="#000"/>
 <path d="m74.662 92.138-24.162-41.638" fill="none" stroke="#000"/>
 <path d="m25.521 92.687 23.979-42.187" fill="none" stroke="#000"/>
 <path d="m0.45432 50h99.153" fill="none" stroke="#000"/>
 <path d="m50 0.39255v99.164" fill="none" stroke="#000"/>
 <path d="m5.1562 46.156c-0.10772 1.2693-0.15625 2.5467-0.15625 3.8438 0 24.84 20.16 45 45 45s45-20.16 45-45c0-1.297-0.04852-2.5744-0.15625-3.8438-1.9554 23.04-21.301 41.156-44.844 41.156s-42.888-18.117-44.844-41.156z" fill="#f2f2f2"/>
 <path d="m74.845 8.0455-24.345 41.455" fill="none" stroke="#000"/>
 <path d="m25.338 7.1296 24.162 42.37" fill="none" stroke="#000"/>
 <path transform="matrix(1.2276 0 0 1.2633 -11.06 -13.982)" d="m86.399 50.648c0 19.663-16.423 35.622-36.658 35.622s-36.658-15.959-36.658-35.622 16.423-35.622 36.658-35.622 36.658 15.959 36.658 35.622z" fill="#f9f9f9"/>
 <path transform="matrix(1.0496 0 0 1.0496 -2.0927 -.93294)" d="m96.317 48.527c0 25.77-20.915 46.685-46.685 46.685s-46.685-20.915-46.685-46.685 20.915-46.685 46.685-46.685 46.685 20.915 46.685 46.685z" fill="none" stroke="#000" stroke-linecap="round" stroke-linejoin="round" stroke-width="1.9055"/>
 <path d="m19.0176,72.35307c-.29493.49414-.61866.896-.97119,1.20557s-.72901.55078-1.12939.72363-.87696.33057-1.42969.47314c-.5586.14258-1.07422.21387-1.54688.21387-.76953,0-1.36133-.19141-1.77539-.57422-.43164-.38281-.64746-.85937-.64746-1.42969 0-.53125.19922-1.08301.59766-1.65527 .20312-.30078.49121-.60449.86426-.91113-.25586-.12109-.44336-.32519-.5625-.61231-.15235-.36913-.22852-.7373-.22852-1.10449 0-.45117.11621-.85937.34863-1.22461 .36133-.57421.73682-1.00195 1.12647-1.2832s.92236-.52538 1.59814-.73242c.28515-.08788.56445-.13183.83789-.13184 .32421,1e-005 .62841.05909.9126.17725s.52343.29298.71777.52441 .32763.51319.3999.84521c-1e-005,.35938-.06397.74122-.19189,1.14551s-.31202.77051-.55225,1.09863c.67187.10938 1.13964.38965 1.40332.84082 .34374.57032.51562,1.05469.51563,1.45313-1e-005,.32227-.09571.6416-.28711.95801zm-1.87207-5.21777c-.29297-.33593-.68165-.5039-1.16602-.50391-.35743,1e-005-.72364.08643-1.09863.25928-.375.17286-.68848.37843-.94043.6167-.02735.05274-.11817.16749-.27246.34424s-.27735.34278-.36914.49805-.1377.32569-.1377.51123c.08789.30469.37597.45704.86426.45703 .04883,1e-005 .21679-.01171.50391-.03516 .77148-.06835 1.3789-.32421 1.82227-.76758 .26367-.26367.46191-.48974.59473-.67822s.19921-.42236.19922-.70166zm.82617,3.58594c-.0879-.19336-.20655-.32373-.35596-.39111s-.3462-.10107-.59033-.10107c-.13477,0-.33887.00879-.6123.02637-.33985.01563-.77735.10938-1.3125.28125s-1.02783.40088-1.47803.68701-.73584.59912-.85693.93897c-.04102.16797-.06152.29981-.06152.39551 0,.16992.03711.31299.11133.4292s.17139.20703.2915.27246 .25781.11816.41309.1582l.39697.10107c.16015.01563.32422.02344.49219.02344 .48437,0 .97461-.06641 1.4707-.19922s.91406-.36621 1.25391-.70019c.24413-.24414.44872-.51904.61377-.82471s.24755-.59131.24756-.85693c-1e-005-.11132-.00782-.1914-.02344-.24023z"/>
 <path d="m47.21931,5.9224c.03125.24415.04687.4961.04688.75586 0,.21876-.01709.54249-.05127.97119s-.05713.81299-.06885,1.15283c-.00977.23829-.03272.58936-.06885,1.05322s-.05957.78125-.07031.95215-.01612.39405-.01611.66943c0,.03907.00195.10157.00586.1875s.00586.15137.00586.19629c.01562.74805.04394,1.56836.08496,2.46094-.01758.20117-.06299.3374-.13623.40869s-.21241.10693-.41748.10693l-.25049-.02783c-.08496-.01074-.16113-.03271-.22852-.06592s-.12402-.08691-.16992-.16113-.07764-.18066-.09521-.31934c.00586-.56641.01367-1.28271.02344-2.14893s.02246-2.12255.03809-3.76904v-1.11621c-.25196.11329-.43653.16993-.55371.16992-.11133,1e-005-.20752-.0332-.28857-.09961s-.18408-.18163-.30908-.3457c-.12109-.16796-.18164-.3037-.18164-.40723s.04395-.18407.13184-.24756 .24463-.14306.47021-.23877 .41113-.18163.55664-.25781 .28369-.18065.41455-.31348c.11328-.11132.24121-.16698.38379-.16699 .17383,1e-005 .33691.06544.48926.19629s.2373.26563.25488.4043zm7.88965,1.79883c-.06641.45313-.18067.84766-.34277,1.18359s-.36475.62793-.60791.87598-.49659.4629-.76025.64453-.65333.43262-1.16895.75293c-.33399.20899-.64014.41602-.91846.62109s-.52344.41748-.73535.63721-.38526.45264-.52002.69873c.43164-.22656.98242-.39941 1.65234-.51855s1.31542-.17871 1.93652-.17871c.53906,0 .91113.04004 1.11621.12012 .11523.03711.23583.15576.36182.35596s.18896.39307.18897.57861c-1e-005,.32031-.21583.48047-.64746.48047-.14454,0-.25684-.00781-.33691-.02344-.2793-.03906-.57129-.05859-.87598-.05859-.52735,0-1.12305.05566-1.78711.16699-.19922.03516-.396.0918-.59033.16992s-.42334.18066-.68701.30762-.46826.21924-.61377.27685-.2749.08643-.38818.08643c-.07617,0-.14063-.0166-.19336-.0498-.19922-.11133-.42139-.33252-.6665-.66357s-.37842-.62158-.3999-.87158c.06836-.33594.33008-.74072.78516-1.21435s.95263-.92187 1.49267-1.34473 .94873-.72216 1.22608-.89795c1.54492-.98242 2.38476-1.71777 2.51953-2.20605 .01562-.0664.02343-.11425.02344-.14355-1e-005-.12109-.0459-.21874-.1377-.29297s-.20655-.12792-.34424-.16113-.28321-.05614-.43652-.06885l-.35303-.03076c-.16016-.01562-.28418-.02343-.37207-.02344-.35157,1e-005-.7212.05421-1.10889.1626s-.78516.28663-1.19238.53467-.8042.5713-1.19092.96973c-.0918.04102-.17188.06153-.24023.06152-.16016,1e-005-.29395-.07177-.40137-.21533s-.16113-.27587-.16113-.39697c0-.33202.04639-.59521.13916-.78955s.25439-.36767.48486-.52002c.43555-.28905.85351-.52294 1.25391-.70166s.79687-.3081 1.18945-.38818 .79394-.12011 1.2041-.12012c.37304,1e-005 .79296.03224 1.25977.09668 .32421.07813.62939.31544.91553.71191s.42919.85841.4292,1.38574z"/>
 <path d="m29.37177,11.3224c.03125.24415.04687.4961.04688.75586 0,.21876-.01709.54249-.05127.97119s-.05713.81299-.06885,1.15283c-.00977.23829-.03272.58936-.06885,1.05322s-.05957.78125-.07031.95215-.01612.39405-.01611.66943c0,.03906.00195.10156.00586.1875s.00586.15137.00586.19629c.01562.74805.04394,1.56836.08496,2.46094-.01758.20117-.06299.3374-.13623.40869s-.21241.10693-.41748.10693l-.25049-.02783c-.08496-.01074-.16114-.03271-.22852-.06592s-.12402-.08691-.16992-.16113-.07764-.18066-.09521-.31934c.00586-.5664.01367-1.28271.02344-2.14892s.02246-2.12255.03809-3.76904v-1.11621c-.25195.11329-.43652.16993-.55371.16992-.11133,1e-005-.20752-.0332-.28857-.09961s-.18408-.18163-.30908-.3457c-.1211-.16796-.18164-.3037-.18164-.40723s.04395-.18407.13184-.24756 .24463-.14306.47021-.23877 .41113-.18163.55664-.25781 .28369-.18065.41455-.31348c.11328-.11132.24121-.16698.38379-.16699 .17383,1e-005 .33691.06544.48926.19629s.2373.26563.25488.4043zm3.77344,0c.03125.24415.04687.4961.04688.75586 0,.21876-.01709.54249-.05127.97119s-.05713.81299-.06885,1.15283c-.00977.23829-.03272.58936-.06885,1.05322s-.05957.78125-.07031.95215-.01612.39405-.01611.66943c0,.03906.00195.10156.00586.1875s.00586.15137.00586.19629c.01562.74805.04394,1.56836.08496,2.46094-.01758.20117-.06299.3374-.13623.40869s-.2124.10693-.41748.10693l-.25049-.02783c-.08496-.01074-.16113-.03271-.22851-.06592s-.12403-.08691-.16992-.16113-.07764-.18066-.09521-.31934c.00586-.5664.01367-1.28271.02344-2.14892s.02246-2.12255.03809-3.76904v-1.11621c-.25195.11329-.43652.16993-.55371.16992-.11133,1e-005-.20752-.0332-.28857-.09961s-.18408-.18163-.30908-.3457c-.12109-.16796-.18164-.3037-.18164-.40723s.04394-.18407.13184-.24756 .24463-.14306.47021-.23877 .41113-.18163.55664-.25781 .28369-.18065.41455-.31348c.11328-.11132.24121-.16698.38379-.16699 .17383,1e-005 .33691.06544.48926.19629s.2373.26563.25488.4043z"/>
 <path d="m12.20713,25.9224c.03125.24415.04687.4961.04688.75586 0,.21876-.01709.54249-.05127.97119s-.05713.813-.06885,1.15283c-.00977.23829-.03272.58936-.06885,1.05322s-.05957.78125-.07031.95215-.01612.39405-.01611.66943c0,.03907.00195.10157.00586.1875s.00586.15137.00586.19629c.01562.74805.04394,1.56836.08496,2.46094-.01758.20117-.06299.3374-.13623.40869s-.21241.10693-.41748.10693l-.25049-.02783c-.08496-.01074-.16113-.03271-.22851-.06592s-.12403-.08691-.16992-.16113-.07764-.18066-.09521-.31934c.00586-.56641.01367-1.28271.02344-2.14893s.02246-2.12255.03809-3.76904v-1.11621c-.25195.11329-.43652.16993-.55371.16992-.11133,1e-005-.20752-.0332-.28857-.09961s-.18408-.18163-.30908-.3457c-.12109-.16796-.18164-.3037-.18164-.40723s.04394-.18407.13184-.24756 .24463-.14306.47021-.23877 .41113-.18163.55664-.25781 .28369-.18066.41455-.31348c.11328-.11132.24121-.16698.38379-.16699 .17383,1e-005 .33691.06544.48926.19629s.2373.26563.25488.4043zm9.01758,4.66699c-.24415.58203-.50294,1.07618-.77637,1.48242s-.56055.74317-.86133,1.01074-.61622.48926-.94629.66504-.7168.34766-1.16016.51563c-.60938.22266-1.16114.33398-1.65527.33398-.80664,0-1.43066-.28809-1.87207-.86426-.46484-.61914-.69727-1.35058-.69727-2.19434 0-.82226.21191-1.67089.63574-2.5459 .25586-.52538.58252-1.0249.97998-1.49854s.83593-.87353 1.31543-1.19971 .97021-.5498 1.47217-.6709c.35546-.08983.69921-.13476 1.03125-.13477 .51953,1e-005 .98095.1128 1.38428.33838s.71044.58936.92139,1.09131c.35155.84962.52734,1.58106.52734,2.19434-1e-005,.50391-.09962.9961-.29883,1.47656zm-.78223-2.62793c-.18555-.67968-.80079-1.01952-1.8457-1.01953-.1836,1e-005-.41993.01563-.70898.04688-.29883.02735-.6294.11768-.9917.271s-.7168.36671-1.06348.64014-.65039.60889-.91113,1.00635-.43994.84229-.5376,1.33447c-.03125.15039-.04688.31934-.04688.50684 0,.3418.06201.66651.18604.97412s.28418.56641.48047.77637 .40185.35401.6167.43213c.16015.03906.35644.0586.58887.05859 .56054,0 1.14013-.13086 1.73877-.39258s1.09912-.70605 1.50146-1.33301c.69531-1.07617 1.04296-2.01269 1.04297-2.80957-1e-005-.11327-.01661-.27734-.0498-.49219z"/>
 <path d="m13.26207,47.2056c.19921.55079.29882,1.15528.29883,1.81348-1e-005,1.31446-.39161,2.54981-1.1748,3.70605-.44337.66016-.98292,1.15625-1.61865,1.48828s-1.26416.5166-1.88525.55371l-.1377.00586c-.0586.00391-.10059.00586-.12598.00586-1.00977,0-1.51465-.40039-1.51465-1.20117 .00586-.11328.05078-.23877.13477-.37646s.18701-.25537.30908-.35303 .23877-.14648.3501-.14648c.16797,0 .29199.12012.37207.36035 .22656.17578.4707.26367.73242.26367 .05859,0 .21777-.01953.47754-.05859 .48828-.20117.8833-.39892 1.18506-.59326s.55029-.41601.7456-.66504 .36132-.54443.49805-.88623 .27148-.77539.4043-1.30078c-.22852.33985-.49952.62208-.81299.84668s-.64454.40235-.99316.5332-.72608.24317-1.13232.33691c-.29102.05664-.53516.08496-.73242.08496-.42578,0-.8086-.0874-1.14844-.26221s-.58496-.44775-.73535-.81885c-.17578-.42187-.26367-.8457-.26367-1.27148 0-.51757.13184-.97753.39551-1.37988 .42969-.68554.86084-1.20409 1.29346-1.55566s1.01709-.64159 1.75342-.87012c.25781-.08007.52636-.12011.80566-.12012 .36132,1e-005 .71142.07618 1.05029.22852s.63574.36964.89063.65186 .44775.60889.57861.97998zm-1.08106.25195c-.38087-.43945-.86524-.65917-1.45313-.65918-.27539,1e-005-.56055.0503-.85547.15088s-.56983.23145-.82471.39258-.48194.34034-.68115.5376c-.01758.03126-.10987.14844-.27686.35156s-.30078.40723-.40137.6123-.15088.42774-.15088.66797c.11719.42383.50097.63575 1.15137.63574 .11328,0 .25781-.00781.43359-.02344 .36328-.04101.75341-.1372 1.17041-.28857s.79052-.39209 1.1206-.72217c.24609-.24609.43554-.49169.56836-.73682s.19921-.55126.19922-.91846z"/>
 <path d="m53.03816,89.66654c.17577.42774.26366.85157.26367,1.27148-1e-005,.51368-.13184.97364-.39551,1.37988-.28126.44922-.56446.81885-.84961,1.10889s-.60596.53223-.9624.72656-.78858.37061-1.29639.52881c-.32227.10352-.65039.15527-.98438.15527-.5,0-.93848-.13574-1.31543-.40723s-.6582-.66797-.84375-1.18945c-.17578-.51562-.26367-1.03906-.26367-1.57031 0-1.22851.41992-2.46484 1.25977-3.70898 .32812-.48632.67529-.91454 1.0415-1.28467s.73925-.66357 1.11914-.88037 .74755-.33495 1.10303-.35449l.1377-.00586c.05664-.0039.09863-.00585.12598-.00586 1.00781,1e-005 1.51171.4004 1.51172,1.20117-.00587.17384-.09669.36329-.27246.56836s-.34864.30763-.51855.30762-.292-.12011-.37207-.36035c-.17774-.13671-.36622-.20507-.56543-.20508-.0918,1e-005-.21387.01856-.36621.05566s-.2461.0586-.28125.06445c-.64454.35157-1.15137.71827-1.52051,1.1001s-.6416.76807-.81738,1.15869-.33985.86621-.49219,1.42676c.23242-.34765.51855-.65918.8584-.93457s.70019-.5039 1.08105-.68555 .7539-.31445 1.11914-.39844c.28124-.06249.54492-.09374.79102-.09375 .85546,1e-005 1.42382.34376 1.70508,1.03125zm-.7793,1.03125c-.11719-.42382-.50098-.63574-1.15137-.63574-.11329,0-.25782.00782-.43359.02344-.29102.0293-.66016.16163-1.10742.39697s-.85157.57569-1.21289,1.021-.56738.98047-.61816,1.60547c.26758.24805.59472.37207.98145.37207 .3457,0 .71386-.08838 1.10449-.26514s.76122-.39453 1.11182-.65332 .65576-.51611.91553-.77197c.03124-.05273.09033-.12597.17725-.21973s.15136-.18115.19336-.26221 .06298-.19287.06299-.33545c-1e-005-.11133-.00782-.20312-.02344-.27539z"/>
 <path d="m93.72078,50.7476c.12109.19727.18163.44922.18164.75586-.00587.39844-.12257.79688-.3501,1.19531s-.54249.71582-.94482.95215c-.44923.26563-.84473.47901-1.18652.64014s-.71973.29834-1.13379.41162-.88868.20215-1.42383.2666c-.20899.02539-.39746.03809-.56543.03809-.52344,0-.88379-.15625-1.08105-.46875s-.29883-.56445-.29883-.76758c0-.20898.1123-.31347.33691-.31348l.19043.02344c.58008,0 1.19238-.05908 1.83691-.17725s1.2246-.28662 1.74023-.50537c.66992-.28711 1.21777-.61914 1.64356-.99609 .16015-.14843.24023-.29199.24023-.43066-1e-005-.15429-.09864-.27929-.2959-.375s-.49512-.14355-.89355-.14355l-.13184.00586c-.06446.00391-.11622.00586-.15527.00586-.60352.03711-1.00391.06495-1.20117.0835s-.4209.05469-.6709.1084-.59375.14209-1.03125.26514c-.25,0-.43848-.07568-.56543-.22705s-.19043-.33545-.19043-.55225c0-.37109.13574-.62695.40723-.76758 .26367-.06249.55713-.12646.88037-.19189s.54394-.11621.66211-.15234l.71338-.26807c.26953-.10742.58789-.27538.95508-.50391s.68163-.4663.94336-.71338 .39257-.45751.39258-.63135c-1e-005-.06249-.01563-.11425-.04688-.15527-.0586-.08007-.20606-.14794-.44238-.20361s-.52442-.08349-.86426-.0835c-.64063,1e-005-1.32666.10303-2.05811.30908s-1.41748.53468-2.05811.98584c-.10547.07227-.22168.1084-.34863.1084-.2793,1e-005-.43945-.17577-.48047-.52734 0-.37499.07129-.64697.21387-.81592s.34766-.30907.61523-.42041l.55225-.28125c.33886-.17382.64795-.30907.92725-.40576s.60937-.17235.99023-.22705c.57812-.08007 1.04687-.12011 1.40625-.12012 .60742,1e-005 1.13085.09669 1.57031.29004 .31249.13477.55663.34571.73242.63281s.26366.59962.26367.9375c-1e-005,.36134-.09962.68946-.29883.98438-.14259.20508-.2876.38624-.43506.54346s-.30518.31055-.47314.45996-.33301.29542-.49512.43799l.54785.07764c.17773.02637.3247.06446.44092.11426s.23437.13575.35449.25781 .24755.3003.38232.53467z"/>
 <path d="m71.08174,11.3224c.03125.24415.04687.4961.04688.75586 0,.21876-.01709.54249-.05127.97119s-.05713.81299-.06885,1.15283c-.00977.23829-.03272.58936-.06885,1.05322s-.05957.78125-.07031.95215-.01612.39405-.01611.66943c0,.03906.00195.10156.00586.1875s.00586.15137.00586.19629c.01562.74805.04394,1.56836.08496,2.46094-.01758.20117-.06299.3374-.13623.40869s-.21241.10693-.41748.10693l-.25049-.02783c-.08496-.01074-.16114-.03271-.22852-.06592s-.12403-.08691-.16992-.16113-.07764-.18066-.09521-.31934c.00586-.5664.01367-1.28271.02344-2.14892s.02246-2.12255.03809-3.76904v-1.11621c-.25195.11329-.43652.16993-.55371.16992-.11133,1e-005-.20752-.0332-.28857-.09961s-.18408-.18163-.30908-.3457c-.12109-.16796-.18164-.3037-.18164-.40723s.04395-.18407.13184-.24756 .24463-.14306.47021-.23877 .41113-.18163.55664-.25781 .28369-.18065.41455-.31348c.11328-.11132.24121-.16698.38379-.16699 .17382,1e-005 .33691.06544.48926.19629s.2373.26563.25488.4043z"/>
 <path d="m73.14655,85.15424c.05663.1875.08495.3916.08496.61231-1e-005,.4043-.09278.81055-.27832,1.21875s-.41309.73828-.68262.99023c-.48047.44336-1.01612.77783-1.60693,1.00342s-1.1958.33838-1.81494.33838c-.72266,0-1.40625-.15137-2.05078-.4541-.27148-.2168-.40723-.50097-.40723-.85254 0-.26172.07227-.53418.2168-.81738 .07617-.14258.14746-.21386.21387-.21387 .04883,0 .09619.0293.14209.08789s.104.14356.17432.25488 .13623.19776.19775.25928 .13037.09619.20654.104c.36523.20117.7373.30176 1.11621.30176s.83105-.10449 1.36816-.31348c.57421-.22656 1.06494-.52197 1.47217-.88623s.63622-.73681.68701-1.11768c-.00587-.20703-.08643-.33691-.2417-.38965s-.42237-.09082-.80127-.11426c-.1211-.00781-.29297-.01171-.51563-.01172-.56641,0-1.04981.06348-1.4502.19043s-.95703.35938-1.66992.69727c-.19922,0-.43604-.1455-.71045-.43652s-.44189-.5459-.50244-.76465c0-.27539.06689-.72363.20068-1.34473s.29004-1.19775.46875-1.72998 .32764-.83446.44678-.90674c.1582-.08983.34277-.15575.55371-.19775s.51318-.08007.90674-.11426 .64697-.0581.76025-.07178c.15625-.01757.42675-.05273.81152-.10547s.6914-.09032.91992-.11279 .45898-.03368.69141-.03369c.3496,1e-005 .65722.03126.92285.09375 .19335.04493.29003.19727.29004.45703-1e-005,.29493-.0918.59864-.27539.91113-.09571.16016-.17188.24024-.22852.24023-.0254,1e-005-.0752-.02734-.14941-.08203s-.15919-.10351-.25488-.14648-.2168-.0703-.36328-.08203c-.45508,1e-005-1.04395.03907-1.7666.11719s-1.33008.167-1.82227.2666c-.14063.22462-.27149.49317-.39258.80566s-.22022.62354-.29736.93311-.11572.54542-.11572.70752c.41601-.24804.95703-.43798 1.62305-.56982s1.22168-.19775 1.66699-.19775c.66601.01758 1.16796.12989 1.50586.33691s.58788.58692.75,1.13965z"/>
 <path d="m32.65226,80.27045c.30273.36134.45409.64942.4541.86426-1e-005,.09766-.02344.1963-.07031.2959s-.13282.24659-.25781.44092c-.12501.19434-.21973.34425-.28418.44971-.26173.43555-.5337.95508-.81592,1.55859s-.54151,1.18848-.77783,1.75488c-.20118.47657-.3667.93213-.49658,1.3667s-.22412.79297-.28271,1.0752-.09961.48389-.12305.60498c-.06836.26953-.18701.479-.35596.62842s-.3501.22412-.54346.22412c-.07813,0-.1543-.01172-.22852-.03516-.27149-.10156-.40723-.23828-.40723-.41016 0-.12695.08398-.3584.25195-.69434 .24023-.69531.47754-1.34424.71191-1.94678s.45996-1.14404.67676-1.62451 .44873-.96337.6958-1.44873 .54443-1.04443.89209-1.67725c-.22266-.01562-.41114-.02343-.56543-.02344-1.13086,1e-005-2.2461.16016-3.3457.48047-.04102.01173-.08154.05616-.12158.1333s-.07861.1377-.11572.18164-.10645.07471-.20801.09229c-.22266-.05468-.4126-.20556-.56982-.45264s-.24268-.46435-.25635-.65186c0-.3789.11524-.59862.3457-.65918 1.27734-.36523 2.26953-.56151 2.97656-.58887l1.03857-.04834 .94189-.03369c.43359,1e-005 .71386.04786.84082.14356z"/>
 <path d="m87.98448,27.72123c-.06641.45313-.18067.84766-.34277,1.18359s-.36475.62794-.60791.87598-.49659.46289-.76025.64453-.65332.43262-1.16895.75293c-.33399.20899-.64014.41602-.91846.62109s-.52344.41748-.73535.63721-.38526.45264-.52002.69873c.43164-.22656.98242-.39941 1.65234-.51855s1.31542-.17871 1.93652-.17871c.53906,0 .91113.04004 1.11621.12012 .11523.03711.23583.15576.36182.35596s.18896.39307.18896.57861c-1e-005,.32031-.21583.48047-.64746.48047-.14454,0-.25684-.00781-.33691-.02344-.2793-.03906-.57129-.05859-.87598-.05859-.52735,0-1.12305.05566-1.78711.16699-.19922.03516-.396.0918-.59033.16992s-.42334.18066-.68701.30762-.46826.21924-.61377.27686-.2749.08643-.38818.08643c-.07617,0-.14063-.0166-.19336-.0498-.19922-.11133-.42139-.33252-.6665-.66357s-.37842-.62158-.3999-.87158c.06836-.33594.33008-.74072.78516-1.21435s.95264-.92187 1.49268-1.34473 .94873-.72216 1.22607-.89795c1.54492-.98242 2.38476-1.71777 2.51953-2.20605 .01562-.0664.02343-.11425.02344-.14355-1e-005-.12109-.04591-.21874-.1377-.29297s-.20655-.12792-.34424-.16113-.28321-.05615-.43652-.06885l-.35303-.03076c-.16016-.01562-.28418-.02343-.37207-.02344-.35157,1e-005-.72119.05421-1.10889.1626s-.78516.28663-1.19238.53467-.8042.5713-1.19092.96973c-.0918.04102-.17188.06153-.24024.06152-.16016,1e-005-.29395-.07177-.40137-.21533s-.16113-.27587-.16113-.39697c0-.33202.04639-.59521.13916-.78955s.25439-.36767.48486-.52002c.43555-.28905.85351-.52294 1.25391-.70166s.79687-.3081 1.18945-.38818 .79394-.12011 1.2041-.12012c.37304,1e-005 .79296.03224 1.25976.09668 .32421.07813.62939.31544.91553.71191s.42919.85841.4292,1.38574z"/>
 <path d="m88.53986,70.72123c-.09376.22266-.16309.38526-.20801.48779s-.09913.17725-.1626.22412-.16212.07666-.2959.08935-.3755.02588-.7251.03955c-1e-005,.69531.02831,1.39551.08496,2.10059 .00781.08008.01171.17969.01172.29883-1e-005,.16016-.01856.27539-.05566.3457s-.11085.1582-.22119.26367-.20264.21094-.27685.31641c-.04297.05469-.11036.08203-.20215.08203-.11329,0-.22559-.04053-.33691-.12158s-.167-.16846-.16699-.26221c-.04883-.31445-.07325-.70996-.07324-1.18652-1e-005-.12109.00195-.29101.00586-.50977s.00585-.37304.00586-.46289c-1e-005-.37305-.02344-.64062-.07031-.80274l-1.56006.27979c-.45997.08301-.82813.15577-1.10449.21826s-.55859.14307-.84668.2417-.58643.21924-.89502.36182c-.17969-.08594-.33398-.22314-.46289-.41162s-.22559-.39697-.29004-.62549-.09668-.44628-.09668-.65332c.12695-.24609.39404-.62255.80127-1.12939s.87451-1.05078 1.40186-1.63184 1.0498-1.12841 1.56738-1.64209 .92871-.88573 1.2334-1.11621c.14648-.11327.2705-.16991.37207-.16992 .07031,1e-005 .13281.02052.1875.06152s.14746.1211.27832.24024c.13281.00587.27929.09669.43945.27246s.24609.34864.25781.51855c-.05665.39845-.08497.81837-.08496,1.25977-1e-005,.22266.01171.5254.03516.9082s.04003.68458.0498.90527c.0039.07618.00781.18946.01172.33984s.00781.26075.01172.33106c.29101-.05664.55077-.08496.7793-.08496 .44921,1e-005 .67382.12012.67383.36035-1e-005,.08399-.02442.17188-.07324.26367zm-2.69824-.39551c-1e-005-.19531.00195-.47265.00586-.83203s.00585-.62206.00586-.78808c-1e-005-.59179-.0127-1.02343-.03809-1.29492-.68164.48243-1.37891,1.07227-2.0918,1.76953s-1.20313,1.33887-1.4707,1.9248c.21289-.10546.51465-.20166.90527-.28857s.88134-.17968 1.47217-.27832l1.21143-.2124z"/>
 <path transform="matrix(1.1029 0 0 .9264 -5.3572 3.38)" d="m51.554 50.324c0 0.89378-0.60933 1.6192-1.3601 1.6192s-1.3601-0.72539-1.3601-1.6192 0.60933-1.6192 1.3601-1.6192 1.3601 0.72539 1.3601 1.6192z" stroke="#000" stroke-linecap="round" stroke-linejoin="round" stroke-width="1.484"/>
</svg>
