<?xml version="1.0" encoding="UTF-8" standalone="no"?>
<svg
   xmlns:dc="http://purl.org/dc/elements/1.1/"
   xmlns:cc="http://creativecommons.org/ns#"
   xmlns:rdf="http://www.w3.org/1999/02/22-rdf-syntax-ns#"
   xmlns:svg="http://www.w3.org/2000/svg"
   xmlns="http://www.w3.org/2000/svg"
   xmlns:xlink="http://www.w3.org/1999/xlink"
   xmlns:sodipodi="http://sodipodi.sourceforge.net/DTD/sodipodi-0.dtd"
   xmlns:inkscape="http://www.inkscape.org/namespaces/inkscape"
   viewBox="0 0 446.53781 447.84509"
   id="svg2"
   version="1.1"
   inkscape:version="0.91 r13725"
   sodipodi:docname="Concatenate.svg"
   width="446.53781"
   height="447.84509"
   inkscape:export-filename="/home/simon/Incoming/Concatenate.png"
   inkscape:export-xdpi="10.08"
   inkscape:export-ydpi="10.08">
  <metadata
     id="metadata17">
    <rdf:RDF>
      <cc:Work
         rdf:about="">
        <dc:format>image/svg+xml</dc:format>
        <dc:type
           rdf:resource="http://purl.org/dc/dcmitype/StillImage" />
        <dc:title></dc:title>
      </cc:Work>
    </rdf:RDF>
  </metadata>
  <sodipodi:namedview
     pagecolor="#ffffff"
     bordercolor="#666666"
     borderopacity="1"
     objecttolerance="10"
     gridtolerance="10"
     guidetolerance="10"
     inkscape:pageopacity="0"
     inkscape:pageshadow="2"
     inkscape:window-width="1889"
     inkscape:window-height="1002"
     id="namedview15"
     showgrid="false"
     inkscape:zoom="0.944"
     inkscape:cx="-171.1798"
     inkscape:cy="333.61507"
     inkscape:window-x="31"
     inkscape:window-y="29"
     inkscape:window-maximized="1"
     inkscape:current-layer="svg2"
     fit-margin-top="0"
     fit-margin-left="0"
     fit-margin-right="0"
     fit-margin-bottom="0" />
  <defs
     id="defs4">
    <radialGradient
       gradientUnits="userSpaceOnUse"
       fy="319.1741"
       fx="323.49988"
       cx="323.49988"
       cy="319.1741"
       gradientTransform="matrix(-0.34347185,0.47545634,-0.44523933,-0.32164295,361.57767,46.757539)"
       id="radialGradient4263"
       r="242.26015">
      <stop
         style="stop-color:#0000ff;stop-opacity:1"
         offset="0"
         stop-color="#060"
         id="stop4265" />
      <stop
         style="stop-color:#000091;stop-opacity:1"
         offset="1"
         stop-color="#0f0"
         id="stop4267" />
    </radialGradient>
    <radialGradient
       gradientUnits="userSpaceOnUse"
       fy="319.1741"
       fx="323.49988"
       cx="323.49988"
       cy="319.1741"
       gradientTransform="matrix(-0.34347185,0.47545634,-0.44523933,-0.32164295,361.57767,46.757539)"
       id="radialGradient4257"
       r="242.26015">
      <stop
         style="stop-color:#ff0000;stop-opacity:1"
         offset="0"
         stop-color="#060"
         id="stop4259" />
      <stop
         style="stop-color:#620000;stop-opacity:1"
         offset="1"
         stop-color="#0f0"
         id="stop4261" />
    </radialGradient>
    <radialGradient
       gradientUnits="userSpaceOnUse"
       fy="203.78539"
       fx="198.88269"
       cx="198.88269"
       cy="203.78539"
       gradientTransform="scale(0.99914211,1.0008586)"
       id="radialGradient4233"
       r="242.26015">
      <stop
         offset="0"
         stop-color="#060"
         id="stop4235"
         style="stop-color:#ff0000;stop-opacity:1" />
      <stop
         offset="1"
         stop-color="#0f0"
         id="stop4237" />
    </radialGradient>
    <radialGradient
       cx="0.54066998"
       cy="0.34639001"
       gradientTransform="scale(0.8678,1.15234)"
       id="radialGradient1096"
       r="0.81256998">
      <stop
         offset="0"
         stop-color="#060"
         id="stop7" />
      <stop
         offset="1"
         stop-color="#0f0"
         id="stop9" />
    </radialGradient>
    <radialGradient
       r="242.26015"
       id="radialGradient1096-1"
       gradientTransform="matrix(-0.34347185,0.47545634,-0.44523933,-0.32164295,361.57767,46.757539)"
       cy="319.1741"
       cx="323.49988"
       fx="323.49988"
       fy="319.1741"
       gradientUnits="userSpaceOnUse">
      <stop
         id="stop4190"
         stop-color="#060"
         offset="0"
         style="stop-color:#00ff00;stop-opacity:1" />
      <stop
         id="stop4192"
         stop-color="#0f0"
         offset="1"
         style="stop-color:#006400;stop-opacity:1" />
    </radialGradient>
    <radialGradient
       inkscape:collect="always"
       xlink:href="#radialGradient4263"
       id="radialGradient4251"
       gradientUnits="userSpaceOnUse"
       gradientTransform="matrix(-0.34347185,0.47545634,-0.44523933,-0.32164295,592.28624,46.757539)"
       cx="323.49988"
       cy="319.1741"
       fx="323.49988"
       fy="319.1741"
       r="242.26015" />
    <radialGradient
       inkscape:collect="always"
       xlink:href="#radialGradient4257"
       id="radialGradient4255"
       gradientUnits="userSpaceOnUse"
       gradientTransform="matrix(-0.34347185,0.47545634,-0.44523933,-0.32164295,361.57767,281.96043)"
       cx="323.49988"
       cy="319.1741"
       fx="323.49988"
       fy="319.1741"
       r="242.26015" />
    <filter
       inkscape:label="Apparition"
       inkscape:menu="Blurs"
       inkscape:menu-tooltip="Edges are partly feathered out"
       style="color-interpolation-filters:sRGB"
       id="filter4231">
      <feMorphology
         radius="4"
         in="SourceGraphic"
         result="result0"
         id="feMorphology4233" />
      <feGaussianBlur
         in="result0"
         stdDeviation="8"
         result="result91"
         id="feGaussianBlur4235" />
      <feComposite
         operator="in"
         in="SourceGraphic"
         in2="result91"
         id="feComposite4237"
         result="fbSourceGraphic" />
      <feColorMatrix
         result="fbSourceGraphicAlpha"
         in="fbSourceGraphic"
         values="0 0 0 -1 0 0 0 0 -1 0 0 0 0 -1 0 0 0 0 1 0"
         id="feColorMatrix4239" />
      <feMorphology
         id="feMorphology4241"
         radius="4"
         in="fbSourceGraphic"
         result="result0" />
      <feGaussianBlur
         id="feGaussianBlur4243"
         in="result0"
         stdDeviation="8"
         result="result91" />
      <feComposite
         id="feComposite4245"
         in2="result91"
         operator="in"
         in="fbSourceGraphic" />
    </filter>
    <filter
       style="color-interpolation-filters:sRGB"
       inkscape:label="Blur"
       id="filter4273">
      <feGaussianBlur
         stdDeviation="3.18 2.39"
         result="blur"
         id="feGaussianBlur4275" />
    </filter>
    <filter
       id="filter5124"
       style="color-interpolation-filters:sRGB"
       inkscape:menu-tooltip="Soft bevel, slightly depressed middle"
       inkscape:menu="Bevels"
       inkscape:label="Button">
      <feGaussianBlur
         id="feGaussianBlur5126"
         result="result0"
         in="SourceAlpha"
         stdDeviation="2.3" />
      <feMorphology
         id="feMorphology5128"
         result="result1"
         radius="6.6"
         in="SourceAlpha" />
      <feGaussianBlur
         id="feGaussianBlur5130"
         in="result1"
         stdDeviation="8.9" />
      <feColorMatrix
         id="feColorMatrix5132"
         result="result91"
         values="1 0 0 0 0 0 1 0 0 0 0 0 1 0 0 0 0 0 0.3 0" />
      <feComposite
         id="feComposite5134"
         in2="result91"
         result="result2"
         operator="out"
         in="result0" />
      <feGaussianBlur
         id="feGaussianBlur5136"
         result="result4"
         stdDeviation="1.7" />
      <feDiffuseLighting
         id="feDiffuseLighting5138"
         surfaceScale="10">
        <feDistantLight
           id="feDistantLight5140"
           elevation="45"
           azimuth="225" />
      </feDiffuseLighting>
      <feBlend
         id="feBlend5142"
         mode="multiply"
         in2="SourceGraphic" />
      <feComposite
         id="feComposite5144"
         result="result3"
         operator="in"
         in2="SourceAlpha" />
      <feSpecularLighting
         id="feSpecularLighting5146"
         specularExponent="17.89999962"
         surfaceScale="5"
         in="result4">
        <feDistantLight
           id="feDistantLight5148"
           elevation="45"
           azimuth="225" />
      </feSpecularLighting>
      <feComposite
         id="feComposite5150"
         operator="atop"
         in2="result3" />
    </filter>
  </defs>
  <g
     id="g4273"
     transform="translate(-24.437726,-9.1505643)">
    <path
       id="path4194"
       d="m 246.36808,230.42011 -0.0734,-56.90675 c 0,0 -0.63352,-13.31774 -12.08947,-11.09883 -9.30796,1.80286 -6.0071,14.60454 -13.3186,15.17146 -1.68727,0.13083 -3.9419,-0.3967 -7.04455,-1.85286 -6.4042,-5.33925 -9.39447,-15.34791 -9.72295,-24.27068 -0.12126,-3.29388 0.16631,-6.39171 0.73381,-9.0992 0.0146,-0.12017 0.0395,-0.24666 0.055,-0.36691 0.9944,-7.69876 3.96948,-15.50845 9.37438,-20.01459 16.5475,-7.76619 8.9072,11.0997 20.36315,13.3186 8.34674,1.61668 10.92519,-4.97717 11.72257,-8.69561 l 0,-60.410678 -59.64017,0 c -3.6404,-0.715174 -10.70836,-3.222335 -9.04418,-11.814295 2.21891,-11.455963 21.06644,-3.815656 13.30026,-20.363149 -4.50613,-5.404906 -12.31584,-8.379984 -20.01459,-9.374386 -0.12024,-0.01556 -0.24674,-0.04045 -0.36691,-0.05501 -2.70748,-0.567503 -5.80532,-0.855068 -9.09921,-0.733808 -8.92276,0.32847 -18.93142,3.318746 -24.27067,9.722945 -7.76618,16.547481 11.09969,8.907192 13.3186,20.363149 2.21891,11.455957 -11.09883,12.089473 -11.09883,12.089473 l -57.053508,0.165107 0,59.933702 c -0.813886,3.72898 -3.406468,10.24778 -11.704224,8.64058 -11.455951,-2.21891 -3.815657,-21.08479 -20.363149,-13.3186 -5.404895,4.50613 -8.379984,12.33418 -9.374386,20.03294 -0.01556,0.12024 -0.04045,0.22839 -0.05501,0.34855 -0.567491,2.70749 -0.855067,5.80533 -0.733807,9.09921 0.328482,8.92277 3.318746,18.93142 9.722945,24.27068 16.547492,7.76618 8.907192,-11.09969 20.363149,-13.3186 11.455957,-2.21891 12.089473,11.09883 12.089473,11.09883 l 0.05501,57.43875 57.145227,-0.42193 c 0,0 13.31775,-0.63353 11.09884,-12.08948 -2.21892,-11.45595 -21.08478,-3.81566 -13.3186,-20.36315 5.33925,-6.4042 15.3479,-9.39447 24.27067,-9.72294 3.29388,-0.12126 6.39173,0.16631 9.09921,0.73381 0.12016,0.0145 0.24666,0.0395 0.3669,0.055 7.69876,0.9944 15.50846,3.96949 20.01459,9.37439 7.76619,16.54749 -11.08134,8.90719 -13.30025,20.36315 -2.18389,11.27515 10.54598,12.04895 10.95207,12.07113 l 57.64055,0 z"
       inkscape:connector-curvature="0"
       style="fill-opacity:0.5;fill-rule:evenodd" />
    <path
       style="fill:url(#radialGradient1096-1);fill-rule:evenodd;stroke:#000000;stroke-width:7.33807182;stroke-linejoin:round"
       id="path4196"
       d="m 234.33416,219.41388 -0.0734,-56.90674 c 0,0 -0.63353,-13.31774 -12.08948,-11.09884 -9.30796,1.80287 -6.00709,14.60455 -13.3186,15.17146 -1.68727,0.13083 -3.94189,-0.3967 -7.04454,-1.85286 -6.4042,-5.33925 -9.39447,-15.3479 -9.72295,-24.27067 -0.12126,-3.29388 0.16631,-6.39172 0.73381,-9.09921 0.0146,-0.12016 0.0395,-0.24666 0.055,-0.3669 0.99441,-7.69876 3.96949,-15.50846 9.37439,-20.01459 16.54749,-7.76619 8.90719,11.09969 20.36315,13.3186 8.34673,1.61668 10.92518,-4.97718 11.72257,-8.69562 l 0,-60.410672 -59.64018,0 c -3.6404,-0.715175 -10.70835,-3.222336 -9.04417,-11.814296 2.21891,-11.455962 21.06644,-3.815656 13.30025,-20.363148 -4.50613,-5.404907 -12.31583,-8.379984 -20.01459,-9.374387 -0.12024,-0.01556 -0.24674,-0.04045 -0.3669,-0.05501 -2.70748,-0.567503 -5.80533,-0.855068 -9.09921,-0.733807 -8.92277,0.328469 -18.93142,3.318745 -24.27067,9.722945 -7.76618,16.54748 11.09969,8.907192 13.3186,20.363148 2.21894,11.455928 -11.09881,12.089444 -11.09881,12.089444 l -57.053503,0.165107 0,59.933706 c -0.813886,3.72898 -3.406468,10.24777 -11.704224,8.64058 -11.455951,-2.21891 -3.815656,-21.08479 -20.363149,-13.3186 -5.404895,4.50612 -8.379984,12.33417 -9.374386,20.03293 -0.01556,0.12024 -0.04045,0.2284 -0.05501,0.34856 -0.567491,2.70749 -0.855067,5.80533 -0.733807,9.09921 0.328482,8.92277 3.318746,18.93142 9.722945,24.27067 16.547493,7.76618 8.907192,-11.09969 20.363149,-13.3186 11.455957,-2.21891 12.089473,11.09883 12.089473,11.09883 l 0.05501,57.43876 57.145232,-0.42194 c 0,0 13.31775,-0.63352 11.09883,-12.08947 -2.21891,-11.45595 -21.08478,-3.81566 -13.3186,-20.36315 5.33925,-6.4042 15.34791,-9.39447 24.27068,-9.72295 3.29388,-0.12126 6.39173,0.16631 9.0992,0.73381 0.12017,0.0146 0.24667,0.0395 0.36691,0.055 7.69876,0.9944 15.50846,3.96948 20.01459,9.37438 7.76618,16.5475 -11.08135,8.9072 -13.30026,20.36315 -2.18389,11.27516 10.54598,12.04895 10.95207,12.07113 l 57.64056,0 z"
       inkscape:connector-curvature="0" />
  </g>
  <g
     id="g4281"
     transform="translate(-27.58451,-7.9094914)">
    <path
       style="fill-opacity:0.5;fill-rule:evenodd"
       inkscape:connector-curvature="0"
       d="m 474.12232,230.42011 -0.0734,-56.90675 c 0,0 -0.63352,-13.31774 -12.08947,-11.09883 -9.30796,1.80286 -6.0071,14.60454 -13.3186,15.17146 -1.68727,0.13083 -3.9419,-0.3967 -7.04455,-1.85286 -6.4042,-5.33925 -9.39447,-15.34791 -9.72295,-24.27068 -0.12126,-3.29388 0.16631,-6.39171 0.73381,-9.0992 0.0146,-0.12017 0.0395,-0.24666 0.055,-0.36691 0.9944,-7.69876 3.96948,-15.50845 9.37438,-20.01459 16.5475,-7.76619 8.9072,11.0997 20.36315,13.3186 8.34674,1.61668 10.92519,-4.97717 11.72257,-8.69561 l 0,-60.410678 -59.64017,0 c -3.6404,-0.715174 -10.70836,-3.222335 -9.04418,-11.814295 2.21891,-11.455963 21.06644,-3.815656 13.30026,-20.363149 -4.50613,-5.404906 -12.31584,-8.379984 -20.01459,-9.374386 -0.12024,-0.01556 -0.24674,-0.04045 -0.36691,-0.05501 -2.70748,-0.567503 -5.80532,-0.855068 -9.09921,-0.733808 -8.92276,0.32847 -18.93142,3.318746 -24.27067,9.722945 -7.76618,16.547481 11.09969,8.907192 13.3186,20.363149 2.21891,11.455957 -11.09883,12.089473 -11.09883,12.089473 l -57.05351,0.165107 0,59.933702 c -0.81389,3.72898 -3.40647,10.24778 -11.70422,8.64058 -11.45596,-2.21891 -3.81566,-21.08479 -20.36315,-13.3186 -5.4049,4.50613 -8.37999,12.33418 -9.37439,20.03294 -0.0156,0.12024 -0.0405,0.22839 -0.055,0.34855 -0.56749,2.70749 -0.85507,5.80533 -0.73381,9.09921 0.32849,8.92277 3.31875,18.93142 9.72295,24.27068 16.54749,7.76618 8.90719,-11.09969 20.36315,-13.3186 11.45595,-2.21891 12.08947,11.09883 12.08947,11.09883 l 0.055,57.43875 57.14523,-0.42193 c 0,0 13.31775,-0.63353 11.09884,-12.08948 -2.21892,-11.45595 -21.08478,-3.81566 -13.3186,-20.36315 5.33925,-6.4042 15.3479,-9.39447 24.27067,-9.72294 3.29388,-0.12126 6.39173,0.16631 9.09921,0.73381 0.12016,0.0145 0.24666,0.0395 0.3669,0.055 7.69876,0.9944 15.50846,3.96949 20.01459,9.37439 7.76619,16.54749 -11.08134,8.90719 -13.30025,20.36315 -2.18389,11.27515 10.54598,12.04895 10.95207,12.07113 l 57.64055,0 z"
       id="path4269" />
    <path
       inkscape:connector-curvature="0"
       d="m 465.04273,219.41388 -0.0734,-56.90674 c 0,0 -0.63353,-13.31774 -12.08948,-11.09884 -9.30796,1.80287 -6.00709,14.60455 -13.3186,15.17146 -1.68727,0.13083 -3.94189,-0.3967 -7.04454,-1.85286 -6.4042,-5.33925 -9.39447,-15.3479 -9.72295,-24.27067 -0.12126,-3.29388 0.16631,-6.39172 0.73381,-9.09921 0.0146,-0.12016 0.0395,-0.24666 0.055,-0.3669 0.99441,-7.69876 3.96949,-15.50846 9.37439,-20.01459 16.54749,-7.76619 8.90719,11.09969 20.36315,13.3186 8.34673,1.61668 10.92518,-4.97718 11.72257,-8.69562 l 0,-60.410672 -59.64018,0 c -3.6404,-0.715175 -10.70835,-3.222336 -9.04417,-11.814296 2.21891,-11.455962 21.06644,-3.815656 13.30025,-20.363148 -4.50613,-5.404907 -12.31583,-8.379984 -20.01459,-9.374387 -0.12024,-0.01556 -0.24674,-0.04045 -0.3669,-0.05501 -2.70748,-0.567503 -5.80533,-0.855068 -9.09921,-0.733807 -8.92277,0.328469 -18.93142,3.318745 -24.27067,9.722945 -7.76618,16.54748 11.09969,8.907192 13.3186,20.363148 2.21894,11.455928 -11.09881,12.089444 -11.09881,12.089444 l -57.0535,0.165107 0,59.933706 c -0.81389,3.72898 -3.40647,10.24777 -11.70423,8.64058 -11.45595,-2.21891 -3.81565,-21.08479 -20.36315,-13.3186 -5.40489,4.50612 -8.37998,12.33417 -9.37438,20.03293 -0.0156,0.12024 -0.0404,0.2284 -0.055,0.34856 -0.56749,2.70749 -0.85507,5.80533 -0.73381,9.09921 0.32848,8.92277 3.31875,18.93142 9.72294,24.27067 16.5475,7.76618 8.9072,-11.09969 20.36315,-13.3186 11.45596,-2.21891 12.08948,11.09883 12.08948,11.09883 l 0.055,57.43876 57.14523,-0.42194 c 0,0 13.31775,-0.63352 11.09883,-12.08947 -2.21891,-11.45595 -21.08478,-3.81566 -13.3186,-20.36315 5.33925,-6.4042 15.34791,-9.39447 24.27068,-9.72295 3.29388,-0.12126 6.39173,0.16631 9.0992,0.73381 0.12017,0.0146 0.24667,0.0395 0.36691,0.055 7.69876,0.9944 15.50846,3.96948 20.01459,9.37438 7.76618,16.5475 -11.08135,8.9072 -13.30026,20.36315 -2.18389,11.27516 10.54598,12.04895 10.95207,12.07113 l 57.64056,0 z"
       id="path4249"
       style="fill:url(#radialGradient4251);fill-rule:evenodd;stroke:#000000;stroke-width:7.33807182;stroke-linejoin:round" />
  </g>
  <g
     id="g4277"
     transform="translate(-24.437726,-17.744524)">
    <path
       style="fill-opacity:0.5;fill-rule:evenodd"
       inkscape:connector-curvature="0"
       d="m 246.36808,465.5896 -0.0734,-56.90675 c 0,0 -0.63352,-13.31774 -12.08947,-11.09883 -9.30796,1.80286 -6.0071,14.60454 -13.3186,15.17146 -1.68727,0.13083 -3.9419,-0.3967 -7.04455,-1.85286 -6.4042,-5.33925 -9.39447,-15.34791 -9.72295,-24.27068 -0.12126,-3.29388 0.16631,-6.39171 0.73381,-9.0992 0.0146,-0.12017 0.0395,-0.24666 0.055,-0.36691 0.9944,-7.69876 3.96948,-15.50845 9.37438,-20.01459 16.5475,-7.76619 8.9072,11.0997 20.36315,13.3186 8.34674,1.61668 10.92519,-4.97717 11.72257,-8.69561 l 0,-60.41068 -59.64017,0 c -3.6404,-0.71517 -10.70836,-3.22233 -9.04418,-11.81429 2.21891,-11.45596 21.06644,-3.81566 13.30026,-20.36315 -4.50613,-5.40491 -12.31584,-8.37998 -20.01459,-9.37439 -0.12024,-0.0156 -0.24674,-0.0404 -0.36691,-0.055 -2.70748,-0.5675 -5.80532,-0.85506 -9.09921,-0.7338 -8.92276,0.32847 -18.93142,3.31874 -24.27067,9.72294 -7.76618,16.54748 11.09969,8.90719 13.3186,20.36315 2.21891,11.45596 -11.09883,12.08947 -11.09883,12.08947 l -57.053508,0.16511 0,59.9337 c -0.813886,3.72898 -3.406468,10.24778 -11.704224,8.64058 -11.455951,-2.21891 -3.815657,-21.08479 -20.363149,-13.3186 -5.404895,4.50613 -8.379984,12.33418 -9.374386,20.03294 -0.01556,0.12024 -0.04045,0.22839 -0.05501,0.34855 -0.567491,2.70749 -0.855067,5.80533 -0.733807,9.09921 0.328482,8.92277 3.318746,18.93142 9.722945,24.27068 16.547492,7.76618 8.907192,-11.09969 20.363149,-13.3186 11.455957,-2.21891 12.089473,11.09883 12.089473,11.09883 l 0.05501,57.43875 57.145227,-0.42193 c 0,0 13.31775,-0.63353 11.09884,-12.08948 -2.21892,-11.45595 -21.08478,-3.81566 -13.3186,-20.36315 5.33925,-6.4042 15.3479,-9.39447 24.27067,-9.72294 3.29388,-0.12126 6.39173,0.16631 9.09921,0.73381 0.12016,0.0145 0.24666,0.0395 0.3669,0.055 7.69876,0.9944 15.50846,3.96949 20.01459,9.37439 7.76619,16.54749 -11.08134,8.90719 -13.30025,20.36315 -2.18389,11.27515 10.54598,12.04895 10.95207,12.07113 l 57.64055,0 z"
       id="path4271" />
    <path
       inkscape:connector-curvature="0"
       d="m 234.33416,454.61677 -0.0734,-56.90674 c 0,0 -0.63353,-13.31774 -12.08948,-11.09884 -9.30796,1.80287 -6.00709,14.60455 -13.3186,15.17146 -1.68727,0.13083 -3.94189,-0.3967 -7.04454,-1.85286 -6.4042,-5.33925 -9.39447,-15.3479 -9.72295,-24.27067 -0.12126,-3.29388 0.16631,-6.39172 0.73381,-9.09921 0.0146,-0.12016 0.0395,-0.24666 0.055,-0.3669 0.99441,-7.69876 3.96949,-15.50846 9.37439,-20.01459 16.54749,-7.76619 8.90719,11.09969 20.36315,13.3186 8.34673,1.61668 10.92518,-4.97718 11.72257,-8.69562 l 0,-60.41067 -59.64018,0 c -3.6404,-0.71518 -10.70835,-3.22234 -9.04417,-11.8143 2.21891,-11.45596 21.06644,-3.81565 13.30025,-20.36314 -4.50613,-5.40491 -12.31583,-8.37999 -20.01459,-9.37439 -0.12024,-0.0156 -0.24674,-0.0404 -0.3669,-0.055 -2.70748,-0.5675 -5.80533,-0.85507 -9.09921,-0.73381 -8.92277,0.32847 -18.93142,3.31875 -24.27067,9.72295 -7.76618,16.54748 11.09969,8.90719 13.3186,20.36314 2.21894,11.45593 -11.09881,12.08945 -11.09881,12.08945 l -57.053503,0.16511 0,59.9337 c -0.813886,3.72898 -3.406468,10.24777 -11.704224,8.64058 -11.455951,-2.21891 -3.815656,-21.08479 -20.363149,-13.3186 -5.404895,4.50612 -8.379984,12.33417 -9.374386,20.03293 -0.01556,0.12024 -0.04045,0.2284 -0.05501,0.34856 -0.567491,2.70749 -0.855067,5.80533 -0.733807,9.09921 0.328482,8.92277 3.318746,18.93142 9.722945,24.27067 16.547493,7.76618 8.907192,-11.09969 20.363149,-13.3186 11.455957,-2.21891 12.089473,11.09883 12.089473,11.09883 l 0.05501,57.43876 57.145232,-0.42194 c 0,0 13.31775,-0.63352 11.09883,-12.08947 -2.21891,-11.45595 -21.08478,-3.81566 -13.3186,-20.36315 5.33925,-6.4042 15.34791,-9.39447 24.27068,-9.72295 3.29388,-0.12126 6.39173,0.16631 9.0992,0.73381 0.12017,0.0146 0.24667,0.0395 0.36691,0.055 7.69876,0.9944 15.50846,3.96948 20.01459,9.37438 7.76618,16.5475 -11.08135,8.9072 -13.30026,20.36315 -2.18389,11.27516 10.54598,12.04895 10.95207,12.07113 l 57.64056,0 z"
       id="path4253"
       style="fill:url(#radialGradient4255);fill-rule:evenodd;stroke:#000000;stroke-width:7.33807182;stroke-linejoin:round" />
  </g>
</svg>
