<?xml version="1.0" encoding="UTF-8" standalone="no"?>
<svg
   xmlns:dc="http://purl.org/dc/elements/1.1/"
   xmlns:cc="http://creativecommons.org/ns#"
   xmlns:rdf="http://www.w3.org/1999/02/22-rdf-syntax-ns#"
   xmlns:svg="http://www.w3.org/2000/svg"
   xmlns="http://www.w3.org/2000/svg"
   xmlns:xlink="http://www.w3.org/1999/xlink"
   xmlns:sodipodi="http://sodipodi.sourceforge.net/DTD/sodipodi-0.dtd"
   xmlns:inkscape="http://www.inkscape.org/namespaces/inkscape"
   viewBox="0 0 48 48"
   id="svg2"
   version="1.1"
   inkscape:version="0.91 r13725"
   sodipodi:docname="client-98524.svg"
   inkscape:export-filename="/home/simon/Incoming/Connection.png"
   inkscape:export-xdpi="195.65388"
   inkscape:export-ydpi="195.65388">
  <metadata
     id="metadata189">
    <rdf:RDF>
      <cc:Work
         rdf:about="">
        <dc:format>image/svg+xml</dc:format>
        <dc:type
           rdf:resource="http://purl.org/dc/dcmitype/StillImage" />
      </cc:Work>
    </rdf:RDF>
  </metadata>
  <sodipodi:namedview
     pagecolor="#ffffff"
     bordercolor="#666666"
     borderopacity="1"
     objecttolerance="10"
     gridtolerance="10"
     guidetolerance="10"
     inkscape:pageopacity="0"
     inkscape:pageshadow="2"
     inkscape:window-width="1889"
     inkscape:window-height="1003"
     id="namedview187"
     showgrid="false"
     inkscape:zoom="3.4766083"
     inkscape:cx="-66.40758"
     inkscape:cy="33.498536"
     inkscape:window-x="31"
     inkscape:window-y="29"
     inkscape:window-maximized="1"
     inkscape:current-layer="svg2" />
  <defs
     id="defs4">
    <linearGradient
       id="linearGradient2683">
      <stop
         offset="0"
         id="stop7" />
      <stop
         offset="1"
         stop-opacity="0"
         id="stop9" />
    </linearGradient>
    <linearGradient
       id="linearGradient2635">
      <stop
         offset="0"
         stop-color="#f9fff5"
         id="stop12" />
      <stop
         offset="1"
         stop-color="#f9fff5"
         stop-opacity="0"
         id="stop14" />
    </linearGradient>
    <linearGradient
       id="linearGradient2253">
      <stop
         offset="0"
         stop-color="#8f8f8f"
         id="stop17" />
      <stop
         offset="1"
         stop-color="#494949"
         id="stop19" />
    </linearGradient>
    <linearGradient
       id="linearGradient2245">
      <stop
         offset="0"
         stop-color="#dde1d9"
         id="stop22" />
      <stop
         offset="1"
         stop-color="#cacdc6"
         id="stop24" />
    </linearGradient>
    <linearGradient
       gradientTransform="matrix(0.91505427,0,0,0.73681142,0.11627099,9.2261032)"
       gradientUnits="userSpaceOnUse"
       id="linearGradient2828"
       x1="19.1504"
       x2="16.31582"
       y1="32.62224"
       y2="8.86662">
      <stop
         offset="0"
         stop-color="#5b5b97"
         id="stop27" />
      <stop
         offset="1"
         stop-color="#1b1b43"
         id="stop29" />
    </linearGradient>
    <linearGradient
       gradientUnits="userSpaceOnUse"
       id="linearGradient3911"
       x2="0"
       y1="33.46092"
       y2="30.06203">
      <stop
         offset="0"
         stop-color="#d8dfd6"
         id="stop32" />
      <stop
         offset="1"
         stop-color="#d8dfd6"
         stop-opacity="0"
         id="stop34" />
    </linearGradient>
    <linearGradient
       gradientTransform="scale(1.81635,.55056)"
       gradientUnits="userSpaceOnUse"
       id="linearGradient3915"
       x1="12.20671"
       x2="12.12771"
       y1="53.53514"
       y2="64.89253">
      <stop
         offset="0"
         stop-color="#585956"
         id="stop37" />
      <stop
         offset="1"
         stop-color="#bbbeb8"
         id="stop39" />
    </linearGradient>
    <linearGradient
       gradientTransform="matrix(1.10807,0,0,.90247,1,1)"
       gradientUnits="userSpaceOnUse"
       id="linearGradient3925"
       x1="17.69834"
       x2="34.97455"
       y1="13.00473"
       y2="55.20076">
      <stop
         offset="0"
         stop-color="#fff"
         id="stop42" />
      <stop
         offset="1"
         stop-color="#fff"
         stop-opacity="0"
         id="stop44" />
    </linearGradient>
    <linearGradient
       gradientTransform="matrix(1.23898,0,0,.89595,.59055,-1.33152)"
       gradientUnits="userSpaceOnUse"
       id="linearGradient3927"
       x1="11.49224"
       x2="17.19942"
       y1="1.65376"
       y2="26.72926">
      <stop
         offset="0"
         stop-color="#fff"
         id="stop47" />
      <stop
         offset="1"
         stop-color="#fcfcff"
         stop-opacity="0"
         id="stop49" />
    </linearGradient>
    <linearGradient
       gradientUnits="userSpaceOnUse"
       id="linearGradient3935"
       x2="0"
       y1="38.31806"
       y2="43.37945">
      <stop
         offset="0"
         stop-color="#9d9d9d"
         id="stop52" />
      <stop
         offset="1"
         stop-color="#b9b9b9"
         id="stop54" />
    </linearGradient>
    <linearGradient
       gradientUnits="userSpaceOnUse"
       id="linearGradient3943"
       x1="34.30099"
       x2="35.52054"
       y1="3.93841"
       y2="3.84511">
      <stop
         offset="0"
         stop-color="#909090"
         id="stop57" />
      <stop
         offset="1"
         stop-color="#bebebe"
         stop-opacity="0"
         id="stop59" />
    </linearGradient>
    <linearGradient
       gradientUnits="userSpaceOnUse"
       id="linearGradient4064"
       x1="28.79001"
       x2="28.83036"
       y1="24.17736"
       y2="5.9961"
       gradientTransform="matrix(0.77934,0,0,0.77934,-72.437931,0.17853)">
      <stop
         offset="0"
         stop-color="#416db4"
         id="stop62" />
      <stop
         offset="1"
         stop-color="#385e9b"
         id="stop64" />
    </linearGradient>
    <linearGradient
       gradientTransform="matrix(0.88054509,0,0,0.68976266,-73.704359,-0.83801772)"
       gradientUnits="userSpaceOnUse"
       id="linearGradient3917"
       x1="8.61162"
       x2="34.78447"
       xlink:href="#linearGradient2245"
       y1="7.22936"
       y2="33.33979" />
    <linearGradient
       gradientTransform="matrix(0.8607031,0,0,0.70566899,-72.437931,0.17853)"
       gradientUnits="userSpaceOnUse"
       id="linearGradient3919"
       x1="10.39074"
       x2="32.53682"
       xlink:href="#linearGradient2253"
       y1="5.38177"
       y2="31.24605" />
    <linearGradient
       gradientUnits="userSpaceOnUse"
       id="linearGradient3923"
       x2="0"
       xlink:href="#linearGradient2683"
       y1="29.34457"
       y2="27.79497"
       gradientTransform="matrix(0.77934,0,0,0.77934,-72.437931,0.17853)" />
    <linearGradient
       gradientTransform="matrix(0.88054509,0,0,0.68976266,-72.437931,0.17853)"
       gradientUnits="userSpaceOnUse"
       id="linearGradient3931"
       x1="18.317"
       x2="18.17675"
       xlink:href="#linearGradient2245"
       y1="48.64323"
       y2="52.53646" />
    <linearGradient
       gradientTransform="matrix(1.6706166,0,0,0.36356211,-71.658591,-0.21802157)"
       gradientUnits="userSpaceOnUse"
       id="linearGradient3941"
       x1="13.62871"
       x2="8.6485"
       xlink:href="#linearGradient2635"
       y1="101.2846"
       y2="74.09801" />
    <linearGradient
       gradientTransform="matrix(0.88054509,0,0,0.72676572,-0.44628,8.2941918)"
       gradientUnits="userSpaceOnUse"
       id="linearGradient4033"
       x1="18.317"
       x2="18.17675"
       xlink:href="#linearGradient2245"
       y1="48.64323"
       y2="52.53646" />
    <linearGradient
       gradientTransform="matrix(0.8607031,0,0,0.74352933,-0.44628,8.2941918)"
       gradientUnits="userSpaceOnUse"
       id="linearGradient4035"
       x1="10.39074"
       x2="32.53682"
       xlink:href="#linearGradient2253"
       y1="5.38177"
       y2="31.24605" />
    <linearGradient
       gradientTransform="matrix(1.6515851,0,0,0.36939937,0.45902472,9.1901834)"
       gradientUnits="userSpaceOnUse"
       id="linearGradient4043"
       x1="13.62871"
       x2="8.6485"
       xlink:href="#linearGradient2635"
       y1="101.2846"
       y2="74.09801" />
    <radialGradient
       cx="12.57571"
       cy="67.50171"
       gradientTransform="matrix(1.8976884,0,0,0.52254723,-77.282566,-2.9391573)"
       gradientUnits="userSpaceOnUse"
       id="radialGradient3909"
       r="8.76628"
       xlink:href="#linearGradient2683" />
    <radialGradient
       inkscape:collect="always"
       xlink:href="#linearGradient2683"
       id="radialGradient4317"
       gradientUnits="userSpaceOnUse"
       gradientTransform="matrix(1.5008608,0,0,0.55397871,-1.9882432,-0.34856409)"
       cx="12.57571"
       cy="67.50171"
       r="8.76628" />
    <linearGradient
       inkscape:collect="always"
       xlink:href="#linearGradient3911"
       id="linearGradient4319"
       gradientUnits="userSpaceOnUse"
       y1="33.46092"
       x2="0"
       y2="30.06203"
       gradientTransform="matrix(0.73279002,0,0,0.73279002,42.731969,13.008014)" />
    <radialGradient
       inkscape:collect="always"
       xlink:href="#linearGradient2683"
       id="radialGradient4321"
       gradientUnits="userSpaceOnUse"
       gradientTransform="matrix(1.5008608,0,0,0.55397871,-1.9882432,-4.5602188)"
       cx="12.57571"
       cy="67.50171"
       r="8.76628" />
    <linearGradient
       inkscape:collect="always"
       xlink:href="#linearGradient3915"
       id="linearGradient4323"
       gradientUnits="userSpaceOnUse"
       gradientTransform="matrix(1.4155542,0,0,0.42907343,-0.44628,10.26381)"
       x1="12.20671"
       y1="53.53514"
       x2="12.12771"
       y2="64.89253" />
    <linearGradient
       inkscape:collect="always"
       xlink:href="#linearGradient2245"
       id="linearGradient4325"
       gradientUnits="userSpaceOnUse"
       gradientTransform="matrix(0.88054509,0,0,0.68976266,-1.7127075,9.2472623)"
       x1="8.61162"
       y1="7.22936"
       x2="34.78447"
       y2="33.33979" />
    <linearGradient
       inkscape:collect="always"
       xlink:href="#linearGradient2253"
       id="linearGradient4327"
       gradientUnits="userSpaceOnUse"
       gradientTransform="matrix(0.8607031,0,0,0.70566899,-0.44628,10.26381)"
       x1="10.39074"
       y1="5.38177"
       x2="32.53682"
       y2="31.24605" />
    <linearGradient
       inkscape:collect="always"
       xlink:href="#linearGradient2683"
       id="linearGradient4329"
       gradientUnits="userSpaceOnUse"
       y1="29.34457"
       x2="0"
       y2="27.79497"
       gradientTransform="matrix(0.77934,0,0,0.77934,-0.44628,10.26381)" />
    <linearGradient
       inkscape:collect="always"
       xlink:href="#linearGradient3925"
       id="linearGradient4331"
       gradientUnits="userSpaceOnUse"
       gradientTransform="matrix(0.86356327,0,0,0.70333097,0.33306,11.04315)"
       x1="17.69834"
       y1="13.00473"
       x2="34.97455"
       y2="55.20076" />
    <linearGradient
       inkscape:collect="always"
       xlink:href="#linearGradient3927"
       id="linearGradient4333"
       gradientUnits="userSpaceOnUse"
       gradientTransform="matrix(0.96558667,0,0,0.69824967,0.01395924,9.2261032)"
       x1="11.49224"
       y1="1.65376"
       x2="17.19942"
       y2="26.72926" />
    <radialGradient
       inkscape:collect="always"
       xlink:href="#linearGradient2683"
       id="radialGradient4335"
       gradientUnits="userSpaceOnUse"
       gradientTransform="matrix(1.8976884,0,0,0.52254723,-5.2909146,7.1461227)"
       cx="12.57571"
       cy="67.50171"
       r="8.76628" />
    <linearGradient
       inkscape:collect="always"
       xlink:href="#linearGradient3935"
       id="linearGradient4337"
       gradientUnits="userSpaceOnUse"
       y1="38.31806"
       x2="0"
       y2="43.37945"
       gradientTransform="matrix(0.77934,0,0,0.77934,-0.44628,10.26381)" />
    <linearGradient
       inkscape:collect="always"
       xlink:href="#linearGradient3935"
       id="linearGradient4339"
       gradientUnits="userSpaceOnUse"
       y1="38.31806"
       x2="0"
       y2="43.37945"
       gradientTransform="matrix(0.77934,0,0,0.77934,-0.44628,10.26381)" />
    <linearGradient
       inkscape:collect="always"
       xlink:href="#linearGradient3935"
       id="linearGradient4341"
       gradientUnits="userSpaceOnUse"
       y1="38.31806"
       x2="0"
       y2="43.37945"
       gradientTransform="matrix(0.77934,0,0,0.77934,-0.44628,10.26381)" />
    <linearGradient
       inkscape:collect="always"
       xlink:href="#linearGradient3943"
       id="linearGradient4343"
       gradientUnits="userSpaceOnUse"
       x1="34.30099"
       y1="3.93841"
       x2="35.52054"
       y2="3.84511"
       gradientTransform="matrix(1.0374886,0,0,0.51315642,-8.5664806,12.487945)" />
    <linearGradient
       inkscape:collect="always"
       xlink:href="#linearGradient3943"
       id="linearGradient4345"
       gradientUnits="userSpaceOnUse"
       x1="34.30099"
       y1="3.93841"
       x2="35.52054"
       y2="3.84511"
       gradientTransform="matrix(1.0374886,0,0,0.51315642,-8.4779476,14.129064)" />
    <linearGradient
       inkscape:collect="always"
       xlink:href="#linearGradient3943"
       id="linearGradient4347"
       gradientUnits="userSpaceOnUse"
       x1="34.30099"
       y1="3.93841"
       x2="35.52054"
       y2="3.84511"
       gradientTransform="matrix(1.0374886,0,0,0.51315642,-8.3894146,15.687744)" />
    <linearGradient
       inkscape:collect="always"
       xlink:href="#linearGradient3943"
       id="linearGradient4349"
       gradientUnits="userSpaceOnUse"
       x1="34.30099"
       y1="3.93841"
       x2="35.52054"
       y2="3.84511"
       gradientTransform="matrix(1.0374886,0,0,0.51315642,-8.3008816,17.246424)" />
    <linearGradient
       inkscape:collect="always"
       xlink:href="#linearGradient3943"
       id="linearGradient4351"
       gradientUnits="userSpaceOnUse"
       x1="34.30099"
       y1="3.93841"
       x2="35.52054"
       y2="3.84511"
       gradientTransform="matrix(1.0374886,0,0,0.51315642,-8.2123485,18.805104)" />
    <radialGradient
       inkscape:collect="always"
       xlink:href="#linearGradient2683"
       id="radialGradient4380"
       gradientUnits="userSpaceOnUse"
       gradientTransform="matrix(1.5008608,0,0,0.55397871,-73.979894,-10.433844)"
       cx="12.57571"
       cy="67.50171"
       r="8.76628" />
    <linearGradient
       inkscape:collect="always"
       xlink:href="#linearGradient3911"
       id="linearGradient4382"
       gradientUnits="userSpaceOnUse"
       y1="33.46092"
       x2="0"
       y2="30.06203"
       gradientTransform="matrix(0.73279002,0,0,0.73279002,-29.259682,2.9227342)" />
    <radialGradient
       inkscape:collect="always"
       xlink:href="#linearGradient2683"
       id="radialGradient4384"
       gradientUnits="userSpaceOnUse"
       gradientTransform="matrix(1.5008608,0,0,0.55397871,-73.979894,-14.645499)"
       cx="12.57571"
       cy="67.50171"
       r="8.76628" />
    <linearGradient
       inkscape:collect="always"
       xlink:href="#linearGradient3915"
       id="linearGradient4386"
       gradientUnits="userSpaceOnUse"
       gradientTransform="matrix(1.4155542,0,0,0.42907343,-72.437931,0.17853)"
       x1="12.20671"
       y1="53.53514"
       x2="12.12771"
       y2="64.89253" />
    <linearGradient
       inkscape:collect="always"
       xlink:href="#linearGradient2253"
       id="linearGradient4388"
       gradientUnits="userSpaceOnUse"
       gradientTransform="matrix(0.8607031,0,0,0.70566899,-72.437931,0.17853)"
       x1="10.39074"
       y1="5.38177"
       x2="32.53682"
       y2="31.24605" />
    <linearGradient
       inkscape:collect="always"
       xlink:href="#linearGradient3925"
       id="linearGradient4390"
       gradientUnits="userSpaceOnUse"
       gradientTransform="matrix(0.86356327,0,0,0.70333097,-71.658591,0.95787)"
       x1="17.69834"
       y1="13.00473"
       x2="34.97455"
       y2="55.20076" />
    <linearGradient
       inkscape:collect="always"
       xlink:href="#linearGradient3927"
       id="linearGradient4392"
       gradientUnits="userSpaceOnUse"
       gradientTransform="matrix(0.96558667,0,0,0.69824967,-71.977692,-0.8591768)"
       x1="11.49224"
       y1="1.65376"
       x2="17.19942"
       y2="26.72926" />
    <linearGradient
       inkscape:collect="always"
       xlink:href="#linearGradient3935"
       id="linearGradient4394"
       gradientUnits="userSpaceOnUse"
       y1="38.31806"
       x2="0"
       y2="43.37945"
       gradientTransform="matrix(0.77934,0,0,0.77934,-72.437931,0.17853)" />
    <linearGradient
       inkscape:collect="always"
       xlink:href="#linearGradient3935"
       id="linearGradient4396"
       gradientUnits="userSpaceOnUse"
       y1="38.31806"
       x2="0"
       y2="43.37945"
       gradientTransform="matrix(0.77934,0,0,0.77934,-72.437931,0.17853)" />
    <linearGradient
       inkscape:collect="always"
       xlink:href="#linearGradient3935"
       id="linearGradient4398"
       gradientUnits="userSpaceOnUse"
       y1="38.31806"
       x2="0"
       y2="43.37945"
       gradientTransform="matrix(0.77934,0,0,0.77934,-72.437931,0.17853)" />
    <linearGradient
       inkscape:collect="always"
       xlink:href="#linearGradient3943"
       id="linearGradient4400"
       gradientUnits="userSpaceOnUse"
       x1="34.30099"
       y1="3.93841"
       x2="35.52054"
       y2="3.84511"
       gradientTransform="matrix(1.0374886,0,0,0.51315642,-80.558132,2.402665)" />
    <linearGradient
       inkscape:collect="always"
       xlink:href="#linearGradient3943"
       id="linearGradient4402"
       gradientUnits="userSpaceOnUse"
       x1="34.30099"
       y1="3.93841"
       x2="35.52054"
       y2="3.84511"
       gradientTransform="matrix(1.0374886,0,0,0.51315642,-80.469599,4.0437836)" />
    <linearGradient
       inkscape:collect="always"
       xlink:href="#linearGradient3943"
       id="linearGradient4404"
       gradientUnits="userSpaceOnUse"
       x1="34.30099"
       y1="3.93841"
       x2="35.52054"
       y2="3.84511"
       gradientTransform="matrix(1.0374886,0,0,0.51315642,-80.381066,5.6024636)" />
    <linearGradient
       inkscape:collect="always"
       xlink:href="#linearGradient3943"
       id="linearGradient4406"
       gradientUnits="userSpaceOnUse"
       x1="34.30099"
       y1="3.93841"
       x2="35.52054"
       y2="3.84511"
       gradientTransform="matrix(1.0374886,0,0,0.51315642,-80.292533,7.1611436)" />
    <linearGradient
       inkscape:collect="always"
       xlink:href="#linearGradient3943"
       id="linearGradient4408"
       gradientUnits="userSpaceOnUse"
       x1="34.30099"
       y1="3.93841"
       x2="35.52054"
       y2="3.84511"
       gradientTransform="matrix(1.0374886,0,0,0.51315642,-80.204,8.7198236)" />
  </defs>
  <g
     id="g4437"
     transform="translate(86.997626,0)">
    <path
       d="m -41.948568,26.96085 a 13.156955,4.856357 0 0 1 -26.313909,0 13.156954,4.856358 0 1 1 26.313909,0 z"
       id="path77"
       style="fill:url(#radialGradient4380);fill-rule:evenodd"
       inkscape:connector-curvature="0" />
    <path
       d="m -48.068421,25.834146 a 7.3214475,3.070288 0 0 1 -14.642895,0 7.3214475,3.070288 0 1 1 14.642895,0 z"
       id="path79"
       inkscape:connector-curvature="0"
       style="fill:#adb0aa;fill-rule:evenodd;stroke:#4b4d4a;stroke-width:1.00000226" />
    <path
       d="m -48.505657,25.283003 a 6.8841375,2.8868997 0 0 1 -13.768275,0 6.8841375,2.8868997 0 1 1 13.768275,0 z"
       id="path81"
       inkscape:connector-curvature="0"
       style="fill:none;stroke:#7b7f7a;stroke-width:0.94027215" />
    <path
       d="m -48.505657,24.698498 a 6.8841375,2.8868997 0 0 1 -13.768275,0 6.8841375,2.8868997 0 1 1 13.768275,0 z"
       id="path83"
       style="fill:none;stroke:url(#linearGradient4382);stroke-width:0.63999683"
       inkscape:connector-curvature="0" />
    <path
       d="m -52.418635,22.597211 -0.04871,0.77934 c 0,0 3.369952,2.804978 7.01406,3.275185 1.822058,0.235103 3.704733,0.547416 5.260545,0.925466 1.555813,0.37805 2.796553,0.872557 3.214778,1.290782 0.241915,0.241915 0.351529,0.44706 0.38967,0.608859 0.03814,0.161799 0.02979,0.276526 -0.07306,0.438379 -0.205691,0.323714 -0.841578,0.754128 -1.923996,1.095947 -2.164843,0.683637 -6.016832,1.120301 -11.349138,1.120301 l 0,0.77934 c 5.374328,0 9.245824,-0.411234 11.568328,-1.144656 1.161247,-0.36671 1.967786,-0.791567 2.362374,-1.412553 0.19729,-0.310497 0.278474,-0.692405 0.194835,-1.047239 -0.08364,-0.354833 -0.299695,-0.689365 -0.608859,-0.998529 -0.683926,-0.683925 -1.977061,-1.096095 -3.580094,-1.485617 -1.603032,-0.389522 -3.519296,-0.712574 -5.357962,-0.94982 -3.677339,-0.474494 -7.062769,-3.275185 -7.062769,-3.275185 z"
       id="path85"
       inkscape:connector-curvature="0"
       style="fill:#d0d0d0;fill-rule:evenodd;stroke:#979797;stroke-width:0.40000406;stroke-linejoin:round" />
    <path
       d="m -41.948568,22.749195 a 13.156955,4.856357 0 0 1 -26.313909,0 13.156954,4.856358 0 1 1 26.313909,0 z"
       id="path87"
       style="fill:url(#radialGradient4384);fill-rule:evenodd"
       inkscape:connector-curvature="0" />
    <path
       d="m -58.820991,24.107081 7.044977,0 0,2.135423 -7.044977,0 z"
       id="path89"
       style="fill:url(#linearGradient4386);fill-rule:evenodd"
       inkscape:connector-curvature="0" />
    <path
       d="m -66.919502,1.4999945 23.05926,0 c 0.710243,0 1.265765,0.4547293 1.298965,1.0923151 l 1.038112,19.9340444 c 0.04536,0.871092 -0.702233,1.574508 -1.574509,1.574508 l -24.58442,0 c -0.872277,0 -1.619866,-0.703409 -1.574509,-1.574508 l 1.038112,-19.9340444 c 0.03139,-0.6028428 0.426689,-1.0923151 1.298965,-1.0923151 z"
       id="path91"
       style="fill:url(#linearGradient3917);fill-rule:evenodd;stroke:url(#linearGradient4388);stroke-width:1.00000226"
       inkscape:connector-curvature="0" />
    <path
       d="m -65.883269,3.5342356 -0.968096,17.1807994 21.549055,0 -1.040434,-17.1079857 -19.540532,-0.072814 z"
       id="path93"
       style="fill:url(#linearGradient4064);fill-rule:evenodd;stroke:#4263a8;stroke-width:0.50000113;stroke-linejoin:round"
       inkscape:connector-curvature="0" />
    <path
       d="m -67.623613,22.573481 24.493472,0"
       id="path95"
       style="fill:none;stroke:url(#linearGradient3923);stroke-width:0.99618351;stroke-linecap:round;stroke-opacity:0.24841003"
       inkscape:connector-curvature="0" />
    <path
       d="M -67.049107,2.287689 -43.789315,2.25823 c 0.221099,-2.806e-4 0.435885,0.1848984 0.453654,0.5085505 l 1.061376,19.3301645 c 0.04523,0.823786 -0.420649,1.3918 -1.245674,1.3918 l -23.788551,0 c -0.825025,0 -1.241496,-0.567975 -1.196965,-1.3918 l 1.031916,-19.0892861 c 0.03016,-0.557875 0.129675,-0.7195958 0.424445,-0.7199699 z"
       id="path97"
       style="fill:none;stroke:url(#linearGradient4390);stroke-width:1.00000226;stroke-opacity:0.70064003"
       inkscape:connector-curvature="0" />
    <path
       d="m -65.648679,3.8775582 -0.625444,13.9270628 c 8.60753,-1.870907 8.9012,-8.176991 19.603542,-10.245788 l -0.12584,-3.6297916 -18.852258,-0.051483 z"
       id="path99"
       style="opacity:0.53142999;fill:url(#linearGradient4392);fill-rule:evenodd"
       inkscape:connector-curvature="0" />
    <path
       d="m -36.782157,32.333847 a 16.635653,4.5808182 0 0 1 -33.271306,0 16.635653,4.5808182 0 1 1 33.271306,0 z"
       id="path101"
       style="fill:url(#radialGradient3909);fill-rule:evenodd"
       inkscape:connector-curvature="0" />
    <path
       d="m -67.401696,28.871841 24.161419,0 c 0.872276,0 0.761688,0.211545 0.851218,0.477619 l 2.209156,6.565791 c 0.08952,0.266075 0.02106,0.477619 -0.851218,0.477619 l -28.579723,0 c -0.872276,0 -0.940741,-0.211544 -0.851219,-0.477619 l 2.209157,-6.565791 c 0.08952,-0.266074 -0.02106,-0.477619 0.851218,-0.477619 z"
       id="path103"
       style="fill:url(#linearGradient3931);fill-rule:evenodd;stroke:url(#linearGradient3919);stroke-width:1.00000226"
       inkscape:connector-curvature="0" />
    <path
       d="m -67.456631,30.439609 -1.377694,3.995309 4.270845,0 0.413308,-1.584343 11.572606,0 0.428388,1.617216 4.806837,0 -1.308808,-4.028182 -18.80549,0 z"
       id="path105"
       inkscape:connector-curvature="0"
       style="fill:#7a7d77;fill-rule:evenodd" />
    <path
       d="m -63.805751,33.12611 -0.344421,1.308808 11.503721,0 -0.344422,-1.377693 -10.814878,0.06888 z"
       id="path107"
       inkscape:connector-curvature="0"
       style="fill:#777874;fill-rule:evenodd" />
    <path
       d="m -43.140374,30.439609 1.308808,3.926424 -4.270845,-0.06889 -1.171037,-3.788653 4.133074,-0.06888 z"
       id="path109"
       inkscape:connector-curvature="0"
       style="fill:#777a75;fill-rule:evenodd" />
    <path
       d="m -43.140374,30.026309 1.308808,3.926424 -4.270845,-0.06889 -1.171037,-3.788652 4.133074,-0.06889 z"
       id="path111"
       style="fill:url(#linearGradient4394);fill-rule:evenodd"
       inkscape:connector-curvature="0" />
    <path
       d="m -67.456631,29.957423 -1.377694,3.99531 4.270845,0 0.413308,-1.584344 11.572606,0 0.428388,1.617217 4.806837,0 -1.308808,-4.028183 -18.80549,0 z"
       id="path113"
       style="fill:url(#linearGradient4396);fill-rule:evenodd"
       inkscape:connector-curvature="0" />
    <path
       d="m -63.805751,32.712803 -0.344421,1.308808 11.503721,0 -0.344422,-1.377694 -10.814878,0.06889 z"
       id="path115"
       style="fill:url(#linearGradient4398);fill-rule:evenodd"
       inkscape:connector-curvature="0" />
    <path
       d="m -67.662276,29.464662 24.803135,0 2.05526,6.306856 -29.039043,0 2.180656,-6.306856 z"
       id="path117"
       style="fill:none;stroke:url(#linearGradient3941);stroke-width:0.50000113;stroke-linejoin:round"
       inkscape:connector-curvature="0" />
    <path
       d="m -43.602269,4.4236854 a 0.871169,0.43089241 0 0 1 -1.742338,0 0.871169,0.43089241 0 1 1 1.742338,0 z"
       id="path119"
       style="fill:url(#linearGradient4400);fill-rule:evenodd"
       inkscape:connector-curvature="0" />
    <path
       d="m -43.513736,6.064804 a 0.871169,0.43089241 0 0 1 -1.742338,0 0.871169,0.43089241 0 1 1 1.742338,0 z"
       id="path121"
       style="fill:url(#linearGradient4402);fill-rule:evenodd"
       inkscape:connector-curvature="0" />
    <path
       d="m -43.425203,7.623484 a 0.871169,0.43089241 0 0 1 -1.742338,0 0.871169,0.43089241 0 1 1 1.742338,0 z"
       id="path123"
       style="fill:url(#linearGradient4404);fill-rule:evenodd"
       inkscape:connector-curvature="0" />
    <path
       d="m -43.33667,9.182164 a 0.871169,0.43089241 0 0 1 -1.742338,0 0.871169,0.43089241 0 1 1 1.742338,0 z"
       id="path125"
       style="fill:url(#linearGradient4406);fill-rule:evenodd"
       inkscape:connector-curvature="0" />
    <path
       d="m -43.248137,10.740844 a 0.871169,0.43089241 0 0 1 -1.742338,0 0.871169,0.43089241 0 1 1 1.742338,0 z"
       id="path127"
       style="fill:url(#linearGradient4408);fill-rule:evenodd"
       inkscape:connector-curvature="0" />
  </g>
  <g
     id="g4465">
    <path
       d="m 30.043083,37.04613 a 13.156954,4.8563568 0 0 1 -26.3139087,0 13.156954,4.8563568 0 1 1 26.3139087,0 z"
       id="path133"
       style="fill:url(#radialGradient4317);fill-rule:evenodd"
       inkscape:connector-curvature="0" />
    <path
       d="m 23.92323,35.919425 a 7.3214475,3.070288 0 0 1 -14.6428949,0 7.3214475,3.070288 0 1 1 14.6428949,0 z"
       id="path135"
       inkscape:connector-curvature="0"
       style="fill:#adb0aa;fill-rule:evenodd;stroke:#4b4d4a;stroke-width:1.00000226" />
    <path
       d="m 23.485994,35.368283 a 6.8841372,2.8868996 0 0 1 -13.7682745,0 6.8841372,2.8868996 0 1 1 13.7682745,0 z"
       id="path137"
       inkscape:connector-curvature="0"
       style="fill:none;stroke:#7b7f7a;stroke-width:0.94027215" />
    <path
       d="m 23.485994,34.783778 a 6.8841372,2.8868996 0 0 1 -13.7682745,0 6.8841372,2.8868996 0 1 1 13.7682745,0 z"
       id="path139"
       style="fill:none;stroke:url(#linearGradient4319);stroke-width:0.63999683"
       inkscape:connector-curvature="0" />
    <path
       d="m 19.573016,32.682491 -0.04871,0.77934 c 0,0 3.369952,2.804978 7.01406,3.275185 1.822058,0.235103 3.704733,0.547416 5.260545,0.925466 1.555813,0.37805 2.796553,0.872557 3.214778,1.290782 0.241915,0.241915 0.351529,0.44706 0.38967,0.608859 0.03814,0.161799 0.02979,0.276526 -0.07306,0.438379 -0.205691,0.323714 -0.841578,0.754128 -1.923996,1.095947 -2.164843,0.683637 -6.016832,1.120301 -11.349139,1.120301 l 0,0.77934 c 5.374329,0 9.245825,-0.411234 11.568329,-1.144656 1.161247,-0.36671 1.967786,-0.791567 2.362374,-1.412553 0.19729,-0.310497 0.278474,-0.692405 0.194835,-1.047238 -0.08364,-0.354834 -0.299695,-0.689366 -0.608859,-0.99853 -0.683926,-0.683925 -1.977061,-1.096095 -3.580094,-1.485617 -1.603032,-0.389522 -3.519296,-0.712574 -5.357962,-0.94982 -3.677339,-0.474494 -7.062769,-3.275185 -7.062769,-3.275185 z"
       id="path141"
       inkscape:connector-curvature="0"
       style="fill:#d0d0d0;fill-rule:evenodd;stroke:#979797;stroke-width:0.40000406;stroke-linejoin:round" />
    <path
       d="m 30.043083,32.834475 a 13.156954,4.8563568 0 0 1 -26.3139087,0 13.156954,4.8563568 0 1 1 26.3139087,0 z"
       id="path143"
       style="fill:url(#radialGradient4321);fill-rule:evenodd"
       inkscape:connector-curvature="0" />
    <path
       d="m 13.17066,34.192361 7.044977,0 0,2.135423 -7.044977,0 z"
       id="path145"
       style="fill:url(#linearGradient4323);fill-rule:evenodd"
       inkscape:connector-curvature="0" />
    <path
       d="m 5.0721486,11.585274 23.0592604,0 c 0.710243,0 1.265765,0.45473 1.298965,1.092316 l 1.038112,19.934044 c 0.04537,0.871092 -0.702233,1.574508 -1.574509,1.574508 l -24.5844204,0 c -0.8722763,0 -1.619866,-0.703409 -1.5745084,-1.574508 L 3.7731603,12.67759 c 0.031392,-0.602843 0.4266886,-1.092316 1.2989649,-1.092316 z"
       id="path147"
       style="fill:url(#linearGradient4325);fill-rule:evenodd;stroke:url(#linearGradient4327);stroke-width:1.00000226"
       inkscape:connector-curvature="0" />
    <path
       d="m 6.1083825,13.619516 -0.9680962,17.180799 21.5490547,0 -1.040434,-17.107986 -19.5405323,-0.07281 z"
       id="path149"
       style="fill:url(#linearGradient2828);fill-rule:evenodd;stroke:#000079;stroke-width:0.50000113;stroke-linejoin:round"
       inkscape:connector-curvature="0" />
    <path
       d="m 4.3680383,32.658761 24.4934717,0"
       id="path151"
       style="fill:none;stroke:url(#linearGradient4329);stroke-width:0.99618351;stroke-linecap:round;stroke-opacity:0.24841003"
       inkscape:connector-curvature="0" />
    <path
       d="M 4.9425444,12.372969 28.202336,12.34351 c 0.221099,-2.81e-4 0.435885,0.184898 0.453654,0.50855 l 1.061376,19.330165 c 0.04523,0.823786 -0.420649,1.3918 -1.245674,1.3918 l -23.788551,0 c -0.8250249,0 -1.2414964,-0.567975 -1.1969649,-1.3918 L 4.5180924,13.092939 c 0.030161,-0.557875 0.1296744,-0.719596 0.4244442,-0.71997 z"
       id="path153"
       style="fill:none;stroke:url(#linearGradient4331);stroke-width:1.00000226;stroke-opacity:0.70064003"
       inkscape:connector-curvature="0" />
    <path
       d="M 6.3429716,13.962838 5.7175279,27.889901 C 14.325058,26.018994 14.618728,19.71291 25.32107,17.644113 L 25.19523,14.014321 6.3429716,13.962838 Z"
       id="path155"
       style="opacity:0.53142999;fill:url(#linearGradient4333);fill-rule:evenodd"
       inkscape:connector-curvature="0" />
    <path
       d="m 35.209494,42.419127 a 16.635653,4.5808182 0 0 1 -33.2713059,0 16.635653,4.5808182 0 1 1 33.2713059,0 z"
       id="path157"
       style="fill:url(#radialGradient4335);fill-rule:evenodd"
       inkscape:connector-curvature="0" />
    <path
       d="m 4.5899554,38.526817 24.1614186,0 c 0.872276,0 0.761688,0.222891 0.851218,0.503235 l 2.209156,6.91803 c 0.08952,0.280352 0.02106,0.503235 -0.851218,0.503235 l -28.579723,0 c -0.8722763,0 -0.9407413,-0.222891 -0.8512185,-0.503235 l 2.2091561,-6.91803 c 0.089523,-0.280344 -0.021058,-0.503235 0.8512186,-0.503235 z"
       id="path159"
       style="fill:url(#linearGradient4033);fill-rule:evenodd;stroke:url(#linearGradient4035);stroke-width:1.00000226"
       inkscape:connector-curvature="0" />
    <path
       d="m 4.5350197,40.524889 -1.3776939,3.995309 4.2708456,0 0.4133073,-1.584343 11.5726063,0 0.428388,1.617216 4.806837,0 -1.308808,-4.028182 -18.8054901,0 z"
       id="path161"
       inkscape:connector-curvature="0"
       style="fill:#7a7d77;fill-rule:evenodd" />
    <path
       d="m 8.1859003,43.21139 -0.3444216,1.308808 11.5037213,0 -0.344422,-1.377693 -10.8148777,0.06889 z"
       id="path163"
       inkscape:connector-curvature="0"
       style="fill:#777874;fill-rule:evenodd" />
    <path
       d="m 28.851277,40.524889 1.308808,3.926424 -4.270845,-0.06889 -1.171037,-3.788653 4.133074,-0.06889 z"
       id="path165"
       inkscape:connector-curvature="0"
       style="fill:#777a75;fill-rule:evenodd" />
    <path
       d="m 28.851277,40.111589 1.308808,3.926424 -4.270845,-0.06889 -1.171037,-3.788652 4.133074,-0.06889 z"
       id="path167"
       style="fill:url(#linearGradient4337);fill-rule:evenodd"
       inkscape:connector-curvature="0" />
    <path
       d="m 4.5350197,40.042703 -1.3776939,3.99531 4.2708456,0 0.4133073,-1.584344 11.5726063,0 0.428388,1.617217 4.806837,0 -1.308808,-4.028183 -18.8054901,0 z"
       id="path169"
       style="fill:url(#linearGradient4339);fill-rule:evenodd"
       inkscape:connector-curvature="0" />
    <path
       d="m 8.1859003,42.798083 -0.3444216,1.308808 11.5037213,0 -0.344422,-1.377694 -10.8148777,0.06889 z"
       id="path171"
       style="fill:url(#linearGradient4341);fill-rule:evenodd"
       inkscape:connector-curvature="0" />
    <path
       d="m 4.4097953,39.349356 24.5204757,0 2.031841,6.408099 -28.7081114,0 2.1558025,-6.408099 z"
       id="path173"
       style="fill:none;stroke:url(#linearGradient4043);stroke-width:0.50000113;stroke-linejoin:round"
       inkscape:connector-curvature="0" />
    <path
       d="m 28.389382,14.508965 a 0.8711688,0.43089231 0 0 1 -1.742338,0 0.8711688,0.43089231 0 1 1 1.742338,0 z"
       id="path175"
       style="fill:url(#linearGradient4343);fill-rule:evenodd"
       inkscape:connector-curvature="0" />
    <path
       d="m 28.477915,16.150084 a 0.8711688,0.43089231 0 0 1 -1.742338,0 0.8711688,0.43089231 0 1 1 1.742338,0 z"
       id="path177"
       style="fill:url(#linearGradient4345);fill-rule:evenodd"
       inkscape:connector-curvature="0" />
    <path
       d="m 28.566448,17.708764 a 0.8711688,0.43089231 0 0 1 -1.742338,0 0.8711688,0.43089231 0 1 1 1.742338,0 z"
       id="path179"
       style="fill:url(#linearGradient4347);fill-rule:evenodd"
       inkscape:connector-curvature="0" />
    <path
       d="m 28.654981,19.267444 a 0.8711688,0.43089231 0 0 1 -1.742338,0 0.8711688,0.43089231 0 1 1 1.742338,0 z"
       id="path181"
       style="fill:url(#linearGradient4349);fill-rule:evenodd"
       inkscape:connector-curvature="0" />
    <path
       d="m 28.743514,20.826124 a 0.8711688,0.43089231 0 0 1 -1.742337,0 0.8711688,0.43089231 0 1 1 1.742337,0 z"
       id="path183"
       style="fill:url(#linearGradient4351);fill-rule:evenodd"
       inkscape:connector-curvature="0" />
  </g>
</svg>
