<?xml version="1.0" encoding="UTF-8" standalone="no"?>
<!-- Created with Inkscape (http://www.inkscape.org/) -->

<svg
   xmlns:dc="http://purl.org/dc/elements/1.1/"
   xmlns:cc="http://creativecommons.org/ns#"
   xmlns:rdf="http://www.w3.org/1999/02/22-rdf-syntax-ns#"
   xmlns:svg="http://www.w3.org/2000/svg"
   xmlns="http://www.w3.org/2000/svg"
   xmlns:sodipodi="http://sodipodi.sourceforge.net/DTD/sodipodi-0.dtd"
   xmlns:inkscape="http://www.inkscape.org/namespaces/inkscape"
   width="94.11692mm"
   height="20.571354mm"
   viewBox="0 0 94.11692 20.571354"
   version="1.1"
   id="svg4898"
   inkscape:version="0.92.1 r15371"
   sodipodi:docname="CreeLogoFull.svg">
  <defs
     id="defs4892">
    <clipPath
       clipPathUnits="userSpaceOnUse"
       id="clipPath18">
      <path
         inkscape:connector-curvature="0"
         d="M 0,0 H 2845.74 V 622 H 0 Z"
         id="path20" />
    </clipPath>
  </defs>
  <sodipodi:namedview
     id="base"
     pagecolor="#ffffff"
     bordercolor="#666666"
     borderopacity="1.0"
     inkscape:pageopacity="0.0"
     inkscape:pageshadow="2"
     inkscape:zoom="1.979899"
     inkscape:cx="199.48063"
     inkscape:cy="65.485674"
     inkscape:document-units="mm"
     inkscape:current-layer="layer1"
     showgrid="false"
     fit-margin-top="0"
     fit-margin-left="0"
     fit-margin-right="0"
     fit-margin-bottom="0"
     inkscape:window-width="1920"
     inkscape:window-height="1024"
     inkscape:window-x="1916"
     inkscape:window-y="-4"
     inkscape:window-maximized="1" />
  <metadata
     id="metadata4895">
    <rdf:RDF>
      <cc:Work
         rdf:about="">
        <dc:format>image/svg+xml</dc:format>
        <dc:type
           rdf:resource="http://purl.org/dc/dcmitype/StillImage" />
        <dc:title></dc:title>
      </cc:Work>
    </rdf:RDF>
  </metadata>
  <g
     inkscape:label="Layer 1"
     inkscape:groupmode="layer"
     id="layer1"
     transform="translate(-43.655824,-189.95242)">
    <g
       id="g10"
       transform="matrix(0.33072917,0,0,-0.33072917,43.655824,210.52377)">
      <g
         id="g12"
         transform="scale(0.1)">
        <g
           id="g14">
          <g
             id="g16"
             clip-path="url(#clipPath18)">
            <path
               d="m 279.473,130.156 c -80.7,0 -109.114,60.586 -109.114,186.883 0,121.82 31.532,174.899 94.204,174.899 48.363,0 75.062,-38.172 83.738,-82.915 H 501.113 C 488.262,510.715 410.844,604.055 271.207,604.055 134.469,604.055 0,514.359 0,306.52 0,103.242 138.91,18.0273 248.176,18.0273 c 136.515,0 219.457,56.9532 257.902,188.9847 H 376.992 C 360.449,165.195 327.25,130.156 279.473,130.156"
               style="fill:#155196;fill-opacity:1;fill-rule:nonzero;stroke:none"
               id="path22"
               inkscape:connector-curvature="0" />
            <path
               d="m 813.18,367.828 h -83.75 v 118.168 h 90.613 c 49.875,0 73.145,-25.445 73.145,-61.328 0,-36.617 -33.676,-56.84 -80.008,-56.84 z m 250.37,62.777 c 0,73.321 -36.56,163.02 -224.898,163.02 H 567.945 V 28.457 H 729.43 v 231.738 h 73.32 L 882.758,28.457 H 1062.05 L 956.754,288.613 c 62.736,24.668 106.796,71.774 106.796,141.992"
               style="fill:#155196;fill-opacity:1;fill-rule:nonzero;stroke:none"
               id="path24"
               inkscape:connector-curvature="0" />
            <path
               d="m 1306.57,258.008 h 168.82 v 116.547 h -168.82 v 102.476 h 263.86 V 593.625 H 1145.05 V 28.457 h 433.6 v 121.172 h -272.08 v 108.379"
               style="fill:#155196;fill-opacity:1;fill-rule:nonzero;stroke:none"
               id="path26"
               inkscape:connector-curvature="0" />
            <path
               d="m 1805.82,149.629 v 108.379 h 168.85 v 116.547 h -168.85 v 102.476 h 263.85 V 593.625 H 1644.49 V 28.457 h 433.44 v 121.172 h -272.11"
               style="fill:#155196;fill-opacity:1;fill-rule:nonzero;stroke:none"
               id="path28"
               inkscape:connector-curvature="0" />
            <path
               d="M 2695.41,461.391 2534.71,622.094 2374,461.391 h 321.41"
               style="fill:#155196;fill-opacity:1;fill-rule:nonzero;stroke:none"
               id="path30"
               inkscape:connector-curvature="0" />
            <path
               d="M 2369.77,164.961 2534.71,0 2699.65,164.961 h -329.88"
               style="fill:#155196;fill-opacity:1;fill-rule:nonzero;stroke:none"
               id="path32"
               inkscape:connector-curvature="0" />
            <path
               d="m 2288.3,375.703 -64.63,-64.652 60.41,-60.406 h 501.25 l 60.41,60.406 -64.63,64.652 H 2288.3"
               style="fill:#155196;fill-opacity:1;fill-rule:nonzero;stroke:none"
               id="path34"
               inkscape:connector-curvature="0" />
            <path
               d="m 2751.37,28.9141 v 57.9726 h 14.23 l 14.62,-46.3008 14.16,46.3008 h 13.94 V 28.9141 h -8.81 v 48.6367 l -14.94,-48.6367 h -8.74 l -15.58,49.3476 V 28.9141 Z m -35.04,0 v 49.3476 h -18.78 v 8.625 h 47.35 v -8.625 h -18.89 V 28.9141 h -9.68"
               style="fill:#155196;fill-opacity:1;fill-rule:nonzero;stroke:none"
               id="path36"
               inkscape:connector-curvature="0" />
          </g>
        </g>
      </g>
    </g>
  </g>
</svg>
