<?xml version="1.0" encoding="UTF-8" standalone="no"?>
<svg
   xmlns:dc="http://purl.org/dc/elements/1.1/"
   xmlns:cc="http://creativecommons.org/ns#"
   xmlns:rdf="http://www.w3.org/1999/02/22-rdf-syntax-ns#"
   xmlns:svg="http://www.w3.org/2000/svg"
   xmlns="http://www.w3.org/2000/svg"
   xmlns:sodipodi="http://sodipodi.sourceforge.net/DTD/sodipodi-0.dtd"
   xmlns:inkscape="http://www.inkscape.org/namespaces/inkscape"
   viewBox="0 0 250 249.99999"
   id="svg2"
   version="1.1"
   inkscape:version="0.91 r13725"
   sodipodi:docname="Encueue2.svg"
   width="250"
   height="250"
   inkscape:export-filename="/home/simon/Incoming/Enqueue.png"
   inkscape:export-xdpi="36"
   inkscape:export-ydpi="36">
  <metadata
     id="metadata58">
    <rdf:RDF>
      <cc:Work
         rdf:about="">
        <dc:format>image/svg+xml</dc:format>
        <dc:type
           rdf:resource="http://purl.org/dc/dcmitype/StillImage" />
        <dc:title />
      </cc:Work>
    </rdf:RDF>
  </metadata>
  <defs
     id="defs56">
    <filter
       inkscape:label="Apparition"
       inkscape:menu="Blurs"
       inkscape:menu-tooltip="Edges are partly feathered out"
       style="color-interpolation-filters:sRGB"
       id="filter4231">
      <feMorphology
         radius="4"
         in="SourceGraphic"
         result="result0"
         id="feMorphology4233" />
      <feGaussianBlur
         in="result0"
         stdDeviation="8"
         result="result91"
         id="feGaussianBlur4235" />
      <feComposite
         operator="in"
         in="SourceGraphic"
         in2="result91"
         id="feComposite4237"
         result="fbSourceGraphic" />
      <feColorMatrix
         result="fbSourceGraphicAlpha"
         in="fbSourceGraphic"
         values="0 0 0 -1 0 0 0 0 -1 0 0 0 0 -1 0 0 0 0 1 0"
         id="feColorMatrix4239" />
      <feMorphology
         id="feMorphology4241"
         radius="4"
         in="fbSourceGraphic"
         result="result0" />
      <feGaussianBlur
         id="feGaussianBlur4243"
         in="result0"
         stdDeviation="8"
         result="result91" />
      <feComposite
         id="feComposite4245"
         in2="result91"
         operator="in"
         in="fbSourceGraphic" />
    </filter>
    <filter
       style="color-interpolation-filters:sRGB"
       inkscape:label="Blur"
       id="filter4273">
      <feGaussianBlur
         stdDeviation="3.18 2.39"
         result="blur"
         id="feGaussianBlur4275" />
    </filter>
    <filter
       id="filter5124"
       style="color-interpolation-filters:sRGB"
       inkscape:menu-tooltip="Soft bevel, slightly depressed middle"
       inkscape:menu="Bevels"
       inkscape:label="Button">
      <feGaussianBlur
         id="feGaussianBlur5126"
         result="result0"
         in="SourceAlpha"
         stdDeviation="2.3" />
      <feMorphology
         id="feMorphology5128"
         result="result1"
         radius="6.6"
         in="SourceAlpha" />
      <feGaussianBlur
         id="feGaussianBlur5130"
         in="result1"
         stdDeviation="8.9" />
      <feColorMatrix
         id="feColorMatrix5132"
         result="result91"
         values="1 0 0 0 0 0 1 0 0 0 0 0 1 0 0 0 0 0 0.3 0" />
      <feComposite
         id="feComposite5134"
         in2="result91"
         result="result2"
         operator="out"
         in="result0" />
      <feGaussianBlur
         id="feGaussianBlur5136"
         result="result4"
         stdDeviation="1.7" />
      <feDiffuseLighting
         id="feDiffuseLighting5138"
         surfaceScale="10">
        <feDistantLight
           id="feDistantLight5140"
           elevation="45"
           azimuth="225" />
      </feDiffuseLighting>
      <feBlend
         id="feBlend5142"
         mode="multiply"
         in2="SourceGraphic" />
      <feComposite
         id="feComposite5144"
         result="result3"
         operator="in"
         in2="SourceAlpha" />
      <feSpecularLighting
         id="feSpecularLighting5146"
         specularExponent="17.89999962"
         surfaceScale="5"
         in="result4">
        <feDistantLight
           id="feDistantLight5148"
           elevation="45"
           azimuth="225" />
      </feSpecularLighting>
      <feComposite
         id="feComposite5150"
         operator="atop"
         in2="result3" />
    </filter>
    <linearGradient
       y2="59.48378"
       y1="16.12544"
       x2="0"
       id="linearGradient1480"
       gradientUnits="userSpaceOnUse"
       gradientTransform="matrix(0,1,1,0,-6.70302,7.12823)">
      <stop
         id="stop4283"
         stop-opacity=".50836"
         stop-color="#3ec549"
         offset="0" />
      <stop
         id="stop4285"
         stop-opacity=".11706"
         stop-color="#4fe756"
         offset="1" />
    </linearGradient>
    <linearGradient
       y2="62.97424"
       y1="16.25"
       x2="20.35306"
       x1="28.41412"
       id="linearGradient1483"
       gradientUnits="userSpaceOnUse"
       gradientTransform="matrix(0,1,1,0,-6.64063,7.61641)">
      <stop
         id="stop4288"
         stop-opacity=".58863"
         stop-color="#56d760"
         offset="0" />
      <stop
         id="stop4290"
         stop-opacity=".39216"
         stop-color="#18b01f"
         offset="1" />
    </linearGradient>
    <linearGradient
       y2="62.81013"
       y1="15.40625"
       x2="16.5042"
       x1="32.38206"
       id="linearGradient1486"
       gradientUnits="userSpaceOnUse"
       gradientTransform="matrix(0,1,1,0,-6.62693,7.43473)">
      <stop
         id="stop4293"
         stop-color="#179907"
         offset="0" />
      <stop
         id="stop4295"
         stop-color="#0f7402"
         offset="1" />
    </linearGradient>
    <linearGradient
       y2="42.61263"
       y1="34.68702"
       x2="44.70229"
       x1="5.06804"
       id="linearGradient1489"
       gradientUnits="userSpaceOnUse"
       gradientTransform="matrix(0,1,1,0,-6.62693,7.43473)">
      <stop
         id="stop4298"
         stop-color="#1b611f"
         offset="0" />
      <stop
         id="stop4300"
         stop-color="#103f14"
         offset="1" />
    </linearGradient>
  </defs>
  <sodipodi:namedview
     pagecolor="#ffffff"
     bordercolor="#666666"
     borderopacity="1"
     objecttolerance="10"
     gridtolerance="10"
     guidetolerance="10"
     inkscape:pageopacity="0"
     inkscape:pageshadow="2"
     inkscape:window-width="1889"
     inkscape:window-height="1003"
     id="namedview54"
     showgrid="false"
     fit-margin-top="0"
     fit-margin-left="0"
     fit-margin-right="0"
     fit-margin-bottom="0"
     inkscape:zoom="0.23229755"
     inkscape:cx="-1350.7017"
     inkscape:cy="186.26084"
     inkscape:window-x="31"
     inkscape:window-y="29"
     inkscape:window-maximized="1"
     inkscape:current-layer="svg2" />
  <g
     id="g16"
     transform="translate(-103.03028,-297.15354)">
    <path
       style="fill:#ececec;stroke:#ececec;stroke-width:2;stroke-linecap:round;stroke-linejoin:round"
       inkscape:connector-curvature="0"
       id="path18"
       d="m 164.08881,525.77651 42.89904,20.37704 70.78341,-50.40637 -41.82656,-18.23209 z" />
    <path
       style="fill:#ffffff;stroke:#000000;stroke-width:2;stroke-linecap:round;stroke-linejoin:round"
       inkscape:connector-curvature="0"
       id="path20"
       d="m 182.3209,449.63071 -78.29073,46.11647 65.55112,30.78767 69.58083,-50.09224 z" />
    <path
       style="fill:#ffffff;stroke:#000000;stroke-width:2;stroke-linecap:round;stroke-linejoin:round"
       inkscape:connector-curvature="0"
       id="path22"
       d="m 182.85714,443.19586 -78.29074,46.11647 63.27607,30.02932 71.85589,-49.33389 z" />
    <path
       style="fill:#ffffff;stroke:#000000;stroke-width:2;stroke-linecap:round;stroke-linejoin:round"
       inkscape:connector-curvature="0"
       id="path24"
       d="m 182.32091,435.68853 -78.29074,46.11647 63.27607,30.02932 71.85589,-49.33389 z" />
    <path
       style="fill:#ffffff;stroke:#000000;stroke-width:2;stroke-linecap:round;stroke-linejoin:round"
       inkscape:connector-curvature="0"
       id="path26"
       d="m 182.85714,428.18119 -78.29074,46.11647 63.27607,30.02932 71.85589,-49.33389 z" />
    <path
       style="fill:#ffffff;stroke:#000000;stroke-width:2;stroke-linecap:round;stroke-linejoin:round"
       inkscape:connector-curvature="0"
       id="path28"
       d="m 183.67936,421.32536 -78.77282,45.28809 62.95579,30.69509 72.37227,-48.5732 z" />
    <path
       style="fill:#ffffff;stroke:#000000;stroke-width:2;stroke-linecap:round;stroke-linejoin:round"
       inkscape:connector-curvature="0"
       id="path30"
       d="m 184.21559,414.35427 -78.7728,45.28809 62.95577,30.69509 72.37227,-48.5732 z" />
    <path
       style="fill:#ffffff;stroke:#000000;stroke-width:2;stroke-linecap:round;stroke-linejoin:round"
       inkscape:connector-curvature="0"
       id="path32"
       d="m 184.21559,406.84694 c -90.71027,50.26388 -63.97592,35.73072 -79.53115,44.52974 l 63.71412,31.45344 72.37227,-48.5732 z" />
  </g>
  <g
     id="g46"
     transform="translate(-353.6717,-633.33595)">
    <path
       style="fill:#ececec;stroke:#ececec;stroke-width:2;stroke-linecap:round;stroke-linejoin:round"
       inkscape:connector-curvature="0"
       id="path48"
       d="m 515.32467,709.70613 15.01467,8.5798 71.54176,-51.16472 -14.70054,-5.6765 z" />
    <path
       style="fill:#ffffff;stroke:#000000;stroke-width:2;stroke-linecap:round;stroke-linejoin:round"
       inkscape:connector-curvature="0"
       id="path50"
       d="m 534.62924,635.70528 -78.29073,46.11647 63.27606,30.02932 71.85589,-49.33389 z" />
  </g>
  <g
     id="g4326"
     transform="matrix(0,1.8173608,1.4210496,0,21.22452,27.239271)">
    <path
       id="path4302"
       d="m 24.52932,18.59098 14.0625,0 c 0.0488,-1 0,-5 0,-5 0.0091,-0.44725 0.11732,-0.83036 0.53125,-1 0.41393,-0.16964 0.86712,-0.09345 1.1875,0.21875 l 16,16 c 0.4218,0.43543 0.4218,1.12707 0,1.5625 l -16,16 c -0.32038,0.3122 -0.77357,0.41964 -1.1875,0.25 -0.41393,-0.16964 -0.52212,-0.584 -0.53125,-1.03125 l 0,-5 -14.102948,0 c -2.28125,-0.15625 -3.28125,0.84375 -3.28125,3.84375 l 0,6.0625 c 0,0 0,1 -1,1 -6,0 -5.834552,-0.0625 -11.834552,-0.0625 -1,0 -1,-1 -1,-1 l 0,-12.5 c 0,-14.5 8,-19.5 17.15625,-19.34375 z"
       inkscape:connector-curvature="0"
       style="fill:url(#linearGradient1489)"
       sodipodi:nodetypes="cccsccccscccscsscsc" />
    <path
       id="path4304"
       d="m 8.77932,37.87223 c 0.059939,-7.002148 1.91619,-11.44522 4.75,-14.1875 2.83381,-2.74228 6.70424,-3.88634 11.03125,-3.8125 l 0.03125,0 14.0625,0 c 0.71842,8.3e-4 1.31039,-0.56361 1.34375,-1.28125 0.05031,-1.031 0.01155,-3.43865 0,-4.3125 l 15.25,15.25 -15.25,15.28125 c 6e-5,-0.83265 0,-3.41962 0,-4.28125 6e-5,-0.74216 -0.60159,-1.34381 -1.34375,-1.34375 l -13.879125,0 -0.197809,0 c -1.318088,0 -2.557221,-0.06888 -3.5,1.1875 -0.678136,0.903708 -0.932563,2.554439 -1.125,4 -0.247254,1.857348 0,5.71875 0,5.71875 -5.7622,-0.0023 -5.497654,-0.06025 -11.2771242,-0.0625 z"
       inkscape:connector-curvature="0"
       style="fill:url(#linearGradient1486)"
       sodipodi:nodetypes="ssccccccccccsaaccs" />
    <path
       id="path4306"
       d="m 9.60937,38.05391 c 0,-6.84896 1.85689,-11.036 4.5,-13.59375 2.64311,-2.55775 6.26778,-3.63366 10.4375,-3.5625 l 0.03125,0 14.0625,0 c 1.16103,0.0013 2.13359,-0.93398 2.1875,-2.09375 0.02899,-0.59411 0.0066,-1.4212 0,-2.3125 l 13.21875,13.21875 -13.21875,13.25 c -10e-6,-0.90081 0,-1.79719 0,-2.25 9e-5,-1.19834 -0.98916,-2.18759 -2.1875,-2.1875 l -7.78125,0 -0.0625,0 -6.253963,0 c -1.46916,-0.08119 -3.06433,0.23337 -4.15625,1.46875 -1.08312,1.22543 -1.34375,2.83093 -1.34375,4.5625 l 0,4.875 c -5.19688,-0.0067 -4.213747,-0.0558 -9.433537,-0.0625 z"
       inkscape:connector-curvature="0"
       style="fill:url(#linearGradient1483)"
       sodipodi:nodetypes="ssccccccccccccssccs" />
    <path
       id="path4308"
       d="m 9.63455,39.7902 c -0.26571,-6.44027 0.59302,-11.68118 4.3528,-15.2467 2.68193,-2.54336 5.50382,-3.64289 10.62214,-3.57152 l 0.03125,0 14.0625,0 c 1.12936,0.0013 2.07254,-0.90288 2.125,-2.03125 0.03043,-0.62345 0.01152,-1.5443 0,-2.4375 l 13.2142,13.2142 -9.79318,9.79318 C 42.31729,31.62835 35.16892,26.12107 26.29699,26.12107 c -7.15242,0 -12.29838,2.10475 -16.66243,13.66913 z"
       inkscape:connector-curvature="0"
       style="fill:url(#linearGradient1480)" />
  </g>
</svg>
