<?xml version="1.0" encoding="UTF-8" standalone="no"?>
<!DOCTYPE svg PUBLIC "-//W3C//DTD SVG 20010904//EN" "http://www.w3.org/TR/2001/REC-SVG-20010904/DTD/svg10.dtd">
<svg viewBox="0 0 500 500" xmlns="http://www.w3.org/2000/svg">
<path d="m177.5,471.25c0,0-72.5-10-90-21.25s-27.5-12.5-36.25-37.5c-2.5-27.5-10-41.25 0-60s33.75-35 48.75-51.25 167.5-127.5 177.5-132.5c5-1.25 17.5-11.25 38.75-15 20-2.5 38.75-6.25 65-6.25s55,8.75 71.25,13.75l16.25,5" fill="#88a3bd" fill-rule="evenodd" stroke="#000" stroke-linejoin="round" stroke-width="11.29865" transform="matrix(1.09013,0,0,1.12277,-42.91366,-67.94697)"/>
<path d="m163.75,348.75c15-16.25 180-157.5 228.75-171.25s71.25-20 80-7.5 17.5,30 17.5,41.25-3.75,46.25-3.75,46.25-283.75,207.5-290,208.75-13.75,13.75-25-2.5-26.25-22.5-26.25-52.5c3.75-35 6.25-50 18.75-62.5z" fill="#6f93b4" fill-rule="evenodd" stroke="#000" stroke-linejoin="round" stroke-width="11.29865" transform="matrix(1.09013,0,0,1.12277,-42.91366,-67.94697)"/>
<path d="m186.179,233.645c2.5,0 78.821,28.855 78.821,28.855s73.75-56.25 105-75c33.75-11.25 87.5-23.75 87.5-23.75s-57.5-18.75-75-17.5c-5,0-75,6.25-85,11.25-15,5-110.071,77.395-111.321,76.145z" fill="#ffa3bd" fill-rule="evenodd" stroke="#000" stroke-linejoin="round" stroke-width="9.03892" transform="matrix(1.09013,0,0,1.12277,-42.91366,-67.94697)"/>
<path d="m265,263.75 92.5,87.5c0,0 79.37-57.773 128.647-93.613 9.69-24.59 3.853-42.637 2.603-52.637s-12.5-41.25-27.5-40c-22.5,0-68.75,10-101.25,25-30,21.25-97.5,76.25-95,73.75z" fill="#e19dae" fill-rule="evenodd" stroke="#000" stroke-linejoin="round" stroke-width="9.03892" transform="matrix(1.09013,0,0,1.12277,-42.91366,-67.94697)"/>
<path d="m51.25,411.2732 100.01353,20.0232 329.97294-247.47681c0,0 6.26353,11.18041 6.26353,12.43041s-331.25,250-331.25,250l-100-21.25-5-13.7268z" fill="#fff" fill-rule="evenodd" stroke="#000" stroke-linejoin="round" stroke-width="9.03892" transform="matrix(1.09013,0,0,1.12277,-42.91366,-67.94697)"/>
<path d="m150,435 7.5,12.5" fill="none" stroke="#000" stroke-linejoin="round" stroke-width="9.03892" transform="matrix(1.09013,0,0,1.12277,-42.91366,-67.94697)"/>
<path d="m26.25,396.25c6.25-5 20-1.25 32.5-1.25s28.75,3.75 37.5,12.5 10,5 20,21.25 31.25,21.25 12.5,21.25-67.5-10-76.25-17.5-11.25-3.75-23.75-18.75c-11.25-32.5-2.5-16.25-2.5-17.5z" fill-opacity=".25" fill-rule="evenodd"/>
<path d="m98.9612,353.486c-30.8451-2.57-64.2606-6.426-80.9682-20.563 5.1408-14.138 125.95-116.954 125.95-116.954s-137.51695,114.383-44.9818,137.517z" fill="#fff" fill-opacity=".5" fill-rule="evenodd"/>
</svg>
