<?xml version="1.0" encoding="UTF-8" standalone="no"?>
<svg width="293.14" xmlns="http://www.w3.org/2000/svg" xmlns:xlink="http://www.w3.org/1999/xlink" height="293.14">
 <defs>
  <radialGradient id="radialGradient1905" fx="238.57" fy="262.36" gradientUnits="userSpaceOnUse" cy="288.08" cx="267.14" r="58.571">
   <stop id="stop2764" stop-color="#fff" offset="0"/>
   <stop id="stop2766" stop-color="#fff" stop-opacity="0" offset="1"/>
  </radialGradient>
 </defs>
 <g stroke-linejoin="round">
  <path id="path1893" fill="#b3b3b3" d="m293.14 146.57a146.57 146.57 0 1 1 -293.14 0 146.57 146.57 0 1 1 293.14 0z"/>
  <path id="path1895" fill="url(#radialGradient1905)" d="m293.14 146.57a146.57 146.57 0 1 1 -293.14 0 146.57 146.57 0 1 1 293.14 0z"/>
  <path id="path1897" fill="#8e2222" d="m218.53 143.57a70.962 70.962 0 1 1 -141.92 0 70.962 70.962 0 1 1 141.92 0z"/>
  <path id="path1899" fill="#7c7c3b" d="m207.45 176.96c-3.4545 5.2265-53.057-36.311-57.087-31.444-4.0304 4.8662 52.783 37.697 48.221 42.15-4.562 4.4526-43.679-45.65-48.723-41.66-5.0437 3.9901 43.097 46.954 37.627 50.438-5.4701 3.484-32.392-52.994-38.228-50.055-5.8366 2.9397 31.528 54.159 25.388 56.522-6.1392 2.3632-19.689-58.023-26.064-56.262-6.3744 1.7607 18.58 58.996 12.04 60.135-6.5399 1.139-6.126-60.515-12.76-60.01-6.6337 0.50482 4.8208 61.256-1.834 61.121-6.6548-0.13486 7.705-60.362 1.102-61.136-6.603-0.77309-9.1493 60.838-15.628 59.435-6.4789-1.4028 21.199-57.572 14.916-59.589-6.2837-2.0172-22.72 57.761-28.739 55.151-6.0198-2.6096 33.767-52.265 28.077-55.438-5.6898-3.1732-35.297 52.16-40.594 48.458-5.2976-3.7021 44.859-44.674 40.012-48.865-4.8473-4.1905-46.331 44.279-50.675 39.646-4.3438-4.633 53.99-35.131 50.197-40.155-3.7928-5.0247-55.341 34.463-58.541 29.101-3.2003-5.3614 60.762-24.052 58.189-29.691-2.5726-5.6393-61.932 23.14-63.849 17.285-1.9168-5.8554 64.878-11.922 63.638-17.929-1.24-6.0074-65.816 10.807-66.366 4.7134-0.54965-6.0936 66.159 0.72923 66.306-5.3837 0.14679-6.1129-66.824-1.999-65.983-8.0643 0.84161-6.0653 64.548 13.348 66.075 7.3971 1.5272-5.9512-64.912-14.718-62.716-20.49 2.196-5.7721 60.116 25.384 62.957 19.855 2.8409-5.5296-60.162-26.793-56.707-32.019 3.4545-5.2265 53.057 36.311 57.087 31.444 4.0304-4.8662-52.783-37.697-48.221-42.15 4.562-4.4526 43.679 45.65 48.723 41.66 5.0437-3.9901-43.097-46.954-37.627-50.438 5.4701-3.484 32.392 52.994 38.228 50.055 5.8366-2.9397-31.528-54.159-25.388-56.522 6.1392-2.3632 19.689 58.023 26.064 56.262 6.3745-1.7607-18.58-58.996-12.04-60.135 6.5399-1.139 6.126 60.515 12.76 60.01 6.6337-0.50487-4.8208-61.256 1.834-61.121 6.6548 0.13486-7.705 60.362-1.102 61.136 6.603 0.77309 9.1493-60.838 15.628-59.435 6.4788 1.4028-21.199 57.572-14.916 59.589 6.2837 2.0173 22.72-57.761 28.739-55.151 6.0198 2.6096-33.767 52.265-28.077 55.438 5.6898 3.1732 35.297-52.16 40.594-48.458 5.2976 3.7022-44.859 44.674-40.012 48.865 4.8473 4.1905 46.331-44.279 50.675-39.646 4.3438 4.633-53.99 35.131-50.198 40.155 3.7928 5.0247 55.341-34.463 58.541-29.101 3.2003 5.3614-60.762 24.052-58.189 29.691 2.5726 5.6393 61.932-23.14 63.849-17.285 1.9168 5.8554-64.878 11.922-63.638 17.929 1.24 6.0074 65.816-10.807 66.366-4.7134 0.54962 6.0936-66.159-0.72923-66.306 5.3837-0.14682 6.1129 66.824 1.999 65.983 8.0643-0.84161 6.0653-64.548-13.348-66.075-7.3971-1.5272 5.9513 64.912 14.718 62.716 20.49-2.1961 5.772-60.116-25.384-62.957-19.855-2.8408 5.5296 60.162 26.793 56.707 32.019z"/>
  <path id="path1901" d="m177.62 146.57a31.046 31.046 0 1 1 -62.092 0 31.046 31.046 0 1 1 62.092 0z"/>
  <path id="path1903" d="m40.379 55.012a141.26 142 0 0 1 42.424 -33.847l64.971 126.08-107.4-92.236z" fill-opacity=".502" stroke-width="4.038" fill="#fff"/>
 </g>
</svg>
