<?xml version="1.0" encoding="UTF-8" standalone="no"?>
<svg
   xmlns:dc="http://purl.org/dc/elements/1.1/"
   xmlns:cc="http://creativecommons.org/ns#"
   xmlns:rdf="http://www.w3.org/1999/02/22-rdf-syntax-ns#"
   xmlns:svg="http://www.w3.org/2000/svg"
   xmlns="http://www.w3.org/2000/svg"
   xmlns:sodipodi="http://sodipodi.sourceforge.net/DTD/sodipodi-0.dtd"
   xmlns:inkscape="http://www.inkscape.org/namespaces/inkscape"
   viewBox="0 0 28.5 28.28125"
   id="svg2"
   version="1.1"
   inkscape:version="0.91 r13725"
   sodipodi:docname="Floppy.svg"
   width="28.5"
   height="28.28125">
  <metadata
     id="metadata76">
    <rdf:RDF>
      <cc:Work
         rdf:about="">
        <dc:format>image/svg+xml</dc:format>
        <dc:type
           rdf:resource="http://purl.org/dc/dcmitype/StillImage" />
        <dc:title></dc:title>
      </cc:Work>
    </rdf:RDF>
  </metadata>
  <sodipodi:namedview
     pagecolor="#ffffff"
     bordercolor="#666666"
     borderopacity="1"
     objecttolerance="10"
     gridtolerance="10"
     guidetolerance="10"
     inkscape:pageopacity="0"
     inkscape:pageshadow="2"
     inkscape:window-width="1670"
     inkscape:window-height="910"
     id="namedview74"
     showgrid="false"
     fit-margin-top="0"
     fit-margin-left="0"
     fit-margin-right="0"
     fit-margin-bottom="0"
     inkscape:zoom="6.0368973"
     inkscape:cx="-20.898982"
     inkscape:cy="18.932368"
     inkscape:window-x="31"
     inkscape:window-y="29"
     inkscape:window-maximized="0"
     inkscape:current-layer="svg2" />
  <defs
     id="defs4">
    <linearGradient
       gradientUnits="userSpaceOnUse"
       id="linearGradient9830"
       x2="0"
       y1="27.25079"
       y2="2.00613"
       gradientTransform="translate(-1.2243,-1.58991)">
      <stop
         offset="0"
         id="stop7" />
      <stop
         offset="1"
         stop-color="#505050"
         id="stop9" />
    </linearGradient>
    <linearGradient
       gradientUnits="userSpaceOnUse"
       id="linearGradient9815"
       x1="13.41109"
       x2="13.50617"
       y1="3.11326"
       y2="14.15686"
       gradientTransform="translate(-1.2243,-1.58991)">
      <stop
         offset="0"
         stop-color="#fff"
         stop-opacity="0"
         id="stop12" />
      <stop
         offset="1"
         id="stop14" />
    </linearGradient>
    <linearGradient
       gradientUnits="userSpaceOnUse"
       id="linearGradient9828"
       x2="0"
       y1="350.79077"
       y2="363.48038"
       gradientTransform="translate(-210.5312,-334.28121)">
      <stop
         offset="0"
         stop-color="#fff"
         id="stop17" />
      <stop
         offset="1"
         stop-color="#cfcfcf"
         id="stop19" />
    </linearGradient>
    <linearGradient
       gradientUnits="userSpaceOnUse"
       id="linearGradient3725"
       x1="20.04023"
       x2="43.964161"
       y1="11.64354"
       y2="51.880859">
      <stop
         offset="0"
         stop-color="#3c44dc"
         id="stop22" />
      <stop
         offset="1"
         stop-color="#0d1f6a"
         id="stop24" />
    </linearGradient>
    <linearGradient
       gradientUnits="userSpaceOnUse"
       id="linearGradient3721"
       x1="32.067989"
       x2="32.190121"
       y1="23.938931"
       y2="56.061069">
      <stop
         offset="0"
         stop-color="#ced1f2"
         id="stop27" />
      <stop
         offset="1"
         stop-color="#1d42c9"
         stop-opacity="0"
         id="stop29" />
    </linearGradient>
    <radialGradient
       cx="-18.29966"
       cy="0.40529999"
       gradientTransform="matrix(-0.131601,1.116951,-1.057619,-0.124616,33.35703,39.58492)"
       gradientUnits="userSpaceOnUse"
       id="radialGradient3716"
       r="17.099951">
      <stop
         offset="0"
         stop-color="#d2d0f3"
         id="stop32" />
      <stop
         offset="1"
         stop-color="#1c3db8"
         id="stop34" />
    </radialGradient>
  </defs>
  <path
     inkscape:connector-curvature="0"
     style="fill:url(#linearGradient9830)"
     id="path38"
     d="M 1,0 C 0.446,0 0,0.446 0,1 l 0,26.28125 c 0,0.554 0.446,1 1,1 l 26.5,0 c 0.554,0 1,-0.446 1,-1 L 28.5,1 c 0,-0.554 -0.446,-1 -1,-1 L 1,0 Z m 0.09375,25.75 1.28125,0 c 0.0554,0 0.125,0.03835 0.125,0.09375 l 0,1.21875 c -1e-5,0.05541 -0.0696,0.09375 -0.125,0.09375 l -1.28125,0 c -0.05541,10e-6 -0.125,-0.03835 -0.125,-0.09375 l 0,-1.21875 c 0,-0.05541 0.0696,-0.09375 0.125,-0.09375 z m 25,0.15625 1.3125,0 C 27.46165,25.90625 27.5,25.9446 27.5,26 l 0,1.25 c -10e-6,0.05541 -0.03835,0.09375 -0.09375,0.09375 l -1.3125,0 C 26.03834,27.34376 26,27.3054 26,27.25 L 26,26 c 0,-0.05541 0.03835,-0.09375 0.09375,-0.09375 z"
     inkscape:export-filename="/home/simon/Incoming/SaveAs.png"
     inkscape:export-xdpi="315.79001"
     inkscape:export-ydpi="315.79001" />
  <path
     style="fill:#c2c2c2"
     inkscape:connector-curvature="0"
     id="path40"
     d="m 8.5,0.125 c -0.3324,0 -0.625,0.26134 -0.625,0.59375 l 0,10.53125 c 0,0.3324 0.29259,0.625 0.625,0.625 l 13.59375,0 c 0.3324,0 0.625,-0.29259 0.625,-0.625 l 0,-10.53125 c 0,-0.3324 -0.29261,-0.59375 -0.625,-0.59375 L 8.5,0.125 Z m 9.78142,0.375 2.125,0 c 0.3324,0 0.59375,0.26135 0.59375,0.59375 l 0,9.6296 c 0,0.33241 -0.26135,0.59375 -0.59375,0.59375 l -2.125,0 c -0.33241,0 -0.59375,-0.26135 -0.59375,-0.59375 l 0,-9.6296 C 17.68767,0.76134 17.94902,0.5 18.28142,0.5 Z"
     inkscape:export-filename="/home/simon/Incoming/SaveAs.png"
     inkscape:export-xdpi="315.79001"
     inkscape:export-ydpi="315.79001" />
  <path
     inkscape:connector-curvature="0"
     style="opacity:0.48558003;fill:url(#linearGradient9815)"
     id="path42"
     d="m 3.53125,0 0,11.65625 c 0,0.3324 0.26134,0.625 0.59375,0.625 l 20.59375,0 c 0.3324,0 0.59375,-0.2926 0.59375,-0.625 l 0,-11.65625 -0.34375,0 0,11.34375 c 10e-6,0.33241 -0.26135,0.59375 -0.59375,0.59375 l -19.8125,0 c -0.33241,0 -0.625,-0.26135 -0.625,-0.59375 L 3.9375,0 3.53125,0 Z"
     inkscape:export-filename="/home/simon/Incoming/SaveAs.png"
     inkscape:export-xdpi="315.79001"
     inkscape:export-ydpi="315.79001" />
  <path
     d="m 5.55335,15.84718 18,0 a 1,1 0 0 1 1,1 l 0,10.21 a 1,1 0 0 1 -1,1 l -18,0 a 1,1 0 0 1 -1,-1 l 0,-10.21 a 1,1 0 0 1 1,-1"
     id="path46"
     style="fill:url(#linearGradient9828)"
     inkscape:connector-curvature="0"
     inkscape:export-filename="/home/simon/Incoming/SaveAs.png"
     inkscape:export-xdpi="315.79001"
     inkscape:export-ydpi="315.79001" />
  <g
     transform="translate(-210.34098,-335.35915)"
     id="g48"
     style="fill:#505050"
     inkscape:export-filename="/home/simon/Incoming/SaveAs.png"
     inkscape:export-xdpi="315.79001"
     inkscape:export-ydpi="315.79001">
    <path
       d="m 216.85866,353.36349 16.07134,0 0,0.20872 -16.07134,0 z"
       id="path50"
       inkscape:connector-curvature="0" />
    <path
       d="m 216.85866,355.36349 16.07134,0 0,0.20872 -16.07134,0 z"
       id="path52"
       inkscape:connector-curvature="0" />
    <path
       d="m 216.85866,357.36349 16.07134,0 0,0.20872 -16.07134,0 z"
       id="path54"
       inkscape:connector-curvature="0" />
    <path
       d="m 216.85866,359.36349 16.07134,0 0,0.20872 -16.07134,0 z"
       id="path56"
       inkscape:connector-curvature="0" />
    <path
       d="m 216.85866,361.36349 16.07134,0 0,0.20872 -16.07134,0 z"
       id="path58"
       inkscape:connector-curvature="0" />
    <path
       d="m 216.85866,361.36349 16.07134,0 0,0.20872 -16.07134,0 z"
       id="path60"
       inkscape:connector-curvature="0" />
  </g>
  <path
     d="m 7.5767128,26.831489 c -0.290427,-0.404197 -0.7256613,-0.757366 -0.8418397,-1.230168 -0.03015,-0.122402 1.441325,1.55929 1.1757909,1.074789 -0.1619182,-0.295442 -1.6429516,-2.201876 -0.541625,-1.447075 0.1697555,0.116314 1.485843,2.252282 0.7062756,0.829856 -0.6145299,-1.12129 -0.1851362,-1.408403 0.467529,-0.217528 0.1710291,0.312064 -0.8477256,-1.368477 -1.2796311,-1.87602 -0.053433,-0.06273 0.7841111,0.498956 1.5771821,1.04249 0.00531,0.0037 -0.329713,-1.147393 -0.3736398,-1.293548 -0.066555,-0.221475 0.4882082,0.140619 0.7366708,0.120633 0.2049093,-0.01644 -0.1354251,-0.364969 -0.1362353,-0.554461 -2.284e-4,-0.05301 0.563809,0.906949 0.6447949,2.094157 0.058814,0.862902 -0.8494731,0.003 -1.1056812,-0.335099 -0.4339718,-0.572727 1.543212,-0.181426 2.409065,-0.03963 0.839822,0.137512 0.08354,-1.224036 -0.07343,-1.510465 -0.214842,-0.39201 0.827906,1.204738 0.437121,0.491702 -0.571355,-1.042514 0.603823,0.336947 1.30737,0.550181 0.329138,0.09975 0.09296,-0.637961 0.06281,-0.956006 -0.05468,-0.576781 -0.159656,-0.35629 0.501252,-0.155999 0.05343,0.0162 -0.170449,-0.631604 0.601093,-0.279674 0.303107,0.138256 -0.114261,-0.650436 0.600449,-0.433837 0.532203,0.161295 0.68027,-0.38687 0.934388,-0.589211 0.289168,-0.230234 0.438683,0.331265 0.700948,-0.403359 0.01463,-0.04118 0.792351,0.103331 1.003168,-0.157827 0.195789,-0.242492 0.168112,-1.101656 0.06083,-1.418455 -0.02899,-0.08556 0.634224,0.09556 0.768394,-0.280294 0.293559,-0.822286 -0.559014,-1.60631 0.663917,-1.235676 1.146517,0.347476 1.42397,-0.111123 1.200213,-1.021818 -0.01986,-0.08065 0.384813,1.852736 0.44575,2.49569 0.05317,0.560997 -0.512002,0.272716 -0.167958,-0.153536 0.305988,-0.37903 1.449575,-0.07535 1.906489,-0.191961 0.778598,-0.198722 0.09631,-1.12606 0.596457,-1.358766 0.213189,-0.09919 0.06534,-0.106247 0.132905,-0.216299"
     id="path62"
     inkscape:connector-curvature="0"
     style="fill:none;stroke:#0000ff;stroke-width:0.377;stroke-opacity:1;stroke-miterlimit:4;stroke-dasharray:none"
     inkscape:export-filename="/home/simon/Incoming/SaveAs.png"
     inkscape:export-xdpi="315.79001"
     inkscape:export-ydpi="315.79001" />
  <path
     style="opacity:0.22595999;fill:#4d4d4d"
     inkscape:connector-curvature="0"
     id="path64"
     d="m 1.08205,24.32079 1.3026,0 a 0.1,0.1 0 0 1 0.1,0.1 l 0,1.2343 a 0.1,0.1 0 0 1 -0.1,0.1 l -1.3026,0 a 0.1,0.1 0 0 1 -0.1,-0.1 l 0,-1.2343 a 0.1,0.1 0 0 1 0.1,-0.1"
     inkscape:export-filename="/home/simon/Incoming/SaveAs.png"
     inkscape:export-xdpi="315.79001"
     inkscape:export-ydpi="315.79001" />
  <g
     id="g66"
     transform="matrix(0.38952462,-0.38952462,0.37123389,0.37123389,-3.003374,21.586763)"
     inkscape:export-filename="/home/simon/Incoming/SaveAs.png"
     inkscape:export-xdpi="315.79001"
     inkscape:export-ydpi="315.79001">
    <path
       inkscape:connector-curvature="0"
       style="fill:url(#linearGradient3725)"
       id="path68"
       d="m 22,14 c -1,0 -1,1 -1,1 l 0,17 c -1,0.0488 -5,0 -5,0 -0.44725,0.0091 -0.84641,0.10907 -1.01605,0.523 -0.16964,0.41393 -0.0774,0.88906 0.2348,1.20945 l 16,16 c 0.43543,0.4218 1.12707,0.4218 1.5625,0 l 16,-16 c 0.3122,-0.32038 0.40444,-0.79552 0.2348,-1.20945 C 48.84641,32.10907 48.44725,32.00913 48,32 l -5,0 0,-17.0488 c 0,0 0,-1 -1,-1 C 36,13.9512 28,14 22,14 Z" />
    <path
       inkscape:connector-curvature="0"
       style="fill:url(#radialGradient3716)"
       id="path70"
       d="m 41.78125,15.15625 c -5.90298,0.0013 -13.64333,0.06118 -19.5625,0.0625 l 0,16.78125 c 0.001,0.64949 -0.50761,1.1856 -1.15625,1.21875 -1.09399,0.05339 -4.05758,0.0078 -4.625,0 L 32,48.78125 47.53125,33.21875 43,33.21875 C 42.32683,33.21892 41.78108,32.67317 41.78125,32 l 0,-16.84375 z" />
    <path
       inkscape:connector-curvature="0"
       style="fill:url(#linearGradient3721)"
       id="path72"
       d="m 23.21875,22.03125 c 0,4.11731 0.03699,9.20572 0,9.75 C 23,35 19,33 20,35 21,37 32,47 32,47 L 42.9375,35.9375 C 35,33 27.63796,28.72393 23.21875,22.03125 Z" />
  </g>
</svg>
