<?xml version="1.0" encoding="UTF-8" standalone="no"?>
<svg viewBox="0 0 1052.3622 744.09448" xmlns="http://www.w3.org/2000/svg" xmlns:xlink="http://www.w3.org/1999/xlink">
<defs>
<filter id="filter5135">
<feGaussianBlur stdDeviation=".275"/>
</filter>
<filter id="filter4992"></filter>
<filter height="1.03569" id="filter4744" width="1.37512" x="-.18756" y="-.01784">
<feGaussianBlur stdDeviation=".4448"/>
</filter>
<filter height="1.26902" id="filter4980" width="1.02832" x="-.01416" y="-.13451">
<feGaussianBlur stdDeviation=".3039"/>
</filter>
<filter height="1.01732" id="filter5588" width="1.73863" x="-.36931" y="-.00866">
<feGaussianBlur stdDeviation=".216"/>
</filter>
<filter height="1.31356" id="filter5940" width="1.00364" x="-.00182" y="-.15678">
<feGaussianBlur stdDeviation=".6533"/>
</filter>
<filter height="1.05252" id="filter6471" width="1.53679" x="-.2684" y="-.02626">
<feGaussianBlur stdDeviation=".6546"/>
</filter>
<filter height="1.02626" id="filter6503" width="1.2684" x="-.1342" y="-.01313">
<feGaussianBlur stdDeviation=".3273"/>
</filter>
<filter height="1.39872" id="filter6639" width="1.01169" x="-.00584" y="-.19936">
<feGaussianBlur stdDeviation="2.4089"/>
</filter>
<filter height="2.20768" id="filter6647" width="1.0354" x="-.0177" y="-.60384">
<feGaussianBlur stdDeviation="7.2964"/>
</filter>
<filter height="1.01241" id="filter4444" width="1.3662" x="-.1831" y="-.0062"></filter>
<filter height="1.68145" id="filter4881" width="1.01222" x="-.00611" y="-.34073"></filter>
<linearGradient id="linearGradient6799">
<stop offset="0" stop-color="#fff"/>
<stop offset="1" stop-color="#fff" stop-opacity=".5"/>
</linearGradient>
<linearGradient id="linearGradient6459">
<stop offset="0" stop-color="#fff"/>
<stop offset="1" stop-color="#fff" stop-opacity="0"/>
</linearGradient>
<linearGradient id="linearGradient5810">
<stop offset="0" stop-color="#fff" stop-opacity=".5"/>
<stop offset="1" stop-color="#fff" stop-opacity=".25"/>
</linearGradient>
<linearGradient id="linearGradient4380">
<stop offset="0" stop-color="#fff" stop-opacity="0"/>
<stop offset=".2704" stop-color="#fff" stop-opacity=".3569"/>
<stop offset="1" stop-color="#fff" stop-opacity=".5"/>
</linearGradient>
<linearGradient id="linearGradient4194">
<stop offset="0" stop-opacity="0"/>
<stop offset=".5042"/>
<stop offset="1" stop-opacity="0"/>
</linearGradient>
<linearGradient gradientUnits="userSpaceOnUse" id="linearGradient4250" x2="0" y1="-749.91776" y2="-769.38917">
<stop offset="0" stop-color="#fff" stop-opacity="0"/>
<stop offset=".1251" stop-color="#fff" stop-opacity=".1608"/>
<stop offset=".4517" stop-color="#fff" stop-opacity=".25"/>
<stop offset=".7541" stop-color="#fff" stop-opacity=".2588"/>
<stop offset=".9198" stop-color="#fff" stop-opacity=".15"/>
<stop offset="1" stop-color="#fff" stop-opacity="0"/>
</linearGradient>
<linearGradient gradientUnits="userSpaceOnUse" id="linearGradient4253" x2="0" y1="795.93881" y2="767.43662">
<stop offset="0" stop-color="#fff" stop-opacity="0"/>
<stop offset="1" stop-color="#fff" stop-opacity=".1"/>
</linearGradient>
<linearGradient gradientUnits="userSpaceOnUse" id="linearGradient4282" x2="0" y1="797.37018" y2="735.05786">
<stop offset="0" stop-color="#040e1d"/>
<stop offset="1" stop-color="#051327"/>
</linearGradient>
<linearGradient gradientUnits="userSpaceOnUse" id="linearGradient4312" x2="0" y1="756.03794" y2="735.88455">
<stop offset="0" stop-color="#b7860d" stop-opacity="0"/>
<stop offset=".1083" stop-color="#bd8e19" stop-opacity=".349"/>
<stop offset=".382" stop-color="#ebc870"/>
<stop offset=".7736" stop-color="#fff" stop-opacity=".05"/>
<stop offset="1" stop-color="#413007"/>
</linearGradient>
<linearGradient gradientUnits="userSpaceOnUse" id="linearGradient4342" x2="0" y1="796.42426" y2="767.89062">
<stop offset="0" stop-color="#e3b237"/>
<stop offset=".5152" stop-color="#e2af31" stop-opacity=".5"/>
<stop offset=".5455" stop-color="#e9c260"/>
<stop offset="1" stop-color="#f2dba3"/>
</linearGradient>
<linearGradient gradientUnits="userSpaceOnUse" id="linearGradient4490" x2="0" y1="754.33106" y2="735.92903">
<stop offset="0" stop-color="#b7860d" stop-opacity="0"/>
<stop offset=".118" stop-color="#bd8e19" stop-opacity=".349"/>
<stop offset=".4593" stop-color="#ebc870"/>
<stop offset=".7736" stop-color="#fff" stop-opacity=".05"/>
<stop offset="1" stop-color="#413007"/>
</linearGradient>
<linearGradient gradientUnits="userSpaceOnUse" id="linearGradient4590" x2="0" y1="752.82982" y2="735.96801">
<stop offset="0" stop-color="#b7860d" stop-opacity="0"/>
<stop offset=".1288" stop-color="#bd8e19" stop-opacity=".349"/>
<stop offset=".6103" stop-color="#ebc870"/>
<stop offset=".7736" stop-color="#fff" stop-opacity=".05"/>
<stop offset="1" stop-color="#413007"/>
</linearGradient>
<linearGradient gradientUnits="userSpaceOnUse" id="linearGradient4606" x2="0" y1="752.70248" y2="735.97139">
<stop offset="0" stop-color="#b7860d" stop-opacity="0"/>
<stop offset=".146" stop-color="#bd8e19" stop-opacity=".349"/>
<stop offset=".6389" stop-color="#ebc870"/>
<stop offset=".7341" stop-color="#fff" stop-opacity=".05"/>
<stop offset="1" stop-color="#413007"/>
</linearGradient>
<linearGradient gradientUnits="userSpaceOnUse" id="linearGradient5296" x2="0" y1="752.20643" y2="735.98427">
<stop offset="0" stop-color="#b7860d" stop-opacity="0"/>
<stop offset=".145" stop-color="#bd8e19" stop-opacity=".349"/>
<stop offset=".382" stop-color="#ebc870"/>
<stop offset=".7736" stop-color="#fff" stop-opacity=".05"/>
<stop offset="1" stop-color="#413007"/>
</linearGradient>
<linearGradient gradientUnits="userSpaceOnUse" id="linearGradient5342" x2="0" y1="751.60744" y2="735.99975">
<stop offset="0" stop-color="#b7860d" stop-opacity="0"/>
<stop offset=".156" stop-color="#bd8e19" stop-opacity=".349"/>
<stop offset=".382" stop-color="#ebc870"/>
<stop offset=".7736" stop-color="#fff" stop-opacity=".05"/>
<stop offset="1" stop-color="#413007"/>
</linearGradient>
<linearGradient gradientUnits="userSpaceOnUse" id="linearGradient5409" x2="0" y1="753.4112" y2="735.9529">
<stop offset="0" stop-color="#b7860d" stop-opacity="0"/>
<stop offset=".1244" stop-color="#bd8e19" stop-opacity=".349"/>
<stop offset=".382" stop-color="#ebc870"/>
<stop offset=".7736" stop-color="#fff" stop-opacity=".05"/>
<stop offset="1" stop-color="#413007"/>
</linearGradient>
<linearGradient gradientUnits="userSpaceOnUse" id="linearGradient5454" x2="0" y1="749.05052" y2="736.06633">
<stop offset="0" stop-color="#b7860d" stop-opacity="0"/>
<stop offset=".1259" stop-color="#bd8e19" stop-opacity=".349"/>
<stop offset=".382" stop-color="#ebc870"/>
<stop offset=".7736" stop-color="#fff" stop-opacity=".05"/>
<stop offset="1" stop-color="#413007"/>
</linearGradient>
<linearGradient gradientUnits="userSpaceOnUse" id="linearGradient5494" x2="0" y1="748.13779" y2="736.08995">
<stop offset="0" stop-color="#b7860d" stop-opacity="0"/>
<stop offset=".159" stop-color="#bd8e19" stop-opacity=".349"/>
<stop offset=".382" stop-color="#ebc870"/>
<stop offset=".7736" stop-color="#fff" stop-opacity=".05"/>
<stop offset="1" stop-color="#413007"/>
</linearGradient>
<linearGradient gradientUnits="userSpaceOnUse" id="linearGradient5808" x1="770.54309" x2="768.81378" y1="759.24408" y2="780.4281">
<stop offset="0" stop-color="#7a5704"/>
<stop offset="1" stop-color="#e0c06f"/>
</linearGradient>
<linearGradient gradientUnits="userSpaceOnUse" id="linearGradient5838" x2="0" y1="773.51086" y2="764.43201">
<stop offset="0" stop-color="#bc922d"/>
<stop offset="1" stop-color="#ecd08a"/>
</linearGradient>
<linearGradient gradientUnits="userSpaceOnUse" id="linearGradient5944" x2="0" y1="792.64325" y2="776.86285">
<stop offset="0" stop-color="#f9cf69"/>
<stop offset="1" stop-color="#72540c"/>
</linearGradient>
<linearGradient gradientUnits="userSpaceOnUse" id="linearGradient3747" x2="0" y1="371.47174" y2="333.96313">
<stop offset="0" stop-opacity=".75"/>
<stop offset=".2843" stop-opacity=".4667"/>
<stop offset="1" stop-opacity="0"/>
</linearGradient>
<linearGradient gradientUnits="userSpaceOnUse" id="linearGradient3799" x2="0" y1="344.04211" y2="334.49335">
<stop offset="0" stop-color="#fff" stop-opacity=".5"/>
<stop offset=".1574" stop-color="#fff" stop-opacity=".25"/>
<stop offset=".6736" stop-color="#fff" stop-opacity=".25"/>
<stop offset=".7921" stop-color="#3f3f3f" stop-opacity=".251"/>
<stop offset="1" stop-opacity=".5"/>
</linearGradient>
<linearGradient gradientUnits="userSpaceOnUse" id="linearGradient3805" x2="0" y1="354.34711" y2="323.9411">
<stop offset="0" stop-color="#ebad15"/>
<stop offset=".4153" stop-color="#6d500a"/>
<stop offset=".5093" stop-color="#fcf3dd"/>
<stop offset="1" stop-color="#f4d27f"/>
</linearGradient>
<linearGradient gradientUnits="userSpaceOnUse" id="linearGradient3816" x2="0" y1="-334.6278" y2="-340.36656">
<stop offset="0" stop-color="#806600" stop-opacity="0"/>
<stop offset=".5042" stop-color="#8a6104"/>
<stop offset="1" stop-color="#806600" stop-opacity="0"/>
</linearGradient>
<linearGradient gradientUnits="userSpaceOnUse" id="linearGradient3933" x2="0" y1="361.30304" y2="316.06183">
<stop offset="0" stop-color="#1a1a1a"/>
<stop offset=".062" stop-color="#4d4d4d"/>
<stop offset=".1479" stop-color="#1a1a1a"/>
<stop offset="1" stop-color="#333"/>
</linearGradient>
<linearGradient gradientTransform="matrix(.23543,-.03647,-.18352,-1.18458,-33.83265,-558.00182)" gradientUnits="userSpaceOnUse" id="linearGradient3936" x2="0" y1="-764.36218" y2="-777.70032">
<stop offset="0" stop-color="#b7860d" stop-opacity="0"/>
<stop offset=".2885" stop-color="#e7d7b0" stop-opacity=".0314"/>
<stop offset=".4354" stop-color="#8f6d0b" stop-opacity=".25"/>
<stop offset="1" stop-color="#d09a17"/>
</linearGradient>
<linearGradient gradientTransform="matrix(.23543,.03647,-.18352,1.18458,-33.83265,1236.4591)" gradientUnits="userSpaceOnUse" id="linearGradient3939" x2="0" y1="-764.36218" y2="-777.70032">
<stop offset="0" stop-color="#b7860d" stop-opacity="0"/>
<stop offset=".5364" stop-color="#e7d7b0" stop-opacity=".0314"/>
<stop offset=".6736" stop-color="#8f6d0b" stop-opacity=".25"/>
<stop offset="1" stop-color="#d09a17"/>
</linearGradient>
<linearGradient gradientUnits="userSpaceOnUse" id="linearGradient3942" x2="0" y1="363.83325" y2="314.54034">
<stop offset="0" stop-color="#ad8514"/>
<stop offset=".3684" stop-color="#f3dd9b"/>
<stop offset=".6929" stop-color="#fbf5e2"/>
<stop offset="1" stop-color="#f2d88e"/>
</linearGradient>
<linearGradient gradientUnits="userSpaceOnUse" id="linearGradient4247" x2="0" xlink:href="#linearGradient4194" y1="-766.1844" y2="-768.96603"/>
<linearGradient gradientUnits="userSpaceOnUse" id="linearGradient4378" x2="0" xlink:href="#linearGradient4380" y1="-754.24104" y2="-769.27671"/>
<linearGradient gradientUnits="userSpaceOnUse" id="linearGradient4488" x2="0" xlink:href="#linearGradient4380" y1="-753.91385" y2="-769.28521"/>
<linearGradient gradientUnits="userSpaceOnUse" id="linearGradient4588" x2="0" xlink:href="#linearGradient4380" y1="-752.39637" y2="-769.32471"/>
<linearGradient gradientUnits="userSpaceOnUse" id="linearGradient4604" x2="0" xlink:href="#linearGradient4380" y1="-751.82147" y2="-769.33962"/>
<linearGradient gradientUnits="userSpaceOnUse" id="linearGradient4766" x2="0" xlink:href="#linearGradient4194" y1="-779.58083" y2="-785.08662"/>
<linearGradient gradientUnits="userSpaceOnUse" id="linearGradient5294" x2="0" xlink:href="#linearGradient4380" y1="-750.13577" y2="-769.38349"/>
<linearGradient gradientUnits="userSpaceOnUse" id="linearGradient5340" x2="0" xlink:href="#linearGradient4380" y1="-749.27934" y2="-769.40576"/>
<linearGradient gradientUnits="userSpaceOnUse" id="linearGradient5407" x2="0" xlink:href="#linearGradient4380" y1="-750.65816" y2="-768.54667"/>
<linearGradient gradientUnits="userSpaceOnUse" id="linearGradient5452" x2="0" xlink:href="#linearGradient4380" y1="-744.59888" y2="-768.70435"/>
<linearGradient gradientUnits="userSpaceOnUse" id="linearGradient5492" x2="0" xlink:href="#linearGradient4380" y1="-747.66918" y2="-769.44766"/>
<linearGradient gradientUnits="userSpaceOnUse" id="linearGradient5620" x1="-125.5666" x2="-163.42178" xlink:href="#linearGradient6459"/>
<linearGradient gradientUnits="userSpaceOnUse" id="linearGradient5816" x2="0" xlink:href="#linearGradient5810" y1="759.5719" y2="778.33539"/>
<linearGradient gradientUnits="userSpaceOnUse" id="linearGradient5840" x2="0" xlink:href="#linearGradient5810" y1="759.7851" y2="778.42139"/>
<linearGradient gradientUnits="userSpaceOnUse" id="linearGradient6465" x2="0" xlink:href="#linearGradient6459" y1="733.6203" y2="775.62378"/>
<linearGradient gradientUnits="userSpaceOnUse" id="linearGradient6757" x2="0" xlink:href="#linearGradient6799" y1="893.26562" y2="841.3847"/>
<linearGradient gradientUnits="userSpaceOnUse" id="linearGradient6855" x2="0" xlink:href="#linearGradient6799" y1="913.15271" y2="849.14484"/>
<linearGradient gradientUnits="userSpaceOnUse" id="linearGradient3813" x2="0" xlink:href="#linearGradient4194" y1="-350.75506" y2="-357.80658"/>
<linearGradient gradientUnits="userSpaceOnUse" id="linearGradient3823" x2="0" xlink:href="#linearGradient4194" y1="-336.6278" y2="-342.50614"/>
<linearGradient gradientUnits="userSpaceOnUse" id="linearGradient3896" x2="0" xlink:href="#linearGradient4194" y1="337.61979" y2="341.71954"/>
<linearGradient gradientUnits="userSpaceOnUse" id="linearGradient3907" x2="0" xlink:href="#linearGradient4194" y1="350.75506" y2="357.80658"/>
<mask id="mask4451">
<path d="m121,736.36218h377v61h-377c-.68397-1.17446-2.22053-15.20092-2.23706-29.5808-.017-14.76107 1.5046-29.88882 2.23706-31.4192z" fill="#fff"/>
</mask>
<mask id="mask4460">
<path d="m36,736.36218h377v61h-377c-2.09416-1.9044-4.38768-10.6151-4.36719-30.34273s2.3547-29.16049 4.36719-30.65727z" fill="#fff"/>
</mask>
<mask id="mask4500">
<path d="m36,736.36218h377v61h-377c-3.80113-2.47339-6.94814-10.89959-6.92765-30.62722s3.20819-28.30701 6.92765-30.37278z" fill="#fff"/>
</mask>
<mask id="mask4708">
<path d="m36,736.36218h12.08991c2.3489-.79265 9.87451,2.4293 17.3057,6.41625l-.24865,48.49531c-4.06846,1.36053-13.16372,6.63826-16.98353,6.08844h-12.16343c-3.80113-2.47339-7.61709-10.89958-7.5966-30.62721s3.87714-28.30701 7.5966-30.37279z" fill="#fff"/>
</mask>
<mask id="mask5348">
<path d="m118.33043,733.15166h-15.49081v67.42105h15.49081c.55654-2.10487 2.23622-11.73247 2.23077-33.5367s-1.69594-32.23001-2.23077-33.88435z" fill="#fff"/>
</mask>
<mask id="mask5355">
<path d="m113.23628,736.36218h-12.85758v61h12.65064c.72099.1277 1.52626-.6904 1.57458-1.34823 .29029-3.95174.84384-14.76548.84034-28.9945s-.42098-25.80564-.80978-29.28058c-.0803-.71741-.85699-1.36633-1.3982-1.37669z" fill="#fff"/>
</mask>
<mask id="mask5424">
<path d="m118.0574,736.36216h-5.42793c.0772.39867-.39109.79862-.30954,1.19468 1.24,6.02261.95131,20.5701 1.09442,29.78645 .15906,10.24451-.19406,24.3869-1.06595,28.66972-.0775.38075.36799.96923.28107,1.34914h5.42794c.56737-1.9044 1.75513-10.61508 1.7496-30.34272s-1.20435-29.16049-1.7496-30.65727z" fill="#fff"/>
</mask>
<mask id="mask5438">
<path d="m485.8238,736.36218h-367.04684v61h367.04684c1.07746-1.17446 3.49802-15.20092 3.52406-29.5808 .0268-14.76107-2.37021-29.88882-3.52406-31.4192z" fill="#fff"/>
</mask>
<mask id="mask5476">
<path d="m105.20183,736.36216h-61.5239c.17693.39867-1.11495.82324-.70976,1.19468 3.24213,2.97208 4.63523,20.5701 4.96336,29.78645 .36472,10.24451-1.30356,26.36974-4.89809,28.66972-.51885.33199.84379.96923.64449,1.34914h61.52394c2.89627-1.59934 7.70531-10.61508 7.69262-30.34272s-4.04941-29.31302-7.69262-30.65727z" fill="#fff"/>
</mask>
<mask id="mask5505">
<path d="m96.40014,736.142h-50.62349v61.44036h50.62349c8.67838-.96172 16.81897-10.06286 16.80117-29.9329s-11.62352-29.68105-16.80117-31.50746z" fill="#fff"/>
</mask>
<mask id="mask5616">
<path d="m-150.0262-785.89551h46.38172l40,6.87275h-99.88172z" fill="url(#linearGradient5620)"/>
</mask>
<mask id="mask6753">
<path d="m-112.64436,843.375c-17.28534,7.5247-34.55649,17.61036-51.84125,22.82635-.36543-.58944-1.00462-.83197-1.68595-.83197-1.11459,0-1.97195.89141-1.97195,2.16201s.94976,1.931 2.06435,1.931c.73966,0 1.33675-.10423 1.68815-.7807 17.25536,5.22371 34.49069,15.31443 51.74665,22.82635l68.61713-11.50304 2.99569-12.47361h.03153l-.03153-.0719 .03153-.10784h-.03153l-2.99569-12.47361z" fill="url(#linearGradient6757)"/>
</mask>
<mask id="mask6851">
<path d="m36,851.375c-2.01249,1.49678-4.35451,10.92862-4.375,30.65625s2.28084,28.43935 4.375,30.34375h85c-.68397-1.1745-2.23347-15.2138-2.25-29.59375-.017-14.76107 1.51754-29.87587 2.25-31.40625h-85z" fill="url(#linearGradient6855)"/>
</mask>
<radialGradient cx="-185.40565" cy="790.20642" gradientTransform="matrix(0,-.6162,.66667,0,-473.07473,224.744)" gradientUnits="userSpaceOnUse" id="radialGradient3892" r="3">
<stop offset="0" stop-color="#fea"/>
<stop offset="1" stop-color="#fff" stop-opacity=".25"/>
</radialGradient>
</defs>
<path d="m524.28125,777.375c.0721.18953-.35745.36942-.28125.55769 .14185.35055.27261.76699.375,1.22693h-13.34375c-.0466-.28224-.10968-.52535-.15625-.71108-.0829-.33056-.87855-.62261-1.4375-.62739h-13.28125v.44616h-83.15625-377c-.64627.21446-1.31306.80392-1.9375,1.78461h-57.6875c-.91928.22781-1.80195.66071-2.59375,1.33846h-18.375c-.62857.15576-1.24477.42064-1.8125.80866-2.39032-.41903-4.29084-.63693-5.1875-.50192h-9.0625l-.40625.12545h-4.40625c-1.80571.45022-3.66539,1.84681-4.71875,4.61493l-67.46875-5.04712c-17.28534,3.35718-34.55899,7.85075-51.84375,10.17789-.36543-.26296-.97492-.3625-1.65625-.3625-1.11459,0-2,.39516-2,.962s.94791.86442 2.0625.86442c.73966,0 1.3361-.0467 1.6875-.34854 17.25536,2.33058 34.49404,6.82643 51.75,10.17789l67.6875-5.06108c1.0716,2.36836 2.79559,3.60122 4.5,4.09904h4.40625c.13582.0489.27016.0999.40625.13942h9.09375c1.2058.0774 3.12388-.20059 5.15625-.57161 .57412.40368 1.16924.70555 1.8125.89231h18.4375c.76827.6404 1.63594,1.07853 2.53125,1.33846h57.65625c.61876.93398 1.30879,1.51683 1.96875,1.78461h377 83.15625v.44616h13.0625c.74463.0588 1.57509-.32431 1.625-.62743 .0275-.167.0623-.49202.0937-.71104h13.40625c-.0954.45352-.19793.85693-.3125,1.14327-.0724.18101.33122.46075.25.64135h5.09375c.0588-.10047.11671-.26328.1875-.44615h224.6875c.0373.0551.0516.10913.0312.15334h25.09375c.31649-.19974.65558-.68204 1.03125-1.40815h9.21875c.60843-.0983 1.19218-.3977 1.75-.92019 .58642-.0932 1.14375-.21706 1.6875-.37647 4.42568-4.40648 2.8507-9.39462 3.1875-14.09565-.34065-3.20914-1.06415-6.57327-4.59375-9.39711-.34813-.114-.73798-.15518-1.15625-.16731-.32027-.3095-.63134-.52999-.875-.65531h-9.0625c-.39249-.76065-.78232-1.22331-1.1875-1.39423h-25.09375c.0196.0505.0116.1019-.0312.15338h-224.65625c-.0794-.20902-.15506-.35719-.21875-.44615h-5.09375z" filter="url(#filter6647)" opacity=".25" transform="matrix(.9921,0,0,1.09356,222.38097,-499.85503)"/>
<path d="m524.28125,777.375c.0721.18953-.35745.36942-.28125.55769 .14185.35055.27261.76699.375,1.22693h-13.34375c-.0466-.28224-.10968-.52535-.15625-.71108-.0829-.33056-.87855-.62261-1.4375-.62739h-13.28125v.44616h-83.15625-377c-.64627.21446-1.31306.80392-1.9375,1.78461h-57.6875c-.91928.22781-1.80195.66071-2.59375,1.33846h-18.375c-.62857.15576-1.24477.42064-1.8125.80866-2.39032-.41903-4.29084-.63693-5.1875-.50192h-9.0625l-.40625.12545h-4.40625c-1.80571.45022-3.66539,1.84681-4.71875,4.61493l-67.46875-5.04712c-17.28534,3.35718-34.55899,7.85075-51.84375,10.17789-.36543-.26296-.97492-.3625-1.65625-.3625-1.11459,0-2,.39516-2,.962s.94791.86442 2.0625.86442c.73966,0 1.3361-.0467 1.6875-.34854 17.25536,2.33058 34.49404,6.82643 51.75,10.17789l67.6875-5.06108c1.0716,2.36836 2.79559,3.60122 4.5,4.09904h4.40625c.13582.0489.27016.0999.40625.13942h9.09375c1.2058.0774 3.12388-.20059 5.15625-.57161 .57412.40368 1.16924.70555 1.8125.89231h18.4375c.76827.6404 1.63594,1.07853 2.53125,1.33846h57.65625c.61876.93398 1.30879,1.51683 1.96875,1.78461h377 83.15625v.44616h13.0625c.74463.0588 1.57509-.32431 1.625-.62743 .0275-.167.0623-.49202.0937-.71104h13.40625c-.0954.45352-.19793.85693-.3125,1.14327-.0724.18101.33122.46075.25.64135h5.09375c.0588-.10047.11671-.26328.1875-.44615h224.6875c.0373.0551.0516.10913.0312.15334h25.09375c.31649-.19974.65558-.68204 1.03125-1.40815h9.21875c.60843-.0983 1.19218-.3977 1.75-.92019 .58642-.0932 1.14375-.21706 1.6875-.37647 4.42568-4.40648 2.8507-9.39462 3.1875-14.09565-.34065-3.20914-1.06415-6.57327-4.59375-9.39711-.34813-.114-.73798-.15518-1.15625-.16731-.32027-.3095-.63134-.52999-.875-.65531h-9.0625c-.39249-.76065-.78232-1.22331-1.1875-1.39423h-25.09375c.0196.0505.0116.1019-.0312.15338h-224.65625c-.0794-.20902-.15506-.35719-.21875-.44615h-5.09375z" filter="url(#filter6639)" opacity=".2" transform="matrix(.97201,0,0,1.09356,238.44032,-504.85503)"/>
<path d="m1009.0937,311.38855c-3.6172.83869-7.3888-.63307-10.9687.53125 .054,17.93745.023,35.875.031,53.8125 4.871-.84658 10.6249,1.46898 14.9063-1.34375 4.4256-9.87662 2.8655-21.05568 3.2023-31.5925-.3407-7.19289-1.079-14.73448-4.6086-21.06375-.7321-.53733-1.7012-.36532-2.5625-.34375z" fill="url(#linearGradient3933)"/>
<g mask="url(#mask5505)" transform="matrix(.28593,0,0,.93443,982.05608,-377.98165)">
<path d="m26,736.36218h102v61h-102z" fill="#f2d88e"/>
<path d="m26-768.89551h102v21.22638h-102z" fill="url(#linearGradient5492)" transform="scale(1,-1)"/>
<path d="m26,736.39551h102v11.7424h-102z" fill="url(#linearGradient5494)"/>
<path d="m26,767.88428h102v29.15369h-102z" fill="url(#linearGradient4342)"/>
</g>
<g mask="url(#mask5348)" transform="matrix(.93443,0,0,.93443,634.04918,-377.98165)">
<path d="m26,736.36218h102v61h-102z" fill="#f2d88e"/>
<path d="m26-768.89551h102v19.61619h-102z" fill="url(#linearGradient5340)" transform="scale(1,-1)"/>
<path d="m26,736.39551h102v15.21202h-102z" fill="url(#linearGradient5342)"/>
<path d="m26,767.88428h102v29.15369h-102z" fill="url(#linearGradient4342)"/>
</g>
<path d="m107.35564,315.1073c-17.28534,7.5247-34.55649,17.61036-51.84125,22.82635-.36543-.58944-1.00462-.83197-1.68595-.83197-1.11459,0-1.97195.89141-1.97195,2.16201s.94976,1.931 2.06435,1.931c.73966,0 1.33675-.10423 1.68815-.7807 17.25536,5.22371 34.49069,15.31443 51.74665,22.82635l68.61713-11.50304 2.9957-12.47361h.0315l-.0315-.0719 .0315-.10784h-.0315l-2.9957-12.47361z" fill="url(#linearGradient3942)"/>
<path d="m107.31065,315.37262 70.03911,11.55399-2.63295,14.65805-87.57818-13.56796 .5404-3.48819z" fill="url(#linearGradient3939)"/>
<path d="m107.31065,363.08466 70.03911-11.55399-2.63295-14.65805-87.57818,13.56796 .5404,3.48819z" fill="url(#linearGradient3936)"/>
<path d="m179.51798,316.07258c-2.72828,1.52455-5.57226,7.83032-5.58729,22.38938-.015,14.55907 2.7991,20.80349 5.58729,22.62886h9.52008c-2.78819-1.82537-5.10232-8.06979-5.08729-22.62886 .015-14.55906 2.35901-20.86483 5.08729-22.38938z" fill="url(#linearGradient3933)"/>
<g mask="url(#mask4708)" transform="matrix(.74744,0,0,.74744,157.44696,-234.59057)">
<path d="m26,736.36218h102v61h-102z" fill="#f2d88e"/>
<path d="m26-768.89551h102v17.07404h-102z" fill="url(#linearGradient4604)" transform="scale(1,-1)"/>
<path d="m26,736.39551h102v16.30693h-102z" fill="url(#linearGradient4606)"/>
<path d="m26,767.88428h102v29.15369h-102z" fill="url(#linearGradient4342)"/>
</g>
<g mask="url(#mask4500)" transform="matrix(.77049,0,0,.77049,172.67213,-252.26654)">
<path d="m26,736.36218h102v61h-102z" fill="#f2d88e"/>
<path d="m26-768.89551h102v16.49919h-102z" fill="url(#linearGradient4588)" transform="scale(1,-1)"/>
<path d="m26,736.39551h102v16.43434h-102z" fill="url(#linearGradient4590)"/>
<path d="m26,767.88428h102v29.15369h-102z" fill="url(#linearGradient4342)"/>
</g>
<g mask="url(#mask4500)" transform="matrix(.86885,0,0,.86885,190.09836,-327.69561)">
<path d="m26,736.36218h102v61h-102z" fill="#f2d88e"/>
<path d="m26-768.89551h102v14.98167h-102z" fill="url(#linearGradient4488)" transform="scale(1,-1)"/>
<path d="m26,736.39551h102v17.93551h-102z" fill="url(#linearGradient4490)"/>
<path d="m26,767.88428h102v29.15369h-102z" fill="url(#linearGradient4342)"/>
</g>
<g mask="url(#mask4460)" transform="translate(220,-428.2677)">
<path d="m26,736.36218h102v61h-102z" fill="#f2d88e"/>
<path d="m26-768.89551h102v14.6545h-102z" fill="url(#linearGradient4378)" transform="scale(1,-1)"/>
<path d="m26,736.39551h102v19.64248h-102z" fill="url(#linearGradient4312)"/>
<path d="m26,767.88428h102v29.15369h-102z" fill="url(#linearGradient4342)"/>
</g>
<path d="m177.43834-342.35712h170.56164v5.72931h-170.56164z" fill="url(#linearGradient3823)" opacity=".75" transform="scale(1,-1)"/>
<path d="m178.9738,357.62781h163.0262v-6.87275h-163.0262z" fill="url(#linearGradient3907)" opacity=".4"/>
<path d="m46.28124,780.36218h748.71875v10h-728.88676z" fill="url(#linearGradient5944)" filter="url(#filter5940)" opacity=".75" transform="matrix(.2182,0,0,.83915,168.80091,-302.99849)"/>
<g mask="url(#mask4451)" transform="translate(220,-428.2677)">
<path d="m116,736.36218h382v61h-382z" fill="url(#linearGradient4282)"/>
<path d="m116,768.89551h382v28.46666h-382z" fill="url(#linearGradient4253)"/>
<path d="m116-768.89551h382v18.97778h-382z" fill="url(#linearGradient4250)" transform="scale(1,-1)"/>
<path d="m116-768.89551h382v2.71111h-382z" fill="url(#linearGradient4247)" transform="scale(1,-1)"/>
</g>
<path d="m-8.54634,736.90197c-3.75933,1.96844-5.56354,16.40323-5.68764,30.39993-.10941,12.33956 2.18148,27.80287 5.68764,29.4231" fill="none" filter="url(#filter4744)" opacity=".15" stroke="#fff" stroke-linecap="round" stroke-width="2.4175" transform="matrix(.93621,0,0,.73106,190.30425,-222.09262)"/>
<path d="m-150.0262-785.89551h46.38172l40,6.87275h-99.88172z" fill="url(#linearGradient4766)" mask="url(#mask5616)" opacity=".4" transform="matrix(1,0,0,-1,245,-428.2677)"/>
<path d="m59.5625,337.62728-3.8125.93717-.0937.0218c.29313-.50418-.85575-1.5711-1.90079-1.47048-1.3387.12889-2.07641,1.30245-1.75546,2.2333 .008.0226-.002.0417 0,.0654 .0532.73724.6886,1.66022 2,1.7487 1.00076.0675 1.30342-.45054 1.46875-.87691l.15625.0436 5.78125,1.2859h112.59375v-3.98846h-114.4375z" fill="url(#linearGradient3896)" opacity=".7"/>
<path d="m52.33266,338.92383 54.88912.65829-54.88905.3256z" fill="#f6e4b0" filter="url(#filter4881)" opacity=".75"/>
<path d="m56,339.09448a2,2 0 0,1 -4,0 2,2 0 1,1 4,0z" fill="url(#radialGradient3892)"/>
<g fill="#fff" filter="url(#filter4992)" font-family="Adobe Arabic" font-size="6.8356" font-style="italic" letter-spacing="0" opacity=".75" text-anchor="middle" word-spacing="0">
<path d="m297.45291,330.32138c-1e-005,.22029-.0384.42444-.11515.61247s-.18414.35101-.32209.48897c-.17134.17134-.37383.29984-.60746.3855s-.52847.12851-.88449.1285h-.66087v1.85243h-.66086v-4.96984h1.34843c.29816,1e-005 .55072.025.75766.0751s.3905.12851.55072.23531c.18913.12684.33543.28482.4389.47395s.1552.42834.15521.71761zm-.68757.0167c0-.17134-.03-.32042-.0901-.44726s-.15131-.23029-.27369-.3104c-.10681-.069-.22863-.11849-.36548-.14853s-.30985-.0451-.51901-.0451h-.65419v1.98593h.5574c.26701,0 .48396-.0239.65085-.0718s.30261-.12405.4072-.22863c.10458-.1068.17856-.21917.22195-.33711s.0651-.25032.0651-.39718z" fill="#fff"/>
<path d="m301.60166,333.78925h-3.27428v-4.96984h3.27428v.58744h-2.61341v1.36178h2.61341v.58743h-2.61341v1.84575h2.61341z" fill="#fff"/>
<path d="m306.44466,333.78925h-.81773l-2.35642-4.44582v4.44582h-.61747v-4.96984h1.02467l2.14948,4.05864v-4.05864h.61747z" fill="#fff"/>
</g>
<g fill="#aa7510" font-family="Adobe Arabic" font-size="6.8356" font-style="italic" letter-spacing="0" opacity=".75" text-anchor="middle" word-spacing="0">
<path d="m297.45291,330.82138c-1e-005,.22029-.0384.42444-.11515.61247s-.18414.35101-.32209.48897c-.17134.17134-.37383.29984-.60746.3855s-.52847.12851-.88449.1285h-.66087v1.85243h-.66086v-4.96984h1.34843c.29816,1e-005 .55072.025.75766.0751s.3905.12851.55072.23531c.18913.12684.33543.28482.4389.47395s.1552.42834.15521.71761zm-.68757.0167c0-.17134-.03-.32042-.0901-.44726s-.15131-.23029-.27369-.3104c-.10681-.069-.22863-.11849-.36548-.14853s-.30985-.0451-.51901-.0451h-.65419v1.98593h.5574c.26701,0 .48396-.0239.65085-.0718s.30261-.12405.4072-.22863c.10458-.1068.17856-.21917.22195-.33711s.0651-.25032.0651-.39718z" fill="#aa7510"/>
<path d="m301.60166,334.28925h-3.27428v-4.96984h3.27428v.58744h-2.61341v1.36178h2.61341v.58743h-2.61341v1.84575h2.61341z" fill="#aa7510"/>
<path d="m306.44466,334.28925h-.81773l-2.35642-4.44582v4.44582h-.61747v-4.96984h1.02467l2.14948,4.05864v-4.05864h.61747z" fill="#aa7510"/>
</g>
<g fill="#fff" filter="url(#filter4980)" font-family="Adobe Arabic" font-size="11.0812" font-style="italic" letter-spacing="0" opacity=".75" text-anchor="middle" transform="matrix(1.08292,0,-.16078,.90955,350.16247,-416.63299)" word-spacing="0">
<path d="m53.78217,809.09375-.04329.22184c.31202.0204.49824.0743.55866.16165s.05456.2968-.01759.62832l-.60059,3.1274c-.05028.31755-.12287.52248-.21778.6148s-.28384.1471-.56678.16435l-.05952.22184h2.18594l.05411-.22184c-.35531-.0172-.57399-.072-.65605-.16435s-.08702-.29725-.01488-.6148l.27054-1.42843h.80079c.34482-.01.55606.0258.63373.10618s.11171.26322.10213.54852h.23807l.303-1.55829h-.23266c-.09751.25351-.19873.41471-.30368.48358s-.32656.0989-.66484.09h-.81161l.33547-1.78013c.02164-.13143.0541-.21755.09739-.25836s.12986-.0593.25971-.0555h.63847c.27899,0 .47174.0216.57827.0649s.17348.10822.20087.19478c.03167.0803.05489.18217.06966.30571s.02581.25792.03314.4031l.23807-.0216c.03077-.2445.05985-.4873.08725-.72842s.047-.40952.05884-.50523z" fill="#fff"/>
<path d="m60.58346,808.9693c-.88004.0253-1.59538.33322-2.14603.92389s-.83449,1.31255-.85152,2.16564c.01217.70182.22454,1.25822.63711,1.66921s.95229.62111 1.61916.63035c.88736-.0207 1.60563-.31742 2.15483-.89006s.83189-1.29677.84813-2.17241c-.01173-.70768-.22365-1.26994-.63576-1.6868s-.9541-.63012-1.62593-.63982zm-.05952.29218c.52101.0118.89931.19919 1.1349.56204s.35147.83022.34764,1.40206c-.0013.44559-.08464.88426-.2499,1.31601s-.40447.79107-.71762,1.07794-.69224.43576-1.13726.44668c-.50207-.0121-.87496-.1976-1.11867-.55662s-.365-.81917-.36387-1.38042c.0096-.73732.20414-1.39179.58368-1.96342s.88657-.87304 1.52109-.90427z" fill="#fff"/>
<path d="m69.31097,809.09375h-1.89917l-.05411.22184c.28722.0119.4838.0476.58977.10686s.15105.16796.13527.326c-.0045.13392-.02255.31518-.05411.54378s-.08207.5289-.1515.90088l-.1028.51944c-.14677.75953-.36996,1.31819-.66958,1.67597s-.68784.53499-1.16466.53161c-.42441.006-.75108-.14812-.98002-.46262s-.28102-.82581-.15624-1.53395l.34629-1.87211c.04937-.30593.11971-.50026.21102-.58301s.28068-.13368.56813-.15285l.05411-.22184h-2.07231l-.05411.22184c.31281.0198.50286.0721.57016.15691s.06662.27776-.002.57895l-.35711,1.90458c-.09311.50793-.10168.9205-.0257,1.2377s.21079.55934.40445.7264c.18081.15792.38191.27087.6033.33884s.44954.10112.68446.0994c.24393.00079.48786-.0414.7318-.12647s.46893-.2179.67499-.39837c.26918-.25182.47749-.55167.62494-.89953s.25836-.72616.33276-1.1349l.11904-.60601c.06943-.36646.1294-.66292.17991-.88938s.09694-.40795.13933-.54446c.03426-.14428.09829-.25069.19208-.31923s.27143-.11002.53296-.12445z" fill="#fff"/>
<path d="m75.06259,809.09375h-1.84506l-.05411.22184c.28654.014.48042.055.58165.12309s.14361.19299.12715.3747c-.0069.10709-.02559.26761-.05614.48155s-.08038.50433-.14947.87113l-.36252,1.9154h-.02164l-2.44565-3.98771h-1.22824l-.0487.22184c.21158.0136.36737.0364.46735.0683s.17325.0885.21981.16976c.05298.0735.08499.16188.09604.26513s-.0083.26738-.05817.49238l-.39498,1.87211c-.07699.3606-.14079.64309-.1914.84746s-.09683.37458-.13865.51063c-.05118.16909-.13144.28677-.24078.35305s-.26535.10551-.46803.11769l-.05411.22184h1.87753l.04329-.22184c-.27877-.014-.46792-.055-.56745-.1231s-.14124-.19298-.12512-.37469c.007-.12648.02547-.29421.05546-.5032s.07823-.47952.14474-.81161l.40581-2.08854h.02705l2.47812,4.18791h.27054l.60059-3.13823c.06492-.365.12309-.65492.1745-.86978s.09604-.3722.13392-.47208c.04125-.17044.10889-.29353.2029-.36928s.25903-.12039.49508-.13392z" fill="#fff"/>
<path d="m79.78074,808.89896c-.06798.0744-.12952.12581-.18464.15421s-.13426.0419-.2374.0406h-3.11658c-.10619.004-.1887-.005-.24754-.0264s-.10619-.0774-.14203-.16841h-.18396c-.04712.22207-.10438.45834-.17179.70881s-.1382.49757-.21237.74127h.24889c.13797-.32915.27324-.57443.40581-.73586 .06628-.0854.16503-.14586.29624-.18126s.36793-.0525.71016-.0514h.4004l-.74127,3.89032c-.04509.30446-.11723.50038-.21643.58774s-.31202.13854-.63847.15353l-.0487.22184h2.26169l.0487-.22184c-.35272-.0147-.56982-.0652-.65132-.1515s-.08624-.28294-.0142-.58977l.72504-3.89032h.49779c.29319-.002.50083.0132.62291.0467s.20121.0991.2374.19681c.07394.16594.1046.40761.09198.72504l.25971-.0216c.02479-.23401.05365-.48426.08657-.75074s.06718-.49237.1028-.6777z" fill="#fff"/>
<path d="m84.65582,814.01211c-.27471-.0197-.45575-.075-.5431-.16571s-.15342-.27718-.19817-.55933c-.18216-.97664-.36433-1.98303-.54648-3.01919l-.22184-1.29317-.28677.0758-2.40237,4.17709c-.1825.32386-.33287.52969-.45112.6175s-.29432.1435-.52822.16706l-.05952.22184h1.77472l.05411-.22184c-.31033-.0219-.49452-.0688-.55257-.14068s-.02717-.2162.09266-.43286c.09029-.18509.18565-.37492.28609-.56948l.24957-.4802h1.70438l.10551.5918c.03246.18002.06222.35429.08928.52281 .03922.17134.0284.29263-.03246.36387s-.22861.11949-.5032.14474l-.05952.22184h1.96951zm-1.68274-1.97492h-1.4609c.17111-.32599.34967-.6547.53566-.98611s.37537-.67363.56813-1.02668h.01623z" fill="#fff"/>
<path d="m88.11328,809.09375h-2.12101l-.05411.22184c.32859.0205.52901.0715.60127.15285s.07383.26491.0047.55055l-.62223,3.2789c-.04599.28677-.11633.47344-.21102.56001s-.29489.13798-.60059.15421l-.05411.22184h2.13183l.05952-.22184c-.326-.0156-.52484-.0656-.59653-.15015s-.07305-.27257-.0041-.56407l.62223-3.2789c.04543-.28564.11283-.46916.20223-.55055s.2853-.13233.58774-.15285z" fill="#fff"/>
<path d="m94.04344,809.09375h-1.84506l-.05411.22184c.28654.014.48042.055.58165.12309s.14361.19299.12715.3747c-.0069.10709-.02559.26761-.05614.48155s-.08038.50433-.14947.87113l-.36252,1.9154h-.02164l-2.44565-3.98771h-1.22824l-.0487.22184c.21158.0136.36737.0364.46735.0683s.17325.0885.21981.16976c.05298.0735.08499.16188.09604.26513s-.0083.26738-.05817.49238l-.39498,1.87211c-.07699.3606-.14079.64309-.1914.84746s-.09683.37458-.13865.51063c-.05118.16909-.13144.28677-.24078.35305s-.26535.10551-.46803.11769l-.05411.22184h1.87753l.04329-.22184c-.27877-.014-.46792-.055-.56745-.1231s-.14124-.19298-.12512-.37469c.007-.12648.02547-.29421.05546-.5032s.07823-.47952.14474-.81161l.40581-2.08854h.02705l2.47812,4.18791h.27054l.60059-3.13823c.06492-.365.12309-.65492.1745-.86978s.09604-.3722.13392-.47208c.04125-.17044.10889-.29353.2029-.36928s.25903-.12039.49508-.13392z" fill="#fff"/>
</g>
<g fill="#aa7510" font-family="Adobe Arabic" font-size="11.0812" font-style="italic" letter-spacing="0" text-anchor="middle" transform="matrix(1.08292,0,-.16078,.90955,350.16247,-416.63299)" word-spacing="0">
<path d="m53.78217,809.63519-.04329.22184c.31202.0204.49824.0743.55866.16165s.05456.2968-.01759.62832l-.60059,3.1274c-.05028.31755-.12287.52248-.21778.6148s-.28384.1471-.56678.16435l-.05952.22184h2.18594l.05411-.22184c-.35531-.0172-.57399-.072-.65605-.16435s-.08702-.29725-.01488-.6148l.27054-1.42843h.80079c.34482-.01.55606.0258.63373.10619s.11171.26321.10213.54851h.23807l.303-1.55829h-.23266c-.09751.25352-.19873.41471-.30368.48358s-.32656.0989-.66484.09h-.81161l.33547-1.78014c.02164-.13143.0541-.21755.09739-.25836s.12986-.0593.25971-.0555h.63847c.27899,1e-005 .47174.0217.57827.0649s.17348.10822.20087.19479c.03167.0803.05489.18216.06966.3057s.02581.25792.03314.4031l.23807-.0216c.03077-.24449.05985-.4873.08725-.72842s.047-.40952.05884-.50523z" fill="#aa7510"/>
<path d="m60.58346,809.51075c-.88004.0252-1.59538.33321-2.14603.92388s-.83449,1.31256-.85152,2.16565c.01217.70181.22454,1.25822.63711,1.66921s.95229.6211 1.61916.63035c.88736-.0207 1.60563-.31743 2.15483-.89007s.83189-1.29677.84813-2.17241c-.01173-.70767-.22365-1.26994-.63576-1.68679s-.9541-.63012-1.62593-.63982zm-.05952.29218c.52101.0118.89931.19918 1.1349.56204s.35147.83021.34764,1.40205c-.0013.44559-.08464.88426-.2499,1.31601s-.40447.79107-.71762,1.07794-.69224.43577-1.13726.44669c-.50207-.0121-.87496-.19761-1.11867-.55663s-.365-.81916-.36387-1.38042c.0096-.73732.20414-1.39179.58368-1.96342s.88657-.87304 1.52109-.90426z" fill="#aa7510"/>
<path d="m69.31097,809.63519h-1.89917l-.05411.22184c.28722.012.4838.0476.58977.10686s.15105.16797.13527.326c-.0045.13392-.02255.31518-.05411.54378s-.08207.5289-.1515.90089l-.1028.51943c-.14677.75953-.36996,1.31819-.66958,1.67597s-.68784.53499-1.16466.53161c-.42441.006-.75108-.14812-.98002-.46262s-.28102-.82581-.15624-1.53394l.34629-1.87212c.04937-.30592.11971-.50026.21102-.583s.28068-.13369.56813-.15286l.05411-.22184h-2.07231l-.05411.22184c.31281.0199.50286.0721.57016.15691s.06662.27776-.002.57895l-.35711,1.90458c-.09311.50794-.10168.9205-.0257,1.23771s.21079.55933.40445.72639c.18081.15792.38191.27087.6033.33885s.44954.10111.68446.0994c.24393.00079.48786-.0414.7318-.12648s.46893-.21789.67499-.39836c.26918-.25183.47749-.55167.62494-.89954s.25836-.72616.33276-1.1349l.11904-.606c.06943-.36646.1294-.66293.17991-.88939s.09694-.40794.13933-.54446c.03426-.14428.09829-.25069.19208-.31923s.27143-.11001.53296-.12445z" fill="#aa7510"/>
<path d="m75.06259,809.63519h-1.84506l-.05411.22184c.28654.014.48042.055.58165.1231s.14361.19298.12715.37469c-.0069.10709-.02559.26761-.05614.48156s-.08038.50432-.14947.87112l-.36252,1.9154h-.02164l-2.44565-3.98771h-1.22824l-.0487.22184c.21158.0136.36737.0364.46735.0683s.17325.0885.21981.16977c.05298.0735.08499.16187.09604.26512s-.0083.26739-.05817.49238l-.39498,1.87211c-.07699.36061-.14079.64309-.1914.84746s-.09683.37458-.13865.51064c-.05118.16908-.13144.28677-.24078.35305s-.26535.10551-.46803.11768l-.05411.22184h1.87753l.04329-.22184c-.27877-.014-.46792-.055-.56745-.12309s-.14124-.19299-.12512-.3747c.007-.12647.02547-.2942.05546-.5032s.07823-.47952.14474-.81161l.40581-2.08854h.02705l2.47812,4.18791h.27054l.60059-3.13823c.06492-.36499.12309-.65492.1745-.86977s.09604-.37221.13392-.47209c.04125-.17043.10889-.29353.2029-.36928s.25903-.12039.49508-.13392z" fill="#aa7510"/>
<path d="m79.78074,809.44041c-.06798.0744-.12952.1258-.18464.1542s-.13426.0419-.2374.0406h-3.11658c-.10619.004-.1887-.005-.24754-.0264s-.10619-.0774-.14203-.16841h-.18396c-.04712.22207-.10438.45834-.17179.7088s-.1382.49757-.21237.74127h.24889c.13797-.32915.27324-.57443.40581-.73586 .06628-.0854.16503-.14586.29624-.18126s.36793-.0525.71016-.0514h.4004l-.74127,3.89032c-.04509.30447-.11723.50038-.21643.58774s-.31202.13854-.63847.15353l-.0487.22184h2.26169l.0487-.22184c-.35272-.0146-.56982-.0652-.65132-.1515s-.08624-.28294-.0142-.58977l.72504-3.89032h.49779c.29319-.002.50083.0132.62291.0467s.20121.0991.2374.19681c.07394.16594.1046.40762.09198.72504l.25971-.0216c.02479-.23401.05365-.48426.08657-.75074s.06718-.49237.1028-.67769z" fill="#aa7510"/>
<path d="m84.65582,814.55355c-.27471-.0197-.45575-.075-.5431-.1657s-.15342-.27719-.19817-.55934c-.18216-.97663-.36433-1.98303-.54648-3.01919l-.22184-1.29316-.28677.0757-2.40237,4.17708c-.1825.32386-.33287.52969-.45112.6175s-.29432.1435-.52822.16706l-.05952.22184h1.77472l.05411-.22184c-.31033-.0219-.49452-.0688-.55257-.14068s-.02717-.2162.09266-.43286c.09029-.18509.18565-.37492.28609-.56948l.24957-.4802h1.70438l.10551.5918c.03246.18002.06222.35429.08928.52281 .03922.17134.0284.29263-.03246.36387s-.22861.11949-.5032.14474l-.05952.22184h1.96951zm-1.68274-1.97492h-1.4609c.17111-.32599.34967-.65469.53566-.9861s.37537-.67364.56813-1.02669h.01623z" fill="#aa7510"/>
<path d="m88.11328,809.63519h-2.12101l-.05411.22184c.32859.0205.52901.0715.60127.15286s.07383.2649.0047.55054l-.62223,3.2789c-.04599.28677-.11633.47344-.21102.56001s-.29489.13798-.60059.15421l-.05411.22184h2.13183l.05952-.22184c-.326-.0156-.52484-.0656-.59653-.15015s-.07305-.27256-.0041-.56407l.62223-3.2789c.04543-.28564.11283-.46915.20223-.55054s.2853-.13234.58774-.15286z" fill="#aa7510"/>
<path d="m94.04344,809.63519h-1.84506l-.05411.22184c.28654.014.48042.055.58165.1231s.14361.19298.12715.37469c-.0069.10709-.02559.26761-.05614.48156s-.08038.50432-.14947.87112l-.36252,1.9154h-.02164l-2.44565-3.98771h-1.22824l-.0487.22184c.21158.0136.36737.0364.46735.0683s.17325.0885.21981.16977c.05298.0735.08499.16187.09604.26512s-.0083.26739-.05817.49238l-.39498,1.87211c-.07699.36061-.14079.64309-.1914.84746s-.09683.37458-.13865.51064c-.05118.16908-.13144.28677-.24078.35305s-.26535.10551-.46803.11768l-.05411.22184h1.87753l.04329-.22184c-.27877-.014-.46792-.055-.56745-.12309s-.14124-.19299-.12512-.3747c.007-.12647.02547-.2942.05546-.5032s.07823-.47952.14474-.81161l.40581-2.08854h.02705l2.47812,4.18791h.27054l.60059-3.13823c.06492-.36499.12309-.65492.1745-.86977s.09604-.37221.13392-.47209c.04125-.17043.10889-.29353.2029-.36928s.25903-.12039.49508-.13392z" fill="#aa7510"/>
</g>
<g mask="url(#mask6753)" transform="translate(220,-528.2677)">
<path d="m-126,867.36218 32-44" fill="none" opacity=".15" stroke="#fff"/>
<path d="m-111,867.36218 42-44" fill="none" opacity=".15" stroke="#fff"/>
<path d="m-81,867.36218 42-44" fill="none" opacity=".15" stroke="#fff"/>
<path d="m-50,867.36218-42-44" fill="none" opacity=".15" stroke="#fff"/>
<path d="m-80,867.36218-42-44" fill="none" opacity=".15" stroke="#fff"/>
<path d="m-110,867.36218-32-44" fill="none" opacity=".15" stroke="#fff"/>
<path d="m-125,867.36218-32-44" fill="none" opacity=".15" stroke="#fff"/>
<path d="m-140,867.36218-32-44" fill="none" opacity=".15" stroke="#fff"/>
<path d="m-160.28701,860.93393c55.29156-1.57402 58.71753-14.99772 115.00227-8.57402" fill="none" opacity=".15" stroke="#fff"/>
<path d="m-126,866.36222 32,43.99998" fill="none" opacity=".15" stroke="#fff"/>
<path d="m-111,866.36222 42,43.99998" fill="none" opacity=".15" stroke="#fff"/>
<path d="m-81,866.36222 42,43.99998" fill="none" opacity=".15" stroke="#fff"/>
<path d="m-50,866.36222-42,43.99998" fill="none" opacity=".15" stroke="#fff"/>
<path d="m-80,866.36222-42,43.99998" fill="none" opacity=".15" stroke="#fff"/>
<path d="m-110,866.36222-32,43.99998" fill="none" opacity=".15" stroke="#fff"/>
<path d="m-125,866.36222-32,43.99998" fill="none" opacity=".15" stroke="#fff"/>
<path d="m-140,866.36222-32,43.99998" fill="none" opacity=".15" stroke="#fff"/>
<path d="m-160.28701,872.79047c55.29156,1.57402 58.71753,14.99772 115.00227,8.57402" fill="none" opacity=".15" stroke="#fff"/>
<path d="m-125,867.36218 32-44" fill="none" filter="url(#filter5135)" opacity=".2" stroke="#8f6b02"/>
<path d="m-110,867.36218 42-44" fill="none" filter="url(#filter5135)" opacity=".2" stroke="#8f6b02"/>
<path d="m-80,867.36218 42-44" fill="none" filter="url(#filter5135)" opacity=".2" stroke="#8f6b02"/>
<path d="m-49,867.36218-42-44" fill="none" filter="url(#filter5135)" opacity=".2" stroke="#8f6b02"/>
<path d="m-79,867.36218-42-44" fill="none" filter="url(#filter5135)" opacity=".2" stroke="#8f6b02"/>
<path d="m-109,867.36218-32-44" fill="none" filter="url(#filter5135)" opacity=".2" stroke="#8f6b02"/>
<path d="m-124,867.36218-32-44" fill="none" filter="url(#filter5135)" opacity=".2" stroke="#8f6b02"/>
<path d="m-139,867.36218-32-44" fill="none" filter="url(#filter5135)" opacity=".2" stroke="#8f6b02"/>
<path d="m-159.28701,860.93393c55.29156-1.57402 58.71753-14.99772 115.00227-8.57402" fill="none" filter="url(#filter5135)" opacity=".2" stroke="#8f6b02"/>
<path d="m-125,866.36222 32,43.99998" fill="none" filter="url(#filter5135)" opacity=".2" stroke="#8f6b02"/>
<path d="m-110,866.36222 42,43.99998" fill="none" filter="url(#filter5135)" opacity=".2" stroke="#8f6b02"/>
<path d="m-80,866.36222 42,43.99998" fill="none" filter="url(#filter5135)" opacity=".2" stroke="#8f6b02"/>
<path d="m-49,866.36222-42,43.99998" fill="none" filter="url(#filter5135)" opacity=".2" stroke="#8f6b02"/>
<path d="m-79,866.36222-42,43.99998" fill="none" filter="url(#filter5135)" opacity=".2" stroke="#8f6b02"/>
<path d="m-109,866.36222-32,43.99998" fill="none" filter="url(#filter5135)" opacity=".2" stroke="#8f6b02"/>
<path d="m-124,866.36222-32,43.99998" fill="none" filter="url(#filter5135)" opacity=".2" stroke="#8f6b02"/>
<path d="m-139,866.36222-32,43.99998" fill="none" filter="url(#filter5135)" opacity=".2" stroke="#8f6b02"/>
<path d="m-159.28701,872.79047c55.29156,1.57402 58.71753,14.99772 115.00227,8.57402" fill="none" filter="url(#filter5135)" opacity=".2" stroke="#8f6b02"/>
</g>
<g mask="url(#mask5355)" transform="matrix(1.03279,0,0,1.03279,612.47541,-453.41072)">
<path d="m26,736.36218h102v61h-102z" fill="#f2d88e"/>
<path d="m26-768.89551h102v18.75977h-102z" fill="url(#linearGradient5294)" transform="scale(1,-1)"/>
<path d="m26,736.39551h102v15.8109h-102z" fill="url(#linearGradient5296)"/>
<path d="m26,767.88428h102v29.15369h-102z" fill="url(#linearGradient4342)"/>
</g>
<g mask="url(#mask5438)" transform="matrix(.6348,0,0,1.03279,672.36362,-453.41072)">
<path d="m116,736.36218h382v61h-382z" fill="url(#linearGradient4282)"/>
<path d="m116,768.89551h382v28.46666h-382z" fill="url(#linearGradient4253)"/>
<path d="m116-768.89551h382v18.97778h-382z" fill="url(#linearGradient4250)" transform="scale(1,-1)"/>
<path d="m116-768.89551h382v2.71111h-382z" fill="url(#linearGradient4247)" transform="scale(1,-1)"/>
</g>
<g mask="url(#mask5476)" transform="matrix(.40752,0,0,1.04402,956.49364,-462.0218)">
<path d="m26,736.36218h102v61h-102z" fill="#f2d88e"/>
<path d="m26-768.0932h102v23.49436h-102z" fill="url(#linearGradient5452)" transform="scale(1,-1)"/>
<path d="m26,736.39551h102v12.65502h-102z" fill="url(#linearGradient5454)"/>
<path d="m26,767.88428h102v29.15369h-102z" fill="url(#linearGradient4342)"/>
</g>
<g mask="url(#mask5424)" transform="matrix(.93443,0,0,1.06557,639.04918,-478.55374)">
<path d="m26,736.36218h102v61h-102z" fill="#f2d88e"/>
<path d="m26-768.0932h102v17.43501h-102z" fill="url(#linearGradient5407)" transform="scale(1,-1)"/>
<path d="m26,736.39551h102v17.01571h-102z" fill="url(#linearGradient5409)"/>
<path d="m26,767.88428h102v29.15369h-102z" fill="url(#linearGradient4342)"/>
</g>
<path d="m715.59595-342.35712h37.40399v5.72931h-37.40399z" fill="url(#linearGradient3823)" opacity=".75" transform="scale(1,-1)"/>
<path d="m715.75977-357.62781h37.24023v6.87275h-37.24023z" fill="url(#linearGradient3813)" opacity=".25" transform="scale(1,-1)"/>
<path d="m496.63297,737.13322c1.231,3.56766 1.9656,22.8363 2.01918,30.95753 .0804,12.17918-.54969,27.37817-2.15215,28.90483" fill="none" filter="url(#filter5588)" opacity=".15" stroke="#fff" stroke-linecap="round" stroke-width=".69557" transform="matrix(2.21098,0,0,.93483,-88.83796,-378.40692)"/>
<path d="m975.59595-340.35712h38.89925v5.72931h-38.89925z" fill="url(#linearGradient3816)" opacity=".25" transform="scale(1,-1)"/>
<path d="m975.75977-357.62781h38.54853v6.87275h-38.54853z" fill="url(#linearGradient3813)" opacity=".25" transform="scale(1,-1)"/>
<path d="m639.76782,780.36218h155.23218l-4.04987,10h-149.68194z" fill="url(#linearGradient5944)" filter="url(#filter5940)" opacity=".75" transform="matrix(.24692,0,0,.83915,817.47231,-302.99849)"/>
<path d="m496.63297,737.13322c.80832,3.36772 1.20478,22.43642 1.25836,30.55765 .0804,12.17918-.21155,27.17824-1.39133,29.30471" fill="none" filter="url(#filter4992)" opacity=".25" stroke="#fff" stroke-linecap="round" stroke-width=".75492" transform="matrix(1.67861,0,0,1.04531,140.79219,-464.15864)"/>
<path d="m496.63297,737.13322c.80832,3.36772 1.20478,22.43642 1.25836,30.55765 .0804,12.17918-.21155,27.17824-1.39133,29.30471" fill="none" filter="url(#filter5588)" opacity=".25" stroke="#000" stroke-linecap="round" stroke-width=".65779" transform="matrix(2.21098,0,0,1.04531,-98.83796,-463.15864)"/>
<path d="m496.63297,737.13322c.80832,3.36772 1.20478,22.43642 1.25836,30.55765 .0804,12.17918-.21155,27.17824-1.39133,29.30471" fill="none" filter="url(#filter5588)" opacity=".15" stroke="#fff" stroke-linecap="round" stroke-width=".65779" transform="matrix(2.21098,0,0,1.04531,-99.83796,-463.15864)"/>
<path d="m496.63297,737.13322c1.231,3.56766 1.9656,22.8363 2.01918,30.95753 .0804,12.17918-.54969,27.37817-2.15215,28.90483" fill="none" filter="url(#filter5588)" opacity=".1" stroke="#000" stroke-linecap="round" stroke-width="1.12256" transform="matrix(.84889,0,0,.93483,579.73128,-378.40692)"/>
<path d="m763,329.59448 234-2v24l-234-2z" fill="url(#linearGradient3805)"/>
<path d="m544.84375,761.46875c-.58372,4.8792-.1953,9.98897-.15625,14.78125 1.97032,2.10177 5.78632-.059 8.30955.35203 15.11413-1.74861 30.29602-3.44297 45.5342-2.72703 54.61457-.0334 109.22936.0825 163.84375-.0937 2.60552-1.73305.29604-5.49633 1.3125-7.875-.41454-3.30843-4.61412-1.7227-6.75-2.03535-60.32924-.13119-120.67539.3514-180.99398-.29297-10.14497-1.01938-20.76892-2.29071-30.94352-2.98418l-.0879.49221-.0684.38279z" fill="url(#linearGradient5838)" filter="url(#filter4992)" stroke="url(#linearGradient5840)" stroke-width="1.97498" transform="matrix(1.02549,0,0,1,206.1316,-429.2677)"/>
<path d="m764.74263,332.10184c-.69586,1.75147-.54603,5.57403-.53316,7.66908s-.0378,5.74664.73908,7.44296c.22663.19011.4184.13537.68011.11517 12.86601-.98921 25.92075-2.69484 38.65259-3.84678 .13555-2.34098.37411-5.58963-.0625-7.84375-12.82603-.92909-25.78787-2.86373-38.59051-3.72766-.27199-.0183-.50897-.0362-.88561.19095z" fill="#0f151d"/>
<path d="m829.5,336.09448h127c.831,0 1.5.669 1.5,1.5v4c0,.831-.669,1.5-1.5,1.5h-127c-.831,0-1.5-.669-1.5-1.5v-4c0-.831.669-1.5 1.5-1.5z" fill="#0f151d"/>
<path d="m829.00842,335.84869h127.98316c.831,0 1.5.669 1.5,1.5v4.49158c0,.831-.669,1.5-1.5,1.5h-127.98316c-.831,0-1.5-.669-1.5-1.5v-4.49158c0-.831.669-1.5 1.5-1.5z" fill="none" stroke="url(#linearGradient3799)" stroke-width="1.5"/>
<path d="m777.28125,759.90625-.4932.0822-.0693.0116v-5e-005c-4.29827.9362-8.92161,3.29164-12.09068,4.33379-.94307,1.44719-.61122,3.07629-.65813,4.72862s.0619,2.86879.81131,4.23382c3.3184,2.03619 8.23042,3.65721 12.5,4.61002" fill="url(#linearGradient5808)" filter="url(#filter4992)" stroke="url(#linearGradient5816)" stroke-width="1.68191" transform="matrix(.62242,0,0,1.27788,513.59043,-642.93484)"/>
<path d="m763.57475,330.26696v18.63948" fill="none" filter="url(#filter4992)" opacity=".5" stroke="#fff" stroke-linecap="round"/>
<path d="m639.76782,780.36218h155.23218v10h-153.73181z" fill="url(#linearGradient5944)" filter="url(#filter5940)" opacity=".75" transform="matrix(.2182,0,0,.83915,576.80091,-302.99849)"/>
<path d="m717.5,307.59448v62" fill="none" filter="url(#filter4992)" opacity=".25" stroke="#fff" stroke-linecap="round"/>
<path d="m496.5,736.86218v60" fill="none" filter="url(#filter4992)" opacity=".25" stroke="#000" stroke-linecap="round" stroke-width=".95723" transform="matrix(1.06291,0,0,1.02677,188.76674,-448.79414)"/>
<path d="m497.03186,736.99982c.80832,3.36772.80589,18.86494.85947,26.98617 .0804,12.17918.18734,30.74972-.99244,32.87619" fill="none" filter="url(#filter4992)" opacity=".25" stroke="#000" stroke-linecap="round" stroke-width=".95723" transform="matrix(1.06291,0,0,1.02677,201.76674,-448.79414)"/>
<path d="m497.03186,736.99982c.80832,3.36772.80589,18.86494.85947,26.98617 .0804,12.17918.18734,30.74972-.99244,32.87619" fill="none" filter="url(#filter4992)" opacity=".1" stroke="#fff" stroke-linecap="round" stroke-width=".95723" transform="matrix(1.06291,0,0,1.02677,200.76674,-448.79414)"/>
<path d="m496.63297,737.13322c.80832,3.36772 1.20478,22.33571 1.25836,30.45694 .0804,12.17918-.21155,27.27895-1.39133,29.40542" fill="none" filter="url(#filter4992)" opacity=".15" stroke="#fff" stroke-linecap="round" stroke-width="1.15958" transform="matrix(.79672,0,0,.93345,348.33181,-377.35372)"/>
<path d="m496.63297,737.13322c.80832,3.36772 1.20478,22.43642 1.25836,30.55765 .0804,12.17918-.21155,27.17824-1.39133,29.30471" fill="none" filter="url(#filter4992)" opacity=".08" stroke="#000" stroke-linecap="round" stroke-width=".94236" transform="matrix(1.06291,0,0,1.05943,216.76674,-473.9832)"/>
<path d="m496.63297,737.13322c.80832,3.36772 1.20478,22.43642 1.25836,30.55765 .0804,12.17918-.21155,27.17824-1.39133,29.30471" fill="none" filter="url(#filter4992)" opacity=".25" stroke="#fff" stroke-linecap="round" stroke-width=".94236" transform="matrix(1.06291,0,0,1.05943,221.26674,-473.9832)"/>
<path d="m496.63297,737.13322c.80832,3.36772 1.20478,22.43642 1.25836,30.55765 .0804,12.17918-.21155,27.17824-1.39133,29.30471" fill="none" filter="url(#filter4992)" opacity=".25" stroke="#000" stroke-linecap="round" stroke-width=".9487" transform="matrix(1.06291,0,0,1.04531,222.26674,-463.15864)"/>
<path d="m-7.54634,736.90197c-3.27639,1.64781-5.72515,16.59039-5.84925,30.58709-.10941,12.33956 3.12106,28.26618 5.84925,29.23594" fill="none" filter="url(#filter4444)" opacity=".25" stroke="#fff" stroke-linecap="round" stroke-width="1.07616" transform="matrix(1,0,0,.86347,230,-323.57229)"/>
<path d="m-8.54634,736.90197c-3.438,1.55423-5.56354,16.40323-5.68764,30.39993-.10941,12.33956 2.71703,28.07901 5.68764,29.4231" fill="none" filter="url(#filter4444)" opacity=".15" stroke="#000" stroke-linecap="round" stroke-width="1.07616" transform="matrix(1,0,0,.86347,230,-323.57229)"/>
<path d="m-12.07199,765.09921c-.01398.73383-.02421,1.46866-.03072,2.20269-.0063.71123-.0045,1.43314.005,2.16242" fill="none" filter="url(#filter4444)" opacity=".5" stroke="#fff" stroke-linecap="round" stroke-width=".93971" transform="matrix(1,0,0,1.13243,229,-529.2574)"/>
<path d="m-12.07199,765.09921c-.01398.73383-.02421,1.46866-.03072,2.20269-.0063.71123-.0045,1.43314.005,2.16242" fill="none" filter="url(#filter4444)" opacity=".25" stroke="#fff" stroke-linecap="round" stroke-width="1.07616" transform="matrix(1,0,0,.86347,227,-323.57229)"/>
<path d="m-7.54634,736.90197c-3.16928,4.40919-5.72515,16.59039-5.84925,30.58709-.10941,12.33956 1.83574,24.53831 5.84925,29.23594" fill="none" filter="url(#filter4444)" opacity=".25" stroke="#fff" stroke-linecap="round" stroke-width="1.13796" transform="matrix(.99771,0,0,.77399,209.47408,-255.01676)"/>
<path d="m-8.54634,736.90197c-3.75933,1.96844-5.56354,16.40323-5.68764,30.39993-.10941,12.33956 2.18148,27.80287 5.68764,29.4231" fill="none" filter="url(#filter4444)" opacity=".15" stroke="#000" stroke-linecap="round" stroke-width="1.13796" transform="matrix(.99771,0,0,.77399,209.47408,-255.01676)"/>
<path d="m-12.07199,765.09921c-.01398.73383-.02421,1.46866-.03072,2.20269-.0063.71123-.0045,1.43314.005,2.16242" fill="none" filter="url(#filter4444)" opacity=".25" stroke="#fff" stroke-linecap="round" stroke-width="1.13796" transform="matrix(.99771,0,0,.77399,206.48095,-255.01676)"/>
<path d="m-12.07199,765.09921c-.01398.73383-.02421,1.46866-.03072,2.20269-.0063.71123-.0045,1.43314.005,2.16242" fill="none" filter="url(#filter4444)" opacity=".5" stroke="#fff" stroke-linecap="round" stroke-width=".93971" transform="matrix(1,0,0,1.13243,208.5,-529.2574)"/>
<path d="m-12.07199,765.09921c-.01398.73383-.02421,1.46866-.03072,2.20269-.0063.71123-.0045,1.43314.005,2.16242" fill="none" filter="url(#filter4444)" opacity=".5" stroke="#fff" stroke-linecap="round" stroke-width=".98981" transform="matrix(.99771,0,0,1.02304,191.47637,-445.46976)"/>
<path d="m-7.54634,736.90197c-3.16928,4.40919-5.72515,16.59039-5.84925,30.58709-.10941,12.33956 1.83574,24.53831 5.84925,29.23594" fill="none" filter="url(#filter4444)" opacity=".25" stroke="#fff" stroke-linecap="round" stroke-width="1.20875" transform="matrix(.93621,0,0,.73106,191.30425,-222.09262)"/>
<path d="m496.68855,736.73402c1.64208,4.6984 1.91858,21.36909 1.98537,31.49214 .0804,12.17919-.66064,29.43738-2.00717,29.16862" fill="none" filter="url(#filter5588)" opacity=".25" stroke="#fff" stroke-linecap="round" stroke-width=".69981" transform="matrix(2.21098,0,0,.92355,-88.83796,-369.75518)"/>
<path d="m-7.54634,736.90197c-3.16928,4.40919-5.72515,16.59039-5.84925,30.58709-.10941,12.33956 1.83574,24.53831 5.84925,29.23594" fill="none" filter="url(#filter6503)" opacity=".05" stroke="#000" stroke-linecap="round" stroke-width="4.31574" transform="matrix(.6979,0,0,.69237,203.33415,-192.42488)"/>
<path d="m-7.54634,736.90197c-3.16928,4.40919-5.72515,16.59039-5.84925,30.58709-.10941,12.33956 1.83574,24.53831 5.84925,29.23594" fill="none" filter="url(#filter6471)" opacity=".25" stroke="url(#linearGradient6465)" stroke-linecap="round" stroke-width="4.31574" transform="matrix(.6979,0,0,.69237,200.83415,-192.42488)"/>
<g mask="url(#mask6851)" transform="translate(220,-543.2677)">
<path d="m48.17078,882.05731-22.87013-32.01818" fill="none" opacity=".15" stroke="#fff"/>
<path d="m21.87013,858.90244h106.3461" fill="none" opacity=".15" stroke="#fff"/>
<path d="m86.47825,859.18718 5.14578-14.86558" fill="none" opacity=".15" stroke="#fff"/>
<path d="m38.94255,858.94139 20.66329-13.47628" fill="none" opacity=".15" stroke="#fff"/>
<path d="m48.17078,881.32159-22.87013,32.01818" fill="none" opacity=".15" stroke="#fff"/>
<path d="m21.87013,904.47646h106.3461" fill="none" opacity=".15" stroke="#fff"/>
<path d="m86.47825,904.19172 5.14578,14.86558" fill="none" opacity=".15" stroke="#fff"/>
<path d="m38.94255,904.43751 20.66329,13.47628" fill="none" opacity=".15" stroke="#fff"/>
<path d="m48,882.86218h98" fill="none" opacity=".15" stroke="#fff"/>
<path d="m49.17078,882.05731-22.87013-32.01818" fill="none" opacity=".25" stroke="#8f6b02"/>
<path d="m22.87013,858.90244h106.3461" fill="none" opacity=".25" stroke="#8f6b02"/>
<path d="m87.47825,859.18718 5.14578-14.86558" fill="none" opacity=".25" stroke="#8f6b02"/>
<path d="m39.94255,858.94139 20.66329-13.47628" fill="none" opacity=".25" stroke="#8f6b02"/>
<path d="m49.17078,881.32159-22.87013,32.01818" fill="none" opacity=".25" stroke="#8f6b02"/>
<path d="m22.87013,904.47646h106.3461" fill="none" opacity=".25" stroke="#8f6b02"/>
<path d="m87.47825,904.19172 5.14578,14.86558" fill="none" opacity=".25" stroke="#8f6b02"/>
<path d="m39.94255,904.43751 20.66329,13.47628" fill="none" opacity=".25" stroke="#8f6b02"/>
<path d="m48,881.86218h98" fill="none" opacity=".25" stroke="#8f6b02"/>
</g>
<path d="m257.45366,308.63427c-2.95317,2.11572-4.43227,16.40323-4.55637,30.39993-.10941,12.33956 2.2322,27.89185 4.55637,29.4231" fill="none" filter="url(#filter4444)" opacity=".25" stroke="#fff" stroke-linecap="round"/>
<path d="m256.45366,308.63427c-2.95317,2.11572-4.43227,16.40323-4.55637,30.39993-.10941,12.33956 2.2322,27.89185 4.55637,29.4231" fill="none" filter="url(#filter4444)" opacity=".15" stroke="#000" stroke-linecap="round"/>
<path d="m32.92801,765.09921c-.01398.73383-.02421,1.46866-.03072,2.20269-.0063.71123-.0045,1.43314.005,2.16242" fill="none" filter="url(#filter4444)" opacity=".5" stroke="#fff" stroke-linecap="round" stroke-width=".9356" transform="matrix(1,0,0,1.14239,220,-537.15982)"/>
<path d="m250.92801,336.83151c-.014.73383-.0242,1.46866-.0307,2.20269-.006.71123-.004,1.43314.005,2.16242" fill="none" filter="url(#filter4444)" opacity=".25" stroke="#fff" stroke-linecap="round"/>
<path d="m341.45366,308.63427c-1.83376,4.5128-3.45228,49.61725 0,59.82303" fill="none" filter="url(#filter4444)" opacity=".5" stroke="#000" stroke-linecap="round"/>
<path d="m340.45366,308.63427c-1.83376,4.5128-3.45228,49.61725 0,59.82303" fill="none" filter="url(#filter4444)" opacity=".25" stroke="#fff" stroke-linecap="round"/>
<path d="m744.28125,306.1073c.0721.4248-.35745.828-.28125,1.25 .14185.7857.27261,1.7191.375,2.75h-13.34375c-.0466-.6326-.10968-1.1775-.15625-1.5938-.0829-.7409-.87855-1.3955-1.4375-1.4062h-13.28125v1h-83.15625-377c-.64627.4807-1.31306,1.8019-1.9375,4h-32.6875c-.91928.5106-1.80195,1.4809-2.59375,3h-18.375c-.62857.3491-1.24477.9428-1.8125,1.8125-2.39033-.9392-4.29084-1.4276-5.1875-1.125h-9.0625c-.14149.079-.26462.177-.40625.2812h-4.40625c-1.80571,1.0091-3.66539,4.1394-4.71875,10.3438l-67.46875-11.3125c-17.28534,7.5247-34.55899,17.5965-51.84375,22.8125-.36543-.5894-.97492-.8125-1.65625-.8125-1.11459,0-2,.8857-2,2.1562s.94791,1.9375 2.0625,1.9375c.73966,0 1.3361-.1047 1.6875-.7812 17.25536,5.2237 34.49404,15.3006 51.75,22.8125l67.6875-11.3438c1.0716,5.3084 2.79559,8.0717 4.5,9.1875h4.40625c.13582.1095.27016.224.40625.3125h9.09375c1.2058.1736 3.12388-.4496 5.15625-1.2812 .57412.9048 1.16924,1.5814 1.8125,2h18.4375c.76827,1.4354 1.63594,2.4174 2.53125,3h32.65625c.61876,2.0934 1.30879,3.3998 1.96875,4h377 83.15625v1h13.0625c.74463.1319 1.57509-.7269 1.625-1.4063 .0275-.3743.0623-1.1028.0937-1.5937h13.40625c-.0954,1.0165-.19793,1.9207-.3125,2.5625-.0724.4057.33122,1.0327.25,1.4375h5.09375c.0588-.2252.11671-.5901.1875-1h224.6875c.0373.1236.0516.2446.0312.3437h25.09375c.3165-.4477.6556-1.5287 1.0313-3.1562h9.2187c.6084-.2203 1.1922-.8914 1.75-2.0625 .5864-.2088 1.1437-.4865 1.6875-.8438 4.4257-9.8766 2.8507-21.0569 3.1875-31.5937-.3406-7.1929-1.0642-14.7332-4.5937-21.0625-.3482-.2555-.738-.3478-1.1563-.375-.3203-.6937-.6313-1.1879-.875-1.4688h-9.0625c-.3925-1.7049-.7823-2.7419-1.1875-3.125h-25.09375c.0196.1131.0116.2284-.0312.3438h-224.65625c-.0794-.4685-.15506-.8006-.21875-1h-5.09375z" fill="url(#linearGradient3747)" opacity=".5"/>
</svg>
