<?xml version="1.0" encoding="UTF-8" standalone="no"?>
<svg viewBox="0 0 130.125 182.53432" xmlns="http://www.w3.org/2000/svg">
<g transform="translate(340.844,319.003)">
<path d="m-217.18279-44.41095a25.00128,25.00128 0 1,1 -50.00255,0 25.00128,25.00128 0 1,1 50.00255,0z" transform="matrix(.64489,0,0,.64489,-89.3843,-274.24)"/>
<path d="m-263.34375-279.59375c-.96691.00843-1.90218.44561-2.53125,1.28125l-16.8125,22.34375h-27.40625c-1.78604,0-3.21877,1.43271-3.21875,3.21875v5.6875c0,1.78604 1.43271,3.21875 3.21875,3.21875h31.4375c.98902,0 1.84704-.45947 2.4375-1.15625 .4219-.21595.81977-.5008 1.125-.90625l10.1875-13.53125v36.09375 6.9375 71.875c0,4.477 3.61677,8.0625 8.09375,8.0625h.5c4.477,0 8.09376-3.5855 8.09375-8.0625v-68.59375h5.34375v68.59375c0,4.477 3.5855,8.0625 8.0625,8.0625h.5c4.477,0 8.09376-3.5855 8.09375-8.0625v-78.8125c0-.27981-.00376-.54017-.03125-.8125v-35.4375h3.40625v16.5625 27.40625c0,3.12051 2.70476,5.625 6.0625,5.625s6.0625-2.50448 6.0625-5.625v-52.15625-3.03125h-.03125c.00244-.08399.03125-.16542.03125-.25 0-4.71837-3.84413-8.53125-8.5625-8.53125h-.09375-10.15625-16.09375-17.71875z"/>
<g transform="translate(0,.8125)">
<path d="m-346.0159-146.85416h11.78571v11.78571h-11.78571z" transform="rotate(9.46232)"/>
<path d="m-176.90125-339.74557h11.78571v11.78571h-11.78571z" transform="matrix(.88148,-.47222,.47222,.88148,0,0)"/>
<path d="m-391.07056-75.78056h11.78571v11.78571h-11.78571z" transform="rotate(25.56178)"/>
<path d="m-329.8125-211.34375-11.03125.125 10.15625,73.9375h1.21875 36.96875 .71875l10.15625-73.9375-11.03125-.125-8.59375,62.625h-19.96875l-8.59375-62.625z"/>
</g>
</g>
</svg>
