<?xml version="1.0" encoding="UTF-8" standalone="no"?>
<svg viewBox="0 0 198.75 166.25" xml:space="preserve" xmlns="http://www.w3.org/2000/svg"><defs></defs><g transform="matrix(1.25,0,0,-1.25,0,166.25)"><g transform="scale(.24)"><path d="m306.824,69.9922-5.656-1.3359-5.383-1.4102-5.66-1.1563-5.641-1.3359-5.66-1.4101-5.472-1.336-5.641-1.1523-5.66-1.4102-5.641-1.3398-5.656-1.3164-5.402-1.4297-5.641-1.1524-5.641-1.3359-5.66-1.4102-5.472-1.3203-5.641-1.3359-1.758-.4219-1.742-.2383-1.738-.164h-1.575l-1.757.164-1.575.6602-1.484.5859-1.594.9141-1.738,2.5664-.586,3.4961-.824,3.4805-1.504,2.582-3.57,1.9023-3.809,1.3399-4.156.9883-4.067.8398-4.066.918-3.754,1.4101-3.059,2.3242-2.746,3.0586-.586,2.3243 1.336,1.5937 2.567,1.4102 3.496,1.1562 3.738.9141 3.641,1.4101 2.914,1.9024 1.738,2.582v1.9063l-1.316,1.5937-2.164,1.3164-2.325,1.4102-2.324,1.1718-1.742,1.3204-.75,1.5742 .586,1.7581 1.32,1.32 1.574,1.41 1.758.75 1.903.84 1.996.57 1.906.328 2.324.422 2.164.164h4.485l2.328-.164h2.16l2.324-.164h2.16l1.907-.258h1.996l5.988-2.324 5.894-2.328 5.973-2.1405 6.059-2.3242 6.062-2.1641 5.824-2.0859 6.063-2.3985 5.969-2.0898 6.062-2.1602 5.82-2.3242 6.063-2.1445 5.988-2.1602 5.899-2.3242 5.968-2.1602 5.895-2.3281 5.988-2.3242" fill="#1f635a"></path><path d="m217.863,46.4063 5.66,1.4101 5.473,1.3164 5.641,1.4102 5.66,1.3359 5.641,1.1563 5.402,1.3359 5.64,1.4102 5.657,1.3359 5.64,1.4101 5.661,1.1563 5.472,1.3359 5.641,1.4102 5.66,1.3359 5.641,1.1524 5.402,1.3398 5.641,1.4063-1.157,4.6523-5.64-1.3359-5.403-1.4102-5.656-1.1523-5.641-1.336-5.64-1.4101-5.492-1.3399-5.641-1.1523-5.66-1.3359-5.641-1.4102-5.64-1.3203-5.403-1.4258-5.656-1.1562-5.641-1.336-5.64-1.4101-5.492-1.3164-5.641-1.3399l1.152-4.7226" fill="#363639"></path><path d="m202.754,48.3828 1.906-1.1523 1.738-.586 1.758-.8242 2.164-.168h1.903l1.742.168 1.996.2383 1.902.3477-1.152,4.7226-1.504-.4219-1.574-.164-1.738-.2383h-1.172l-1.41.2383-1.321.3476-1.426.5703-1.156.8399l-2.656-3.918" fill="#363639"></path><path d="m198.012,60.4336 .422-.4219 .421-.8984 .165-1.5938 .402-1.5742 .164-1.7383 .586-2.1601 1.008-1.9063 1.574-1.7578 2.656,3.918-.328.5703-.586.75-.258,1.4102-.164,1.7578-.402,1.9023-.586,1.9063-.75,1.832-1.574,1.9023l-2.75-3.8984" fill="#363639"></path><path d="m168.293,74.0586 3.059-3.6641 3.496-2.7304 4.32-1.4063 4.23-1.1758 4.157-.75 3.902-.75 3.481-1.4101 3.074-1.7383 2.75,3.8984-3.903,2.1602-4.25,1.3398-4.3,1.1524-4.086.8437-3.899.7305-3.152,1.3359-2.652,1.9961-2.329,2.4922l-3.898-2.3242" fill="#363639"></path><path d="m186.969,89.2578-1.153-1.5781-2.418-1.5-3.476-1.4102-3.5-.9882-3.899-1.1719-2.914-1.5039-2.324-3.1485 1.008-3.8984 3.898,2.3242-.253.8242h.417l2.165,1.1719 3.074,1.1524 3.902,1.0078 3.899,1.3203 3.48,2.3242 2.324,3.4961l-4.23,1.5781" fill="#363639"></path><path d="m177.172,102.129v-.254l-1.172-3.2422 1.43-2.9844 2.324-1.7421 2.309-1.336 2.324-1.1523 1.761-1.1719 .821-.5703v-.418l4.23-1.5781v3.4805l-1.902,2.582-2.582,1.5742-2.328,1.5039-2.324.9883-1.153.9883-.164.1836v.2383-.2383l-3.574,3.1485" fill="#363639"></path><path d="m212.059,107.934-.75.168h-1.743l-1.996.253h-2.16l-2.324.165h-2.16l-2.328.168h-4.817l-2.324-.168-2.418-.418-2.07-.332-2.16-.825-2.161-.75-2.16-.988-1.738-1.574-1.578-1.504 3.574-3.1485 1.152,1.1525 1.336,1.172 1.411.57 1.738.84 1.758.332 1.742.402 2.324.422 1.906.164h4.157l2.324-.164h2.16l2.328-.238h2.07l1.996-.184h2.161l-.825.184 1.575,4.301" fill="#363639"></path><path d="m307.395,67.6641 .253,4.4882-6.058,2.3243-5.805,2.3281-6.082,2.1601-5.805,2.3243-6.062,2.1445-5.988,2.0859-5.895,2.3985-5.973,2.0898-6.058,2.1602-6.063,2.3242-5.824,2.1641-6.062,2.1406-5.985,2.3241-6.062,2.164-5.805,2.324-6.062,2.325-1.575-4.301 6.063-2.328 5.805-2.3245 6.058-2.1602 6.063-2.3281 5.988-2.0859 5.898-2.1602 5.969-2.3281 6.078-2.1602 5.973-2.1406 5.894-2.3281 5.989-2.1602 6.062-2.1601 5.805-2.3243 6.062-2.164 5.821-2.3242 6.062-2.3243 .164,4.4844 1.157-4.6523" fill="#363639"></path><path d="m275.676,532.27 1.41,3.316 1.574,3.332 1.922,3.148 2.145,2.914 2.324,2.489 2.746,1.996 2.914,1.32 3.074.422 2.164-.422 1.574-1.32 1.153-1.996 .75-2.746 .258-2.91 .164-3.317-.164-3.238-.422-3.317 1.336,2.731 1.812,2.672 1.926,2.562 2.16,2.328 2.141,1.739 2.511,1.336 2.489.824 2.566-.238 1.922-.75 1.152-1.575 .825-2.086 .347-2.566-.183-2.746-.403-2.91-.75-2.731-.988-2.746 1.977,2.418 2.492,2.067 2.746,1.742 2.746,1.246 2.91.75h2.731l2.324-.586 2.16-1.41 1.176-1.907 .164-2.16-.586-2.492-1.172-2.582-1.742-2.488-2.16-2.324-2.161-2.164-2.07-1.739 3.242.75 3.735.586 3.902.403 3.899-.165 3.5-.585 2.894-1.153 2.16-1.832 1.172-2.656v-3.313l-1.336-2.914-2.164-2.984-2.891-2.488-3.335-2.164-3.735-2.161-3.644-1.757-3.332-1.485 2.91.59h3.316l3.332-.258 3.078-.75 2.891-1.156 2.328-1.594 1.832-1.902 .75-2.563-.164-2.914-1.008-2.746-1.742-2.746-2.324-2.07-2.727-2.16-3.172-1.996-3.074-1.739-3.316-1.32 2.914.566 3.312.586 3.336.422 3.055.164 2.75-.164 2.16-.586 1.574-1.41 .75-2.16-.164-2.656-1.172-2.582-1.996-2.16-2.324-1.907-2.73-1.738-3.075-1.41-3.152-1.172-3.074-.914 2.488-.238 2.914-.164 2.727-.586 2.91-.586 2.418-.992 1.906-1.336 1.316-1.575 .586-2.16-.328-2.328-1.152-1.902-1.758-1.758-2.164-1.41-2.726-1.153-2.747-1.007-2.914-.899-2.89-.844h2.324l2.492-.164 2.727-.164 2.582-.422 2.324-.73 1.906-1.008 1.41-1.574 .328-1.906-.328-2.746-1.152-2.328-1.578-2.161-2.16-1.996-2.489-1.738-2.746-1.5-2.914-1.578-2.984-1.574 2.984,1.156 3.242,1.426 3.571,1.32 3.332,1.172 3.48.73 3.332.422 2.895-.586 2.746-1.574 1.32-1.738v-2.164l-.734-2.067-1.41-2.582-1.922-2.492-2.16-2.582-2.164-2.07-2.161-2.16 2.161,1.503 2.582,1.411 2.656,1.152 3.152.75 2.91.422 2.747-.164 2.746-.586 2.07-1.41 1.246-1.575 .164-1.757-.422-1.907-.988-2.16-1.336-2.16-1.574-1.906-1.485-1.906-1.593-1.829 1.593.239 1.485.179h1.738l1.594-.179 1.152-.571 1.172-.585 .824-.989 .164-1.172-.164-2.16-.586-1.906-.988-1.996-1.172-1.902-1.41-1.758-1.484-1.742-1.758-1.575-1.738-1.574 1.5.422h1.578l1.574-.258 1.574-.164 1.336-.586 1.152-.988 1.008-.918 .57-1.168 .348-1.742v-1.832l-.168-1.739-.582-1.906-.754-1.758-.988-1.574-1.172-1.574-1.41-1.316 1.996-.184 1.738-.238 1.907-.164 1.593-.586 1.575-.59 1.152-.988 1.008-1.004 .734-1.321 .422-1.574v-1.758l-.422-1.742-.57-1.738-.75-1.574-1.172-1.575-1.152-1.339-1.411-1.153 1.996.164 2.071.239h2.16l2.16-.239 1.902-.586 1.743-.75 1.246-1.152 .75-1.594 .164-2.16-.328-2.07-.825-1.996-1.171-2.161-1.321-1.906-1.574-1.738-1.758-1.574-1.574-1.172 1.738.418 1.996.168h2.09l2.16-.422 1.977-.586 1.758-.898 1.32-1.262 .84-1.485 .332-1.996-.164-1.906-.59-1.996-.988-1.902-1.172-1.922-1.336-1.996-1.574-1.578-1.575-1.317h1.997l1.902-.164 1.922-.844 1.98-.75 1.594-1.152 1.316-1.41 1.008-1.504 .328-1.738-.164-2.418-.586-2.071-1.172-2.16-1.316-1.996-1.574-1.738-2-1.742-1.902-1.758-1.922-1.317 2.086.329 2.324-.164 2.144-.422 2.325-.75 1.996-1.153 1.593-1.578 1.157-1.574 .328-1.922-.164-2.492-.75-2.399-1.157-2.085-1.574-2.161-1.996-2.144-2.086-1.922-2.402-1.738-2.086-1.578 2.086.753 2.566.825 2.489.328h2.75l2.324-.328 1.996-.825 1.336-1.171 .57-1.743-.168-2.488-.988-2.16-1.738-2.164-2.161-1.738-2.328-1.996-2.488-1.739-2.328-1.504-2.16-1.738 1.32.914 1.574.824 1.594.75 1.48.586 1.833.407h1.503l1.411-.239 1.316-.754 1.758-2.324 .402-3.332-.402-3.48-.75-3.496 1.152,1.335 1.336,1.336 1.414,1.411 1.5.988 1.813.75 1.5.59 1.742.164 1.574-.164 1.41-.59 1.172-.75 .914-.988 .988-1.411 .59-1.5 .586-1.742 .403-1.996 .183-2.16 .567,2.16 .839,2.164 .735,1.903 .75,1.738 1.172,1.578 1.156,1.172 1.41.824 1.59.164 1.484-.402 1.172-.754 1.156-1.172 .84-1.738 .735-1.739 .586-2.16 .421-2.164 .403-2.16 .586,2.16 .75,2.164 .988,1.739 1.172,1.738 1.336,1.172 1.578.988 1.574.586 1.738.168 1.739-.332 1.593-.586 1.321-1.246 1.172-1.481 .988-1.757 .988-1.981 .918-2.324 .84-2.324 .734,2.324 1.008,2.324 1.153,1.981 1.593,1.757 1.481,1.317 1.742,1.008 1.996.402h1.922l2.562-1.574 1.34-3.149 .403-4.25v-4.89l.75,2.75 1.41,2.324 1.336,2.324 1.906,1.981 1.996,1.5 2.16,1.41 2.324.75 2.329.257 1.574-.257 1.172-.989 1.152-1.171 .75-1.5 .824-1.981 .586-2.16 .332-2.324 .418-2.328 .754,2.164 .988,1.902 1.008,1.742 1.152,1.574 1.336,1.172 1.411.824 1.484.329 1.594-.164 1.738-.586 1.41-1.153 1.336-1.34 .992-1.574 .75-1.996 .403-2.07 .347-2.414v-2.328l1.41,2.16 1.575,1.758 1.484,1.41 1.996,1.156 1.758.586 1.902.328h1.742l1.997-.328 2.324-1.996 .988-3.317v-3.824l-.566-4.16 1.484,1.996 1.996,1.906 2.16,1.758 2.324,1.41 2.329.914 2.488.571h2.16l2.16-.899 2.492-3.754 .258-5.218-1.008-5.661-1.574-5.054 1.172,2.164 1.41,1.738 1.574,1.317 1.485,1.007 1.426.586 1.484.164h1.574l1.594-.586 1.906-2.066 .418-3.168-.586-3.902-.75-3.899 1.156,1.41 1.336,1.336 1.739.989 1.574.75 1.758.402 1.742.184 1.574-.184 1.336-.731 1.738-2.417 .422-3.243-.75-3.57-1.738-3.645 1.316,1.153 1.743,1.008 1.757.734 1.739.586h3.316l1.574-.586 1.336-.734 1.41-2.161 .164-2.91-.988-3.332-1.758-3.738 1.43,1.41 1.48,1.336 1.411.754 1.574.82 1.34.422h1.336l1.41-.254 1.316-.57 1.41-1.922v-2.91l-.824-3.152-1.574-2.746 1.246,1.007 1.5.989 1.578.75 1.574.586 1.575.421h1.5l1.578-.421 1.152-.75 1.336-2.161 .258-2.91-.844-3.316-1.152-3.735 1.41,1.575 1.574,1.41 1.738,1.172 1.743.734 1.921.582h1.575l1.574-.402 1.172-.914 2.16-4.157 .332-4.816-1.008-5.074-2.328-4.649-7.543,2.325-7.398,2.492-7.637,2.324-7.563,2.582-7.562,2.324-7.379,2.492-7.656,2.399-7.543,2.492-7.399,2.324-7.636,2.582-7.563,2.325-7.562,2.492-7.473,2.324-7.563,2.328-7.546,2.582-7.399,2.324-7.637,2.563-7.562,2.328-7.637,2.488-7.394,2.328-7.567,2.582-7.637,2.325-7.562,2.324-7.379,2.492-7.562,2.418-7.637,2.488-7.399,2.328-7.562,2.325-7.637,2.562-7.562,2.328-7.379,2.489-7.656,2.328-6.555,20.269-6.813,20.09-6.648,20.199-6.649,20.254-6.554,20.106-6.813,20.179-6.648,20.274-6.629,20.015-6.574,20.254-6.645,20.27-6.633,20.015-6.574,20.274-6.883,20.015-6.554,20.254-6.649,20.106-6.648,20.18" fill="#49656c"></path><path d="m293.785,553.531-3.66-.422-3.48-1.738-3.168-2.16-2.489-2.746-2.328-3.059-2.16-3.336-1.574-3.476-1.321-3.5 4.231-1.574 1.41,3.152 1.504,3.074 1.738,2.914 1.996,2.746 2.161,2.324 2.328,1.739 2.324.992 2.488.418v4.652" fill="#363639"></path><path d="m297.102,532.855 4.488-1.171 .418,3.336 .168,3.476-.168,3.57-.254,3.079-.918,3.316-1.574,2.488-2.324,1.996-3.153.586v-4.652l1.156-.254 .844-.734 .731-1.426 .586-2.07 .257-2.747 .164-3.152-.164-3.074-.421-3.317 4.484-1.171-4.32,1.921" fill="#363639"></path><path d="m316.621,548.293h.168l-3.316.168-3.332-.992-2.914-1.574-2.325-1.922-2.324-2.489-2.16-2.73-1.742-2.91-1.574-2.989 4.32-1.921 1.156,2.492 1.758,2.582 1.738,2.324 1.906,2.16 1.997,1.574 2.16,1.176 1.738.567 1.742-.239h.18l.824,4.723" fill="#363639"></path><path d="m316.203,529.195 4.063-2.324 1.007,2.91 .989,3.074 .332,3.153 .254,2.91-.418,3.148-.992,2.657-1.903,2.418-2.914,1.152-.824-4.723 .992-.328 .418-.844 .57-1.484 .348-1.996-.184-2.488-.402-2.75-.586-2.325-.918-2.582 4.067-2.324-3.899,2.746" fill="#363639"></path><path d="m339.789,535.586-2.73,1.996-3.168.75h-3.313l-3.242-.988-3.148-1.172-2.915-1.906-2.746-2.582-2.324-2.489 3.899-2.746 1.593,2.16 2.325,1.758 2.492,1.574 2.324,1.153 2.566.586h2.161l1.5-.418 1.574-.735l3.152,3.059" fill="#363639"></path><path d="m329.074,518.316 1.922-4.156 2.328,1.996 2.324,2.324 2.145,2.329 1.996,2.91 1.336,2.914 .75,3.148-.328,3.074-1.758,2.731-3.152-3.059 .586-1.172v-1.152l-.418-1.996-.918-2.16-1.574-2.09-2.161-2.398-1.906-1.907-1.996-1.589 1.996-4.067-1.172,4.32" fill="#363639"></path><path d="m356.488,511.836-1.574,3.734-2.91,2.325-3.481,1.578-3.918.586-4.066.164-4.32-.403-3.645-.586-3.5-.918 1.172-4.32 3.078.586 3.735.586 3.48.402 3.664-.238 3.149-.586 2.324-.75 1.336-1.156 .824-1.758l4.652.754" fill="#363639"></path><path d="m333.141,494.566 1.593-4.488 3.243,1.574 3.898,1.743 3.734,2.324 3.481,2.16 3.332,2.914 2.328,3.312 1.738,3.5v4.231l-4.652-.754v-2.324l-1.004-2.324-1.906-2.567-2.563-2.16-3.078-2.086-3.734-1.98-3.5-1.758-3.313-1.574 1.575-4.485-1.172,4.742" fill="#363639"></path><path d="m356.488,484.844-1.172,3.496-2.16,2.488-2.894,2-3.074,1.152-3.571.915-3.664.257h-3.48l-3.332-.586 1.172-4.742 2.492.586h3.148l2.91-.164 2.746-.59 2.731-1.152 1.758-1.172 1.32-1.316 .418-1.578l4.652.406" fill="#363639"></path><path d="m336.219,469.238 1.172-4.484 3.57,1.41 3.242,1.902 3.313,1.907 2.91,2.418 2.566,2.324 2.16,3.242 1.172,3.313 .164,3.574-4.652-.406-.254-2.325-.75-2.16-1.32-2.16-2.16-1.926-2.582-1.976-2.895-1.922-2.91-1.574-3.078-1.336 1.172-4.469-.84,4.648" fill="#363639"></path><path d="m358.816,464.59-1.175,3.312-2.325,2.071-2.894.843-3.168.164-3.238-.164-3.575-.421-3.312-.586-2.91-.571 .84-4.648 2.894.566 3.332.586 3.078.422 2.891.164 2.328-.164 1.41-.422 .75-.586 .422-.988l4.652.422" fill="#363639"></path><path d="m338.965,452.117 .422-4.652 3.312,1.172 3.078,1.156 3.477,1.336 3.004,1.906 2.492,2.16 2.324,2.582 1.574,3.313 .168,3.5-4.652-.422-.164-1.906-.844-1.758-1.574-1.813-2.07-1.757-2.582-1.485-2.727-1.41-3.078-1.172-2.914-.75 .332-4.652 .422,4.652" fill="#363639"></path><path d="m358.484,442.156-.843,3.313-1.903,2.16-2.324,1.578-2.988,1.172-3.074.75-2.747.586-3.058.164-2.582.238-.422-4.652 2.582-.238 2.746-.164 2.731-.586 2.652-.422 1.758-.75 1.578-1.153 .824-1.007 .328-.989h4.742" fill="#363639"></path><path d="m339.387,433.184 .566-4.653 2.91,1.008 3.153.988 2.672.914 3.148,1.157 2.328,1.757 2.16,2.161 1.485,2.562 .675,3.078h-4.742l-.164-1.574-.75-1.34-1.41-1.316-1.906-1.008-2.324-1.152-2.75-1.008-2.727-.988-2.91-.586 .586-4.653v4.653" fill="#363639"></path><path d="m357.809,424.887-.571,2.894-2.086,2.489-2.324,1.171-2.73.993-2.91.418-2.75.164-2.727.168h-2.324v-4.653h2.324l2.324-.164 2.731-.258 2.16-.328 1.906-.57 1.59-.84 .57-.586 .164-.898h4.653" fill="#363639"></path><path d="m338.379,411.426 1.738-4.321 3.168,1.575 2.914,1.574 2.727,1.758 2.656,1.906 2.582,2.16 1.738,2.563 1.336,2.675 .571,3.571h-4.653l-.164-1.996-.988-1.922-1.34-1.742-1.738-1.739-2.324-1.574-2.731-1.41-2.91-1.5-2.75-1.578 1.742-4.321-1.574,4.321" fill="#363639"></path><path d="m366.031,415.07h.18l-3.496,1.996-3.645.754-3.754-.332-3.734-.824-3.48-1.336-3.497-1.41-3.48-1.336-2.746-1.156 1.574-4.321 3.074,1.172 3.172,1.411 3.477,1.32 3.152,1.004 3.238.734 3.004.422 2.071-.422 1.996-1.152h.164l2.73,3.476" fill="#363639"></path><path d="m354,397.215 3.074-3.313 2.16,2.161 2.329,2.16 2.14,2.492 2.16,2.726 1.504,2.914 .988,2.747-.164,3.316-2.16,2.652-2.73-3.476 .586-.754-.184-.988-.566-1.575-1.172-2.086-1.742-2.328-2.16-2.562-1.997-2.16-2.066-2.161 3.074-3.242-3.074,3.477" fill="#363639"></path><path d="m378.078,400.293-2.91,1.738-3.059.844-3.168.164-3.316-.418-3.496-.918-2.895-1.152-2.746-1.574-2.488-1.762 3.074-3.477 1.742,1.317 2.325,1.172 2.562,1.156 2.746.586 2.492.422 2.325-.168 2.328-.418 1.41-.992l3.074,3.48" fill="#363639"></path><path d="m369.949,385.754 2.324-3.902 1.575,1.742 1.484,2.16 1.832,1.922 1.336,2.324 1.152,2.566 .586,2.489-.418,2.914-1.742,2.324-3.074-3.48 .586-.75v-.586l-.258-1.411-.73-1.738-1.34-1.922-1.41-1.98-1.575-1.758-1.5-1.738 2.325-3.903-1.153,4.727" fill="#363639"></path><path d="m382.566,380.277-.421,2.161-1.485,1.742-1.574,1.004-1.594.734-1.902.184h-2.16l-1.578-.184-1.903-.164 1.153-4.727 1.171.239 1.575.183h1.32l1.172-.183 .824-.403 .75-.164v-.422h4.652" fill="#363639"></path><path d="m370.277,367.824 2.161-3.898 1.742,1.574 1.738,1.738 1.832,1.742 1.5,1.922 1.156,2.141 1.172,2.328 .824,2.324 .164,2.582h-4.652l-.164-1.738-.422-1.574-.824-1.594-1.172-1.742-1.152-1.574-1.336-1.739-1.742-1.336-1.739-1.578 2.16-3.898-1.246,4.32" fill="#363639"></path><path d="m383.391,362.59v.164l-.825,1.738-1.336,1.336-1.578,1.246-1.902.914-1.996.239-1.574.183h-1.907l-1.996-.586 1.246-4.32 1.153.258h1.172l1.484-.258 1.172-.164 .824-.168 .75-.84 .586-.566 .422-.586v.254l4.305,1.156" fill="#363639"></path><path d="m376.504,350.887 1.574-4.086 1.574,1.578 1.34,1.758 1.153,1.738 .843,2.16 .75,2.328 .239,1.903v2.16l-.586,2.164-4.305-1.156 .164-1.426v-1.32l-.164-1.575-.422-1.574-.75-1.34-.75-1.41-.988-1.336-1.172-1.152 1.5-4.067v4.653" fill="#363639"></path><path d="m390.367,344.238-.988,1.996-1.336,1.321-1.578,1.172-1.902.824-1.833.75-2.324.164-1.742.238-2.16.184v-4.653l1.832-.257 1.738-.164 1.504-.165 1.41-.421 1.153-.418 .75-.735 .586-.586 .586-.75l4.304,1.5" fill="#363639"></path><path d="m382.73,333.363 1.833-4.25 1.5,1.5 1.41,1.41 1.32,1.907 1.008,1.758 .73,2.14 .422,2.164v2.16l-.586,2.086-4.304-1.5 .238-.988v-1.41l-.422-1.34-.402-1.336-.586-1.41-.914-1.152-.989-1.336-1.172-.825 1.739-4.23-.825,4.652" fill="#363639"></path><path d="m399.504,327.703-1.152,2.324-1.739,1.743-2.328,1.007-2.324.75-2.328.239h-2.582l-2.16-.239-2.161-.164 .825-4.652 1.758.164 2.16.238h1.742l1.902-.238 1.574-.422 1.172-.586 .586-.586 .403-.73l4.652,1.152" fill="#363639"></path><path d="m388.043,314.5 2.16-4.066 1.758,1.32 1.738,1.758 1.742,1.902 1.575,2.16 1.336,2.328 .988,2.325 .328,2.566-.164,2.91-4.652-1.152 .168-1.34-.403-1.738-.586-1.575-.918-1.996-1.152-1.742-1.43-1.5-1.738-1.41-1.32-1.008 2.16-4.062-1.59,4.32" fill="#363639"></path><path d="m404.742,309.023-1.172,2.161-1.738,1.742-2.164,1.152-2.324.75-2.492.422h-2.563l-2.086-.164-2.16-.586 1.59-4.32 1.32.254 1.738.164h1.758l1.742-.418 1.575-.422 1.336-.735 .988-.585 .422-1.008l4.23,1.593" fill="#363639"></path><path d="m395.441,295.984 1.739-4.082 1.574,1.336 1.758,1.739 1.574,2.164 1.156,2.16 1.172,2.324 .75,2.328 .164,2.582-.586,2.488-4.23-1.593 .164-1.317-.164-1.336-.422-1.578-.75-1.574-1.152-1.738-1.172-1.742-1.411-1.426-1.574-1.321 1.828-4.062-.418,4.648" fill="#363639"></path><path d="m410.055,286.098-.571,2.656-1.429,1.996-1.575,1.738-1.902,1.336-2.328.989-2.16,1.007-2.324.164h-2.325l.418-4.648h1.485l1.594-.258 1.738-.586 1.574-.566 1.156-.918 1.172-1.008 .586-1.152 .164-.75h4.727" fill="#363639"></path><path d="m396.43,273.059 1.922-4.157 1.902,1.575 2.164,1.738 1.996,1.996 1.738,1.926 1.5,2.16 1.411,2.324 .753,2.731 .239,2.746h-4.727l-.164-1.996-.422-1.575-.914-1.906-1.156-1.758-1.41-1.574-1.922-1.574-1.738-1.742-1.997-1.172 1.997-4.063-1.172,4.321" fill="#363639"></path><path d="m413.293,263.828v-.164l-.586,2.91-1.48,2.164-1.997,1.739-2.328,1.574-2.746,1.008-2.324.328-2.894.258-2.508-.586 1.172-4.321 1.738.164 1.738-.164 1.926-.422 1.996-.57 1.48-.75 1.172-1.41 .825-.914 .168-1.008v-.164l4.648.328" fill="#363639"></path><path d="m397.766,249.309 2.324-4.161 2.16,1.579 2.492,1.996 2.16,2.066 2.161,2.164 1.742,2.582 1.336,2.324 .988,2.911 .164,3.058-4.648-.328-.168-1.996-.586-1.742-.989-1.903-1.336-1.738-1.738-2.164-2.164-1.758-2.16-1.574-2.16-1.574 2.324-4.067-1.902,4.325" fill="#363639"></path><path d="m417.195,245.148-.918,2.989-2.16,1.738-2.562,1.172-2.657.328h-3.168l-2.89-.328-2.75-.988-2.324-.75 1.902-4.325 1.996.754 2.328.567 2.16.422h2.325l1.906-.422 1.43-.332 .566-.567 .164-.586l4.652.328" fill="#363639"></path><path d="m399.102,231.359 2.984-3.734 1.906,1.574 2.324,1.574 2.582,1.758 2.493,2.145 2.16,1.922 2.16,2.562 1.32,2.75 .164,3.238-4.652-.328-.164-1.738-.566-1.594-1.43-1.742-2.07-1.574-2.161-1.738-2.582-1.758-2.308-1.574-2.324-1.907 2.894-3.734-2.73,3.898" fill="#363639"></path><path d="m413.879,233.852 .238-.164-2.14,1.171-1.922.403h-2l-2.16-.586-1.903-.567-1.574-.843-1.742-.918-1.574-.989 2.73-3.898 1.172.988 1.41.586 1.481.75 1.171.586 1.411.238h1.906l.586-.402 .258-.184 2.652,3.829" fill="#363639"></path><path d="m411.555,220.648 4.156-2.16 .566,1.996 .352,1.739 .402,2.16v2.07l-.168,1.758-.418,2.16-.992,1.977-1.574,1.504-2.652-3.829 .328-.402 .586-.844v-.894l.238-1.758v-1.41l-.402-1.32-.422-1.758-.164-1.574 4.062-2.161-3.898,2.746" fill="#363639"></path><path d="m426.168,228.047-2.16.164-2.328-.164-1.903-.75-1.996-.844-1.906-1.32-1.336-1.574-1.574-1.336-1.41-1.575 3.898-2.746 .992,1.172 1.172,1.41 1.336,1.153 1.152.586 1.575.75 1.172.422 1.156.164 1.008-.164l1.152,4.652" fill="#363639"></path><path d="m429.664,215.172 4.488-.348-.183,2.328-.403,2.161-.75,1.921-.586,1.996-1.41,1.739-1.156,1.156-1.5,1.172-1.996.75-1.152-4.652 .73-.422 .844-.422 .75-.75 .566-.988 .586-1.153 .422-1.504 .402-1.828 .184-1.906 4.469-.422-4.305,1.172" fill="#363639"></path><path d="m440.047,228.613-2.414-.402-1.906-.914-1.575-1.574-1.336-1.926-.988-1.996-.754-2.141-.84-2.09-.57-2.398 4.305-1.172 .586,1.996 .75,2.16 .824,1.742 .586,1.5 .918,1.153 .824.844 .75.566h.84v4.652" fill="#363639"></path><path d="m444.445,214.422h4.723l-.402,2.16-.422,2.328-.75,2.324-.75,1.996-.989,2.071-1.578,1.574-1.738,1.172-2.492.566v-4.652l.57-.164 .586-.402 .75-.844 .586-1.317 .734-1.574 .418-1.922 .422-1.996 .332-2.07h4.723l-4.723.75" fill="#363639"></path><path d="m456.566,227.039-2.324-.164-1.996-.75-1.906-1.156-1.738-1.574-1.411-2.161-1.171-1.921-.75-2.329-.825-2.562 4.723-.75 .348,1.738 .824,1.922 .75,1.578 .988,1.317 1.008.843 1.156.731 1.172.422 1.152.164v4.652" fill="#363639"></path><path d="m463.707,213.25 4.488.164-.75,2.328-.992,2.582-.914,2.16-1.172,1.903-1.41,1.742-1.902,1.594-2.164.73-2.325.586v-4.652l1.172-.164 .989-.422 .75-.731 .992-1.41 .75-1.504 1.008-1.828 .894-2.07 .844-2.328 4.488.168-4.746,1.152" fill="#363639"></path><path d="m478.156,226.125h-2.562l-2.492-.57-2.325-1.172-1.757-1.832-1.977-1.903-1.34-2.324-.988-2.582-1.008-2.492 4.746-1.152 .567,2.16 .914,2.07 1.007,1.574 1.153,1.575 1.41,1.007 1.172.75 1.32.164h1.41l.75,4.727" fill="#363639"></path><path d="m479.73,210.52 4.653-.586v7.218l-.403,2.508-.75,2.141-.988,1.758-1.758,1.574-2.328.992-.75-4.727 .75-.164 .164-.421 .586-.915 .422-1.41 .402-1.742v-6.812l4.653-.586-4.653,1.172" fill="#363639"></path><path d="m496.27,225.555-2.75-.254-2.891-.918-2.582-1.574-2.07-1.739-2.161-2.328-1.574-2.582-1.594-2.488-.918-3.152 4.653-1.172 .586,2.328 1.172,2.16 1.156,2.16 1.738,1.574 1.758,1.34 1.738,1.153 1.742.585 1.997.165v4.742" fill="#363639"></path><path d="m500.918,211.09 4.488-.164-.422,2.324-.328,2.492-.824,2.414-.754,2.071-.988,1.996-1.594,1.574-1.738,1.336-2.488.422v-4.742h.585l.586-.586 .731-.75 .586-1.153 .824-1.742 .348-1.996 .402-2.086 .422-2.398 4.488-.168-4.324,1.156" fill="#363639"></path><path d="m513.371,222.387-2.324.164-2.16-.567-1.907-.914-1.738-1.593-1.41-1.739-1.172-1.996-.918-2.07-.824-2.582 4.324-1.156 .75,1.742 .988,1.738 .75,1.594 .989,1.32 1.008.824 .75.586 .992.164 .75-.164l1.152,4.649" fill="#363639"></path><path d="m517.859,207.773 4.321-1.171v2.582l-.422,2.492-.403,2.324-.914,2.328-1.41,1.996-1.574,1.739-1.758,1.335-2.328.989-1.152-4.649 1.152-.168 1.008-.988 1.152-1.008 .586-1.152 .586-1.574 .406-1.922 .348-2.164v-2.16l4.301-1.153-3.899,2.324" fill="#363639"></path><path d="m534.395,215.742-2.493.586h-2.16l-2.324-.332-2.16-.824-2.328-1.336-1.739-1.738-1.996-1.996-1.336-2.329 3.899-2.324 1.336,1.996 1.156,1.485 1.426,1.004 1.578.992 1.316.418 1.575.332h1.339l1.411-.164l1.5,4.23" fill="#363639"></path><path d="m534.395,201.785 4.32-1.738 .402,1.906 .168,2.324v4.321l-.57,2.16-.84,2.09-1.32,1.738-2.16,1.156-1.5-4.23 .585-.422 .586-.57 .329-1.004 .238-1.321v-3.496l-.238-1.996-.329-1.906 4.231-1.738-3.902,2.726" fill="#363639"></path><path d="m554.832,209.934-2.914,1.41h-2.91l-3.078-.824-2.563-1.004-2.746-1.485-2.324-1.996-2.164-2.16-1.738-2.09 3.902-2.726 1.406,1.738 1.742,1.742 1.922,1.574 1.977,1.172 2.09.988 1.996.329h1.316l1.41-.567l2.676,3.899" fill="#363639"></path><path d="m551.59,189.332 4.23-1.738 .75,2.492 .989,2.746 .586,3.059 .421,3.004 .164,2.89-.585,3.078-1.172,2.91-2.141,2.161-2.676-3.899 .918-.914 .84-1.41 .168-1.926-.168-2.562-.422-2.493-.582-2.746-.586-2.324-.734-2.562 4.23-1.758-4.23,1.992" fill="#363639"></path><path d="m566.531,196.898h-.164l-2.16.75h-2.16l-1.906-.164-1.996-.754-1.739-1.171-1.922-1.739-1.574-1.996-1.32-2.492 4.23-1.992 .989,1.758 1.171,1.574 1.153.988 1.34.75 .824.422 1.172.164h.914l.988-.328h-.164l2.324,4.23" fill="#363639"></path><path d="m564.371,183.109 4.324-1.996 .328,2.16 .422,1.903 .403,1.996 .183,2.16v1.906l-.586,2.325-1.172,1.757-1.742,1.578-2.324-4.23 .586-.422 .402-.586 .184-.824v-1.172l-.184-1.738-.402-1.906-.422-1.997-.328-1.738 4.23-1.926-3.902,2.75" fill="#363639"></path><path d="m579.992,187.758-1.996.988-2.324.352-2.16-.184-2.071-.57-1.996-.75-1.922-1.172-1.742-1.813-1.41-1.5 3.902-2.75 1.008,1.172 .989.992 1.5.75 1.152.75 1.41.239 1.34.183h.824l.75-.586l2.746,3.899" fill="#363639"></path><path d="m576.66,174.555 3.496-2.746 1.157,1.906 .75,2.16 .66,1.922 .347,2.16v2.16l-.586,2.328-1.007,1.575-1.485,1.738-2.746-3.899 .422-.586 .586-.75 .164-.824v-1.34l-.422-1.41-.164-1.48-.75-1.758-.824-1.578 3.476-2.746-3.074,3.168" fill="#363639"></path><path d="m592.609,176.883-1.902,1.152-2.164.75h-4.063l-2.164-.75-1.996-.824-2.066-1.172-1.594-1.484 3.074-3.168 1.172.75 1.41.843 1.579.735 1.316.418h2.508l.992-.418 .824-.332l3.074,3.5" fill="#363639"></path><path d="m588.125,164.594 3.898-2.508 1.008,1.922 .75,1.906 .567,1.996 .586,1.903v1.996l-.164,1.738-.825,1.762-1.336,1.574-3.074-3.5 .582-.403v-.585l.168-1.008v-1.153l-.168-1.171-.582-1.575-.824-1.574-.992-1.906 3.902-2.492-3.496,3.078" fill="#363639"></path><path d="m602.57,168.898-2.16.915-1.738.257h-1.996l-1.742-.586-1.903-.824-1.574-.918-1.758-1.574-1.574-1.574 3.496-3.078 1.152,1.156 1.411,1.172 1.171.566 1.157.75 1.004.168h.754l.988-.168 .586-.164l2.726,3.902" fill="#363639"></path><path d="m598.672,157.781 3.496-2.91 .75,1.574 .992,1.739 .586,1.757 .402,1.743 .165,1.902-.165,1.996-.824,1.738-1.504,1.578-2.726-3.902 .328-.402v-.184l.238-.824-.238-1.152-.328-1.336-.258-1.41-.586-.918-.73-1.153 3.476-2.91-3.074,3.074" fill="#363639"></path><path d="m613.211,160.512h.258l-1.758,1.172-2.328.586h-1.996l-2.141-.586-1.758-.586-1.742-.993-1.738-1.003-1.336-1.321 3.074-3.074 .988.582 1.34.899 1.41.585 1.336.586 .989.258h1.171l.735-.258 .586-.328h.254l2.656,3.481" fill="#363639"></path><path d="m609.547,148.059 4.086-2.161 .566,1.903 .844,1.996 .328,1.742 .422,1.922v1.996l-.184,1.738-.824,1.739-1.574,1.578-2.656-3.481 .332-.422v-.586l.254-.988v-1.172l-.418-1.156-.422-1.738-.332-1.574-.586-1.922 4.086-2.16-3.922,2.746" fill="#363639"></path><path d="m625.918,152.121-1.992,1.742-2.328.586h-2.16l-2.325-.75-2.07-.992-1.996-1.168-1.742-1.742-1.758-1.738 3.922-2.746 .988,1.335 1.336.989 1.574,1.172 1.321.586 1.574.402h1.008l.75-.164 .402-.238l3.496,2.726" fill="#363639"></path><path d="m622.586,129.945 2.75.754 1.574,2.746 .914,2.563 .844,2.91 .328,2.656v3.004l-.586,2.656-.914,2.727-1.578,2.16-3.496-2.726 .75-1.758 1.008-1.574 .164-1.907v-2.16l-.418-2.324-.332-2.164-1.008-2.16-1.152-1.903 2.746.75-1.594-4.25" fill="#363639"></path><path d="m380.074,208.762 1.336-1.317 7.547-2.324 7.473-2.582 7.562-2.328 7.563-2.563 7.636-2.328 7.399-2.324 7.562-2.488 7.637-2.328 7.379-2.582 7.562-2.325 7.637-2.328 7.563-2.582 7.398-2.324 7.563-2.492 7.636-2.324 7.563-2.563 7.383-2.328 7.636-2.488 7.563-2.328 7.398-2.414 7.633-2.493 7.567-2.324 7.562-2.566 7.379-2.324 7.637-2.493 7.562-2.324 7.399-2.582 7.636-2.324 7.563-2.492 7.637-2.418 7.398-2.489 7.543-2.328 1.594,4.25-7.653,2.399-7.382,2.492-7.563,2.324-7.637,2.582-7.562,2.324-7.399,2.493-7.543,2.324-7.656,2.566-7.379,2.324-7.562,2.493-7.637,2.414-7.562,2.492-7.399,2.324-7.637,2.328-7.562,2.582-7.379,2.324-7.566,2.493-7.637,2.324-7.563,2.562-7.398,2.329-7.637,2.488-7.562,2.418-7.633,2.328-7.399,2.488-7.546,2.324-7.563,2.582-7.398,2.329-7.637,2.308-7.563,2.582-7.636,2.324-7.399,2.489-7.543,2.328 1.317-1.321-4.231-1.593" fill="#363639"></path><path d="m273.605,533.094v-1.574l3.223-10.125 3.336-10.145 3.313-9.871 3.332-10.145 3.316-10.129 3.332-10.125 3.316-9.89 3.477-10.125 3.336-10.145 3.238-10.129 3.317-10.125 3.332-9.89 3.316-10.125 3.313-10.145 3.332-10.129 3.242-10.125 3.316-9.89 3.332-10.125 3.313-10.145 3.316-10.129 3.496-10.125 3.317-10.148 3.332-9.867 3.316-10.145 3.238-10.129 3.317-10.125 3.332-10.148 3.316-10.125 3.496-9.891 3.317-10.125 3.332-10.125 3.312-10.148 4.231,1.593-3.313,10.129-3.242,10.125-3.316,10.055-3.496,9.961-3.317,10.145-3.332,10.128-3.312,10.125-3.336,10.055-3.313,10.125-3.316,9.981-3.239,10.129-3.57,10.125-3.242,10.144-3.332,10.035-3.316,10.149-3.317,9.961-3.332,10.125-3.312,10.148-3.243,10.031-3.332,10.149-3.316,9.961-3.313,10.125-3.332,10.144-3.316,10.035-3.496,10.149-3.316,9.961-3.333,10.125-3.222,10.148-3.336,10.031-3.313,9.981-3.332,10.129-3.316,10.125v-1.574l-4.231,1.574" fill="#363639"></path><path d="m283.074,532.691-.347,2.329-.825,2.324-.75,1.976-.988,1.926-.918,1.738-1.172,1.575-1.246,1.574-1.152,1.594-1.738,1.738-2.09,1.32-2.399.75-2.324.422h-2.492l-2.582-.422-2.488-.586-2.329-.73-2.324-1.008-2.16-.918-2.16-1.152-2.164-1.246-2.067-1.336-2.164-1.317-2.16-1.429-1.902-1.575-2.16-1.484-2-1.574-1.903-1.594-1.757-1.738-1.739-1.578-1.996-1.739-1.578-1.5-1.738-1.832 1.41-.328 1.574-.59 1.504-.402 1.996-.164 1.902-.422 1.997-.422 2.07-.164 2.16-.402-3.078-1.336-3.313-1.41-3.496-1.336-3.738-1.157-3.645-1.171-3.734-.989-3.664-.914-3.734-.66-5.075-.75-5.05-.586-5.075-.75-5.074-.57-5.219-.84-5.07-.586-5.074-.57-5.219-.586-5.07-.328-5.238-.422-5.055-.422-5.328-.164-5.219-.403h-15.383l-3.152.165-3.074.238-3.317.164-3.074.422-3.152.586-3.075.586-3.152.566-3.332.754-3.074.586-3.1525.988-3.0742.75-3.1523.844-3.0742.988-3.1524.914-2.9101.989-3.0782,1.007-3.5703,1.321-3.2422,1.757-3.3125,1.977-3.332,2.09-3.3164,1.992-3.4766,1.742-3.5,1.574-3.7343.915h-2.3282l-.9883-.586-.914-.586-.586-1.153-.6601-1.336v-1.574l.2383-1.906-1.4102,2.07-1.3164,1.996-1.3398,1.739-1.5743,1.921-1.4101,1.579-1.7578,1.738-1.7383,1.574-1.9063,1.574-1.996.586-2.4883-.238-2.9141-.914-3.1484-1.758-3.3321-2.144-2.8945-2.325-2.7461-2.746-2.0703-2.582-1.5742-2.07-1.33596-2.324-1.24609-2.582-.75-2.493-.42187-2.726 .42187-2.746 1.33594-2.914 2.16011-3.149-1.49996-1.925-1.41015-2.141-1.00781-2.508-.73438-2.566-.16406-2.746 .33203-2.911 .82031-2.894 1.74219-2.91 1.92183-2.746 1.7383-2.493 1.9961-2.398 1.9063-2.324 2.1601-2.328 2.3282-2.16 2.746-2.325 3.0586-2.492-1.7421-1.738-.9141-1.996v-1.926l.75-1.977 .9883-.914 .9179-.843 1.2422-.329 1.1719-.238h1.1563l.914.403 1.0078.75 .75,1.171 .8242-3.074 .75-3.902 1.4102-3.664 1.7422-3.313 1.5-1.996 1.9961-1.504 1.9062-1.41 2.3243-1.172 2.3984-.73 2.3281-.586 2.4883-.422 2.3281-.164 3.3321.164 3.1484.586 2.9101.586 2.4922.75 2.7461.824 2.5625.586 2.6563.332 2.75-.168 3.7344-.586 3.6601-.586 3.7383-.75 3.6445-.824 3.7344-.75 3.6644-.988 3.734-.914 3.664-1.008 3.734-.992 3.645-.989 3.734-.914 3.5-1.008 3.735-.988 3.66-1.008 3.738-.73 3.645-.754 6.812-1.41 6.649-1.172 6.808-1.316 6.649-1.172 6.812-1.41 6.813-1.153 6.629-1.172 6.812-1.156 6.813-1.172 6.554-1.316 6.813-1.172 6.812-1.156 6.649-1.172 6.812-1.246 6.649-1.336 6.808-1.153 2.164-3.5 2.489-3.148 3.316-2.488 3.496-1.996 3.902-1.743 4.231-.914 4.742-.586 4.817-.238-1.34-5.824-1.317-6.063-1.246-5.968-1.172-5.895-1.336-5.988-1.574-5.899-1.906-5.64-2.582-5.656-2.07-4.067-2.161-3.902-2.582-3.899-2.324-3.828-2.73-3.738-2.653-3.734-2.75-3.661-2.746-3.738-2.726-3.644-2.75-3.754-2.91-3.645-2.727-3.734-2.492-3.664-2.582-3.899-2.492-3.902-2.325-3.898-2.582-4.489-2.488-4.484-2.566-4.488-2.489-4.395-2.582-4.488-2.492-4.742-2.324-4.485-2.328-4.652-2.324-4.488-2.161-4.649-2.16-4.652-2.164-4.891-1.902-4.652-1.742-4.906-1.59-4.817-1.578-4.89-1.739-6.809-1.336-6.981-1.152-7.066-.586-7.141-.238-7.214 .238-7.235 .75-6.976 1.336-7.051 1.977-7.731 2.492-7.652 2.91-7.547 3.57-7.398 3.903-7.215 4.414-6.645 4.886-6.226 5.661-5.6603 3.316-2.6563 3.332-2.582 3.645-2.3242 3.734-2.1602 3.664-1.9062 3.898-1.9961 4.067-1.4844 3.898-1.5742 4.086-1.5938 4.305-1.5742 4.082-1.3164 4.32-1.3359 4.067-1.1563 4.066-1.4258 4.066-1.3203 4.157-1.4101 2.488-.75 2.582-.75 2.492-.8243 2.727-.5859 2.492-.5859 2.746-.4024 2.746-.5859 2.75-.3321 2.488-.4218 2.731-.4219 2.746-.3281 2.746-.4024 2.727-.5859 2.656-.4219 2.582-.3281 2.746-.5859-2.16-.4024-2.16-.4219-2.16-.164-2.09-.4219-2.141-.4219-1.996-.5664-1.922-.7539-1.574-1.1719-1.742-2.3242-1.172-2.8945-.164-3.168 1.172-2.1601 2.07-1.3204 2.16-1.3359 2.324-1.1523 2.328-1.0078 2.583-.9883 2.324-1.0078 2.562-.7305 2.492-.7539 2.508-.8399 2.567-.7343 2.488-1.0078 2.582-.9883 2.324-.9141 2.328-1.1719 2.325-1.4101 2.16-1.3203 1.742-3.3321 .422-4.4843 .566-4.2305 2.16-2.5664 3.496-.75 3.645.164 3.574.586 3.824.9883 3.739.9922 3.66.75 3.738.4218 3.477-.4218 3.336-.9883 2.89-1.5782 3.168-1.9218 2.895-2.1602 2.746-2.32421 3.078-1.90625 2.91-1.73828 3.316-1.41015 1.575-.42188 1.922-.16406 1.738-.16406 2,.16406 1.738.16406 1.574.58594 1.5.82422 1.246,1.17187 2.493,3.48044 2.16,3.8985 1.738,4.3242 1.574,4.0625 1.34,4.25 1.738,4.3203 1.997,4.0664 2.324,3.7344 1.742,1.7422 2.324,1.5 2.328.9883 2.578,1.1718 2.493.9922 2.324,1.336 1.996,1.5742 1.484,1.9961 1.574,5.6406v5.9883l-.566,6.0586-.164,6.0625 7.965,1.1562 7.801,1.336 7.398,1.7382 7.563,1.9961 7.214,2.0703 7.145,2.3243 7.23,2.4179 7.215,2.4922 6.981,2.4883 7.066,2.582 6.977,2.3282 6.976,2.3242 7.215,2.1405 7.234,1.762 7.235,1.738 7.379,1.41 3.5.328 3.644.258h3.496l3.735-.258 3.48-.164 3.754-.586 3.481-.402 3.66-.586 3.738-.586 3.734-.586 3.481-.402 3.66-.586 3.738-.168 3.477-.164 3.664.164 3.57.168 3.317.422 3.238.402 3.336.348 3.312.566 3.332.676 3.059.734 3.004,1.008 3.059,1.153 2.746,1.171 2.492,1.485 2.582,1.832 2.16,1.922 1.906,2.324 1.739,2.566 1.41,2.91 1.172,3.317-1.997,1.336-2.16,1.152-1.906,1.172-2.16,1.156-1.922,1.004-2.145.992-2.16.914-2.16.825-2.086.914-1.996.843-2.144.75-1.922.825-2.16.914-1.907.824-1.996.754-1.906.988-6.059,3.074-5.824,3.336-5.64,3.477-5.661,3.738-5.472,3.899-5.403,3.902-5.476,4.082-5.477,4.066-5.402,3.899-5.473,4.066-5.402,3.735-5.66,3.664-5.641,3.734-5.894,3.078-5.989,3.149-6.062,2.75-4.067,1.5-4.062,1.41-4.16,1.32-4.063,1.172-4.25.988-4.136,1.008-4.25.895-4.305.843-4.246.586-4.324.567-4.231.586-4.32.586-4.485.332-4.324.418-4.23.57-4.321.422-4.488.418-4.23.332-4.321.422-4.23.402-4.32.586-4.231.328-4.324.586-4.063.586-4.324.824-4.062.75-4.086.824-4.067.918-3.898,1.172-4.067,1.153-3.898,1.41-3.922,1.336-.402,11.117-.75,10.73-.824,10.293-1.172,9.887-1.317,9.965-1.593,9.722-1.907,9.54-2.16,9.964-2.16,7.727-2.492,7.637-2.91,7.398-3.153,7.399-3.476,7.378-3.332,7.399-3.317,7.398-3.078,7.379-.824,9.723-1.172,8.223-1.738,6.812-2.324,5.641-2.914,4.816-3.899,4.32-4.652,3.903-5.641,3.918-.254,14.191-.59,13.203-.914,12.637-1.41,12.289-1.738,11.867-2.16,11.719-2.492,11.629-2.911,11.867-1.156,3.168-1.758,3.074-2.14,2.731-2.328,2.746-2.747,2.324-2.91,2.16-3.152,1.742-3.074,1.575-3.317,1.171-3.754.914-3.644.571-3.734.254h-3.903l-3.66-.254-3.48-.332-3.571-.403" fill="#157a61"></path><path d="m273.938,546.133v.164l.988-1.574 1.172-1.481 1.152-1.594 .824-1.578 .918-1.738 .84-1.738 .57-2.16 .348-2.164 4.723.824-.422,2.492-.988,2.582-.75,2.07-.989,2.16-1.172,1.997-1.156,1.5-1.172,1.574-1.316,1.578v.164l-3.57-3.078" fill="#363639"></path><path d="m257.984,548.055 2.164.57 2.325.586 2.324.422h2.164l1.902-.422 1.996-.586 1.739-.898 1.34-1.594 3.57,3.078-2.16,1.996-2.582,1.738-2.731,1.008-2.672.328h-2.984l-2.656-.328-2.746-.586-2.567-1.008l1.574-4.304" fill="#363639"></path><path d="m226.25,529.359 .75-3.644 1.578,1.738 1.59,1.32 1.906,1.758 1.832,1.574 1.739,1.743 1.738,1.574 1.906,1.336 2.16,1.574 1.922,1.574 1.981,1.34 2.16,1.406 2.086,1.321 2.164,1.007 1.996,1.153 2.066,1.008 2.16.914-1.574,4.304-2.488-.988-2.16-.988-2.328-1.172-2.161-1.32-2.16-1.426-2.07-1.32-2.324-1.336-1.996-1.575-2.16-1.574-1.926-1.742-2.141-1.574-1.758-1.758-1.742-1.574-1.996-1.742-1.48-1.739-1.997-1.758 .825-3.644 1.902,4.23" fill="#363639"></path><path d="m240.883,522.219-.586,4.414-2.16.402-2.164.164-1.903.422-1.996.418-1.906.168-1.172.238-1.574.586-1.172.328-1.902-4.23 1.5-.422 1.574-.586 1.996-.566 1.906-.164 1.903-.422 1.996-.422 2.16-.164 2.07-.403-.566,4.469 1.996-4.23" fill="#363639"></path><path d="m211.895,513.008 3.644.566 3.899,1.008 3.753,1.152 3.809,1.172 3.738,1.157 3.496,1.41 3.481,1.336 3.168,1.41-1.996,4.23-3.078-1.32-3.149-1.41-3.496-1.336-3.644-1.153-3.5-1.171-3.735-.825-3.5-.918-3.734-.586l.844-4.722" fill="#363639"></path><path d="m129.324,506.031h15.383l5.473.403 5.238.164 5.055.422 5.238.328 5.07.422 5.219.585 5.074.567 5.309.586 5.238.844 5.074.566 5.055.75 5.07.59 5.075.75-.844,4.722-5.055-.824-5.07-.586-5.074-.75-4.981-.566-5.312-.844-4.813-.586-5.074-.566-5.313-.586-4.98-.332-5.309-.422-5.074-.418-5.238-.168-5.051-.402h-15.383v-4.649" fill="#363639"></path><path d="m78.5039,516.742 3.1524-1.008 2.9101-.988 3.0781-.914 3.3125-1.156 3.1524-.84 3.0742-.754 3.1684-.988 3.316-.586 3.242-.75 3.149-.567 3.074-.586 3.152-.585 3.332-.422 3.317-.164 3.074-.239 3.316-.164v4.649l-2.894.238-3.168.164-3.317.168-2.91.418-3.078.59-3.148.582-3.075.57-3.316.75-2.91.586-3.1525.988-3.0742.844-3.1524.75-2.9101.735-3.0782,1.003-2.9843.993-3.0743.914l-1.5781-4.231" fill="#363639"></path><path d="m51.4219,529.945 3.332-.75 3.3164-1.574 3.332-1.742 3.3125-1.758 3.3165-2.141 3.2421-1.921 3.5704-1.996 3.6601-1.321 1.5781,4.231-3.3164,1.41-3.0742,1.574-3.3359,1.922-3.3125,2.16-3.3164,2.164-3.6602,1.738-3.7383,1.485-4.0625,1.246l-.8437-4.727" fill="#363639"></path><path d="m44.6094,523.719 4.3203,1.738-.1641,1.742v1.008l.3321.824 .2539.586 .332.164 .418.164h1.3203l.8437,4.727h-3.3359l-1.5742-.992-1.5742-.989-.9141-1.757-.8242-1.903v-2.16l.2383-2.164 4.246,1.742-3.9179-2.73" fill="#363639"></path><path d="m32.7422,537.344 1.832-1.336 1.7383-1.574 1.4844-1.579 1.4297-1.5 1.5742-1.738 1.1523-1.832 1.336-1.906 1.3203-2.16 3.9179,2.73-1.3359,2.16-1.4101,1.922-1.5,1.739-1.5782,2.164-1.3359,1.574-1.9766,1.902-1.7578,1.574-2.1601,1.762l-2.7305-3.902" fill="#363639"></path><path d="m14.4688,525.879 1.996,2.328 2.4883,2.563 2.7461,2.085 3.0586,2.165 2.9141,1.574 2.4179.75 1.9024.238 .75-.238 2.7305,3.902-3.0586.988-3.168-.168-3.4805-1.152-3.332-1.996-3.4805-2.16-3.0742-2.492-2.9883-2.911-2.3242-2.746l3.9024-2.73" fill="#363639"></path><path d="m12.8906,504.691v3.079l-1.9023,2.746-1.17189,2.492-.16407,1.996 .32813,2.141 .58593,2.328 1.1524,2.086 1.1718,2.16 1.5782,2.16-3.9024,2.73-1.57421-2.16-1.50391-2.492-1.15234-2.984-1.00781-2.657-.42188-3.312 .58984-3.5 1.57422-3.313 2.32422-3.5v3.079l3.49607-3.079" fill="#363639"></path><path d="m11.1523,486.93-1.49996,2.562-.66015,2.328-.33203,2.489 .16797,2.328 .5664,2.16 1.00777,2.324 1.1524,1.738 1.3359,1.832-3.49607,3.079-1.73828-2.161-1.57812-2.492-.91407-2.746-.98828-2.894-.16406-3.168 .32812-3.243 .98829-3.57 1.90625-3.312l3.91792,2.746" fill="#363639"></path><path d="m28.4961,464.332v3.902l-2.8945,2.325-2.7461,2.418-2.3282,1.902-1.996,2.328-1.9024,2.324-1.7422,2.16-1.7578,2.493-1.9766,2.746-3.91792-2.746 1.99609-2.657 1.75783-2.582 2.1406-2.492 1.9258-2.324 2.3242-2.399 2.3242-2.324 2.7305-2.328 3.332-2.746v3.902l2.7305-3.902" fill="#363639"></path><path d="m27.0859,460.102-.332.402v.586l-.2383.586v.332l.4024.586 .4218.566 .3321.844 .8242.328-2.7305,3.902-1.1718-1.156-1.1524-1.172-.75-1.316-.4219-1.43-.4023-1.484 .2383-1.41 .3281-1.336 .8437-1.575l3.8086,2.747" fill="#363639"></path><path d="m35.7266,459.258-4.4844.422-.4219-.586-.4023-.403h-.75l-.7539.239-.586.164-.6562.422-.586.586-3.8086-2.747 1.3165-1.335 1.3359-1.157 1.7422-.586 1.5742-.238h1.7578l1.7383.824 1.5742,1.157 1.1563,1.757-4.4688.328 4.7227,1.153" fill="#363639"></path><path d="m39.957,446.055-.7304,1.41-.8438,1.504-.75,1.738-.4023,1.574-.3321,1.758-.4179,2.145-.4219,1.593-.332,1.481-4.7227-1.153 .4024-1.5 .4218-1.578 .3282-1.738 .4218-2.16 .75-1.922 .8242-2.144 .75-1.997 1.1563-1.757l3.8984,2.746" fill="#363639"></path><path d="m55.3242,439.078-2.0703.164-2.3984.422-2.0899.332-1.9961.824-2.1601,1.004-1.7383,1.321-1.7422,1.171-1.1719,1.739-3.8984-2.746 1.9961-2.071 2.0664-1.996 2.1641-1.316 2.582-1.41 2.7461-.75 2.4883-.75 2.7304-.422 2.4922-.239v4.723" fill="#363639"></path><path d="m78.1758,442.742-3.0039.238-3.0586-.402-2.7461-.586-2.7461-1.008-2.4922-.57-2.7266-.586-2.9101-.586-3.168-.164v-4.723l3.4961.239 3.3125.586 3.168.586 2.4922.988 2.7304.586 2.3243.586 2.3242.328 2.582-.164l.4219,4.652" fill="#363639"></path><path d="m137.309,428.953-3.739.75-3.496.824-3.644.914-3.735.993-3.5,1.004-3.644.917-3.735.989-3.753.988-3.645,1.008-3.734.914-3.6645.988-3.8984.754-3.7383.824-3.6601.75-3.7383.586-3.8086.586-.4219-4.652 3.4805-.586 3.7539-.586 3.6445-.75 3.7344-.824 3.5-.75 3.6445-.989 3.7343-1.007 3.664-.899 3.735-1.008 3.66-.988 3.738-.914 3.48-1.008 3.735-.988 3.664-1.008 3.898-.734 3.735-.75l.754,4.652" fill="#363639"></path><path d="m246.945,407.93-1.832,1.336-6.812,1.156-6.555,1.426-6.812,1.156-6.649,1.172-6.812,1.152-6.813,1.172-6.648,1.32-6.813,1.172-6.812,1.153-6.555,1.171-6.887,1.247-6.808,1.316-6.559,1.172-6.812,1.32-6.649,1.172-6.808,1.41-.754-4.652 6.812-1.41 6.559-1.172 6.812-1.317 6.645-1.175 6.812-1.407 6.813-1.156 6.648-1.172 6.813-1.152 6.793-1.172 6.648-1.32 6.813-1.172 6.812-1.246 6.555-1.153 6.812-1.172 6.649-1.335 6.812-1.157-1.742,1.34 4.324,1.977" fill="#363639"></path><path d="m276.262,391.742-2.324,2.91-4.653.239-4.488.586-3.899.75-3.664,1.742-3.148,1.738-3.078,2.324-2.16,2.75-1.903,3.149-4.324-1.977 2.328-3.922 2.91-3.476 3.481-2.746 3.898-2.071 4.157-1.738 4.652-1.246 4.816-.586 5.075-.168-2.329,2.895 4.653-1.153" fill="#363639"></path><path d="m263.625,344.477 1.41,2.656 1.172,3.168 .918,2.726 .988,3.078 1.008,2.911 .731,2.988 .753,2.91 .676,3.313 .567,2.914 .586,2.91 .586,3.078 .585,2.984 .571,2.657 .75,3.148 .586,2.91 .75,2.914-4.653,1.153-.75-2.895-.586-2.91-.824-3.149-.586-3.078-.586-2.91-.566-3.152-.586-2.91-.586-2.911-.586-2.894-.75-2.914-.824-2.91-.586-2.985-.918-2.656-.988-2.746-1.153-2.746-1.339-2.731l4.23-1.921" fill="#363639"></path><path d="m222.352,283.516 2.324,3.898 2.582,3.664 2.492,3.899 2.563,3.738 2.746,3.66 2.914,3.738 2.746,3.645 2.652,3.754 2.731,3.734 2.746,3.645 2.746,3.734 2.73,3.664 2.324,4.066 2.493,3.899 2.324,3.902 2.16,4.321-4.23,1.921-2.161-3.918-1.996-3.898-2.488-3.902-2.328-3.645-2.746-3.754-2.727-3.644-2.75-3.735-2.746-3.664-2.656-3.734-2.727-3.645-2.91-3.734-2.75-3.664-2.562-3.734-2.489-3.903-2.582-4.082-2.328-3.902l3.903-2.324" fill="#363639"></path><path d="m187.301,209.934h-.164l1.574,4.652 1.594,4.891 1.738,4.906 1.906,4.394 2.16,4.911 2.161,4.652 2.07,4.742 2.414,4.395 2.328,4.722 2.324,4.25 2.328,4.723 2.489,4.414 2.562,4.488 2.512,4.469 2.562,4.484 2.493,4.489-3.903,2.324-2.488-4.485-2.582-4.488-2.492-4.469-2.563-4.414-2.492-4.484-2.746-4.727-2.324-4.648-2.328-4.652-2.325-4.489-2.16-4.648-2.164-4.652-2.16-4.911-1.902-4.886-1.743-4.817-1.593-4.91-1.574-5.07h-.165l4.653-1.156" fill="#363639"></path><path d="m184.645,154.707-.825,3.238-.586,3.571-.421,3.242-.329,3.57-.238,3.242v7.215l.238,3.5 .164,3.57 .422,3.477 .586,3.5 .567,3.481 .586,3.496 .75,3.316 .824,3.477 .918,3.332-4.653,1.156-.988-3.317-.75-3.496-.75-3.644-.59-3.57-.566-3.5-.586-3.477-.422-3.902-.164-3.496-.238-3.903v-7.215l.238-3.66 .328-3.5 .422-3.734 .586-3.481 .754-3.734l4.723,1.246" fill="#363639"></path><path d="m213.633,99.8047-2.91,2.4883-2.567,2.914-2.488,2.727-2.16,3.336-2.328,3.312-2.16,3.078-1.758,3.496-1.977,3.571-1.758,3.644-1.742,3.738-1.48,3.496-1.43,3.899-1.152,3.902-1.34,3.664-.824,3.735-.914,3.902-4.723-1.246 .988-3.828 1.153-4.156 1.335-3.645 1.247-3.902 1.335-3.899 1.575-3.918 1.742-3.644 1.738-3.739 1.922-3.898 2.164-3.5 2.141-3.477 2.324-3.335 2.512-3.313 2.562-3.078 2.91-2.9102 2.914-2.9844l3.149,3.5703" fill="#363639"></path><path d="m275.512,72.3164-4.067,1.4102-4.082,1.3203-4.14,1.3359-4.246,1.1524-4.067,1.4296-4.156,1.3204-4.231,1.5742-4.066,1.5742-3.898,1.5-3.922,1.5742-3.899,1.9961-3.48,1.7422-3.735,2.1602-3.5,2.3242-3.312,2.3281-3.078,2.7461-3.149-3.5703 3.481-2.6563 3.332-2.7461 3.898-2.3281 3.739-2.1601 3.898-2.1602 3.828-1.9023 4.305-1.5782 3.918-1.5742 4.066-1.5937 4.321-1.4805 4.066-1.4102 4.484-1.3398 3.903-1.1524 4.066-1.4101 4.063-1.3359 4.086-1.336l1.574,4.2461" fill="#363639"></path><path d="m317.777,59.4453-.238,4.7227-2.656.5859-2.582.3281-2.746.4219-2.731.5859-2.652.4024-2.75.332-2.746.4219-2.488.418-2.731.4062-2.746.586-2.746.3281-2.328.5859-2.727.586-2.328.5859-2.508.8242-2.562.75-1.574-4.2461 2.562-.8242 2.492-.7539 2.746-.9883 2.746-.5859 2.731-.586 2.746-.4023 2.652-.5859 2.75-.3282 2.563-.4218 2.672-.4219 2.73-.3281 2.746-.4024 2.746-.5859 2.731-.4219 2.488-.4219 2.75-.5664-.168,4.7227 1.156-4.7227" fill="#363639"></path><path d="m302.41,55.7813h.168l1.172.75 1.574.8242 1.739.332 1.921.418 2.164.4218 2.141.1641 2.16.4219 2.328.332-1.156,4.7227-1.996-.4024-2.16-.4218-2.067-.1641-2.164-.4219-2.324-.3281-2.16-.8242-2.328-.75-1.996-1.5782h.258l2.726-3.496" fill="#363639"></path><path d="m300.418,48.9688v.164l-.168.4219-.238.9883 .406,1.1718 .18,1.3204 .57,1.0078 .84,1.1523 .402.586-2.726,3.496-1.594-1.3359-.731-1.5742-1.007-1.7383-.567-1.7578-.422-1.9805 .164-2.0859 .661-1.9961 1.5-1.7383l2.73,3.8985" fill="#363639"></path><path d="m338.543,32.1953-2.324,1.4102-2.328,1.3359-2.489,1.4102-2.566.914-2.488.9922-2.582,1.0039-2.493.7344-2.582.75-2.488.8437-2.566.7305-2.324,1.0078-2.493.9883-2.16.918-2.16,1.0078-2.09,1.3164-1.992,1.4102-2.73-3.8985 2.324-1.3398 2.164-1.4102 2.562-1.3164 2.489-1.0078 2.582-.9883 2.328-.918 2.488-.8242 2.582-.75 2.492-.8242 2.563-.75 2.492-1.0078 2.582-.9141 2.07-.9882 2.16-.9922 2.325-1.336 1.996-1.4101l2.656,3.9023" fill="#363639"></path><path d="m342.863,17.8203-.422.4219-.328.75-.238,1.5742-.164,1.9063v2.582l-.422,2.4883-.75,2.582-1.996,2.0703-2.656-3.9023 .332-.586 .418-1.3164 .422-1.7578v-2.1601l.164-2.7305 .57-2.3242 1.172-2.3282 2.324-1.5742l1.574,4.3047" fill="#363639"></path><path d="m371.852,20.7305h-.164l-3.899.4218-4.086-.4218-3.898-.75-3.739-.9883-3.644-.9883-3.332-.5859-3.313-.168-2.914.5703-1.574-4.3047 4.066-.914 4.157.164 3.644.586 4.082.9882 3.739.918 3.476.8203 3.336.3321 3.149-.3321h-.258l1.172,4.6524" fill="#363639"></path><path d="m396.191,6.70313v-.16407l-2.914,1.32032-2.746,1.57421-2.894,1.99611-2.746,2.0859-2.911,2.3242-3.316,1.9805-3.332,1.7578-3.48,1.1524-1.172-4.6524 3.168-.8203 2.492-1.3398 2.91-1.9024 2.895-1.9961 2.746-2.49216 3.316-1.99609 3.168-1.90234 3.645-1.41016v-.16797l1.171,4.65235" fill="#363639"></path><path d="m407.066,8.11328-.75-.84375-1.152-.5664-1.172-.32813-1.32-.25781-1.832-.16406-1.5.16406-1.738.25781-1.411.32813-1.171-4.65235 1.757-.41797 2.161-.16797 1.902-.16406 2.164.16406 2.16.16797 1.902.82422 1.997.91406 1.578,1.57422l-3.575,3.16797" fill="#363639"></path><path d="m422.266,39.9961-1.172-1.9063-1.317-1.996-1.007-2.1602-.989-2.0703-.75-2.1602-.992-2.3242-.586-2.1601-.75-2.1602-.824-2.1641-.75-1.7382-.988-2.1602-.75-2.0703-1.008-1.7578-.899-1.9766-1.171-1.59374-1.247-1.48438 3.575-3.16797 1.5,1.9961 1.152,1.92187 1.41,1.90622 1.008,2.1602 .734,2.1601 1.008,2.1602 .75,2.1641 .75,2.0664 .824,2.164 .586,2.1602 .989,1.9023 .75,2.1641 .988,2.1602 .918,1.7382 1.008,1.9219 1.152,1.5742l-3.902,2.7305" fill="#363639"></path><path d="m439.461,50.8906-1.004-1.3359-1.742-1.1719-1.996-1.1523-2.489-.9883-2.566-1.1719-2.488-1.1562-2.746-1.7578-2.164-2.1602 3.902-2.7305 1.41,1.4102 1.922,1.3203 2.145.75 2.507,1.1719 2.563.9883 2.746,1.5742 2.07,1.9258 2.16,2.5625l-4.23,1.9218" fill="#363639"></path><path d="m442.117,76.0547-2.07-2.1641v-3.1484l.168-3.2422 .402-3.168 .164-2.8906 .164-2.9141-.164-2.582-.566-2.7265-.754-2.3282 4.23-1.9218 1.172,3.0781 .571,3.1484 .254,3.332-.254,3.3165-.164,2.9101-.407,3.0781-.164,2.9102v2.7305l-2.16-2.1641-.422,4.7461" fill="#363639"></path><path d="m558.566,108.355-7.398-1.41-7.398-1.738-7.215-1.758-7.399-2.328-6.976-2.3241-7.051-2.3242-6.977-2.5664-7.066-2.4883-7.145-2.5821-7.234-2.3281-7.215-2.3242-6.976-1.9023-7.563-1.9961-7.215-1.7422-7.82-1.336-7.801-1.1523 .422-4.7461 8.133,1.1719 7.801,1.4101 7.652,1.7422 7.547,1.9024 7.394,2.4179 7.235,2.3282 7.215,2.3242 7.144,2.4883 7.067,2.582 6.976,2.4922 6.977,2.3242 7.05,2.3281 6.981,1.9766 7.23,1.7581 6.977,1.738 7.383,1.34l-.735,4.722" fill="#363639"></path><path d="m616.527,104.875-3.48-.254-3.5-.164-3.313.164-3.664.254-3.57.57-3.48.328-3.661.586-3.734.586-3.645.586-3.574.403-3.824.586-3.57.168-3.903.253h-3.496l-3.902-.253-3.645-.333 .735-4.722 3.332.402 3.48.164h3.496l3.571-.164 3.48-.164 3.496-.586 3.481-.402 3.734-.59 3.664-.586 3.735-.586 3.5-.402 3.898-.586 3.645-.1642 3.734-.1641 3.922.1641 3.476.1642l-.418,4.742" fill="#363639"></path><path d="m657.234,123.301-1.007,2.582-.914-3.153-1.157-2.488-1.738-2.328-1.832-2.16-1.738-1.758-2.493-1.574-2.16-1.32-2.488-1.243-3.168-1.171-2.73-.754-2.911-.731-3.335-.586-3.223-.586-3.168-.422-3.313-.402-3.332-.332 .418-4.742 3.317.422 3.332.402 3.48.348 3.332.57 3.317.586 3.238.824 3.152,1.172 3.075,1.152 2.984,1.172 2.914,1.739 2.488,1.906 2.582,2.16 2.071,2.582 1.832,2.746 1.5,3.242 1.41,3.571-1.004,2.492-2.731-3.918" fill="#363639"></path><path d="m624.914,138.5 1.996-.992 2.086-.75 1.738-.75 2.164-.988 2.161-.825 2.16-.75 1.738-.75 2.164-.992 2.067-.75 2.16-1.008 2.164-.988 1.738-1.008 2.16-.894 1.922-1.172 2.145-1.156 1.757-1.426 2.731,3.918-2.164,1.316-2.141,1.246-1.922,1.172-2.164,1.32-2.16,1.008-2.066.914-2.164.989-2.161.824-2.16.918-2.07.84-2.16.734-1.738.75-2.161,1.008-2.164.73-1.738.844-1.922.988l-1.996-4.32" fill="#363639"></path><path d="m534.395,196.145 6.062-2.747 5.805-3.148 5.894-2.91 5.403-3.645 5.66-3.738 5.476-3.66 5.403-4.16 5.472-3.809 5.477-4.156 5.402-4.067 5.492-3.917 5.477-3.899 5.805-3.644 5.66-3.5 5.805-3.571 6.226-3.074 1.996,4.32-5.898,3.078-5.805,3.149-5.66,3.496-5.473,3.645-5.402,3.917-5.477,3.903-5.476,4.066-5.403,4.063-5.492,3.902-5.383,4.156-5.496,3.664-5.636,3.735-5.825,3.644-5.898,3.332-6.227,3.078-5.968,2.727l-1.996-4.23" fill="#363639"></path><path d="m398.754,223.559 1.5-2.161 3.902-1.335 3.899-1.321 4.324-1.172 3.898-1.41 4.25-.988 4.067-.75 4.156-.75 4.23-.824 4.067-.586 4.484-.586 4.324-.332 4.227-.586 4.324-.403 4.321-.421 4.23-.418 4.488-.332 4.321-.422 4.23-.567 4.32-.422 4.489-.328 4.066-.586 4.246-.586 4.324-.566 4.301-.586 4.25-.844 4.067-.988 4.156-.918 4.23-.988 3.899-1.008 4.066-1.316 4.082-1.411 3.903-1.503 1.996,4.23-4.321,1.578-4.066,1.336-4.086,1.41-4.32,1.336-4.231.988-4.156,1.008-4.469.899-4.246.84-4.324.585-4.231.571-4.32.586-4.488.586-4.485.402-4.23.348-4.324.566-4.227.422-4.488.422-4.32.328-4.231.422-4.324.402-4.231.586-4.32.332-4.066.656-4.082.586-4.305.754-4.082.75-4.066.824-3.899.915-3.902.988-3.903,1.172-3.918,1.41-3.898,1.34 1.574-2.164h-4.652" fill="#363639"></path><path d="m388.629,304.207 1.172-4.742 .988-5.074 .914-4.813 .988-4.726 .75-4.817 .844-4.906 .735-4.816 .585-4.891 .586-4.817 .586-5.07 .403-5.074 .422-5.313 .328-5.234 .422-5.476 .164-5.239 .238-5.64h4.652l-.164,5.64-.238,5.66-.332,5.477-.422,5.234-.418,5.219-.406,5.074-.586,5.071-.586,4.89-.586,5.239-.73,4.906-.75,4.816-.844,4.891-.914,4.652-.989,4.906-.992,5.055-1.172,5.074l-4.648-1.156" fill="#363639"></path><path d="m364.711,364.328 .164-.566 1.574-3.922 1.504-3.735 1.574-3.644 1.739-3.734 1.742-3.664 1.594-3.735 1.738-3.664 1.738-3.734 1.574-3.645 1.578-3.734 1.5-3.5 1.411-3.735 1.336-3.902 1.156-3.66 1.004-3.738 .992-3.809 4.648,1.156-.988,3.825-1.336,4.16-1.152,3.64-1.41,3.903-1.34,3.734-1.574,3.828-1.5,3.735-1.575,3.738-1.742,3.66-1.758,3.738-1.574,3.645-1.738,3.734-1.742,3.664-1.575,3.735-1.593,3.664-1.575,3.476 .258-.586-4.652-.328" fill="#363639"></path><path d="m341.547,411.848 1.152-1.996 2.656-1.922 2.747-1.977 2.324-1.758 2.164-1.906 1.738-1.738 1.738-2.16 1.575-2.164 1.175-2.325 1.153-2.746 1.172-2.73 .824-3.074 .75-3.336 .586-3.899 .586-4.066 .402-4.653 .422-5.07 4.652.328-.422,5.074-.402,4.743-.586,4.488-.586,3.809-.75,3.734-1.156,3.496-1.172,3.152-1.152,2.657-1.574,2.746-1.594,2.562-2.16,2.508-2.071,2.145-2.16,1.921-2.746,2.161-2.73,1.996-3.075,1.906 1.172-1.906h-4.652" fill="#363639"></path><path d="m329.074,510.68 1.504-5.989 1.41-5.894 1.336-5.805 1.153-5.66 1.171-5.805 .989-5.894 .992-5.992 .75-5.637 .586-6.063 .824-6.226 .328-6.246 .586-6.391 .258-6.644 .328-6.395 .258-7.047v-7.144h4.652v7.144l-.183,7.047-.407,6.813-.254,6.558-.585,6.481-.332,6.226-.821,6.227-.59,5.988-.75,6.063-.988,6.058-.914,5.824-1.246,5.805-1.152,6.063-1.34,5.824-1.336,5.894-1.574,5.973l-4.653-1.156" fill="#363639"></path><path d="m311.148,528.609 2.891-1.574 3.168-1.578 2.656-1.902 2.567-2.16 2.16-2.747 1.922-2.492 1.574-2.746 .988-2.73 4.653,1.156-1.411,3.496-1.906,3.57-2.324,2.895-2.582,2.746-2.91,2.492-3.059,2.324-3.168,1.996-3.316,1.5l-1.903-4.246" fill="#363639"></path><path d="m280.75,532.27 2.727-1.903 3.332.403 3.48.328 3.496.257h3.903l3.48-.257 3.57-.567 3.496-.75 2.914-1.172 1.903,4.246-3.66,1.157-3.903,1.246-3.898.586-3.902.164h-3.903l-3.824-.164-3.57-.422-3.664-.402 2.746-1.926-4.723-.824" fill="#363639"></path><path d="m25.9297,521.395-1.7383-.165-.9141-1.171-.2578-1.743 1.4102-1.171 1.5,4.25" fill="#363639"></path><path d="m42.8711,499.805-1.1563,4.3-1.3359,3.665-1.7383,3.312-2.1601,3.078-2.3282,2.418-2.582,2.07-2.8945,1.575-2.7461,1.172-1.5-4.25 2.3242-1.153 2.1602-1.246 2.0898-1.738 1.9766-1.926 1.7578-2.324 1.3203-2.895 1.4102-3.332 .75-3.48 4.6523.754" fill="#363639"></path><path d="m22.8555,518.902 .9883-1.574 1.7578-.422 1.3164.824 .5859,1.922-4.6484-.75" fill="#363639"></path><path d="m54.7539,475.043 .4024-5.402 .7539-5.895 .8398-5.805 1.3203-5.824 1.5742-5.894 1.9219-5.973 2.5625-5.895 2.9141-5.566 .75,5.805 1.1523,5.82 1.0078,5.641 1.1563,5.66 1.4062,5.219 1.3399,5.074 1.3164,4.484 1.5937,3.903-3.4961,1.335-2.914.989-2.7266.988-2.7461.75-2.3281.586-2.4883.258h-2.582l-2.7305-.258" fill="#fff"></path><path d="m64.7148,429.117 4.2305.824-1.3164,2.657-1.3359,2.746-1.4102,2.91-1.1562,2.73-1.1719,2.911-.5859,2.914-.9883,2.984-.586,2.91-.75,2.914-.5664,2.727-.4218,3.078-.4219,2.746-.3321,2.91-.4179,2.731-.168,2.746-.2344,2.746-4.6523-.422 .1641-2.746 .2382-2.727 .4219-3.078 .3281-2.91 .4219-2.75 .4219-3.148 .5664-3.075 .75-2.914 .5859-2.894 .9883-3 .918-3.227 1.2461-3 1.1718-3.078 1.3165-2.894 1.3398-2.747 1.7383-3.148 4.3203.824-4.6524.75" fill="#363639"></path><path d="m76.0156,468.234-1.4101,3.149-.75-2.145-.75-1.922-.5899-2.562-.8203-1.922-1.0078-2.73-.5703-2.582-.75-2.493-.5859-2.91-.586-2.726-.5664-2.914-.5859-2.747-.4219-2.91-.5859-2.894-.5664-2.91-.4219-2.989-.3321-2.91 4.6524-.75 .4219,2.91 .3281,2.914 .5703,2.891 .5859,2.914 .4219,2.984 .586,2.657 .5664,3 .5859,2.656 .5859,2.562 .8243,2.512 .5859,2.563 .5859,2.324 .75,2.328 .5664,2.16 .8438,1.906 .7344,1.758-1.4102,3.149-1.4844-4.321" fill="#363639"></path><path d="m57.082,475.301-2.0898-2.582 2.4922.258h2.582l2.0664-.258 2.1641-.586 2.582-.567 2.6524-1.007 2.9843-.918 3.5-1.407 1.4844,4.321-3.4805,1.336-2.9101.988-2.75.988-2.8906.918-2.4922.586-2.9102.254h-2.582l-2.8946-.254-2.1601-2.492 4.6523.422" fill="#363639"></path><path d="m269.449,444.738 .989,1.485-.165,1.574-1.41,1.008-1.738-.168 2.324-3.899" fill="#363639"></path><path d="m246.523,441.824 2.747-.418 2.656-.168 2.984-.254 3.074.254 3.153.332 2.91.586 3.078,1.153 2.324,1.429-2.324,3.899-1.922-1.008-2.328-.82-2.562-.586-2.747-.332-2.656-.254-2.582.254-2.73.164-1.922.422l-1.153-4.653" fill="#363639"></path><path d="m153.824,453.691 6.246-.402 6.227-.422 6.058-.586 5.805-.402 6.063-.586 5.824-.586 5.641-.586 5.824-.566 5.472-.75 5.661-.754 5.64-.988 5.641-.84 5.656-.918 5.641-1.153 5.66-1.172 5.64-1.156 1.153,4.653-6.063,1.152-5.64,1.176-5.637,1.152-5.66,1.008-5.641.75-5.656.988-5.641.75-5.824.824-5.805.586-5.64.586-5.824.571-6.063.585-5.805.329-6.078.586-6.226.421-6.227.403l-.422-4.653" fill="#363639"></path><path d="m96.1953,460.836 3.5703-.57 3.3164-.586 3.496-.586 3.317-.403 3.238-.586 3.336-.585 3.476-.329 3.153-.421 3.496-.586 3.734-.403 3.481-.332 3.664-.422 3.898-.418 4.067-.332 4.156-.238 4.23-.348 .422,4.653-4.32.347-4.067.239-4.066.328-3.898.422-3.665.422-3.57.402-3.316.332-3.496.586-3.481.418-3.074.422-3.336.57-3.312.586-3.317.328-3.496.586-3.316.586-3.4965.566l-.8242-4.648" fill="#363639"></path><path d="m76.0156,468.234h-.2578l2.7461-1.156 2.5664-1.172 2.4883-.988 2.75-1.172 2.3242-.75 2.3242-.734 2.5821-1.008 2.6562-.418 .8242,4.648-2.3242.422-2.1601.586-2.3282.824-2.3242.75-2.3281,1.172-2.5625.992-2.4883,1.153-2.75,1.172h-.2539l-1.4844-4.321" fill="#363639"></path><path d="m55.3242,472.719 2.3242.422h2.418l2.6524-.422 2.582-.586 2.7305-.75 2.6562-.988 2.582-1.157 2.7461-1.004 1.4844,4.321-2.3281.988-2.8906,1.172-2.75.918-3.0743,1.152-2.914.586-3.1485.422h-3.0781l-3.1484-.422l1.1562-4.652" fill="#363639"></path><path d="m35.4727,458.105 1.5937,3.571 1.9024,2.914 1.996,2.14 2.3243,1.758 2.914,1.321 2.8946,1.336 2.9101.824 3.3164.75-1.1562,4.652-3.3125-.75-3.2422-1.156-3.332-1.336-3.3165-1.738-3.1679-2.161-2.6563-2.914-2.3984-3.734-1.5-4.324 4.2305-1.153" fill="#363639"></path><path d="m52.5938,475.633 .2382-1.742 1.336-.75h1.5742l1.1719,1.316-4.3203,1.176" fill="#363639"></path><path d="m151.922,456.605-.586-5.312 .164-5.238 1.172-5.473 1.738-5.566 1.172,3.238 1.41,2.984 1.321,2.657 1.41,2.582 1.5,2.328 1.742,2.16 1.758,2.07 1.976,1.992-1.976.168-1.758.254-1.906.168-1.739.164-1.996.239-1.742.164-1.922.183-1.738.238" fill="#fff"></path><path d="m151.922,456.605-.586-5.312 .164-5.238 1.172-5.473 1.738-5.566 1.172,3.238 1.41,2.984 1.321,2.657 1.41,2.582 1.5,2.328 1.742,2.16 1.758,2.07 1.976,1.992-1.976.168-1.758.254-1.906.168-1.739.164-1.996.239-1.742.164-1.922.183-1.738.238z" fill="none" stroke="#363639" stroke-width="4.65125"></path><path d="m120.203,459.094v-2.727l.164-2.676 .403-2.726 .585-2.582 .754-2.746 1.153-2.657 1.429-2.73 1.739-2.746 .75,2.746 1.156,2.492 1.168,2.563 1.414,2.492 1.48,2.324 1.575,2.324 1.593,2.418 1.575,2.071-2.161.257-2.16.329-2.16.257-1.906.328-2.16.239-2.16.347-2.071.239-2.16.164" fill="#fff"></path><path d="m120.203,459.094v-2.727l.164-2.676 .403-2.726 .585-2.582 .754-2.746 1.153-2.657 1.429-2.73 1.739-2.746 .75,2.746 1.156,2.492 1.168,2.563 1.414,2.492 1.48,2.324 1.575,2.324 1.593,2.418 1.575,2.071-2.161.257-2.16.329-2.16.257-1.906.328-2.16.239-2.16.347-2.071.239-2.16.164z" fill="none" stroke="#363639" stroke-width="4.65125"></path><path d="m95.2813,463.746 .3281-2.492 .4219-2.563 .4023-2.324 .5859-2.328 1.0078-2.508 1.1524-2.324 1.5043-2.566 2.16-2.489 1.41,4.485 1.316,4.398 1.34,4.32 1.574,3.735-1.742.332-1.574.418-1.758.422-1.574.164-1.738.406-1.5042.328-1.7383.258-1.5742.328" fill="#fff"></path><path d="m95.2813,463.746 .3281-2.492 .4219-2.563 .4023-2.324 .5859-2.328 1.0078-2.508 1.1524-2.324 1.5043-2.566 2.16-2.489 1.41,4.485 1.316,4.398 1.34,4.32 1.574,3.735-1.742.332-1.574.418-1.758.422-1.574.164-1.738.406-1.5042.328-1.7383.258-1.5742.328z" fill="none" stroke="#363639" stroke-width="4.65125"></path><path d="m177.594,454.039 .402-2.508 .586-2.562 .586-2.492 .754-2.582 .988-2.489 1.153-2.75 1.593-2.488 1.574-2.73 1.321,2.73 1.336,2.488 1.574,2.582 1.574,2.328 1.574,2.325 1.758,2.328 1.742,2.16 1.903,2.066-2.489.258-2.566.164-2.488.168-2.582.254-2.657.164-2.582.238-2.488.164-2.566.184" fill="#fff"></path><path d="m183.07,434.355 4.067.403-1.578,2.582-1.336,2.324-1.153,2.492-1.007,2.582-.567,2.325-.586,2.492-.586,2.324-.402,2.566-4.652-.754 .402-2.562 .586-2.746 .586-2.492 .988-2.746 .918-2.563 1.172-2.914 1.738-2.652 1.574-2.989 4.067.407-4.231,1.921" fill="#363639"></path><path d="m197.848,450.121-1.575,3.918-1.906-2.16-1.758-2.324-1.976-2.328-1.594-2.325-1.484-2.492-1.575-2.582-1.593-2.746-1.317-2.727 4.231-1.921 1.41,2.746 1.172,2.324 1.574,2.492 1.5,2.16 1.578,2.324 1.574,2.329 1.739,1.996 1.922,2.16-1.5,3.898-.422-4.742" fill="#363639"></path><path d="m179.922,454.445-2.492-2.73 2.492-.184 2.562-.238 2.489-.164 2.75-.164 2.582-.258 2.488-.164 2.492-.164 2.563-.258 .422,4.742-2.582.164-2.493.168-2.562.254-2.492.168-2.746.164-2.582.239-2.489.164-2.492.183-2.562-2.676 4.652.754" fill="#363639"></path><path d="m206.234,450.965 .332-4.156 .84-4.231 1.157-4.652 2.16-5.074 .914,2.328 1.172,2.16 1.156,1.902 1.41,1.996 1.172,1.907 1.316,1.757 1.41,1.907 1.172,1.996-1.738.164-1.996.422-1.742.164-1.758.402-1.738.164-1.739.422-1.742.164-1.758.258" fill="#fff"></path><path d="m208.563,433.77h4.246l-1.172,2.746-.914,2.14-.586,2.328-.403,2.161-.586,1.921-.168,1.997-.253,2.144-.164,1.922-4.653-.422 .164-1.902 .164-2.164 .258-2.325 .586-2.324 .328-2.164 .988-2.746 1.008-2.488 1.157-2.731h4.246l-4.246,1.907" fill="#363639"></path><path d="m220.023,446.477-1.574,3.48-1.152-1.738-1.336-1.996-1.41-1.743-1.172-1.902-1.32-1.996-1.172-2.09-1.321-2.324-1.003-2.398 4.246-1.907 .988,2.328 .988,1.977 1.176,1.758 1.336,1.902 1.152,1.996 1.41,1.742 1.336,1.903 1.157,2.16-1.575,3.5-.754-4.652" fill="#363639"></path><path d="m208.563,451.129-2.567-2.492 1.742-.254 1.575-.164 1.738-.422 1.758-.168 1.742-.402 1.828-.164 1.906-.422 1.738-.164 .754,4.652-1.742.164-1.922.422-1.738.164-1.742.402-1.738.164-1.758.422-1.981.168-1.758.254-2.488-2.582 4.653.422" fill="#363639"></path><path d="m229.75,447.797 .586-3.902 .988-3.645 1.336-3.734 2.141-4.082 1.172,1.757 .992,1.575 1.172,1.574 .988,1.316 1.336,1.34 1.41,1.242 1.5,1.34 1.742,1.574-1.906.586-1.922.328-1.996.571-1.906.418-1.992.422-1.743.332-1.902.656-1.996.332" fill="#fff"></path><path d="m232.898,433.605h3.899l-.988,2.161-1.008,1.738-.731,1.574-.586,1.906-.421,1.594-.403,1.738-.347,1.739-.239,1.996-4.652-.422 .238-2.324 .348-1.739 .402-2.16 .754-1.996 .586-1.906 .824-1.906 .914-2.16 1.41-2.161h3.899l-3.899,2.328" fill="#363639"></path><path d="m244.527,441.824-.75,4.067-1.906-1.575-1.574-1.336-1.41-1.156-1.504-1.574-1.153-1.594-1.171-1.574-.989-1.484-1.172-1.993 3.899-2.328 1.176,1.575 .914,1.503 1.246,1.575 .75,1.152 1.152,1.172 1.336,1.156 1.578,1.41 1.574,1.59-.824,4.067-1.172-4.653" fill="#363639"></path><path d="m232.074,448.051-2.91-2.582 1.996-.403 1.903-.586 1.996-.328 1.906-.422 1.758-.421 1.996-.567 1.902-.332 1.906-.586 1.172,4.653-1.922.586-1.906.402-1.996.586-2.16.332-1.906.422-1.575.402-1.921.586-1.977.328-2.914-2.492 4.652.422" fill="#363639"></path><path d="m273.938,466.164-1.758.328-1.575-1.008-.332-1.738 1.008-1.484 2.657,3.902" fill="#363639"></path><path d="m280.164,431.863 3.734,3.481 1.907,4.32 .586,4.652-.754,4.891-1.739,4.648-2.582,4.653-3.242,3.918-4.136,3.738-2.657-3.902 3.223-3.004 3.004-3.477 2.07-3.902 1.41-3.828 .75-3.735-.586-3.496-1.156-2.73-2.488-2.324 2.656-3.903" fill="#363639"></path><path d="m271.281,466.164-1.008-1.574 .332-1.758 1.575-.992 1.758.422-2.657,3.902" fill="#363639"></path><path d="m283.734,517.895 .914-1.575 1.743-.328 1.406.75 .59,1.906-4.653-.753" fill="#363639"></path><path d="m280.75,532.27 .402-1.739 .422-1.922 .328-1.976 .422-1.504 .164-1.996 .422-1.903 .403-1.757 .421-1.578 4.653.753-.422,1.997-.422,1.738-.328,1.574-.238,1.922-.332,1.906-.422,1.574-.418,1.996-.332,1.739-4.723-.824" fill="#363639"></path><path d="m288.387,518.648-1.008,1.575-1.574.422-1.485-.825-.586-1.925 4.653.753" fill="#363639"></path><path d="m229.582,526.047 2.492.586 2.563.566 2.492.422 2.582.164 2.488.254h2.582l2.328-.254 2.489-.332 2.328-.418 2.562-.586 2.325-.734 2.328-.844 2.324-.914 2.16-1.152 2.164-1.41 2.16-1.336-.238-3.739-.348-3.312-.57-3.078-.84-2.91-.918-2.75-1.242-2.727-1.156-2.91-1.336-2.914-.567-1.153-1.007-1.171-1.157-.989-1.172-1.008-1.316-.57-1.43-.582-1.48-.422-1.41-.168-2.75-.164-2.653.164-2.75.168-2.726.422-2.746.582-2.746.57-2.493.586-2.562.844-1.504.328-1.41.567-1.574.586-1.336.586-1.321.824-1.171.918-1.243,1.004-.918,1.156-1.152,2.16-.586,2.582v2.656l.586,2.563 .914,2.324 1.156,2.328 1.243,2.324 1.503,2.161 1.411,2.164 1.48,1.921 1.594,2.141 1.574,1.926" fill="#fff"></path><path d="m270.273,520.059-.988,1.921-2.324,1.411-2.164,1.316-2.324,1.34-2.493.988-2.414.75-2.492.988-2.746.586-2.324.422-2.731.422-2.492.164h-2.582l-2.746-.164-2.488-.258-2.731-.328-2.746-.586-2.492-.824 1.172-4.25 2.492.348 2.399.566 2.324.422 2.492.164 2.324.258h2.582l2.164-.258 2.325-.328 2.324-.422 2.328-.586 2.16-.566 2.324-.75 2.145-1.008 1.922-.988 2.16-1.336 1.906-1.41-.918,1.996h4.652" fill="#363639"></path><path d="m263.461,494.895v-.165l1.336,2.911 1.156,2.894 1.172,3.004 .988,2.656 1.008,3.149 .567,3.332 .347,3.48 .238,3.903h-4.652l-.238-3.481-.348-3.168-.656-2.894-.586-2.746-.918-2.747-1.152-2.492-1.172-2.91-1.41-2.984v-.168l4.32-1.574" fill="#363639"></path><path d="m251.926,487.332 1.574.164 1.996.586 1.484.586 1.59.824 1.578,1.172 1.153,1.156 1.336,1.336 .824,1.739-4.32,1.574-.332-.586-.657-.988-1.172-.75-.734-.75-1.172-.403-1.152-.586-1.172-.168-1.156-.254l.332-4.652" fill="#363639"></path><path d="m229.75,490.41v.254l2.563-1.008 2.488-.586 2.914-.566 2.746-.586 2.91-.422 2.731-.164 2.91-.164 2.914.164-.332,4.652-2.582-.164-2.489.164-2.746.254-2.492.332-2.726.586-2.586.567-2.489.586-2.582.586v.257l-1.152-4.742" fill="#363639"></path><path d="m218.121,497.477h-.258l1.41-1.426 1.172-1.156 1.321-1.172 1.757-.895 1.575-.59 1.574-.586 1.336-.586 1.742-.656 1.152,4.742-1.32.164-1.336.567-1.574.586-1.152.586-1.008.586-.989.824-1.171.754-.586.988h-.168l-3.477-2.73" fill="#363639"></path><path d="m216.547,509.508-.586-1.317-.168-1.757v-3.153l.168-1.574 .586-1.5 .566-1.574 1.008-1.156 3.477,2.73-.164.75-.657.75-.168,1.152-.164.844v2.328l.164.989 .168.914l-4.23,1.574" fill="#363639"></path><path d="m228.996,528.207-1.152-.754-1.758-1.996-1.574-2.066-1.574-1.996-1.34-2.161-1.575-2.328-1.316-2.488-1.172-2.328-.988-2.582 4.23-1.574 .989,2.16 1.172,2.328 .988,2.16 1.594,1.996 1.316,2.07 1.574,1.997 1.578,2.16 1.336,1.902-1.156-.75-1.172,4.25" fill="#363639"></path><path d="m253.172,513.41-2.164-4.066-2.582-3.903-2.488-3.496-2.895-3.148-3.59-2.492-3.808-1.575-4.485-1.007-5.476.257-1.172,2.911-.586,2.73 .164,2.672 .844,2.73 1.152,2.325 1.574,2.582 1.504,2.328 1.738,2.16 4.157,3.312 3.664,2.329 3.734,1.171 3.242.329 2.985-.75 2.07-1.743 1.574-2.324 .844-3.332" fill="#363639"></path><path d="m223.762,492.828 1.5-1.176 6.062-.254 4.906,1.172 4.489,1.739 3.808,2.746 3.149,3.316 2.746,3.734 2.492,4.086 2.324,4.067-4.23,2.324-1.996-4.066-2.489-3.735-2.328-3.242-2.746-3.004-3.148-2.324-3.242-1.32-4.157-.84-4.816.254 1.574-1.153-3.898-2.324" fill="#363639"></path><path d="m229.418,516.156-.422-.422-1.738-2.16-1.574-2.492-1.594-2.562-1.32-2.657-1.004-3.168-.168-3.312 .754-3.332 1.41-3.223 3.898,2.324-.988,2.489-.422,2.164 .164,2.14 .586,2.325 1.008,1.925 1.574,2.563 1.578,2.16 1.738,2.09-.402-.332-3.078,3.48" fill="#363639"></path><path d="m255.238,512.258 .258,1.316-1.008,4.156-1.902,2.915-2.988,2.324-3.66.988-4.067-.402-4.156-1.336-4.067-2.567-4.23-3.496 3.078-3.48 3.899,3.058 3.316,2.161 3.332,1.007 2.492.332 2.141-.586 1.336-1.156 1.172-1.758 .57-2.488 .254,1.336 4.23-2.324" fill="#363639"></path><path d="m244.195,507.77 .754,1.574-.586,1.738-1.578.754-1.738-.586 3.148-3.48" fill="#fff"></path><path d="m238.887,502.859 1.41,1.246 1.316,1.336 1.172,1.34 1.41.989-3.148,3.48-1.336-1.32-1.152-1.41-1.43-.915-1.32-1.574 3.078-3.172" fill="#fff"></path><path d="m241.047,511.082-.586-1.574 .824-1.317 1.336-.843 1.574.586-3.148,3.148" fill="#fff"></path><path d="m220.777,487.918-1.504.75-1.574-.586-.988-1.5 .586-1.738 3.48,3.074" fill="#363639"></path><path d="m254.652,486.18-1.902-1.336-1.996-.992-2.07-.586-2.582-.586-2.325-.567-2.328-.258h-5.219l-2.324.422-2.582.403-2.16.586-2.328.754-1.902.824-1.575.914-1.339.988-1.243,1.172-3.48-3.074 1.574-1.578 1.738-1.411 2.329-1.335 2.324-.731 2.398-.844 2.508-.988 2.895-.332 2.746-.418h5.64l3.078.164 2.746.586 2.563.66 2.914.914 2.324,1.41 2.324,1.336-2.746,3.903" fill="#363639"></path><path d="m220.445,484.438 .989,1.578-.403,1.738-1.41.914-1.922-.328 2.746-3.902" fill="#363639"></path><path d="m297.102,397.215 .988,1.578-.164,1.5-1.41,1.008-1.739-.184 2.325-3.902" fill="#363639"></path><path d="m274.176,390 3.074.406 2.914.348 2.91.656 2.731.754 2.91.988 2.984,1.172 2.492,1.317 2.911,1.574-2.325,3.902-2.492-1.152-2.582-1.41-2.488-1.172-2.567-.57-2.746-.75-2.492-.586-2.91-.422-2.727-.403 .403-4.652" fill="#363639"></path><path d="m295.785,401.465-1.762-.75-.402-1.738 .734-1.594 1.833-.57-.403,4.652" fill="#363639"></path><path d="m305.066,89.8438-1.152-1.3399-1.336-1.5742-1.41-1.4102-1.484-1.3359-1.758-1.1523-1.738-1.336-1.997-1.1562-1.906-1.2461-2.16-1.1719-2.328-1.1523-2.324-.9141-2.563-.8438-2.508-.7343-2.73-.75-2.91-.6602-2.914-.3476" fill="none" stroke="#363639" stroke-width="4.65125"></path><path d="m288.973,113.172-2.582-2.324-2.493-2.328-2.91-2.325-2.914-2.16-3.148-2.16-3.317-1.9062-3.332-1.9961-3.48-1.9024-3.66-1.7422-3.903-1.5937-3.898-1.3164-4.066-1.1719-4.157-1.1563-4.066-1.0039-4.484-.5703-4.25-.5859" fill="none" stroke="#363639" stroke-width="4.65125"></path><path d="m269.688,135.605-3.735-1.757-4.066-1.739-4.321-1.578-4.652-1.574-4.652-1.574-5.055-1.336-5.07-1.156-5.239-1.004-5.238-.754-5.308-.567-5.055-.421h-5.238l-5.075.421-4.886.567-4.653,1.008-4.488,1.32" fill="none" stroke="#363639" stroke-width="4.65125"></path><path d="m263.625,177.047-4.648-1.336-4.891-1.156-5.074-1.008-5.071-.82-5.218-.59-5.239-.328-5.476-.422h-5.403l-5.308.183-5.402.403-5.497.754-5.218.82-5.328,1.008-4.981,1.32-5.055,1.594-4.906,1.738" fill="none" stroke="#363639" stroke-width="4.65125"></path><path d="m283.898,225.723-6.39-.754-6.227-.422-6.484-.418-5.988-.168h-6.059l-6.062.168-5.805.586-5.66.586-5.473.988-5.402,1.172-5.075,1.316-4.89,1.832-4.649,1.922-4.488,2.145-4.32,2.508-3.828,2.73" fill="none" stroke="#363639" stroke-width="4.65125"></path><path d="m302.008,314.828-3.496-.586-3.735-.328-3.644-.402-3.754-.422-3.645-.164h-7.472l-3.664.164-3.735.258-3.66.328-3.738.566-3.481.586-3.496.844-3.312.988-3.317.914-3.332,1.41" fill="none" stroke="#363639" stroke-width="4.65125"></path><path d="m288.973,271.227-5.239.421-5.312.165-5.07.402-4.817.422-4.91.586-4.648.422-4.489.73-4.304.754-4.082,1.008-3.903.988-3.64,1.172-3.5,1.574-3.313,1.484-3.168,1.758-2.73,2.16-2.489,2.325" fill="none" stroke="#363639" stroke-width="4.65125"></path><path d="m312.137,346.398-2.746-.164-2.895-.257-2.91-.164-2.988-.165-2.91.165h-3.079l-2.91.164-2.984.421-3.078.403-2.91.332-2.895.844-3.004.75-2.89.988-2.657.988-2.746,1.336-2.746,1.336" fill="none" stroke="#363639" stroke-width="4.65125"></path><path d="m323.434,331.035-1.004,1.574-1.578.332-1.575-.753-.586-1.903 4.743.75" fill="#363639"></path><path d="m318.363,232.113 .586,6.645 .586,6.812 .567,6.977 .586,7.215 .585,7.398 .586,7.215 .571,7.234 .586,6.977 .418,6.812 .164,6.649 .422,5.969 .168,5.898v5.238l-.168,4.649-.254,3.902-.332,3.332-4.743-.75 .422-3.004 .164-3.808 .258-4.321v-5.238l-.258-5.476-.328-6.063-.258-6.555-.328-6.812-.586-7.067-.57-7.144-.586-7.231-.586-7.382-.586-7.231-.566-6.98-.676-6.813-.57-6.629l4.726-.418" fill="#363639"></path><path d="m311.551,210.926 1.5,2.324 1.41,2.492 .988,2.746 .918,2.746 .84,2.895 .57,2.746 .348,2.746 .238,2.492-4.726.418-.164-2.508-.422-2.398-.586-2.656-.328-2.582-.989-2.324-1.007-2.325-.918-2.164-1.243-1.902l3.571-2.746" fill="#363639"></path><path d="m292.613,191.074 1.008,2.91 1.32,2.493 2.418,2.16 2.489,2.324 2.894,1.996 3.168,2.492 2.91,2.324 2.731,3.153-3.571,2.746-2.328-2.328-2.488-2.414-3.152-2.071-2.91-2.324-2.911-2.402-2.73-2.91-2.16-3.332-1.336-4.067l4.648-.75" fill="#363639"></path><path d="m307.648,186.184-2.746,1.996-2.726.918-2.914.402-2.746.422-2.325.328-1.32.258-.258.164v.402l-4.648.75 .422-3.078 2.16-2.16 2.488-.988 2.75-.422 2.727-.328 2.492-.403 1.996-.586 1.172-.75l3.476,3.075" fill="#363639"></path><path d="m313.637,167.32v.168l-1.172,1.172-.75,1.738-.402,2.161-.165,2.328-.421,2.91-.329,2.73-1.007,2.911-1.743,2.746-3.476-3.075 .894-1.578 .586-2.16 .422-2.324 .422-2.492 .164-2.746 .735-2.911 1.242-2.984 2.328-2.328v.258l2.672,3.476" fill="#363639"></path><path d="m329.992,171.223-2.656-.239-2.582-.75-2.492-.988-2.399-.918-2.086-.84-1.98-.332h-1.336l-.824.164-2.672-3.476 2.672-1.41h2.984l2.328.824 2.489.75 2.328.988 2.582.918 1.738.418 1.574.168l.332,4.723" fill="#363639"></path><path d="m352.004,163-1.578-1.152-1.738.238-2.086.75-2.731,1.574-3.168,1.922-3.312,1.996-3.5,1.906-3.899.989-.332-4.723 2.656-.586 2.747-1.504 3.316-1.976 3.168-1.922 3.058-1.996 3.333-1.157 3.644.258 3.57,1.903l-3.148,3.48" fill="#363639"></path><path d="m349.512,192.832v-2.324l.164-2.164 .586-2.324 .402-2.161 .754-2.328 .84-2.16 .332-1.902 .566-2.16 .586-2.164 .422-1.758 .164-1.739v-1.574l-.328-1.336-.422-1.41-.586-1.156-.988-1.172 3.148-3.48 1.758,1.996 .899,1.906 .839,2.16 .422,2.16v2.328l-.254,2.067-.332,2.164-.675,2.16-.571,2.16-.75,2.324-.75,2.164-.422,1.903-.402,2.16-.586,1.926-.164,1.738v1.996h-4.652" fill="#363639"></path><path d="m355.738,302.797 .164-5.492 .164-5.567-.164-6.226-.164-6.063-.422-6.39-.402-6.649-.328-6.812-.586-7.051-.586-7.141-.824-7.234-.586-7.399-.586-7.378-.586-7.653-.57-7.383-.422-7.726-.328-7.801h4.652l.422,7.379 .328,7.82 .566,7.379 .586,7.563 .586,7.398 .586,7.383 .825,7.23 .585,7.215 .586,6.977 .407,6.812 .328,6.649 .422,6.39 .164,6.485 .258,6.226-.258,5.567-.164,5.894-4.653-.402" fill="#363639"></path><path d="m354.164,192.996-.75,1.738-1.832.422-1.484-.75-.586-1.738 4.652.328" fill="#363639"></path><path d="m421.516,162.836-.989,1.574-1.574.348-1.5-.75-.59-1.922 4.653.75" fill="#363639"></path><path d="m430.488,92.4063 2.746-2.1602-.418,5.0703-.421,4.8166-.567,5.074-.754,4.891-.586,4.648-.824,4.652-.914,4.743-.844,4.394-.73,4.488-1.008,4.321-.75,4.488-.988,4.231-.754,4.32-.824,4.066-.75,4.321-.586,4.066-4.653-.75 .59-4.141 .75-4.246 .75-4.066 .824-4.32 .989-4.325 .75-4.394 1.007-4.321 .735-4.488 .75-4.484 1.008-4.653 .73-4.652 .586-4.723 .844-4.816 .566-4.6523 .422-4.9063 .328-5.0546 2.75-2.1641-.754,4.7266" fill="#363639"></path><path d="m448.016,87.0938v-.1641l-1.996,1.9062-2.161,1.5743-2.492,1.0078-2.562.75-2.512.2383-1.902.164h-2.399l-1.504-.164 .754-4.7266 1.153.2383h1.574l1.922-.2383 2.16-.1641 1.742-.4218 1.738-.9141 1.742-.8242 1.172-1.1719v-.1641l3.571,3.0743" fill="#363639"></path><path d="m444.699,74.0586 .164.418 .407,1.1562 .585,1.336 1.172,1.4101 1.153,1.9063 .75,1.9961 .238,2.4882-1.152,2.3243-3.571-3.0743l-.168-.5859-.418-1.1523-.754-1.1758-1.152-1.8125-1.008-1.7578-.73-1.9024-.168-2.3281 4.652.7539" fill="#363639"></path><path d="m443.859,85.1914 1.004-1.5742 1.742-.4219 1.411.8242 .586,1.9024-4.743-.7305" fill="#363639"></path><path d="m331.73,63.1797 1.008,1.5742-.422,1.7383-1.32,1.0078-1.922-.418 2.656-3.9023" fill="#363639"></path><path d="m317.375,59.4453 2.16.2383 2.16.1641 2.071.4218 1.574.3282 1.574.4218 1.758.586 1.574.5664 1.484,1.0078-2.656,3.9023-1.152-.5898-.844-.5859-1.316-.2344-1.574-.3321-1.594-.4218-1.742-.4219-1.739-.1641-2.16-.164 .422-4.7227" fill="#363639"></path><path d="m330.246,67.5-1.758-.8398-.402-1.7422 .75-1.5742 1.742-.586-.332,4.7422" fill="#363639"></path><path d="m318.363,149.047 .328,1.758-.75,1.316-1.574.586-1.484-.988 3.48-2.672" fill="#363639"></path><path d="m304.738,106.617 .164,2.656 .164,2.985 .422,2.656 .422,3 .586,2.895 .567,2.746 .753,2.914 .582,2.91 .993,2.73 1.172,2.489 1.152,2.746 1.172,2.75 1.152,2.324 1.41,2.324 1.504,2.16 1.41,2.145-3.48,2.672-1.832-2.086-1.5-2.563-1.41-2.328-1.504-2.746-1.242-2.746-1.157-2.656-1.172-2.985-.894-3.078-1.008-2.91-.754-2.894-.656-3.168-.586-2.911-.332-2.894-.418-3.168-.168-2.895-.238-3.074h4.726" fill="#363639"></path><path d="m350.832,59.4453-5.055,1.8125-4.816,1.9219-4.91,2.1601-4.321,2.1602-4.23,2.4922-3.734,2.7266-3.5,2.75-3.313,2.9101-2.914,3.3164-2.324,3.0742-2.324,3.3164-1.575,3.4961-1.578,3.7344-.75,3.4805-.586,3.9181-.164,3.902h-4.726l.238-4.324 .586-4.3203 1.172-4.2305 1.578-4.0664 1.902-3.918 2.328-3.7344 2.747-3.4804 3.312-3.3321 3.332-3.3164 3.902-3.0742 4.067-2.7305 4.23-2.5078 4.742-2.5625 4.817-2.1601 5.238-1.9063 5.473-1.7578l1.156,4.25" fill="#363639"></path><path d="m401.664,59.4453-2.91-1.1719-3.149-1.1562-2.746-.5859-3.226-.586-3.168-.3281-3.313-.4219h-6.39l-3.332.1641-3.317.2578-3.078.3281-3.57.586-3.242.8242-3.149.5859-3.074.75-3.168.7539-1.156-4.25 3.152-1.1523 3.496-.8242 3.078-.586 3.313-.7539 3.496-.5859 3.48-.4024 3.317-.1836 3.754-.164h6.793l3.332.3476 3.48.4024 3.332.5859 3.481.9922 3.074,1.1719 3.316,1.1523-1.906,4.25" fill="#363639"></path><path d="m351.25,55.1953 1.172,1.336v1.7421l-1.41,1.1719h-1.758l1.996-4.25" fill="#363639"></path></g></g></svg>
