<?xml version="1.0" encoding="UTF-8" standalone="no"?>
<svg width="510.44" xmlns="http://www.w3.org/2000/svg" xmlns:xlink="http://www.w3.org/1999/xlink" height="554.89">
 <defs>
  <filter id="filter3340">
   <feGaussianBlur id="feGaussianBlur3342" stdDeviation="3.959091"/>
  </filter>
  <filter id="filter3390">
   <feGaussianBlur id="feGaussianBlur3392" stdDeviation="10.093933"/>
  </filter>
  <linearGradient id="linearGradient2254">
   <stop id="stop2256" stop-color="#bedcdc" offset="0"/>
   <stop id="stop2264" stop-color="#8e9e9e" stop-opacity=".741" offset=".5"/>
   <stop id="stop2258" stop-color="#404f5c" stop-opacity=".839" offset="1"/>
  </linearGradient>
  <radialGradient id="radialGradient2340" xlink:href="#linearGradient2254" gradientUnits="userSpaceOnUse" cy="389.51" cx="380" gradientTransform="matrix(-.10557 -.93090 .99363 -.11268 45.964 812.42)" r="148.86"/>
  <radialGradient id="radialGradient3406" xlink:href="#linearGradient2254" gradientUnits="userSpaceOnUse" cy="389.51" cx="380" gradientTransform="matrix(.086859 -.58077 .62210 .093576 261.99 772.78)" r="148.86"/>
 </defs>
 <g id="layer1" externalResourcesRequired="false" stroke-width="0">
  <g id="svg_1">
   <path id="path3394" opacity=".885" filter="url(#filter3390)" d="m420.38 315.45c-3.4719 8.4847-12.491 13.344-21.211 11.008-8.2772-2.2179-13.561-10.179-13.02-18.751-6.4302-0.26205-12.804 0.12839-19.058 1.1121 0.88474 8.9504-4.653 17.62-13.324 20.119-8.051 2.3199-16.244-1.4008-20.082-8.531-4.74 2.6429-9.3005 5.6602-13.605 9.0352 5.2282 7.2039 4.5754 17.612-1.8774 24.306-6.1544 6.3847-15.564 7.298-22.442 2.6568-3.3774 5.3404-6.3326 11.04-8.7878 17.064 8.4672 3.2172 13.225 12.701 10.729 22.018-2.3517 8.7765-10.35 14.456-18.745 13.877-0.15454 2.9508-0.20303 5.8838-0.11826 8.8009 1.6752-0.010651 3.3241 0.21771 4.8896 0.67697 5.7722 1.6932 10.514 6.4086 12.121 12.876 2.1864 8.8029-2.1768 17.902-9.9387 21.708 2.2178 5.7628 4.9258 11.3 8.0908 16.537 4.3389-3.2294 9.7156-4.2547 14.648-3.0568 3.0619 0.74365 5.9391 2.3472 8.3093 4.808 6.5718 6.8231 6.7631 17.804 0.66534 25.15 4.712 3.7308 9.7852 7.0484 15.194 9.8837 3.817-7.6943 12.374-11.947 20.651-9.7289 8.7203 2.3366 14.101 11.055 12.866 20.138 5.4097 0.65485 10.804 0.85553 16.139 0.60638-0.4444-8.6285 5.0259-16.803 13.41-19.219 2.9846-0.85998 5.9903-0.88019 8.7833-0.21191 5.6151 1.3437 10.364 5.5064 12.427 11.383 6.0066-2.5877 11.775-5.7617 17.22-9.463-4.4735-7.1404-3.6-16.91 2.5557-23.296 4.6248-4.7978 11.089-6.5102 16.935-5.0906 2.3318 0.56634 4.5678 1.6356 6.547 3.1993 3.3981-4.6508 6.4554-9.6236 9.1204-14.88-6.9535-3.9536-10.603-12.504-8.3503-20.909 2.3954-8.9399 10.655-14.676 19.219-13.847 1.3096-9.436 1.3555-18.8 0.25568-27.891-9.0992 1.8627-18.043-3.7995-20.375-13.188-2.1799-8.7771 2.1613-17.85 9.883-21.674-2.621-5.2223-5.6642-10.214-9.1068-14.894-7.0111 5.0695-16.623 4.4696-22.749-1.8902-5.7571-5.9772-6.6231-15.151-2.6498-22.272-4.7714-3.1385-9.853-5.8813-15.217-8.169zm-30.638 61.282c0.59515 0.15945 1.179 0.33127 1.7584 0.51987 2.3176 0.75458 4.5128 1.7428 6.558 2.9262 0.51138 0.29575 1.0171 0.60403 1.5101 0.92419 0.98599 0.64056 1.9297 1.3272 2.8392 2.0597 0.4548 0.36612 0.89517 0.74664 1.329 1.1355 0.21695 0.19443 0.43738 0.39639 0.64917 0.5961 0.029633 0.027771 0.055817 0.059906 0.085327 0.087799 0.28806 0.27191 0.57275 0.54758 0.85126 0.82886 0.3063 0.31067 0.60422 0.6182 0.89941 0.93918 0.78705 0.8562 1.5378 1.7488 2.238 2.6779 0.26263 0.3483 0.52124 0.70944 0.77176 1.0673 0.15381 0.22024 0.31216 0.43567 0.46112 0.65939 0.20123 0.30139 0.38605 0.61056 0.5784 0.91806 0.3605 0.57638 0.71078 1.1592 1.0384 1.7558 0.21082 0.38412 0.4075 0.77673 0.60464 1.1687 0.003265 0.006531 0.007172 0.012482 0.010437 0.019043 0.091095 0.1814 0.186 0.36127 0.27414 0.54431 0.22623 0.46973 0.43872 0.94318 0.64532 1.4231 0.057983 0.13474 0.11551 0.26776 0.17194 0.40326 0.1702 0.40759 0.33722 0.82187 0.4932 1.2362 0.19412 0.51715 0.37506 1.0321 0.54666 1.5591 0.23975 0.73612 0.46506 1.4853 0.66006 2.2389 0.11121 0.42917 0.20883 0.86533 0.30512 1.2995 0.2579 1.1628 0.46301 2.3307 0.61112 3.5247 0.064941 0.52304 0.12668 1.0437 0.16992 1.5718 0.004425 0.053894-0.001251 0.10919 0.00293 0.16315 0.036896 0.4747 0.063232 0.95645 0.082275 1.4346 0.002625 0.065643 0.00705 0.13159 0.009338 0.19733 0.006561 0.18921-0.000671 0.3794 0.003052 0.56909 0.009216 0.46588 0.021667 0.93152 0.013763 1.4-0.002167 0.12897-0.006866 0.25781-0.010345 0.38693-0.00882 0.33023-0.031067 0.66242-0.048492 0.99365-0.021454 0.40878-0.045593 0.8186-0.080322 1.2287-0.001831 0.021423 0.000122 0.04306-0.00174 0.064453-0.003143 0.036743-0.01059 0.073242-0.013885 0.10996-0.042236 0.47333-0.087463 0.94711-0.14761 1.4217-0.004028 0.031647-0.005768 0.063141-0.009857 0.094788-0.013397 0.10382-0.037872 0.20691-0.052155 0.31076-0.060089 0.43713-0.12033 0.87354-0.19583 1.3114-0.093903 0.5441-0.19626 1.0925-0.31418 1.6369-0.1337 0.61646-0.28656 1.2437-0.45166 1.8598-0.33289 1.2424-0.71436 2.4409-1.1565 3.6194-0.001831 0.004852-0.002228 0.010315-0.004059 0.015137-0.21942 0.58426-0.45175 1.1615-0.69666 1.7292-0.002045 0.0047-0.002014 0.010406-0.004059 0.015137-0.24515 0.5676-0.50595 1.1251-0.77564 1.6756-0.002258 0.004578-0.001801 0.010559-0.004089 0.015137-0.13495 0.27521-0.27679 0.54285-0.42001 0.81293-0.1412 0.27136-0.28748 0.54218-0.43457 0.80905-0.002441 0.004425-0.001617 0.010712-0.004059 0.015167-0.29376 0.53259-0.60254 1.0578-0.91904 1.5722-0.002594 0.004242-0.001465 0.010895-0.004059 0.015167-0.63602 1.0328-1.3237 2.0353-2.0459 2.9913-0.72522 0.95993-1.4868 1.8688-2.2916 2.7469-0.003082 0.003357-0.000977 0.01178-0.004059 0.015137-0.802 0.87448-1.645 1.7025-2.5186 2.4912-0.003204 0.002899-0.000824 0.012268-0.004059 0.015167-0.43542 0.39288-0.87949 0.76627-1.3313 1.137-0.003235 0.002686-0.000824 0.012482-0.004059 0.015167-0.45206 0.37073-0.92413 0.72406-1.3917 1.0721-0.003235 0.002411-0.000854 0.012756-0.004059 0.015167-1.8805 1.3989-3.8863 2.6158-5.9803 3.6257-2.0974 1.0114-4.2873 1.8191-6.5397 2.4043-1.1262 0.2926-2.2708 0.52667-3.4246 0.70599-1.1538 0.17926-2.3146 0.3027-3.4886 0.36417-0.58707 0.030731-1.1792 0.044861-1.7699 0.045319-2.3627 0.00174-4.7581-0.23935-7.1425-0.74481-0.59613-0.12637-1.1877-0.26953-1.7828-0.42899-0.59515-0.15945-1.179-0.33127-1.7584-0.5199-2.3176-0.75455-4.5128-1.7428-6.558-2.9262-0.51135-0.29575-1.0171-0.60403-1.5101-0.92419-0.98599-0.64053-1.9297-1.3272-2.8392-2.0597-0.90964-0.73224-1.7838-1.5072-2.6128-2.3238-0.41446-0.40845-0.80786-0.83551-1.2014-1.2636-0.39352-0.4281-0.78253-0.87012-1.1561-1.3164-0.37216-0.44666-0.73166-0.8971-1.0818-1.3615-0.70035-0.9288-1.3564-1.8869-1.9658-2.881-0.30273-0.49393-0.5899-1.007-0.86938-1.5157-0.28308-0.51508-0.55502-1.0202-0.81372-1.5494-0.001709-0.003479 0.005768-0.011658 0.004059-0.015137-0.25699-0.52612-0.50702-1.0554-0.73941-1.5945-0.23248-0.53888-0.45773-1.0885-0.6651-1.6395-0.20731-0.55118-0.39871-1.1033-0.58038-1.6655-0.3635-1.1241-0.67362-2.2691-0.93149-3.4319s-0.46301-2.3307-0.61108-3.5247c-0.00061-0.004761 0.004669-0.010376 0.004059-0.015167-0.073364-0.59235-0.14414-1.1896-0.18973-1.7881-0.000397-0.004883 0.004425-0.010254 0.004059-0.015167-0.045746-0.60346-0.073517-1.2014-0.090485-1.8102-0.016693-0.59558-0.014587-1.1874-0.003448-1.7869 0.000824-0.042938 0.002533-0.086029 0.003479-0.12897 0.011993-0.54526 0.034302-1.1057 0.069763-1.6537 0.008972-0.1377 0.022522-0.27548 0.032959-0.4133 0.029327-0.38733 0.05188-0.772 0.09314-1.1603 0.020721-0.19446 0.039398-0.38913 0.06311-0.58383 0.001862-0.015289 0.010315-0.030121 0.012177-0.045441 0.062836-0.51141 0.13968-1.0186 0.22363-1.5312 0.014465-0.08844 0.024902-0.17685 0.039978-0.26529 0.089478-0.52353 0.2005-1.0482 0.31244-1.5724 0.00885-0.041473 0.008942-0.083588 0.017975-0.12506 0.13455-0.62152 0.28522-1.2386 0.45166-1.8598 0.16644-0.62118 0.34454-1.231 0.53876-1.8365 0.19119-0.59979 0.39761-1.1961 0.61771-1.7829 0.001831-0.004883 0.002228-0.010254 0.004059-0.015137 0.21921-0.58438 0.452-1.1614 0.69666-1.7292 0.002045-0.00473 0.002014-0.010406 0.004059-0.015137 0.2449-0.56769 0.50616-1.125 0.77566-1.6756 0.002228-0.004547 0.001801-0.01059 0.004059-0.015137 0.26968-0.55051 0.56125-1.0891 0.85458-1.622 0.002411-0.004425 0.001648-0.010742 0.004059-0.015137 0.29355-0.53274 0.60272-1.0577 0.91904-1.5722 0.002594-0.004211 0.001495-0.010956 0.004059-0.015167 0.31912-0.51862 0.64218-1.0229 0.98349-1.5225 0.25574-0.3743 0.52548-0.73929 0.79321-1.1026 0.030396-0.041229 0.064056-0.079712 0.094604-0.12082 0.13098-0.17624 0.25674-0.35498 0.3905-0.52856 0.20618-0.2674 0.41873-0.5278 0.63135-0.78879 0.14572-0.17902 0.28943-0.35608 0.43811-0.53204 0.32736-0.38718 0.66446-0.77005 1.0062-1.143 0.003052-0.003296 0.001038-0.011841 0.004059-0.015137 0.40234-0.43903 0.80829-0.86035 1.2291-1.2781 0.42386-0.42072 0.85184-0.82977 1.2936-1.2283 0.43527-0.393 0.87961-0.76611 1.3313-1.137 0.003143-0.002563 0.000946-0.012604 0.004059-0.015137 0.45194-0.37088 0.92429-0.72397 1.3917-1.0722 0.003082-0.002258 0.000946-0.012817 0.004028-0.015106 0.47076-0.35046 0.95206-0.68426 1.4376-1.0112 1.4567-0.98074 2.9696-1.8559 4.5427-2.6146 2.0973-1.0114 4.2873-1.8191 6.5396-2.4043 1.1262-0.2926 2.2708-0.5267 3.4246-0.70599 1.1538-0.17926 2.3146-0.3027 3.4886-0.36417 0.58707-0.030731 1.1792-0.044861 1.7699-0.045288 2.3628-0.00177 4.7581 0.23935 7.1425 0.74478 0.5961 0.12637 1.1876 0.2695 1.7828 0.42899z"/>
   <path id="path3396" fill="#c0c0c0" d="m420.83 316.06c-3.5091 8.4316-12.829 13.177-21.924 10.74-8.6325-2.3131-14.221-10.326-13.76-18.879-6.6889-0.33804-13.311-0.023834-19.802 0.88419 1.0262 8.9485-4.6287 17.54-13.615 19.933-8.3435 2.2211-16.906-1.5918-20.982-8.7576-4.8971 2.5829-9.603 5.5419-14.039 8.861 5.5216 7.2559 4.9665 17.642-1.6633 24.25-6.3232 6.3026-16.096 7.1029-23.303 2.3865-3.4482 5.2928-6.4532 10.95-8.9344 16.936 8.842 3.3133 13.902 12.84 11.417 22.114-2.3408 8.7363-10.59 14.313-19.325 13.635-0.12567 2.9449-0.14124 5.8732-0.018433 8.7873 1.7416 0.009247 3.4588 0.25687 5.092 0.73404 6.0217 1.7595 11.008 6.5246 12.755 13.002 2.3778 8.8166-2.0508 17.852-10.076 21.56 2.3744 5.7811 5.2558 11.343 8.6088 16.61 4.473-3.1734 10.051-4.1334 15.194-2.8787 3.1925 0.77902 6.2031 2.4146 8.6967 4.9001 6.9141 6.8916 7.2435 17.86 0.99054 25.123 4.9436 3.7817 10.258 7.1548 15.915 10.05 3.8773-7.6382 12.724-11.783 21.356-9.4701 9.0947 2.4369 14.793 11.207 13.616 20.263 5.6324 0.71814 11.243 0.98254 16.788 0.79724-0.56458-8.6219 5.0262-16.72 13.714-19.033 3.093-0.82336 6.218-0.80786 9.1299-0.10724 5.8543 1.4085 10.841 5.6218 13.056 11.515 6.2147-2.5127 12.175-5.6138 17.792-9.2453-4.7362-7.1836-3.944-16.93 2.3806-23.234 4.7516-4.7362 11.453-6.3695 17.548-4.8824 2.4312 0.5932 4.7688 1.6876 6.8453 3.2726 3.4779-4.6039 6.5977-9.5335 9.3062-14.751-7.2769-4.0307-11.173-12.612-8.9306-20.98 2.3845-8.899 10.905-14.529 19.818-13.6 1.2495-9.4074 1.186-18.757-0.06543-27.849-9.4389 1.752-18.805-4.0086-21.341-13.412-2.3708-8.7908 2.0352-17.799 10.018-21.526-2.7872-5.2462-6.0107-10.266-9.6457-14.981-7.2297 4.9792-17.231 4.266-23.675-2.1578-6.057-6.0373-7.0664-15.209-3.0197-22.272-4.9984-3.1908-10.314-5.9901-15.919-8.3384zm-31.128 60.833c0.62067 0.16629 1.2298 0.34479 1.8345 0.54004 2.4187 0.78104 4.7129 1.794 6.8534 3 0.53522 0.30142 1.0647 0.6153 1.5811 0.94086 1.0327 0.65134 2.0221 1.3482 2.9765 2.0906 0.4773 0.37097 0.93964 0.75623 1.3954 1.1496 0.22784 0.19675 0.45941 0.40106 0.68204 0.603 0.031128 0.028076 0.058777 0.060516 0.089813 0.088684 0.30267 0.27496 0.60199 0.55362 0.89487 0.83783 0.32224 0.31387 0.63562 0.62454 0.94635 0.94852 0.82852 0.86435 1.6197 1.7646 2.3587 2.7008 0.27719 0.35089 0.55042 0.71463 0.81509 1.075 0.16254 0.22174 0.32974 0.43875 0.48727 0.66394 0.21283 0.30338 0.40869 0.61429 0.6123 0.92371 0.38165 0.57983 0.75278 1.166 1.1005 1.7656 0.22372 0.38605 0.43292 0.78049 0.64255 1.1742 0.00351 0.006561 0.007568 0.012604 0.011078 0.019165 0.096863 0.18225 0.19766 0.36298 0.2915 0.54681 0.24081 0.47174 0.46738 0.94708 0.6879 1.4288 0.061859 0.13525 0.12326 0.2688 0.18353 0.40476 0.18179 0.40909 0.36038 0.82474 0.5275 1.2404 0.20798 0.51874 0.40222 1.0351 0.58688 1.5634 0.25803 0.73795 0.50122 1.4888 0.71289 2.2436 0.12073 0.42987 0.22742 0.86658 0.3327 1.3013 0.28195 1.1643 0.50909 2.333 0.67722 3.527 0.073792 0.52304 0.14416 1.0438 0.19537 1.5716 0.005249 0.053894 0 0.10907 0.005005 0.16296 0.043976 0.47446 0.077057 0.95587 0.1026 1.4336 0.00351 0.065643 0.00885 0.1315 0.012024 0.19717 0.009094 0.18906 0.003784 0.37888 0.009979 0.56836 0.015076 0.46536 0.033569 0.93048 0.030884 1.3982-0.000732 0.12872-0.004028 0.25732-0.006134 0.3862-0.005249 0.32968-0.024414 0.66113-0.038635 0.99173-0.017456 0.40796-0.037689 0.8169-0.068909 1.226-0.001678 0.021332 0.000671 0.042999-0.001038 0.064362-0.002869 0.036621-0.010162 0.072968-0.013123 0.10959-0.03833 0.47217-0.079681 0.94473-0.1366 1.418-0.003815 0.031555-0.00528 0.062988-0.009155 0.094574-0.012695 0.10346-0.036926 0.20612-0.050507 0.30969-0.057312 0.43582-0.11475 0.87088-0.18808 1.3072-0.091095 0.54221-0.19107 1.0886-0.30719 1.6309-0.13171 0.61398-0.2832 1.2386-0.44751 1.8519-0.33139 1.2367-0.71378 2.429-1.1595 3.6006-0.001801 0.004822-0.002197 0.010254-0.004028 0.015076-0.22122 0.58081-0.4559 1.1545-0.70386 1.7185-0.002045 0.00473-0.001923 0.010406-0.004028 0.015076-0.24811 0.5639-0.51266 1.1176-0.78653 1.6641-0.002289 0.004578-0.00177 0.010498-0.004059 0.015076-0.13702 0.27322-0.28137 0.53879-0.42706 0.80682-0.14362 0.26926-0.29248 0.53799-0.4422 0.80273-0.002533 0.004395-0.001556 0.010712-0.004089 0.015076-0.2991 0.52838-0.61389 1.0492-0.93686 1.5591-0.002686 0.004211-0.001434 0.010895-0.004059 0.015076-0.64905 1.0238-1.3521 2.0168-2.0918 2.9629-0.74264 0.95001-1.5237 1.8485-2.35 2.7159-0.003143 0.003357-0.000854 0.011749-0.004028 0.015076-0.82346 0.86374-1.6902 1.6805-2.5891 2.4579-0.003296 0.002808-0.000732 0.012207-0.004028 0.015076-0.44806 0.38715-0.90533 0.75473-1.3707 1.1196-0.003357 0.002625-0.000702 0.012451-0.004028 0.015076-0.46567 0.36487-0.9523 0.7121-1.4343 1.0541-0.003357 0.00238-0.000732 0.012756-0.004028 0.015076-1.9386 1.3746-4.0097 2.5661-6.175 3.5496-2.1687 0.98511-4.4361 1.7657-6.771 2.3232-1.1676 0.27887-2.3548 0.49905-3.5524 0.6644-1.1976 0.16531-2.403 0.27475-3.623 0.3222-0.61005 0.023712-1.2255 0.030792-1.8397 0.0242-2.4567-0.026306-4.9501-0.29553-7.4352-0.82855-0.62134-0.1333-1.2381-0.2833-1.8587-0.44955-0.6207-0.16632-1.2299-0.34482-1.8345-0.54004-2.4187-0.7811-4.7129-1.794-6.8534-3.0001-0.53522-0.30142-1.0647-0.61533-1.5811-0.94086-1.0328-0.65137-2.0221-1.3482-2.9765-2.0905-0.9545-0.742-1.8726-1.5263-2.7443-2.3516-0.43579-0.41275-0.84992-0.84393-1.2642-1.2761-0.41425-0.43213-0.82398-0.87817-1.2177-1.3283-0.39224-0.45041-0.77139-0.90451-1.141-1.3724-0.73923-0.93582-1.4327-1.9004-2.0781-2.9003-0.32065-0.49683-0.62534-1.0126-0.922-1.5239-0.30042-0.5177-0.5892-1.0254-0.86444-1.5569-0.001801-0.003448 0.005859-0.011597 0.004028-0.015076-0.27344-0.52841-0.53967-1.0599-0.78772-1.601-0.24814-0.54092-0.48886-1.0924-0.711-1.6451-0.22211-0.55286-0.42767-1.1065-0.62323-1.6701-0.39133-1.1269-0.72736-2.2739-1.0093-3.4382-0.28195-1.1643-0.50912-2.333-0.67725-3.5271-0.000671-0.004791 0.0047-0.010315 0.004028-0.015076-0.083344-0.59241-0.164-1.1896-0.21854-1.7879-0.000427-0.004852 0.004517-0.010162 0.004059-0.015076-0.054718-0.60312-0.090698-1.2006-0.1156-1.8088-0.024384-0.59497-0.029236-1.1859-0.024719-1.7845 0.000305-0.042877 0.001556-0.085876 0.002045-0.12872 0.005981-0.54437 0.022491-1.1038 0.052887-1.6505 0.00766-0.13742 0.020111-0.27484 0.029358-0.41238 0.025879-0.38641 0.044769-0.77029 0.083069-1.1576 0.019165-0.19397 0.036346-0.38812 0.058685-0.58228 0.00177-0.015289 0.010345-0.029968 0.012115-0.045258 0.059235-0.50992 0.13315-1.0156 0.21432-1.5265 0.014008-0.088104 0.023743-0.1763 0.038422-0.26446 0.086823-0.52173 0.19601-1.0443 0.30621-1.5665 0.008667-0.04129 0.008301-0.083344 0.017151-0.1247 0.13254-0.61902 0.28189-1.2335 0.44754-1.8519 0.16568-0.61832 0.34363-1.2252 0.53836-1.8275 0.19168-0.59671 0.39923-1.1897 0.62109-1.7731 0.001831-0.004791 0.002197-0.010193 0.004028-0.015076 0.22098-0.58093 0.45618-1.1544 0.70383-1.7185 0.002075-0.0047 0.001984-0.010345 0.004059-0.015076 0.24786-0.56396 0.51291-1.1174 0.78656-1.6641 0.002289-0.004517 0.00177-0.010529 0.004059-0.015076 0.27383-0.54651 0.57062-1.0809 0.86929-1.6096 0.002472-0.004364 0.001556-0.010712 0.004028-0.015076 0.29889-0.5285 0.61414-1.049 0.93692-1.5591 0.002625-0.00415 0.001373-0.010895 0.004028-0.015076 0.32562-0.51413 0.65555-1.0139 1.0045-1.5087 0.26141-0.37076 0.53757-0.73202 0.81165-1.0917 0.031097-0.040802 0.065613-0.078796 0.096893-0.11948 0.13409-0.1745 0.26276-0.35144 0.39978-0.52325 0.21115-0.26456 0.42908-0.52203 0.64706-0.78015 0.14938-0.17703 0.29669-0.35214 0.44919-0.52615 0.33578-0.38269 0.68173-0.76105 1.0327-1.1294 0.003113-0.003265 0.000916-0.01181 0.004028-0.015076 0.41312-0.43366 0.8302-0.84955 1.2628-1.2617 0.43573-0.4151 0.87588-0.81851 1.3304-1.2112 0.44788-0.38733 0.90546-0.75461 1.3707-1.1197 0.003204-0.002472 0.000824-0.012543 0.004028-0.015076 0.46552-0.36496 0.95242-0.71191 1.4343-1.0541 0.003204-0.002258 0.000854-0.012787 0.004028-0.015076 0.48532-0.34433 0.98175-0.67197 1.4827-0.99264 1.503-0.96207 3.0656-1.8181 4.6923-2.557 2.1687-0.98514 4.436-1.7656 6.7711-2.3232 1.1675-0.27884 2.3547-0.49896 3.5523-0.66434 1.1976-0.16531 2.403-0.27481 3.623-0.32224 0.61005-0.023682 1.2256-0.030792 1.8397-0.024231 2.4567 0.026306 4.9501 0.29553 7.4352 0.82858 0.62131 0.13327 1.2381 0.28326 1.8588 0.44958z"/>
   <path id="path3398" opacity=".794" fill="#a9a9a9" d="m402.22 330.16c-45.758-12.261-92.802 14.795-105.02 60.381-12.215 45.586 15.002 92.524 60.76 104.78 45.758 12.261 92.813-14.776 105.03-60.362 12.215-45.586-15.013-92.543-60.772-104.8zm-12.506 46.736c0.6207 0.16632 1.2298 0.34482 1.8345 0.54004 2.4187 0.78104 4.7129 1.794 6.8534 3.0001 0.53519 0.30142 1.0647 0.6153 1.5811 0.94086 1.0327 0.65134 2.0221 1.3482 2.9765 2.0905 1.4318 1.113 2.7654 2.3317 4.0084 3.6277 0.82849 0.86435 1.6197 1.7646 2.3587 2.7008 1.1088 1.4037 2.1201 2.8845 3.0153 4.4282 1.7897 3.0886 3.1311 6.4285 3.9765 9.9224 0.28192 1.1643 0.50912 2.333 0.67725 3.5271 0.5903 4.1845 0.4653 8.532-0.46353 12.87-0.13168 0.61398-0.28317 1.2385-0.44751 1.8519-0.33139 1.2367-0.71381 2.429-1.1594 3.6006-0.001862 0.004822-0.002197 0.010254-0.004059 0.015076-0.22125 0.58081-0.45593 1.1545-0.70383 1.7185-0.002106 0.00473-0.001984 0.010376-0.004028 0.015076-0.24811 0.56387-0.5127 1.1176-0.78659 1.6641-0.002289 0.004578-0.00177 0.010498-0.004059 0.015076-0.27408 0.54636-0.57037 1.081-0.86926 1.6096-0.002502 0.004395-0.001556 0.010712-0.004059 0.015076-0.29913 0.52838-0.61389 1.0492-0.93689 1.5591-0.002686 0.004211-0.001373 0.010834-0.004059 0.015076-1.3008 2.0518-2.7925 3.9476-4.4417 5.6787-0.003143 0.003326-0.000885 0.011749-0.004028 0.015106-0.82352 0.86374-1.6902 1.6805-2.5891 2.4578-0.003296 0.002869-0.000732 0.012268-0.004028 0.015076-0.44806 0.38721-0.90533 0.75479-1.3708 1.1197-0.003357 0.002625-0.000671 0.01239-0.004028 0.015076-0.46561 0.36481-0.95224 0.71207-1.4343 1.0541-0.003296 0.002319-0.000671 0.012695-0.004028 0.015076-0.96771 0.68619-1.9667 1.3219-2.9947 1.9128-0.51883 0.29846-1.0427 0.5813-1.5755 0.85464-0.52942 0.27164-1.0626 0.53586-1.6047 0.78217-2.1687 0.98511-4.4361 1.7656-6.7711 2.3232-1.1676 0.27887-2.3548 0.49899-3.5524 0.66434-1.1975 0.16531-2.403 0.27478-3.623 0.32224-0.60998 0.023712-1.2255 0.030823-1.8397 0.024231-2.4566-0.026306-4.95-0.29553-7.4352-0.82861-0.62128-0.13324-1.238-0.28323-1.8587-0.44955-0.62064-0.16626-1.2298-0.34482-1.8345-0.54004-2.4187-0.78104-4.7129-1.794-6.8534-3-0.53519-0.30145-1.0647-0.61533-1.5811-0.94086-1.0327-0.6514-2.0221-1.3482-2.9765-2.0906-1.4317-1.113-2.7654-2.3317-4.0084-3.6277-0.82849-0.86438-1.6197-1.7646-2.3587-2.7008-1.4809-1.8747-2.7652-3.8795-3.8605-5.9962-0.27341-0.52841-0.53967-1.0599-0.78772-1.601-0.99252-2.1637-1.7796-4.4249-2.3435-6.7534-0.28195-1.1643-0.50909-2.333-0.67728-3.527-0.000641-0.004791 0.00473-0.010315 0.004089-0.015106-0.083344-0.59238-0.16403-1.1896-0.21854-1.7879-0.000458-0.004852 0.004486-0.010162 0.004028-0.015076-0.054718-0.60318-0.090698-1.2006-0.11557-1.8088-0.125-3.0454 0.12448-6.1432 0.78952-9.2433 0.13254-0.61902 0.28186-1.2335 0.44757-1.8519 0.3327-1.2418 0.71552-2.4394 1.1635-3.6157 0.22098-0.58096 0.45615-1.1544 0.7038-1.7185 0.002075-0.0047 0.001984-0.010345 0.004059-0.015076 0.24786-0.56403 0.51294-1.1174 0.78656-1.6641 0.002289-0.004547 0.00177-0.010529 0.004028-0.015076 0.2739-0.54651 0.57065-1.0809 0.86932-1.6096 0.002441-0.004364 0.001556-0.010712 0.004028-0.015076 0.29889-0.5285 0.61414-1.049 0.93692-1.5591 0.002625-0.004181 0.001373-0.010895 0.004028-0.015076 0.32562-0.51416 0.65558-1.0139 1.0045-1.5087 1.0495-1.4883 2.1983-2.8814 3.4413-4.1852 0.41312-0.43366 0.83017-0.84955 1.2628-1.2617 0.43573-0.41513 0.87585-0.81851 1.3304-1.2113 0.44788-0.3873 0.90552-0.75458 1.3707-1.1197 0.003235-0.002502 0.000854-0.012543 0.004059-0.015076 0.46545-0.36496 0.95242-0.71194 1.4343-1.0541 0.003235-0.002258 0.000824-0.012787 0.004059-0.015076 0.48529-0.34436 0.98175-0.67203 1.4827-0.99264 0.50101-0.32068 0.99625-0.62372 1.512-0.92017 0.51889-0.29846 1.0427-0.5813 1.5755-0.85468 0.52945-0.27164 1.0626-0.53583 1.6048-0.78214 2.1687-0.98514 4.4361-1.7657 6.7711-2.3232 1.1675-0.27884 2.3548-0.49902 3.5524-0.66437 1.1976-0.16531 2.403-0.27478 3.623-0.3222 0.60998-0.023743 1.2255-0.030792 1.8397-0.024231 2.4567 0.026306 4.9501 0.29553 7.4353 0.82858 0.62128 0.13327 1.238 0.28326 1.8587 0.44955z"/>
   <path id="path3400" opacity=".794" fill="url(#radialGradient3406)" d="m399.34 340.92c-39.8-10.664-80.719 12.871-91.344 52.521-10.624 39.65 13.05 80.477 52.85 91.141 39.799 10.665 80.73-12.852 91.354-52.502 10.624-39.651-13.061-80.496-52.86-91.161zm-9.6259 35.984c19.862 5.3219 31.672 25.713 26.37 45.499-5.3019 19.788-25.722 31.526-45.583 26.204-19.862-5.3219-31.672-25.713-26.37-45.5 5.3019-19.788 25.722-31.526 45.583-26.204z"/>
   <path id="path3402" opacity=".588" d="m391.86 368.84c-24.364-6.5283-49.407 7.841-55.901 32.076-6.4937 24.235 8.0058 49.216 32.37 55.744 24.364 6.5283 49.407-7.8409 55.901-32.076l0.0041-0.0154c6.4937-24.235-8.01-49.201-32.374-55.729zm-2.6642 9.9428c18.881 5.0592 30.127 24.386 25.101 43.14-5.0252 18.754-24.423 29.854-43.304 24.794-18.881-5.0592-30.127-24.386-25.101-43.14 5.0252-18.754 24.423-29.854 43.304-24.794z" filter="url(#filter3340)" fill="#696969"/>
   <path id="path3404" fill="#c0c0c0" d="m391.6 369.8c-23.762-6.3671-48.203 7.7047-54.555 31.412-6.3523 23.707 7.7739 48.129 31.536 54.496 23.762 6.3671 48.203-7.7047 54.555-31.412l0.004-0.0151c6.3524-23.707-7.7779-48.114-31.54-54.481zm-2.6061 9.7263c18.415 4.9342 29.371 23.828 24.455 42.174-4.9158 18.346-23.847 29.216-42.262 24.281-18.415-4.9343-29.371-23.828-24.455-42.174 4.9157-18.346 23.847-29.216 42.262-24.281z"/>
  </g>
  <g id="svg_2">
   <path id="path3344" opacity=".885" filter="url(#filter3390)" d="m211.65 56.286c-1.84 14.51-13.688 25.723-28.038 25.723-13.621 0-25.009-10.087-27.704-23.521-9.98 2.2514-19.605 5.4849-28.802 9.5835 5.041 13.428 0.105 29.076-12.18 36.507-11.406 6.8999-25.516 4.549-34.343-4.8543-6.1903 6.0303-11.951 12.564-17.172 19.543 10.991 8.942 14.27 25.252 7.117 38.233-6.8225 12.381-20.894 17.674-33.364 13.362-2.9884 9.625-5.1808 19.629-6.4721 29.927 14.324 1.461 25.53 14.111 25.53 29.501 0 14.496-9.9444 26.552-23.07 29.126 0.9766 4.611 2.1088 9.151 3.439 13.612 2.5676-0.70801 5.1931-1.037 7.7857-0.97601 9.5587 0.22601 18.78 5.534 23.906 14.838 6.9781 12.663 4.0226 28.489-6.3289 37.558 5.7758 7.966 12.211 15.381 19.225 22.145 5.3331-6.769 13.166-10.569 21.232-10.76 5.007-0.11801 10.084 1.165 14.735 3.979 12.897 7.801 17.708 24.646 11.368 38.484 8.769 3.804 17.923 6.822 27.393 8.958 2.695-13.434 14.083-23.521 27.704-23.521 14.35 0 26.198 11.213 28.038 25.723 8.575-1.225 16.939-3.143 25.028-5.73-4.231-13.114 0.804-27.971 12.682-35.156 4.229-2.558 8.835-3.831 13.398-3.954 9.174-0.24799 18.178 4.206 23.763 12.411 8.158-6.468 15.708-13.742 22.545-21.694-9.806-9.157-12.484-24.574-5.66-36.958 5.127-9.303 14.347-14.612 23.906-14.838 3.813-0.089996 7.686 0.634 11.368 2.227 3.304-8.571 5.952-17.497 7.881-26.699-12.302-3.221-21.422-14.891-21.422-28.775 0-14.767 10.322-27.017 23.811-29.276-1.872-15.083-5.653-29.532-11.082-43.088-13.204 6.628-29.265 1.595-36.707-11.911-6.958-12.626-4.025-28.4 6.257-37.483-6.172-6.9658-12.898-13.401-20.109-19.192-8.679 10.708-23.683 13.752-35.704 6.4807-11.298-6.8342-16.402-20.614-13.231-33.229-8.617-2.8665-17.547-4.995-26.724-6.3056zm-21.829 107.1c0.98 0 1.947 0.02301 2.914 0.074997 3.869 0.205 7.645 0.82201 11.272 1.801 0.907 0.245 1.81 0.511 2.699 0.801 1.777 0.58 3.509 1.248 5.206 2.002 0.849 0.37601 1.682 0.78101 2.508 1.201 0.41299 0.20999 0.83501 0.42999 1.242 0.64999 0.056992 0.031006 0.11 0.070007 0.16699 0.10001 0.554 0.301 1.105 0.608 1.648 0.926 0.59799 0.353 1.182 0.70401 1.767 1.076 1.561 0.995 3.081 2.06 4.538 3.203 0.547 0.42799 1.092 0.87799 1.624 1.326 0.32701 0.27599 0.658 0.543 0.979 0.82599 0.433 0.381 0.84401 0.782 1.266 1.176 0.791 0.739 1.568 1.493 2.317 2.277 0.481 0.505 0.94499 1.029 1.409 1.551 0.007004 0.009003 0.016006 0.017014 0.024002 0.025009 0.21399 0.242 0.43399 0.48 0.644 0.726 0.541 0.631 1.062 1.272 1.577 1.927 0.144 0.183 0.287 0.36499 0.429 0.55 0.429 0.558 0.856 1.128 1.266 1.702 0.511 0.717 1.001 1.435 1.481 2.177 0.67099 1.035 1.325 2.097 1.934 3.178 0.34801 0.615 0.677 1.247 1.003 1.876 0.875 1.686 1.67 3.401 2.389 5.18 0.315 0.77901 0.62401 1.556 0.907 2.352 0.029007 0.080994 0.043015 0.16899 0.072006 0.25 0.252 0.716 0.49 1.448 0.716 2.177 0.030991 0.099991 0.065002 0.2 0.095993 0.3 0.087997 0.28899 0.155 0.58499 0.239 0.87599 0.205 0.714 0.416 1.427 0.597 2.152 0.049011 0.2 0.095001 0.39999 0.143 0.59999 0.12199 0.513 0.22501 1.034 0.334 1.552 0.136 0.63899 0.267 1.28 0.383 1.927 0.006012 0.033005 0.016998 0.065994 0.02301 0.099991 0.011002 0.058014 0.013992 0.117 0.024002 0.175 0.12999 0.74701 0.256 1.496 0.35899 2.252 0.005997 0.050003 0.016998 0.098999 0.022995 0.15001 0.02301 0.16499 0.027008 0.334 0.048004 0.5 0.087997 0.69899 0.175 1.396 0.239 2.102 0.080002 0.87801 0.148 1.765 0.19101 2.653 0.047989 1.005 0.071991 2.035 0.071991 3.052 0 2.052-0.093002 4.057-0.287 6.056-0.000992 0.008011 0.001007 0.016006 0 0.025009-0.095993 0.991-0.216 1.976-0.358 2.952-0.000992 0.007996 0.001007 0.016998 0 0.024994-0.14299 0.97601-0.314 1.943-0.502 2.903-0.000992 0.008011 0.001999 0.016998 0 0.025009-0.093994 0.48-0.20099 0.951-0.31 1.426-0.105 0.477-0.218 0.954-0.33499 1.426-0.001007 0.008011 0.001999 0.018005 0 0.025009-0.231 0.94299-0.48901 1.879-0.76401 2.803-0.001999 0.008011 0.003006 0.016998 0 0.025009-0.551 1.854-1.195 3.683-1.91 5.455-0.71899 1.779-1.514 3.494-2.389 5.179-0.003006 0.007004 0.003998 0.019012 0 0.025009-0.871 1.679-1.825 3.303-2.842 4.88-0.003006 0.004974 0.003998 0.019012 0 0.024994-0.50601 0.785-1.035 1.544-1.576 2.302-0.003998 0.005005 0.003998 0.018982 0 0.024994-0.541 0.75803-1.121 1.497-1.695 2.227-0.003998 0.005005 0.003998 0.019989 0 0.024963-2.312 2.932-4.891 5.636-7.691 8.057-2.804 2.425-5.834 4.574-9.051 6.406-1.609 0.91602-3.27 1.749-4.968 2.502-1.697 0.75299-3.429 1.422-5.206 2.002-0.88899 0.289-1.792 0.556-2.699 0.80002-3.627 0.979-7.403 1.596-11.272 1.802-0.967 0.050995-1.934 0.074982-2.914 0.074982-0.979 0-1.946-0.023987-2.913-0.074982-3.869-0.20602-7.646-0.823-11.273-1.802-0.907-0.24402-1.81-0.51102-2.699-0.80002-1.777-0.57999-3.508-1.249-5.206-2.002-1.698-0.75302-3.359-1.586-4.967-2.502-0.80501-0.45898-1.585-0.95398-2.365-1.452-0.78-0.49701-1.559-1.017-2.316-1.551-0.756-0.535-1.493-1.08-2.221-1.652-1.458-1.142-2.859-2.347-4.204-3.628-0.668-0.63599-1.32-1.308-1.958-1.976-0.647-0.67703-1.272-1.344-1.887-2.052-0.003998-0.005005 0.003998-0.020996 0-0.025024-0.61099-0.70499-1.212-1.417-1.791-2.152-0.579-0.73502-1.151-1.489-1.696-2.252-0.545-0.76401-1.066-1.536-1.576-2.327-1.02-1.583-1.968-3.219-2.842-4.905-0.87399-1.685-1.67-3.4-2.388-5.179-0.003006-0.007004 0.003006-0.018005 0-0.025009-0.356-0.883-0.711-1.774-1.027-2.678-0.003006-0.007004 0.002991-0.016998 0-0.025009-0.319-0.911-0.60701-1.821-0.884-2.752-0.27-0.911-0.511-1.824-0.74-2.753-0.016998-0.06601-0.031998-0.13301-0.048004-0.20001-0.20599-0.84499-0.40199-1.718-0.573-2.577-0.042999-0.216-0.078995-0.43399-0.119-0.651-0.11499-0.60899-0.23799-1.211-0.33499-1.826-0.048004-0.30801-0.098999-0.61601-0.143-0.92601-0.003998-0.024002 0.003006-0.050995 0-0.074997-0.114-0.814-0.205-1.628-0.287-2.452-0.013992-0.142-0.033997-0.283-0.046997-0.42601-0.078003-0.84299-0.12399-1.698-0.168-2.552-0.002991-0.066986-0.020004-0.13199-0.022995-0.2-0.050003-1.013-0.072006-2.027-0.072006-3.053s0.022003-2.039 0.072006-3.052c0.046005-1.004 0.118-2.008 0.214-3.003 0.000992-0.007996 0-0.016998 0-0.024994 0.097-0.991 0.217-1.977 0.35899-2.953 0.001007-0.007996-0.001007-0.016998 0-0.024994 0.142-0.976 0.314-1.943 0.50101-2.902 0.001999-0.007996-0.001007-0.016998 0-0.024994 0.18799-0.96001 0.41399-1.911 0.64499-2.853 0.001999-0.008011-0.001999-0.016998 0-0.025009 0.23201-0.942 0.49-1.879 0.76401-2.802 0.002991-0.007996-0.001999-0.01799 0-0.024994 0.27699-0.931 0.565-1.842 0.884-2.753 0.239-0.68199 0.50299-1.356 0.76399-2.027 0.029999-0.076004 0.065994-0.149 0.096008-0.22501 0.12799-0.32599 0.24799-0.653 0.38199-0.976 0.20601-0.49699 0.42601-0.98599 0.645-1.476 0.14999-0.336 0.298-0.668 0.453-1.001 0.34399-0.73201 0.704-1.461 1.075-2.177 0.003006-0.006012-0.003006-0.018005 0-0.025009 0.437-0.843 0.88699-1.66 1.361-2.477 0.478-0.82301 0.967-1.631 1.481-2.427 0.507-0.78601 1.035-1.544 1.576-2.302 0.003998-0.005005-0.003006-0.020004 0-0.025009 0.54201-0.758 1.122-1.498 1.696-2.227 0.003998-0.005005-0.003998-0.020004 0-0.025009 0.579-0.735 1.18-1.448 1.791-2.152 1.833-2.113 3.796-4.087 5.899-5.905 2.804-2.425 5.834-4.574 9.052-6.406 1.608-0.916 3.269-1.749 4.967-2.502 1.698-0.75299 3.429-1.423 5.206-2.002 0.88899-0.28999 1.792-0.556 2.699-0.801 3.627-0.978 7.404-1.596 11.273-1.801 0.967-0.051987 1.934-0.074997 2.913-0.074997z"/>
   <path id="path2274" fill="#c0c0c0" d="m212.58 57.048c-1.919 14.443-14.276 25.605-29.242 25.605-14.205 0-26.082-10.041-28.893-23.413-10.408 2.2411-20.446 5.4599-30.038 9.5397 5.256 13.367 0.10899 28.943-12.703 36.34-11.897 6.8683-26.612 4.5282-35.818-4.8321-6.4561 6.0028-12.464 12.506-17.909 19.453 11.462 8.902 14.883 25.138 7.4225 38.059-7.1154 12.325-21.791 17.594-34.796 13.301-3.1167 9.581-5.4032 19.539-6.7499 29.79 14.938 1.455 26.626 14.047 26.626 29.366 0 14.43-10.371 26.431-24.061 28.992 1.0186 4.591 2.1994 9.11 3.5867 13.55 2.6778-0.70502 5.4161-1.032 8.12-0.97101 9.9691 0.22501 19.586 5.509 24.933 14.77 7.2778 12.606 4.1954 28.358-6.6006 37.387 6.0239 7.929 12.736 15.31 20.051 22.043 5.562-6.738 13.732-10.521 22.143-10.71 5.222-0.11798 10.517 1.159 15.368 3.96 13.451 7.766 18.469 24.533 11.856 38.308 9.146 3.787 18.693 6.79 28.569 8.917 2.811-13.372 14.688-23.413 28.893-23.413 14.966 0 27.323 11.162 29.242 25.605 8.943-1.219 17.666-3.129 26.103-5.704-4.414-13.054 0.838-27.843 13.226-34.995 4.41-2.546 9.215-3.813 13.973-3.936 9.568-0.24698 18.958 4.187 24.784 12.354 8.508-6.438 16.382-13.679 23.513-21.595-10.227-9.114-13.021-24.461-5.904-36.788 5.347-9.261 14.964-14.546 24.933-14.77 3.977-0.089996 8.016 0.63098 11.856 2.216 3.446-8.531 6.208-17.416 8.22-26.576-12.831-3.207-22.343-14.823-22.343-28.644 0-14.699 10.766-26.894 24.833-29.142-1.951-15.014-5.895-29.397-11.557-42.891-13.771 6.598-30.521 1.588-38.283-11.856-7.256-12.569-4.198-28.271 6.526-37.312-6.438-6.9339-13.452-13.34-20.972-19.104-9.052 10.659-24.7 13.69-37.237 6.4511-11.784-6.803-17.106-20.52-13.799-33.077-8.987-2.8534-18.301-4.9722-27.872-6.2768zm-22.766 106.61c1.022 0 2.03 0.022995 3.039 0.074005 4.035 0.205 7.974 0.819 11.756 1.794 0.946 0.24301 1.888 0.50801 2.815 0.797 1.854 0.57701 3.659 1.243 5.43 1.992 0.88501 0.375 1.754 0.778 2.615 1.196 0.431 0.209 0.871 0.42801 1.295 0.64801 0.059998 0.029999 0.116 0.069 0.175 0.098999 0.578 0.299 1.152 0.605 1.718 0.922 0.62399 0.34999 1.233 0.7 1.844 1.071 1.627 0.98999 3.212 2.05 4.732 3.188 0.57001 0.426 1.139 0.87399 1.694 1.32 0.341 0.27501 0.68701 0.54001 1.021 0.82201 0.452 0.37999 0.87999 0.778 1.32 1.171 0.825 0.73601 1.636 1.486 2.416 2.266 0.502 0.50301 0.98601 1.024 1.47 1.545 0.007996 0.007996 0.016998 0.016006 0.025009 0.024994 0.22299 0.24 0.452 0.477 0.672 0.722 0.564 0.62701 1.107 1.266 1.644 1.918 0.151 0.183 0.3 0.36299 0.448 0.54799 0.448 0.55501 0.893 1.122 1.32 1.693 0.53299 0.71399 1.044 1.43 1.545 2.167 0.69899 1.031 1.382 2.088 2.017 3.164 0.362 0.612 0.70599 1.241 1.046 1.868 0.912 1.678 1.742 3.385 2.491 5.156 0.329 0.77499 0.651 1.549 0.94699 2.341 0.029999 0.080994 0.044998 0.168 0.074005 0.24899 0.263 0.713 0.51199 1.441 0.748 2.167 0.031998 0.099991 0.067001 0.19899 0.098999 0.299 0.091995 0.28799 0.162 0.582 0.24899 0.87199 0.21501 0.711 0.43501 1.42 0.623 2.142 0.052002 0.198 0.10001 0.398 0.149 0.59799 0.12801 0.51 0.235 1.029 0.349 1.544 0.14101 0.636 0.278 1.274 0.399 1.918 0.005997 0.03299 0.018005 0.065994 0.024994 0.098999 0.01001 0.057999 0.014008 0.11699 0.025009 0.175 0.135 0.743 0.26599 1.489 0.373 2.241 0.007004 0.050995 0.01799 0.099991 0.024994 0.14999 0.02301 0.16501 0.028 0.33301 0.050003 0.498 0.091003 0.69501 0.18201 1.39 0.24899 2.092 0.083008 0.87401 0.15401 1.757 0.199 2.64 0.050995 1.001 0.074997 2.026 0.074997 3.039 0 2.043-0.097 4.038-0.299 6.028-0.000992 0.008011 0.001007 0.016998 0 0.025009-0.101 0.98599-0.22501 1.967-0.37399 2.939-0.001007 0.007996 0.001999 0.016998 0 0.024994-0.149 0.97101-0.32701 1.934-0.52301 2.889-0.000992 0.007996 0.001999 0.016998 0 0.024994-0.097992 0.47801-0.20999 0.94701-0.323 1.42-0.11 0.474-0.228 0.95001-0.349 1.419-0.001999 0.007996 0.001999 0.018005 0 0.024994-0.242 0.938-0.511 1.871-0.797 2.79-0.003006 0.007996 0.001999 0.016998 0 0.024994-0.576 1.846-1.246 3.666-1.993 5.43-0.74901 1.771-1.579 3.478-2.491 5.156-0.002991 0.006012 0.004013 0.018005 0 0.025009-0.909 1.671-1.903 3.288-2.964 4.857-0.003998 0.005005 0.003998 0.018997 0 0.024994-0.528 0.78101-1.079 1.537-1.644 2.291-0.004013 0.006012 0.00499 0.02002 0 0.025024-0.56401 0.755-1.169 1.491-1.768 2.217-0.003998 0.005005 0.003998 0.02002 0 0.025024-2.411 2.919-5.1 5.61-8.02 8.02-2.925 2.414-6.085 4.553-9.44 6.376-1.678 0.91199-3.41 1.742-5.181 2.491-1.771 0.74899-3.576 1.416-5.43 1.993-0.927 0.28799-1.869 0.55298-2.815 0.797-3.782 0.974-7.721 1.588-11.756 1.793-1.009 0.050995-2.017 0.074982-3.039 0.074982-1.021 0-2.03-0.023987-3.038-0.074982-4.035-0.20502-7.974-0.819-11.757-1.793-0.946-0.24402-1.888-0.509-2.814-0.797-1.854-0.578-3.66-1.243-5.43-1.993-1.771-0.74899-3.503-1.579-5.181-2.491-0.839-0.45599-1.652-0.949-2.466-1.444s-1.626-1.013-2.416-1.545c-0.78799-0.53198-1.557-1.075-2.317-1.644-1.519-1.136-2.981-2.337-4.383-3.611-0.69701-0.63303-1.377-1.302-2.043-1.968-0.674-0.67398-1.326-1.337-1.967-2.042-0.005005-0.005005 0.003998-0.021027 0-0.024994-0.638-0.702-1.265-1.411-1.868-2.142-0.60399-0.73099-1.2-1.482-1.769-2.242-0.56799-0.75998-1.112-1.528-1.644-2.316-1.064-1.575-2.052-3.204-2.964-4.882-0.91199-1.678-1.741-3.385-2.491-5.156-0.002991-0.007004 0.003006-0.018005 0-0.025009-0.371-0.879-0.741-1.766-1.071-2.665-0.001999-0.007996 0.003006-0.018005 0-0.025009-0.332-0.907-0.633-1.813-0.921-2.74-0.282-0.907-0.53299-1.815-0.77199-2.74-0.018005-0.065994-0.033005-0.133-0.050003-0.19899-0.215-0.841-0.42-1.71-0.59801-2.566-0.044998-0.214-0.082001-0.431-0.125-0.647-0.11899-0.60599-0.248-1.206-0.34799-1.818-0.05101-0.30701-0.104-0.614-0.15001-0.922-0.002991-0.024002 0.004013-0.050003 0-0.074997-0.11899-0.81001-0.213-1.62-0.299-2.441-0.013992-0.14099-0.035995-0.28099-0.048996-0.423-0.082001-0.84-0.129-1.691-0.175-2.541-0.003006-0.066986-0.020996-0.13199-0.024994-0.19899-0.05101-1.009-0.074005-2.017-0.074005-3.039 0-1.021 0.022995-2.03 0.074005-3.038 0.048996-0.99901 0.12399-1.999 0.22499-2.989 0-0.008987-0.000992-0.016998 0-0.024994 0.10001-0.987 0.22501-1.968 0.373-2.939 0.001007-0.008011-0.000992-0.016998 0-0.025009 0.149-0.972 0.328-1.934 0.52301-2.89 0.001999-0.007996-0.001007-0.016998 0-0.024002 0.196-0.95599 0.43199-1.902 0.67299-2.84 0.001999-0.007996-0.001999-0.016998 0-0.024994 0.241-0.938 0.511-1.87 0.797-2.79 0.002014-0.006989-0.002991-0.016998 0-0.024002 0.28801-0.92699 0.589-1.834 0.921-2.74 0.24901-0.68001 0.52501-1.35 0.797-2.018 0.031006-0.076004 0.069-0.148 0.10001-0.224 0.134-0.324 0.259-0.64999 0.399-0.97099 0.215-0.49501 0.444-0.98201 0.672-1.47 0.157-0.334 0.311-0.66501 0.47301-0.996 0.35799-0.729 0.73399-1.455 1.121-2.167 0.004013-0.006989-0.002991-0.018997 0-0.024994 0.45601-0.839 0.925-1.652 1.42-2.466 0.498-0.81999 1.008-1.623 1.544-2.416 0.52901-0.782 1.08-1.537 1.644-2.292 0.003998-0.005005-0.003998-0.018997 0-0.024002 0.565-0.755 1.169-1.491 1.769-2.217 0.004013-0.005005-0.003998-0.020004 0-0.025009 0.60301-0.731 1.23-1.441 1.868-2.142 1.911-2.104 3.958-4.068 6.152-5.878 2.924-2.414 6.084-4.553 9.44-6.377 1.678-0.91199 3.41-1.741 5.181-2.491 1.77-0.74899 3.576-1.415 5.43-1.992 0.92601-0.28899 1.868-0.55399 2.814-0.797 3.783-0.974 7.722-1.589 11.757-1.794 1.008-0.05101 2.017-0.074005 3.038-0.074005z"/>
   <path id="path2249" opacity=".794" fill="#a9a9a9" d="m189.8 86.464c-75.298 0-136.4 61.122-136.4 136.42s61.097 136.4 136.4 136.4c75.298 0 136.42-61.097 136.42-136.4 0-75.298-61.121-136.42-136.42-136.42zm0.025 77.189c1.021 0 2.03 0.022995 3.038 0.074005 4.035 0.205 7.974 0.819 11.757 1.794 0.946 0.24301 1.888 0.50801 2.814 0.797 1.854 0.57701 3.66 1.243 5.43 1.992 2.656 1.124 5.205 2.452 7.647 3.936 1.628 0.98999 3.213 2.05 4.733 3.188 2.279 1.705 4.441 3.57 6.451 5.579 4.018 4.021 7.452 8.614 10.187 13.65 0.912 1.678 1.741 3.385 2.491 5.156 2.627 6.205 4.224 12.956 4.583 20.025 0.050003 1.001 0.074005 2.026 0.074005 3.039 0 2.043-0.096008 4.038-0.29901 6.028 0 0.008011 0.001007 0.016998 0 0.025009-0.099991 0.98599-0.22499 1.967-0.37299 2.939-0.001007 0.007996 0.000992 0.016998 0 0.024994-0.149 0.97101-0.328 1.934-0.52301 2.889-0.001999 0.007996 0.001007 0.016998 0 0.024994-0.196 0.955-0.431 1.902-0.67299 2.839-0.002014 0.007996 0.001999 0.018005 0 0.024994-0.242 0.938-0.511 1.871-0.79701 2.79-0.001999 0.007996 0.003006 0.016998 0 0.024994-1.153 3.699-2.663 7.237-4.483 10.586-0.003998 0.006012 0.003006 0.018005 0 0.025009-0.909 1.671-1.904 3.288-2.964 4.857-0.003998 0.005005 0.003998 0.018997 0 0.024994-0.52901 0.78101-1.08 1.537-1.644 2.291-0.004013 0.006012 0.003998 0.02002 0 0.025024-0.565 0.755-1.169 1.491-1.769 2.217-0.003998 0.005005 0.005005 0.02002 0 0.025024-1.203 1.457-2.475 2.849-3.81 4.184-0.674 0.67398-1.362 1.327-2.068 1.968-0.701 0.63699-1.411 1.265-2.142 1.868-2.924 2.414-6.084 4.553-9.44 6.376-1.678 0.91199-3.41 1.742-5.181 2.491-1.77 0.74899-3.576 1.416-5.43 1.993-0.926 0.28799-1.868 0.55298-2.814 0.797-3.783 0.974-7.722 1.588-11.757 1.793-1.008 0.050995-2.017 0.074982-3.038 0.074982-1.022 0-2.03-0.023987-3.039-0.074982-4.035-0.20502-7.974-0.819-11.756-1.793-0.946-0.24402-1.888-0.509-2.815-0.797-1.854-0.578-3.659-1.243-5.43-1.993-2.656-1.124-5.205-2.451-7.647-3.935-1.627-0.98999-3.212-2.051-4.732-3.189-3.045-2.277-5.842-4.836-8.394-7.646-0.63699-0.702-1.265-1.411-1.868-2.142-2.414-2.925-4.553-6.085-6.376-9.44-0.912-1.678-1.742-3.385-2.491-5.156-0.002991-0.007004 0.003006-0.018005 0-0.025009-0.37199-0.879-0.741-1.766-1.071-2.665-0.003006-0.007996 0.001999-0.018005 0-0.025009-0.332-0.907-0.633-1.813-0.922-2.74-1.444-4.642-2.336-9.519-2.59-14.571-0.05101-1.009-0.075012-2.017-0.075012-3.039 0-2.051 0.095001-4.055 0.29901-6.052 0.099991-0.987 0.22499-1.968 0.37399-2.939 0.001007-0.008011-0.001999-0.016998 0-0.025009 0.14801-0.972 0.327-1.934 0.52301-2.89 0.000992-0.007996-0.002014-0.016998 0-0.024002 0.19499-0.95599 0.431-1.902 0.672-2.84 0.001999-0.007996-0.001999-0.016998 0-0.024994 0.24199-0.938 0.511-1.87 0.797-2.79 0.003006-0.006989-0.001999-0.016998 0-0.024002 0.289-0.92699 0.59-1.834 0.922-2.74 0.99901-2.727 2.19-5.349 3.562-7.871 0.455-0.839 0.925-1.652 1.419-2.466 0.49899-0.81999 1.008-1.623 1.545-2.416 0.528-0.782 1.079-1.537 1.644-2.292 0.003006-0.005005-0.003998-0.018997 0-0.024002 0.56401-0.755 1.169-1.491 1.768-2.217 0.003998-0.005005-0.003998-0.020004 0-0.025009 0.603-0.731 1.231-1.441 1.868-2.142 0.63701-0.701 1.273-1.373 1.943-2.043 0.674-0.674 1.362-1.326 2.067-1.967 0.701-0.638 1.411-1.265 2.142-1.868 2.925-2.414 6.085-4.553 9.44-6.377 1.678-0.91199 3.41-1.741 5.181-2.491 1.771-0.74899 3.576-1.415 5.43-1.992 0.927-0.28899 1.869-0.55399 2.815-0.797 3.782-0.974 7.721-1.589 11.756-1.794 1.009-0.05101 2.017-0.074005 3.039-0.074005z"/>
   <path id="path2252" opacity=".794" fill="url(#radialGradient2340)" d="m189.8 104.22c-65.493 0-118.64 53.168-118.64 118.66 0 65.493 53.143 118.64 118.64 118.64 65.492 0 118.66-53.143 118.66-118.64 0-65.492-53.168-118.66-118.66-118.66zm0.025 59.43c32.683 0 59.205 26.547 59.205 59.23 0 32.684-26.522 59.206-59.205 59.206-32.684 0-59.206-26.547-59.206-59.231 0-32.683 26.522-59.205 59.206-59.205z"/>
   <path id="path3318" opacity=".588" d="m189.82 150.34c-40.092 0-72.631 32.486-72.631 72.516s32.539 72.542 72.631 72.542c40.093 0 72.631-32.486 72.631-72.516v-0.026001c0-40.03-32.538-72.516-72.631-72.516zm0 16.423c31.07 0 56.287 25.141 56.287 56.119 0 30.977-25.217 56.093-56.287 56.093s-56.286-25.141-56.286-56.119c0-30.977 25.216-56.093 56.286-56.093z" filter="url(#filter3340)" fill="#696969"/>
   <path id="path3313" fill="#c0c0c0" d="m189.82 151.92c-39.102 0-70.837 31.779-70.837 70.937 0 39.159 31.735 70.962 70.837 70.962 39.103 0 70.838-31.778 70.838-70.937v-0.024994c0-39.158-31.735-70.937-70.838-70.937zm0 16.066c30.303 0 54.897 24.593 54.897 54.896s-24.594 54.872-54.897 54.872-54.896-24.594-54.896-54.897 24.593-54.871 54.896-54.871z"/>
  </g>
  <g id="svg_3">
   <path id="svg_4" opacity=".885" filter="url(#filter3390)" d="m397.79 38.258c-2.1389 5.2271-7.6951 8.2207-13.067 6.7813-5.0992-1.3663-8.3546-6.2708-8.0209-11.552-3.9614-0.16143-7.8878 0.079094-11.74 0.68512 0.54504 5.514-2.8665 10.855-8.2083 12.394-4.9599 1.4292-10.007-0.86299-12.372-5.2556-2.9201 1.6282-5.7296 3.487-8.3816 5.5662 3.2208 4.438 2.8187 10.85-1.1566 14.974-3.7915 3.9333-9.5886 4.496-13.826 1.6368-2.0807 3.29-3.9012 6.8014-5.4138 10.512 5.2163 1.982 8.1476 7.8243 6.6096 13.564-1.4488 5.4068-6.3765 8.9056-11.548 8.5488-0.095215 1.8179-0.12509 3.6248-0.072845 5.4219 1.032-0.006561 2.0478 0.13412 3.0123 0.41705 3.556 1.0431 6.4775 3.9481 7.467 7.9323 1.347 5.423-1.3411 11.029-6.1228 13.373 1.3663 3.5502 3.0346 6.9614 4.9844 10.188 2.673-1.9895 5.9853-2.6211 9.0238-1.8832 1.8863 0.45813 3.6588 1.446 5.119 2.962 4.0486 4.2034 4.1664 10.969 0.40988 15.494 2.9028 2.2984 6.0283 4.3422 9.36 6.0889 2.3515-4.7401 7.6229-7.3599 12.722-5.9936 5.3722 1.4395 8.6872 6.8102 7.926 12.406 3.3326 0.40341 6.6557 0.52705 9.9428 0.37357-0.27377-5.3157 3.0963-10.352 8.2611-11.84 1.8386-0.5298 3.6904-0.54225 5.411-0.13055 3.4593 0.82779 6.3848 3.3923 7.6559 7.0127 3.7004-1.5942 7.2541-3.5495 10.608-5.8297-2.756-4.3989-2.2178-10.418 1.5744-14.352 2.8491-2.9557 6.8317-4.0107 10.433-3.1361 1.4365 0.34891 2.814 1.0076 4.0334 1.971 2.0934-2.8651 3.9769-5.9287 5.6187-9.1672-4.2837-2.4356-6.5319-7.7029-5.1443-12.881 1.4757-5.5075 6.5643-9.0411 11.84-8.5305 0.80676-5.8131 0.83502-11.582 0.1575-17.182-5.6056 1.1475-11.115-2.3407-12.552-8.1245-1.343-5.4072 1.3314-10.996 6.0885-13.352-1.6147-3.2172-3.4895-6.2921-5.6103-9.1752-4.3193 3.1231-10.241 2.7535-14.014-1.1645-3.5467-3.6823-4.0802-9.3339-1.6324-13.721-2.9394-1.9335-6.07-3.6232-9.3748-5.0326zm-18.875 37.754c0.36664 0.098236 0.72635 0.20408 1.0833 0.32027 1.4278 0.46487 2.7801 1.0737 4.0401 1.8027 0.31503 0.1822 0.62659 0.37212 0.9303 0.56936 0.60742 0.39462 1.1888 0.81762 1.7491 1.2689 0.28018 0.22556 0.55148 0.45998 0.81879 0.69952 0.13364 0.11977 0.26944 0.2442 0.3999 0.36723 0.01825 0.017105 0.034393 0.036903 0.052582 0.054085 0.17746 0.16751 0.35284 0.33734 0.52441 0.51063 0.18869 0.19138 0.37222 0.38084 0.55411 0.57858 0.48486 0.52747 0.94736 1.0773 1.3787 1.6498 0.1618 0.21457 0.32111 0.43706 0.47543 0.65752 0.094757 0.13568 0.19232 0.26839 0.28409 0.40622 0.12396 0.18568 0.23782 0.37614 0.35632 0.56558 0.22208 0.35509 0.4379 0.71413 0.63971 1.0817 0.12988 0.23664 0.25104 0.47851 0.3725 0.71996 0.002014 0.004028 0.004425 0.00769 0.006439 0.011734 0.056122 0.11176 0.11456 0.22256 0.16888 0.33533 0.13934 0.28938 0.27026 0.58106 0.39755 0.87672 0.035706 0.083008 0.071167 0.16496 0.10593 0.24844 0.10483 0.2511 0.20773 0.50632 0.30383 0.76157 0.11957 0.31859 0.23105 0.63583 0.33676 0.96048 0.1477 0.45349 0.2865 0.91505 0.40665 1.3793 0.068512 0.2644 0.12866 0.53309 0.18796 0.80058 0.15888 0.71636 0.28525 1.4359 0.3765 2.1714 0.040009 0.32222 0.078033 0.643 0.10468 0.9683 0.002716 0.033203-0.000763 0.067268 0.001801 0.10051 0.022736 0.29244 0.038971 0.58923 0.05069 0.88381 0.001617 0.040443 0.004333 0.08107 0.005737 0.12157 0.004059 0.11656-0.000397 0.23373 0.001892 0.35059 0.005676 0.28701 0.013336 0.57387 0.008484 0.86248-0.001343 0.079445-0.004242 0.15882-0.006378 0.23836-0.005432 0.20344-0.019135 0.40809-0.029877 0.61215-0.013214 0.25183-0.028076 0.5043-0.049469 0.75694-0.001129 0.013199 0.000061 0.026527-0.001068 0.039711-0.001953 0.022636-0.006531 0.04512-0.008575 0.067734-0.026001 0.2916-0.053864 0.58348-0.090942 0.87586-0.002472 0.019501-0.00354 0.038902-0.006073 0.058395-0.00824 0.063965-0.023315 0.12747-0.032104 0.19145-0.037018 0.2693-0.074158 0.53815-0.12067 0.80788-0.057831 0.3352-0.12091 0.67302-0.19354 1.0084-0.082367 0.37977-0.17654 0.76617-0.27826 1.1458-0.20508 0.76537-0.44006 1.5037-0.71243 2.2297-0.001129 0.002991-0.001373 0.006355-0.002502 0.009323-0.13516 0.35994-0.27832 0.71557-0.42917 1.0653-0.001282 0.002899-0.001251 0.006416-0.002502 0.009323-0.15103 0.34968-0.31171 0.69315-0.47784 1.0323-0.001404 0.002823-0.001099 0.006508-0.002533 0.009331-0.08313 0.16954-0.1705 0.33442-0.25873 0.50081-0.087006 0.16718-0.17712 0.33402-0.26773 0.49841-0.001495 0.002731-0.001007 0.006607-0.002502 0.009354-0.18097 0.32811-0.37118 0.65166-0.56616 0.96857-0.001617 0.002609-0.000916 0.006714-0.002502 0.009338-0.39185 0.63625-0.81546 1.2538-1.2604 1.8428-0.44678 0.59137-0.91598 1.1513-1.4117 1.6923-0.001892 0.00206-0.00061 0.007248-0.002502 0.009323-0.49408 0.53873-1.0135 1.0488-1.5516 1.5347-0.001984 0.001785-0.000519 0.007553-0.002502 0.009338-0.26825 0.24205-0.54181 0.47208-0.82016 0.70047-0.001984 0.001663-0.000519 0.00769-0.002502 0.009354-0.2785 0.22839-0.5693 0.44606-0.85736 0.66048-0.001984 0.001495-0.000519 0.007858-0.002502 0.009354-1.1585 0.86182-2.3942 1.6115-3.6842 2.2336-1.2921 0.62311-2.6412 1.1207-4.0288 1.4812-0.69382 0.18025-1.3989 0.32446-2.1097 0.43494-0.71085 0.11043-1.4259 0.18648-2.1492 0.22434-0.36166 0.018936-0.72644 0.027649-1.0904 0.027924-1.4556 0.001068-2.9313-0.14745-4.4002-0.45885-0.36725-0.07785-0.73169-0.16605-1.0983-0.26428-0.36664-0.098221-0.72635-0.20407-1.0833-0.32028-1.4278-0.46484-2.7801-1.0737-4.0401-1.8027-0.315-0.1822-0.62659-0.37213-0.9303-0.56937-0.60742-0.39461-1.1888-0.8176-1.7491-1.2689-0.56039-0.45111-1.0989-0.92853-1.6096-1.4316-0.25534-0.25162-0.49768-0.51471-0.74011-0.77846-0.24243-0.26373-0.48209-0.53604-0.71225-0.81099-0.22928-0.27516-0.45074-0.55266-0.66647-0.83874-0.43146-0.5722-0.83563-1.1625-1.211-1.7749-0.18652-0.30429-0.36343-0.62041-0.53561-0.93373-0.17438-0.31732-0.34192-0.62848-0.50128-0.95453-0.001068-0.002136 0.00354-0.007179 0.002502-0.009323-0.15832-0.32412-0.31235-0.65016-0.45554-0.98229-0.14322-0.33198-0.28198-0.67059-0.40973-1.01-0.12772-0.33955-0.24564-0.67968-0.35754-1.0261-0.22394-0.69251-0.41498-1.3979-0.57385-2.1142-0.15888-0.71638-0.28525-1.4359-0.37646-2.1714-0.000366-0.002937 0.002869-0.006393 0.002502-0.009346-0.045197-0.36492-0.088806-0.73283-0.11688-1.1016-0.000244-0.003014 0.002716-0.006317 0.002502-0.009346-0.028198-0.37176-0.045288-0.74012-0.055756-1.1152-0.010284-0.36691-0.008972-0.73149-0.002106-1.1008 0.000488-0.026459 0.001556-0.053001 0.002136-0.079453 0.007385-0.33592 0.021118-0.68121 0.042969-1.0187 0.005524-0.084831 0.013885-0.16972 0.020325-0.25462 0.018066-0.23862 0.031952-0.4756 0.057373-0.71484 0.012756-0.1198 0.024261-0.23973 0.038879-0.35967 0.001129-0.009422 0.006348-0.018562 0.007507-0.028 0.038696-0.31506 0.086029-0.62754 0.13776-0.94334 0.008911-0.054482 0.01535-0.10895 0.024628-0.16343 0.055115-0.32252 0.12354-0.64577 0.19247-0.9687 0.005463-0.025543 0.005524-0.051491 0.011078-0.077042 0.082886-0.38289 0.17572-0.76308 0.27826-1.1458 0.10254-0.38269 0.21225-0.75836 0.33191-1.1314 0.11777-0.36951 0.24493-0.73688 0.38052-1.0983 0.001129-0.003014 0.001373-0.006317 0.002502-0.009331 0.13504-0.36001 0.27847-0.71547 0.42917-1.0653 0.001282-0.002907 0.001251-0.006409 0.002502-0.009323 0.15088-0.34972 0.31183-0.69306 0.47788-1.0323 0.001373-0.0028 0.001099-0.006523 0.002502-0.009323 0.16614-0.33914 0.34576-0.67098 0.52646-0.99923 0.001495-0.002724 0.001007-0.006622 0.002502-0.009323 0.18085-0.3282 0.37131-0.6516 0.56619-0.96859 0.001587-0.002594 0.000916-0.006752 0.002502-0.009346 0.19659-0.3195 0.3956-0.63016 0.60586-0.93792 0.15756-0.23059 0.32373-0.45544 0.48868-0.67927 0.018707-0.025398 0.039459-0.049103 0.058289-0.074425 0.080688-0.10857 0.15814-0.21869 0.24057-0.32563 0.12701-0.16473 0.25794-0.32516 0.38895-0.48594 0.089752-0.11028 0.17828-0.21936 0.2699-0.32777 0.20166-0.23852 0.40933-0.4744 0.61987-0.70414 0.001892-0.002029 0.000641-0.007294 0.002502-0.009323 0.24786-0.27046 0.49796-0.53003 0.75723-0.78737 0.26111-0.25919 0.52478-0.51118 0.79688-0.75672 0.26816-0.24211 0.5419-0.47197 0.82016-0.70047 0.001953-0.001579 0.00058-0.007767 0.002502-0.009331 0.27841-0.22848 0.56943-0.446 0.85739-0.66052 0.001892-0.001396 0.00058-0.007896 0.002472-0.009308 0.29001-0.2159 0.58652-0.42155 0.88565-0.62294 0.89743-0.6042 1.8294-1.1434 2.7986-1.6107 1.2921-0.62311 2.6412-1.1207 4.0288-1.4812 0.69382-0.18026 1.3989-0.32448 2.1098-0.43494 0.71082-0.11043 1.4259-0.18648 2.1492-0.22434 0.36166-0.018936 0.72644-0.027641 1.0904-0.027901 1.4556-0.001091 2.9313 0.14745 4.4002 0.45882 0.36722 0.077843 0.73166 0.16603 1.0983 0.26428z"/>
   <path id="svg_5" fill="#c0c0c0" d="m398.06 38.636c-2.1618 5.1944-7.9034 8.1179-13.506 6.6166-5.3182-1.425-8.7611-6.3613-8.477-11.631-4.1207-0.20825-8.2004-0.01469-12.199 0.54471 0.6322 5.5128-2.8515 10.806-8.3874 12.28-5.1401 1.3683-10.415-0.98063-12.926-5.3952-3.0169 1.5912-5.916 3.4141-8.6486 5.4589 3.4016 4.47 3.0596 10.868-1.0247 14.94-3.8955 3.8828-9.9164 4.3758-14.356 1.4702-2.1243 3.2607-3.9755 6.7456-5.5041 10.434 5.4471 2.0412 8.5644 7.9102 7.0334 13.624-1.4421 5.3821-6.5242 8.8174-11.905 8.3997-0.077423 1.8142-0.087006 3.6182-0.011353 5.4135 1.0729 0.005699 2.1308 0.15824 3.137 0.45221 3.7097 1.0839 6.7818 4.0195 7.858 8.01 1.4649 5.4315-1.2634 10.998-6.2074 13.282 1.4628 3.5615 3.2379 6.9878 5.3035 10.233 2.7557-1.955 6.1921-2.5464 9.3601-1.7734 1.9667 0.47992 3.8214 1.4875 5.3576 3.0187 4.2595 4.2456 4.4624 11.003 0.61023 15.477 3.0455 2.3297 6.3194 4.4078 9.8044 6.1917 2.3886-4.7056 7.8385-7.2591 13.157-5.8341 5.6028 1.5013 9.1134 6.9039 8.3885 12.483 3.4699 0.44241 6.9265 0.6053 10.342 0.49115-0.34781-5.3116 3.0964-10.301 8.4488-11.726 1.9055-0.50723 3.8306-0.49768 5.6245-0.066071 3.6066 0.86772 6.6789 3.4634 8.0436 7.0938 3.8286-1.548 7.5003-3.4584 10.961-5.6956-2.9177-4.4255-2.4297-10.43 1.4666-14.313 2.9272-2.9178 7.0556-3.924 10.81-3.0078 1.4978 0.36545 2.9379 1.0397 4.2171 2.0161 2.1426-2.8363 4.0646-5.8732 5.7332-9.0877-4.483-2.4831-6.883-7.7698-5.5018-12.924 1.469-5.4823 6.7179-8.9506 12.209-8.378 0.76978-5.7955 0.73065-11.556-0.040314-17.156-5.8149 1.0793-11.585-2.4695-13.147-8.2623-1.4606-5.4156 1.2538-10.965 6.1719-13.262-1.7171-3.2319-3.7029-6.3248-5.9423-9.2291-4.4539 3.0674-10.615 2.6281-14.585-1.3293-3.7314-3.7193-4.3533-9.3694-1.8603-13.721-3.0793-1.9657-6.3543-3.6902-9.8072-5.1369zm-19.177 37.477c0.38238 0.10245 0.75766 0.21242 1.1302 0.3327 1.49 0.48116 2.9034 1.1052 4.2221 1.8482 0.32974 0.18569 0.65591 0.37905 0.97406 0.57962 0.63623 0.40126 1.2457 0.83057 1.8337 1.2879 0.29404 0.22854 0.57886 0.46587 0.85962 0.70824 0.14038 0.12121 0.28302 0.24708 0.42017 0.37148 0.019196 0.017296 0.036224 0.037285 0.055328 0.054634 0.18646 0.1694 0.37088 0.34106 0.5513 0.51615 0.19852 0.19337 0.39157 0.38476 0.58301 0.58434 0.51041 0.53249 0.99783 1.0871 1.4531 1.6638 0.17075 0.21617 0.33908 0.44025 0.50214 0.66223 0.10013 0.1366 0.20312 0.27029 0.30017 0.40903 0.13113 0.1869 0.2518 0.37843 0.37723 0.56905 0.23511 0.35721 0.46374 0.71832 0.67798 1.0877 0.13785 0.23783 0.26672 0.48083 0.39584 0.72337 0.002167 0.004044 0.004669 0.007767 0.006836 0.01181 0.059662 0.11227 0.12176 0.22361 0.1796 0.33687 0.14835 0.29062 0.2879 0.58345 0.42377 0.8802 0.038116 0.083321 0.075928 0.1656 0.11307 0.24935 0.112 0.25202 0.22202 0.50809 0.32498 0.76414 0.12811 0.31957 0.24777 0.6377 0.36154 0.96314 0.15897 0.45462 0.30878 0.91717 0.43918 1.3822 0.074371 0.26482 0.14011 0.53387 0.20496 0.8017 0.17371 0.71728 0.31363 1.4372 0.41721 2.1729 0.045471 0.32222 0.088806 0.64304 0.12036 0.96817 0.003235 0.033203 0 0.067192 0.003082 0.1004 0.0271 0.29229 0.047485 0.58887 0.063202 0.88317 0.002167 0.040443 0.005463 0.081017 0.007416 0.12148 0.005615 0.11647 0.00235 0.23341 0.006165 0.35014 0.009277 0.28669 0.02066 0.57323 0.019012 0.8614-0.000458 0.079308-0.002472 0.15853-0.003784 0.23792-0.003235 0.2031-0.015045 0.4073-0.023804 0.61096-0.010742 0.25133-0.023224 0.50326-0.04245 0.75532-0.001038 0.013138 0.000427 0.026489-0.000641 0.03965-0.00177 0.02256-0.006256 0.044952-0.008087 0.067513-0.02359 0.29088-0.049072 0.58201-0.084137 0.87357-0.00235 0.01944-0.003265 0.038803-0.005646 0.058266-0.007813 0.063728-0.022736 0.12698-0.031097 0.19079-0.035309 0.26849-0.070709 0.53651-0.11588 0.80532-0.056122 0.33403-0.11771 0.67063-0.18924 1.0047-0.081146 0.37825-0.17447 0.76304-0.2757 1.1408-0.20416 0.76188-0.43973 1.4964-0.71432 2.2182-0.001099 0.002968-0.001343 0.006317-0.002472 0.009285-0.13629 0.35781-0.28085 0.71124-0.43362 1.0587-0.001251 0.002914-0.00119 0.006416-0.002472 0.009293-0.15286 0.3474-0.31583 0.68848-0.48456 1.0252-0.001404 0.002823-0.001068 0.00647-0.002502 0.009285-0.084412 0.16832-0.17334 0.33192-0.26309 0.49705-0.08847 0.16588-0.18018 0.33144-0.2724 0.49454-0.001587 0.002701-0.000977 0.006592-0.002533 0.009277-0.18426 0.32552-0.3782 0.64636-0.57715 0.96053-0.001678 0.002594-0.000885 0.006714-0.002502 0.009293-0.39987 0.63071-0.83298 1.2424-1.2887 1.8253-0.45749 0.58527-0.93866 1.1388-1.4478 1.6731-0.001923 0.002075-0.000519 0.007233-0.002472 0.009293-0.50729 0.5321-1.0413 1.0353-1.5951 1.5142-0.002014 0.001724-0.000458 0.007523-0.002472 0.009293-0.27603 0.2385-0.55774 0.46495-0.84442 0.68976-0.002075 0.001602-0.000458 0.00766-0.002502 0.009277-0.28686 0.22478-0.58667 0.43869-0.88361 0.6494-0.002075 0.001465-0.000458 0.007858-0.002472 0.009277-1.1943 0.84686-2.4702 1.5809-3.8041 2.1868-1.336 0.60687-2.7329 1.0877-4.1713 1.4312-0.7193 0.1718-1.4507 0.30743-2.1885 0.4093-0.73776 0.10184-1.4804 0.16927-2.2319 0.1985-0.37582 0.014603-0.755 0.018967-1.1334 0.014908-1.5134-0.016205-3.0495-0.18207-4.5805-0.51044-0.38278-0.082123-0.76276-0.17453-1.1451-0.27695-0.38238-0.10246-0.75766-0.21243-1.1302-0.3327-1.49-0.4812-2.9034-1.1052-4.2221-1.8482-0.32974-0.1857-0.65591-0.37907-0.97406-0.57962-0.63626-0.40128-1.2457-0.8306-1.8337-1.2879-0.58804-0.45712-1.1536-0.94029-1.6906-1.4487-0.26846-0.25429-0.52359-0.51991-0.77881-0.78616-0.25519-0.26622-0.5076-0.54102-0.75018-0.81834-0.24164-0.27747-0.47522-0.55722-0.70291-0.84547-0.45538-0.57652-0.88263-1.1708-1.2802-1.7868-0.19754-0.30606-0.38525-0.62384-0.56799-0.9388-0.18509-0.31894-0.36301-0.63168-0.53256-0.95915-0.001099-0.002121 0.003601-0.007141 0.002502-0.009285-0.16846-0.32553-0.33249-0.65296-0.48529-0.98632-0.15286-0.33324-0.30118-0.673-0.43802-1.0135-0.13684-0.34059-0.26346-0.68165-0.38394-1.0289-0.24109-0.69421-0.44809-1.4008-0.62176-2.1181-0.17371-0.71728-0.31366-1.4373-0.41724-2.1729-0.000397-0.002953 0.002899-0.006355 0.002472-0.009285-0.051331-0.36496-0.10101-0.73286-0.13461-1.1015-0.000275-0.002991 0.002777-0.006256 0.002502-0.009285-0.033722-0.37156-0.055878-0.73962-0.071228-1.1143-0.015015-0.36654-0.018005-0.73057-0.015228-1.0993 0.000183-0.026413 0.000977-0.05291 0.001251-0.0793 0.003693-0.33536 0.013855-0.68002 0.032593-1.0168 0.00473-0.084656 0.01239-0.16932 0.018097-0.25405 0.01593-0.23805 0.027557-0.47455 0.051178-0.71313 0.01178-0.11949 0.022369-0.2391 0.036133-0.35871 0.001099-0.009422 0.006378-0.018463 0.007477-0.027885 0.036499-0.31413 0.082031-0.62564 0.13202-0.94038 0.008636-0.054276 0.014648-0.10861 0.023682-0.16293 0.053497-0.32141 0.12076-0.64336 0.18866-0.96505 0.005341-0.025436 0.005096-0.051346 0.010559-0.07682 0.081635-0.38135 0.17364-0.7599 0.2757-1.1408 0.10208-0.38092 0.2117-0.75477 0.33166-1.1258 0.1181-0.36761 0.24594-0.73294 0.38263-1.0923 0.001129-0.002945 0.001343-0.006279 0.002472-0.009285 0.13614-0.35789 0.28104-0.71115 0.43362-1.0587 0.001251-0.002892 0.001221-0.006371 0.002472-0.009285 0.15271-0.34744 0.31601-0.68838 0.48459-1.0252 0.001404-0.002777 0.001068-0.006485 0.002502-0.009285 0.1687-0.33668 0.35153-0.66589 0.53552-0.99158 0.001526-0.002693 0.000946-0.006599 0.002472-0.009293 0.18414-0.32558 0.37836-0.64626 0.57721-0.9605 0.001617-0.002556 0.000854-0.006706 0.002472-0.009285 0.20062-0.31673 0.40387-0.62461 0.61884-0.92942 0.16107-0.22841 0.33118-0.45097 0.50003-0.67254 0.019165-0.025131 0.040436-0.048538 0.059692-0.073601 0.082611-0.10751 0.16186-0.21651 0.24628-0.32236 0.1301-0.16298 0.26434-0.3216 0.39865-0.48061 0.09201-0.10906 0.18277-0.21694 0.2767-0.32414 0.20688-0.23576 0.41998-0.46885 0.6362-0.69577 0.001923-0.002014 0.00058-0.007278 0.002472-0.009293 0.25452-0.26715 0.51148-0.52337 0.77795-0.77727 0.26843-0.25573 0.53961-0.50425 0.81961-0.74619 0.27591-0.23862 0.55783-0.46488 0.84442-0.6898 0.001984-0.001518 0.000519-0.007729 0.002502-0.009285 0.28677-0.22484 0.58673-0.43858 0.88361-0.64939 0.001953-0.001389 0.000519-0.007881 0.002472-0.009285 0.29898-0.21213 0.60483-0.41397 0.91345-0.61153 0.92593-0.59269 1.8886-1.12 2.8907-1.5752 1.336-0.6069 2.7328-1.0877 4.1714-1.4312 0.71924-0.17178 1.4506-0.30738 2.1884-0.40926 0.73776-0.10185 1.4804-0.1693 2.232-0.19852 0.37582-0.01458 0.755-0.018959 1.1334-0.014915 1.5135 0.016205 3.0496 0.18205 4.5805 0.51045 0.38275 0.0821 0.76273 0.1745 1.1451 0.27696z"/>
   <path id="svg_6" opacity=".794" fill="#a9a9a9" d="m386.6 47.323c-28.19-7.5534-57.171 9.1144-64.696 37.198-7.5251 28.084 9.2423 57 37.432 64.553 28.19 7.5534 57.178-9.1026 64.703-37.186 7.5251-28.084-9.2491-57.012-37.439-64.565zm-7.7047 28.792c0.38238 0.10246 0.75766 0.21242 1.1302 0.33269 1.4901 0.48116 2.9034 1.1052 4.2221 1.8482 0.32971 0.18569 0.65591 0.37906 0.97406 0.57962 0.63623 0.40126 1.2457 0.83057 1.8337 1.2879 0.88205 0.68568 1.7037 1.4364 2.4694 2.2349 0.51038 0.53249 0.9978 1.0871 1.4531 1.6638 0.6831 0.86477 1.3061 1.777 1.8576 2.7281 1.1026 1.9028 1.9289 3.9603 2.4497 6.1128 0.17368 0.71726 0.31366 1.4373 0.41724 2.1729 0.36365 2.5779 0.28665 5.2562-0.28558 7.9288-0.081116 0.37825-0.17444 0.763-0.2757 1.1409-0.20413 0.76187-0.43973 1.4964-0.71426 2.2182-0.00116 0.002968-0.001373 0.006317-0.002502 0.009285-0.13632 0.35781-0.28088 0.71124-0.43359 1.0587-0.001312 0.002914-0.001221 0.006393-0.002502 0.009293-0.15283 0.34737-0.31583 0.68848-0.48459 1.0252-0.001404 0.002823-0.001068 0.00647-0.002502 0.009285-0.16882 0.33659-0.35138 0.666-0.53549 0.99158-0.001556 0.002716-0.000977 0.006607-0.002502 0.009293-0.1843 0.32552-0.3782 0.64636-0.57718 0.96053-0.001648 0.002594-0.000854 0.006668-0.002502 0.009277-0.80133 1.264-1.7203 2.432-2.7364 3.4984-0.001953 0.00206-0.000549 0.007248-0.002502 0.009308-0.50732 0.53212-1.0413 1.0353-1.5951 1.5142-0.002014 0.00177-0.000427 0.007553-0.002472 0.009293-0.27603 0.23854-0.55774 0.465-0.84445 0.68979-0.002075 0.001617-0.000427 0.007629-0.002502 0.009293-0.28684 0.22473-0.58661 0.43868-0.88361 0.64938-0.002014 0.001434-0.000397 0.007828-0.002472 0.009293-0.59616 0.42273-1.2116 0.81436-1.8449 1.1784-0.31961 0.18387-0.64233 0.35811-0.97058 0.5265-0.32617 0.16734-0.6546 0.33012-0.98862 0.48186-1.3361 0.60689-2.7329 1.0877-4.1714 1.4312-0.7193 0.1718-1.4506 0.30742-2.1885 0.40927-0.73773 0.10185-1.4804 0.16928-2.2319 0.19852-0.37579 0.014603-0.75497 0.018982-1.1334 0.014923-1.5134-0.016205-3.0495-0.18205-4.5805-0.51047-0.38275-0.082077-0.7627-0.17448-1.1451-0.27695-0.38236-0.10243-0.75766-0.21243-1.1302-0.3327-1.49-0.48116-2.9034-1.1052-4.2221-1.8482-0.32971-0.18572-0.65591-0.37909-0.97406-0.57964-0.63623-0.40129-1.2457-0.83058-1.8337-1.2879-0.88202-0.6857-1.7037-1.4364-2.4694-2.2349-0.51041-0.5325-0.9978-1.0871-1.4531-1.6638-0.91229-1.1549-1.7035-2.39-2.3783-3.694-0.16843-0.32553-0.33246-0.65296-0.48526-0.98631-0.61145-1.333-1.0964-2.726-1.4438-4.1605-0.17368-0.71726-0.31363-1.4372-0.41724-2.1728-0.000397-0.002953 0.00293-0.006355 0.002533-0.009308-0.051361-0.36494-0.10104-0.73284-0.13464-1.1014-0.000275-0.002991 0.002777-0.006256 0.002502-0.009285-0.033722-0.3716-0.055878-0.73966-0.071198-1.1143-0.077026-1.8761 0.07666-3.7845 0.48639-5.6944 0.081635-0.38135 0.17362-0.7599 0.27573-1.1408 0.20496-0.76502 0.4408-1.5028 0.71677-2.2275 0.13614-0.3579 0.28101-0.71119 0.43356-1.0587 0.001282-0.002892 0.001221-0.006371 0.002502-0.009285 0.15271-0.34747 0.31601-0.68838 0.48456-1.0252 0.001434-0.0028 0.001099-0.006485 0.002502-0.009285 0.16873-0.33668 0.35153-0.66592 0.53555-0.99158 0.001495-0.002693 0.000946-0.006599 0.002472-0.009293 0.18414-0.32558 0.37836-0.64626 0.57721-0.9605 0.001617-0.002579 0.000824-0.006714 0.002472-0.009293 0.20059-0.31675 0.40387-0.62461 0.61884-0.92942 0.64658-0.91688 1.3543-1.7751 2.12-2.5783 0.25452-0.26716 0.51144-0.52338 0.77795-0.77728 0.26843-0.25574 0.53958-0.50425 0.81958-0.74622 0.27594-0.23859 0.55786-0.46486 0.84445-0.68977 0.001984-0.001541 0.000519-0.007729 0.002502-0.009285 0.28674-0.22484 0.58676-0.4386 0.88361-0.64939 0.001984-0.001389 0.000488-0.007874 0.002502-0.009285 0.29895-0.21215 0.6048-0.41401 0.91342-0.61153 0.30862-0.19756 0.61374-0.38425 0.93146-0.56688 0.31964-0.18387 0.64236-0.35811 0.97058-0.52653 0.32617-0.16734 0.6546-0.3301 0.98862-0.48183 1.3361-0.6069 2.7329-1.0878 4.1714-1.4312 0.7193-0.17179 1.4507-0.30743 2.1885-0.40929 0.73776-0.10184 1.4804-0.16928 2.2319-0.1985 0.37579-0.014633 0.75497-0.018967 1.1333-0.014923 1.5135 0.016205 3.0496 0.18206 4.5806 0.51045 0.38275 0.0821 0.7627 0.17451 1.1451 0.27696z"/>
   <path id="svg_7" opacity=".794" fill="url(#radialGradient3406)" d="m384.82 53.946c-24.519-6.5699-49.728 7.9291-56.273 32.356-6.5449 24.427 8.0396 49.578 32.558 56.148s49.734-7.9173 56.28-32.344c6.5449-24.427-8.0464-49.59-32.565-56.16zm-5.9301 22.168c12.236 3.2786 19.512 15.84 16.246 28.03-3.2663 12.19-15.846 19.422-28.082 16.143-12.236-3.2786-19.512-15.84-16.246-28.03 3.2663-12.19 15.846-19.422 28.082-16.143z"/>
   <path id="svg_8" opacity=".588" d="m380.22 71.148c-15.01-4.0218-30.438 4.8305-34.438 19.761-4.0005 14.93 4.9321 30.32 19.942 34.342 15.01 4.0218 30.438-4.8305 34.438-19.761l0.0025-0.0095c4.0005-14.93-4.9346-30.31-19.944-34.332zm-1.6413 6.1253c11.632 3.1168 18.56 15.023 15.464 26.577-3.0958 11.554-15.046 18.392-26.678 15.275-11.632-3.1167-18.56-15.023-15.464-26.577 3.0958-11.554 15.046-18.392 26.678-15.275z" filter="url(#filter3340)" fill="#696969"/>
   <path id="svg_9" fill="#c0c0c0" d="m380.06 71.738c-14.639-3.9225-29.696 4.7465-33.609 19.352-3.9134 14.605 4.7892 29.65 19.428 33.573 14.639 3.9225 29.696-4.7465 33.609-19.352l0.0025-0.0093c3.9134-14.605-4.7916-29.641-19.43-33.563zm-1.6055 5.9919c11.345 3.0398 18.094 14.68 15.066 25.982-3.0284 11.302-14.691 17.998-26.036 14.959-11.345-3.0398-18.094-14.68-15.066-25.982 3.0284-11.302 14.691-17.998 26.036-14.959z"/>
  </g>
 </g>
</svg>
