<?xml version="1.0" encoding="UTF-8"?>
<svg viewBox="0 0 400 400" xmlns="http://www.w3.org/2000/svg" xmlns:xlink="http://www.w3.org/1999/xlink">
 <defs>
  <filter id="at">
   <feGaussianBlur stdDeviation="2.246"/>
  </filter>
  <filter id="as">
   <feGaussianBlur stdDeviation="1.714"/>
  </filter>
  <filter id="ar">
   <feGaussianBlur stdDeviation=".952"/>
  </filter>
  <filter id="aq">
   <feGaussianBlur stdDeviation="1.36"/>
  </filter>
  <filter id="ap">
   <feGaussianBlur stdDeviation="2.026"/>
  </filter>
  <filter id="ao">
   <feGaussianBlur stdDeviation="1.013"/>
  </filter>
  <filter id="an">
   <feGaussianBlur stdDeviation="3.631"/>
  </filter>
  <filter id="au" x="-.0738" y="-.1409" width="1.1476" height="1.2817">
   <feGaussianBlur stdDeviation="6.456"/>
  </filter>
  <filter id="j" x="-.1151" y="-.424" width="1.2302" height="1.8481">
   <feGaussianBlur stdDeviation="3.357"/>
  </filter>
  <filter id="av" x="-.1251" y="-.2387" width="1.2503" height="1.4775">
   <feGaussianBlur stdDeviation="3.233"/>
  </filter>
  <linearGradient id="b">
   <stop stop-color="#fff" offset="0"/>
   <stop stop-color="#fff" stop-opacity="0" offset="1"/>
  </linearGradient>
  <linearGradient id="h">
   <stop offset="0"/>
   <stop stop-opacity="0" offset="1"/>
  </linearGradient>
  <linearGradient id="c">
   <stop stop-color="#d2b77b" offset="0"/>
   <stop stop-color="#ceb476" offset=".5"/>
   <stop stop-color="#926b32" offset="1"/>
  </linearGradient>
  <linearGradient id="a">
   <stop stop-color="#fff" offset="0"/>
   <stop stop-color="#ffef85" stop-opacity="0" offset="1"/>
  </linearGradient>
  <linearGradient id="i">
   <stop stop-color="#fefdfc" offset="0"/>
   <stop stop-color="#dba932" offset="1"/>
  </linearGradient>
  <linearGradient id="d">
   <stop stop-color="#ede2ca" offset="0"/>
   <stop stop-color="#ceb476" offset=".5"/>
   <stop stop-color="#926b32" offset="1"/>
  </linearGradient>
  <linearGradient id="ae" x1="89.285" x2="320.73" gradientUnits="userSpaceOnUse">
   <stop stop-opacity=".753" offset="0"/>
   <stop stop-color="#fff" offset="1"/>
  </linearGradient>
  <linearGradient id="ai" x1="235.79" x2="159.86" y1="204.43" y2="122" gradientUnits="userSpaceOnUse" xlink:href="#c"/>
  <linearGradient id="ah" x1="60.895" x2="61.276" y1="195.46" y2="198.83" gradientUnits="userSpaceOnUse" xlink:href="#c" spreadMethod="repeat"/>
  <linearGradient id="ag" x1="331.57" x2="331.58" y1="194.61" y2="192.09" gradientUnits="userSpaceOnUse" xlink:href="#c" spreadMethod="repeat"/>
  <linearGradient id="af" x1="323.09" x2="-20.424" y1="267.44" y2="94.901" gradientUnits="userSpaceOnUse" xlink:href="#d"/>
  <linearGradient id="am" x1="223" x2="210" y1="281.5" y2="249.5" gradientUnits="userSpaceOnUse" xlink:href="#b"/>
  <linearGradient id="al" x1="209" x2="247" y1="279.5" y2="270" gradientUnits="userSpaceOnUse" xlink:href="#b"/>
  <linearGradient id="ak" x1="212.5" x2="244" y1="284" y2="246" gradientUnits="userSpaceOnUse" xlink:href="#h"/>
  <linearGradient id="aj" x1="254.46" x2="359.59" gradientUnits="userSpaceOnUse" xlink:href="#c"/>
  <mask id="ad" maskUnits="userSpaceOnUse">
   <path d="m255 294.62-50-49.615 105-50 50 40-105 59.615z" fill="#fff"/>
  </mask>
  <mask id="ac" maskUnits="userSpaceOnUse">
   <path d="m160 300 45-55-105-50-45 45 105 60z" fill="#fff"/>
  </mask>
  <mask id="ab" maskUnits="userSpaceOnUse">
   <path d="m205 135-45 10-100 55 40-5v100l105-50 105 50.375v-100.38h35l-105-50.375-35-9.625z" fill="#fff"/>
  </mask>
  <mask id="aa" maskUnits="userSpaceOnUse">
   <path d="m100 195v96.875c0.4512 4.0533 0.7985 3.649 3.2813 5l95.361 54.492c3.782 1.9859 7.7909 2.8376 12.51 0.1392l92.285-52.405c6.3295-3.5457 6.6848-6.7851 6.5625-10v-94.102l-105 50-105-50z" fill="#fff"/>
  </mask>
  <mask id="z" maskUnits="userSpaceOnUse">
   <path transform="translate(0 652.36)" d="m100 195v96.875c0.4512 4.0533 0.7985 3.649 3.2813 5l95.361 54.492c3.782 1.9859 7.7909 2.8376 12.51 0.1392l92.285-52.405c6.3295-3.5457 6.6848-6.7851 6.5625-10v-94.102l-105 50-105-50z" fill="#fff"/>
  </mask>
  <mask id="g" maskUnits="userSpaceOnUse">
   <path d="m204 250 3 37 66-19-69-18z" fill="url(#al)" filter="url(#j)"/>
  </mask>
  <radialGradient id="m" cx="202" cy="247.5" r="97.5" gradientUnits="userSpaceOnUse">
   <stop stop-color="#fff" offset="0"/>
   <stop stop-color="#ffcf10" offset=".5"/>
   <stop stop-color="#ff8f07" stop-opacity=".024" offset="1"/>
  </radialGradient>
  <radialGradient id="y" cx="195.54" cy="293.53" r="55" gradientTransform="matrix(1.7068 0 0 2.4826 -97.917 -422.2)" gradientUnits="userSpaceOnUse" xlink:href="#d"/>
  <radialGradient id="f" cx="207.26" cy="183.8" r="105" gradientTransform="matrix(1.9184 0 0 1.0049 -190.59 -2.7828)" gradientUnits="userSpaceOnUse" xlink:href="#i"/>
  <radialGradient id="x" cx="148.11" cy="254.41" r="75" gradientTransform="matrix(1.7546 .47016 -.32911 1.2282 -16.649 -117.61)" gradientUnits="userSpaceOnUse" xlink:href="#d"/>
  <radialGradient id="w" cx="251" cy="198.91" r="77.5" gradientTransform="matrix(1 0 0 .64268 0 87.475)" gradientUnits="userSpaceOnUse" xlink:href="#a"/>
  <radialGradient id="v" cx="138.82" cy="224.37" r="75" gradientTransform="matrix(1.0343 .27715 -.194 .72403 58.948 20.574)" gradientUnits="userSpaceOnUse" xlink:href="#a"/>
  <radialGradient id="u" cx="152.5" cy="220" r="52.5" gradientTransform="matrix(2.0585 0 0 1.5293 -161.42 -116.44)" gradientUnits="userSpaceOnUse" xlink:href="#a"/>
  <radialGradient id="t" cx="116.36" cy="160.08" r="75" gradientTransform="matrix(.62936 -.36336 .02459 .04259 71.079 204.19)" gradientUnits="userSpaceOnUse" xlink:href="#a"/>
  <radialGradient id="s" cx="116.36" cy="160.08" r="75" gradientTransform="matrix(.61773 -.3828 .09216 .14872 61.616 189.46)" gradientUnits="userSpaceOnUse" xlink:href="#b"/>
  <radialGradient id="r" cx="152.5" cy="165" r="52.5" gradientTransform="matrix(1 0 0 .57143 0 70.714)" gradientUnits="userSpaceOnUse" xlink:href="#b"/>
  <radialGradient id="q" cx="259.51" cy="112.05" r="77.5" gradientTransform="matrix(.67018 .30379 -.02864 .06317 89.777 80.791)" gradientUnits="userSpaceOnUse" xlink:href="#a"/>
  <radialGradient id="p" cx="257.5" cy="165" r="54.5" gradientTransform="matrix(1 0 0 .58716 0 68.119)" gradientUnits="userSpaceOnUse" xlink:href="#b"/>
  <radialGradient id="o" cx="200" cy="292" r="219" gradientTransform="matrix(1 0 0 .39269 0 177.33)" gradientUnits="userSpaceOnUse" xlink:href="#h"/>
  <radialGradient id="n" cx="202" cy="228" r="232.12" gradientUnits="userSpaceOnUse" xlink:href="#a"/>
  <radialGradient id="l" cx="257.5" cy="220" r="55.132" gradientTransform="matrix(1.9368 0 0 1.4626 -241.23 -101.78)" gradientUnits="userSpaceOnUse" xlink:href="#a"/>
  <radialGradient id="k" cx="177.48" cy="292.05" r="55" gradientTransform="matrix(1.7068 0 0 2.4826 -97.917 -422.2)" gradientUnits="userSpaceOnUse" xlink:href="#i"/>
  <radialGradient id="e" cx="303.73" cy="282.97" r="13.108" gradientTransform="matrix(2.6944 -1.6238 .54787 .9091 -669.67 518.92)" gradientUnits="userSpaceOnUse" xlink:href="#b"/>
 </defs>
 <path d="m400 200c0 110.46-89.543 200-200 200s-200-89.543-200-200 89.543-200 200-200 200 89.543 200 200z" fill="#767676"/>
 <path transform="matrix(.84475 0 0 .84475 16.05 37.333)" d="m419 292c0 47.496-98.05 86-219 86s-219-38.504-219-86 98.05-86 219-86 219 38.504 219 86z" fill="url(#o)" opacity=".701"/>
 <path transform="translate(0,-10)" d="m205 135-105 60 102.53-51.523 2.8902 37.502 3.1428 13.006-4.6859 16.794 1.1225 34.22 0.6174-33.368 6.4258-15.943-1.4029-12.155-1.1504-36.651 100.51 48.117-105-60z" fill="url(#f)" filter="url(#at)"/>
 <path transform="translate(-1.0714,-7.1429)" d="m160 145 45-10-105 60-37.429 4.3929-1.5-2.25 98.929-52.143z" fill="url(#ah)"/>
 <path transform="translate(-1.0714,-7.1429)" d="m240 144.62-35-9.6154 105 60h35l1.0714-2.8571-106.07-47.528z" fill="url(#ag)"/>
 <path transform="translate(0,-10)" d="m205 135-45 10-100 55 40-5 0.7071 99.204 104.29-49.204 104.03 48.607 0.9723-98.607h35l-105-50.375-35-9.625z" fill="url(#ai)"/>
 <path transform="translate(0,-10)" d="m310 195-105-60" fill="none" filter="url(#ao)" stroke="url(#p)" stroke-width="4"/>
 <path transform="translate(0,-10)" d="m240 144.62-35-9.625 0.4207 45.98 80.36 27.378 24.22-13.357h35l-105-50.375z" fill="url(#q)"/>
 <path transform="translate(0,-10)" d="m100 195 105-60" fill="url(#s)" filter="url(#ap)" stroke="url(#r)" stroke-width="4"/>
 <path transform="translate(0,-10)" d="m60 200 40-5 30.834 11.796 67.917-36.465 6.2492-35.331-45 10-100 55z" fill="url(#t)"/>
 <path transform="translate(-3,-8.0503)" d="m284.01 87.475-65.18 113.83 82.339-117.89-80.321 119.27 103.25-126.71-101.34 128.25 98.153-102.34-96.372 104.02 107.31-95.724-105.66 97.536 141.27-108.33-139.77 110.27 142.73-91.428-113.1 75.795 122.25-63.447-149.35 83.268 161.82-69.703-160.8 71.931 159.58-57.223-187.57 72.842-190.4-78.478 160.45 61.735-150.58-73.406 139.65 64.855-133.08-81.002 125.86 71.129-138.19-102.99 143.15 102.42-133.41-113.16 151.95 124.02-144.23-143.28 145.94 141.53-93.625-109.14 82.741 91.271-89.835-117.48 104.53 132.29-107.46-162.6 109.53 161.3-96.337-175.17 87.896 152.82-58.658-141.71 71.512 161.95-52.464-149.17 54.78 148.38-33.269-135.31 35.639 134.7-31.542-171.52 33.953 171.09-14.117-171.52 15.139 140.17-0.8578-122.58 4.7189 153.64 9.5824-143.48-7.1392 143.62 24.915-168.47-18.247 146.17 38.001-147.35-39.852 170.49 50.191-156.49-47.846 157.2 52.933-133.7-50.649 134.58 85.762-172.33-71.533 150.05 55.278-89.268z" fill="url(#n)"/>
 <path transform="translate(3,-33.5)" d="m299.5 247.5c0 53.848-43.652 97.5-97.5 97.5s-97.5-43.652-97.5-97.5 43.652-97.5 97.5-97.5 97.5 43.652 97.5 97.5z" fill="url(#m)"/>
 <path transform="translate(0,-10)" d="m100 195v96.875c0.4512 4.0533 0.7985 3.649 3.2813 5l95.361 54.492c3.782 1.9859 7.7909 2.8376 12.51 0.1392l92.285-52.405c6.3295-3.5457 6.6848-6.7851 6.5625-10v-94.102l-105 50-105-50z" fill="url(#y)"/>
 <path transform="matrix(-1 0 0 -1 414 521.5)" d="m236.5 237.5-25.5 49 62-18.5-36.5-30.5z" fill="url(#ak)" filter="url(#av)" mask="url(#g)"/>
 <path transform="translate(37.629 -31.82)" d="m304 261.34c6.9351 14.997 15.638 21.145 10.964 35.08l-14.622 7.1492-0.3716 0.6492 15.757-7.4516c4.6459-18.236-6.502-23.837-10.253-35.355l-0.0992-1.6967-1.3751 1.625z" fill="#fff" opacity=".203"/>
 <path transform="translate(37.629 -31.82)" d="m290.62 266.71c10.685 12.997 16.888 25.77 8.8388 37.83l16.264-7.7782c4.6459-18.236-6.502-23.837-10.253-35.355l-14.849 5.3033z" fill="#fff" opacity=".203"/>
 <path transform="translate(37.629 -31.82)" d="m290.62 266.71c10.685 12.997 16.888 25.77 8.8388 37.83l16.264-7.7782c4.6459-18.236-6.502-23.837-10.253-35.355l-14.849 5.3033z" fill="url(#e)"/>
 <g transform="translate(0 -662.36)" mask="url(#z)">
  <path transform="translate(0 652.36)" d="m203.57 351.29 1.0714 9.4286 105.36-65.339-101.54 50.73-3.8141-33.873 6.6428-18.054-4.8571-16.411-1.4286-32.768-0.7143 32.857 3.2143 17.5-6.7857 16.429 2.8571 39.5z" fill="url(#k)" filter="url(#as)"/>
 </g>
 <path d="m204 250 3 37 66-19-69-18z" fill="url(#am)" filter="url(#j)" mask="url(#g)"/>
 <path transform="translate(0,-10)" d="m98 195v97.094c0.2326 2.09 0.3977 3.3726 1.3125 4.5313 0.9075 1.1494 1.847 1.3943 2.9688 2 9e-3 5e-3 0.0222-5e-3 0.0312 0l101.69 58.125 1 0.5625 1-0.5625 98.406-55.906 0.0312-0.0312c3.3512-1.8844 5.3787-3.8201 6.4688-5.9063 1.0825-2.0717 1.1551-4.117 1.0938-5.8125-7e-4 -0.0192 7e-4 -0.0434 0-0.0625v-94.031h-4v94.188c0.0574 1.5084 0.01 2.6603-0.625 3.875-0.6347 1.2147-1.9541 2.6275-4.9063 4.2813v0.0312h-0.0312l-97.438 58.813-100.72-61.062h-0.0312c-1.3493-0.7342-1.8202-0.9785-1.8125-0.9688s-0.219-0.5367-0.4375-2.5l-1e-4 -96.656h-4z" fill="url(#ae)" filter="url(#an)" mask="url(#aa)"/>
 <g opacity=".701">
  <path transform="matrix(.13052 .07477 0 .19911 219.8 263.13)" d="m-375 260c-33.137 0-60 26.863-60 60 0-8.2843 6.7157-15 15-15s15 6.7157 15 15c0-8.2843 6.7157-15 15-15 3.8234 0 7.2883 1.4575 9.9375 3.8125v65.938h0.0625c0 8.2843-6.7157 15-15 15s-15-6.7157-15-15h-10c0 13.807 11.193 25 25 25s25-11.193 25-25v-65.875c2.6571-2.3901 6.1448-3.875 10-3.875 8.2843 0 15 6.7157 15 15 0-8.2843 6.7157-15 15-15s15 6.7157 15 15c0-33.137-26.863-60-60-60z"/>
  <path transform="matrix(.13052 .07477 0 .13274 220.46 290.05)" d="m-310 385h95v15h-95z"/>
  <path transform="matrix(.13052 .07477 0 .19911 219.8 263.13)" d="m-285 260-20 40h15v80h10v-80h15l-20-40z"/>
  <path transform="matrix(.13052 .07477 0 .19911 226.98 267.24)" d="m-285 260-20 40h15v80h10v-80h15l-20-40z"/>
  <path transform="matrix(.13052 .07477 0 .19911 219.8 263.13)" d="m-740 260v16.625l7.2188-16.625h-7.2188zm18.125 0-13 30h41.469l6.5938-15.125-4.0313-14.875h-31.031zm52.469 0-2.9375 6.7188 15.812 23.281h2.625l2.4063-30h-17.906zm27.938 0-2.4688 30h18.062l-6.75-30h-8.8438zm19.094 0 6.75 30h11.375l8.1875-30h-26.312zm36.625 0-3.5625 13.094 6.7813-11-0.125-2.0938h-3.0938zm16.219 0-0.625 1.0313 0.8438-1.0313h-0.2188zm13.094 0c-0.2833 0.3435-0.5275 0.6542-0.8125 1-4.2338 5.1361-9.6977 11.955-14.281 17.562l0.1875 3.5 25.625-22.062h-10.719zm26.031 0-34.844 30h48.375l8.25-20.969c-0.1052-2.848-0.1845-5.9693-0.2813-9.0313h-21.5zm36.094 0-4.25 10.781c0.2231 6.1867 0.4244 12.656 0.625 19.219h37.938v-30h-34.312zm-180.59 20.688 2.5 9.3125h3.8125l-6.3125-9.3125zm31.875 29.312 14.469 21.344 4.5-3.875c1.6916-2.1038 3.4801-4.3556 5.1563-6.4375l-2.4688-11.031h-21.656zm54.531 0-14.219 12.25-3.0938 11.375 1.4375 6.375h26.406l-1.75-30h-8.7813zm18.812 0 1.7813 30h31.312l11.812-30h-44.906zm55.688 0-11.812 30h19.125c-0.201-10.186-0.4414-20.224-0.6875-30h-6.625zm16.625 0c0.2521 9.7769 0.4855 19.73 0.6875 30h36.688v-30h-37.375zm-149.19 12.562-1.4063 17.438h9.375l2.4375-2.0938-10.406-15.344zm29.344 14.938-1.5313 2.5h0.8438l0.6875-2.5zm-202.78 32.5v30h26.531l13-30h-39.531zm50.438 0-13 30h41.188l13.094-30h-41.281zm52.219 0-13.094 30h9.25l8.25-30h-4.4063zm14.75 0-8.25 30h2.5625l34.844-30h-29.156zm65.375 0-9.4063 15.312 3.9688 14.688h8.375l8.2188-30h-11.156zm21.469 0-8.1875 30h22.812l-3.5-15.531-9.8125-14.469h-1.3125zm18.125 0 2.3438 10.438 13.25 19.562h7.5938l-1.7813-30h-21.406zm31.469 0 1.7813 30h4.1563l11.812-30h-17.75zm28.5 0-11.812 30h43.688c-0.1123-9.7187-0.2556-19.688-0.4063-30h-31.469zm41.469 0c0.1468 10.098 0.2626 20.106 0.375 30h35.812v-30h-36.188zm-164.38 2.0625-32.438 27.938h10.938c4.6546-5.8647 9.4119-11.861 14.406-18.125 2.3685-2.9707 4.6312-5.7511 7-8.7188l0.0937-1.0938zm-1.5313 18.906c-2.4664 3.0946-4.7781 6.0034-7.1875 9.0313h1.875l5.25-8.5313 0.0625-0.5z"/>
 </g>
 <path transform="translate(-1.0714,-7.1429)" d="m160 300 45-55-105-50-45 45 105 60z" fill="#726038"/>
 <path transform="translate(0,-10)" d="m205 135-105 60 102.53-51.523 2.8902 37.502 3.1428 13.006-4.6859 16.794 1.1225 34.22 0.6174-33.368 6.4258-15.943-1.4029-12.155-1.1504-36.651 100.51 48.117-105-60z" fill="url(#f)" filter="url(#au)" mask="url(#ab)"/>
 <path transform="translate(-26.541 6.364)" d="m304 261.34c6.9351 14.997 15.638 21.145 10.964 35.08l-14.622 7.1492-0.3716 0.6492 15.757-7.4516c4.6459-18.236-6.502-23.837-10.253-35.355l-0.0992-1.6967-1.3751 1.625z" fill="#fff" opacity=".203"/>
 <path transform="translate(-26.541 6.364)" d="m290.62 266.71c10.685 12.997 16.888 25.77 8.8388 37.83l16.264-7.7782c4.6459-18.236-6.502-23.837-10.253-35.355l-14.849 5.3033z" fill="#fff" opacity=".203"/>
 <path transform="translate(-26.541 6.364)" d="m290.62 266.71c10.685 12.997 16.888 25.77 8.8388 37.83l16.264-7.7782c4.6459-18.236-6.502-23.837-10.253-35.355l-14.849 5.3033z" fill="url(#e)"/>
 <path transform="translate(-1.0714,-7.1429)" d="m255 294.62-50-49.615 1.0714-2.8571 103.93-47.143 50 40-105 59.615z" fill="#a38a50"/>
 <path transform="translate(0,-10)" d="m160 300 45-55-105-50-46.25 45.25 106.25 59.75z" fill="url(#x)"/>
 <path transform="translate(0,-10)" d="m255.5393,296.558c-.8884.5044-1.3115.1223-.9422-.8548l.5373-.3037c-.2459.6508.0354.9059.6271.5705 .5905-.3347 1.2667-1.1311 1.5116-1.7793 .3673-.9723 1.3785-2.1619 2.2561-2.6557 .8748-.4922 1.2859-.1066.9208.86-.2434.6444.0307.8996.611.5706s1.2441-1.1143 1.4865-1.7562c.3636-.9628 1.3581-2.1371 2.2189-2.6214s1.2586-.0971.8972.8601c-.2409.6382.0261.8934.5954.5707s1.2222-1.098 1.4622-1.7337c.3599-.9535 1.3382-2.1128 2.1826-2.5879 .8418-.4737 1.2322-.0881.8744.86-.2385.6321.0217.8873.5802.5707s1.2009-1.0821 1.4385-1.7117c.3564-.9444 1.3188-2.089 2.1473-2.5552 .826-.4648 1.2065-.0793.8522.8597-.2362.626.0175.8812.5655.5705s1.1802-1.0665 1.4154-1.6902c.3529-.9355 1.2999-2.0657 2.113-2.5232s1.1815-.0708.8307.8593c-.2339.6201.0134.8752.5513.5703s1.16-1.0514 1.3929-1.6692c.3494-.9267 1.2815-2.0429 2.0796-2.492s1.1572-.0627.8098.8588c-.2316.6144.009.8693.5375.57s1.1404-1.0367 1.3711-1.6487c.3461-.9181 1.2635-2.0206 2.047-2.4615s1.1337-.0548.7896.8582c-.2294.6087.006.8634.5241.5696s1.1212-1.0223 1.3498-1.6287c.3428-.9096 1.2459-1.9988 2.0152-2.4317s1.1108-.0472.77.8574c-.2272.6031.002.8577.5111.5691s1.1026-1.0082 1.329-1.6091c.3395-.9013 1.2288-1.9774 1.9843-2.4026 .7532-.4238 1.0885-.0399.7509.8565-.2251.5976-.002.8519.4984.5685s1.0845-.9945 1.3087-1.59c.3363-.8931 1.2121-1.9565 1.9542-2.3741s1.0669-.0328.7324.8555c-.223.5923-.005.8463.4862.5679s1.0668-.9811 1.289-1.5713c.3332-.8851 1.1958-1.936 1.9248-2.3462s1.0458-.026.7145.8545c-.2209.587-.008.8407.4742.5672s1.0496-.9681 1.2697-1.5529c.3301-.8773 1.1799-1.916 1.8961-2.319 .7141-.4018 1.0253-.0193.697.8533-.2189.5818-.0114.8352.4627.5664s1.0329-.9553 1.251-1.535c.3271-.8696 1.1643-1.8963 1.8681-2.2923 .7017-.3949 1.0054-.013.68.852-.2169.5767-.0145.8297.4514.5656s1.0165-.9428 1.2326-1.5175c.3242-.862 1.1491-1.877 1.8408-2.2662s.986-.007.6636.8507c-.215.5717-.0174.8243.4405.5647s1.0006-.9306 1.2148-1.5003c.3213-.8545 1.1343-1.8581 1.8142-2.2407s.9671-.0009.6475.8492c-.2131.5667-.0202.819.4299.5638 .4493-.2547.985-.9187 1.1973-1.4835 .3184-.8472 1.1198-1.8396 1.7882-2.2157s.9487.005.632.8477c-.2112.5619-.023.8137.4196.5628s.9698-.9071 1.1803-1.4671c.3156-.84 1.1056-1.8214 1.7628-2.1912s.9308.0105.6168.8461c-.2093.5572-.0257.8085.4095.5618 .4344-.2463.955-.8957 1.1636-1.451 .3129-.8329 1.0917-1.8036 1.738-2.1672 .6445-.3626.9134.0158.6021.8445-.2075.5525-.0282.8034.3998.5607s.9406-.8846 1.1474-1.4352c.3102-.8259 1.0782-1.7861 1.7138-2.1437 .6339-.3567.8963.021.5878.8428-.2057.5479-.0307.7983.3903.5596s.9265-.8737 1.1315-1.4198c.3075-.8191 1.0649-1.7689 1.6901-2.1207 .6236-.3509.8798.026.5738.8411-.204.5434-.0331.7932.381.5585s.9127-.863 1.116-1.4046c.3049-.8123 1.0519-1.7521 1.667-2.0982 .6135-.3452.8636.0309.5603.8393-.2023.5389-.0354.7883.372.5573s.8993-.8526 1.1008-1.3898c.3023-.8057 1.0392-1.7355 1.6444-2.0761 .6036-.3396.8479.0356.5471.8374-.2006.5345-.0376.7833.3633.5561s.8861-.8424 1.086-1.3752c.2998-.7992 1.0268-1.7193 1.6224-2.0544 .594-.3342.8325.0402.5342.8355-.1989.5302-.0398.7785.3547.5548s.8733-.8325 1.0715-1.361c.2973-.7927 1.0146-1.7034 1.6008-2.0332 .5846-.329.8175.0446.5217.8335l-.3523.1991c.1974-.5264.0417-.7752-.3483-.5554s-.8686.8271-1.0666,1.3552c-.2971.7922-1.0157,1.7056-1.6064,2.041s-.8315-.0358-.533-.8318c.199-.5306.0396-.78-.3567-.5567s-.8813.837-1.081,1.3693c-.2996.7986-1.0279,1.7216-1.6281,2.0624s-.8469-.0312-.5458-.8336c.2007-.535.0375-.7849-.3653-.5579s-.8943.847-1.0957,1.3838c-.3021.8051-1.0403,1.7378-1.6504,2.0842s-.8626-.0264-.5589-.8354c.2024-.5393.0352-.7898-.3741-.5592s-.9076.8574-1.1107,1.3985c-.3047.8117-1.0531,1.7544-1.6731,2.1064s-.8787-.0215-.5724-.8372c.2041-.5438.0329-.7948-.3832-.5604s-.9213.8679-1.1262,1.4135c-.3073.8184-1.0661,1.7713-1.6963,2.1291s-.8952-.0164-.5863-.8389c.2059-.5483.0305-.7999-.3925-.5615s-.9353.8787-1.1419,1.4288c-.3099.8253-1.0793,1.7885-1.7201,2.1523s-.9122-.0111-.6006-.8406c.2077-.5529.028-.805-.402-.5627s-.9496.8897-1.158,1.4445c-.3126.8322-1.0929,1.806-1.7445,2.176s-.9295-.006-.6153-.8421c.2095-.5576.0254-.8102-.4119-.5637s-.9643.9009-1.1745,1.4604c-.3154.8393-1.1068,1.8239-1.7694,2.2001s-.9474-7e-005-.6304-.8437c.2114-.5624.0228-.8154-.422-.5648-.4456.2511-.9793.9124-1.1914,1.4768-.3182.8465-1.121,1.8421-1.7949,2.2248-.6758.3837-.9658.006-.6459-.8451 .2132-.5672.02-.8207-.4324-.5658-.4532.2554-.9948.9242-1.2088,1.4934-.321.8538-1.1356,1.8607-1.8211,2.2499s-.9846.0118-.6618-.8465c.2152-.5722.0171-.8261-.4431-.5667s-1.0106.9363-1.2265,1.5104c-.3239.8613-1.1504,1.8797-1.8479,2.2757s-1.0039.018-.6783-.8478c.2171-.5772.0142-.8315-.4541-.5676s-1.0268.9486-1.2447,1.5278c-.3269.8688-1.1657,1.899-1.8753,2.3019s-1.0238.0244-.6951-.849c.2191-.5823.0111-.837-.4654-.5684s-1.0434.9612-1.2633,1.5456c-.3299.8766-1.1812,1.9187-1.9035,2.3288s-1.0442.0311-.7125-.8501c.2211-.5875.008-.8425-.4771-.5692s-1.0605.9741-1.2824,1.5637c-.3329.8844-1.1972,1.9389-1.9323,2.3562s-1.0652.038-.7304-.8511c.2232-.5928.005-.8481-.4891-.5699s-1.078.9874-1.302,1.5823c-.336.8924-1.2135,1.9594-1.9619,2.3843-.7506.4262-1.0868.0452-.7488-.8521 .2253-.5981.001-.8538-.5014-.5706s-1.0959,1.0009-1.322,1.6013c-.3392.9005-1.2303,1.9804-1.9923,2.413s-1.109.0526-.7678-.8529c.2274-.6036-.002-.8596-.5142-.5711s-1.1144,1.0148-1.3426,1.6207c-.3424.9088-1.2474,2.0018-2.0234,2.4423s-1.1318.0602-.7874-.8536c.2296-.6092-.006-.8654-.5273-.5716s-1.1333,1.0291-1.3638,1.6405c-.3458.9173-1.265,2.0237-2.0553,2.4724s-1.1553.0682-.8075-.8542c.2318-.6149-.01-.8713-.5408-.5721s-1.1528,1.0436-1.3855,1.6608c-.3491.9259-1.283,2.046-2.0881,2.5031s-1.1794.0764-.8283-.8547c.2341-.6207-.0138-.8772-.5547-.5724-.542.3055-1.1727,1.0586-1.4078,1.6817-.3525.9346-1.3015,2.0688-2.1218,2.5346s-1.2043.0849-.8497-.855c.2364-.6266-.0179-.8832-.5691-.5726s-1.1933,1.0739-1.4306,1.7029c-.356.9436-1.3204,2.0922-2.1563,2.5668-.8386.4761-1.2299.0938-.8718-.8552 .2388-.6326-.0222-.8893-.5839-.5728s-1.2144,1.0897-1.4541,1.7247c-.3596.9527-1.3398,2.116-2.1918,2.5997-.8547.4853-1.2563.103-.8945-.8552 .2412-.6388-.0266-.8955-.5991-.5728s-1.2361,1.1058-1.4782,1.7471c-.3632.9619-1.3598,2.1404-2.2283,2.6335s-1.2835.1125-.918-.8551c.2436-.645-.0312-.9018-.6149-.5728s-1.2584,1.1224-1.503,1.7699c-.367.9714-1.3802,2.1653-2.2658,2.6681" fill="#decca2"/>
 <path transform="translate(0,-10)" d="m255 294.62-50-49.615 105-50 50 40-105 59.615z" fill="url(#af)"/>
 <path transform="translate(0,-10)" d="m255 294.62-50-49.615 105-50 50 40-105 59.615z" fill="url(#w)"/>
 <path transform="translate(0,-10)" d="m160 300 45-55-105-50-45 45 105 60z" fill="url(#v)"/>
 <path transform="translate(0,-10)" d="m205 245 105-50-105 50z" fill="none" filter="url(#ar)" mask="url(#ad)" stroke="url(#l)" stroke-linecap="round" stroke-width="3"/>
 <path transform="translate(0,-10)" d="m205 245-105-50 105 50z" fill="none" filter="url(#aq)" mask="url(#ac)" stroke="url(#u)" stroke-width="4"/>
 <path transform="matrix(-1 .00476 0 1 413.59 -6.2605)" d="m255.5393,296.558c-.8884.5044-1.3115.1223-.9422-.8548l.5373-.3037c-.2459.6508.0354.9059.6271.5705 .5905-.3347 1.2667-1.1311 1.5116-1.7793 .3673-.9723 1.3785-2.1619 2.2561-2.6557 .8748-.4922 1.2859-.1066.9208.86-.2434.6444.0307.8996.611.5706s1.2441-1.1143 1.4865-1.7562c.3636-.9628 1.3581-2.1371 2.2189-2.6214s1.2586-.0971.8972.8601c-.2409.6382.0261.8934.5954.5707s1.2222-1.098 1.4622-1.7337c.3599-.9535 1.3382-2.1128 2.1826-2.5879 .8418-.4737 1.2322-.0881.8744.86-.2385.6321.0217.8873.5802.5707s1.2009-1.0821 1.4385-1.7117c.3564-.9444 1.3188-2.089 2.1473-2.5552 .826-.4648 1.2065-.0793.8522.8597-.2362.626.0175.8812.5655.5705s1.1802-1.0665 1.4154-1.6902c.3529-.9355 1.2999-2.0657 2.113-2.5232s1.1815-.0708.8307.8593c-.2339.6201.0134.8752.5513.5703s1.16-1.0514 1.3929-1.6692c.3494-.9267 1.2815-2.0429 2.0796-2.492s1.1572-.0627.8098.8588c-.2316.6144.009.8693.5375.57s1.1404-1.0367 1.3711-1.6487c.3461-.9181 1.2635-2.0206 2.047-2.4615s1.1337-.0548.7896.8582c-.2294.6087.006.8634.5241.5696s1.1212-1.0223 1.3498-1.6287c.3428-.9096 1.2459-1.9988 2.0152-2.4317s1.1108-.0472.77.8574c-.2272.6031.002.8577.5111.5691s1.1026-1.0082 1.329-1.6091c.3395-.9013 1.2288-1.9774 1.9843-2.4026 .7532-.4238 1.0885-.0399.7509.8565-.2251.5976-.002.8519.4984.5685s1.0845-.9945 1.3087-1.59c.3363-.8931 1.2121-1.9565 1.9542-2.3741s1.0669-.0328.7324.8555c-.223.5923-.005.8463.4862.5679s1.0668-.9811 1.289-1.5713c.3332-.8851 1.1958-1.936 1.9248-2.3462s1.0458-.026.7145.8545c-.2209.587-.008.8407.4742.5672s1.0496-.9681 1.2697-1.5529c.3301-.8773 1.1799-1.916 1.8961-2.319 .7141-.4018 1.0253-.0193.697.8533-.2189.5818-.0114.8352.4627.5664s1.0329-.9553 1.251-1.535c.3271-.8696 1.1643-1.8963 1.8681-2.2923 .7017-.3949 1.0054-.013.68.852-.2169.5767-.0145.8297.4514.5656s1.0165-.9428 1.2326-1.5175c.3242-.862 1.1491-1.877 1.8408-2.2662s.986-.007.6636.8507c-.215.5717-.0174.8243.4405.5647s1.0006-.9306 1.2148-1.5003c.3213-.8545 1.1343-1.8581 1.8142-2.2407s.9671-.0009.6475.8492c-.2131.5667-.0202.819.4299.5638 .4493-.2547.985-.9187 1.1973-1.4835 .3184-.8472 1.1198-1.8396 1.7882-2.2157s.9487.005.632.8477c-.2112.5619-.023.8137.4196.5628s.9698-.9071 1.1803-1.4671c.3156-.84 1.1056-1.8214 1.7628-2.1912s.9308.0105.6168.8461c-.2093.5572-.0257.8085.4095.5618 .4344-.2463.955-.8957 1.1636-1.451 .3129-.8329 1.0917-1.8036 1.738-2.1672 .6445-.3626.9134.0158.6021.8445-.2075.5525-.0282.8034.3998.5607s.9406-.8846 1.1474-1.4352c.3102-.8259 1.0782-1.7861 1.7138-2.1437 .6339-.3567.8963.021.5878.8428-.2057.5479-.0307.7983.3903.5596s.9265-.8737 1.1315-1.4198c.3075-.8191 1.0649-1.7689 1.6901-2.1207 .6236-.3509.8798.026.5738.8411-.204.5434-.0331.7932.381.5585s.9127-.863 1.116-1.4046c.3049-.8123 1.0519-1.7521 1.667-2.0982 .6135-.3452.8636.0309.5603.8393-.2023.5389-.0354.7883.372.5573s.8993-.8526 1.1008-1.3898c.3023-.8057 1.0392-1.7355 1.6444-2.0761 .6036-.3396.8479.0356.5471.8374-.2006.5345-.0376.7833.3633.5561s.8861-.8424 1.086-1.3752c.2998-.7992 1.0268-1.7193 1.6224-2.0544 .594-.3342.8325.0402.5342.8355-.1989.5302-.0398.7785.3547.5548s.8733-.8325 1.0715-1.361c.2973-.7927 1.0146-1.7034 1.6008-2.0332 .5846-.329.8175.0446.5217.8335l-.3523.1991c.1974-.5264.0417-.7752-.3483-.5554s-.8686.8271-1.0666,1.3552c-.2971.7922-1.0157,1.7056-1.6064,2.041s-.8315-.0358-.533-.8318c.199-.5306.0396-.78-.3567-.5567s-.8813.837-1.081,1.3693c-.2996.7986-1.0279,1.7216-1.6281,2.0624s-.8469-.0312-.5458-.8336c.2007-.535.0375-.7849-.3653-.5579s-.8943.847-1.0957,1.3838c-.3021.8051-1.0403,1.7378-1.6504,2.0842s-.8626-.0264-.5589-.8354c.2024-.5393.0352-.7898-.3741-.5592s-.9076.8574-1.1107,1.3985c-.3047.8117-1.0531,1.7544-1.6731,2.1064s-.8787-.0215-.5724-.8372c.2041-.5438.0329-.7948-.3832-.5604s-.9213.8679-1.1262,1.4135c-.3073.8184-1.0661,1.7713-1.6963,2.1291s-.8952-.0164-.5863-.8389c.2059-.5483.0305-.7999-.3925-.5615s-.9353.8787-1.1419,1.4288c-.3099.8253-1.0793,1.7885-1.7201,2.1523s-.9122-.0111-.6006-.8406c.2077-.5529.028-.805-.402-.5627s-.9496.8897-1.158,1.4445c-.3126.8322-1.0929,1.806-1.7445,2.176s-.9295-.006-.6153-.8421c.2095-.5576.0254-.8102-.4119-.5637s-.9643.9009-1.1745,1.4604c-.3154.8393-1.1068,1.8239-1.7694,2.2001s-.9474-7e-005-.6304-.8437c.2114-.5624.0228-.8154-.422-.5648-.4456.2511-.9793.9124-1.1914,1.4768-.3182.8465-1.121,1.8421-1.7949,2.2248-.6758.3837-.9658.006-.6459-.8451 .2132-.5672.02-.8207-.4324-.5658-.4532.2554-.9948.9242-1.2088,1.4934-.321.8538-1.1356,1.8607-1.8211,2.2499s-.9846.0118-.6618-.8465c.2152-.5722.0171-.8261-.4431-.5667s-1.0106.9363-1.2265,1.5104c-.3239.8613-1.1504,1.8797-1.8479,2.2757s-1.0039.018-.6783-.8478c.2171-.5772.0142-.8315-.4541-.5676s-1.0268.9486-1.2447,1.5278c-.3269.8688-1.1657,1.899-1.8753,2.3019s-1.0238.0244-.6951-.849c.2191-.5823.0111-.837-.4654-.5684s-1.0434.9612-1.2633,1.5456c-.3299.8766-1.1812,1.9187-1.9035,2.3288s-1.0442.0311-.7125-.8501c.2211-.5875.008-.8425-.4771-.5692s-1.0605.9741-1.2824,1.5637c-.3329.8844-1.1972,1.9389-1.9323,2.3562s-1.0652.038-.7304-.8511c.2232-.5928.005-.8481-.4891-.5699s-1.078.9874-1.302,1.5823c-.336.8924-1.2135,1.9594-1.9619,2.3843-.7506.4262-1.0868.0452-.7488-.8521 .2253-.5981.001-.8538-.5014-.5706s-1.0959,1.0009-1.322,1.6013c-.3392.9005-1.2303,1.9804-1.9923,2.413s-1.109.0526-.7678-.8529c.2274-.6036-.002-.8596-.5142-.5711s-1.1144,1.0148-1.3426,1.6207c-.3424.9088-1.2474,2.0018-2.0234,2.4423s-1.1318.0602-.7874-.8536c.2296-.6092-.006-.8654-.5273-.5716s-1.1333,1.0291-1.3638,1.6405c-.3458.9173-1.265,2.0237-2.0553,2.4724s-1.1553.0682-.8075-.8542c.2318-.6149-.01-.8713-.5408-.5721s-1.1528,1.0436-1.3855,1.6608c-.3491.9259-1.283,2.046-2.0881,2.5031s-1.1794.0764-.8283-.8547c.2341-.6207-.0138-.8772-.5547-.5724-.542.3055-1.1727,1.0586-1.4078,1.6817-.3525.9346-1.3015,2.0688-2.1218,2.5346s-1.2043.0849-.8497-.855c.2364-.6266-.0179-.8832-.5691-.5726s-1.1933,1.0739-1.4306,1.7029c-.356.9436-1.3204,2.0922-2.1563,2.5668-.8386.4761-1.2299.0938-.8718-.8552 .2388-.6326-.0222-.8893-.5839-.5728s-1.2144,1.0897-1.4541,1.7247c-.3596.9527-1.3398,2.116-2.1918,2.5997-.8547.4853-1.2563.103-.8945-.8552 .2412-.6388-.0266-.8955-.5991-.5728s-1.2361,1.1058-1.4782,1.7471c-.3632.9619-1.3598,2.1404-2.2283,2.6335s-1.2835.1125-.918-.8551c.2436-.645-.0312-.9018-.6149-.5728s-1.2584,1.1224-1.503,1.7699c-.367.9714-1.3802,2.1653-2.2658,2.6681" fill="url(#aj)"/>
 <path transform="translate(0,-10)" d="m204.54 246.26 50.058 49.438 0.5373-0.3037-50.373-49.722-0.2222 0.5881" fill="#ceb476"/>
</svg>
