<?xml version="1.0" encoding="UTF-8" standalone="no"?>
<svg
   xmlns:dc="http://purl.org/dc/elements/1.1/"
   xmlns:cc="http://creativecommons.org/ns#"
   xmlns:rdf="http://www.w3.org/1999/02/22-rdf-syntax-ns#"
   xmlns:svg="http://www.w3.org/2000/svg"
   xmlns="http://www.w3.org/2000/svg"
   xmlns:xlink="http://www.w3.org/1999/xlink"
   xmlns:sodipodi="http://sodipodi.sourceforge.net/DTD/sodipodi-0.dtd"
   xmlns:inkscape="http://www.inkscape.org/namespaces/inkscape"
   viewBox="0 0 640 640"
   id="svg2"
   version="1.1"
   inkscape:version="0.91 r13725"
   sodipodi:docname="Hourglass.svg">
  <metadata
     id="metadata137">
    <rdf:RDF>
      <cc:Work
         rdf:about="">
        <dc:format>image/svg+xml</dc:format>
        <dc:type
           rdf:resource="http://purl.org/dc/dcmitype/StillImage" />
        <dc:title></dc:title>
      </cc:Work>
    </rdf:RDF>
  </metadata>
  <sodipodi:namedview
     pagecolor="#ffffff"
     bordercolor="#666666"
     borderopacity="1"
     objecttolerance="10"
     gridtolerance="10"
     guidetolerance="10"
     inkscape:pageopacity="0"
     inkscape:pageshadow="2"
     inkscape:window-width="1336"
     inkscape:window-height="823"
     id="namedview135"
     showgrid="false"
     inkscape:zoom="0.7375"
     inkscape:cx="368.83577"
     inkscape:cy="419.48022"
     inkscape:window-x="32"
     inkscape:window-y="24"
     inkscape:window-maximized="0"
     inkscape:current-layer="svg2" />
  <defs
     id="defs4">
    <filter
       id="filter6596">
      <feGaussianBlur
         stdDeviation="2.9539"
         id="feGaussianBlur7" />
    </filter>
    <filter
       height="1.41967"
       id="filter4498"
       width="1.41967"
       x="-.20984"
       y="-.20984">
      <feGaussianBlur
         stdDeviation="2.88525"
         id="feGaussianBlur10" />
    </filter>
    <linearGradient
       id="linearGradient9521">
      <stop
         offset="0"
         stop-color="#7f5808"
         id="stop13" />
      <stop
         offset="1"
         stop-color="#966909"
         id="stop15" />
    </linearGradient>
    <linearGradient
       gradientUnits="userSpaceOnUse"
       id="linearGradient9546"
       x1="239"
       x2="448"
       xlink:href="#linearGradient9521"
       y1="701.36218"
       y2="824.36218" />
    <linearGradient
       gradientUnits="userSpaceOnUse"
       id="linearGradient9566"
       x1="239"
       x2="160.60794"
       xlink:href="#linearGradient9521"
       y1="701.36218"
       y2="824.36218" />
    <linearGradient
       gradientUnits="userSpaceOnUse"
       id="linearGradient9568"
       x1="226"
       x2="549"
       xlink:href="#linearGradient9521" />
    <radialGradient
       cx="113"
       cy="584.36218"
       gradientTransform="matrix(1.51336,3.0304491e-2,-2.8564651e-2,1.42647,-40.31701,-255.63738)"
       gradientUnits="userSpaceOnUse"
       id="radialGradient4506"
       r="16.5">
      <stop
         offset="0"
         stop-color="#fff"
         id="stop21" />
      <stop
         offset="1"
         stop-color="#fff"
         stop-opacity="0"
         id="stop23" />
    </radialGradient>
    <radialGradient
       inkscape:collect="always"
       xlink:href="#radialGradient4506"
       id="radialGradient4341"
       gradientUnits="userSpaceOnUse"
       gradientTransform="matrix(1.51336,0.03030449,-0.02856465,1.42647,-40.31701,-255.63738)"
       cx="113"
       cy="584.36218"
       r="16.5" />
    <radialGradient
       inkscape:collect="always"
       xlink:href="#radialGradient4506"
       id="radialGradient4343"
       gradientUnits="userSpaceOnUse"
       gradientTransform="matrix(1.51336,0.03030449,-0.02856465,1.42647,-40.31701,-255.63738)"
       cx="113"
       cy="584.36218"
       r="16.5" />
    <radialGradient
       inkscape:collect="always"
       xlink:href="#radialGradient4506"
       id="radialGradient4345"
       gradientUnits="userSpaceOnUse"
       gradientTransform="matrix(1.51336,0.03030449,-0.02856465,1.42647,-40.31701,-255.63738)"
       cx="113"
       cy="584.36218"
       r="16.5" />
    <radialGradient
       inkscape:collect="always"
       xlink:href="#radialGradient4506"
       id="radialGradient4347"
       gradientUnits="userSpaceOnUse"
       gradientTransform="matrix(1.51336,0.03030449,-0.02856465,1.42647,-40.31701,-255.63738)"
       cx="113"
       cy="584.36218"
       r="16.5" />
    <radialGradient
       inkscape:collect="always"
       xlink:href="#radialGradient4506"
       id="radialGradient4349"
       gradientUnits="userSpaceOnUse"
       gradientTransform="matrix(1.51336,0.03030449,-0.02856465,1.42647,-40.31701,-255.63738)"
       cx="113"
       cy="584.36218"
       r="16.5" />
    <radialGradient
       inkscape:collect="always"
       xlink:href="#radialGradient4506"
       id="radialGradient4351"
       gradientUnits="userSpaceOnUse"
       gradientTransform="matrix(1.51336,0.03030449,-0.02856465,1.42647,-40.31701,-255.63738)"
       cx="113"
       cy="584.36218"
       r="16.5" />
    <radialGradient
       inkscape:collect="always"
       xlink:href="#radialGradient4506"
       id="radialGradient4353"
       gradientUnits="userSpaceOnUse"
       gradientTransform="matrix(1.51336,0.03030449,-0.02856465,1.42647,-40.31701,-255.63738)"
       cx="113"
       cy="584.36218"
       r="16.5" />
    <radialGradient
       inkscape:collect="always"
       xlink:href="#radialGradient4506"
       id="radialGradient4355"
       gradientUnits="userSpaceOnUse"
       gradientTransform="matrix(1.51336,0.03030449,-0.02856465,1.42647,-40.31701,-255.63738)"
       cx="113"
       cy="584.36218"
       r="16.5" />
    <radialGradient
       inkscape:collect="always"
       xlink:href="#radialGradient4506"
       id="radialGradient4357"
       gradientUnits="userSpaceOnUse"
       gradientTransform="matrix(1.51336,0.03030449,-0.02856465,1.42647,-40.31701,-255.63738)"
       cx="113"
       cy="584.36218"
       r="16.5" />
    <radialGradient
       inkscape:collect="always"
       xlink:href="#radialGradient4506"
       id="radialGradient4359"
       gradientUnits="userSpaceOnUse"
       gradientTransform="matrix(1.51336,0.03030449,-0.02856465,1.42647,-40.31701,-255.63738)"
       cx="113"
       cy="584.36218"
       r="16.5" />
    <radialGradient
       inkscape:collect="always"
       xlink:href="#radialGradient4506"
       id="radialGradient4361"
       gradientUnits="userSpaceOnUse"
       gradientTransform="matrix(1.51336,0.03030449,-0.02856465,1.42647,-40.31701,-255.63738)"
       cx="113"
       cy="584.36218"
       r="16.5" />
    <radialGradient
       inkscape:collect="always"
       xlink:href="#radialGradient4506"
       id="radialGradient4363"
       gradientUnits="userSpaceOnUse"
       gradientTransform="matrix(1.51336,0.03030449,-0.02856465,1.42647,-40.31701,-255.63738)"
       cx="113"
       cy="584.36218"
       r="16.5" />
    <radialGradient
       inkscape:collect="always"
       xlink:href="#radialGradient4506"
       id="radialGradient4365"
       gradientUnits="userSpaceOnUse"
       gradientTransform="matrix(1.51336,0.03030449,-0.02856465,1.42647,-40.31701,-255.63738)"
       cx="113"
       cy="584.36218"
       r="16.5" />
    <radialGradient
       inkscape:collect="always"
       xlink:href="#radialGradient4506"
       id="radialGradient4367"
       gradientUnits="userSpaceOnUse"
       gradientTransform="matrix(1.51336,0.03030449,-0.02856465,1.42647,-40.31701,-255.63738)"
       cx="113"
       cy="584.36218"
       r="16.5" />
    <radialGradient
       inkscape:collect="always"
       xlink:href="#radialGradient4506"
       id="radialGradient4369"
       gradientUnits="userSpaceOnUse"
       gradientTransform="matrix(1.51336,0.03030449,-0.02856465,1.42647,-40.31701,-255.63738)"
       cx="113"
       cy="584.36218"
       r="16.5" />
  </defs>
  <g
     id="g4284"
     transform="matrix(1.5149517,0,0,1.0791617,-148.24065,-20.64447)">
    <g
       id="g25"
       transform="matrix(0.96929,0,0,-0.96929,-65.476,832.72789)">
      <path
         id="path27"
         d="m 387.5,687.375 c -89.148,0 -161.5,25.984 -161.5,58 l 0,36 c 0,32.016 72.352,58 161.5,58 89.148,0 161.5,-25.984 161.5,-58 l 0,-36 c 0,-32.016 -72.352,-58 -161.5,-58 z"
         style="fill:url(#linearGradient9568)"
         inkscape:connector-curvature="0" />
      <path
         id="path29"
         transform="translate(0,-21)"
         d="m 549,766.36218 a 161.5,58 0 1 1 -323,0 161.5,58 0 1 1 323,0 z"
         style="fill:url(#linearGradient9566)"
         inkscape:connector-curvature="0" />
    </g>
    <path
       id="path31"
       d="m 211.41359,135.53125 -0.375,0.9375 c 62.80986,29.04951 125.61574,25.94633 188.3125,1.03125 l -0.25,-1 c -62.63658,14.88903 -125.16402,23.62501 -187.6875,-0.96875 z"
       inkscape:connector-curvature="0"
       style="fill:#375e6f;fill-opacity:0.79006001;fill-rule:evenodd" />
    <g
       id="g33"
       transform="matrix(0.96929,0,0,0.96929,-61.19037,-201.41477)">
      <path
         id="path35"
         d="m 387.5,687.375 c -89.148,0 -161.5,25.984 -161.5,58 l 0,36 c 0,32.016 72.352,58 161.5,58 89.148,0 161.5,-25.984 161.5,-58 l 0,-36 c 0,-32.016 -72.352,-58 -161.5,-58 z"
         inkscape:connector-curvature="0"
         style="fill:#7f5808" />
      <path
         id="path37"
         transform="translate(0,-21)"
         d="m 549,766.36218 a 161.5,58 0 1 1 -323,0 161.5,58 0 1 1 323,0 z"
         style="fill:url(#linearGradient9546)"
         inkscape:connector-curvature="0" />
    </g>
    <g
       id="g39"
       transform="matrix(0.96929,0,0,0.96929,162.71508,-347.77721)">
      <path
         id="path41"
         transform="translate(-12,105)"
         d="m 152,484.86218 c 0,16.836 -13.664,30.5 -30.5,30.5 -16.836,0 -30.5,-13.664 -30.5,-30.5 0,-16.836 13.664,-30.5 30.5,-30.5 16.836,0 30.5,13.664 30.5,30.5 z"
         inkscape:connector-curvature="0" />
      <path
         id="path43"
         d="m 132,581.86218 c 0,9.108 -7.392,16.5 -16.5,16.5 -9.108,0 -16.5,-7.392 -16.5,-16.5 0,-9.108 7.392,-16.5 16.5,-16.5 9.108,0 16.5,7.392 16.5,16.5 z"
         style="fill:url(#radialGradient4341);filter:url(#filter4498)"
         inkscape:connector-curvature="0" />
    </g>
    <g
       id="g45"
       transform="matrix(0.96929,0,0,0.96929,172.40796,-178.15186)">
      <path
         id="path47"
         transform="translate(-12,105)"
         d="m 152,484.86218 c 0,16.836 -13.664,30.5 -30.5,30.5 -16.836,0 -30.5,-13.664 -30.5,-30.5 0,-16.836 13.664,-30.5 30.5,-30.5 16.836,0 30.5,13.664 30.5,30.5 z"
         inkscape:connector-curvature="0" />
      <path
         id="path49"
         d="m 132,581.86218 c 0,9.108 -7.392,16.5 -16.5,16.5 -9.108,0 -16.5,-7.392 -16.5,-16.5 0,-9.108 7.392,-16.5 16.5,-16.5 9.108,0 16.5,7.392 16.5,16.5 z"
         style="fill:url(#radialGradient4343);filter:url(#filter4498)"
         inkscape:connector-curvature="0" />
    </g>
    <g
       id="g51"
       transform="matrix(0.96929,0,0,0.96929,122.97429,-76.37666)">
      <path
         id="path53"
         transform="translate(-12,105)"
         d="m 152,484.86218 c 0,16.836 -13.664,30.5 -30.5,30.5 -16.836,0 -30.5,-13.664 -30.5,-30.5 0,-16.836 13.664,-30.5 30.5,-30.5 16.836,0 30.5,13.664 30.5,30.5 z"
         inkscape:connector-curvature="0" />
      <path
         id="path55"
         d="m 132,581.86218 c 0,9.108 -7.392,16.5 -16.5,16.5 -9.108,0 -16.5,-7.392 -16.5,-16.5 0,-9.108 7.392,-16.5 16.5,-16.5 9.108,0 16.5,7.392 16.5,16.5 z"
         style="fill:url(#radialGradient4345);filter:url(#filter4498)"
         inkscape:connector-curvature="0" />
    </g>
    <g
       id="g57"
       transform="matrix(0.96929,0,0,0.96929,157.86865,-57.96019)">
      <path
         id="path59"
         transform="translate(-12,105)"
         d="m 152,484.86218 c 0,16.836 -13.664,30.5 -30.5,30.5 -16.836,0 -30.5,-13.664 -30.5,-30.5 0,-16.836 13.664,-30.5 30.5,-30.5 16.836,0 30.5,13.664 30.5,30.5 z"
         inkscape:connector-curvature="0" />
      <path
         id="path61"
         d="m 132,581.86218 c 0,9.108 -7.392,16.5 -16.5,16.5 -9.108,0 -16.5,-7.392 -16.5,-16.5 0,-9.108 7.392,-16.5 16.5,-16.5 9.108,0 16.5,7.392 16.5,16.5 z"
         style="fill:url(#radialGradient4347);filter:url(#filter4498)"
         inkscape:connector-curvature="0" />
    </g>
    <g
       id="g63"
       transform="matrix(0.96929,0,0,0.96929,287.7532,-71.53022)">
      <path
         id="path65"
         transform="translate(-12,105)"
         d="m 152,484.86218 c 0,16.836 -13.664,30.5 -30.5,30.5 -16.836,0 -30.5,-13.664 -30.5,-30.5 0,-16.836 13.664,-30.5 30.5,-30.5 16.836,0 30.5,13.664 30.5,30.5 z"
         inkscape:connector-curvature="0" />
      <path
         id="path67"
         d="m 132,581.86218 c 0,9.108 -7.392,16.5 -16.5,16.5 -9.108,0 -16.5,-7.392 -16.5,-16.5 0,-9.108 7.392,-16.5 16.5,-16.5 9.108,0 16.5,7.392 16.5,16.5 z"
         style="fill:url(#radialGradient4349);filter:url(#filter4498)"
         inkscape:connector-curvature="0" />
    </g>
    <g
       id="g69"
       transform="matrix(0.96929,0,0,0.96929,249.95098,-57.96019)">
      <path
         id="path71"
         transform="translate(-12,105)"
         d="m 152,484.86218 c 0,16.836 -13.664,30.5 -30.5,30.5 -16.836,0 -30.5,-13.664 -30.5,-30.5 0,-16.836 13.664,-30.5 30.5,-30.5 16.836,0 30.5,13.664 30.5,30.5 z"
         inkscape:connector-curvature="0" />
      <path
         id="path73"
         d="m 132,581.86218 c 0,9.108 -7.392,16.5 -16.5,16.5 -9.108,0 -16.5,-7.392 -16.5,-16.5 0,-9.108 7.392,-16.5 16.5,-16.5 9.108,0 16.5,7.392 16.5,16.5 z"
         style="fill:url(#radialGradient4351);filter:url(#filter4498)"
         inkscape:connector-curvature="0" />
    </g>
    <g
       id="g75"
       transform="matrix(0.96929,0,0,0.96929,205.36375,-50.20589)">
      <path
         id="path77"
         transform="translate(-12,105)"
         d="m 152,484.86218 c 0,16.836 -13.664,30.5 -30.5,30.5 -16.836,0 -30.5,-13.664 -30.5,-30.5 0,-16.836 13.664,-30.5 30.5,-30.5 16.836,0 30.5,13.664 30.5,30.5 z"
         inkscape:connector-curvature="0" />
      <path
         id="path79"
         d="m 132,581.86218 c 0,9.108 -7.392,16.5 -16.5,16.5 -9.108,0 -16.5,-7.392 -16.5,-16.5 0,-9.108 7.392,-16.5 16.5,-16.5 9.108,0 16.5,7.392 16.5,16.5 z"
         style="fill:url(#radialGradient4353);filter:url(#filter4498)"
         inkscape:connector-curvature="0" />
    </g>
    <g
       id="g81"
       transform="matrix(0.96929,0,0,0.96929,233.47309,-105.45529)">
      <path
         id="path83"
         transform="translate(-12,105)"
         d="m 152,484.86218 c 0,16.836 -13.664,30.5 -30.5,30.5 -16.836,0 -30.5,-13.664 -30.5,-30.5 0,-16.836 13.664,-30.5 30.5,-30.5 16.836,0 30.5,13.664 30.5,30.5 z"
         inkscape:connector-curvature="0" />
      <path
         id="path85"
         d="m 132,581.86218 c 0,9.108 -7.392,16.5 -16.5,16.5 -9.108,0 -16.5,-7.392 -16.5,-16.5 0,-9.108 7.392,-16.5 16.5,-16.5 9.108,0 16.5,7.392 16.5,16.5 z"
         style="fill:url(#radialGradient4355);filter:url(#filter4498)"
         inkscape:connector-curvature="0" />
    </g>
    <g
       id="g87"
       transform="matrix(0.96929,0,0,0.96929,188.88585,-102.54742)">
      <path
         id="path89"
         transform="translate(-12,105)"
         d="m 152,484.86218 c 0,16.836 -13.664,30.5 -30.5,30.5 -16.836,0 -30.5,-13.664 -30.5,-30.5 0,-16.836 13.664,-30.5 30.5,-30.5 16.836,0 30.5,13.664 30.5,30.5 z"
         inkscape:connector-curvature="0" />
      <path
         id="path91"
         d="m 132,581.86218 c 0,9.108 -7.392,16.5 -16.5,16.5 -9.108,0 -16.5,-7.392 -16.5,-16.5 0,-9.108 7.392,-16.5 16.5,-16.5 9.108,0 16.5,7.392 16.5,16.5 z"
         style="fill:url(#radialGradient4357);filter:url(#filter4498)"
         inkscape:connector-curvature="0" />
    </g>
    <g
       id="g93"
       transform="matrix(0.96929,0,0,0.96929,279.02961,-119.02532)">
      <path
         id="path95"
         transform="translate(-12,105)"
         d="m 152,484.86218 c 0,16.836 -13.664,30.5 -30.5,30.5 -16.836,0 -30.5,-13.664 -30.5,-30.5 0,-16.836 13.664,-30.5 30.5,-30.5 16.836,0 30.5,13.664 30.5,30.5 z"
         inkscape:connector-curvature="0" />
      <path
         id="path97"
         d="m 132,581.86218 c 0,9.108 -7.392,16.5 -16.5,16.5 -9.108,0 -16.5,-7.392 -16.5,-16.5 0,-9.108 7.392,-16.5 16.5,-16.5 9.108,0 16.5,7.392 16.5,16.5 z"
         style="fill:url(#radialGradient4359);filter:url(#filter4498)"
         inkscape:connector-curvature="0" />
    </g>
    <g
       id="g99"
       transform="matrix(0.96929,0,0,0.96929,144.29862,-124.84104)">
      <path
         id="path101"
         transform="translate(-12,105)"
         d="m 152,484.86218 c 0,16.836 -13.664,30.5 -30.5,30.5 -16.836,0 -30.5,-13.664 -30.5,-30.5 0,-16.836 13.664,-30.5 30.5,-30.5 16.836,0 30.5,13.664 30.5,30.5 z"
         inkscape:connector-curvature="0" />
      <path
         id="path103"
         d="m 132,581.86218 c 0,9.108 -7.392,16.5 -16.5,16.5 -9.108,0 -16.5,-7.392 -16.5,-16.5 0,-9.108 7.392,-16.5 16.5,-16.5 9.108,0 16.5,7.392 16.5,16.5 z"
         style="fill:url(#radialGradient4361);filter:url(#filter4498)"
         inkscape:connector-curvature="0" />
    </g>
    <g
       id="g105"
       transform="matrix(0.96929,0,0,0.96929,201.48659,-153.91967)">
      <path
         id="path107"
         transform="translate(-12,105)"
         d="m 152,484.86218 c 0,16.836 -13.664,30.5 -30.5,30.5 -16.836,0 -30.5,-13.664 -30.5,-30.5 0,-16.836 13.664,-30.5 30.5,-30.5 16.836,0 30.5,13.664 30.5,30.5 z"
         inkscape:connector-curvature="0" />
      <path
         id="path109"
         d="m 132,581.86218 c 0,9.108 -7.392,16.5 -16.5,16.5 -9.108,0 -16.5,-7.392 -16.5,-16.5 0,-9.108 7.392,-16.5 16.5,-16.5 9.108,0 16.5,7.392 16.5,16.5 z"
         style="fill:url(#radialGradient4363);filter:url(#filter4498)"
         inkscape:connector-curvature="0" />
    </g>
    <g
       id="g111"
       transform="matrix(0.96929,0,0,0.96929,188.88585,-305.12855)">
      <path
         id="path113"
         transform="translate(-12,105)"
         d="m 152,484.86218 c 0,16.836 -13.664,30.5 -30.5,30.5 -16.836,0 -30.5,-13.664 -30.5,-30.5 0,-16.836 13.664,-30.5 30.5,-30.5 16.836,0 30.5,13.664 30.5,30.5 z"
         inkscape:connector-curvature="0" />
      <path
         id="path115"
         d="m 132,581.86218 c 0,9.108 -7.392,16.5 -16.5,16.5 -9.108,0 -16.5,-7.392 -16.5,-16.5 0,-9.108 7.392,-16.5 16.5,-16.5 9.108,0 16.5,7.392 16.5,16.5 z"
         style="fill:url(#radialGradient4365);filter:url(#filter4498)"
         inkscape:connector-curvature="0" />
    </g>
    <g
       id="g117"
       transform="matrix(0.96929,0,0,0.96929,209.2409,-256.66417)">
      <path
         id="path119"
         transform="translate(-12,105)"
         d="m 152,484.86218 c 0,16.836 -13.664,30.5 -30.5,30.5 -16.836,0 -30.5,-13.664 -30.5,-30.5 0,-16.836 13.664,-30.5 30.5,-30.5 16.836,0 30.5,13.664 30.5,30.5 z"
         inkscape:connector-curvature="0" />
      <path
         id="path121"
         d="m 132,581.86218 c 0,9.108 -7.392,16.5 -16.5,16.5 -9.108,0 -16.5,-7.392 -16.5,-16.5 0,-9.108 7.392,-16.5 16.5,-16.5 9.108,0 16.5,7.392 16.5,16.5 z"
         style="fill:url(#radialGradient4367);filter:url(#filter4498)"
         inkscape:connector-curvature="0" />
    </g>
    <g
       id="g123"
       transform="matrix(0.96929,0,0,0.96929,236.38095,-322.57573)">
      <path
         id="path125"
         transform="translate(-12,105)"
         d="m 152,484.86218 c 0,16.836 -13.664,30.5 -30.5,30.5 -16.836,0 -30.5,-13.664 -30.5,-30.5 0,-16.836 13.664,-30.5 30.5,-30.5 16.836,0 30.5,13.664 30.5,30.5 z"
         inkscape:connector-curvature="0" />
      <path
         id="path127"
         d="m 132,581.86218 c 0,9.108 -7.392,16.5 -16.5,16.5 -9.108,0 -16.5,-7.392 -16.5,-16.5 0,-9.108 7.392,-16.5 16.5,-16.5 9.108,0 16.5,7.392 16.5,16.5 z"
         style="fill:url(#radialGradient4369);filter:url(#filter4498)"
         inkscape:connector-curvature="0" />
    </g>
    <path
       id="path129"
       d="m 310.16798,76.34674 c -51.73573,0 -102.86566,14.47874 -116.43569,43.4362 -19.22091,41.01605 90.86999,172.04385 90.87072,196.34134 7.4e-4,25.26678 -110.09378,151.50414 -90.87072,192.52477 27.14006,57.91494 204.51971,57.91494 236.5062,0 22.65644,-41.0219 -87.20621,-171.13606 -87.2056,-193.49406 6.1e-4,-23.32728 109.8593,-154.35513 87.2056,-195.37205 -15.99325,-28.95747 -68.33478,-43.4362 -120.07051,-43.4362 z"
       inkscape:connector-curvature="0"
       style="fill:#005780;fill-opacity:0.10497;fill-rule:evenodd" />
    <path
       id="path131"
       d="m 310.16798,75.86209 c -36.48105,0.68712 -75.99462,5.21435 -105.40761,28.79137 -15.99818,11.57791 -19.01902,33.62679 -11.92647,50.30203 20.32591,55.17271 58.18632,97.30009 84.8215,149.16945 7.98244,19.72508 -8.46538,39.48843 -16.31833,56.06133 -24.83766,39.90505 -54.72102,78.06593 -68.54177,123.60424 -6.77343,18.29011 -2.86144,38.30706 13.14516,47.35603 39.12593,22.95371 93.29231,27.26211 137.40153,22.60452 30.90276,-4.50987 70.01504,-15.58073 89.50039,-42.15768 11.61588,-19.65371 -2.38246,-43.50318 -10.16819,-62.23298 -20.74816,-44.29631 -50.40743,-83.42592 -73.23139,-126.51806 -7.7644,-19.33672 19.14291,-46.41673 26.49268,-62.91719 24.18274,-39.70702 45.52286,-66.74551 58.67662,-111.90504 6.82723,-18.57594 -3.62847,-38.74158 -20.14849,-48.19353 C 384.42844,80.6318 345.13022,76.29762 310.16798,75.8621 Z m 0.82321,4.26214 c 38.0569,0.74253 78.53,2.4753 108.89229,27.50947 15.96667,11.71199 14.88796,33.25796 8.28113,49.76568 -19.41703,53.70837 -56.8917,98.02312 -82.88296,148.31488 -8.13091,19.58114 12.46096,36.39112 20.03537,52.96652 24.17515,39.23145 52.54073,77.25445 65.61424,122.02188 6.73434,18.18097 -3.03003,37.32804 -19.21109,46.53982 -38.62813,23.66114 -86.16439,26.74211 -130.29156,22.8296 -30.37298,-3.94327 -64.70275,-10.74832 -84.3297,-36.43804 -12.07819,-18.64365 2.91918,-40.57514 10.60045,-58.42797 21.79523,-45.2511 51.65405,-84.75337 74.63524,-129.27504 8.24971,-20.16948 -12.26908,-37.69703 -20.15584,-54.77166 -24.91068,-40.82707 -54.54928,-80.06873 -68.4153,-126.41691 -7.22996,-19.36239 6.26588,-36.59859 23.3655,-45.26682 28.2486,-15.90456 61.91308,-19.01738 93.86223,-19.35141 z"
       inkscape:connector-curvature="0"
       style="fill:#375e6f;fill-opacity:0.79006001;fill-rule:evenodd" />
    <path
       id="path133"
       transform="matrix(0.96929,0,0,0.96929,81.50976,18.80149)"
       d="m 133.77835,106.18109 c -19.82993,42.31566 84.74924,175.49513 84.75,200.5625 7.6e-4,26.06737 -92.51339,151.3928 -80.75,196.625 7.2922,28.03972 20.55771,22.17728 35,24 47.96703,6.05377 65.03062,-197.55858 65.03125,-220.625 6.3e-4,-24.06642 -47.65976,-178.24594 -71.03125,-220.5625 -14.2532,0.16027 -24.01708,9.29918 -33,20 z"
       inkscape:connector-curvature="0"
       style="fill:#ffffff;fill-opacity:0.56906002;fill-rule:evenodd;filter:url(#filter6596)" />
  </g>
</svg>
