<?xml version="1.0" encoding="UTF-8"?>
<svg viewBox="0 0 48 48" xmlns="http://www.w3.org/2000/svg" xmlns:xlink="http://www.w3.org/1999/xlink">
 <defs>
  <linearGradient id="a">
   <stop stop-color="#fff" stop-opacity=".8" offset="0"/>
   <stop stop-color="#fff" stop-opacity="0" offset="1"/>
  </linearGradient>
  <linearGradient id="e" x1="-6.14" x2="12.343" y1="-26.57" y2="27.786" gradientTransform="translate(-3.4692e-8 -1.3571)" gradientUnits="userSpaceOnUse" xlink:href="#a"/>
  <linearGradient id="f" x2="0" y1="4.888" y2="44.24" gradientTransform="matrix(.99703 0 0 1.0267 -1.2283 -2.5794)" gradientUnits="userSpaceOnUse" xlink:href="#a"/>
  <radialGradient id="g" cx="25.767" cy="46.5" r="22.02" gradientTransform="matrix(.81432 0 0 .10048 3.0177 39.468)" gradientUnits="userSpaceOnUse">
   <stop stop-color="#2e3436" offset="0"/>
   <stop stop-color="#2e3436" stop-opacity="0" offset="1"/>
  </radialGradient>
 </defs>
 <path d="m41.929 44.14a17.929 2.2123 0 0 1 -35.858 0 17.929 2.2123 0 1 1 35.858 0z" fill="url(#g)" opacity=".6"/>
 <path d="m45.5 22.643a21.5 21.5 0 0 1 -43 0 21.5 21.5 0 1 1 43 0z" fill="#183768"/>
 <path d="m24.009 2.2012c-11.323 0-20.47 9.1654-20.47 20.438s9.1476 20.438 20.47 20.438c11.323 0 20.47-9.1654 20.47-20.438 0-11.272-9.1476-20.438-20.47-20.438z" fill="#3465a4"/>
 <g transform="translate(.0089817 -.48602)">
  <path d="m23.969 6.7812c-1.0614 4.12e-5 -2.0825 0.4263-2.8438 1.1875-0.76887 0.7689-1.1875 1.8034-1.1875 2.875-5e-6 1.0615 0.44152 2.0666 1.1875 2.8125 0.76124 0.76128 1.7823 1.1875 2.8438 1.1875 1.0716 3.2e-5 2.0901-0.43387 2.8438-1.1875 0.74596-0.74594 1.1875-1.751 1.1875-2.8125-1.5e-5 -1.0715-0.41865-2.1061-1.1875-2.875-0.7536-0.75355-1.7722-1.1875-2.8438-1.1875zm2.2812 8.8438a1.1676 1.1676 0 0 0 -0.125 0.03125c-1.2536 0.38573-3.979 0.89394-8 1.4062a1.1676 1.1676 0 0 0 -1 1.2188l0.09375 1.4375a1.1676 1.1676 0 0 0 1.0312 1.0938l1.8125 0.15625v0.03125c0.01231 0.04313 0.15624 0.77445 0.15625 1.8438v11.688c-3e-6 0.45241-0.10544 0.51509-0.125 0.53125-0.087 0.07187-0.48112 0.26698-1.1562 0.375l-0.5625 0.09375a1.1676 1.1676 0 0 0 -0.21875 0.0625c-0.25199 0.09-0.52117 0.24902-0.75 0.53125s-0.34375 0.66825-0.34375 1v1.0938a1.1676 1.1676 0 0 0 0.34375 0.8125l0.09375 0.09375a1.1676 1.1676 0 0 0 0.84375 0.34375l5.5625-0.09375c0.0067 0 0.02452-2e-6 0.03125 0 1.2314 3.35e-4 3.1437 0.0317 5.7188 0.09375a1.1676 1.1676 0 0 0 0.84375 -0.34375l0.09375-0.09375a1.1676 1.1676 0 0 0 0.34375 -0.8125v-1.0938c-2.2e-5 -0.34103-0.1389-0.75826-0.375-1.0312s-0.50521-0.4082-0.75-0.5a1.1676 1.1676 0 0 0 -0.1875 -0.0625l-0.5-0.09375c-0.6686-0.13372-1.0636-0.31525-1.1875-0.40625-0.03507-0.02897-0.12501-0.0682-0.125-0.5v-11.688c-1e-5 -1.5791 0.062715-3.5212 0.15625-5.8438a1.1676 1.1676 0 0 0 0 -0.0625c-6.6e-5 -0.56583-0.44951-1.016-0.75-1.1562s-0.52946-0.15623-0.75-0.15625a1.1676 1.1676 0 0 0 -0.21875 0z" fill="#204a87"/>
  <path d="m26.66 22.833v11.695c-1e-5 0.64063 0.17968 1.1094 0.53906 1.4062 0.35936 0.28125 0.92968 0.5 1.7109 0.65625l0.49219 0.09375c0.24999 0.09375 0.37499 0.24219 0.375 0.44531v1.1016l-0.09375 0.09375c-2.5938-0.0625-4.5156-0.09375-5.7656-0.09375l-5.6016 0.09375-0.09375-0.09375v-1.1016c-2e-6 -0.21875 0.10937-0.36719 0.32812-0.44531l0.58594-0.09375c0.78125-0.125 1.3516-0.33594 1.7109-0.63281 0.35937-0.29687 0.53906-0.77344 0.53906-1.4297v-11.695c-5e-6 -1.1406-0.08594-1.914-0.25781-2.3203-0.17188-0.40623-0.4375-0.62498-0.79688-0.65625l-1.9688-0.21094-0.09375-1.4297c4.0469-0.5156 6.7812-0.99217 8.2031-1.4297 0.21874 2.1e-5 0.32811 0.0469 0.32812 0.14062-0.09376 2.3281-0.14063 4.2969-0.14062 5.9062m-5.5547-12c-4e-6 -0.79685 0.28124-1.4765 0.84375-2.0391 0.56249-0.56247 1.2344-0.84372 2.0156-0.84375 0.79687 3.03e-5 1.4766 0.28128 2.0391 0.84375 0.56249 0.56253 0.84374 1.2422 0.84375 2.0391-1.1e-5 0.78128-0.28126 1.4532-0.84375 2.0156-0.56251 0.56252-1.2422 0.84377-2.0391 0.84375-0.78126 2.4e-5 -1.4531-0.28122-2.0156-0.84375-0.5625-0.56247-0.84375-1.2343-0.84375-2.0156" fill="#eeeeec"/>
 </g>
 <path d="m24.009 2.9392c-10.957 0-19.754 8.8265-19.754 19.7 0 10.873 8.7963 19.7 19.754 19.7s19.754-8.8265 19.754-19.7c0-10.873-8.7963-19.7-19.754-19.7z" fill="none" opacity=".8" stroke="url(#f)" stroke-linecap="square" stroke-linejoin="round"/>
 <path d="m24 2.2054c-11.323-1e-7 -20.469 9.1651-20.469 20.438 0 0.84814 0.086899 1.6787 0.1875 2.5 12.703-5.1785 25.666-9.199 38.875-11.031-3.2374-7.0164-10.333-11.906-18.594-11.906z" fill="url(#e)" opacity=".69"/>
</svg>
