<?xml version="1.0" encoding="UTF-8" standalone="no"?>
<!-- Created with Inkscape (http://www.inkscape.org/) -->

<svg
   xmlns:dc="http://purl.org/dc/elements/1.1/"
   xmlns:cc="http://creativecommons.org/ns#"
   xmlns:rdf="http://www.w3.org/1999/02/22-rdf-syntax-ns#"
   xmlns:svg="http://www.w3.org/2000/svg"
   xmlns="http://www.w3.org/2000/svg"
   xmlns:xlink="http://www.w3.org/1999/xlink"
   xmlns:sodipodi="http://sodipodi.sourceforge.net/DTD/sodipodi-0.dtd"
   xmlns:inkscape="http://www.inkscape.org/namespaces/inkscape"
   width="100"
   height="100"
   viewBox="0 0 100 100.00001"
   id="svg2"
   version="1.1"
   inkscape:version="0.91 r13725"
   inkscape:export-filename="/home/simon/Incoming/Inspection.png"
   inkscape:export-xdpi="90"
   inkscape:export-ydpi="90"
   sodipodi:docname="Inspection.svg">
  <defs
     id="defs4">
    <clipPath
       id="XMLID_41_">
      <use
         xlink:href="#XMLID_32_"
         id="svg_110"
         x="0"
         y="0"
         width="100%"
         height="100%" />
    </clipPath>
    <clipPath
       id="XMLID_40_">
      <use
         xlink:href="#XMLID_30_"
         id="svg_98"
         x="0"
         y="0"
         width="100%"
         height="100%" />
    </clipPath>
    <clipPath
       id="XMLID_42_">
      <use
         xlink:href="#XMLID_34_"
         id="svg_117"
         x="0"
         y="0"
         width="100%"
         height="100%" />
    </clipPath>
    <clipPath
       id="XMLID_39_">
      <use
         xlink:href="#XMLID_28_"
         id="svg_93"
         x="0"
         y="0"
         width="100%"
         height="100%" />
    </clipPath>
    <clipPath
       id="XMLID_37_">
      <use
         xlink:href="#XMLID_24_"
         id="svg_29"
         x="0"
         y="0"
         width="100%"
         height="100%" />
    </clipPath>
    <clipPath
       id="XMLID_36_">
      <use
         xlink:href="#XMLID_22_"
         id="svg_14"
         x="0"
         y="0"
         width="100%"
         height="100%" />
    </clipPath>
    <clipPath
       id="XMLID_38_">
      <use
         xlink:href="#XMLID_26_"
         id="svg_42"
         x="0"
         y="0"
         width="100%"
         height="100%" />
    </clipPath>
    <path
       d="m 261.4,105.66 c 0,0 0.41202,-4.932 -3.699,-6.576 -5.898,-2.361 -7.695,-4.524 -7.695,-16.213 l 0,-72.547 c 0,0 -0.412,-6.051 -7.287,-6.051 l -24.316,0 c 0,0 -7.285,0 -6.873,6.875 0.412,6.871 0,73.368 0,73.368 0,0 1.873,12.708 -5.344,14.98 -5.23,1.644 -3.586,3.582 -3.998,7.281 -0.41101,3.703 59.212,-1.117 59.212,-1.117"
       id="XMLID_22_"
       inkscape:connector-curvature="0" />
    <polyline
       points="166.82 361.78 162.51 364.93 150.61 364.93 150.61 369.88 161.88 369.88 166.94 373.97 166.82 361.78"
       id="XMLID_28_" />
    <polyline
       points="166.82 418.76 162.51 421.92 150.61 421.92 150.61 426.87 161.88 426.87 166.94 430.96 166.82 418.76"
       id="XMLID_30_" />
    <polyline
       points="276.97 239.57 273.81 235.78 300.53 213.36 303.71 217.14 305.44 226.26 285.33 243.14 276.97 239.57"
       id="XMLID_26_" />
    <polyline
       points="216.64 249.52 216.65 244.58 251.53 244.58 251.54 249.52 247 257.62 220.75 257.62 216.64 249.52"
       id="XMLID_24_" />
    <rect
       x="241.23"
       height="11.643"
       width="30.26"
       y="376.85999"
       id="XMLID_32_" />
    <rect
       x="184.84"
       height="11.638"
       width="30.257999"
       y="364.42001"
       id="XMLID_34_" />
    <filter
       id="filter4459">
      <feGaussianBlur
         stdDeviation="0.7084166"
         id="feGaussianBlur4461" />
    </filter>
    <linearGradient
       x1="31.924999"
       y1="26.451"
       gradientTransform="matrix(0.57895,0,0,0.79348,12.436,1008.1)"
       x2="37.931"
       gradientUnits="userSpaceOnUse"
       y2="26.451"
       id="linearGradient4552">
      <stop
         offset="0"
         id="stop4497" />
      <stop
         offset="1"
         stop-color="#2e0202"
         id="stop4499" />
    </linearGradient>
    <linearGradient
       x1="31.403"
       y1="35.778999"
       gradientTransform="matrix(-1,-0.0030608,0.0030608,1.7363,66.1,978.58)"
       x2="35.705002"
       gradientUnits="userSpaceOnUse"
       y2="35.778999"
       id="linearGradient4554">
      <stop
         offset="0"
         stop-color="#ffc333"
         id="stop4507" />
      <stop
         offset="1"
         stop-color="#775400"
         id="stop4509" />
    </linearGradient>
    <linearGradient
       x1="31.403"
       y1="35.778999"
       gradientTransform="matrix(-1,-0.0027207,-0.0027207,-1.6545,66.312,1076.7)"
       x2="35.705002"
       gradientUnits="userSpaceOnUse"
       y2="35.778999"
       id="linearGradient4556">
      <stop
         offset="0"
         stop-color="#ffc333"
         id="stop4507-3" />
      <stop
         offset="1"
         stop-color="#775400"
         id="stop4509-6" />
    </linearGradient>
    <filter
       x="-0.20716999"
       y="-0.81967002"
       width="1.4143"
       height="2.6393001"
       id="filter4560">
      <feGaussianBlur
         stdDeviation="0.21946047"
         id="feGaussianBlur4562" />
    </filter>
    <radialGradient
       r="21.52"
       gradientTransform="matrix(-0.2147,1.4746,-1.3715,-0.19521,26.753,7.7881)"
       cx="3.9061999"
       cy="15.502"
       gradientUnits="userSpaceOnUse"
       id="radialGradient4569">
      <stop
         offset="0"
         stop-opacity="0"
         stop-color="#add4f5"
         id="stop4485" />
      <stop
         offset="1"
         stop-color="#add4f5"
         id="stop4487" />
    </radialGradient>
    <linearGradient
       x1="-19.605"
       y1="0.097902"
       x2="17.466999"
       gradientUnits="userSpaceOnUse"
       y2="31.910999"
       id="linearGradient4573">
      <stop
         offset="0"
         stop-color="#fff"
         id="stop4465" />
      <stop
         offset=".75824"
         stop-opacity="0"
         stop-color="#f1ec99"
         id="stop4471" />
      <stop
         offset="1"
         stop-color="#fff"
         id="stop4467" />
    </linearGradient>
    <linearGradient
       id="linearGradient3925"
       inkscape:collect="always">
      <stop
         id="stop3927"
         offset="0"
         style="stop-color:#ff0000;stop-opacity:1" />
      <stop
         id="stop3929"
         offset="1"
         style="stop-color:#b32e00;stop-opacity:1" />
    </linearGradient>
    <linearGradient
       inkscape:collect="always"
       id="linearGradient3919">
      <stop
         style="stop-color:#474747;stop-opacity:0"
         offset="0"
         id="stop3921" />
      <stop
         style="stop-color:#cdcbcc;stop-opacity:1"
         offset="1"
         id="stop3923" />
    </linearGradient>
    <linearGradient
       id="linearGradient3909"
       inkscape:collect="always">
      <stop
         id="stop3911"
         offset="0"
         style="stop-color:#383838;stop-opacity:1;" />
      <stop
         id="stop3913"
         offset="1"
         style="stop-color:#383838;stop-opacity:0;" />
    </linearGradient>
    <linearGradient
       id="linearGradient3901"
       inkscape:collect="always">
      <stop
         id="stop3903"
         offset="0"
         style="stop-color:#474747;stop-opacity:1" />
      <stop
         id="stop3905"
         offset="1"
         style="stop-color:#4c494b;stop-opacity:1" />
    </linearGradient>
    <linearGradient
       id="linearGradient3893"
       inkscape:collect="always">
      <stop
         id="stop3895"
         offset="0"
         style="stop-color:#c2c3c5;stop-opacity:1" />
      <stop
         id="stop3897"
         offset="1"
         style="stop-color:#9c9c9c;stop-opacity:1" />
    </linearGradient>
    <linearGradient
       id="linearGradient3867"
       inkscape:collect="always">
      <stop
         id="stop3869"
         offset="0"
         style="stop-color:#ececec;stop-opacity:1" />
      <stop
         style="stop-color:#bfc0c2;stop-opacity:1"
         offset="0.07073299"
         id="stop3887" />
      <stop
         id="stop3891"
         offset="0.42536685"
         style="stop-color:#bebfc1;stop-opacity:1" />
      <stop
         style="stop-color:#dcdddf;stop-opacity:1"
         offset="0.8485775"
         id="stop3885" />
      <stop
         id="stop3889"
         offset="0.93579024"
         style="stop-color:#f9f9f9;stop-opacity:1" />
      <stop
         style="stop-color:#efefef;stop-opacity:1"
         offset="0.98990989"
         id="stop3875" />
      <stop
         id="stop3871"
         offset="1"
         style="stop-color:#737373;stop-opacity:1" />
    </linearGradient>
    <linearGradient
       id="linearGradient3045"
       inkscape:collect="always">
      <stop
         id="stop3047"
         offset="0"
         style="stop-color:#111111;stop-opacity:1" />
      <stop
         style="stop-color:#5d5d5d;stop-opacity:1"
         offset="0.37501681"
         id="stop3053" />
      <stop
         id="stop3049"
         offset="1"
         style="stop-color:#171717;stop-opacity:1" />
    </linearGradient>
    <linearGradient
       inkscape:collect="always"
       id="linearGradient3039">
      <stop
         style="stop-color:#ffaa02;stop-opacity:1"
         offset="0"
         id="stop3041" />
      <stop
         style="stop-color:#e29e53;stop-opacity:1"
         offset="1"
         id="stop3043" />
    </linearGradient>
    <linearGradient
       id="linearGradient3029"
       inkscape:collect="always">
      <stop
         id="stop3031"
         offset="0"
         style="stop-color:#ffaa02;stop-opacity:1" />
      <stop
         id="stop3033"
         offset="1"
         style="stop-color:#f5c018;stop-opacity:1" />
    </linearGradient>
    <linearGradient
       gradientUnits="userSpaceOnUse"
       y2="113.08263"
       x2="47.643009"
       y1="134.21609"
       x1="59.322033"
       id="linearGradient3035"
       xlink:href="#linearGradient3029"
       inkscape:collect="always" />
    <linearGradient
       gradientUnits="userSpaceOnUse"
       y2="136.92464"
       x2="57.693047"
       y1="133.41171"
       x1="56.094814"
       id="linearGradient3037"
       xlink:href="#linearGradient3039"
       inkscape:collect="always" />
    <linearGradient
       gradientUnits="userSpaceOnUse"
       y2="131.55777"
       x2="25.665161"
       y1="148.30508"
       x1="17.147776"
       id="linearGradient3051"
       xlink:href="#linearGradient3045"
       inkscape:collect="always" />
    <linearGradient
       gradientUnits="userSpaceOnUse"
       y2="94.767372"
       x2="271.05157"
       y1="64.628799"
       x1="256.08972"
       id="linearGradient3873"
       xlink:href="#linearGradient3867"
       inkscape:collect="always" />
    <linearGradient
       gradientUnits="userSpaceOnUse"
       y2="83.003105"
       x2="252.38467"
       y1="83.003105"
       x1="247.81363"
       id="linearGradient3899"
       xlink:href="#linearGradient3893"
       inkscape:collect="always" />
    <linearGradient
       gradientUnits="userSpaceOnUse"
       y2="112.3228"
       x2="208.58594"
       y1="36.5"
       x1="271.75"
       id="linearGradient3907"
       xlink:href="#linearGradient3901"
       inkscape:collect="always" />
    <linearGradient
       gradientUnits="userSpaceOnUse"
       y2="83.112152"
       x2="214.9702"
       y1="77.915718"
       x1="217.09204"
       id="linearGradient3915"
       xlink:href="#linearGradient3909"
       inkscape:collect="always" />
    <linearGradient
       gradientUnits="userSpaceOnUse"
       y2="107.26226"
       x2="217.98993"
       y1="100.20818"
       x1="220.92784"
       id="linearGradient3917"
       xlink:href="#linearGradient3919"
       inkscape:collect="always" />
    <radialGradient
       gradientUnits="userSpaceOnUse"
       gradientTransform="matrix(1.7581872,-4.0320545e-7,5.2213326e-7,2.2767747,-158.78317,-114.26086)"
       r="6.2649436"
       fy="89.491867"
       fx="209.4247"
       cy="89.491867"
       cx="209.4247"
       id="radialGradient3931"
       xlink:href="#linearGradient3925"
       inkscape:collect="always" />
    <radialGradient
       r="6.2649436"
       fy="89.491867"
       fx="209.4247"
       cy="89.491867"
       cx="209.4247"
       gradientTransform="matrix(1.7581872,-4.0320545e-7,5.2213326e-7,2.2767747,-158.78317,-114.26086)"
       gradientUnits="userSpaceOnUse"
       id="radialGradient3997"
       xlink:href="#linearGradient3925"
       inkscape:collect="always" />
  </defs>
  <sodipodi:namedview
     id="base"
     pagecolor="#ffffff"
     bordercolor="#666666"
     borderopacity="1.0"
     inkscape:pageopacity="0.0"
     inkscape:pageshadow="2"
     inkscape:zoom="0.7"
     inkscape:cx="0.91296964"
     inkscape:cy="-14.276871"
     inkscape:document-units="px"
     inkscape:current-layer="layer1"
     showgrid="false"
     fit-margin-top="0"
     fit-margin-left="0"
     fit-margin-right="0"
     fit-margin-bottom="0"
     units="px"
     inkscape:window-width="1888"
     inkscape:window-height="1007"
     inkscape:window-x="32"
     inkscape:window-y="24"
     inkscape:window-maximized="1" />
  <metadata
     id="metadata7">
    <rdf:RDF>
      <cc:Work
         rdf:about="">
        <dc:format>image/svg+xml</dc:format>
        <dc:type
           rdf:resource="http://purl.org/dc/dcmitype/StillImage" />
        <dc:title></dc:title>
      </cc:Work>
    </rdf:RDF>
  </metadata>
  <g
     inkscape:label="Layer 1"
     inkscape:groupmode="layer"
     id="layer1"
     transform="translate(-278.07425,-584.75842)">
    <g
       transform="matrix(0.64498473,0,0,0.74794233,190.28601,566.27065)"
       id="g3953">
      <g
         id="g3933"
         transform="translate(128.64899,0.36128839)">
        <path
           sodipodi:nodetypes="ccccc"
           inkscape:connector-curvature="0"
           id="path2989"
           d="m 95.100636,118.55138 -0.194298,0.75743 -52.0369,23.06408 -10.103283,-4.28694 z"
           style="color:#000000;display:inline;overflow:visible;visibility:visible;fill:url(#linearGradient3037);fill-opacity:1;stroke:none;stroke-width:0.2;marker:none;enable-background:accumulate" />
        <path
           sodipodi:nodetypes="ccccc"
           inkscape:connector-curvature="0"
           id="path2987"
           d="m 71.959253,107.00004 -49.6208,22.11807 c 2.576389,6.80743 12.244622,9.2573 20.299259,12.69863 l 52.462924,-23.26536 z"
           style="color:#000000;display:inline;overflow:visible;visibility:visible;fill:url(#linearGradient3035);fill-opacity:1;fill-rule:nonzero;stroke:none;stroke-width:0.2;marker:none;enable-background:accumulate" />
        <path
           style="color:#000000;display:inline;overflow:visible;visibility:visible;fill:#000000;fill-opacity:1;stroke:none;stroke-width:0.2;marker:none;enable-background:accumulate"
           d="m 22.797248,129.44582 -11.539989,4.95895 c -5.428626,2.33278 -3.0634415,8.12331 -1.065942,12.18883 l 21.398298,10.1022 c 0.165568,0.0489 0.138642,-0.0605 0.116857,-0.1277 -1.792106,-4.84543 -2.94398,-9.54398 3.511327,-12.10639 l 12.142479,-4.81991 c -0.283886,0.007 -0.181463,-0.3284 -0.458795,-0.32771 -11.25966,0.0279 -17.573755,-5.05697 -24.104235,-9.86827 z"
           id="path3823"
           inkscape:connector-curvature="0"
           sodipodi:nodetypes="cscccscsc" />
        <path
           sodipodi:nodetypes="csccscc"
           inkscape:connector-curvature="0"
           id="path2991"
           d="m 22.338453,129.11811 -11.539989,4.95895 c -5.4286264,2.33278 -3.0634419,8.12331 -1.0659425,12.18883 l 21.5969275,10.19597 c -1.82693,-4.92714 -3.123986,-9.72646 3.429555,-12.32786 l 12.142479,-4.81991 c -11.809634,0.30753 -17.8717,-5.26617 -24.56303,-10.19598 z"
           style="color:#000000;display:inline;overflow:visible;visibility:visible;fill:url(#linearGradient3051);fill-opacity:1;stroke:none;stroke-width:0.2;marker:none;enable-background:accumulate" />
        <ellipse
           style="color:#000000;display:inline;overflow:visible;visibility:visible;fill:#f9f9f9;fill-opacity:1;stroke:none;stroke-width:0.2;marker:none;enable-background:accumulate"
           id="path2995"
           transform="matrix(1.2821851,0.45425842,0,1.3638379,14.320702,-54.251349)"
           cx="17.991335"
           cy="136.49396"
           rx="2.0645795"
           ry="0.95036203" />
        <ellipse
           transform="matrix(1.2821851,0.45425842,0,1.3638379,1.2778028,-61.198823)"
           id="path2997"
           style="color:#000000;display:inline;overflow:visible;visibility:visible;fill:#f9f9f9;stroke:none;stroke-width:0.2;marker:none;enable-background:accumulate"
           cx="17.991335"
           cy="136.49396"
           rx="2.0645795"
           ry="0.95036203" />
        <g
           id="text3007"
           style="font-style:normal;font-weight:normal;font-size:16.20998573px;line-height:125%;font-family:Sans;letter-spacing:0px;word-spacing:0px;fill:#b32e00;fill-opacity:1;stroke:none"
           transform="matrix(0.58219475,-0.8165187,0.80590474,0.58736995,11.826901,-4.1387176)">
          <path
             style="fill:#b32e00;fill-opacity:1"
             inkscape:connector-curvature="0"
             id="path3024"
             d="m -80.519168,117.50429 0,-15.21269 1.24266,0 0,15.21269 z" />
        </g>
        <g
           id="text3011"
           style="font-style:normal;font-weight:normal;font-size:16.87767029px;line-height:125%;font-family:Sans;letter-spacing:0px;word-spacing:0px;fill:#b32e00;fill-opacity:1;stroke:none"
           transform="matrix(0.58367289,-0.81565326,0.80445265,0.58910667,8.114733,-5.9766439)">
          <path
             style="fill:#b32e00;fill-opacity:1"
             inkscape:connector-curvature="0"
             id="path3018"
             d="m -60.399585,132.54011 0,-15.8393 1.293845,0 0,15.8393 z" />
        </g>
        <g
           id="text3825"
           style="font-style:normal;font-weight:normal;font-size:16.29892731px;line-height:125%;font-family:Sans;letter-spacing:0px;word-spacing:0px;fill:#b32e00;fill-opacity:1;stroke:none"
           transform="matrix(0.71135997,-0.37870422,1.1234899,0.80764965,0,0)">
          <path
             id="path3834"
             d="m -109.10264,115.52635 -1.43252,0 0,-9.12835 c -0.34487,0.32896 -0.79718,0.65791 -1.35692,0.98685 -0.55974,0.32895 -1.06245,0.57567 -1.50813,0.74013 l 0,-1.38477 c 0.80115,-0.37669 1.5015,-0.83297 2.10104,-1.36885 0.59953,-0.53586 1.02398,-1.05582 1.27335,-1.55986 l 0.92318,0 z"
             inkscape:connector-curvature="0" />
        </g>
        <g
           id="text3829"
           style="font-style:normal;font-weight:normal;font-size:16.29892731px;line-height:125%;font-family:Sans;letter-spacing:0px;word-spacing:0px;fill:#b32e00;fill-opacity:1;stroke:none"
           transform="matrix(0.71135997,-0.37870422,1.1234899,0.80764965,0,0)">
          <path
             id="path3837"
             d="m -80.581227,114.6328 0,1.37681 -7.711748,0 c -0.01061,-0.34486 0.0451,-0.67647 0.167127,-0.9948 0.196308,-0.52526 0.510667,-1.04256 0.943078,-1.5519 0.432408,-0.50934 1.057146,-1.09827 1.874217,-1.76678 1.268044,-1.0399 2.124904,-1.8636 2.570583,-2.4711 0.445668,-0.60749 0.668504,-1.18183 0.668511,-1.72301 -7e-6,-0.5677 -0.202947,-1.04653 -0.608822,-1.4365 -0.405888,-0.38996 -0.935125,-0.58494 -1.587713,-0.58495 -0.689737,1e-5 -1.241523,0.20693 -1.65536,0.62076 -0.413842,0.41385 -0.623415,0.98686 -0.628718,1.71903 l -1.472316,-0.15121 c 0.100807,-1.09826 0.48016,-1.93523 1.13806,-2.5109 0.657897,-0.57565 1.541285,-0.86348 2.650168,-0.86349 1.119484,1e-5 2.005525,0.31039 2.658125,0.93114 0.652586,0.62077 0.978883,1.39009 0.978891,2.30795 -8e-6,0.46691 -0.09551,0.92584 -0.286504,1.37682 -0.191011,0.45098 -0.508023,0.92584 -0.951037,1.42456 -0.443027,0.49874 -1.179184,1.18316 -2.208472,2.05328 -0.859518,0.72157 -1.411304,1.21102 -1.65536,1.46834 -0.244062,0.25732 -0.445677,0.51597 -0.604843,0.77595 z"
             inkscape:connector-curvature="0" />
        </g>
      </g>
      <path
         style="color:#000000;display:inline;overflow:visible;visibility:visible;fill:url(#linearGradient3907);fill-opacity:1;stroke:none;stroke-width:0.2;marker:none;enable-background:accumulate"
         d="m 239.17887,118.0779 c -3.73699,1.68799 -9.68066,2.37297 -18.11961,1.32583 l -20.24093,-11.49049 c -4.19061,-4.12811 -3.88692,-12.374926 -0.35356,-15.114403 l -0.0884,-18.561553 C 196.4627,65.022062 200.776,50.582806 214.51851,44.096857 l 37.83021,-17.854446 c 3.80015,-1.793528 7.66954,-0.916689 11.4021,0.795495 l 19.26866,8.838835 c 4.18817,1.921178 8.12596,4.154878 7.89386,10.301341 -17.24482,23.966606 -25.42698,60.016758 -51.73447,71.899818 z"
         id="path3855"
         inkscape:connector-curvature="0"
         sodipodi:nodetypes="sccccsssscs" />
      <path
         style="color:#000000;display:inline;overflow:visible;visibility:visible;fill:#383838;fill-opacity:1;stroke:none;stroke-width:0.2;marker:none;enable-background:accumulate"
         d="m 239.37525,56.850668 35.15896,-16.554509 c 0.56982,-1.432269 16.68801,-4.366131 16.61701,8.485281 l -0.17678,31.996582 c -0.0126,2.276772 -4.37387,14.438119 -13.96536,19.975768 -0.76547,0.44194 -37.83021,17.32411 -37.83021,17.32411 -13.20131,1.31387 -14.32035,-7.18474 -12.37437,-13.25825 L 226.117,83.720725 C 225.76712,72.983254 226.98179,62.6861 239.37525,56.850668 Z"
         id="path3839"
         inkscape:connector-curvature="0"
         sodipodi:nodetypes="scsssccss" />
      <path
         style="color:#000000;display:inline;overflow:visible;visibility:visible;fill:#626262;fill-opacity:1;stroke:none;stroke-width:0.2;marker:none;enable-background:accumulate"
         d="m 249.1875,70.5 4.1875,0.375 1.26462,28.994746 -6.06958,2.827264 z"
         id="path3845"
         inkscape:connector-curvature="0"
         sodipodi:nodetypes="ccccc" />
      <path
         style="color:#000000;display:inline;overflow:visible;visibility:visible;fill:url(#linearGradient3873);fill-opacity:1;stroke:none;stroke-width:0.2;marker:none;enable-background:accumulate"
         d="M 250.3596,67.361357 267.5,59.1875 c 1.4322,-0.682983 3.40276,0.0011 3.3125,6.5 l -0.0937,20.1875 c -0.0203,4.374089 1.69463,4.399259 2.46875,6.625 0.29853,0.858332 -0.0153,1.231214 -0.4375,1.4375 l -17.74961,8.67244 c -6.34385,-2.35149 -1.35618,-25.56253 -4.64079,-35.248583 z"
         id="path3843"
         inkscape:connector-curvature="0"
         sodipodi:nodetypes="cssssscc" />
      <path
         style="color:#000000;display:inline;overflow:visible;visibility:visible;fill:url(#linearGradient3899);fill-opacity:1;stroke:none;stroke-width:0.2;marker:none;enable-background:accumulate"
         d="m 247.75254,73.176624 c -0.0343,-5.520995 4.55984,-9.761056 4.59619,0.08839 l 0.0884,23.953242 c 0.009,2.359225 1.12343,3.789594 2.56326,5.391684 -2.69087,-0.73464 -3.67687,-2.762766 -3.71231,-5.03813 l -0.35355,-22.699721 c -0.0763,-4.900305 -1.67214,-4.907181 -1.66088,-0.0042 l 0.0615,26.769821 c 0.002,1.04624 -1.39473,1.75804 -1.40587,-0.0332 z"
         id="path3841"
         inkscape:connector-curvature="0"
         sodipodi:nodetypes="ssscssssss" />
      <ellipse
         style="color:#000000;display:inline;overflow:visible;visibility:visible;fill:#f9f9f9;fill-opacity:1;stroke:none;stroke-width:0.2;marker:none;enable-background:accumulate"
         id="path3847"
         transform="translate(-0.17677669,-0.44194174)"
         cx="234.3175"
         cy="68.050102"
         rx="2.7400389"
         ry="2.4748738" />
      <ellipse
         transform="translate(0.70710678,42.603183)"
         id="path3849"
         style="color:#000000;display:inline;overflow:visible;visibility:visible;fill:#f9f9f9;fill-opacity:1;stroke:none;stroke-width:0.2;marker:none;enable-background:accumulate"
         cx="234.3175"
         cy="68.050102"
         rx="2.7400389"
         ry="2.4748738" />
      <ellipse
         style="color:#000000;display:inline;overflow:visible;visibility:visible;fill:#f9f9f9;fill-opacity:1;stroke:none;stroke-width:0.2;marker:none;enable-background:accumulate"
         id="path3851"
         transform="translate(48.348426,21.036426)"
         cx="234.3175"
         cy="68.050102"
         rx="2.7400389"
         ry="2.4748738" />
      <ellipse
         transform="translate(46.845824,-24.395185)"
         id="path3853"
         style="color:#000000;display:inline;overflow:visible;visibility:visible;fill:#f9f9f9;fill-opacity:1;stroke:none;stroke-width:0.2;marker:none;enable-background:accumulate"
         cx="234.3175"
         cy="68.050102"
         rx="2.7400389"
         ry="2.4748738" />
      <path
         style="color:#000000;display:inline;overflow:visible;visibility:visible;fill:url(#linearGradient3917);fill-opacity:1;stroke:none;stroke-width:0.2;marker:none;enable-background:accumulate"
         d="m 200.45739,91.249905 26.27969,11.500515 0.0674,2.06923 -0.73259,3.93377 -27.51679,-13.308486 1.90965,-2.646097 z"
         id="path3861"
         inkscape:connector-curvature="0" />
      <path
         style="color:#000000;font-style:normal;font-variant:normal;font-weight:normal;font-stretch:normal;font-size:medium;line-height:normal;font-family:Sans;-inkscape-font-specification:Sans;text-indent:0;text-align:start;text-decoration:none;text-decoration-line:none;letter-spacing:normal;word-spacing:normal;text-transform:none;direction:ltr;block-progression:tb;writing-mode:lr-tb;baseline-shift:baseline;text-anchor:start;display:inline;overflow:visible;visibility:visible;fill:#383838;fill-opacity:1;stroke:none;stroke-width:1.70000005;marker:none;enable-background:accumulate"
         d="M 271.08969,30.404359 227.53125,48.96875 c -11.36864,4.847349 -18.76978,15.307322 -18.65625,26.375 l 0.0625,4.4375 0.125,21.0625 0,0.0937 c -0.4155,3.83956 -0.52907,7.32937 -0.47656,11.38535 l 1.66406,0.94467 c -0.0522,-4.03393 0.0861,-8.45322 0.5,-12.23622 l 0.0312,-0.0625 0,-0.0312 -0.15625,-21.1875 -0.0312,-4.4375 C 210.48812,65.015142 217.38556,55.137017 228.1875,50.5313 l 44.85436,-19.231447 z"
         id="path3863"
         inkscape:connector-curvature="0"
         sodipodi:nodetypes="cccccccccccccccc" />
      <path
         style="color:#000000;display:inline;overflow:visible;visibility:visible;fill:url(#radialGradient3997);fill-opacity:1;stroke:none;stroke-width:0.2;marker:none;enable-background:accumulate"
         d="m 204.61902,79.894138 c 3.45092,-0.600755 6.60406,-0.890777 10.51822,4.154252 0.75248,0.969881 0.85454,7.471623 0.26518,12.727922 -0.2055,1.832762 -1.78378,2.193469 -3.88909,1.856155 l -6.98268,-3.270368 c -2.48343,-7.529272 -0.69797,-13.647879 0.0884,-15.467961 z"
         id="path3857"
         inkscape:connector-curvature="0"
         sodipodi:nodetypes="csscccc" />
      <path
         style="color:#000000;display:inline;overflow:visible;visibility:visible;fill:url(#linearGradient3915);fill-opacity:1;stroke:none;stroke-width:0.2;marker:none;enable-background:accumulate"
         d="m 199.55384,71.767871 26.51388,9.294186 0.17237,6.43623 -25.84847,-10.059973 -0.0152,-3.20103 z"
         id="path3859"
         inkscape:connector-curvature="0" />
    </g>
    <g
       transform="matrix(1.9859293,0,0,1.9859293,276.22833,-1404.254)"
       id="layer1-2">
      <g
         transform="matrix(1.2511,-1.1003,0.64051,0.73515,-663.44,320.19)"
         id="g4547">
        <rect
           x="30.919001"
           y="1017.6"
           width="3.477"
           height="23.073999"
           id="rect4493"
           style="fill:url(#linearGradient4552)" />
        <path
           d="m 34.804,1039.3 -4.3026,-0.013 0.61927,2.6212 3.0733,0.01 z"
           id="path4503"
           inkscape:connector-curvature="0"
           style="fill:url(#linearGradient4554)" />
        <path
           d="m 34.813,1018.6 -4.3026,-0.012 0.61055,-2.4943 3.0733,0.01 z"
           id="path4503-7"
           inkscape:connector-curvature="0"
           style="fill:url(#linearGradient4556)" />
      </g>
      <rect
         x="21.988001"
         y="23.961"
         width="2.5423999"
         height="0.64258999"
         transform="matrix(1.3072,-1.2411,1.1123,1.4585,-28.731,1025.2)"
         id="rect4558"
         style="fill:#483300;filter:url(#filter4560)" />
      <g
         transform="matrix(1.3151,0,0,1.3151,-5.7057,-317.43)"
         id="g4564">
        <path
           transform="matrix(0.51819,0,0,0.5241,11.772,1005.7)"
           d="m 33.505,19.418 c 0,11.478 -9.4109,20.783 -21.02,20.783 -11.6091,0 -21.02,-9.3048 -21.02,-20.783 0,-11.4782 9.4109,-20.783 21.02,-20.783 11.6091,0 21.02,9.3048 21.02,20.783 z"
           id="path4481"
           inkscape:connector-curvature="0"
           style="fill:url(#radialGradient4569);stroke:#865912" />
        <path
           d="m 18.362,1003.9 c -6.7891,0 -12.293,5.5036 -12.293,12.293 0,6.789 5.5036,12.293 12.293,12.293 6.7891,0 12.293,-5.5037 12.293,-12.293 0,-6.7891 -5.5036,-12.293 -12.293,-12.293 z m 0,2.7316 c 5.2804,0 9.561,4.2807 9.561,9.5611 0,5.2803 -4.2806,9.561 -9.561,9.561 -5.2804,0 -9.561,-4.2807 -9.561,-9.561 0,-5.2804 4.2806,-9.5611 9.561,-9.5611 z"
           id="path4404"
           inkscape:connector-curvature="0"
           style="fill:#e8c41e;stroke-width:0" />
        <path
           transform="matrix(0.48439,0,0,0.49126,17.951,1007.4)"
           d="m 22.857,17.411 c 0,12.18 -10.074,22.054 -22.5,22.054 -12.426,0 -22.5,-9.8737 -22.5,-22.054 0,-12.1803 10.074,-22.054 22.5,-22.054 12.426,0 22.5,9.8737 22.5,22.054 z"
           id="path4445"
           inkscape:connector-curvature="0"
           style="fill:none;stroke:url(#linearGradient4573);filter:url(#filter4459)" />
      </g>
    </g>
  </g>
</svg>
