<?xml version="1.0" encoding="UTF-8" standalone="no"?>
<svg
   xmlns:dc="http://purl.org/dc/elements/1.1/"
   xmlns:cc="http://creativecommons.org/ns#"
   xmlns:rdf="http://www.w3.org/1999/02/22-rdf-syntax-ns#"
   xmlns:svg="http://www.w3.org/2000/svg"
   xmlns="http://www.w3.org/2000/svg"
   xmlns:xlink="http://www.w3.org/1999/xlink"
   xmlns:sodipodi="http://sodipodi.sourceforge.net/DTD/sodipodi-0.dtd"
   xmlns:inkscape="http://www.inkscape.org/namespaces/inkscape"
   viewBox="0 0 512.00001 512"
   version="1.1"
   id="svg381"
   sodipodi:docname="Install.svg"
   width="512"
   height="512"
   inkscape:version="0.92.1 r15371">
  <metadata
     id="metadata385">
    <rdf:RDF>
      <cc:Work
         rdf:about="">
        <dc:format>image/svg+xml</dc:format>
        <dc:type
           rdf:resource="http://purl.org/dc/dcmitype/StillImage" />
        <dc:title />
      </cc:Work>
    </rdf:RDF>
  </metadata>
  <sodipodi:namedview
     pagecolor="#ffffff"
     bordercolor="#666666"
     borderopacity="1"
     objecttolerance="10"
     gridtolerance="10"
     guidetolerance="10"
     inkscape:pageopacity="0"
     inkscape:pageshadow="2"
     inkscape:window-width="1920"
     inkscape:window-height="1017"
     id="namedview383"
     showgrid="false"
     inkscape:zoom="0.24191646"
     inkscape:cx="-845.96073"
     inkscape:cy="-45.124805"
     inkscape:window-x="-8"
     inkscape:window-y="-8"
     inkscape:window-maximized="1"
     inkscape:current-layer="svg381" />
  <defs
     id="defs165">
    <filter
       id="t"
       x="-0.26107001"
       y="-0.2402"
       width="1.5222"
       height="1.4804">
      <feGaussianBlur
         stdDeviation="5.04472"
         id="feGaussianBlur2" />
    </filter>
    <filter
       id="s"
       x="-0.42704001"
       y="-0.33733001"
       width="1.8541"
       height="1.6747">
      <feGaussianBlur
         stdDeviation="5.27704"
         id="feGaussianBlur5" />
    </filter>
    <filter
       id="r"
       x="-0.34761"
       y="-0.40496001"
       width="1.6952"
       height="1.8099">
      <feGaussianBlur
         stdDeviation="5.27704"
         id="feGaussianBlur8" />
    </filter>
    <filter
       id="q"
       x="-0.31218001"
       y="-0.55777001"
       width="1.6244"
       height="2.1155">
      <feGaussianBlur
         stdDeviation="5.27704"
         id="feGaussianBlur11" />
    </filter>
    <filter
       id="p"
       x="-0.37729999"
       y="-0.36662"
       width="1.7546"
       height="1.7332">
      <feGaussianBlur
         stdDeviation="5.27704"
         id="feGaussianBlur14" />
    </filter>
    <filter
       id="o"
       x="-0.32541999"
       y="-0.46645999"
       width="1.6508"
       height="1.9329">
      <feGaussianBlur
         stdDeviation="5.27704"
         id="feGaussianBlur17" />
    </filter>
    <filter
       id="n"
       x="-0.30395001"
       y="-0.71420002"
       width="1.6079"
       height="2.4284">
      <feGaussianBlur
         stdDeviation="5.27704"
         id="feGaussianBlur20" />
    </filter>
    <linearGradient
       id="j">
      <stop
         stop-color="#999"
         offset="0"
         id="stop23" />
      <stop
         stop-color="#e6e6e6"
         offset="1"
         id="stop25" />
    </linearGradient>
    <linearGradient
       id="d">
      <stop
         stop-color="#bfbcbc"
         offset="0"
         id="stop28" />
      <stop
         stop-color="#fff"
         offset="1"
         id="stop30" />
    </linearGradient>
    <linearGradient
       id="c">
      <stop
         stop-color="#8c6508"
         offset="0"
         id="stop33" />
      <stop
         stop-color="#ad7d09"
         offset="1"
         id="stop35" />
    </linearGradient>
    <linearGradient
       id="f">
      <stop
         stop-color="#d2691e"
         offset="0"
         id="stop38" />
      <stop
         stop-color="#e3813a"
         offset="1"
         id="stop40" />
    </linearGradient>
    <linearGradient
       id="g">
      <stop
         stop-color="#f4e477"
         offset="0"
         id="stop43" />
      <stop
         stop-color="#e6d24e"
         offset="1"
         id="stop45" />
    </linearGradient>
    <linearGradient
       id="a">
      <stop
         stop-color="#90f2a4"
         offset="0"
         id="stop48" />
      <stop
         stop-color="#0f3"
         offset="1"
         id="stop50" />
    </linearGradient>
    <linearGradient
       id="b">
      <stop
         stop-color="#545bff"
         offset="0"
         id="stop53" />
      <stop
         stop-color="#000aeb"
         offset="1"
         id="stop55" />
    </linearGradient>
    <linearGradient
       id="bu"
       x1="496.57001"
       x2="495.85999"
       y1="397.92999"
       y2="417.73001"
       gradientUnits="userSpaceOnUse"
       gradientTransform="matrix(2.0858641,0,0,2.0858641,-676.8629,-794.11535)">
      <stop
         stop-color="#666"
         offset="0"
         id="stop58" />
      <stop
         stop-color="#e6e6e6"
         offset="1"
         id="stop60" />
    </linearGradient>
    <linearGradient
       id="bs"
       x1="361.5"
       x2="548"
       y1="617.85999"
       y2="399.85999"
       gradientUnits="userSpaceOnUse"
       gradientTransform="matrix(2.0858641,0,0,2.0858641,-676.8629,-794.11535)">
      <stop
         stop-color="#ccc"
         offset="0"
         id="stop63" />
      <stop
         stop-color="#f2f2f2"
         offset="1"
         id="stop65" />
    </linearGradient>
    <linearGradient
       id="br"
       x1="373.25"
       x2="489.75"
       y1="500.85999"
       y2="567.35999"
       gradientUnits="userSpaceOnUse"
       gradientTransform="matrix(2.0858641,0,0,2.0858641,-676.8629,-401.4178)">
      <stop
         stop-color="#f00"
         offset="0"
         id="stop68" />
      <stop
         stop-color="#f60"
         offset=".15132"
         id="stop70" />
      <stop
         stop-color="#fc0"
         offset=".33592"
         id="stop72" />
      <stop
         stop-color="#00d400"
         offset=".54215"
         id="stop74" />
      <stop
         stop-color="#00f"
         offset=".76367"
         id="stop76" />
      <stop
         stop-color="#40a"
         offset="1"
         id="stop78" />
    </linearGradient>
    <linearGradient
       id="bq"
       x1="460.60001"
       x2="460.78"
       y1="663.09998"
       y2="729.13"
       gradientUnits="userSpaceOnUse">
      <stop
         stop-color="#0097e8"
         offset="0"
         id="stop81" />
      <stop
         stop-color="#d6f1ff"
         offset="1"
         id="stop83" />
    </linearGradient>
    <linearGradient
       id="bp"
       x1="488"
       x2="359"
       y1="290"
       y2="143"
       gradientTransform="matrix(0.125,-0.04335,0,0.125,391.92,521.42)"
       gradientUnits="userSpaceOnUse">
      <stop
         stop-color="#d3b876"
         offset="0"
         id="stop86" />
      <stop
         stop-color="#e2d0a5"
         offset="1"
         id="stop88" />
    </linearGradient>
    <linearGradient
       id="h"
       x1="35"
       x2="144"
       y1="126.5"
       y2="185.5"
       gradientUnits="userSpaceOnUse">
      <stop
         stop-color="#8e8888"
         offset="0"
         id="stop91" />
      <stop
         stop-color="#d8d8d8"
         offset="1"
         id="stop93" />
    </linearGradient>
    <linearGradient
       id="bk"
       x1="460.32999"
       x2="452.26001"
       y1="707.29999"
       y2="697.90997"
       gradientUnits="userSpaceOnUse">
      <stop
         stop-color="#08598c"
         offset="0"
         id="stop96" />
      <stop
         stop-color="#1a9ef2"
         offset="1"
         id="stop98" />
    </linearGradient>
    <linearGradient
       id="x"
       x1="334"
       x2="345.5"
       y1="416.35999"
       y2="463.35999"
       gradientUnits="userSpaceOnUse"
       gradientTransform="matrix(2.0858641,0,0,2.0858641,-676.8629,-794.11535)">
      <stop
         stop-color="#666"
         offset="0"
         id="stop101" />
      <stop
         offset="1"
         id="stop103" />
    </linearGradient>
    <linearGradient
       id="w"
       x1="353.38"
       x2="340.45999"
       y1="429.85999"
       y2="447.64001"
       gradientUnits="userSpaceOnUse"
       gradientTransform="matrix(2.0858641,0,0,2.0858641,-676.8629,-794.11535)">
      <stop
         offset="0"
         id="stop106" />
      <stop
         stop-opacity="0"
         offset="1"
         id="stop108" />
    </linearGradient>
    <linearGradient
       id="bt"
       x1="341.5"
       x2="345"
       y1="607.85999"
       y2="420.35999"
       gradientUnits="userSpaceOnUse"
       xlink:href="#j"
       gradientTransform="matrix(2.0858641,0,0,2.0858641,-676.8629,-794.11535)" />
    <linearGradient
       id="i"
       x1="111"
       x2="173"
       y1="224"
       y2="367"
       gradientUnits="userSpaceOnUse"
       xlink:href="#a" />
    <linearGradient
       id="bo"
       x1="366"
       x2="454"
       y1="194"
       y2="416"
       gradientTransform="matrix(0.125,-0.04335,0,0.125,391.92,521.42)"
       gradientUnits="userSpaceOnUse"
       xlink:href="#f" />
    <linearGradient
       id="bn"
       x1="296.31"
       x2="346.47"
       y1="151.19"
       y2="175.75"
       gradientTransform="matrix(0.125,-0.04335,0,0.125,391.92,521.42)"
       gradientUnits="userSpaceOnUse"
       xlink:href="#f" />
    <linearGradient
       id="bm"
       x1="417.03"
       x2="517.84998"
       y1="381.16"
       y2="502.51001"
       gradientTransform="matrix(0.125,-0.04335,0,0.125,394.05,520.68)"
       gradientUnits="userSpaceOnUse"
       xlink:href="#c" />
    <linearGradient
       id="bl"
       x1="508.42001"
       x2="422.54999"
       y1="512.91998"
       y2="392.92001"
       gradientTransform="matrix(0.125,-0.04335,0,0.125,394.05,520.68)"
       gradientUnits="userSpaceOnUse"
       xlink:href="#c" />
    <linearGradient
       id="bj"
       x1="323.92999"
       x2="313.10999"
       y1="407.13"
       y2="350.41"
       gradientTransform="matrix(0.125,-0.04335,0,0.125,390.53,522.03)"
       gradientUnits="userSpaceOnUse"
       xlink:href="#d" />
    <linearGradient
       id="bi"
       x1="298.92999"
       x2="330.10999"
       y1="404.81"
       y2="350.41"
       gradientTransform="matrix(-0.125,0.04335,0,0.125,477.83,492)"
       gradientUnits="userSpaceOnUse"
       xlink:href="#d" />
    <linearGradient
       id="bh"
       x1="320.98999"
       x2="296.73001"
       y1="351.17999"
       y2="320"
       gradientTransform="matrix(0.125,-0.04335,0,0.125,390.3,522.1)"
       gradientUnits="userSpaceOnUse"
       xlink:href="#d" />
    <linearGradient
       id="bg"
       x1="295.66"
       x2="322.39999"
       y1="359.67999"
       y2="322.17001"
       gradientTransform="matrix(-0.125,0.04335,0,0.125,477.83,492)"
       gradientUnits="userSpaceOnUse"
       xlink:href="#d" />
    <linearGradient
       id="bf"
       x1="289"
       x2="389"
       y1="317"
       y2="410.06"
       gradientTransform="matrix(0.125,-0.04335,0,0.125,391.67,521.63)"
       gradientUnits="userSpaceOnUse"
       xlink:href="#c" />
    <linearGradient
       id="be"
       x1="512.56"
       x2="506.76001"
       y1="447.81"
       y2="441.54001"
       gradientUnits="userSpaceOnUse"
       xlink:href="#g" />
    <linearGradient
       id="bd"
       x1="507.45001"
       x2="514.65002"
       y1="439.67999"
       y2="446.88"
       gradientUnits="userSpaceOnUse"
       xlink:href="#g" />
    <linearGradient
       id="bc"
       x1="37"
       x2="40"
       y1="487"
       y2="536.27002"
       gradientTransform="matrix(0.125,-0.04335,0,0.125,401.3,520.41)"
       gradientUnits="userSpaceOnUse"
       xlink:href="#a" />
    <linearGradient
       id="bb"
       x1="37"
       x2="40"
       y1="487"
       y2="536.27002"
       gradientTransform="matrix(0.125,-0.04335,0,0.125,409.3,517.64)"
       gradientUnits="userSpaceOnUse"
       xlink:href="#a" />
    <linearGradient
       id="ba"
       x1="37"
       x2="40"
       y1="487"
       y2="536.27002"
       gradientTransform="matrix(0.125,-0.04335,0,0.125,419.3,514.17)"
       gradientUnits="userSpaceOnUse"
       xlink:href="#a" />
    <linearGradient
       id="az"
       x1="37"
       x2="40"
       y1="487"
       y2="536.27002"
       gradientTransform="matrix(0.125,-0.04335,0,0.125,429.55,510.62)"
       gradientUnits="userSpaceOnUse"
       xlink:href="#a" />
    <linearGradient
       id="ay"
       x1="37"
       x2="40"
       y1="487"
       y2="536.27002"
       gradientTransform="matrix(0.125,-0.04335,0,0.125,438.55,507.5)"
       gradientUnits="userSpaceOnUse"
       xlink:href="#a" />
    <linearGradient
       id="ax"
       x1="37"
       x2="40"
       y1="487"
       y2="536.27002"
       gradientTransform="matrix(0.125,-0.04335,0,0.125,447.8,504.29)"
       gradientUnits="userSpaceOnUse"
       xlink:href="#a" />
    <linearGradient
       id="aw"
       x1="37"
       x2="40"
       y1="487"
       y2="536.27002"
       gradientTransform="matrix(0.125,-0.04335,0,0.125,456.05,501.43)"
       gradientUnits="userSpaceOnUse"
       xlink:href="#a" />
    <linearGradient
       id="av"
       x1="37"
       x2="40"
       y1="487"
       y2="536.27002"
       gradientTransform="matrix(0.125,-0.04335,0,0.125,465.42,498.18)"
       gradientUnits="userSpaceOnUse"
       xlink:href="#a" />
    <linearGradient
       id="au"
       x1="37"
       x2="40"
       y1="487"
       y2="536.27002"
       gradientTransform="matrix(0.125,-0.04335,0,0.125,473.8,495.27)"
       gradientUnits="userSpaceOnUse"
       xlink:href="#a" />
    <linearGradient
       id="e"
       x1="35"
       x2="144"
       y1="126.5"
       y2="185.5"
       gradientUnits="userSpaceOnUse"
       xlink:href="#d" />
    <linearGradient
       id="at"
       x1="50"
       x2="51"
       y1="509"
       y2="541"
       gradientTransform="matrix(0.125,-0.04335,0,0.125,391.92,521.42)"
       gradientUnits="userSpaceOnUse"
       xlink:href="#a" />
    <linearGradient
       id="as"
       x1="121"
       x2="192"
       y1="356"
       y2="466"
       gradientTransform="matrix(0.125,-0.04335,0,0.125,391.92,521.42)"
       gradientUnits="userSpaceOnUse"
       xlink:href="#c" />
    <linearGradient
       id="ar"
       x1="430.19"
       x2="542.76001"
       y1="320.57999"
       y2="360.20999"
       gradientTransform="matrix(0.125,-0.04335,0,0.125,391.92,521.42)"
       gradientUnits="userSpaceOnUse"
       xlink:href="#c" />
    <linearGradient
       id="aq"
       x1="541.03998"
       x2="456.60999"
       y1="375.72"
       y2="321.14999"
       gradientTransform="matrix(0.125,-0.04335,0,0.125,391.92,521.42)"
       gradientUnits="userSpaceOnUse"
       xlink:href="#c" />
    <linearGradient
       id="ap"
       x1="546.21002"
       x2="563.44"
       y1="332.35001"
       y2="353.03"
       gradientTransform="matrix(0.19111,0,0,0.11835,382.7,659.47)"
       gradientUnits="userSpaceOnUse"
       xlink:href="#f" />
    <linearGradient
       id="m"
       x1="546.21002"
       x2="563.44"
       y1="332.35001"
       y2="353.03"
       gradientTransform="matrix(0.19111,0,0,0.11835,364.24,659.47)"
       gradientUnits="userSpaceOnUse"
       xlink:href="#f" />
    <linearGradient
       id="ao"
       x1="546.21002"
       x2="563.44"
       y1="332.35001"
       y2="353.03"
       gradientTransform="matrix(0.35281,0,0,0.10771,294.38,672.3)"
       gradientUnits="userSpaceOnUse"
       xlink:href="#f" />
    <linearGradient
       id="an"
       x1="546.21002"
       x2="556.53998"
       y1="332.35001"
       y2="367.03"
       gradientTransform="matrix(0.29401,0,0,0.07713,326.8,683.35)"
       gradientUnits="userSpaceOnUse"
       xlink:href="#d" />
    <linearGradient
       id="am"
       x1="765"
       x2="766"
       y1="511"
       y2="546"
       gradientTransform="matrix(0.125,-0.04335,0,0.125,391.92,521.42)"
       gradientUnits="userSpaceOnUse"
       xlink:href="#a" />
    <linearGradient
       id="al"
       x1="680.89001"
       x2="704.63"
       gradientTransform="matrix(0.16679,-0.1354,0.04087,0.07371,343.06,611.21)"
       gradientUnits="userSpaceOnUse"
       xlink:href="#a" />
    <linearGradient
       id="ak"
       x1="667.5"
       x2="737.41998"
       gradientTransform="matrix(0.125,-0.04335,0,0.125,391.92,521.42)"
       gradientUnits="userSpaceOnUse"
       xlink:href="#a" />
    <linearGradient
       id="aj"
       x1="-118.57"
       x2="-143.53999"
       y1="564.53003"
       y2="523.90002"
       gradientTransform="matrix(0.125,-0.04335,0,0.125,489.55,476.31)"
       gradientUnits="userSpaceOnUse"
       xlink:href="#b" />
    <linearGradient
       id="ai"
       x1="-122.06"
       x2="-112.93"
       y1="515.73999"
       y2="530.90002"
       gradientTransform="matrix(0.125,-0.04335,0,0.125,489.55,476.31)"
       gradientUnits="userSpaceOnUse"
       xlink:href="#b" />
    <linearGradient
       id="ah"
       x1="-114.87"
       x2="-104.28"
       y1="536.15002"
       y2="554.32001"
       gradientTransform="matrix(0.125,-0.04335,0,0.125,489.55,476.31)"
       gradientUnits="userSpaceOnUse"
       xlink:href="#b" />
    <linearGradient
       id="ag"
       x1="-129.94"
       x2="-122.36"
       y1="552.38"
       y2="568.32001"
       gradientTransform="matrix(0.125,-0.04335,0,0.125,489.55,476.31)"
       gradientUnits="userSpaceOnUse"
       xlink:href="#b" />
    <linearGradient
       id="af"
       x1="-147.14"
       x2="-136.35001"
       y1="517.59003"
       y2="533.03998"
       gradientTransform="matrix(0.125,-0.04335,0,0.125,489.55,476.31)"
       gradientUnits="userSpaceOnUse"
       xlink:href="#b" />
    <linearGradient
       id="ae"
       x1="-150.25"
       x2="-139.56"
       y1="538.58002"
       y2="555"
       gradientTransform="matrix(0.125,-0.04335,0,0.125,489.55,476.31)"
       gradientUnits="userSpaceOnUse"
       xlink:href="#b" />
    <linearGradient
       id="l"
       x1="317.85001"
       x2="213.78999"
       y1="292.07999"
       y2="189.69"
       gradientUnits="userSpaceOnUse"
       xlink:href="#g" />
    <linearGradient
       id="k"
       x1="200.08"
       x2="315.42999"
       y1="200.55"
       y2="292.07999"
       gradientUnits="userSpaceOnUse"
       xlink:href="#g" />
    <linearGradient
       id="ad"
       x1="-118.57"
       x2="-143.53999"
       y1="564.53003"
       y2="523.90002"
       gradientTransform="matrix(0.11722,0.00275,-0.04341,0.13227,522.82,474.86)"
       gradientUnits="userSpaceOnUse"
       xlink:href="#b" />
    <linearGradient
       id="ac"
       x1="-122.06"
       x2="-112.93"
       y1="515.73999"
       y2="530.90002"
       gradientTransform="matrix(0.11722,0.00275,-0.04341,0.13227,522.82,474.86)"
       gradientUnits="userSpaceOnUse"
       xlink:href="#b" />
    <linearGradient
       id="ab"
       x1="-114.87"
       x2="-104.28"
       y1="536.15002"
       y2="554.32001"
       gradientTransform="matrix(0.11722,0.00275,-0.04341,0.13227,522.82,474.86)"
       gradientUnits="userSpaceOnUse"
       xlink:href="#b" />
    <linearGradient
       id="aa"
       x1="-129.94"
       x2="-122.36"
       y1="552.38"
       y2="568.32001"
       gradientTransform="matrix(0.11722,0.00275,-0.04341,0.13227,522.82,474.86)"
       gradientUnits="userSpaceOnUse"
       xlink:href="#b" />
    <linearGradient
       id="z"
       x1="-147.14"
       x2="-136.35001"
       y1="517.59003"
       y2="533.03998"
       gradientTransform="matrix(0.11722,0.00275,-0.04341,0.13227,522.82,474.86)"
       gradientUnits="userSpaceOnUse"
       xlink:href="#b" />
    <linearGradient
       id="y"
       x1="-150.25"
       x2="-139.56"
       y1="538.58002"
       y2="555"
       gradientTransform="matrix(0.11722,0.00275,-0.04341,0.13227,522.82,474.86)"
       gradientUnits="userSpaceOnUse"
       xlink:href="#b" />
    <linearGradient
       id="v"
       x1="350.19"
       x2="334.25"
       y1="425.98999"
       y2="441.48999"
       gradientUnits="userSpaceOnUse"
       xlink:href="#j"
       gradientTransform="matrix(2.0858641,0,0,2.0858641,-676.8629,-794.11535)" />
    <radialGradient
       id="u"
       cx="44.699001"
       cy="42.721001"
       r="12.239"
       gradientTransform="matrix(0.26579,-0.09217,0,0.25423,462.64,499.12)"
       gradientUnits="userSpaceOnUse">
      <stop
         stop-color="#fff"
         offset="0"
         id="stop160" />
      <stop
         stop-color="#fff"
         stop-opacity="0"
         offset="1"
         id="stop162" />
    </radialGradient>
    <clipPath
       id="clipPath4235"
       clipPathUnits="userSpaceOnUse">
      <path
         inkscape:connector-curvature="0"
         id="path4237"
         d="m 0,234 583.28,0 0,-234 L 0,0 0,234 Z" />
    </clipPath>
  </defs>
  <g
     id="g687"
     transform="translate(406.13194)" />
  <g
     id="g696">
    <path
       d="m 317.13478,2.1215529 6.77906,40.6743501 56.83979,39.370685 -10.73469,-35.261533 z"
       id="path167"
       inkscape:connector-curvature="0"
       style="fill:url(#bu);stroke-width:2.08586407" />
    <path
       d="m 12.994934,449.6437 53.736031,43.40266 V 106.5566 L 12.994934,63.153936 V 449.6437"
       id="path169"
       inkscape:connector-curvature="0"
       style="fill:url(#bt);stroke-width:2.08586407" />
    <path
       d="M 66.705934,106.51905 370.5329,44.938085 V 431.42784 L 66.705934,493.00881 Z"
       id="path171"
       inkscape:connector-curvature="0"
       style="fill:url(#bs);fill-rule:evenodd;stroke-width:2.08586407" />
    <path
       d="M 12.807206,63.153936 66.543237,106.5566 370.3702,44.975631 316.63417,1.5729706 12.807206,63.153936"
       id="path333"
       inkscape:connector-curvature="0"
       style="fill:url(#x);stroke-width:2.08586407" />
    <path
       style="stroke-width:2.08586407"
       d="M 12.994934,63.153936 66.730965,106.5566 12.994934,63.153936"
       id="path335"
       inkscape:connector-curvature="0" />
    <path
       d="m 13.558117,61.839842 -0.234534,63.900448 37.303593,28.21965 15.81523,-47.33868 z"
       id="path337"
       inkscape:connector-curvature="0"
       style="opacity:0.73999999;fill:url(#w);stroke-width:2.08586407" />
    <path
       d="M 13.558117,61.839842 4.5000013e-7,108.77178 36.502622,140.05975 66.443115,106.62334 Z"
       id="path339"
       inkscape:connector-curvature="0"
       style="fill:url(#v);stroke-width:2.08586407" />
  </g>
  <g
     id="g747"
     transform="translate(7.15091,-1.5729722)">
    <path
       style="opacity:0.62999998;fill:#cccccc;fill-rule:evenodd;stroke:#666666;stroke-width:2.05710006"
       inkscape:connector-curvature="0"
       id="path341"
       d="m 475.431,355.9884 c 0,72.30022 -58.61069,130.913 -130.913,130.913 -72.30231,0 -130.913,-58.6107 -130.913,-130.913 0,-72.30231 58.61069,-130.91301 130.913,-130.91301 72.30231,0 130.913,58.6107 130.913,130.91301 z m 8.00013,0 c 0,76.72016 -62.19421,138.91229 -138.91229,138.91229 -76.71809,0 -138.9123,-62.19421 -138.9123,-138.91229 0,-76.71808 62.19421,-138.91229 138.9123,-138.91229 76.71808,0 138.91229,62.19421 138.91229,138.91229 z" />
    <path
       style="opacity:0.62999998;fill:#cccccc;fill-rule:evenodd;stroke:#666666;stroke-width:2.05708957"
       inkscape:connector-curvature="0"
       id="path343"
       d="m 364.43488,355.98214 c 0,10.99678 -8.91456,19.91166 -19.91166,19.91166 -10.99709,0 -19.91166,-8.91456 -19.91166,-19.91166 0,-10.99709 8.91457,-19.91165 19.91166,-19.91165 10.9971,0 19.91166,8.91456 19.91166,19.91165 z m 25.81132,10e-6 c 0,25.25189 -20.47078,45.72423 -45.72423,45.72423 -25.25345,0 -45.72423,-20.47077 -45.72423,-45.72423 0,-25.25345 20.47078,-45.72422 45.72423,-45.72422 25.25345,0 45.72423,20.47077 45.72423,45.72422 z" />
    <path
       style="fill:#999999;fill-rule:evenodd;stroke-width:0.71845502"
       inkscape:connector-curvature="0"
       id="path345"
       d="m 390.24869,355.98282 c 0,25.25154 -20.47022,45.72248 -45.72248,45.72248 -25.25226,0 -45.72248,-20.47022 -45.72248,-45.72248 0,-25.25225 20.47022,-45.72248 45.72248,-45.72248 25.25226,0 45.72248,20.47023 45.72248,45.72248 z m 87.01927,0 c 0,73.31115 -59.4306,132.74175 -132.74175,132.74175 -73.31115,0 -132.74175,-59.4306 -132.74175,-132.74175 0,-73.31116 59.4306,-132.74176 132.74175,-132.74176 73.31115,0 132.74175,59.4306 132.74175,132.74176 z" />
    <path
       style="opacity:0.32000002;fill:none;stroke:#666666;stroke-width:2.05710006"
       inkscape:connector-curvature="0"
       id="path347"
       d="m 378.43832,355.9884 c 0,18.73544 -15.18801,33.92241 -33.9224,33.92241 -18.7344,0 -33.92241,-15.18802 -33.92241,-33.92241 0,-18.7344 15.18801,-33.92241 33.92241,-33.92241 18.73439,0 33.9224,15.18801 33.9224,33.92241 z" />
    <g
       style="opacity:0.54259997"
       id="g373"
       transform="matrix(2.0858641,0,0,2.0858641,-676.8629,-794.11535)">
      <path
         style="fill:#ff0000;filter:url(#n)"
         inkscape:connector-curvature="0"
         id="path349"
         d="m 430.31,529.03 c -1.0697,2.8552 -1.9434,5.7841 -2.5963,8.7838 l 40.736,8.9493 c 0.22939,-1.0782 0.54681,-2.1372 0.93225,-3.1615 l -39.071,-14.572 z" />
      <path
         style="fill:#ffff00;filter:url(#o)"
         inkscape:connector-curvature="0"
         id="path351"
         d="m 438.47,513.84 c -1.8419,2.5312 -3.5014,5.1886 -4.9525,7.9592 l 37.042,19.192 c 0.54254,-1.0169 1.181,-1.9761 1.8767,-2.8969 l -33.966,-24.254 z" />
      <path
         style="fill:#0000ff;filter:url(#p)"
         inkscape:connector-curvature="0"
         id="path353"
         d="m 450.59,501.27 c -2.5109,1.9745 -4.8514,4.1038 -7.0177,6.4097 l 30.832,28.135 c 0.84878,-0.85081 1.7451,-1.6431 2.7349,-2.3504 l -26.55,-32.194 z" />
      <path
         style="fill:#ff6600;filter:url(#q)"
         inkscape:connector-curvature="0"
         id="path355"
         d="m 433.92,521.04 c -1.4679,2.713 -2.7286,5.5204 -3.7924,8.4249 l 39.188,14.282 c 0.38767,-1.0528 0.83963,-2.0764 1.3813,-3.0554 l -36.777,-19.651 z" />
      <path
         style="fill:#008000;filter:url(#r)"
         inkscape:connector-curvature="0"
         id="path357"
         d="m 444.31,506.9 c -2.1908,2.2552 -4.2298,4.68 -6.0565,7.2198 l 34.107,24.055 c 0.70359,-0.94115 1.4772,-1.8406 2.3278,-2.662 l -30.378,-28.613 z" />
      <path
         style="fill:#800080;filter:url(#s)"
         inkscape:connector-curvature="0"
         id="path359"
         d="m 458.6,495.89 c -2.7845,1.5708 -5.4232,3.3481 -7.9007,5.2875 l 26.497,32.241 c 0.98455,-0.69887 2.0496,-1.3143 3.1602,-1.8497 l -21.696,-35.695 c -0.0177,0.01 -0.0426,0.006 -0.0604,0.0162 z" />
      <path
         style="fill:#ff0000;filter:url(#n)"
         inkscape:connector-curvature="0"
         id="path361"
         d="m 549.01,573.36 c 1.0697,-2.8552 1.9434,-5.7841 2.5963,-8.7838 l -40.736,-8.9493 c -0.22939,1.0782 -0.54681,2.1372 -0.93225,3.1615 l 39.071,14.572 z" />
      <path
         style="fill:#ffff00;filter:url(#o)"
         inkscape:connector-curvature="0"
         id="path363"
         d="m 540.85,588.55 c 1.8419,-2.5312 3.5014,-5.1886 4.9525,-7.9592 l -37.042,-19.192 c -0.54254,1.0169 -1.181,1.9761 -1.8767,2.8969 l 33.966,24.254 z" />
      <path
         style="fill:#0000ff;filter:url(#p)"
         inkscape:connector-curvature="0"
         id="path365"
         d="m 528.72,601.12 c 2.5109,-1.9745 4.8514,-4.1038 7.0177,-6.4097 l -30.832,-28.135 c -0.84878,0.85081 -1.7451,1.6431 -2.7349,2.3504 l 26.55,32.194 z" />
      <path
         style="fill:#ff6600;filter:url(#q)"
         inkscape:connector-curvature="0"
         id="path367"
         d="m 545.39,581.35 c 1.4679,-2.713 2.7286,-5.5204 3.7924,-8.4249 l -39.188,-14.282 c -0.38767,1.0528 -0.83963,2.0764 -1.3813,3.0554 l 36.777,19.651 z" />
      <path
         style="fill:#008000;filter:url(#r)"
         inkscape:connector-curvature="0"
         id="path369"
         d="m 535.01,595.48 c 2.1908,-2.2552 4.2298,-4.68 6.0565,-7.2198 l -34.107,-24.055 c -0.70359,0.94115 -1.4772,1.8406 -2.3278,2.662 l 30.378,28.613 z" />
      <path
         style="fill:#800080;filter:url(#s)"
         inkscape:connector-curvature="0"
         id="path371"
         d="m 520.72,606.5 c 2.7845,-1.5708 5.4232,-3.3481 7.9007,-5.2875 l -26.497,-32.241 c -0.98455,0.69887 -2.0496,1.3143 -3.1602,1.8497 l 21.696,35.695 c 0.0177,-0.01 0.0426,-0.006 0.0604,-0.0162 z" />
    </g>
    <path
       style="fill:#ffffff;fill-rule:evenodd;filter:url(#t)"
       inkscape:connector-curvature="0"
       id="path375"
       d="m 512.34,492.34 -14.531,46.062 c 7.78,1.0288 5.2964,-2.375 8.2812,4.5938 l 34.844,-27.406 c -9.1113,-18.75 -7.1477,-20.33 -28.594,-23.25 z"
       transform="matrix(2.0858641,0,0,2.0858641,-676.8629,-794.11535)" />
    <path
       style="fill:#ffffff;fill-rule:evenodd;filter:url(#t)"
       inkscape:connector-curvature="0"
       id="path377"
       d="m 512.34,492.34 -16.531,46.062 c 7.78,1.0288 -4.9536,3.875 -1.9688,10.844 l 47.094,-33.656 c -9.1113,-18.75 -7.1477,-20.33 -28.594,-23.25 z"
       transform="matrix(-2.0858641,0,0,-2.0858641,1370.4127,1512.016)" />
  </g>
</svg>
