<?xml version="1.0" encoding="UTF-8" standalone="no"?>
<svg
   xmlns:dc="http://purl.org/dc/elements/1.1/"
   xmlns:cc="http://creativecommons.org/ns#"
   xmlns:rdf="http://www.w3.org/1999/02/22-rdf-syntax-ns#"
   xmlns:svg="http://www.w3.org/2000/svg"
   xmlns="http://www.w3.org/2000/svg"
   xmlns:xlink="http://www.w3.org/1999/xlink"
   xmlns:sodipodi="http://sodipodi.sourceforge.net/DTD/sodipodi-0.dtd"
   xmlns:inkscape="http://www.inkscape.org/namespaces/inkscape"
   viewBox="0 0 512.00001 512"
   version="1.1"
   id="svg381"
   sodipodi:docname="InstallerIconBuildEngine.svg"
   width="512"
   height="512"
   inkscape:version="0.92.1 r15371"
   inkscape:export-filename="D:\Simon\Incoming\InstallerIconBuildEngine.png"
   inkscape:export-xdpi="96"
   inkscape:export-ydpi="96">
  <metadata
     id="metadata385">
    <rdf:RDF>
      <cc:Work
         rdf:about="">
        <dc:format>image/svg+xml</dc:format>
        <dc:type
           rdf:resource="http://purl.org/dc/dcmitype/StillImage" />
        <dc:title />
      </cc:Work>
    </rdf:RDF>
  </metadata>
  <sodipodi:namedview
     pagecolor="#ffffff"
     bordercolor="#666666"
     borderopacity="1"
     objecttolerance="10"
     gridtolerance="10"
     guidetolerance="10"
     inkscape:pageopacity="0"
     inkscape:pageshadow="2"
     inkscape:window-width="1920"
     inkscape:window-height="1017"
     id="namedview383"
     showgrid="false"
     inkscape:zoom="0.48383292"
     inkscape:cx="78.958376"
     inkscape:cy="308.26861"
     inkscape:window-x="-8"
     inkscape:window-y="-8"
     inkscape:window-maximized="1"
     inkscape:current-layer="svg381" />
  <defs
     id="defs165">
    <filter
       id="t"
       x="-0.26107001"
       y="-0.2402"
       width="1.5222"
       height="1.4804">
      <feGaussianBlur
         stdDeviation="5.04472"
         id="feGaussianBlur2" />
    </filter>
    <filter
       id="s"
       x="-0.42704001"
       y="-0.33733001"
       width="1.8541"
       height="1.6747">
      <feGaussianBlur
         stdDeviation="5.27704"
         id="feGaussianBlur5" />
    </filter>
    <filter
       id="r"
       x="-0.34761"
       y="-0.40496001"
       width="1.6952"
       height="1.8099">
      <feGaussianBlur
         stdDeviation="5.27704"
         id="feGaussianBlur8" />
    </filter>
    <filter
       id="q"
       x="-0.31218001"
       y="-0.55777001"
       width="1.6244"
       height="2.1155">
      <feGaussianBlur
         stdDeviation="5.27704"
         id="feGaussianBlur11" />
    </filter>
    <filter
       id="p"
       x="-0.37729999"
       y="-0.36662"
       width="1.7546"
       height="1.7332">
      <feGaussianBlur
         stdDeviation="5.27704"
         id="feGaussianBlur14" />
    </filter>
    <filter
       id="o"
       x="-0.32541999"
       y="-0.46645999"
       width="1.6508"
       height="1.9329">
      <feGaussianBlur
         stdDeviation="5.27704"
         id="feGaussianBlur17" />
    </filter>
    <filter
       id="n"
       x="-0.30395001"
       y="-0.71420002"
       width="1.6079"
       height="2.4284">
      <feGaussianBlur
         stdDeviation="5.27704"
         id="feGaussianBlur20" />
    </filter>
    <linearGradient
       id="j">
      <stop
         stop-color="#999"
         offset="0"
         id="stop23" />
      <stop
         stop-color="#e6e6e6"
         offset="1"
         id="stop25" />
    </linearGradient>
    <linearGradient
       id="d">
      <stop
         stop-color="#bfbcbc"
         offset="0"
         id="stop28" />
      <stop
         stop-color="#fff"
         offset="1"
         id="stop30" />
    </linearGradient>
    <linearGradient
       id="c">
      <stop
         stop-color="#8c6508"
         offset="0"
         id="stop33" />
      <stop
         stop-color="#ad7d09"
         offset="1"
         id="stop35" />
    </linearGradient>
    <linearGradient
       id="f">
      <stop
         stop-color="#d2691e"
         offset="0"
         id="stop38" />
      <stop
         stop-color="#e3813a"
         offset="1"
         id="stop40" />
    </linearGradient>
    <linearGradient
       id="g">
      <stop
         stop-color="#f4e477"
         offset="0"
         id="stop43" />
      <stop
         stop-color="#e6d24e"
         offset="1"
         id="stop45" />
    </linearGradient>
    <linearGradient
       id="a">
      <stop
         stop-color="#90f2a4"
         offset="0"
         id="stop48" />
      <stop
         stop-color="#0f3"
         offset="1"
         id="stop50" />
    </linearGradient>
    <linearGradient
       id="b">
      <stop
         stop-color="#545bff"
         offset="0"
         id="stop53" />
      <stop
         stop-color="#000aeb"
         offset="1"
         id="stop55" />
    </linearGradient>
    <linearGradient
       id="bu"
       x1="496.57001"
       x2="495.85999"
       y1="397.92999"
       y2="417.73001"
       gradientUnits="userSpaceOnUse"
       gradientTransform="matrix(2.0858641,0,0,2.0858641,-676.8629,-794.11535)">
      <stop
         stop-color="#666"
         offset="0"
         id="stop58" />
      <stop
         stop-color="#e6e6e6"
         offset="1"
         id="stop60" />
    </linearGradient>
    <linearGradient
       id="bs"
       x1="361.5"
       x2="548"
       y1="617.85999"
       y2="399.85999"
       gradientUnits="userSpaceOnUse"
       gradientTransform="matrix(2.0858641,0,0,2.0858641,-676.8629,-794.11535)">
      <stop
         stop-color="#ccc"
         offset="0"
         id="stop63" />
      <stop
         stop-color="#f2f2f2"
         offset="1"
         id="stop65" />
    </linearGradient>
    <linearGradient
       id="br"
       x1="373.25"
       x2="489.75"
       y1="500.85999"
       y2="567.35999"
       gradientUnits="userSpaceOnUse"
       gradientTransform="matrix(2.0858641,0,0,2.0858641,-676.8629,-401.4178)">
      <stop
         stop-color="#f00"
         offset="0"
         id="stop68" />
      <stop
         stop-color="#f60"
         offset=".15132"
         id="stop70" />
      <stop
         stop-color="#fc0"
         offset=".33592"
         id="stop72" />
      <stop
         stop-color="#00d400"
         offset=".54215"
         id="stop74" />
      <stop
         stop-color="#00f"
         offset=".76367"
         id="stop76" />
      <stop
         stop-color="#40a"
         offset="1"
         id="stop78" />
    </linearGradient>
    <linearGradient
       id="bq"
       x1="460.60001"
       x2="460.78"
       y1="663.09998"
       y2="729.13"
       gradientUnits="userSpaceOnUse">
      <stop
         stop-color="#0097e8"
         offset="0"
         id="stop81" />
      <stop
         stop-color="#d6f1ff"
         offset="1"
         id="stop83" />
    </linearGradient>
    <linearGradient
       id="bp"
       x1="488"
       x2="359"
       y1="290"
       y2="143"
       gradientTransform="matrix(0.125,-0.04335,0,0.125,391.92,521.42)"
       gradientUnits="userSpaceOnUse">
      <stop
         stop-color="#d3b876"
         offset="0"
         id="stop86" />
      <stop
         stop-color="#e2d0a5"
         offset="1"
         id="stop88" />
    </linearGradient>
    <linearGradient
       id="h"
       x1="35"
       x2="144"
       y1="126.5"
       y2="185.5"
       gradientUnits="userSpaceOnUse">
      <stop
         stop-color="#8e8888"
         offset="0"
         id="stop91" />
      <stop
         stop-color="#d8d8d8"
         offset="1"
         id="stop93" />
    </linearGradient>
    <linearGradient
       id="bk"
       x1="460.32999"
       x2="452.26001"
       y1="707.29999"
       y2="697.90997"
       gradientUnits="userSpaceOnUse">
      <stop
         stop-color="#08598c"
         offset="0"
         id="stop96" />
      <stop
         stop-color="#1a9ef2"
         offset="1"
         id="stop98" />
    </linearGradient>
    <linearGradient
       id="x"
       x1="334"
       x2="345.5"
       y1="416.35999"
       y2="463.35999"
       gradientUnits="userSpaceOnUse"
       gradientTransform="matrix(2.0858641,0,0,2.0858641,-676.8629,-794.11535)">
      <stop
         stop-color="#666"
         offset="0"
         id="stop101" />
      <stop
         offset="1"
         id="stop103" />
    </linearGradient>
    <linearGradient
       id="w"
       x1="353.38"
       x2="340.45999"
       y1="429.85999"
       y2="447.64001"
       gradientUnits="userSpaceOnUse"
       gradientTransform="matrix(2.0858641,0,0,2.0858641,-676.8629,-794.11535)">
      <stop
         offset="0"
         id="stop106" />
      <stop
         stop-opacity="0"
         offset="1"
         id="stop108" />
    </linearGradient>
    <linearGradient
       id="bt"
       x1="341.5"
       x2="345"
       y1="607.85999"
       y2="420.35999"
       gradientUnits="userSpaceOnUse"
       xlink:href="#j"
       gradientTransform="matrix(2.0858641,0,0,2.0858641,-676.8629,-794.11535)" />
    <linearGradient
       id="i"
       x1="111"
       x2="173"
       y1="224"
       y2="367"
       gradientUnits="userSpaceOnUse"
       xlink:href="#a" />
    <linearGradient
       id="bo"
       x1="366"
       x2="454"
       y1="194"
       y2="416"
       gradientTransform="matrix(0.125,-0.04335,0,0.125,391.92,521.42)"
       gradientUnits="userSpaceOnUse"
       xlink:href="#f" />
    <linearGradient
       id="bn"
       x1="296.31"
       x2="346.47"
       y1="151.19"
       y2="175.75"
       gradientTransform="matrix(0.125,-0.04335,0,0.125,391.92,521.42)"
       gradientUnits="userSpaceOnUse"
       xlink:href="#f" />
    <linearGradient
       id="bm"
       x1="417.03"
       x2="517.84998"
       y1="381.16"
       y2="502.51001"
       gradientTransform="matrix(0.125,-0.04335,0,0.125,394.05,520.68)"
       gradientUnits="userSpaceOnUse"
       xlink:href="#c" />
    <linearGradient
       id="bl"
       x1="508.42001"
       x2="422.54999"
       y1="512.91998"
       y2="392.92001"
       gradientTransform="matrix(0.125,-0.04335,0,0.125,394.05,520.68)"
       gradientUnits="userSpaceOnUse"
       xlink:href="#c" />
    <linearGradient
       id="bj"
       x1="323.92999"
       x2="313.10999"
       y1="407.13"
       y2="350.41"
       gradientTransform="matrix(0.125,-0.04335,0,0.125,390.53,522.03)"
       gradientUnits="userSpaceOnUse"
       xlink:href="#d" />
    <linearGradient
       id="bi"
       x1="298.92999"
       x2="330.10999"
       y1="404.81"
       y2="350.41"
       gradientTransform="matrix(-0.125,0.04335,0,0.125,477.83,492)"
       gradientUnits="userSpaceOnUse"
       xlink:href="#d" />
    <linearGradient
       id="bh"
       x1="320.98999"
       x2="296.73001"
       y1="351.17999"
       y2="320"
       gradientTransform="matrix(0.125,-0.04335,0,0.125,390.3,522.1)"
       gradientUnits="userSpaceOnUse"
       xlink:href="#d" />
    <linearGradient
       id="bg"
       x1="295.66"
       x2="322.39999"
       y1="359.67999"
       y2="322.17001"
       gradientTransform="matrix(-0.125,0.04335,0,0.125,477.83,492)"
       gradientUnits="userSpaceOnUse"
       xlink:href="#d" />
    <linearGradient
       id="bf"
       x1="289"
       x2="389"
       y1="317"
       y2="410.06"
       gradientTransform="matrix(0.125,-0.04335,0,0.125,391.67,521.63)"
       gradientUnits="userSpaceOnUse"
       xlink:href="#c" />
    <linearGradient
       id="be"
       x1="512.56"
       x2="506.76001"
       y1="447.81"
       y2="441.54001"
       gradientUnits="userSpaceOnUse"
       xlink:href="#g" />
    <linearGradient
       id="bd"
       x1="507.45001"
       x2="514.65002"
       y1="439.67999"
       y2="446.88"
       gradientUnits="userSpaceOnUse"
       xlink:href="#g" />
    <linearGradient
       id="bc"
       x1="37"
       x2="40"
       y1="487"
       y2="536.27002"
       gradientTransform="matrix(0.125,-0.04335,0,0.125,401.3,520.41)"
       gradientUnits="userSpaceOnUse"
       xlink:href="#a" />
    <linearGradient
       id="bb"
       x1="37"
       x2="40"
       y1="487"
       y2="536.27002"
       gradientTransform="matrix(0.125,-0.04335,0,0.125,409.3,517.64)"
       gradientUnits="userSpaceOnUse"
       xlink:href="#a" />
    <linearGradient
       id="ba"
       x1="37"
       x2="40"
       y1="487"
       y2="536.27002"
       gradientTransform="matrix(0.125,-0.04335,0,0.125,419.3,514.17)"
       gradientUnits="userSpaceOnUse"
       xlink:href="#a" />
    <linearGradient
       id="az"
       x1="37"
       x2="40"
       y1="487"
       y2="536.27002"
       gradientTransform="matrix(0.125,-0.04335,0,0.125,429.55,510.62)"
       gradientUnits="userSpaceOnUse"
       xlink:href="#a" />
    <linearGradient
       id="ay"
       x1="37"
       x2="40"
       y1="487"
       y2="536.27002"
       gradientTransform="matrix(0.125,-0.04335,0,0.125,438.55,507.5)"
       gradientUnits="userSpaceOnUse"
       xlink:href="#a" />
    <linearGradient
       id="ax"
       x1="37"
       x2="40"
       y1="487"
       y2="536.27002"
       gradientTransform="matrix(0.125,-0.04335,0,0.125,447.8,504.29)"
       gradientUnits="userSpaceOnUse"
       xlink:href="#a" />
    <linearGradient
       id="aw"
       x1="37"
       x2="40"
       y1="487"
       y2="536.27002"
       gradientTransform="matrix(0.125,-0.04335,0,0.125,456.05,501.43)"
       gradientUnits="userSpaceOnUse"
       xlink:href="#a" />
    <linearGradient
       id="av"
       x1="37"
       x2="40"
       y1="487"
       y2="536.27002"
       gradientTransform="matrix(0.125,-0.04335,0,0.125,465.42,498.18)"
       gradientUnits="userSpaceOnUse"
       xlink:href="#a" />
    <linearGradient
       id="au"
       x1="37"
       x2="40"
       y1="487"
       y2="536.27002"
       gradientTransform="matrix(0.125,-0.04335,0,0.125,473.8,495.27)"
       gradientUnits="userSpaceOnUse"
       xlink:href="#a" />
    <linearGradient
       id="e"
       x1="35"
       x2="144"
       y1="126.5"
       y2="185.5"
       gradientUnits="userSpaceOnUse"
       xlink:href="#d" />
    <linearGradient
       id="at"
       x1="50"
       x2="51"
       y1="509"
       y2="541"
       gradientTransform="matrix(0.125,-0.04335,0,0.125,391.92,521.42)"
       gradientUnits="userSpaceOnUse"
       xlink:href="#a" />
    <linearGradient
       id="as"
       x1="121"
       x2="192"
       y1="356"
       y2="466"
       gradientTransform="matrix(0.125,-0.04335,0,0.125,391.92,521.42)"
       gradientUnits="userSpaceOnUse"
       xlink:href="#c" />
    <linearGradient
       id="ar"
       x1="430.19"
       x2="542.76001"
       y1="320.57999"
       y2="360.20999"
       gradientTransform="matrix(0.125,-0.04335,0,0.125,391.92,521.42)"
       gradientUnits="userSpaceOnUse"
       xlink:href="#c" />
    <linearGradient
       id="aq"
       x1="541.03998"
       x2="456.60999"
       y1="375.72"
       y2="321.14999"
       gradientTransform="matrix(0.125,-0.04335,0,0.125,391.92,521.42)"
       gradientUnits="userSpaceOnUse"
       xlink:href="#c" />
    <linearGradient
       id="ap"
       x1="546.21002"
       x2="563.44"
       y1="332.35001"
       y2="353.03"
       gradientTransform="matrix(0.19111,0,0,0.11835,382.7,659.47)"
       gradientUnits="userSpaceOnUse"
       xlink:href="#f" />
    <linearGradient
       id="m"
       x1="546.21002"
       x2="563.44"
       y1="332.35001"
       y2="353.03"
       gradientTransform="matrix(0.19111,0,0,0.11835,364.24,659.47)"
       gradientUnits="userSpaceOnUse"
       xlink:href="#f" />
    <linearGradient
       id="ao"
       x1="546.21002"
       x2="563.44"
       y1="332.35001"
       y2="353.03"
       gradientTransform="matrix(0.35281,0,0,0.10771,294.38,672.3)"
       gradientUnits="userSpaceOnUse"
       xlink:href="#f" />
    <linearGradient
       id="an"
       x1="546.21002"
       x2="556.53998"
       y1="332.35001"
       y2="367.03"
       gradientTransform="matrix(0.29401,0,0,0.07713,326.8,683.35)"
       gradientUnits="userSpaceOnUse"
       xlink:href="#d" />
    <linearGradient
       id="am"
       x1="765"
       x2="766"
       y1="511"
       y2="546"
       gradientTransform="matrix(0.125,-0.04335,0,0.125,391.92,521.42)"
       gradientUnits="userSpaceOnUse"
       xlink:href="#a" />
    <linearGradient
       id="al"
       x1="680.89001"
       x2="704.63"
       gradientTransform="matrix(0.16679,-0.1354,0.04087,0.07371,343.06,611.21)"
       gradientUnits="userSpaceOnUse"
       xlink:href="#a" />
    <linearGradient
       id="ak"
       x1="667.5"
       x2="737.41998"
       gradientTransform="matrix(0.125,-0.04335,0,0.125,391.92,521.42)"
       gradientUnits="userSpaceOnUse"
       xlink:href="#a" />
    <linearGradient
       id="aj"
       x1="-118.57"
       x2="-143.53999"
       y1="564.53003"
       y2="523.90002"
       gradientTransform="matrix(0.125,-0.04335,0,0.125,489.55,476.31)"
       gradientUnits="userSpaceOnUse"
       xlink:href="#b" />
    <linearGradient
       id="ai"
       x1="-122.06"
       x2="-112.93"
       y1="515.73999"
       y2="530.90002"
       gradientTransform="matrix(0.125,-0.04335,0,0.125,489.55,476.31)"
       gradientUnits="userSpaceOnUse"
       xlink:href="#b" />
    <linearGradient
       id="ah"
       x1="-114.87"
       x2="-104.28"
       y1="536.15002"
       y2="554.32001"
       gradientTransform="matrix(0.125,-0.04335,0,0.125,489.55,476.31)"
       gradientUnits="userSpaceOnUse"
       xlink:href="#b" />
    <linearGradient
       id="ag"
       x1="-129.94"
       x2="-122.36"
       y1="552.38"
       y2="568.32001"
       gradientTransform="matrix(0.125,-0.04335,0,0.125,489.55,476.31)"
       gradientUnits="userSpaceOnUse"
       xlink:href="#b" />
    <linearGradient
       id="af"
       x1="-147.14"
       x2="-136.35001"
       y1="517.59003"
       y2="533.03998"
       gradientTransform="matrix(0.125,-0.04335,0,0.125,489.55,476.31)"
       gradientUnits="userSpaceOnUse"
       xlink:href="#b" />
    <linearGradient
       id="ae"
       x1="-150.25"
       x2="-139.56"
       y1="538.58002"
       y2="555"
       gradientTransform="matrix(0.125,-0.04335,0,0.125,489.55,476.31)"
       gradientUnits="userSpaceOnUse"
       xlink:href="#b" />
    <linearGradient
       id="l"
       x1="317.85001"
       x2="213.78999"
       y1="292.07999"
       y2="189.69"
       gradientUnits="userSpaceOnUse"
       xlink:href="#g" />
    <linearGradient
       id="k"
       x1="200.08"
       x2="315.42999"
       y1="200.55"
       y2="292.07999"
       gradientUnits="userSpaceOnUse"
       xlink:href="#g" />
    <linearGradient
       id="ad"
       x1="-118.57"
       x2="-143.53999"
       y1="564.53003"
       y2="523.90002"
       gradientTransform="matrix(0.11722,0.00275,-0.04341,0.13227,522.82,474.86)"
       gradientUnits="userSpaceOnUse"
       xlink:href="#b" />
    <linearGradient
       id="ac"
       x1="-122.06"
       x2="-112.93"
       y1="515.73999"
       y2="530.90002"
       gradientTransform="matrix(0.11722,0.00275,-0.04341,0.13227,522.82,474.86)"
       gradientUnits="userSpaceOnUse"
       xlink:href="#b" />
    <linearGradient
       id="ab"
       x1="-114.87"
       x2="-104.28"
       y1="536.15002"
       y2="554.32001"
       gradientTransform="matrix(0.11722,0.00275,-0.04341,0.13227,522.82,474.86)"
       gradientUnits="userSpaceOnUse"
       xlink:href="#b" />
    <linearGradient
       id="aa"
       x1="-129.94"
       x2="-122.36"
       y1="552.38"
       y2="568.32001"
       gradientTransform="matrix(0.11722,0.00275,-0.04341,0.13227,522.82,474.86)"
       gradientUnits="userSpaceOnUse"
       xlink:href="#b" />
    <linearGradient
       id="z"
       x1="-147.14"
       x2="-136.35001"
       y1="517.59003"
       y2="533.03998"
       gradientTransform="matrix(0.11722,0.00275,-0.04341,0.13227,522.82,474.86)"
       gradientUnits="userSpaceOnUse"
       xlink:href="#b" />
    <linearGradient
       id="y"
       x1="-150.25"
       x2="-139.56"
       y1="538.58002"
       y2="555"
       gradientTransform="matrix(0.11722,0.00275,-0.04341,0.13227,522.82,474.86)"
       gradientUnits="userSpaceOnUse"
       xlink:href="#b" />
    <linearGradient
       id="v"
       x1="350.19"
       x2="334.25"
       y1="425.98999"
       y2="441.48999"
       gradientUnits="userSpaceOnUse"
       xlink:href="#j"
       gradientTransform="matrix(2.0858641,0,0,2.0858641,-676.8629,-794.11535)" />
    <radialGradient
       id="u"
       cx="44.699001"
       cy="42.721001"
       r="12.239"
       gradientTransform="matrix(0.26579,-0.09217,0,0.25423,462.64,499.12)"
       gradientUnits="userSpaceOnUse">
      <stop
         stop-color="#fff"
         offset="0"
         id="stop160" />
      <stop
         stop-color="#fff"
         stop-opacity="0"
         offset="1"
         id="stop162" />
    </radialGradient>
    <clipPath
       id="clipPath4235"
       clipPathUnits="userSpaceOnUse">
      <path
         inkscape:connector-curvature="0"
         id="path4237"
         d="m 0,234 583.28,0 0,-234 L 0,0 0,234 Z" />
    </clipPath>
    <linearGradient
       id="linearGradient21123">
      <stop
         style="stop-color:#000000;stop-opacity:1"
         offset="0"
         stop-color="#bedcdc"
         id="stop21125" />
      <stop
         style="stop-color:#000000;stop-opacity:1"
         offset="0.67433178"
         stop-opacity=".741"
         stop-color="#8e9e9e"
         id="stop21127" />
      <stop
         style="stop-color:#000000;stop-opacity:1"
         offset="1"
         stop-opacity=".839"
         stop-color="#404f5c"
         id="stop21129" />
    </linearGradient>
    <linearGradient
       id="linearGradient21071">
      <stop
         style="stop-color:#ffffff;stop-opacity:1"
         offset="0"
         stop-color="#bedcdc"
         id="stop21073" />
      <stop
         style="stop-color:#fb0019;stop-opacity:1"
         offset=".5"
         stop-opacity=".741"
         stop-color="#8e9e9e"
         id="stop21075" />
      <stop
         style="stop-color:#000000;stop-opacity:1"
         offset="1"
         stop-opacity=".839"
         stop-color="#404f5c"
         id="stop21077" />
    </linearGradient>
    <clipPath
       id="clipPath20815"
       clipPathUnits="userSpaceOnUse">
      <rect
         ry="147.39799"
         y="-940.76782"
         x="-2987.8865"
         height="1425.2146"
         width="1417.98"
         id="rect20817"
         style="opacity:1;fill:#005615;fill-opacity:0.70873784;fill-rule:nonzero;stroke:none;stroke-width:2;stroke-miterlimit:4;stroke-dasharray:none;stroke-dashoffset:0;stroke-opacity:1" />
    </clipPath>
    <filter
       id="filter3340">
      <feGaussianBlur
         id="feGaussianBlur3342"
         stdDeviation="3.959091" />
    </filter>
    <filter
       id="filter3390">
      <feGaussianBlur
         id="feGaussianBlur3392"
         stdDeviation="10.093933" />
    </filter>
    <linearGradient
       id="linearGradient2254">
      <stop
         id="stop2256"
         stop-color="#bedcdc"
         offset="0" />
      <stop
         id="stop2264"
         stop-color="#8e9e9e"
         stop-opacity=".741"
         offset=".5" />
      <stop
         id="stop2258"
         stop-color="#404f5c"
         stop-opacity=".839"
         offset="1" />
    </linearGradient>
    <radialGradient
       fy="333.67319"
       fx="611.27869"
       id="radialGradient2340"
       xlink:href="#linearGradient21071"
       gradientUnits="userSpaceOnUse"
       cy="333.67319"
       cx="611.27869"
       gradientTransform="matrix(-0.15996637,-0.9231092,1.0180403,-0.17641278,-418.20054,1440.6652)"
       r="148.86" />
    <radialGradient
       id="radialGradient3406"
       xlink:href="#linearGradient2254"
       gradientUnits="userSpaceOnUse"
       cy="389.51001"
       cx="380"
       gradientTransform="matrix(0.086859,-0.58077,0.6221,0.093576,261.99,772.78)"
       r="148.86" />
    <clipPath
       clipPathUnits="userSpaceOnUse"
       id="clipPath20943">
      <path
         d="m 0,234 583.28,0 0,-234 L 0,0 0,234 Z"
         id="path20945"
         inkscape:connector-curvature="0" />
    </clipPath>
    <clipPath
       id="clipPath21015"
       clipPathUnits="userSpaceOnUse">
      <rect
         transform="scale(1,-1)"
         ry="0"
         y="-214.50931"
         x="28.696365"
         height="185.69731"
         width="157.04973"
         id="rect21017"
         style="opacity:1;fill:#005615;fill-opacity:0.70873784;fill-rule:nonzero;stroke:none;stroke-width:2;stroke-miterlimit:4;stroke-dasharray:none;stroke-dashoffset:0;stroke-opacity:1" />
    </clipPath>
    <radialGradient
       fy="209.62253"
       fx="607.44452"
       r="148.86"
       cy="209.62253"
       cx="607.44452"
       gradientTransform="matrix(-0.10557,-0.9309,0.99363,-0.11268,-320.03948,1401.5158)"
       gradientUnits="userSpaceOnUse"
       id="radialGradient21031"
       xlink:href="#linearGradient21123"
       inkscape:collect="always" />
    <radialGradient
       r="148.86"
       cy="389.51001"
       cx="380"
       gradientTransform="matrix(-0.10557,-0.9309,0.99363,-0.11268,-320.03948,1401.5158)"
       gradientUnits="userSpaceOnUse"
       id="radialGradient21045"
       xlink:href="#linearGradient2254"
       inkscape:collect="always" />
    <clipPath
       id="clipPath20815-1"
       clipPathUnits="userSpaceOnUse">
      <rect
         ry="147.39799"
         y="-940.76782"
         x="-2987.8865"
         height="1425.2146"
         width="1417.98"
         id="rect20817-9"
         style="opacity:1;fill:#005615;fill-opacity:0.70873784;fill-rule:nonzero;stroke:none;stroke-width:2;stroke-miterlimit:4;stroke-dasharray:none;stroke-dashoffset:0;stroke-opacity:1" />
    </clipPath>
    <filter
       id="filter3340-7">
      <feGaussianBlur
         id="feGaussianBlur3342-2"
         stdDeviation="3.959091" />
    </filter>
    <filter
       id="filter3390-5">
      <feGaussianBlur
         id="feGaussianBlur3392-7"
         stdDeviation="10.093933" />
    </filter>
    <radialGradient
       fy="333.67319"
       fx="611.27869"
       id="radialGradient2340-0"
       xlink:href="#linearGradient21071"
       gradientUnits="userSpaceOnUse"
       cy="333.67319"
       cx="611.27869"
       gradientTransform="matrix(-0.15996637,-0.9231092,1.0180403,-0.17641278,-418.20054,1440.6652)"
       r="148.86" />
    <radialGradient
       id="radialGradient3406-3"
       xlink:href="#linearGradient2254"
       gradientUnits="userSpaceOnUse"
       cy="389.51001"
       cx="380"
       gradientTransform="matrix(0.086859,-0.58077,0.6221,0.093576,261.99,772.78)"
       r="148.86" />
    <clipPath
       clipPathUnits="userSpaceOnUse"
       id="clipPath20943-7">
      <path
         d="m 0,234 583.28,0 0,-234 L 0,0 0,234 Z"
         id="path20945-0"
         inkscape:connector-curvature="0" />
    </clipPath>
    <clipPath
       id="clipPath21015-1"
       clipPathUnits="userSpaceOnUse">
      <rect
         transform="scale(1,-1)"
         ry="0"
         y="-214.50931"
         x="28.696365"
         height="185.69731"
         width="157.04973"
         id="rect21017-2"
         style="opacity:1;fill:#005615;fill-opacity:0.70873784;fill-rule:nonzero;stroke:none;stroke-width:2;stroke-miterlimit:4;stroke-dasharray:none;stroke-dashoffset:0;stroke-opacity:1" />
    </clipPath>
  </defs>
  <g
     id="g687"
     transform="translate(406.13194)" />
  <g
     id="g696">
    <path
       d="m 317.13478,2.1215529 6.77906,40.6743501 56.83979,39.370685 -10.73469,-35.261533 z"
       id="path167"
       inkscape:connector-curvature="0"
       style="fill:url(#bu);stroke-width:2.08586407" />
    <path
       d="m 12.994934,449.6437 53.736031,43.40266 V 106.5566 L 12.994934,63.153936 V 449.6437"
       id="path169"
       inkscape:connector-curvature="0"
       style="fill:url(#bt);stroke-width:2.08586407" />
    <path
       d="M 66.705934,106.51905 370.5329,44.938085 V 431.42784 L 66.705934,493.00881 Z"
       id="path171"
       inkscape:connector-curvature="0"
       style="fill:url(#bs);fill-rule:evenodd;stroke-width:2.08586407" />
    <path
       d="M 12.807206,63.153936 66.543237,106.5566 370.3702,44.975631 316.63417,1.5729706 12.807206,63.153936"
       id="path333"
       inkscape:connector-curvature="0"
       style="fill:url(#x);stroke-width:2.08586407" />
    <path
       style="stroke-width:2.08586407"
       d="M 12.994934,63.153936 66.730965,106.5566 12.994934,63.153936"
       id="path335"
       inkscape:connector-curvature="0" />
    <path
       d="m 13.558117,61.839842 -0.234534,63.900448 37.303593,28.21965 15.81523,-47.33868 z"
       id="path337"
       inkscape:connector-curvature="0"
       style="opacity:0.73999999;fill:url(#w);stroke-width:2.08586407" />
    <path
       d="M 13.558117,61.839842 4.5000013e-7,108.77178 36.502622,140.05975 66.443115,106.62334 Z"
       id="path339"
       inkscape:connector-curvature="0"
       style="fill:url(#v);stroke-width:2.08586407" />
  </g>
  <g
     id="g328"
     transform="matrix(0.91618433,0,0,0.91618433,6.8775658,7.8697166)">
    <g
       transform="matrix(-0.4495016,0.01455099,0.08776526,-0.46947886,107.83727,658.59144)"
       id="g20922">
      <path
         d="m -153.42348,646.14378 c -1.919,14.443 -14.276,25.605 -29.242,25.605 -14.205,0 -26.082,-10.041 -28.893,-23.413 -10.408,2.2411 -20.446,5.4599 -30.038,9.5397 5.256,13.367 0.10899,28.943 -12.703,36.34 -11.897,6.8683 -26.612,4.5282 -35.818,-4.8321 -6.4561,6.0028 -12.464,12.506 -17.909,19.453 11.462,8.902 14.883,25.138 7.4225,38.059 -7.1154,12.325 -21.791,17.594 -34.796,13.301 -3.1167,9.581 -5.4032,19.539 -6.7499,29.79 14.938,1.455 26.626,14.047 26.626,29.366 0,14.43 -10.371,26.431 -24.061,28.992 1.0186,4.591 2.1994,9.11 3.5867,13.55 2.6778,-0.70502 5.4161,-1.032 8.12,-0.97101 9.9691,0.22501 19.586,5.509 24.933,14.77 7.2778,12.606 4.1954,28.358 -6.6006,37.387 6.0239,7.929 12.736,15.31 20.051,22.043 5.562,-6.738 13.732,-10.521 22.143,-10.71 5.222,-0.11798 10.517,1.159 15.368,3.96 13.451,7.766 18.469,24.533 11.856,38.308 9.146,3.787 18.693,6.79 28.569,8.917 2.811,-13.372 14.688,-23.413 28.893,-23.413 14.966,0 27.323,11.162 29.242,25.605 8.943,-1.219 17.666,-3.129 26.103,-5.704 -4.414,-13.054 0.838,-27.843 13.226,-34.995 4.41,-2.546 9.215,-3.813 13.973,-3.936 9.568,-0.24698 18.958,4.187 24.784,12.354 8.508,-6.438 16.382,-13.679 23.513,-21.595 -10.227,-9.114 -13.021,-24.461 -5.904,-36.788 5.347,-9.261 14.964,-14.546 24.933,-14.77 3.977,-0.09 8.016,0.63098 11.856,2.216 3.446,-8.531 6.208,-17.416 8.22,-26.576 -12.831,-3.207 -22.343,-14.823 -22.343,-28.644 0,-14.699 10.766,-26.894 24.833,-29.142 -1.951,-15.014 -5.895,-29.397 -11.557,-42.891 -13.771,6.598 -30.521,1.588 -38.283,-11.856 -7.256,-12.569 -4.198,-28.271 6.526,-37.312 -6.438,-6.9339 -13.452,-13.34 -20.972,-19.104 -9.052,10.659 -24.7,13.69 -37.237,6.4511 -11.784,-6.803 -17.106,-20.52 -13.799,-33.077 -8.987,-2.8534 -18.301,-4.9722 -27.872,-6.2768 z m -22.766,106.61 c 1.022,0 2.03,0.023 3.039,0.074 4.035,0.205 7.974,0.81899 11.756,1.794 0.946,0.24301 1.888,0.50801 2.815,0.797 1.854,0.57701 3.659,1.243 5.43,1.992 0.88501,0.375 1.754,0.77799 2.615,1.19599 0.431,0.20901 0.871,0.42801 1.295,0.64801 0.06,0.03 0.116,0.069 0.175,0.099 0.578,0.299 1.152,0.605 1.718,0.922 0.62399,0.34999 1.233,0.7 1.844,1.071 1.627,0.98999 3.212,2.05 4.732,3.188 0.57001,0.426 1.139,0.87399 1.694,1.32 0.341,0.27501 0.68701,0.54001 1.021,0.82201 0.452,0.37999 0.87999,0.778 1.32,1.171 0.825,0.73601 1.636,1.486 2.416,2.266 0.502,0.50301 0.98601,1.024 1.47,1.545 0.008,0.008 0.017,0.016 0.025,0.025 0.22299,0.24 0.452,0.477 0.672,0.722 0.564,0.62701 1.107,1.266 1.644,1.918 0.151,0.183 0.3,0.36299 0.448,0.54799 0.448,0.55501 0.893,1.122 1.32,1.693 0.53299,0.71399 1.044,1.43 1.545,2.167 0.69899,1.031 1.382,2.088 2.017,3.164 0.362,0.612 0.70599,1.241 1.046,1.868 0.912,1.678 1.742,3.385 2.491,5.156 0.329,0.77499 0.651,1.549 0.94699,2.341 0.03,0.081 0.045,0.168 0.074,0.24899 0.263,0.713 0.51199,1.441 0.748,2.167 0.032,0.1 0.067,0.19899 0.099,0.299 0.092,0.28799 0.162,0.582 0.24899,0.87199 0.21501,0.711 0.43501,1.42 0.623,2.142 0.052,0.198 0.10001,0.398 0.149,0.59799 0.12801,0.51 0.235,1.029 0.349,1.544 0.14101,0.636 0.278,1.274 0.399,1.918 0.006,0.033 0.018,0.066 0.025,0.099 0.01,0.058 0.014,0.11699 0.025,0.175 0.135,0.743 0.26599,1.489 0.373,2.241 0.007,0.051 0.018,0.1 0.025,0.14999 0.023,0.16501 0.028,0.33301 0.05,0.498 0.091,0.69501 0.18201,1.39 0.24899,2.092 0.083,0.87401 0.15401,1.757 0.199,2.64 0.051,1.001 0.075,2.026 0.075,3.039 0,2.043 -0.097,4.038 -0.299,6.028 -9.9e-4,0.008 0.001,0.017 0,0.025 -0.101,0.98599 -0.22501,1.967 -0.37399,2.939 -0.001,0.008 0.002,0.017 0,0.025 -0.149,0.97101 -0.32701,1.934 -0.52301,2.889 -9.9e-4,0.008 0.002,0.017 0,0.025 -0.098,0.47801 -0.20999,0.94701 -0.323,1.42 -0.11,0.474 -0.228,0.95001 -0.349,1.419 -0.002,0.008 0.002,0.018 0,0.025 -0.242,0.938 -0.511,1.871 -0.797,2.79 -0.003,0.008 0.002,0.017 0,0.025 -0.576,1.846 -1.246,3.666 -1.993,5.43 -0.74901,1.771 -1.579,3.478 -2.491,5.156 -0.003,0.006 0.004,0.018 0,0.025 -0.909,1.671 -1.903,3.288 -2.964,4.857 -0.004,0.005 0.004,0.019 0,0.025 -0.528,0.78101 -1.079,1.537 -1.644,2.291 -0.004,0.006 0.005,0.02 0,0.025 -0.56401,0.755 -1.169,1.491 -1.768,2.217 -0.004,0.005 0.004,0.02 0,0.025 -2.411,2.919 -5.1,5.61 -8.02,8.02 -2.925,2.414 -6.085,4.553 -9.44,6.376 -1.678,0.91199 -3.41,1.742 -5.181,2.491 -1.771,0.74899 -3.576,1.416 -5.43,1.993 -0.927,0.28799 -1.869,0.55298 -2.815,0.797 -3.782,0.974 -7.721,1.588 -11.756,1.793 -1.009,0.051 -2.017,0.075 -3.039,0.075 -1.021,0 -2.03,-0.024 -3.038,-0.075 -4.035,-0.20502 -7.974,-0.819 -11.757,-1.793 -0.946,-0.24402 -1.888,-0.509 -2.814,-0.797 -1.854,-0.578 -3.66,-1.243 -5.43,-1.993 -1.771,-0.74899 -3.503,-1.579 -5.181,-2.491 -0.839,-0.45599 -1.652,-0.949 -2.466,-1.444 -0.814,-0.495 -1.626,-1.013 -2.416,-1.545 -0.78799,-0.53198 -1.557,-1.075 -2.317,-1.644 -1.519,-1.136 -2.981,-2.337 -4.383,-3.611 -0.69701,-0.63303 -1.377,-1.302 -2.043,-1.968 -0.674,-0.67398 -1.326,-1.337 -1.967,-2.042 -0.005,-0.005 0.004,-0.021 0,-0.025 -0.638,-0.702 -1.265,-1.411 -1.868,-2.142 -0.60399,-0.73099 -1.2,-1.482 -1.769,-2.242 -0.56799,-0.75998 -1.112,-1.528 -1.644,-2.316 -1.064,-1.575 -2.052,-3.204 -2.964,-4.882 -0.91199,-1.678 -1.741,-3.385 -2.491,-5.156 -0.003,-0.007 0.003,-0.018 0,-0.025 -0.371,-0.879 -0.741,-1.766 -1.071,-2.665 -0.002,-0.008 0.003,-0.018 0,-0.025 -0.332,-0.907 -0.633,-1.813 -0.921,-2.74 -0.282,-0.907 -0.53299,-1.815 -0.77199,-2.74 -0.018,-0.066 -0.033,-0.133 -0.05,-0.19899 -0.215,-0.841 -0.42,-1.71 -0.59801,-2.566 -0.045,-0.214 -0.082,-0.431 -0.125,-0.647 -0.11899,-0.60599 -0.248,-1.206 -0.34799,-1.818 -0.051,-0.30701 -0.104,-0.614 -0.15001,-0.922 -0.003,-0.024 0.004,-0.05 0,-0.075 -0.11899,-0.81001 -0.213,-1.62 -0.299,-2.441 -0.014,-0.14099 -0.036,-0.28099 -0.049,-0.423 -0.082,-0.84 -0.129,-1.691 -0.175,-2.541 -0.003,-0.067 -0.021,-0.13199 -0.025,-0.19899 -0.051,-1.009 -0.074,-2.017 -0.074,-3.039 0,-1.021 0.023,-2.03 0.074,-3.038 0.049,-0.99901 0.12399,-1.999 0.22499,-2.989 0,-0.009 -0.001,-0.017 0,-0.025 0.10001,-0.987 0.22501,-1.968 0.373,-2.939 0.001,-0.008 -0.001,-0.017 0,-0.025 0.149,-0.972 0.328,-1.934 0.52301,-2.89 0.002,-0.008 -0.001,-0.017 0,-0.024 0.196,-0.95599 0.43199,-1.902 0.67299,-2.84 0.002,-0.008 -0.002,-0.017 0,-0.025 0.241,-0.938 0.511,-1.87 0.797,-2.79 0.002,-0.007 -0.003,-0.017 0,-0.024 0.28801,-0.92699 0.589,-1.834 0.921,-2.74 0.24901,-0.68001 0.52501,-1.35 0.797,-2.018 0.031,-0.076 0.069,-0.148 0.10001,-0.224 0.134,-0.324 0.259,-0.64999 0.399,-0.97099 0.215,-0.49501 0.444,-0.98201 0.672,-1.47 0.157,-0.334 0.311,-0.66501 0.47301,-0.996 0.35799,-0.729 0.73399,-1.455 1.121,-2.167 0.004,-0.007 -0.003,-0.019 0,-0.025 0.45601,-0.839 0.925,-1.652 1.42,-2.466 0.498,-0.81999 1.008,-1.623 1.544,-2.416 0.52901,-0.782 1.08,-1.537 1.644,-2.292 0.004,-0.005 -0.004,-0.019 0,-0.024 0.565,-0.755 1.169,-1.491 1.769,-2.217 0.004,-0.005 -0.004,-0.02 0,-0.025 0.60301,-0.731 1.23,-1.441 1.868,-2.142 1.911,-2.104 3.958,-4.068 6.152,-5.878 2.924,-2.414 6.084,-4.553 9.44,-6.377 1.678,-0.91199 3.41,-1.741 5.181,-2.491 1.77,-0.74899 3.576,-1.415 5.43,-1.992 0.92601,-0.28899 1.868,-0.55399 2.814,-0.797 3.783,-0.974 7.722,-1.589 11.757,-1.794 1.008,-0.051 2.017,-0.074 3.038,-0.074 z"
         id="path2274"
         inkscape:connector-curvature="0"
         style="fill:#c0c0c0;stroke-width:0" />
      <path
         d="m -176.20348,675.55978 c -75.298,0 -136.4,61.122 -136.4,136.42 0,75.298 61.097,136.4 136.4,136.4 75.298,0 136.42,-61.097 136.42,-136.4 0,-75.298 -61.121,-136.42 -136.42,-136.42 z m 0.025,77.189 c 1.021,0 2.03,0.023 3.038,0.074 4.035,0.205 7.974,0.819 11.757,1.794 0.946,0.24301 1.888,0.50802 2.814,0.797 1.854,0.57701 3.66,1.243 5.43,1.992 2.656,1.124 5.205,2.452 7.647,3.936 1.628,0.98999 3.213,2.05 4.733,3.188 2.279,1.705 4.441,3.57 6.451,5.579 4.018,4.021 7.452,8.614 10.187,13.65 0.912,1.678 1.741,3.385 2.491,5.156 2.627,6.20501 4.224,12.956 4.583,20.025 0.05,1.00101 0.074,2.02601 0.074,3.039 0,2.043 -0.096,4.038 -0.29901,6.028 0,0.008 0.001,0.017 0,0.025 -0.1,0.98599 -0.22499,1.967 -0.37299,2.939 -10e-4,0.008 9.9e-4,0.017 0,0.025 -0.149,0.97101 -0.328,1.934 -0.52301,2.889 -0.002,0.008 0.001,0.017 0,0.025 -0.196,0.955 -0.431,1.902 -0.67299,2.839 -0.002,0.008 0.002,0.018 0,0.025 -0.242,0.938 -0.511,1.871 -0.79701,2.79 -0.002,0.008 0.003,0.017 0,0.025 -1.153,3.699 -2.663,7.237 -4.483,10.586 -0.004,0.006 0.003,0.018 0,0.025 -0.909,1.671 -1.904,3.288 -2.964,4.857 -0.004,0.005 0.004,0.019 0,0.025 -0.52901,0.78101 -1.08,1.537 -1.644,2.291 -0.004,0.006 0.004,0.02 0,0.025 -0.565,0.755 -1.169,1.491 -1.769,2.217 -0.004,0.005 0.005,0.02 0,0.025 -1.203,1.457 -2.475,2.849 -3.81,4.184 -0.674,0.67398 -1.362,1.327 -2.068,1.968 -0.701,0.63699 -1.411,1.265 -2.142,1.868 -2.924,2.414 -6.084,4.553 -9.44,6.376 -1.678,0.91199 -3.41,1.742 -5.181,2.491 -1.77001,0.74899 -3.576,1.416 -5.43001,1.993 -0.92599,0.28799 -1.86799,0.55298 -2.81399,0.797 -3.783,0.974 -7.72201,1.588 -11.75701,1.793 -1.008,0.051 -2.01699,0.075 -3.038,0.075 -1.022,0 -2.03,-0.024 -3.03899,-0.075 -4.035,-0.20502 -7.974,-0.819 -11.756,-1.793 -0.946,-0.24402 -1.88801,-0.509 -2.815,-0.797 -1.85401,-0.578 -3.659,-1.243 -5.43001,-1.993 -2.656,-1.124 -5.205,-2.451 -7.64699,-3.935 -1.62701,-0.98999 -3.212,-2.051 -4.732,-3.189 -3.045,-2.277 -5.84201,-4.836 -8.394,-7.646 -0.63699,-0.702 -1.265,-1.411 -1.868,-2.142 -2.414,-2.925 -4.553,-6.085 -6.376,-9.44 -0.91201,-1.678 -1.742,-3.385 -2.49101,-5.156 -0.003,-0.007 0.003,-0.018 0,-0.025 -0.37199,-0.879 -0.741,-1.766 -1.071,-2.665 -0.003,-0.008 0.002,-0.018 0,-0.025 -0.332,-0.907 -0.633,-1.813 -0.922,-2.74 -1.44399,-4.642 -2.336,-9.519 -2.59,-14.571 -0.051,-1.009 -0.075,-2.017 -0.075,-3.039 0,-2.051 0.095,-4.055 0.29901,-6.052 0.1,-0.987 0.22499,-1.968 0.37399,-2.939 0.001,-0.008 -0.002,-0.017 0,-0.025 0.14801,-0.972 0.327,-1.934 0.52301,-2.89 9.9e-4,-0.008 -0.002,-0.017 0,-0.024 0.19499,-0.95599 0.431,-1.902 0.672,-2.84 0.002,-0.008 -0.002,-0.017 0,-0.025 0.24199,-0.938 0.511,-1.87 0.797,-2.79 0.003,-0.007 -0.002,-0.017 0,-0.024 0.289,-0.92699 0.59,-1.834 0.922,-2.74 0.99901,-2.727 2.19,-5.349 3.562,-7.871 0.455,-0.839 0.925,-1.652 1.419,-2.466 0.49899,-0.81999 1.008,-1.623 1.545,-2.416 0.528,-0.782 1.079,-1.537 1.644,-2.292 0.003,-0.005 -0.004,-0.019 0,-0.024 0.56401,-0.755 1.169,-1.491 1.768,-2.217 0.004,-0.005 -0.004,-0.02 0,-0.025 0.603,-0.731 1.231,-1.441 1.868,-2.142 0.63701,-0.701 1.273,-1.373 1.943,-2.043 0.674,-0.674 1.362,-1.326 2.067,-1.967 0.701,-0.638 1.411,-1.265 2.142,-1.868 2.925,-2.414 6.085,-4.553 9.44,-6.377 1.678,-0.91199 3.41,-1.741 5.181,-2.491 1.771,-0.74899 3.576,-1.415 5.43,-1.992 0.927,-0.28899 1.869,-0.55399 2.815,-0.797 3.782,-0.974 7.721,-1.589 11.756,-1.794 1.009,-0.051 2.017,-0.074 3.039,-0.074 z"
         id="path2249"
         inkscape:connector-curvature="0"
         style="opacity:0.794;fill:#a9a9a9;stroke-width:0" />
      <path
         d="m -176.20348,693.31578 c -65.493,0 -118.64,53.168 -118.64,118.66 0,65.493 53.143,118.64 118.64,118.64 65.492,0 118.66,-53.143 118.66,-118.64 0,-65.492 -53.168,-118.66 -118.66,-118.66 z m 0.025,59.43 c 32.683,0 59.205,26.547 59.205,59.23 0,32.684 -26.522,59.206 -59.205,59.206 -32.684,0 -59.206,-26.547 -59.206,-59.231 0,-32.683 26.522,-59.205 59.206,-59.205 z"
         id="path2252"
         inkscape:connector-curvature="0"
         style="opacity:0.794;fill:url(#radialGradient2340);stroke-width:0" />
      <path
         d="m -176.18348,739.43578 c -40.092,0 -72.631,32.486 -72.631,72.516 0,40.03 32.539,72.542 72.631,72.542 40.093,0 72.631,-32.486 72.631,-72.516 v -0.026 c 0,-40.03 -32.538,-72.516 -72.631,-72.516 z m 0,16.423 c 31.07,0 56.287,25.141 56.287,56.119 0,30.977 -25.217,56.093 -56.287,56.093 -31.07,0 -56.286,-25.141 -56.286,-56.119 0,-30.977 25.216,-56.093 56.286,-56.093 z"
         id="path3318"
         inkscape:connector-curvature="0"
         style="opacity:0.58800001;fill:#696969;stroke-width:0;filter:url(#filter3340)" />
      <path
         d="m -176.18348,741.01578 c -39.102,0 -70.837,31.779 -70.837,70.937 0,39.159 31.735,70.962 70.837,70.962 39.103,0 70.838,-31.778 70.838,-70.937 v -0.025 c 0,-39.158 -31.735,-70.937 -70.838,-70.937 z m 0,16.066 c 30.303,0 54.897,24.593 54.897,54.896 0,30.303 -24.594,54.872 -54.897,54.872 -30.303,0 -54.896,-24.594 -54.896,-54.897 0,-30.303 24.593,-54.871 54.896,-54.871 z"
         id="path3313"
         inkscape:connector-curvature="0"
         style="fill:#c0c0c0;stroke-width:0" />
    </g>
    <g
       id="g21019"
       transform="matrix(-0.27150019,-0.05610089,0.11790018,-0.29833682,-0.78463029,571.87091)">
      <path
         style="fill:#c0c0c0;stroke-width:0"
         inkscape:connector-curvature="0"
         id="path21021"
         d="m -153.42348,646.14378 c -1.919,14.443 -14.276,25.605 -29.242,25.605 -14.205,0 -26.082,-10.041 -28.893,-23.413 -10.408,2.2411 -20.446,5.4599 -30.038,9.5397 5.256,13.367 0.10899,28.943 -12.703,36.34 -11.897,6.8683 -26.612,4.5282 -35.818,-4.8321 -6.4561,6.0028 -12.464,12.506 -17.909,19.453 11.462,8.902 14.883,25.138 7.4225,38.059 -7.1154,12.325 -21.791,17.594 -34.796,13.301 -3.1167,9.581 -5.4032,19.539 -6.7499,29.79 14.938,1.455 26.626,14.047 26.626,29.366 0,14.43 -10.371,26.431 -24.061,28.992 1.0186,4.591 2.1994,9.11 3.5867,13.55 2.6778,-0.70502 5.4161,-1.032 8.12,-0.97101 9.9691,0.22501 19.586,5.509 24.933,14.77 7.2778,12.606 4.1954,28.358 -6.6006,37.387 6.0239,7.929 12.736,15.31 20.051,22.043 5.562,-6.738 13.732,-10.521 22.143,-10.71 5.222,-0.11798 10.517,1.159 15.368,3.96 13.451,7.766 18.469,24.533 11.856,38.308 9.146,3.787 18.693,6.79 28.569,8.917 2.811,-13.372 14.688,-23.413 28.893,-23.413 14.966,0 27.323,11.162 29.242,25.605 8.943,-1.219 17.666,-3.129 26.103,-5.704 -4.414,-13.054 0.838,-27.843 13.226,-34.995 4.41,-2.546 9.215,-3.813 13.973,-3.936 9.568,-0.24698 18.958,4.187 24.784,12.354 8.508,-6.438 16.382,-13.679 23.513,-21.595 -10.227,-9.114 -13.021,-24.461 -5.904,-36.788 5.347,-9.261 14.964,-14.546 24.933,-14.77 3.977,-0.09 8.016,0.63098 11.856,2.216 3.446,-8.531 6.208,-17.416 8.22,-26.576 -12.831,-3.207 -22.343,-14.823 -22.343,-28.644 0,-14.699 10.766,-26.894 24.833,-29.142 -1.951,-15.014 -5.895,-29.397 -11.557,-42.891 -13.771,6.598 -30.521,1.588 -38.283,-11.856 -7.256,-12.569 -4.198,-28.271 6.526,-37.312 -6.438,-6.9339 -13.452,-13.34 -20.972,-19.104 -9.052,10.659 -24.7,13.69 -37.237,6.4511 -11.784,-6.803 -17.106,-20.52 -13.799,-33.077 -8.987,-2.8534 -18.301,-4.9722 -27.872,-6.2768 z m -22.766,106.61 c 1.022,0 2.03,0.023 3.039,0.074 4.035,0.205 7.974,0.81899 11.756,1.794 0.946,0.24301 1.888,0.50801 2.815,0.797 1.854,0.57701 3.659,1.243 5.43,1.992 0.88501,0.375 1.754,0.77799 2.615,1.19599 0.431,0.20901 0.871,0.42801 1.295,0.64801 0.06,0.03 0.116,0.069 0.175,0.099 0.578,0.299 1.152,0.605 1.718,0.922 0.62399,0.34999 1.233,0.7 1.844,1.071 1.627,0.98999 3.212,2.05 4.732,3.188 0.57001,0.426 1.139,0.87399 1.694,1.32 0.341,0.27501 0.68701,0.54001 1.021,0.82201 0.452,0.37999 0.87999,0.778 1.32,1.171 0.825,0.73601 1.636,1.486 2.416,2.266 0.502,0.50301 0.98601,1.024 1.47,1.545 0.008,0.008 0.017,0.016 0.025,0.025 0.22299,0.24 0.452,0.477 0.672,0.722 0.564,0.62701 1.107,1.266 1.644,1.918 0.151,0.183 0.3,0.36299 0.448,0.54799 0.448,0.55501 0.893,1.122 1.32,1.693 0.53299,0.71399 1.044,1.43 1.545,2.167 0.69899,1.031 1.382,2.088 2.017,3.164 0.362,0.612 0.70599,1.241 1.046,1.868 0.912,1.678 1.742,3.385 2.491,5.156 0.329,0.77499 0.651,1.549 0.94699,2.341 0.03,0.081 0.045,0.168 0.074,0.24899 0.263,0.713 0.51199,1.441 0.748,2.167 0.032,0.1 0.067,0.19899 0.099,0.299 0.092,0.28799 0.162,0.582 0.24899,0.87199 0.21501,0.711 0.43501,1.42 0.623,2.142 0.052,0.198 0.10001,0.398 0.149,0.59799 0.12801,0.51 0.235,1.029 0.349,1.544 0.14101,0.636 0.278,1.274 0.399,1.918 0.006,0.033 0.018,0.066 0.025,0.099 0.01,0.058 0.014,0.11699 0.025,0.175 0.135,0.743 0.26599,1.489 0.373,2.241 0.007,0.051 0.018,0.1 0.025,0.14999 0.023,0.16501 0.028,0.33301 0.05,0.498 0.091,0.69501 0.18201,1.39 0.24899,2.092 0.083,0.87401 0.15401,1.757 0.199,2.64 0.051,1.001 0.075,2.026 0.075,3.039 0,2.043 -0.097,4.038 -0.299,6.028 -9.9e-4,0.008 0.001,0.017 0,0.025 -0.101,0.98599 -0.22501,1.967 -0.37399,2.939 -0.001,0.008 0.002,0.017 0,0.025 -0.149,0.97101 -0.32701,1.934 -0.52301,2.889 -9.9e-4,0.008 0.002,0.017 0,0.025 -0.098,0.47801 -0.20999,0.94701 -0.323,1.42 -0.11,0.474 -0.228,0.95001 -0.349,1.419 -0.002,0.008 0.002,0.018 0,0.025 -0.242,0.938 -0.511,1.871 -0.797,2.79 -0.003,0.008 0.002,0.017 0,0.025 -0.576,1.846 -1.246,3.666 -1.993,5.43 -0.74901,1.771 -1.579,3.478 -2.491,5.156 -0.003,0.006 0.004,0.018 0,0.025 -0.909,1.671 -1.903,3.288 -2.964,4.857 -0.004,0.005 0.004,0.019 0,0.025 -0.528,0.78101 -1.079,1.537 -1.644,2.291 -0.004,0.006 0.005,0.02 0,0.025 -0.56401,0.755 -1.169,1.491 -1.768,2.217 -0.004,0.005 0.004,0.02 0,0.025 -2.411,2.919 -5.1,5.61 -8.02,8.02 -2.925,2.414 -6.085,4.553 -9.44,6.376 -1.678,0.91199 -3.41,1.742 -5.181,2.491 -1.771,0.74899 -3.576,1.416 -5.43,1.993 -0.927,0.28799 -1.869,0.55298 -2.815,0.797 -3.782,0.974 -7.721,1.588 -11.756,1.793 -1.009,0.051 -2.017,0.075 -3.039,0.075 -1.021,0 -2.03,-0.024 -3.038,-0.075 -4.035,-0.20502 -7.974,-0.819 -11.757,-1.793 -0.946,-0.24402 -1.888,-0.509 -2.814,-0.797 -1.854,-0.578 -3.66,-1.243 -5.43,-1.993 -1.771,-0.74899 -3.503,-1.579 -5.181,-2.491 -0.839,-0.45599 -1.652,-0.949 -2.466,-1.444 -0.814,-0.495 -1.626,-1.013 -2.416,-1.545 -0.78799,-0.53198 -1.557,-1.075 -2.317,-1.644 -1.519,-1.136 -2.981,-2.337 -4.383,-3.611 -0.69701,-0.63303 -1.377,-1.302 -2.043,-1.968 -0.674,-0.67398 -1.326,-1.337 -1.967,-2.042 -0.005,-0.005 0.004,-0.021 0,-0.025 -0.638,-0.702 -1.265,-1.411 -1.868,-2.142 -0.60399,-0.73099 -1.2,-1.482 -1.769,-2.242 -0.56799,-0.75998 -1.112,-1.528 -1.644,-2.316 -1.064,-1.575 -2.052,-3.204 -2.964,-4.882 -0.91199,-1.678 -1.741,-3.385 -2.491,-5.156 -0.003,-0.007 0.003,-0.018 0,-0.025 -0.371,-0.879 -0.741,-1.766 -1.071,-2.665 -0.002,-0.008 0.003,-0.018 0,-0.025 -0.332,-0.907 -0.633,-1.813 -0.921,-2.74 -0.282,-0.907 -0.53299,-1.815 -0.77199,-2.74 -0.018,-0.066 -0.033,-0.133 -0.05,-0.19899 -0.215,-0.841 -0.42,-1.71 -0.59801,-2.566 -0.045,-0.214 -0.082,-0.431 -0.125,-0.647 -0.11899,-0.60599 -0.248,-1.206 -0.34799,-1.818 -0.051,-0.30701 -0.104,-0.614 -0.15001,-0.922 -0.003,-0.024 0.004,-0.05 0,-0.075 -0.11899,-0.81001 -0.213,-1.62 -0.299,-2.441 -0.014,-0.14099 -0.036,-0.28099 -0.049,-0.423 -0.082,-0.84 -0.129,-1.691 -0.175,-2.541 -0.003,-0.067 -0.021,-0.13199 -0.025,-0.19899 -0.051,-1.009 -0.074,-2.017 -0.074,-3.039 0,-1.021 0.023,-2.03 0.074,-3.038 0.049,-0.99901 0.12399,-1.999 0.22499,-2.989 0,-0.009 -0.001,-0.017 0,-0.025 0.10001,-0.987 0.22501,-1.968 0.373,-2.939 0.001,-0.008 -0.001,-0.017 0,-0.025 0.149,-0.972 0.328,-1.934 0.52301,-2.89 0.002,-0.008 -0.001,-0.017 0,-0.024 0.196,-0.95599 0.43199,-1.902 0.67299,-2.84 0.002,-0.008 -0.002,-0.017 0,-0.025 0.241,-0.938 0.511,-1.87 0.797,-2.79 0.002,-0.007 -0.003,-0.017 0,-0.024 0.28801,-0.92699 0.589,-1.834 0.921,-2.74 0.24901,-0.68001 0.52501,-1.35 0.797,-2.018 0.031,-0.076 0.069,-0.148 0.10001,-0.224 0.134,-0.324 0.259,-0.64999 0.399,-0.97099 0.215,-0.49501 0.444,-0.98201 0.672,-1.47 0.157,-0.334 0.311,-0.66501 0.47301,-0.996 0.35799,-0.729 0.73399,-1.455 1.121,-2.167 0.004,-0.007 -0.003,-0.019 0,-0.025 0.45601,-0.839 0.925,-1.652 1.42,-2.466 0.498,-0.81999 1.008,-1.623 1.544,-2.416 0.52901,-0.782 1.08,-1.537 1.644,-2.292 0.004,-0.005 -0.004,-0.019 0,-0.024 0.565,-0.755 1.169,-1.491 1.769,-2.217 0.004,-0.005 -0.004,-0.02 0,-0.025 0.60301,-0.731 1.23,-1.441 1.868,-2.142 1.911,-2.104 3.958,-4.068 6.152,-5.878 2.924,-2.414 6.084,-4.553 9.44,-6.377 1.678,-0.91199 3.41,-1.741 5.181,-2.491 1.77,-0.74899 3.576,-1.415 5.43,-1.992 0.92601,-0.28899 1.868,-0.55399 2.814,-0.797 3.783,-0.974 7.722,-1.589 11.757,-1.794 1.008,-0.051 2.017,-0.074 3.038,-0.074 z" />
      <path
         style="opacity:0.794;fill:#a9a9a9;stroke-width:0"
         inkscape:connector-curvature="0"
         id="path21023"
         d="m -176.20348,675.55978 c -75.298,0 -136.4,61.122 -136.4,136.42 0,75.298 61.097,136.4 136.4,136.4 75.298,0 136.42,-61.097 136.42,-136.4 0,-75.298 -61.121,-136.42 -136.42,-136.42 z m 0.025,77.189 c 1.021,0 2.03,0.023 3.038,0.074 4.035,0.205 7.974,0.819 11.757,1.794 0.946,0.24301 1.888,0.50802 2.814,0.797 1.854,0.57701 3.66,1.243 5.43,1.992 2.656,1.124 5.205,2.452 7.647,3.936 1.628,0.98999 3.213,2.05 4.733,3.188 2.279,1.705 4.441,3.57 6.451,5.579 4.018,4.021 7.452,8.614 10.187,13.65 0.912,1.678 1.741,3.385 2.491,5.156 2.627,6.20501 4.224,12.956 4.583,20.025 0.05,1.00101 0.074,2.02601 0.074,3.039 0,2.043 -0.096,4.038 -0.29901,6.028 0,0.008 0.001,0.017 0,0.025 -0.1,0.98599 -0.22499,1.967 -0.37299,2.939 -10e-4,0.008 9.9e-4,0.017 0,0.025 -0.149,0.97101 -0.328,1.934 -0.52301,2.889 -0.002,0.008 0.001,0.017 0,0.025 -0.196,0.955 -0.431,1.902 -0.67299,2.839 -0.002,0.008 0.002,0.018 0,0.025 -0.242,0.938 -0.511,1.871 -0.79701,2.79 -0.002,0.008 0.003,0.017 0,0.025 -1.153,3.699 -2.663,7.237 -4.483,10.586 -0.004,0.006 0.003,0.018 0,0.025 -0.909,1.671 -1.904,3.288 -2.964,4.857 -0.004,0.005 0.004,0.019 0,0.025 -0.52901,0.78101 -1.08,1.537 -1.644,2.291 -0.004,0.006 0.004,0.02 0,0.025 -0.565,0.755 -1.169,1.491 -1.769,2.217 -0.004,0.005 0.005,0.02 0,0.025 -1.203,1.457 -2.475,2.849 -3.81,4.184 -0.674,0.67398 -1.362,1.327 -2.068,1.968 -0.701,0.63699 -1.411,1.265 -2.142,1.868 -2.924,2.414 -6.084,4.553 -9.44,6.376 -1.678,0.91199 -3.41,1.742 -5.181,2.491 -1.77001,0.74899 -3.576,1.416 -5.43001,1.993 -0.92599,0.28799 -1.86799,0.55298 -2.81399,0.797 -3.783,0.974 -7.72201,1.588 -11.75701,1.793 -1.008,0.051 -2.01699,0.075 -3.038,0.075 -1.022,0 -2.03,-0.024 -3.03899,-0.075 -4.035,-0.20502 -7.974,-0.819 -11.756,-1.793 -0.946,-0.24402 -1.88801,-0.509 -2.815,-0.797 -1.85401,-0.578 -3.659,-1.243 -5.43001,-1.993 -2.656,-1.124 -5.205,-2.451 -7.64699,-3.935 -1.62701,-0.98999 -3.212,-2.051 -4.732,-3.189 -3.045,-2.277 -5.84201,-4.836 -8.394,-7.646 -0.63699,-0.702 -1.265,-1.411 -1.868,-2.142 -2.414,-2.925 -4.553,-6.085 -6.376,-9.44 -0.91201,-1.678 -1.742,-3.385 -2.49101,-5.156 -0.003,-0.007 0.003,-0.018 0,-0.025 -0.37199,-0.879 -0.741,-1.766 -1.071,-2.665 -0.003,-0.008 0.002,-0.018 0,-0.025 -0.332,-0.907 -0.633,-1.813 -0.922,-2.74 -1.44399,-4.642 -2.336,-9.519 -2.59,-14.571 -0.051,-1.009 -0.075,-2.017 -0.075,-3.039 0,-2.051 0.095,-4.055 0.29901,-6.052 0.1,-0.987 0.22499,-1.968 0.37399,-2.939 0.001,-0.008 -0.002,-0.017 0,-0.025 0.14801,-0.972 0.327,-1.934 0.52301,-2.89 9.9e-4,-0.008 -0.002,-0.017 0,-0.024 0.19499,-0.95599 0.431,-1.902 0.672,-2.84 0.002,-0.008 -0.002,-0.017 0,-0.025 0.24199,-0.938 0.511,-1.87 0.797,-2.79 0.003,-0.007 -0.002,-0.017 0,-0.024 0.289,-0.92699 0.59,-1.834 0.922,-2.74 0.99901,-2.727 2.19,-5.349 3.562,-7.871 0.455,-0.839 0.925,-1.652 1.419,-2.466 0.49899,-0.81999 1.008,-1.623 1.545,-2.416 0.528,-0.782 1.079,-1.537 1.644,-2.292 0.003,-0.005 -0.004,-0.019 0,-0.024 0.56401,-0.755 1.169,-1.491 1.768,-2.217 0.004,-0.005 -0.004,-0.02 0,-0.025 0.603,-0.731 1.231,-1.441 1.868,-2.142 0.63701,-0.701 1.273,-1.373 1.943,-2.043 0.674,-0.674 1.362,-1.326 2.067,-1.967 0.701,-0.638 1.411,-1.265 2.142,-1.868 2.925,-2.414 6.085,-4.553 9.44,-6.377 1.678,-0.91199 3.41,-1.741 5.181,-2.491 1.771,-0.74899 3.576,-1.415 5.43,-1.992 0.927,-0.28899 1.869,-0.55399 2.815,-0.797 3.782,-0.974 7.721,-1.589 11.756,-1.794 1.009,-0.051 2.017,-0.074 3.039,-0.074 z" />
      <path
         style="opacity:0.794;fill:url(#radialGradient21031);stroke-width:0"
         inkscape:connector-curvature="0"
         id="path21025"
         d="m -176.20348,693.31578 c -65.493,0 -118.64,53.168 -118.64,118.66 0,65.493 53.143,118.64 118.64,118.64 65.492,0 118.66,-53.143 118.66,-118.64 0,-65.492 -53.168,-118.66 -118.66,-118.66 z m 0.025,59.43 c 32.683,0 59.205,26.547 59.205,59.23 0,32.684 -26.522,59.206 -59.205,59.206 -32.684,0 -59.206,-26.547 -59.206,-59.231 0,-32.683 26.522,-59.205 59.206,-59.205 z" />
      <path
         style="opacity:0.58800001;fill:#696969;stroke-width:0;filter:url(#filter3340)"
         inkscape:connector-curvature="0"
         id="path21027"
         d="m -176.18348,739.43578 c -40.092,0 -72.631,32.486 -72.631,72.516 0,40.03 32.539,72.542 72.631,72.542 40.093,0 72.631,-32.486 72.631,-72.516 v -0.026 c 0,-40.03 -32.538,-72.516 -72.631,-72.516 z m 0,16.423 c 31.07,0 56.287,25.141 56.287,56.119 0,30.977 -25.217,56.093 -56.287,56.093 -31.07,0 -56.286,-25.141 -56.286,-56.119 0,-30.977 25.216,-56.093 56.286,-56.093 z" />
      <path
         style="fill:#c0c0c0;stroke-width:0"
         inkscape:connector-curvature="0"
         id="path21029"
         d="m -176.18348,741.01578 c -39.102,0 -70.837,31.779 -70.837,70.937 0,39.159 31.735,70.962 70.837,70.962 39.103,0 70.838,-31.778 70.838,-70.937 v -0.025 c 0,-39.158 -31.735,-70.937 -70.838,-70.937 z m 0,16.066 c 30.303,0 54.897,24.593 54.897,54.896 0,30.303 -24.594,54.872 -54.897,54.872 -30.303,0 -54.896,-24.594 -54.896,-54.897 0,-30.303 24.593,-54.871 54.896,-54.871 z" />
    </g>
    <g
       transform="matrix(-0.26126153,-0.12288038,0.18234913,-0.30276812,63.878879,372.56468)"
       id="g21033">
      <path
         d="m -153.42348,646.14378 c -1.919,14.443 -14.276,25.605 -29.242,25.605 -14.205,0 -26.082,-10.041 -28.893,-23.413 -10.408,2.2411 -20.446,5.4599 -30.038,9.5397 5.256,13.367 0.10899,28.943 -12.703,36.34 -11.897,6.8683 -26.612,4.5282 -35.818,-4.8321 -6.4561,6.0028 -12.464,12.506 -17.909,19.453 11.462,8.902 14.883,25.138 7.4225,38.059 -7.1154,12.325 -21.791,17.594 -34.796,13.301 -3.1167,9.581 -5.4032,19.539 -6.7499,29.79 14.938,1.455 26.626,14.047 26.626,29.366 0,14.43 -10.371,26.431 -24.061,28.992 1.0186,4.591 2.1994,9.11 3.5867,13.55 2.6778,-0.70502 5.4161,-1.032 8.12,-0.97101 9.9691,0.22501 19.586,5.509 24.933,14.77 7.2778,12.606 4.1954,28.358 -6.6006,37.387 6.0239,7.929 12.736,15.31 20.051,22.043 5.562,-6.738 13.732,-10.521 22.143,-10.71 5.222,-0.11798 10.517,1.159 15.368,3.96 13.451,7.766 18.469,24.533 11.856,38.308 9.146,3.787 18.693,6.79 28.569,8.917 2.811,-13.372 14.688,-23.413 28.893,-23.413 14.966,0 27.323,11.162 29.242,25.605 8.943,-1.219 17.666,-3.129 26.103,-5.704 -4.414,-13.054 0.838,-27.843 13.226,-34.995 4.41,-2.546 9.215,-3.813 13.973,-3.936 9.568,-0.24698 18.958,4.187 24.784,12.354 8.508,-6.438 16.382,-13.679 23.513,-21.595 -10.227,-9.114 -13.021,-24.461 -5.904,-36.788 5.347,-9.261 14.964,-14.546 24.933,-14.77 3.977,-0.09 8.016,0.63098 11.856,2.216 3.446,-8.531 6.208,-17.416 8.22,-26.576 -12.831,-3.207 -22.343,-14.823 -22.343,-28.644 0,-14.699 10.766,-26.894 24.833,-29.142 -1.951,-15.014 -5.895,-29.397 -11.557,-42.891 -13.771,6.598 -30.521,1.588 -38.283,-11.856 -7.256,-12.569 -4.198,-28.271 6.526,-37.312 -6.438,-6.9339 -13.452,-13.34 -20.972,-19.104 -9.052,10.659 -24.7,13.69 -37.237,6.4511 -11.784,-6.803 -17.106,-20.52 -13.799,-33.077 -8.987,-2.8534 -18.301,-4.9722 -27.872,-6.2768 z m -22.766,106.61 c 1.022,0 2.03,0.023 3.039,0.074 4.035,0.205 7.974,0.81899 11.756,1.794 0.946,0.24301 1.888,0.50801 2.815,0.797 1.854,0.57701 3.659,1.243 5.43,1.992 0.88501,0.375 1.754,0.77799 2.615,1.19599 0.431,0.20901 0.871,0.42801 1.295,0.64801 0.06,0.03 0.116,0.069 0.175,0.099 0.578,0.299 1.152,0.605 1.718,0.922 0.62399,0.34999 1.233,0.7 1.844,1.071 1.627,0.98999 3.212,2.05 4.732,3.188 0.57001,0.426 1.139,0.87399 1.694,1.32 0.341,0.27501 0.68701,0.54001 1.021,0.82201 0.452,0.37999 0.87999,0.778 1.32,1.171 0.825,0.73601 1.636,1.486 2.416,2.266 0.502,0.50301 0.98601,1.024 1.47,1.545 0.008,0.008 0.017,0.016 0.025,0.025 0.22299,0.24 0.452,0.477 0.672,0.722 0.564,0.62701 1.107,1.266 1.644,1.918 0.151,0.183 0.3,0.36299 0.448,0.54799 0.448,0.55501 0.893,1.122 1.32,1.693 0.53299,0.71399 1.044,1.43 1.545,2.167 0.69899,1.031 1.382,2.088 2.017,3.164 0.362,0.612 0.70599,1.241 1.046,1.868 0.912,1.678 1.742,3.385 2.491,5.156 0.329,0.77499 0.651,1.549 0.94699,2.341 0.03,0.081 0.045,0.168 0.074,0.24899 0.263,0.713 0.51199,1.441 0.748,2.167 0.032,0.1 0.067,0.19899 0.099,0.299 0.092,0.28799 0.162,0.582 0.24899,0.87199 0.21501,0.711 0.43501,1.42 0.623,2.142 0.052,0.198 0.10001,0.398 0.149,0.59799 0.12801,0.51 0.235,1.029 0.349,1.544 0.14101,0.636 0.278,1.274 0.399,1.918 0.006,0.033 0.018,0.066 0.025,0.099 0.01,0.058 0.014,0.11699 0.025,0.175 0.135,0.743 0.26599,1.489 0.373,2.241 0.007,0.051 0.018,0.1 0.025,0.14999 0.023,0.16501 0.028,0.33301 0.05,0.498 0.091,0.69501 0.18201,1.39 0.24899,2.092 0.083,0.87401 0.15401,1.757 0.199,2.64 0.051,1.001 0.075,2.026 0.075,3.039 0,2.043 -0.097,4.038 -0.299,6.028 -9.9e-4,0.008 0.001,0.017 0,0.025 -0.101,0.98599 -0.22501,1.967 -0.37399,2.939 -0.001,0.008 0.002,0.017 0,0.025 -0.149,0.97101 -0.32701,1.934 -0.52301,2.889 -9.9e-4,0.008 0.002,0.017 0,0.025 -0.098,0.47801 -0.20999,0.94701 -0.323,1.42 -0.11,0.474 -0.228,0.95001 -0.349,1.419 -0.002,0.008 0.002,0.018 0,0.025 -0.242,0.938 -0.511,1.871 -0.797,2.79 -0.003,0.008 0.002,0.017 0,0.025 -0.576,1.846 -1.246,3.666 -1.993,5.43 -0.74901,1.771 -1.579,3.478 -2.491,5.156 -0.003,0.006 0.004,0.018 0,0.025 -0.909,1.671 -1.903,3.288 -2.964,4.857 -0.004,0.005 0.004,0.019 0,0.025 -0.528,0.78101 -1.079,1.537 -1.644,2.291 -0.004,0.006 0.005,0.02 0,0.025 -0.56401,0.755 -1.169,1.491 -1.768,2.217 -0.004,0.005 0.004,0.02 0,0.025 -2.411,2.919 -5.1,5.61 -8.02,8.02 -2.925,2.414 -6.085,4.553 -9.44,6.376 -1.678,0.91199 -3.41,1.742 -5.181,2.491 -1.771,0.74899 -3.576,1.416 -5.43,1.993 -0.927,0.28799 -1.869,0.55298 -2.815,0.797 -3.782,0.974 -7.721,1.588 -11.756,1.793 -1.009,0.051 -2.017,0.075 -3.039,0.075 -1.021,0 -2.03,-0.024 -3.038,-0.075 -4.035,-0.20502 -7.974,-0.819 -11.757,-1.793 -0.946,-0.24402 -1.888,-0.509 -2.814,-0.797 -1.854,-0.578 -3.66,-1.243 -5.43,-1.993 -1.771,-0.74899 -3.503,-1.579 -5.181,-2.491 -0.839,-0.45599 -1.652,-0.949 -2.466,-1.444 -0.814,-0.495 -1.626,-1.013 -2.416,-1.545 -0.78799,-0.53198 -1.557,-1.075 -2.317,-1.644 -1.519,-1.136 -2.981,-2.337 -4.383,-3.611 -0.69701,-0.63303 -1.377,-1.302 -2.043,-1.968 -0.674,-0.67398 -1.326,-1.337 -1.967,-2.042 -0.005,-0.005 0.004,-0.021 0,-0.025 -0.638,-0.702 -1.265,-1.411 -1.868,-2.142 -0.60399,-0.73099 -1.2,-1.482 -1.769,-2.242 -0.56799,-0.75998 -1.112,-1.528 -1.644,-2.316 -1.064,-1.575 -2.052,-3.204 -2.964,-4.882 -0.91199,-1.678 -1.741,-3.385 -2.491,-5.156 -0.003,-0.007 0.003,-0.018 0,-0.025 -0.371,-0.879 -0.741,-1.766 -1.071,-2.665 -0.002,-0.008 0.003,-0.018 0,-0.025 -0.332,-0.907 -0.633,-1.813 -0.921,-2.74 -0.282,-0.907 -0.53299,-1.815 -0.77199,-2.74 -0.018,-0.066 -0.033,-0.133 -0.05,-0.19899 -0.215,-0.841 -0.42,-1.71 -0.59801,-2.566 -0.045,-0.214 -0.082,-0.431 -0.125,-0.647 -0.11899,-0.60599 -0.248,-1.206 -0.34799,-1.818 -0.051,-0.30701 -0.104,-0.614 -0.15001,-0.922 -0.003,-0.024 0.004,-0.05 0,-0.075 -0.11899,-0.81001 -0.213,-1.62 -0.299,-2.441 -0.014,-0.14099 -0.036,-0.28099 -0.049,-0.423 -0.082,-0.84 -0.129,-1.691 -0.175,-2.541 -0.003,-0.067 -0.021,-0.13199 -0.025,-0.19899 -0.051,-1.009 -0.074,-2.017 -0.074,-3.039 0,-1.021 0.023,-2.03 0.074,-3.038 0.049,-0.99901 0.12399,-1.999 0.22499,-2.989 0,-0.009 -0.001,-0.017 0,-0.025 0.10001,-0.987 0.22501,-1.968 0.373,-2.939 0.001,-0.008 -0.001,-0.017 0,-0.025 0.149,-0.972 0.328,-1.934 0.52301,-2.89 0.002,-0.008 -0.001,-0.017 0,-0.024 0.196,-0.95599 0.43199,-1.902 0.67299,-2.84 0.002,-0.008 -0.002,-0.017 0,-0.025 0.241,-0.938 0.511,-1.87 0.797,-2.79 0.002,-0.007 -0.003,-0.017 0,-0.024 0.28801,-0.92699 0.589,-1.834 0.921,-2.74 0.24901,-0.68001 0.52501,-1.35 0.797,-2.018 0.031,-0.076 0.069,-0.148 0.10001,-0.224 0.134,-0.324 0.259,-0.64999 0.399,-0.97099 0.215,-0.49501 0.444,-0.98201 0.672,-1.47 0.157,-0.334 0.311,-0.66501 0.47301,-0.996 0.35799,-0.729 0.73399,-1.455 1.121,-2.167 0.004,-0.007 -0.003,-0.019 0,-0.025 0.45601,-0.839 0.925,-1.652 1.42,-2.466 0.498,-0.81999 1.008,-1.623 1.544,-2.416 0.52901,-0.782 1.08,-1.537 1.644,-2.292 0.004,-0.005 -0.004,-0.019 0,-0.024 0.565,-0.755 1.169,-1.491 1.769,-2.217 0.004,-0.005 -0.004,-0.02 0,-0.025 0.60301,-0.731 1.23,-1.441 1.868,-2.142 1.911,-2.104 3.958,-4.068 6.152,-5.878 2.924,-2.414 6.084,-4.553 9.44,-6.377 1.678,-0.91199 3.41,-1.741 5.181,-2.491 1.77,-0.74899 3.576,-1.415 5.43,-1.992 0.92601,-0.28899 1.868,-0.55399 2.814,-0.797 3.783,-0.974 7.722,-1.589 11.757,-1.794 1.008,-0.051 2.017,-0.074 3.038,-0.074 z"
         id="path21035"
         inkscape:connector-curvature="0"
         style="fill:#c0c0c0;stroke-width:0" />
      <path
         d="m -176.20348,675.55978 c -75.298,0 -136.4,61.122 -136.4,136.42 0,75.298 61.097,136.4 136.4,136.4 75.298,0 136.42,-61.097 136.42,-136.4 0,-75.298 -61.121,-136.42 -136.42,-136.42 z m 0.025,77.189 c 1.021,0 2.03,0.023 3.038,0.074 4.035,0.205 7.974,0.819 11.757,1.794 0.946,0.24301 1.888,0.50802 2.814,0.797 1.854,0.57701 3.66,1.243 5.43,1.992 2.656,1.124 5.205,2.452 7.647,3.936 1.628,0.98999 3.213,2.05 4.733,3.188 2.279,1.705 4.441,3.57 6.451,5.579 4.018,4.021 7.452,8.614 10.187,13.65 0.912,1.678 1.741,3.385 2.491,5.156 2.627,6.20501 4.224,12.956 4.583,20.025 0.05,1.00101 0.074,2.02601 0.074,3.039 0,2.043 -0.096,4.038 -0.29901,6.028 0,0.008 0.001,0.017 0,0.025 -0.1,0.98599 -0.22499,1.967 -0.37299,2.939 -10e-4,0.008 9.9e-4,0.017 0,0.025 -0.149,0.97101 -0.328,1.934 -0.52301,2.889 -0.002,0.008 0.001,0.017 0,0.025 -0.196,0.955 -0.431,1.902 -0.67299,2.839 -0.002,0.008 0.002,0.018 0,0.025 -0.242,0.938 -0.511,1.871 -0.79701,2.79 -0.002,0.008 0.003,0.017 0,0.025 -1.153,3.699 -2.663,7.237 -4.483,10.586 -0.004,0.006 0.003,0.018 0,0.025 -0.909,1.671 -1.904,3.288 -2.964,4.857 -0.004,0.005 0.004,0.019 0,0.025 -0.52901,0.78101 -1.08,1.537 -1.644,2.291 -0.004,0.006 0.004,0.02 0,0.025 -0.565,0.755 -1.169,1.491 -1.769,2.217 -0.004,0.005 0.005,0.02 0,0.025 -1.203,1.457 -2.475,2.849 -3.81,4.184 -0.674,0.67398 -1.362,1.327 -2.068,1.968 -0.701,0.63699 -1.411,1.265 -2.142,1.868 -2.924,2.414 -6.084,4.553 -9.44,6.376 -1.678,0.91199 -3.41,1.742 -5.181,2.491 -1.77001,0.74899 -3.576,1.416 -5.43001,1.993 -0.92599,0.28799 -1.86799,0.55298 -2.81399,0.797 -3.783,0.974 -7.72201,1.588 -11.75701,1.793 -1.008,0.051 -2.01699,0.075 -3.038,0.075 -1.022,0 -2.03,-0.024 -3.03899,-0.075 -4.035,-0.20502 -7.974,-0.819 -11.756,-1.793 -0.946,-0.24402 -1.88801,-0.509 -2.815,-0.797 -1.85401,-0.578 -3.659,-1.243 -5.43001,-1.993 -2.656,-1.124 -5.205,-2.451 -7.64699,-3.935 -1.62701,-0.98999 -3.212,-2.051 -4.732,-3.189 -3.045,-2.277 -5.84201,-4.836 -8.394,-7.646 -0.63699,-0.702 -1.265,-1.411 -1.868,-2.142 -2.414,-2.925 -4.553,-6.085 -6.376,-9.44 -0.91201,-1.678 -1.742,-3.385 -2.49101,-5.156 -0.003,-0.007 0.003,-0.018 0,-0.025 -0.37199,-0.879 -0.741,-1.766 -1.071,-2.665 -0.003,-0.008 0.002,-0.018 0,-0.025 -0.332,-0.907 -0.633,-1.813 -0.922,-2.74 -1.44399,-4.642 -2.336,-9.519 -2.59,-14.571 -0.051,-1.009 -0.075,-2.017 -0.075,-3.039 0,-2.051 0.095,-4.055 0.29901,-6.052 0.1,-0.987 0.22499,-1.968 0.37399,-2.939 0.001,-0.008 -0.002,-0.017 0,-0.025 0.14801,-0.972 0.327,-1.934 0.52301,-2.89 9.9e-4,-0.008 -0.002,-0.017 0,-0.024 0.19499,-0.95599 0.431,-1.902 0.672,-2.84 0.002,-0.008 -0.002,-0.017 0,-0.025 0.24199,-0.938 0.511,-1.87 0.797,-2.79 0.003,-0.007 -0.002,-0.017 0,-0.024 0.289,-0.92699 0.59,-1.834 0.922,-2.74 0.99901,-2.727 2.19,-5.349 3.562,-7.871 0.455,-0.839 0.925,-1.652 1.419,-2.466 0.49899,-0.81999 1.008,-1.623 1.545,-2.416 0.528,-0.782 1.079,-1.537 1.644,-2.292 0.003,-0.005 -0.004,-0.019 0,-0.024 0.56401,-0.755 1.169,-1.491 1.768,-2.217 0.004,-0.005 -0.004,-0.02 0,-0.025 0.603,-0.731 1.231,-1.441 1.868,-2.142 0.63701,-0.701 1.273,-1.373 1.943,-2.043 0.674,-0.674 1.362,-1.326 2.067,-1.967 0.701,-0.638 1.411,-1.265 2.142,-1.868 2.925,-2.414 6.085,-4.553 9.44,-6.377 1.678,-0.91199 3.41,-1.741 5.181,-2.491 1.771,-0.74899 3.576,-1.415 5.43,-1.992 0.927,-0.28899 1.869,-0.55399 2.815,-0.797 3.782,-0.974 7.721,-1.589 11.756,-1.794 1.009,-0.051 2.017,-0.074 3.039,-0.074 z"
         id="path21037"
         inkscape:connector-curvature="0"
         style="opacity:0.794;fill:#a9a9a9;stroke-width:0" />
      <path
         d="m -176.20348,693.31578 c -65.493,0 -118.64,53.168 -118.64,118.66 0,65.493 53.143,118.64 118.64,118.64 65.492,0 118.66,-53.143 118.66,-118.64 0,-65.492 -53.168,-118.66 -118.66,-118.66 z m 0.025,59.43 c 32.683,0 59.205,26.547 59.205,59.23 0,32.684 -26.522,59.206 -59.205,59.206 -32.684,0 -59.206,-26.547 -59.206,-59.231 0,-32.683 26.522,-59.205 59.206,-59.205 z"
         id="path21039"
         inkscape:connector-curvature="0"
         style="opacity:0.794;fill:url(#radialGradient21045);stroke-width:0" />
      <path
         d="m -176.18348,739.43578 c -40.092,0 -72.631,32.486 -72.631,72.516 0,40.03 32.539,72.542 72.631,72.542 40.093,0 72.631,-32.486 72.631,-72.516 v -0.026 c 0,-40.03 -32.538,-72.516 -72.631,-72.516 z m 0,16.423 c 31.07,0 56.287,25.141 56.287,56.119 0,30.977 -25.217,56.093 -56.287,56.093 -31.07,0 -56.286,-25.141 -56.286,-56.119 0,-30.977 25.216,-56.093 56.286,-56.093 z"
         id="path21041"
         inkscape:connector-curvature="0"
         style="opacity:0.58800001;fill:#696969;stroke-width:0;filter:url(#filter3340)" />
      <path
         d="m -176.18348,741.01578 c -39.102,0 -70.837,31.779 -70.837,70.937 0,39.159 31.735,70.962 70.837,70.962 39.103,0 70.838,-31.778 70.838,-70.937 v -0.025 c 0,-39.158 -31.735,-70.937 -70.838,-70.937 z m 0,16.066 c 30.303,0 54.897,24.593 54.897,54.896 0,30.303 -24.594,54.872 -54.897,54.872 -30.303,0 -54.896,-24.594 -54.896,-54.897 0,-30.303 24.593,-54.871 54.896,-54.871 z"
         id="path21043"
         inkscape:connector-curvature="0"
         style="fill:#c0c0c0;stroke-width:0" />
    </g>
    <g
       clip-path="url(#clipPath20943)"
       id="g21091"
       transform="matrix(0.79446882,-0.18083822,0,-0.79446882,57.664702,315.48247)">
      <g
         transform="translate(111.6152,125.3184)"
         id="g21093">
        <path
           inkscape:connector-curvature="0"
           id="path21095"
           style="fill:#ed1c24;fill-opacity:1;fill-rule:nonzero;stroke:none"
           d="m 0,0 28.31,86.95 c 6.573,1.012 12.893,1.516 18.96,1.516 3.198,0 6.444,-0.086 9.73,-0.251 3.287,-0.171 6.613,-0.507 9.983,-1.01 L 34.883,0.758 74.314,-94.283 c -3.877,-0.504 -7.29,-0.884 -10.237,-1.139 -2.951,-0.252 -5.94,-0.376 -8.972,-0.376 -2.868,0 -5.775,0.124 -8.72,0.376 -2.952,0.255 -6.533,0.721 -10.743,1.393 z m -40.977,0.758 -32.608,86.447 c 3.37,0.503 6.7,0.839 9.986,1.01 3.286,0.165 6.528,0.251 9.732,0.251 6.066,0 12.385,-0.504 18.957,-1.516 L -6.096,0 -42.24,-94.029 c -4.214,-0.672 -7.796,-1.138 -10.743,-1.393 -2.951,-0.252 -5.857,-0.376 -8.721,-0.376 -3.033,0 -6.026,0.124 -8.972,0.376 -2.951,0.255 -6.364,0.635 -10.238,1.139 z" />
      </g>
      <g
         transform="translate(245.0317,181.4312)"
         id="g21097" />
      <g
         transform="translate(301.0586,212.7739)"
         id="g21101" />
      <g
         transform="translate(468.6602,181.4312)"
         id="g21105" />
    </g>
  </g>
  <g
     id="g747"
     transform="translate(7.15091,-1.5729722)">
    <path
       style="opacity:0.62999998;fill:#cccccc;fill-rule:evenodd;stroke:#666666;stroke-width:2.05710006"
       inkscape:connector-curvature="0"
       id="path341"
       d="m 475.431,355.9884 c 0,72.30022 -58.61069,130.913 -130.913,130.913 -72.30231,0 -130.913,-58.6107 -130.913,-130.913 0,-72.30231 58.61069,-130.91301 130.913,-130.91301 72.30231,0 130.913,58.6107 130.913,130.91301 z m 8.00013,0 c 0,76.72016 -62.19421,138.91229 -138.91229,138.91229 -76.71809,0 -138.9123,-62.19421 -138.9123,-138.91229 0,-76.71808 62.19421,-138.91229 138.9123,-138.91229 76.71808,0 138.91229,62.19421 138.91229,138.91229 z" />
    <path
       style="opacity:0.62999998;fill:#cccccc;fill-rule:evenodd;stroke:#666666;stroke-width:2.05708957"
       inkscape:connector-curvature="0"
       id="path343"
       d="m 364.43488,355.98214 c 0,10.99678 -8.91456,19.91166 -19.91166,19.91166 -10.99709,0 -19.91166,-8.91456 -19.91166,-19.91166 0,-10.99709 8.91457,-19.91165 19.91166,-19.91165 10.9971,0 19.91166,8.91456 19.91166,19.91165 z m 25.81132,10e-6 c 0,25.25189 -20.47078,45.72423 -45.72423,45.72423 -25.25345,0 -45.72423,-20.47077 -45.72423,-45.72423 0,-25.25345 20.47078,-45.72422 45.72423,-45.72422 25.25345,0 45.72423,20.47077 45.72423,45.72422 z" />
    <path
       style="fill:#999999;fill-rule:evenodd;stroke-width:0.71845502"
       inkscape:connector-curvature="0"
       id="path345"
       d="m 390.24869,355.98282 c 0,25.25154 -20.47022,45.72248 -45.72248,45.72248 -25.25226,0 -45.72248,-20.47022 -45.72248,-45.72248 0,-25.25225 20.47022,-45.72248 45.72248,-45.72248 25.25226,0 45.72248,20.47023 45.72248,45.72248 z m 87.01927,0 c 0,73.31115 -59.4306,132.74175 -132.74175,132.74175 -73.31115,0 -132.74175,-59.4306 -132.74175,-132.74175 0,-73.31116 59.4306,-132.74176 132.74175,-132.74176 73.31115,0 132.74175,59.4306 132.74175,132.74176 z" />
    <path
       style="opacity:0.32000002;fill:none;stroke:#666666;stroke-width:2.05710006"
       inkscape:connector-curvature="0"
       id="path347"
       d="m 378.43832,355.9884 c 0,18.73544 -15.18801,33.92241 -33.9224,33.92241 -18.7344,0 -33.92241,-15.18802 -33.92241,-33.92241 0,-18.7344 15.18801,-33.92241 33.92241,-33.92241 18.73439,0 33.9224,15.18801 33.9224,33.92241 z" />
    <g
       style="opacity:0.54259997"
       id="g373"
       transform="matrix(2.0858641,0,0,2.0858641,-676.8629,-794.11535)">
      <path
         style="fill:#ff0000;filter:url(#n)"
         inkscape:connector-curvature="0"
         id="path349"
         d="m 430.31,529.03 c -1.0697,2.8552 -1.9434,5.7841 -2.5963,8.7838 l 40.736,8.9493 c 0.22939,-1.0782 0.54681,-2.1372 0.93225,-3.1615 l -39.071,-14.572 z" />
      <path
         style="fill:#ffff00;filter:url(#o)"
         inkscape:connector-curvature="0"
         id="path351"
         d="m 438.47,513.84 c -1.8419,2.5312 -3.5014,5.1886 -4.9525,7.9592 l 37.042,19.192 c 0.54254,-1.0169 1.181,-1.9761 1.8767,-2.8969 l -33.966,-24.254 z" />
      <path
         style="fill:#0000ff;filter:url(#p)"
         inkscape:connector-curvature="0"
         id="path353"
         d="m 450.59,501.27 c -2.5109,1.9745 -4.8514,4.1038 -7.0177,6.4097 l 30.832,28.135 c 0.84878,-0.85081 1.7451,-1.6431 2.7349,-2.3504 l -26.55,-32.194 z" />
      <path
         style="fill:#ff6600;filter:url(#q)"
         inkscape:connector-curvature="0"
         id="path355"
         d="m 433.92,521.04 c -1.4679,2.713 -2.7286,5.5204 -3.7924,8.4249 l 39.188,14.282 c 0.38767,-1.0528 0.83963,-2.0764 1.3813,-3.0554 l -36.777,-19.651 z" />
      <path
         style="fill:#008000;filter:url(#r)"
         inkscape:connector-curvature="0"
         id="path357"
         d="m 444.31,506.9 c -2.1908,2.2552 -4.2298,4.68 -6.0565,7.2198 l 34.107,24.055 c 0.70359,-0.94115 1.4772,-1.8406 2.3278,-2.662 l -30.378,-28.613 z" />
      <path
         style="fill:#800080;filter:url(#s)"
         inkscape:connector-curvature="0"
         id="path359"
         d="m 458.6,495.89 c -2.7845,1.5708 -5.4232,3.3481 -7.9007,5.2875 l 26.497,32.241 c 0.98455,-0.69887 2.0496,-1.3143 3.1602,-1.8497 l -21.696,-35.695 c -0.0177,0.01 -0.0426,0.006 -0.0604,0.0162 z" />
      <path
         style="fill:#ff0000;filter:url(#n)"
         inkscape:connector-curvature="0"
         id="path361"
         d="m 549.01,573.36 c 1.0697,-2.8552 1.9434,-5.7841 2.5963,-8.7838 l -40.736,-8.9493 c -0.22939,1.0782 -0.54681,2.1372 -0.93225,3.1615 l 39.071,14.572 z" />
      <path
         style="fill:#ffff00;filter:url(#o)"
         inkscape:connector-curvature="0"
         id="path363"
         d="m 540.85,588.55 c 1.8419,-2.5312 3.5014,-5.1886 4.9525,-7.9592 l -37.042,-19.192 c -0.54254,1.0169 -1.181,1.9761 -1.8767,2.8969 l 33.966,24.254 z" />
      <path
         style="fill:#0000ff;filter:url(#p)"
         inkscape:connector-curvature="0"
         id="path365"
         d="m 528.72,601.12 c 2.5109,-1.9745 4.8514,-4.1038 7.0177,-6.4097 l -30.832,-28.135 c -0.84878,0.85081 -1.7451,1.6431 -2.7349,2.3504 l 26.55,32.194 z" />
      <path
         style="fill:#ff6600;filter:url(#q)"
         inkscape:connector-curvature="0"
         id="path367"
         d="m 545.39,581.35 c 1.4679,-2.713 2.7286,-5.5204 3.7924,-8.4249 l -39.188,-14.282 c -0.38767,1.0528 -0.83963,2.0764 -1.3813,3.0554 l 36.777,19.651 z" />
      <path
         style="fill:#008000;filter:url(#r)"
         inkscape:connector-curvature="0"
         id="path369"
         d="m 535.01,595.48 c 2.1908,-2.2552 4.2298,-4.68 6.0565,-7.2198 l -34.107,-24.055 c -0.70359,0.94115 -1.4772,1.8406 -2.3278,2.662 l 30.378,28.613 z" />
      <path
         style="fill:#800080;filter:url(#s)"
         inkscape:connector-curvature="0"
         id="path371"
         d="m 520.72,606.5 c 2.7845,-1.5708 5.4232,-3.3481 7.9007,-5.2875 l -26.497,-32.241 c -0.98455,0.69887 -2.0496,1.3143 -3.1602,1.8497 l 21.696,35.695 c 0.0177,-0.01 0.0426,-0.006 0.0604,-0.0162 z" />
    </g>
    <path
       style="fill:#ffffff;fill-rule:evenodd;filter:url(#t)"
       inkscape:connector-curvature="0"
       id="path375"
       d="m 512.34,492.34 -14.531,46.062 c 7.78,1.0288 5.2964,-2.375 8.2812,4.5938 l 34.844,-27.406 c -9.1113,-18.75 -7.1477,-20.33 -28.594,-23.25 z"
       transform="matrix(2.0858641,0,0,2.0858641,-676.8629,-794.11535)" />
    <path
       style="fill:#ffffff;fill-rule:evenodd;filter:url(#t)"
       inkscape:connector-curvature="0"
       id="path377"
       d="m 512.34,492.34 -16.531,46.062 c 7.78,1.0288 -4.9536,3.875 -1.9688,10.844 l 47.094,-33.656 c -9.1113,-18.75 -7.1477,-20.33 -28.594,-23.25 z"
       transform="matrix(-2.0858641,0,0,-2.0858641,1370.4127,1512.016)" />
  </g>
  <circle
     style="opacity:0.5;fill:none"
     id="path4985"
     cx="-579.47241"
     cy="128.36441"
     r="124.9556" />
  <text
     xml:space="preserve"
     style="font-style:normal;font-weight:normal;font-size:40px;line-height:1.25;font-family:sans-serif;letter-spacing:0px;word-spacing:0px;fill:#b42331;fill-opacity:1;stroke:#232323;stroke-opacity:1;"
     id="text224"><textPath
       xlink:href="#path226"
       id="textPath231"
       style="font-style:normal;font-variant:normal;font-weight:normal;font-stretch:normal;font-size:44px;font-family:'League Spartan';-inkscape-font-specification:'League Spartan';fill:#b42331;fill-opacity:1;stroke:#232323;stroke-opacity:1;">Build    Engine</textPath></text>
  <path
     style="opacity:0.8;fill:none;fill-opacity:1;stroke-width:0.61035424"
     id="path226"
     sodipodi:type="arc"
     sodipodi:cx="352.36636"
     sodipodi:cy="-353.40494"
     sodipodi:rx="115.74245"
     sodipodi:ry="115.74245"
     sodipodi:start="3.4792467"
     sodipodi:end="3.1415927"
     d="m 243.15938,-391.74746 a 115.74245,115.74245 0 0 1 138.20538,-73.70839 115.74245,115.74245 0 0 1 85.09849,131.49867 115.74245,115.74245 0 0 1 -123.85552,95.88256 115.74245,115.74245 0 0 1 -105.98381,-115.33032 l 115.74244,0 z"
     transform="scale(1,-1)" />
</svg>
