<?xml version="1.0" encoding="UTF-8" standalone="no"?>
<svg
   xmlns:dc="http://purl.org/dc/elements/1.1/"
   xmlns:cc="http://creativecommons.org/ns#"
   xmlns:rdf="http://www.w3.org/1999/02/22-rdf-syntax-ns#"
   xmlns:svg="http://www.w3.org/2000/svg"
   xmlns="http://www.w3.org/2000/svg"
   xmlns:xlink="http://www.w3.org/1999/xlink"
   xmlns:sodipodi="http://sodipodi.sourceforge.net/DTD/sodipodi-0.dtd"
   xmlns:inkscape="http://www.inkscape.org/namespaces/inkscape"
   viewBox="0 0 250 250"
   id="svg2"
   version="1.1"
   inkscape:version="0.92.5 (2060ec1f9f, 2020-04-08)"
   sodipodi:docname="Frequency.svg"
   inkscape:export-filename="/home/simon/Incoming/Stop.png"
   inkscape:export-xdpi="50"
   inkscape:export-ydpi="50"
   width="250"
   height="250">
  <metadata
     id="metadata38">
    <rdf:RDF>
      <cc:Work
         rdf:about="">
        <dc:format>image/svg+xml</dc:format>
        <dc:type
           rdf:resource="http://purl.org/dc/dcmitype/StillImage" />
        <dc:title></dc:title>
      </cc:Work>
    </rdf:RDF>
  </metadata>
  <sodipodi:namedview
     pagecolor="#ffffff"
     bordercolor="#666666"
     borderopacity="1"
     objecttolerance="10"
     gridtolerance="10"
     guidetolerance="10"
     inkscape:pageopacity="0"
     inkscape:pageshadow="2"
     inkscape:window-width="1426"
     inkscape:window-height="998"
     id="namedview36"
     showgrid="false"
     inkscape:zoom="1.2421053"
     inkscape:cx="146.76535"
     inkscape:cy="198.66528"
     inkscape:window-x="617"
     inkscape:window-y="587"
     inkscape:window-maximized="0"
     inkscape:current-layer="svg2"
     fit-margin-top="0"
     fit-margin-left="0"
     fit-margin-right="0"
     fit-margin-bottom="0" />
  <defs
     id="defs4">
    <filter
       id="filter5307">
      <feGaussianBlur
         stdDeviation="4.56079"
         id="feGaussianBlur7" />
    </filter>
    <filter
       id="filter6347">
      <feGaussianBlur
         stdDeviation="4.75657"
         id="feGaussianBlur10" />
    </filter>
    <linearGradient
       id="linearGradient2176">
      <stop
         offset="0"
         stop-color="#fff"
         id="stop13" />
      <stop
         offset="1"
         stop-color="#fff"
         stop-opacity="0"
         id="stop15" />
    </linearGradient>
    <linearGradient
       gradientUnits="userSpaceOnUse"
       id="linearGradient6313"
       x1="34.892929"
       x2="229.59978">
      <stop
         offset="0"
         stop-color="#710000"
         id="stop18" />
      <stop
         offset="1"
         stop-color="#00f"
         stop-opacity="0"
         id="stop20" />
    </linearGradient>
    <linearGradient
       gradientTransform="matrix(0.85329,0,0,0.9621,-33.36232,-334.51709)"
       gradientUnits="userSpaceOnUse"
       id="linearGradient5334"
       x1="144.08931"
       x2="142.5817"
       xlink:href="#linearGradient2176"
       y1="320.07269"
       y2="460.21436" />
    <linearGradient
       gradientUnits="userSpaceOnUse"
       id="linearGradient2182"
       x1="87.835258"
       x2="88.822166"
       xlink:href="#linearGradient2176"
       y1="210.72517"
       y2="151.51039" />
    <linearGradient
       y2="125.93738"
       y1="10.67599"
       x2="0"
       id="linearGradient2997"
       gradientUnits="userSpaceOnUse"
       gradientTransform="translate(220.02119,-12.648302)">
      <stop
         id="stop4171"
         stop-opacity=".51724"
         stop-color="#fff"
         offset="0" />
      <stop
         id="stop4173"
         stop-opacity="0"
         stop-color="#fff"
         offset="1" />
    </linearGradient>
    <linearGradient
       y2="149.94038"
       y1="89.098053"
       x2="150.87259"
       x1="59.787651"
       id="linearGradient3000"
       gradientUnits="userSpaceOnUse"
       gradientTransform="translate(220.02119,-12.648302)">
      <stop
         id="stop4176"
         stop-color="#cd0e00"
         offset="0" />
      <stop
         id="stop4178"
         stop-color="#550600"
         offset="1" />
    </linearGradient>
    <linearGradient
       id="linearGradient5190">
      <stop
         id="stop4213"
         stop-color="#fff"
         offset="0" />
      <stop
         id="stop4215"
         stop-color="#f00"
         offset="1" />
    </linearGradient>
    <linearGradient
       y2="611.84717"
       y1="529.36237"
       xlink:href="#linearGradient5190"
       x2="246.42752"
       x1="210.17181"
       id="linearGradient2109"
       gradientUnits="userSpaceOnUse"
       gradientTransform="matrix(0.9,0,0,0.9,-133.2315,-454.473)" />
    <linearGradient
       y2="427.54285"
       y1="262.87494"
       xlink:href="#linearGradient5190"
       x2="272.02597"
       x1="249.48328"
       id="linearGradient2107"
       gradientUnits="userSpaceOnUse"
       gradientTransform="matrix(-0.271467,0.07274001,-0.0746544,-0.278613,229.34025,202.62762)" />
    <linearGradient
       y2="611.84717"
       y1="529.36237"
       xlink:href="#linearGradient5190"
       x2="246.42752"
       x1="210.17181"
       id="linearGradient2109-6"
       gradientUnits="userSpaceOnUse" />
    <linearGradient
       y2="427.54285"
       y1="262.87494"
       xlink:href="#linearGradient5190"
       x2="272.02597"
       x1="249.48328"
       id="linearGradient2107-0"
       gradientUnits="userSpaceOnUse"
       gradientTransform="matrix(-0.30163,0.08082223,-0.08294933,-0.30957,402.8575,730.1118)" />
    <filter
       id="filter6126">
      <feGaussianBlur
         id="feGaussianBlur7-5"
         stdDeviation=".53036" />
    </filter>
    <filter
       id="filter11428">
      <feGaussianBlur
         id="feGaussianBlur10-2"
         stdDeviation="1.24347" />
    </filter>
    <linearGradient
       y2="391.44925"
       y1="300.86383"
       x2="341.99622"
       x1="275.60828"
       id="linearGradient8413"
       gradientUnits="userSpaceOnUse">
      <stop
         style="stop-color:#005500;stop-opacity:1"
         id="stop18-4"
         stop-color="#500"
         offset="0" />
      <stop
         style="stop-color:#00ff00;stop-opacity:1"
         id="stop20-1"
         stop-color="#f00"
         offset="1" />
    </linearGradient>
    <linearGradient
       y2="367.88477"
       y1="287.49377"
       xlink:href="#linearGradient2176"
       x2="315.47369"
       x1="241.40979"
       id="linearGradient8411"
       gradientUnits="userSpaceOnUse" />
    <linearGradient
       y2="337.74042"
       y1="287.91769"
       xlink:href="#linearGradient2176"
       x2="422.97784"
       x1="380.03381"
       id="linearGradient10449"
       gradientUnits="userSpaceOnUse" />
    <radialGradient
       r="53.035709"
       id="radialGradient8415"
       gradientUnits="userSpaceOnUse"
       gradientTransform="matrix(-0.59327,-0.59327,0.71505,-0.71505,243.27022,849.03358)"
       cy="386.57211"
       cx="312.78131">
      <stop
         id="stop25"
         stop-opacity=".40816"
         stop-color="#fff"
         offset="0" />
      <stop
         id="stop27"
         stop-opacity="0"
         stop-color="#fff"
         offset="1" />
    </radialGradient>
    <clipPath
       id="clipPath905"
       clipPathUnits="userSpaceOnUse">
      <path
         style="fill:#000000;stroke-width:0.18480755"
         d="m 103.25028,189.10311 c -1.52449,-0.47576 -2.79025,-1.65731 -3.368752,-3.14469 -0.626502,-1.61073 -0.0886,-4.09638 1.174682,-5.42825 0.62661,-0.6606 2.19186,-1.49719 2.80698,-1.5002 0.22837,-0.001 1.60034,-1.233 3.62252,-3.25281 l 3.25479,-3.25101 -0.26771,-0.76857 c -0.38709,-1.11109 -0.50528,-3.42218 -0.24441,-4.77922 0.12297,-0.64017 0.52461,-1.78766 0.89235,-2.55 0.6257,-1.29711 1.12002,-1.8407 7.70259,-8.4704 3.87152,-3.89924 7.40785,-7.30558 7.86559,-7.57642 1.77132,-1.04819 4.24571,-0.42818 5.24146,1.31331 0.59007,1.032 0.73138,1.94569 0.4689,3.03142 -0.20203,0.83567 -0.64804,1.32572 -7.20231,7.91352 -4.01432,4.03486 -7.07553,7.25776 -7.19514,7.5752 -0.58701,1.55787 1.0076,3.24219 2.52942,2.67171 0.28643,-0.10731 3.68126,-3.33851 7.54373,-7.18024 6.43993,-6.40529 7.09561,-7.00456 7.9013,-7.22152 2.55661,-0.68845 4.96733,1.07546 4.99162,3.65227 0.008,0.63032 -0.11571,1.3274 -0.29979,1.71472 -0.17682,0.37273 -3.45754,3.78979 -7.65268,7.97069 -6.2688,6.24745 -7.51172,7.40223 -8.49618,7.89385 -2.24975,1.12347 -4.74721,1.39835 -7.10852,0.78235 l -1.23899,-0.32308 -3.05189,3.0598 c -2.88042,2.88787 -3.06331,3.11357 -3.25518,4.01736 -0.62696,2.95298 -3.7201,4.75359 -6.61434,3.85037 z m 3.03822,-3.28962 c 1.30586,-1.19675 0.92209,-3.17692 -0.73817,-3.80881 -0.97487,-0.37121 -2.04853,-0.008 -2.66579,0.90445 -1.00309,1.48076 0.0982,3.51131 1.90456,3.51131 0.68852,0 0.95459,-0.1077 1.4994,-0.60695 z m 5.99075,-7.80177 c 2.22455,-2.21065 3.18819,-3.04934 3.50371,-3.04934 0.23945,0 0.97831,0.2173 1.64212,0.48283 1.05732,0.42299 1.40561,0.47337 2.81004,0.40619 2.84177,-0.13596 2.89291,-0.17453 10.93528,-8.23263 4.25403,-4.26243 6.97646,-7.12662 6.97646,-7.33968 0,-0.1921 -0.13749,-0.50151 -0.3059,-0.68738 -0.73951,-0.81714 -0.88765,-0.69799 -8.27984,6.66094 -7.82919,7.79394 -7.72612,7.71542 -9.93325,7.56652 -2.74367,-0.18522 -4.60087,-2.13537 -4.61653,-4.84788 -0.0115,-2.14866 0.0554,-2.23562 7.71241,-9.90557 4.2543,-4.26143 6.92189,-7.0691 6.92189,-7.28533 0,-0.48463 -0.53073,-1.0278 -1.0042,-1.0278 -0.27077,0 -2.63391,2.25021 -7.61782,7.25371 -6.72563,6.75202 -7.25245,7.32765 -7.61797,8.32326 -0.57815,1.57479 -0.54363,3.66468 0.0867,5.23986 0.27994,0.69967 0.43537,1.37254 0.37388,1.61783 -0.058,0.23105 -1.47962,1.78151 -3.15925,3.4457 l -3.05384,3.02577 0.68467,0.70117 c 0.37655,0.38564 0.72705,0.70116 0.77888,0.70116 0.0519,0 1.47508,-1.3722 3.16272,-3.04933 z"
         id="path907"
         inkscape:connector-curvature="0" />
    </clipPath>
    <filter
       id="filter6126-6">
      <feGaussianBlur
         stdDeviation=".53036"
         id="feGaussianBlur7-2" />
    </filter>
    <filter
       id="filter11428-0">
      <feGaussianBlur
         stdDeviation="1.24347"
         id="feGaussianBlur10-4" />
    </filter>
    <linearGradient
       gradientTransform="matrix(0.61943542,0,0,0.61943542,-63.534069,-50.056775)"
       gradientUnits="userSpaceOnUse"
       id="linearGradient8413-0"
       x1="275.60828"
       x2="341.99622"
       y1="300.86383"
       y2="391.44925">
      <stop
         offset="0"
         stop-color="#500"
         id="stop18-3" />
      <stop
         offset="1"
         stop-color="#f00"
         id="stop20-0" />
    </linearGradient>
    <linearGradient
       gradientTransform="matrix(0.73760064,0,0,0.73760064,-99.426756,-90.9552)"
       gradientUnits="userSpaceOnUse"
       id="linearGradient8411-8"
       x1="241.40979"
       x2="315.47369"
       xlink:href="#linearGradient2176"
       y1="287.49377"
       y2="367.88477" />
    <linearGradient
       gradientTransform="matrix(0.76865427,0,0,0.76865427,-193.59951,-77.541409)"
       gradientUnits="userSpaceOnUse"
       id="linearGradient10449-5"
       x1="380.03381"
       x2="422.97784"
       xlink:href="#linearGradient2176"
       y1="287.91769"
       y2="337.74042" />
    <radialGradient
       cx="312.78131"
       cy="386.57211"
       gradientTransform="matrix(-0.3457768,-0.3457768,0.41675409,-0.41675409,89.369885,457.4561)"
       gradientUnits="userSpaceOnUse"
       id="radialGradient8415-4"
       r="53.035709">
      <stop
         style="stop-color:#ff9955;stop-opacity:1"
         offset="0"
         stop-color="#fff"
         stop-opacity=".40816"
         id="stop25-3" />
      <stop
         style="stop-color:#c87137;stop-opacity:1"
         offset="1"
         stop-color="#fff"
         stop-opacity="0"
         id="stop27-7" />
    </radialGradient>
    <clipPath
       id="clipPath905-8"
       clipPathUnits="userSpaceOnUse">
      <path
         style="fill:#000000;stroke-width:0.18480755"
         d="m 103.25028,189.10311 c -1.52449,-0.47576 -2.79025,-1.65731 -3.368752,-3.14469 -0.626502,-1.61073 -0.0886,-4.09638 1.174682,-5.42825 0.62661,-0.6606 2.19186,-1.49719 2.80698,-1.5002 0.22837,-0.001 1.60034,-1.233 3.62252,-3.25281 l 3.25479,-3.25101 -0.26771,-0.76857 c -0.38709,-1.11109 -0.50528,-3.42218 -0.24441,-4.77922 0.12297,-0.64017 0.52461,-1.78766 0.89235,-2.55 0.6257,-1.29711 1.12002,-1.8407 7.70259,-8.4704 3.87152,-3.89924 7.40785,-7.30558 7.86559,-7.57642 1.77132,-1.04819 4.24571,-0.42818 5.24146,1.31331 0.59007,1.032 0.73138,1.94569 0.4689,3.03142 -0.20203,0.83567 -0.64804,1.32572 -7.20231,7.91352 -4.01432,4.03486 -7.07553,7.25776 -7.19514,7.5752 -0.58701,1.55787 1.0076,3.24219 2.52942,2.67171 0.28643,-0.10731 3.68126,-3.33851 7.54373,-7.18024 6.43993,-6.40529 7.09561,-7.00456 7.9013,-7.22152 2.55661,-0.68845 4.96733,1.07546 4.99162,3.65227 0.008,0.63032 -0.11571,1.3274 -0.29979,1.71472 -0.17682,0.37273 -3.45754,3.78979 -7.65268,7.97069 -6.2688,6.24745 -7.51172,7.40223 -8.49618,7.89385 -2.24975,1.12347 -4.74721,1.39835 -7.10852,0.78235 l -1.23899,-0.32308 -3.05189,3.0598 c -2.88042,2.88787 -3.06331,3.11357 -3.25518,4.01736 -0.62696,2.95298 -3.7201,4.75359 -6.61434,3.85037 z m 3.03822,-3.28962 c 1.30586,-1.19675 0.92209,-3.17692 -0.73817,-3.80881 -0.97487,-0.37121 -2.04853,-0.008 -2.66579,0.90445 -1.00309,1.48076 0.0982,3.51131 1.90456,3.51131 0.68852,0 0.95459,-0.1077 1.4994,-0.60695 z m 5.99075,-7.80177 c 2.22455,-2.21065 3.18819,-3.04934 3.50371,-3.04934 0.23945,0 0.97831,0.2173 1.64212,0.48283 1.05732,0.42299 1.40561,0.47337 2.81004,0.40619 2.84177,-0.13596 2.89291,-0.17453 10.93528,-8.23263 4.25403,-4.26243 6.97646,-7.12662 6.97646,-7.33968 0,-0.1921 -0.13749,-0.50151 -0.3059,-0.68738 -0.73951,-0.81714 -0.88765,-0.69799 -8.27984,6.66094 -7.82919,7.79394 -7.72612,7.71542 -9.93325,7.56652 -2.74367,-0.18522 -4.60087,-2.13537 -4.61653,-4.84788 -0.0115,-2.14866 0.0554,-2.23562 7.71241,-9.90557 4.2543,-4.26143 6.92189,-7.0691 6.92189,-7.28533 0,-0.48463 -0.53073,-1.0278 -1.0042,-1.0278 -0.27077,0 -2.63391,2.25021 -7.61782,7.25371 -6.72563,6.75202 -7.25245,7.32765 -7.61797,8.32326 -0.57815,1.57479 -0.54363,3.66468 0.0867,5.23986 0.27994,0.69967 0.43537,1.37254 0.37388,1.61783 -0.058,0.23105 -1.47962,1.78151 -3.15925,3.4457 l -3.05384,3.02577 0.68467,0.70117 c 0.37655,0.38564 0.72705,0.70116 0.77888,0.70116 0.0519,0 1.47508,-1.3722 3.16272,-3.04933 z"
         id="path907-5"
         inkscape:connector-curvature="0" />
    </clipPath>
    <filter
       id="filter6126-7">
      <feGaussianBlur
         stdDeviation=".53036"
         id="feGaussianBlur7-52" />
    </filter>
    <filter
       id="filter11428-7">
      <feGaussianBlur
         stdDeviation="1.24347"
         id="feGaussianBlur10-9" />
    </filter>
    <radialGradient
       cx="312.78131"
       cy="386.57211"
       gradientTransform="matrix(-0.3457768,-0.3457768,0.41675409,-0.41675409,89.369885,457.4561)"
       gradientUnits="userSpaceOnUse"
       id="radialGradient8415-5"
       r="53.035709">
      <stop
         style="stop-color:#ff9955;stop-opacity:1"
         offset="0"
         stop-color="#fff"
         stop-opacity=".40816"
         id="stop25-39" />
      <stop
         style="stop-color:#c87137;stop-opacity:1"
         offset="1"
         stop-color="#fff"
         stop-opacity="0"
         id="stop27-3" />
    </radialGradient>
    <linearGradient
       y2="291.75388"
       y1="34.529037"
       x2="76.748428"
       x1="74.978867"
       id="b"
       gradientTransform="matrix(1.1976421,0,0,0.83497402,-137.57651,92.044731)"
       gradientUnits="userSpaceOnUse">
      <stop
         id="stop904"
         offset="0"
         stop-opacity=".502"
         stop-color="#fff" />
      <stop
         id="stop906"
         offset="1"
         stop-opacity="0"
         stop-color="#666" />
    </linearGradient>
    <linearGradient
       y2="291.75388"
       y1="34.529037"
       x2="76.748428"
       x1="74.978867"
       id="b-4"
       gradientTransform="matrix(0.91403522,0,0,0.82441246,-26.30661,-29.860073)"
       gradientUnits="userSpaceOnUse">
      <stop
         id="stop904-8"
         offset="0"
         stop-opacity=".502"
         stop-color="#fff" />
      <stop
         id="stop906-2"
         offset="1"
         stop-opacity="0"
         stop-color="#666" />
    </linearGradient>
  </defs>
  <rect
     style="fill:#008080;stroke:#333333;stroke-width:7.15114355"
     x="3.5755718"
     y="3.5755718"
     width="242.84886"
     height="242.84886"
     rx="8.8026991"
     ry="11.388106"
     id="rect913" />
  <path
     style="fill:none;stroke:#ffff00;stroke-width:4.75006771;stroke-linecap:round;stroke-linejoin:round"
     inkscape:connector-curvature="0"
     d="m 8.0822501,125.38111 c 11.1006699,33.39715 22.2013599,66.4349 33.3020399,87.26998 11.10068,20.83409 22.20136,28.97086 33.3028,21.55388 11.10068,-7.41699 22.20137,-30.30872 33.30281,-60.39231 11.10068,-30.08361 22.20136,-66.76567 33.30204,-96.862113 11.10068,-30.09642 22.20136,-52.9457 33.30204,-60.39231 11.10069,-7.4461998 22.20136,0.7427 33.30281,21.55388 11.10068,20.81138 22.20136,53.87184 33.30204,87.269983"
     id="path915" />
  <g
     style="fill:none;stroke:#000000"
     transform="matrix(0.58884361,0,0,0.58036491,48.16604,122.05374)"
     id="g943">
    <g
       style="stroke-width:2"
       id="g923">
      <path
         inkscape:connector-curvature="0"
         d="m 29.606,-196.99 v 400"
         id="path917" />
      <path
         inkscape:connector-curvature="0"
         d="m 129.61,-196.99 v 400"
         id="path919" />
      <path
         inkscape:connector-curvature="0"
         d="m 229.61,-196.99 v 400"
         id="path921" />
    </g>
    <g
       style="stroke-width:2"
       id="g931">
      <path
         inkscape:connector-curvature="0"
         d="m -70.394,-96.992 h 400"
         id="path925" />
      <path
         inkscape:connector-curvature="0"
         d="m -70.394,3.0081 h 400"
         id="path927" />
      <path
         inkscape:connector-curvature="0"
         d="m -70.394,103.01 h 400"
         id="path929" />
    </g>
    <path
       inkscape:connector-curvature="0"
       d="m -20.394,-196.99 v 400"
       id="path933" />
    <path
       inkscape:connector-curvature="0"
       d="m 79.606,-196.99 v 400"
       id="path935" />
    <path
       inkscape:connector-curvature="0"
       d="m 179.61,-196.99 v 400"
       id="path937" />
    <path
       inkscape:connector-curvature="0"
       d="m 279.61,-196.99 v 400"
       id="path939" />
    <rect
       style="stroke-width:3.00900006"
       x="-70.389999"
       y="-197.60001"
       width="400.45001"
       height="402.57999"
       rx="7.9579"
       ry="7.9579"
       id="rect941" />
  </g>
  <path
     style="fill:url(#b-4);stroke-width:0.86806798"
     inkscape:connector-curvature="0"
     d="m 10.81983,7.4193172 229.0808,0.22276 C 206.94051,155.09307 76.85151,66.143607 5.8285301,218.54024 l 0.10211,-202.239103 c -0.30639,-5.57241 0.89936,-8.0887698 4.8877399,-8.8815198 z"
     id="path994" />
</svg>
