<?xml version="1.0" encoding="UTF-8" standalone="no"?>
<svg
   xmlns:dc="http://purl.org/dc/elements/1.1/"
   xmlns:cc="http://creativecommons.org/ns#"
   xmlns:rdf="http://www.w3.org/1999/02/22-rdf-syntax-ns#"
   xmlns:svg="http://www.w3.org/2000/svg"
   xmlns="http://www.w3.org/2000/svg"
   xmlns:xlink="http://www.w3.org/1999/xlink"
   xmlns:sodipodi="http://sodipodi.sourceforge.net/DTD/sodipodi-0.dtd"
   xmlns:inkscape="http://www.inkscape.org/namespaces/inkscape"
   viewBox="0 0 250 250"
   id="svg2"
   version="1.1"
   inkscape:version="0.92.5 (2060ec1f9f, 2020-04-08)"
   sodipodi:docname="LabelSquareMeasure.svg"
   inkscape:export-filename="LabelSquareMeasure.png"
   inkscape:export-xdpi="24.58"
   inkscape:export-ydpi="24.58"
   width="250"
   height="250">
  <metadata
     id="metadata38">
    <rdf:RDF>
      <cc:Work
         rdf:about="">
        <dc:format>image/svg+xml</dc:format>
        <dc:type
           rdf:resource="http://purl.org/dc/dcmitype/StillImage" />
        <dc:title></dc:title>
      </cc:Work>
    </rdf:RDF>
  </metadata>
  <sodipodi:namedview
     pagecolor="#ffffff"
     bordercolor="#666666"
     borderopacity="1"
     objecttolerance="10"
     gridtolerance="10"
     guidetolerance="10"
     inkscape:pageopacity="0"
     inkscape:pageshadow="2"
     inkscape:window-width="1426"
     inkscape:window-height="998"
     id="namedview36"
     showgrid="false"
     inkscape:zoom="1.7566022"
     inkscape:cx="139.09093"
     inkscape:cy="87.830527"
     inkscape:window-x="617"
     inkscape:window-y="587"
     inkscape:window-maximized="0"
     inkscape:current-layer="svg2"
     fit-margin-top="0"
     fit-margin-left="0"
     fit-margin-right="0"
     fit-margin-bottom="0" />
  <defs
     id="defs4">
    <filter
       id="filter5307">
      <feGaussianBlur
         stdDeviation="4.56079"
         id="feGaussianBlur7" />
    </filter>
    <filter
       id="filter6347">
      <feGaussianBlur
         stdDeviation="4.75657"
         id="feGaussianBlur10" />
    </filter>
    <linearGradient
       id="linearGradient2176">
      <stop
         offset="0"
         stop-color="#fff"
         id="stop13" />
      <stop
         offset="1"
         stop-color="#fff"
         stop-opacity="0"
         id="stop15" />
    </linearGradient>
    <linearGradient
       gradientUnits="userSpaceOnUse"
       id="linearGradient6313"
       x1="34.892929"
       x2="229.59978">
      <stop
         offset="0"
         stop-color="#710000"
         id="stop18" />
      <stop
         offset="1"
         stop-color="#00f"
         stop-opacity="0"
         id="stop20" />
    </linearGradient>
    <linearGradient
       gradientTransform="matrix(0.85329,0,0,0.9621,-33.36232,-334.51709)"
       gradientUnits="userSpaceOnUse"
       id="linearGradient5334"
       x1="144.08931"
       x2="142.5817"
       xlink:href="#linearGradient2176"
       y1="320.07269"
       y2="460.21436" />
    <linearGradient
       gradientUnits="userSpaceOnUse"
       id="linearGradient2182"
       x1="87.835258"
       x2="88.822166"
       xlink:href="#linearGradient2176"
       y1="210.72517"
       y2="151.51039" />
    <linearGradient
       y2="125.93738"
       y1="10.67599"
       x2="0"
       id="linearGradient2997"
       gradientUnits="userSpaceOnUse"
       gradientTransform="translate(220.02119,-12.648302)">
      <stop
         id="stop4171"
         stop-opacity=".51724"
         stop-color="#fff"
         offset="0" />
      <stop
         id="stop4173"
         stop-opacity="0"
         stop-color="#fff"
         offset="1" />
    </linearGradient>
    <linearGradient
       y2="149.94038"
       y1="89.098053"
       x2="150.87259"
       x1="59.787651"
       id="linearGradient3000"
       gradientUnits="userSpaceOnUse"
       gradientTransform="translate(220.02119,-12.648302)">
      <stop
         id="stop4176"
         stop-color="#cd0e00"
         offset="0" />
      <stop
         id="stop4178"
         stop-color="#550600"
         offset="1" />
    </linearGradient>
    <linearGradient
       id="linearGradient5190">
      <stop
         id="stop4213"
         stop-color="#fff"
         offset="0" />
      <stop
         id="stop4215"
         stop-color="#f00"
         offset="1" />
    </linearGradient>
    <linearGradient
       y2="611.84717"
       y1="529.36237"
       xlink:href="#linearGradient5190"
       x2="246.42752"
       x1="210.17181"
       id="linearGradient2109"
       gradientUnits="userSpaceOnUse"
       gradientTransform="matrix(0.9,0,0,0.9,-133.2315,-454.473)" />
    <linearGradient
       y2="427.54285"
       y1="262.87494"
       xlink:href="#linearGradient5190"
       x2="272.02597"
       x1="249.48328"
       id="linearGradient2107"
       gradientUnits="userSpaceOnUse"
       gradientTransform="matrix(-0.271467,0.07274001,-0.0746544,-0.278613,229.34025,202.62762)" />
    <linearGradient
       y2="611.84717"
       y1="529.36237"
       xlink:href="#linearGradient5190"
       x2="246.42752"
       x1="210.17181"
       id="linearGradient2109-6"
       gradientUnits="userSpaceOnUse" />
    <linearGradient
       y2="427.54285"
       y1="262.87494"
       xlink:href="#linearGradient5190"
       x2="272.02597"
       x1="249.48328"
       id="linearGradient2107-0"
       gradientUnits="userSpaceOnUse"
       gradientTransform="matrix(-0.30163,0.08082223,-0.08294933,-0.30957,402.8575,730.1118)" />
    <filter
       id="filter6126">
      <feGaussianBlur
         id="feGaussianBlur7-5"
         stdDeviation=".53036" />
    </filter>
    <filter
       id="filter11428">
      <feGaussianBlur
         id="feGaussianBlur10-2"
         stdDeviation="1.24347" />
    </filter>
    <linearGradient
       y2="391.44925"
       y1="300.86383"
       x2="341.99622"
       x1="275.60828"
       id="linearGradient8413"
       gradientUnits="userSpaceOnUse">
      <stop
         style="stop-color:#005500;stop-opacity:1"
         id="stop18-4"
         stop-color="#500"
         offset="0" />
      <stop
         style="stop-color:#00ff00;stop-opacity:1"
         id="stop20-1"
         stop-color="#f00"
         offset="1" />
    </linearGradient>
    <linearGradient
       y2="367.88477"
       y1="287.49377"
       xlink:href="#linearGradient2176"
       x2="315.47369"
       x1="241.40979"
       id="linearGradient8411"
       gradientUnits="userSpaceOnUse" />
    <linearGradient
       y2="337.74042"
       y1="287.91769"
       xlink:href="#linearGradient2176"
       x2="422.97784"
       x1="380.03381"
       id="linearGradient10449"
       gradientUnits="userSpaceOnUse" />
    <radialGradient
       r="53.035709"
       id="radialGradient8415"
       gradientUnits="userSpaceOnUse"
       gradientTransform="matrix(-0.59327,-0.59327,0.71505,-0.71505,243.27022,849.03358)"
       cy="386.57211"
       cx="312.78131">
      <stop
         id="stop25"
         stop-opacity=".40816"
         stop-color="#fff"
         offset="0" />
      <stop
         id="stop27"
         stop-opacity="0"
         stop-color="#fff"
         offset="1" />
    </radialGradient>
    <clipPath
       id="clipPath905"
       clipPathUnits="userSpaceOnUse">
      <path
         style="fill:#000000;stroke-width:0.18480755"
         d="m 103.25028,189.10311 c -1.52449,-0.47576 -2.79025,-1.65731 -3.368752,-3.14469 -0.626502,-1.61073 -0.0886,-4.09638 1.174682,-5.42825 0.62661,-0.6606 2.19186,-1.49719 2.80698,-1.5002 0.22837,-0.001 1.60034,-1.233 3.62252,-3.25281 l 3.25479,-3.25101 -0.26771,-0.76857 c -0.38709,-1.11109 -0.50528,-3.42218 -0.24441,-4.77922 0.12297,-0.64017 0.52461,-1.78766 0.89235,-2.55 0.6257,-1.29711 1.12002,-1.8407 7.70259,-8.4704 3.87152,-3.89924 7.40785,-7.30558 7.86559,-7.57642 1.77132,-1.04819 4.24571,-0.42818 5.24146,1.31331 0.59007,1.032 0.73138,1.94569 0.4689,3.03142 -0.20203,0.83567 -0.64804,1.32572 -7.20231,7.91352 -4.01432,4.03486 -7.07553,7.25776 -7.19514,7.5752 -0.58701,1.55787 1.0076,3.24219 2.52942,2.67171 0.28643,-0.10731 3.68126,-3.33851 7.54373,-7.18024 6.43993,-6.40529 7.09561,-7.00456 7.9013,-7.22152 2.55661,-0.68845 4.96733,1.07546 4.99162,3.65227 0.008,0.63032 -0.11571,1.3274 -0.29979,1.71472 -0.17682,0.37273 -3.45754,3.78979 -7.65268,7.97069 -6.2688,6.24745 -7.51172,7.40223 -8.49618,7.89385 -2.24975,1.12347 -4.74721,1.39835 -7.10852,0.78235 l -1.23899,-0.32308 -3.05189,3.0598 c -2.88042,2.88787 -3.06331,3.11357 -3.25518,4.01736 -0.62696,2.95298 -3.7201,4.75359 -6.61434,3.85037 z m 3.03822,-3.28962 c 1.30586,-1.19675 0.92209,-3.17692 -0.73817,-3.80881 -0.97487,-0.37121 -2.04853,-0.008 -2.66579,0.90445 -1.00309,1.48076 0.0982,3.51131 1.90456,3.51131 0.68852,0 0.95459,-0.1077 1.4994,-0.60695 z m 5.99075,-7.80177 c 2.22455,-2.21065 3.18819,-3.04934 3.50371,-3.04934 0.23945,0 0.97831,0.2173 1.64212,0.48283 1.05732,0.42299 1.40561,0.47337 2.81004,0.40619 2.84177,-0.13596 2.89291,-0.17453 10.93528,-8.23263 4.25403,-4.26243 6.97646,-7.12662 6.97646,-7.33968 0,-0.1921 -0.13749,-0.50151 -0.3059,-0.68738 -0.73951,-0.81714 -0.88765,-0.69799 -8.27984,6.66094 -7.82919,7.79394 -7.72612,7.71542 -9.93325,7.56652 -2.74367,-0.18522 -4.60087,-2.13537 -4.61653,-4.84788 -0.0115,-2.14866 0.0554,-2.23562 7.71241,-9.90557 4.2543,-4.26143 6.92189,-7.0691 6.92189,-7.28533 0,-0.48463 -0.53073,-1.0278 -1.0042,-1.0278 -0.27077,0 -2.63391,2.25021 -7.61782,7.25371 -6.72563,6.75202 -7.25245,7.32765 -7.61797,8.32326 -0.57815,1.57479 -0.54363,3.66468 0.0867,5.23986 0.27994,0.69967 0.43537,1.37254 0.37388,1.61783 -0.058,0.23105 -1.47962,1.78151 -3.15925,3.4457 l -3.05384,3.02577 0.68467,0.70117 c 0.37655,0.38564 0.72705,0.70116 0.77888,0.70116 0.0519,0 1.47508,-1.3722 3.16272,-3.04933 z"
         id="path907"
         inkscape:connector-curvature="0" />
    </clipPath>
    <filter
       id="filter6126-6">
      <feGaussianBlur
         stdDeviation=".53036"
         id="feGaussianBlur7-2" />
    </filter>
    <filter
       id="filter11428-0">
      <feGaussianBlur
         stdDeviation="1.24347"
         id="feGaussianBlur10-4" />
    </filter>
    <linearGradient
       gradientTransform="matrix(0.61943542,0,0,0.61943542,-63.534069,-50.056775)"
       gradientUnits="userSpaceOnUse"
       id="linearGradient8413-0"
       x1="275.60828"
       x2="341.99622"
       y1="300.86383"
       y2="391.44925">
      <stop
         offset="0"
         stop-color="#500"
         id="stop18-3" />
      <stop
         offset="1"
         stop-color="#f00"
         id="stop20-0" />
    </linearGradient>
    <linearGradient
       gradientTransform="matrix(0.73760064,0,0,0.73760064,-99.426756,-90.9552)"
       gradientUnits="userSpaceOnUse"
       id="linearGradient8411-8"
       x1="241.40979"
       x2="315.47369"
       xlink:href="#linearGradient2176"
       y1="287.49377"
       y2="367.88477" />
    <linearGradient
       gradientTransform="matrix(0.76865427,0,0,0.76865427,-193.59951,-77.541409)"
       gradientUnits="userSpaceOnUse"
       id="linearGradient10449-5"
       x1="380.03381"
       x2="422.97784"
       xlink:href="#linearGradient2176"
       y1="287.91769"
       y2="337.74042" />
    <radialGradient
       cx="312.78131"
       cy="386.57211"
       gradientTransform="matrix(-0.3457768,-0.3457768,0.41675409,-0.41675409,89.369885,457.4561)"
       gradientUnits="userSpaceOnUse"
       id="radialGradient8415-4"
       r="53.035709">
      <stop
         style="stop-color:#ff9955;stop-opacity:1"
         offset="0"
         stop-color="#fff"
         stop-opacity=".40816"
         id="stop25-3" />
      <stop
         style="stop-color:#c87137;stop-opacity:1"
         offset="1"
         stop-color="#fff"
         stop-opacity="0"
         id="stop27-7" />
    </radialGradient>
    <clipPath
       id="clipPath905-8"
       clipPathUnits="userSpaceOnUse">
      <path
         style="fill:#000000;stroke-width:0.18480755"
         d="m 103.25028,189.10311 c -1.52449,-0.47576 -2.79025,-1.65731 -3.368752,-3.14469 -0.626502,-1.61073 -0.0886,-4.09638 1.174682,-5.42825 0.62661,-0.6606 2.19186,-1.49719 2.80698,-1.5002 0.22837,-0.001 1.60034,-1.233 3.62252,-3.25281 l 3.25479,-3.25101 -0.26771,-0.76857 c -0.38709,-1.11109 -0.50528,-3.42218 -0.24441,-4.77922 0.12297,-0.64017 0.52461,-1.78766 0.89235,-2.55 0.6257,-1.29711 1.12002,-1.8407 7.70259,-8.4704 3.87152,-3.89924 7.40785,-7.30558 7.86559,-7.57642 1.77132,-1.04819 4.24571,-0.42818 5.24146,1.31331 0.59007,1.032 0.73138,1.94569 0.4689,3.03142 -0.20203,0.83567 -0.64804,1.32572 -7.20231,7.91352 -4.01432,4.03486 -7.07553,7.25776 -7.19514,7.5752 -0.58701,1.55787 1.0076,3.24219 2.52942,2.67171 0.28643,-0.10731 3.68126,-3.33851 7.54373,-7.18024 6.43993,-6.40529 7.09561,-7.00456 7.9013,-7.22152 2.55661,-0.68845 4.96733,1.07546 4.99162,3.65227 0.008,0.63032 -0.11571,1.3274 -0.29979,1.71472 -0.17682,0.37273 -3.45754,3.78979 -7.65268,7.97069 -6.2688,6.24745 -7.51172,7.40223 -8.49618,7.89385 -2.24975,1.12347 -4.74721,1.39835 -7.10852,0.78235 l -1.23899,-0.32308 -3.05189,3.0598 c -2.88042,2.88787 -3.06331,3.11357 -3.25518,4.01736 -0.62696,2.95298 -3.7201,4.75359 -6.61434,3.85037 z m 3.03822,-3.28962 c 1.30586,-1.19675 0.92209,-3.17692 -0.73817,-3.80881 -0.97487,-0.37121 -2.04853,-0.008 -2.66579,0.90445 -1.00309,1.48076 0.0982,3.51131 1.90456,3.51131 0.68852,0 0.95459,-0.1077 1.4994,-0.60695 z m 5.99075,-7.80177 c 2.22455,-2.21065 3.18819,-3.04934 3.50371,-3.04934 0.23945,0 0.97831,0.2173 1.64212,0.48283 1.05732,0.42299 1.40561,0.47337 2.81004,0.40619 2.84177,-0.13596 2.89291,-0.17453 10.93528,-8.23263 4.25403,-4.26243 6.97646,-7.12662 6.97646,-7.33968 0,-0.1921 -0.13749,-0.50151 -0.3059,-0.68738 -0.73951,-0.81714 -0.88765,-0.69799 -8.27984,6.66094 -7.82919,7.79394 -7.72612,7.71542 -9.93325,7.56652 -2.74367,-0.18522 -4.60087,-2.13537 -4.61653,-4.84788 -0.0115,-2.14866 0.0554,-2.23562 7.71241,-9.90557 4.2543,-4.26143 6.92189,-7.0691 6.92189,-7.28533 0,-0.48463 -0.53073,-1.0278 -1.0042,-1.0278 -0.27077,0 -2.63391,2.25021 -7.61782,7.25371 -6.72563,6.75202 -7.25245,7.32765 -7.61797,8.32326 -0.57815,1.57479 -0.54363,3.66468 0.0867,5.23986 0.27994,0.69967 0.43537,1.37254 0.37388,1.61783 -0.058,0.23105 -1.47962,1.78151 -3.15925,3.4457 l -3.05384,3.02577 0.68467,0.70117 c 0.37655,0.38564 0.72705,0.70116 0.77888,0.70116 0.0519,0 1.47508,-1.3722 3.16272,-3.04933 z"
         id="path907-5"
         inkscape:connector-curvature="0" />
    </clipPath>
    <filter
       id="filter6126-7">
      <feGaussianBlur
         stdDeviation=".53036"
         id="feGaussianBlur7-52" />
    </filter>
    <filter
       id="filter11428-7">
      <feGaussianBlur
         stdDeviation="1.24347"
         id="feGaussianBlur10-9" />
    </filter>
    <radialGradient
       cx="312.78131"
       cy="386.57211"
       gradientTransform="matrix(-0.3457768,-0.3457768,0.41675409,-0.41675409,89.369885,457.4561)"
       gradientUnits="userSpaceOnUse"
       id="radialGradient8415-5"
       r="53.035709">
      <stop
         style="stop-color:#ff9955;stop-opacity:1"
         offset="0"
         stop-color="#fff"
         stop-opacity=".40816"
         id="stop25-39" />
      <stop
         style="stop-color:#c87137;stop-opacity:1"
         offset="1"
         stop-color="#fff"
         stop-opacity="0"
         id="stop27-3" />
    </radialGradient>
    <linearGradient
       y2="291.75388"
       y1="34.529037"
       x2="76.748428"
       x1="74.978867"
       id="b"
       gradientTransform="matrix(1.1976421,0,0,0.83497402,-137.57651,92.044731)"
       gradientUnits="userSpaceOnUse">
      <stop
         id="stop904"
         offset="0"
         stop-opacity=".502"
         stop-color="#fff" />
      <stop
         id="stop906"
         offset="1"
         stop-opacity="0"
         stop-color="#666" />
    </linearGradient>
    <linearGradient
       y2="291.75388"
       y1="34.529037"
       x2="76.748428"
       x1="74.978867"
       id="b-4"
       gradientTransform="matrix(0.91403522,0,0,0.82441246,-26.30661,-29.860073)"
       gradientUnits="userSpaceOnUse">
      <stop
         id="stop904-8"
         offset="0"
         stop-opacity=".502"
         stop-color="#fff" />
      <stop
         id="stop906-2"
         offset="1"
         stop-opacity="0"
         stop-color="#666" />
    </linearGradient>
    <filter
       height="1.5249"
       width="1.1"
       y="-.26246"
       x="-.05"
       id="i">
      <feGaussianBlur
         id="feGaussianBlur893"
         stdDeviation="1.63716" />
    </filter>
    <linearGradient
       id="a">
      <stop
         id="stop896"
         offset="0"
         stop-color="#fff3de" />
      <stop
         id="stop898"
         offset="1"
         stop-opacity="0"
         stop-color="#fff3de" />
    </linearGradient>
    <linearGradient
       gradientUnits="userSpaceOnUse"
       gradientTransform="matrix(2.6275045,-2.3877637,3.2141625,3.531223,-2151.1032,-501.63742)"
       y2="417.33"
       y1="422.9"
       x2="341.11"
       x1="308.45"
       id="h">
      <stop
         id="stop901"
         offset="0" />
      <stop
         id="stop903"
         offset="1"
         stop-opacity="0" />
    </linearGradient>
    <linearGradient
       gradientUnits="userSpaceOnUse"
       gradientTransform="matrix(2.6275045,-2.3877637,2.3896623,2.6254168,-1769.4406,-155.84512)"
       x2="379.75"
       x1="302.25"
       id="g">
      <stop
         id="stop906-4"
         offset="0"
         stop-color="#ffc789" />
      <stop
         id="stop908"
         offset="1"
         stop-color="#ffe7cd" />
    </linearGradient>
    <linearGradient
       gradientUnits="userSpaceOnUse"
       y2="84.816"
       y1="-28.232"
       x2="582.08"
       x1="-48.988"
       id="e"
       gradientTransform="matrix(0.4746424,-0.4288775,0.42921852,0.47426527,-78.644842,249.72185)">
      <stop
         id="stop911"
         offset="0"
         stop-opacity=".58389"
         stop-color="#ffbd75" />
      <stop
         id="stop913"
         offset="1"
         stop-color="#f9dbba" />
    </linearGradient>
    <linearGradient
       gradientUnits="userSpaceOnUse"
       y2="10.088"
       y1="98.665"
       x2="19.077"
       x1="464.8"
       id="d"
       gradientTransform="matrix(0.4746424,-0.4288775,0.42921852,0.47426527,-78.644842,249.72185)">
      <stop
         id="stop916"
         offset="0"
         stop-color="#fbc594" />
      <stop
         id="stop918"
         offset="1"
         stop-color="#c9884e" />
    </linearGradient>
    <linearGradient
       gradientUnits="userSpaceOnUse"
       x2="582.87"
       x1="148.05"
       id="c"
       gradientTransform="matrix(0.4746424,-0.4288775,0.42921852,0.47426527,-78.644842,249.72185)">
      <stop
         id="stop921"
         offset="0"
         stop-color="#5f411c" />
      <stop
         id="stop923"
         offset="1"
         stop-color="#454545" />
    </linearGradient>
    <linearGradient
       xlink:href="#a"
       gradientUnits="userSpaceOnUse"
       y2="420.47"
       y1="422.16"
       x2="318.2"
       x1="315.89"
       id="b-6" />
    <linearGradient
       xlink:href="#a"
       gradientUnits="userSpaceOnUse"
       gradientTransform="matrix(2.6275045,-2.3877637,2.3896623,2.6254168,-1803.1186,-119.29986)"
       y2="412.19"
       y1="406.46"
       x2="348.99"
       x1="349.08"
       id="f" />
    <linearGradient
       inkscape:collect="always"
       xlink:href="#a"
       id="linearGradient1156"
       gradientUnits="userSpaceOnUse"
       x1="315.89"
       y1="422.16"
       x2="318.2"
       y2="420.47" />
    <linearGradient
       inkscape:collect="always"
       xlink:href="#a"
       id="linearGradient1158"
       gradientUnits="userSpaceOnUse"
       x1="315.89"
       y1="422.16"
       x2="318.2"
       y2="420.47" />
  </defs>
  <path
     style="stroke:#000000;stroke-width:0.80000001;filter:url(#i)"
     inkscape:connector-curvature="0"
     transform="matrix(2.5844702,-2.3366881,2.0953829,2.3167671,-1670.4603,-4.1107067)"
     d="m 319.57685,409.6326 h 76.22604 a 0.76011,0.76011 0 0 1 0.76011,0.76011 v 12.43354 a 0.76011,0.76011 0 0 1 -0.76011,0.76011 h -76.22604 a 0.76011,0.76011 0 0 1 -0.76011,-0.76011 v -12.43354 a 0.76011,0.76011 0 0 1 0.76011,-0.76011"
     id="path930" />
  <path
     style="fill:url(#d);stroke:url(#c);stroke-width:2.84017253"
     inkscape:connector-curvature="0"
     d="M 6.0941817,196.6076 206.8964,15.166682 a 2.6975394,2.6996844 89.99924 0 1 3.81311,0.191478 l 29.61909,32.727623 a 2.6975394,2.6996844 89.99924 0 1 -0.19163,3.810088 L 39.334752,233.33679 a 2.6975394,2.6996844 89.99924 0 1 -3.813118,-0.19148 L 5.902552,200.41769 a 2.6975394,2.6996844 89.99924 0 1 0.1916297,-3.81009"
     id="path932" />
  <path
     style="fill:none;stroke:url(#e);stroke-width:1.77510786"
     inkscape:connector-curvature="0"
     d="M 7.9883727,196.55558 206.93948,16.787291 a 2.6975394,2.6996844 89.99924 0 1 3.81312,0.191477 l 27.65154,30.553592 a 2.6975394,2.6996844 89.99924 0 1 -0.19163,3.810088 L 39.261406,231.11074 a 2.6975394,2.6996844 89.99924 0 1 -3.813118,-0.19148 L 7.796743,200.36567 a 2.6975394,2.6996844 89.99924 0 1 0.1916297,-3.81009"
     id="path934" />
  <path
     style="fill:none;stroke:#573006;stroke-width:7.10043144;stroke-dasharray:1.77512545, 1.77512545"
     inkscape:connector-curvature="0"
     d="M 12.029585,196.07885 208.78351,18.499944"
     id="path936" />
  <path
     style="fill:none;stroke:#573006;stroke-width:1.77510786;stroke-miterlimit:0"
     inkscape:connector-curvature="0"
     d="m 10.529922,193.09466 8.902688,9.79846"
     stroke-miterlimit="0"
     id="path938" />
  <path
     style="opacity:0.43902001;fill:url(#f);stroke-width:0.63967848"
     inkscape:connector-curvature="0"
     d="m 7.3911227,196.44494 c -1.1022276,0.99602 -1.1147626,2.6996 -0.1355412,3.78172 l 5.7594245,6.3274 c 6.290287,-4.18655 5.444377,-3.18576 4.943969,-6.688 -0.625719,-4.37816 0.897736,-11.04531 3.968505,-11.36258 3.070769,-0.31727 4.730597,0.62299 7.997147,-3.17013 3.26655,-3.79312 3.574873,-6.22929 5.692222,-8.97788 2.117348,-2.74859 6.339788,-6.94451 11.043577,-9.1579 4.703788,-2.21339 4.886832,-1.89958 8.28502,-4.16326 3.398188,-2.26367 2.027173,-0.60552 5.547833,-5.04163 3.52066,-4.43611 9.403496,-12.75027 12.258989,-16.9942 2.855494,-4.24393 6.568432,-8.00355 11.477542,-9.99143 4.90911,-1.98789 0.308458,-1.91475 8.337221,-5.08857 8.028759,-3.17382 4.849637,-0.73629 8.879039,-6.45941 4.0294,-5.72313 0.93142,-5.36861 7.21971,-8.60983 6.28829,-3.24123 8.80393,-0.57858 15.64001,-9.6767 6.83608,-9.098134 1.77482,-8.596006 8.72813,-12.029417 6.95331,-3.433411 8.9965,-0.766065 13.64207,-5.81225 4.64557,-5.046185 1.82447,-5.370106 6.46967,-10.415841 4.6452,-5.045734 4.181,-5.104357 8.43989,-11.035762 4.25888,-5.931405 0.71653,-5.173314 7.46425,-8.83202 6.74772,-3.658706 4.48464,-2.385299 7.16903,-3.588061 2.68439,-1.202761 2.72998,2.519464 4.35356,-3.078319 1.62358,-5.597784 -3.02851,-4.284516 2.82444,-7.542309 5.85295,-3.257793 12.09639,-5.219135 14.00821,-8.194094 1.91182,-2.974958 -2.80426,-4.00814 4.25647,-5.477975 7.06074,-1.469836 6.96578,-0.210663 9.28823,-2.733947 1.16128,-1.261502 1.14288,-3.08327 0.96875,-4.831636 l -1.16643,-1.28149 c -0.97921,-1.08207 -2.75992,-1.144667 -3.86211,-0.148697 L 7.391161,196.44115 Z"
     id="path940" />
  <path
     style="fill:none;stroke:#573006;stroke-width:1.77510786;stroke-miterlimit:0"
     inkscape:connector-curvature="0"
     d="m 31.422943,173.87144 8.902687,9.79845"
     stroke-miterlimit="0"
     id="path942" />
  <path
     style="fill:none;stroke:#573006;stroke-width:1.77510786;stroke-miterlimit:0"
     inkscape:connector-curvature="0"
     d="m 52.448062,154.76871 8.902687,9.79846"
     stroke-miterlimit="0"
     id="path944" />
  <path
     style="fill:none;stroke:#573006;stroke-width:1.77510786;stroke-miterlimit:0"
     inkscape:connector-curvature="0"
     d="m 73.571494,135.83346 8.902655,9.79851"
     stroke-miterlimit="0"
     id="path946" />
  <path
     style="fill:none;stroke:#573006;stroke-width:1.77510786;stroke-miterlimit:0"
     inkscape:connector-curvature="0"
     d="m 94.527641,116.67618 8.902689,9.79846"
     stroke-miterlimit="0"
     id="path948" />
  <path
     style="fill:none;stroke:#573006;stroke-width:1.77510786;stroke-miterlimit:0"
     inkscape:connector-curvature="0"
     d="m 115.78814,97.797852 8.90265,9.798508"
     stroke-miterlimit="0"
     id="path950" />
  <path
     style="fill:none;stroke:#573006;stroke-width:1.77510786;stroke-miterlimit:0"
     inkscape:connector-curvature="0"
     d="m 136.9018,78.738829 8.90266,9.798506"
     stroke-miterlimit="0"
     id="path952" />
  <path
     style="fill:none;stroke:#573006;stroke-width:1.77510786;stroke-miterlimit:0"
     inkscape:connector-curvature="0"
     d="m 158.01181,59.788446 8.90269,9.798452"
     stroke-miterlimit="0"
     id="path954" />
  <path
     style="fill:none;stroke:#573006;stroke-width:1.77510786;stroke-miterlimit:0"
     inkscape:connector-curvature="0"
     d="m 179.02338,40.66314 8.90268,9.798452"
     stroke-miterlimit="0"
     id="path956" />
  <path
     style="fill:none;stroke:#573006;stroke-width:1.77510786;stroke-miterlimit:0"
     inkscape:connector-curvature="0"
     d="m 200.10933,21.588132 8.90269,9.798451"
     stroke-miterlimit="0"
     id="path958" />
  <path
     inkscape:connector-curvature="0"
     d="m 17.8058,203.66699 0.699426,0.76843 c 0.414472,0.45537 0.679738,1.01096 0.795807,1.66679 0.11607,0.65583 -0.07086,1.20634 -0.560765,1.65155 -0.282556,0.25677 -0.577713,0.41163 -0.885476,0.4646 -0.307764,0.053 -0.700614,-0.008 -1.178529,-0.18328 -0.477914,-0.17514 -0.886813,-0.44941 -1.226685,-0.82281 l -0.699426,-0.76843 c -0.412402,-0.45308 -0.677724,-1.00759 -0.795962,-1.66353 -0.118239,-0.65594 0.06759,-1.20649 0.557497,-1.65171 0.280274,-0.25469 0.573774,-0.40909 0.880504,-0.4632 0.306731,-0.0541 0.700196,0.005 1.180392,0.17846 0.480197,0.17306 0.891268,0.44746 1.233212,0.82313 z m -0.704098,0.63986 c -0.34609,-0.38023 -0.75461,-0.61635 -1.225573,-0.70838 -0.26376,-0.0473 -0.505015,0.0284 -0.723763,0.22716 -0.211912,0.19258 -0.306338,0.43648 -0.283278,0.73168 0.03553,0.44614 0.229445,0.86273 0.581748,1.24979 l 0.699426,0.76842 c 0.348161,0.38251 0.757821,0.61761 1.228986,0.70528 0.261483,0.0494 0.502738,-0.0263 0.723768,-0.22716 0.20963,-0.19051 0.302915,-0.43336 0.279855,-0.72858 -0.03552,-0.44613 -0.229441,-0.86272 -0.581743,-1.24979 z"
     id="path960"
     style="stroke-width:0.63967848" />
  <path
     inkscape:connector-curvature="0"
     d="m 38.366437,188.54552 1.53466,-1.39463 c 0.02214,-0.14492 0.0708,-0.25155 0.146,-0.31989 0.107093,-0.0973 0.224097,-0.13916 0.351004,-0.12553 0.126907,0.0136 0.26807,0.10584 0.423501,0.2766 l 0.304639,0.33469 -3.192366,2.9011 -0.674561,-0.74111 c 0.315288,-2.18769 0.46821,-3.54974 0.458772,-4.08614 -0.0067,-0.27264 -0.07221,-0.47727 -0.196548,-0.61389 -0.15543,-0.17075 -0.36735,-0.25378 -0.63576,-0.24907 -0.268409,0.005 -0.526799,0.11994 -0.775174,0.34564 -0.250647,0.22779 -0.392825,0.49012 -0.426538,0.787 -0.01613,0.1561 0.01903,0.33424 0.105471,0.53441 0.05513,0.12462 0.07345,0.23278 0.05492,0.32449 -0.01853,0.0917 -0.0688,0.17485 -0.150828,0.2494 -0.0957,0.087 -0.209386,0.12788 -0.341058,0.12273 -0.131672,-0.005 -0.23895,-0.0533 -0.321847,-0.14433 -0.124339,-0.1366 -0.216535,-0.36483 -0.276588,-0.68467 -0.06005,-0.31985 -0.02469,-0.6515 0.106072,-0.99499 0.130762,-0.34348 0.338565,-0.64463 0.623393,-0.90348 0.442055,-0.40171 0.92611,-0.5972 1.452164,-0.58645 0.526054,0.0107 0.962123,0.20626 1.308213,0.58648 0.176149,0.19354 0.298926,0.40957 0.36826,0.64816 0.06935,0.23858 0.08286,0.64337 0.04051,1.21435 -0.03223,0.44946 -0.127662,1.28917 -0.286314,2.51913 z"
     id="path962"
     style="stroke-width:0.63967848" />
  <path
     inkscape:connector-curvature="0"
     d="m 57.749405,164.03243 2.49307,2.73901 c 0.148105,-0.13459 0.287011,-0.20154 0.416716,-0.20085 0.129704,6.9e-4 0.241175,0.0523 0.334436,0.15473 0.09326,0.10245 0.134051,0.21931 0.12237,0.35057 -0.01167,0.13125 -0.09044,0.26315 -0.236265,0.39567 l 0.254904,0.28006 c 0.148104,-0.1346 0.287528,-0.20098 0.41827,-0.19915 0.130742,0.002 0.242729,0.054 0.335991,0.15644 0.09326,0.10245 0.13353,0.21874 0.120815,0.34886 -0.0127,0.13012 -0.103387,0.2718 -0.272001,0.42503 l -0.939936,0.85418 c -0.168622,0.15324 -0.318351,0.23002 -0.449187,0.23036 -0.130836,3.4e-4 -0.243923,-0.0519 -0.339255,-0.1566 -0.09533,-0.10473 -0.13353,-0.21874 -0.120815,-0.34886 0.01272,-0.13012 0.103378,-0.27179 0.272001,-0.42503 l 0.273437,-0.24848 -0.254904,-0.28006 -1.903799,1.7301 -0.531566,-0.584 -0.920546,-4.38023 z m 1.79239,3.37576 -1.566717,-1.72128 0.551583,2.6438 z"
     id="path964"
     style="stroke-width:0.63967848" />
  <path
     inkscape:connector-curvature="0"
     d="m 78.287644,149.08412 c 0.04013,-0.2944 0.107005,-0.54341 0.200608,-0.74704 0.0936,-0.20363 0.226993,-0.38412 0.400174,-0.5415 0.366862,-0.33339 0.82078,-0.47964 1.361754,-0.43877 0.540974,0.0409 1.011451,0.28102 1.411427,0.72045 0.37095,0.40755 0.542753,0.8536 0.515407,1.33814 -0.02734,0.48455 -0.260912,0.92665 -0.700685,1.3263 -0.366862,0.33339 -0.746494,0.52238 -1.138899,0.56697 -0.392405,0.0446 -0.810639,-0.0558 -1.254695,-0.30126 -0.444055,-0.24544 -0.865036,-0.58672 -1.262936,-1.02388 -0.476646,-0.52366 -0.753359,-1.06782 -0.830143,-1.63246 -0.07678,-0.56465 -0.04043,-1.08961 0.109058,-1.57491 0.149486,-0.48531 0.404241,-0.89153 0.764262,-1.21871 0.284833,-0.25884 0.55663,-0.40392 0.815403,-0.43524 0.170929,-0.018 0.309235,0.031 0.414931,0.14711 0.09326,0.10246 0.137309,0.21947 0.13216,0.35103 -0.0051,0.13156 -0.05558,0.24084 -0.151282,0.32781 -0.05469,0.0497 -0.158171,0.0938 -0.310443,0.13235 -0.09054,0.024 -0.164287,0.0619 -0.221253,0.1137 -0.223308,0.20294 -0.397081,0.4763 -0.52132,0.82008 -0.124239,0.34379 -0.154922,0.72634 -0.09206,1.14761 0.04503,0.2919 0.164531,0.59931 0.358529,0.92222 z m 1.087956,0.98945 c 0.321603,0.20695 0.590091,0.30409 0.805459,0.29141 0.215369,-0.0127 0.438124,-0.12358 0.668268,-0.33272 0.230143,-0.20915 0.352382,-0.43048 0.366741,-0.66401 0.01436,-0.23353 -0.07278,-0.45387 -0.261358,-0.66107 -0.21553,-0.23678 -0.465999,-0.36902 -0.751404,-0.39671 -0.285405,-0.0277 -0.516978,0.0392 -0.694714,0.20076 -0.141273,0.12839 -0.229025,0.33502 -0.263256,0.61988 -0.03423,0.28487 0.0092,0.59903 0.130264,0.94246 z"
     id="path966"
     style="stroke-width:0.63967848" />
  <path
     inkscape:connector-curvature="0"
     d="m 101.44539,128.32007 c 0.30643,-0.0247 0.58495,0.0103 0.83557,0.10493 0.25061,0.0947 0.47228,0.24787 0.66501,0.45961 0.21346,0.23452 0.35228,0.50254 0.41647,0.80404 0.0642,0.30151 0.025,0.62102 -0.11742,0.9585 -0.14247,0.33748 -0.36411,0.64289 -0.66488,0.91622 -0.30078,0.27334 -0.62375,0.46284 -0.9689,0.56849 -0.34515,0.10566 -0.66542,0.11174 -0.96079,0.0182 -0.29536,-0.0935 -0.54874,-0.25638 -0.760119,-0.48862 -0.192731,-0.21174 -0.324379,-0.44675 -0.395002,-0.70499 -0.0706,-0.25825 -0.07911,-0.5386 -0.02551,-0.84108 -0.289855,-0.003 -0.549267,-0.05 -0.778232,-0.14143 -0.228965,-0.0915 -0.426339,-0.22826 -0.592129,-0.4104 -0.325358,-0.35746 -0.468929,-0.78965 -0.430711,-1.29656 0.03822,-0.50691 0.271522,-0.955 0.699905,-1.34431 0.428383,-0.3893 0.8969,-0.57897 1.405548,-0.56904 0.50865,0.01 0.92566,0.19364 1.25102,0.55109 0.16786,0.18443 0.28711,0.3943 0.35769,0.62968 0.0706,0.23537 0.0914,0.49727 0.0625,0.78565 z m -1.12551,-0.7494 c -0.1575,-0.17303 -0.359475,-0.25885 -0.605924,-0.25746 -0.246448,0.001 -0.484747,0.10668 -0.714886,0.31582 -0.230138,0.20914 -0.360984,0.43934 -0.385695,0.68435 -0.02471,0.24501 0.04169,0.45405 0.199192,0.62708 0.157497,0.17304 0.362585,0.26228 0.609034,0.26088 0.246449,-10e-4 0.485888,-0.1077 0.718309,-0.31893 0.23242,-0.21122 0.35756,-0.43622 0.38227,-0.68124 0.0247,-0.24502 -0.0427,-0.45518 -0.2023,-0.6305 z m 1.9565,1.98484 c -0.16786,-0.18442 -0.39885,-0.27923 -0.69296,-0.28446 -0.29411,-0.005 -0.55851,0.0988 -0.7932,0.3121 -0.23469,0.21328 -0.36336,0.46646 -0.38599,0.7595 -0.0226,0.29305 0.0521,0.53407 0.22408,0.72304 0.13263,0.14572 0.31652,0.21053 0.55168,0.19444 0.23516,-0.0161 0.49173,-0.15046 0.76973,-0.40309 0.278,-0.25263 0.43897,-0.49772 0.47611,-0.72908 0.0371,-0.23137 -0.0127,-0.42218 -0.14945,-0.57245 z"
     id="path968"
     style="stroke-width:0.63967848" />
  <path
     inkscape:connector-curvature="0"
     d="m 116.43983,110.59385 3.48781,3.83189 0.70752,-0.64296 c 0.16861,-0.15323 0.31834,-0.23002 0.44918,-0.23036 0.13085,-3.4e-4 0.24393,0.0519 0.33926,0.15659 0.0953,0.10474 0.13353,0.21874 0.12081,0.34887 -0.0127,0.13012 -0.10338,0.27179 -0.272,0.42502 l -2.1157,1.92268 c -0.16863,0.15323 -0.31835,0.23002 -0.44919,0.23036 -0.13084,3.3e-4 -0.24392,-0.0519 -0.33925,-0.1566 -0.0953,-0.10473 -0.13353,-0.21874 -0.12082,-0.34886 0.0127,-0.13012 0.10338,-0.27179 0.272,-0.42503 l 0.70752,-0.64296 -2.65783,-2.92003 -0.47628,0.73235 c -0.0754,0.11844 -0.13815,0.20043 -0.18828,0.24599 -0.0889,0.0808 -0.19789,0.11536 -0.32707,0.10379 -0.12919,-0.0116 -0.24041,-0.0686 -0.33367,-0.17104 -0.085,-0.0933 -0.12789,-0.1885 -0.12872,-0.28551 -8.6e-4,-0.097 0.0564,-0.23534 0.17177,-0.41507 l 1.15293,-1.75912 z"
     id="path970"
     style="stroke-width:0.63967848" />
  <path
     inkscape:connector-curvature="0"
     d="m 122.71735,108.32748 0.69942,0.76843 c 0.41448,0.45537 0.67975,1.01096 0.79582,1.66678 0.11606,0.65583 -0.0709,1.20636 -0.56077,1.65156 -0.28255,0.25677 -0.57771,0.41163 -0.88547,0.4646 -0.30777,0.053 -0.70061,-0.008 -1.17853,-0.18327 -0.47793,-0.17515 -0.88682,-0.44942 -1.22668,-0.82282 l -0.69943,-0.76843 c -0.41241,-0.45308 -0.67773,-1.00759 -0.79597,-1.66352 -0.11824,-0.65594 0.0676,-1.2065 0.5575,-1.65171 0.28027,-0.25469 0.57377,-0.4091 0.8805,-0.4632 0.30673,-0.0541 0.7002,0.005 1.1804,0.17846 0.48019,0.17306 0.89126,0.44745 1.23321,0.82312 z m -0.7041,0.63986 c -0.34609,-0.38023 -0.75461,-0.61635 -1.22557,-0.70838 -0.26376,-0.0474 -0.50501,0.0284 -0.72377,0.22716 -0.2119,0.19258 -0.30633,0.43647 -0.28327,0.73168 0.0355,0.44613 0.22944,0.86273 0.58174,1.24978 l 0.69943,0.76842 c 0.34816,0.38252 0.75782,0.61761 1.22899,0.70528 0.26148,0.0494 0.50273,-0.0263 0.72376,-0.22716 0.20963,-0.1905 0.30292,-0.43336 0.27986,-0.72858 -0.0355,-0.44612 -0.22944,-0.86272 -0.58175,-1.24978 l -0.69942,-0.76843 z"
     id="path972"
     style="stroke-width:0.63967848" />
  <path
     inkscape:connector-curvature="0"
     d="m 137.20446,91.723789 3.48781,3.831892 0.70751,-0.642958 c 0.16862,-0.153234 0.31835,-0.230017 0.44919,-0.230361 0.13084,-3.43e-4 0.24392,0.05186 0.33925,0.156594 0.0953,0.104732 0.13353,0.21874 0.12082,0.348862 -0.0127,0.130119 -0.10339,0.271794 -0.272,0.425028 l -2.11571,1.922671 c -0.16862,0.153237 -0.31835,0.230021 -0.44919,0.23036 -0.13083,3.39e-4 -0.24392,-0.05186 -0.33925,-0.156594 -0.0953,-0.104736 -0.13353,-0.218739 -0.12082,-0.348862 0.0127,-0.130123 0.10338,-0.27179 0.272,-0.425027 l 0.70752,-0.642963 -2.65783,-2.920025 -0.47627,0.732346 c -0.0754,0.118441 -0.13815,0.20043 -0.18828,0.245987 -0.0889,0.08076 -0.1979,0.115358 -0.32708,0.103789 -0.12918,-0.01157 -0.2404,-0.06857 -0.33366,-0.171035 -0.085,-0.09335 -0.12789,-0.188498 -0.12873,-0.285509 -8.6e-4,-0.09699 0.0564,-0.235344 0.17178,-0.415072 l 1.15293,-1.759127 z"
     id="path974"
     style="stroke-width:0.63967848" />
  <path
     inkscape:connector-curvature="0"
     d="m 143.53016,92.97671 1.53466,-1.394639 c 0.0221,-0.144917 0.0708,-0.251547 0.146,-0.319884 0.10709,-0.09732 0.2241,-0.139162 0.351,-0.125533 0.12691,0.01363 0.26807,0.105844 0.4235,0.276598 l 0.30464,0.334693 -3.19236,2.901093 -0.67456,-0.741108 c 0.31528,-2.187687 0.46821,-3.54973 0.45877,-4.086136 -0.007,-0.27264 -0.0722,-0.477276 -0.19655,-0.613886 -0.15543,-0.170759 -0.36735,-0.253782 -0.63576,-0.249069 -0.26841,0.0047 -0.5268,0.119936 -0.77517,0.345641 -0.25065,0.227787 -0.39283,0.490116 -0.42654,0.786987 -0.0161,0.156106 0.019,0.334246 0.10547,0.534414 0.0551,0.124628 0.0735,0.232782 0.0549,0.324494 -0.0185,0.09171 -0.0688,0.174849 -0.15083,0.249399 -0.0957,0.08697 -0.20938,0.127886 -0.34105,0.122732 -0.13167,-0.0052 -0.23896,-0.05325 -0.32185,-0.144327 -0.12434,-0.136605 -0.21654,-0.364834 -0.27659,-0.684678 -0.06,-0.319844 -0.0247,-0.651495 0.10607,-0.994982 0.13076,-0.343486 0.33857,-0.644636 0.62339,-0.903481 0.44206,-0.401714 0.92611,-0.597198 1.45217,-0.586453 0.52605,0.01074 0.96212,0.206257 1.30821,0.586481 0.17615,0.193535 0.29893,0.409575 0.36826,0.648164 0.0694,0.238572 0.0829,0.643363 0.0405,1.214343 -0.0322,0.449461 -0.12766,1.289172 -0.28632,2.519132 z"
     id="path976"
     style="stroke-width:0.63967848" />
  <path
     inkscape:connector-curvature="0"
     d="m 158.44405,72.422049 3.48781,3.831892 0.70751,-0.642963 c 0.16862,-0.153233 0.31835,-0.230017 0.44919,-0.230361 0.13084,-3.43e-4 0.24392,0.05186 0.33926,0.156594 0.0953,0.104733 0.13353,0.21874 0.12081,0.348863 -0.0127,0.130118 -0.10338,0.271794 -0.272,0.425027 l -2.11571,1.922671 c -0.16862,0.153238 -0.31835,0.230021 -0.44918,0.23036 -0.13084,3.39e-4 -0.24393,-0.05186 -0.33926,-0.156594 -0.0953,-0.104736 -0.13353,-0.218739 -0.12081,-0.348862 0.0127,-0.130123 0.10338,-0.271789 0.272,-0.425027 l 0.70751,-0.642958 -2.65783,-2.920025 -0.47627,0.732346 c -0.0754,0.118441 -0.13815,0.20043 -0.18828,0.245987 -0.0889,0.08077 -0.19789,0.115358 -0.32707,0.103789 -0.12919,-0.01157 -0.2404,-0.06857 -0.33367,-0.171035 -0.085,-0.09335 -0.12788,-0.188498 -0.12872,-0.285509 -8.5e-4,-0.097 0.0564,-0.23534 0.17177,-0.415068 z"
     id="path978"
     style="stroke-width:0.63967848" />
  <path
     inkscape:connector-curvature="0"
     d="m 162.71298,68.645621 2.49307,2.739015 c 0.14811,-0.134596 0.28701,-0.201545 0.41671,-0.200852 0.1297,6.94e-4 0.24118,0.05228 0.33444,0.154732 0.0933,0.102457 0.13405,0.219312 0.12237,0.35057 -0.0117,0.131254 -0.0904,0.26315 -0.23627,0.395673 l 0.25491,0.280051 c 0.14811,-0.134596 0.28753,-0.200977 0.41827,-0.199144 0.13074,0.0018 0.24273,0.05398 0.33599,0.15644 0.0933,0.102456 0.13353,0.218744 0.12081,0.348862 -0.0127,0.130113 -0.10338,0.271794 -0.272,0.425027 l -0.93993,0.854177 c -0.16862,0.153233 -0.31835,0.230017 -0.44918,0.230356 -0.13084,3.39e-4 -0.24393,-0.05185 -0.33926,-0.156594 -0.0953,-0.104741 -0.13353,-0.218739 -0.12081,-0.348862 0.0127,-0.130123 0.10337,-0.27179 0.27199,-0.425023 l 0.27344,-0.248489 -0.25491,-0.280051 -1.90379,1.730094 -0.53157,-0.584005 -0.92055,-4.380225 z m 1.79239,3.375765 -1.56672,-1.721277 0.55159,2.643787 z"
     id="path980"
     style="stroke-width:0.63967848" />
  <path
     inkscape:connector-curvature="0"
     d="m 179.20829,53.552407 3.48781,3.831891 0.70752,-0.642962 c 0.16861,-0.153229 0.31834,-0.230017 0.44918,-0.230361 0.13084,-3.43e-4 0.24393,0.05187 0.33926,0.156594 0.0953,0.104728 0.13353,0.21874 0.12081,0.348862 -0.0127,0.130115 -0.10338,0.271799 -0.272,0.425028 l -2.11571,1.922675 c -0.16862,0.153233 -0.31835,0.230017 -0.44919,0.23036 -0.13084,3.44e-4 -0.24392,-0.05186 -0.33925,-0.156594 -0.0953,-0.104736 -0.13353,-0.218739 -0.12082,-0.348862 0.0127,-0.130118 0.10339,-0.271794 0.272,-0.425027 l 0.70752,-0.642963 -2.65783,-2.920025 -0.47626,0.732347 c -0.0754,0.118436 -0.13816,0.200434 -0.18829,0.245991 -0.0889,0.08076 -0.19789,0.115354 -0.32708,0.10379 -0.12918,-0.01157 -0.2404,-0.06858 -0.33366,-0.171036 -0.085,-0.09335 -0.12789,-0.188498 -0.12872,-0.285513 -8.5e-4,-0.097 0.0564,-0.23534 0.17177,-0.415068 z"
     id="path982"
     style="stroke-width:0.63967848" />
  <path
     inkscape:connector-curvature="0"
     d="m 183.32003,53.634712 c 0.0401,-0.294394 0.107,-0.543406 0.20061,-0.747038 0.0936,-0.203631 0.227,-0.384125 0.40017,-0.541506 0.36686,-0.333381 0.82078,-0.479637 1.36176,-0.438772 0.54098,0.04087 1.01144,0.281032 1.41142,0.720451 0.37095,0.407555 0.54275,0.853603 0.5154,1.338145 -0.0273,0.484542 -0.26091,0.926649 -0.70068,1.326298 -0.36686,0.33339 -0.7465,0.522382 -1.1389,0.566971 -0.39241,0.04459 -0.81064,-0.05582 -1.2547,-0.301262 -0.44405,-0.245438 -0.86503,-0.586723 -1.26293,-1.023877 -0.47664,-0.523663 -0.75336,-1.067822 -0.83015,-1.632468 -0.0768,-0.564646 -0.0404,-1.089608 0.10906,-1.57491 0.14949,-0.485302 0.40424,-0.891528 0.76427,-1.218706 0.28483,-0.258835 0.55663,-0.403913 0.8154,-0.435233 0.17093,-0.01804 0.30924,0.03099 0.41493,0.147102 0.0933,0.102465 0.13731,0.219475 0.13216,0.351033 -0.005,0.131558 -0.0556,0.240839 -0.15128,0.327804 -0.0547,0.0497 -0.15817,0.09382 -0.31045,0.132356 -0.0905,0.02404 -0.16428,0.06194 -0.22125,0.1137 -0.22331,0.202942 -0.39708,0.4763 -0.52132,0.820082 -0.12424,0.343782 -0.15492,0.726333 -0.0921,1.147608 0.045,0.291901 0.16454,0.599302 0.35853,0.922217 z m 1.08795,0.989448 c 0.32161,0.206957 0.59009,0.304093 0.80546,0.291418 0.21538,-0.01268 0.43813,-0.12358 0.66827,-0.332725 0.23014,-0.209145 0.35239,-0.430481 0.36674,-0.664006 0.0144,-0.233525 -0.0728,-0.453878 -0.26136,-0.661075 -0.21553,-0.236783 -0.466,-0.369019 -0.7514,-0.396706 -0.28541,-0.02769 -0.51698,0.03924 -0.69471,0.200756 -0.14128,0.128388 -0.22903,0.335021 -0.26326,0.619886 -0.0342,0.284865 0.009,0.599023 0.13026,0.942452 z"
     id="path984"
     style="stroke-width:0.63967848" />
  <path
     inkscape:connector-curvature="0"
     d="m 200.3813,34.311246 3.48781,3.831891 0.70752,-0.642962 c 0.16862,-0.153234 0.31835,-0.230017 0.44919,-0.230361 0.13084,-3.43e-4 0.24392,0.05187 0.33925,0.156594 0.0953,0.104728 0.13354,0.218744 0.12082,0.348862 -0.0127,0.130114 -0.10339,0.271794 -0.272,0.425028 l -2.11572,1.922675 c -0.16861,0.153233 -0.31834,0.230017 -0.44918,0.23036 -0.13084,3.44e-4 -0.24393,-0.05186 -0.33926,-0.156594 -0.0953,-0.104736 -0.13353,-0.218739 -0.12081,-0.348862 0.0127,-0.130118 0.10338,-0.271794 0.272,-0.425027 l 0.70751,-0.642962 -2.65782,-2.920025 -0.47627,0.732346 c -0.0754,0.118441 -0.13816,0.200434 -0.18828,0.245987 -0.0889,0.08077 -0.19789,0.115358 -0.32708,0.103789 -0.12918,-0.01157 -0.2404,-0.06857 -0.33367,-0.171031 -0.085,-0.09335 -0.12788,-0.188498 -0.12872,-0.285513 -8.5e-4,-0.097 0.0564,-0.23534 0.17177,-0.415068 z"
     id="path986"
     style="stroke-width:0.63967848" />
  <path
     inkscape:connector-curvature="0"
     d="m 206.51089,32.840622 c 0.30642,-0.0247 0.58494,0.01028 0.83556,0.104939 0.25062,0.09466 0.47228,0.247867 0.66502,0.459606 0.21345,0.23452 0.35227,0.502532 0.41647,0.80404 0.0642,0.301509 0.025,0.621021 -0.11743,0.958499 -0.14247,0.337478 -0.36411,0.642888 -0.66488,0.916223 -0.30078,0.273335 -0.62375,0.462834 -0.9689,0.568492 -0.34515,0.105659 -0.66542,0.111727 -0.96078,0.01822 -0.29537,-0.09351 -0.54875,-0.256381 -0.76012,-0.488621 -0.19274,-0.21174 -0.32438,-0.446758 -0.39501,-0.704985 -0.0706,-0.258249 -0.0791,-0.538606 -0.0255,-0.841085 -0.28986,-0.0028 -0.54926,-0.04998 -0.77823,-0.141437 -0.22896,-0.09146 -0.42634,-0.228254 -0.59213,-0.4104 -0.32536,-0.357459 -0.46893,-0.789641 -0.43071,-1.29655 0.0382,-0.506908 0.27152,-0.955006 0.6999,-1.344309 0.42838,-0.389302 0.8969,-0.578977 1.40555,-0.569047 0.50866,0.0099 0.92566,0.19363 1.25103,0.551086 0.16786,0.18443 0.2871,0.394309 0.35769,0.629693 0.0706,0.235368 0.0914,0.497261 0.0625,0.785644 z m -1.12551,-0.749395 c -0.1575,-0.17303 -0.35948,-0.25885 -0.60593,-0.25746 -0.24645,0.0014 -0.48474,0.106674 -0.71489,0.315819 -0.23014,0.209145 -0.36098,0.439335 -0.38569,0.684347 -0.0247,0.245011 0.0417,0.454049 0.19919,0.627083 0.1575,0.173035 0.36259,0.262279 0.60904,0.260875 0.24644,-0.0014 0.48588,-0.107701 0.7183,-0.31892 0.23242,-0.21122 0.35757,-0.436224 0.38228,-0.681245 0.0247,-0.245021 -0.0427,-0.455175 -0.2023,-0.630499 z m 1.95649,1.984839 c -0.16786,-0.184416 -0.39884,-0.279237 -0.69295,-0.284459 -0.29411,-0.0052 -0.55851,0.09882 -0.79321,0.312105 -0.2347,0.213284 -0.36336,0.466453 -0.38598,0.7595 -0.0226,0.293046 0.0521,0.534061 0.22407,0.723037 0.13263,0.145717 0.31653,0.210524 0.55169,0.194431 0.23516,-0.01609 0.49173,-0.150453 0.76972,-0.403082 0.27799,-0.252628 0.43898,-0.497725 0.47612,-0.729089 0.0371,-0.231364 -0.0127,-0.422167 -0.14946,-0.572443 z"
     id="path988"
     style="stroke-width:0.63967848" />
  <path
     style="fill:#ffd3a3;stroke:url(#g);stroke-width:1.77510786;stroke-miterlimit:0"
     inkscape:connector-curvature="0"
     d="M 37.135227,232.75669 239.22255,49.962982"
     stroke-miterlimit="0"
     id="path990" />
  <path
     style="opacity:0.43902001;fill:#fff3de;stroke-width:0.63967848"
     inkscape:connector-curvature="0"
     d="m 237.00431,45.717297 c 0.63818,0.453336 1.10976,1.049663 1.51094,1.712048 0.32804,0.599906 0.45334,1.273465 0.39438,1.950379 -0.024,0.532562 -0.24637,0.968881 -0.52836,1.405938 -0.19197,0.332627 -0.41968,0.640526 -0.65872,0.940181 l -2.42824,1.641362 c 0.24872,-0.285363 0.4914,-0.576897 0.68294,-0.905041 0.24749,-0.425765 0.59471,-0.783959 0.59759,-1.310939 0.13382,-0.607219 0.008,-1.241271 -0.26686,-1.794031 -0.3793,-0.636023 -0.82555,-1.203567 -1.43963,-1.633427 z"
     id="path992" />
  <path
     style="opacity:0.43902001;fill:#fff3de;stroke-width:0.63967848"
     inkscape:connector-curvature="0"
     d="m 9.1633365,196.26355 c -0.1048883,0.7291 -0.1562375,1.46655 -0.190884,2.20225 -0.0047,0.53536 0.2151694,1.00003 0.585816,1.37581 0.2776039,0.23679 0.1299424,0.12938 0.4434465,0.3216 l -2.1159585,2.02749 c -0.3476104,-0.22992 -0.1849178,-0.10594 -0.489245,-0.37046 -0.4158596,-0.42861 -0.6997747,-0.94945 -0.7378184,-1.55557 0.010114,-0.74535 0.089612,-1.49154 0.1680345,-2.23199 l 2.3366232,-1.76913 z"
     id="path994" />
  <path
     style="opacity:0.43902001;fill:#fff3de;stroke-width:0.63967848"
     inkscape:connector-curvature="0"
     d="m 206.90228,16.760363 c 0.66329,-0.340425 1.36197,-0.570009 2.08654,-0.738406 0.59049,-0.197603 1.16416,-0.239041 1.76875,-0.11803 0.54897,0.154373 1.06017,0.401649 1.58283,0.624166 0.50878,0.231636 0.91959,0.609861 1.31436,0.996047 0.35279,0.309635 0.54348,0.722734 0.71645,1.147529 l -2.23759,1.892649 c -0.15528,-0.390544 -0.30437,-0.775873 -0.63601,-1.056523 -0.37023,-0.360756 -0.75493,-0.713626 -1.23849,-0.916707 -0.50522,-0.21079 -0.99681,-0.460675 -1.53567,-0.577669 -0.57287,-0.08464 -1.12614,0.04236 -1.67858,0.201264 -0.70092,0.188634 -1.38982,0.421272 -2.01365,0.800817 z"
     id="path996" />
  <path
     style="opacity:0.43902001;fill:#fff3de;stroke-width:0.63967848"
     inkscape:connector-curvature="0"
     d="m 207.90725,15.676041 c 0.86033,-0.09577 1.7465,-0.06055 2.57579,0.198057 0.3856,0.147413 0.68639,0.400405 0.98103,0.678756 l -2.15295,1.988233 c -0.26469,-0.245444 -0.53392,-0.465549 -0.88492,-0.579612 -0.80702,-0.21313 -1.65883,-0.225194 -2.48374,-0.111436 l 1.96478,-2.174022 z"
     id="path998" />
  <path
     style="opacity:0.43902001;fill:#fff3de;stroke-width:0.63967848"
     inkscape:connector-curvature="0"
     d="m 208.34291,14.41663 c 0.72979,-0.28813 1.48773,-0.36164 2.24576,-0.166514 0.5785,0.237451 1.0893,0.622497 1.59279,0.989823 0.31745,0.25224 0.16156,0.12325 0.4678,0.386882 l -2.14426,1.997603 c -0.29552,-0.252154 -0.14502,-0.128922 -0.45151,-0.369625 -0.47377,-0.341607 -0.95095,-0.716256 -1.50855,-0.904525 -0.73447,-0.134749 -1.44216,0.01528 -2.13964,0.264693 z"
     id="path1000" />
  <path
     style="opacity:0.43902001;fill:#fff3de;stroke-width:0.63967848"
     inkscape:connector-curvature="0"
     d="m 240.69226,46.721459 c 0.57605,0.418259 0.9578,0.970841 1.2054,1.62796 0.22134,0.602944 0.12211,1.150804 -0.18699,1.69348 -0.31277,0.414052 -0.58163,0.856929 -0.904,1.263717 l -0.17653,0.203729 -2.43479,1.631586 0.18304,-0.194006 c 0.34291,-0.390592 0.60509,-0.829746 0.92314,-1.235781 0.34035,-0.452739 0.54295,-0.907712 0.35224,-1.477539 -0.2165,-0.616929 -0.55217,-1.122837 -1.09747,-1.506682 z"
     id="path1002" />
  <g
     transform="matrix(2.6275045,-2.3877637,2.3896623,2.6254168,-1803.1186,-119.29986)"
     id="g1008"
     style="fill:url(#b-6)">
    <path
       inkscape:connector-curvature="0"
       d="m 317.05832,420.71135 c 0.0268,0.20446 0.0635,0.41063 0.0536,0.61736 -0.0254,0.12463 -0.0337,0.20262 0.0193,0.31688 0.0717,0.10253 0.14328,0.1769 0.2611,0.22366 0.14245,0.0777 0.30109,0.10339 0.46031,0.11898 0.16832,0.0122 0.33724,0.011 0.5059,0.0108 -1.32014,0.0393 -0.77093,0.0289 -0.47208,-0.0462 l 0.81852,0.10661 c -0.40383,0.12686 -0.63586,0.12009 -1.16173,0.0686 -0.16926,-7.1e-4 -0.33909,-6.3e-4 -0.50742,-0.0208 -0.16228,-0.0244 -0.31954,-0.0657 -0.46386,-0.14664 -0.11516,-0.0685 -0.20127,-0.163 -0.26547,-0.28098 -0.0492,-0.11847 -0.0495,-0.23033 -0.02,-0.35518 0.011,-0.20061 -0.0284,-0.40108 -0.0535,-0.59949 z"
       id="path1004"
       style="opacity:0.43902001;fill:url(#linearGradient1156)" />
    <path
       inkscape:connector-curvature="0"
       d="m 316.71833,420.47054 v 0.6779 0.56774 c -0.004,0.095 -0.007,0.17741 0.0793,0.22863 l -0.82273,0.0667 c -0.0695,-0.0904 -0.092,-0.18006 -0.082,-0.29535 v -0.56774 -0.6779 z"
       id="path1006"
       style="opacity:0.43902001;fill:url(#linearGradient1158)" />
  </g>
  <g
     style="opacity:0.95934999;fill:#d9ac5d"
     id="g1024"
     transform="matrix(0.31996639,-0.5537577,0.55419803,0.31971216,-78.644842,249.72185)">
    <path
       inkscape:connector-curvature="0"
       transform="matrix(2.0334,0.64949,-0.64949,2.0334,-243.89,-931.14)"
       d="m 320.1,418.02 a 1.0731,1.0731 0 1 1 -2.1461,0 1.0731,1.0731 0 1 1 2.1461,0 z"
       id="path1010" />
    <path
       inkscape:connector-curvature="0"
       transform="matrix(3.4568,1.1041,-1.1041,3.4568,-500.18,-1664.6)"
       d="m 320.1,418.02 a 1.0731,1.0731 0 1 1 -2.1461,0 1.0731,1.0731 0 1 1 2.1461,0 z"
       id="path1012" />
    <path
       inkscape:connector-curvature="0"
       transform="matrix(3.0501,0.97424,-0.97424,3.0501,-417.66,-1466.3)"
       d="m 320.1,418.02 a 1.0731,1.0731 0 1 1 -2.1461,0 1.0731,1.0731 0 1 1 2.1461,0 z"
       id="path1014" />
    <path
       inkscape:connector-curvature="0"
       transform="matrix(2.6435,0.84434,-0.84434,2.6435,-324.89,-1236.8)"
       d="m 320.1,418.02 a 1.0731,1.0731 0 1 1 -2.1461,0 1.0731,1.0731 0 1 1 2.1461,0 z"
       id="path1016" />
    <path
       inkscape:connector-curvature="0"
       transform="matrix(1.0167,0.32475,-0.32475,1.0167,-52.206,-423.44)"
       d="m 320.1,418.02 a 1.0731,1.0731 0 1 1 -2.1461,0 1.0731,1.0731 0 1 1 2.1461,0 z"
       id="path1018" />
    <path
       inkscape:connector-curvature="0"
       transform="matrix(3.4568,1.1041,-1.1041,3.4568,-451.83,-1679)"
       d="m 320.1,418.02 a 1.0731,1.0731 0 1 1 -2.1461,0 1.0731,1.0731 0 1 1 2.1461,0 z"
       id="path1020" />
    <path
       inkscape:connector-curvature="0"
       transform="matrix(2.0334,0.64949,-0.64949,2.0334,-228.75,-925.83)"
       d="m 320.1,418.02 a 1.0731,1.0731 0 1 1 -2.1461,0 1.0731,1.0731 0 1 1 2.1461,0 z"
       id="path1022" />
  </g>
  <path
     style="opacity:0.5935;fill:#f8d18c;stroke-width:0.63967848"
     inkscape:connector-curvature="0"
     d="m 218.54304,34.828736 c 0.11153,3.378544 0.87542,6.774299 2.21695,9.881383 0.34208,0.792197 0.76789,1.545631 1.15184,2.318446 0.93197,1.94353 2.61572,3.224012 4.04301,4.752154 0.31971,0.342334 1.05243,0.941414 0.42052,1.504056 -0.97268,0.866157 -2.11157,1.525682 -3.16739,2.288435 -5.41052,1.185105 -11.00529,1.049343 -16.4878,0.537184 -1.61776,-0.358296 -5.77313,-0.03118 -0.75322,-2.528474 0.38166,-0.189888 0.82259,0.224795 1.23084,0.347581 1.43572,0.431773 2.98874,0.945224 4.4054,1.404611 2.39784,0.913074 4.82794,1.815604 7.06201,3.096004 0.61623,0.353284 2.02381,1.199266 2.44651,1.952061 0.14124,0.251532 0.0767,0.571717 0.11496,0.857527 -0.89364,0.835561 -1.67329,1.812785 -2.68101,2.506707 -0.39405,0.271329 -3.11039,0.521531 -3.33228,0.539793 -2.35766,0.194689 -4.72669,0.174901 -7.08991,0.18113 -1.78292,0.182407 -3.77752,-0.08409 -5.49072,0.609524 -0.28849,0.11677 -1.03309,0.693904 -0.76834,0.530184 2.04315,-1.263251 1.5295,-1.829284 2.06077,-0.236904 0.47972,1.14327 1.54621,1.886692 2.20859,2.892122 0.0925,0.140448 0.27342,0.357053 0.15772,0.47909 -2.3235,2.451431 -1.7317,2.228075 -3.83108,2.01587 -3.03029,-0.353713 -5.99129,-1.110092 -8.8359,-2.200022 -0.79028,-0.974359 -0.77631,-0.821672 2.5566,-1.883697 0.36819,-0.117344 0.70366,0.319503 1.05479,0.480648 1.48594,0.681846 2.97535,1.355638 4.4617,2.036511 1.42682,0.544489 3.12644,1.637904 4.74293,1.165997 0.81177,-0.236991 1.26182,-0.759679 1.87325,-1.29673 -0.38132,0.249822 -0.72758,0.93527 -1.14389,0.749446 -0.35044,-0.156388 0.35562,-0.683884 0.47176,-1.049406 0.26861,-0.845125 0.31509,-1.848597 -0.38234,-2.466754 -1.17234,0.849473 1.12777,-0.821585 1.17067,-0.78923 0.46518,0.350408 -0.55325,1.024766 -0.8144,1.545116 -1.23863,2.467854 -2.41087,4.959166 -3.68566,7.410221 -2.06765,3.34542 -3.76125,8.07838 -7.61433,9.870684 -0.22889,0.106459 -0.39022,-0.320226 -0.5853,-0.480336 -0.45685,-0.920963 -0.55732,-1.948676 -0.77005,-2.940573 -0.0549,-0.255885 -0.20581,-0.876048 -0.18816,-0.88905 0.75638,-0.557466 1.59361,-0.996146 2.3904,-1.494263 0.3868,1.033621 0.97218,2.007848 1.27573,3.072886 0.032,0.112281 0.13088,0.262093 0.0503,0.346653 -0.69618,0.730561 -1.51962,1.328482 -2.27946,1.992707 -0.42198,-0.07118 -0.71727,-0.776146 -1.1554,-0.761795 -0.11596,0.0038 -0.35598,0.297112 -0.26284,0.227968 0.55482,-0.412054 0.96886,-1.132028 1.64874,-1.257169 0.39111,-0.07202 -0.36964,0.703785 -0.55448,1.055661 -0.95328,2.488569 -1.19505,3.940737 -3.89009,5.396217 -0.22375,0.120817 -1.18364,-0.643994 -1.61914,-0.95991 -1.47949,-0.935224 -3.68787,-2.748746 -5.51719,-2.789243 -0.24699,-0.0055 -0.48175,0.109677 -0.72262,0.164512 -0.15591,0.158311 -0.66083,0.584896 -0.46774,0.474857 0.57178,-0.325862 0.96457,-1.054834 1.61849,-1.130643 0.349,-0.04047 -0.26429,0.651445 -0.37077,0.985991 -0.43103,1.354581 -0.69386,2.775627 -1.04352,4.15242 -0.51462,2.586648 -1.2627,5.075528 -2.41412,7.448976 -1.19671,2.18186 -3.02578,4.23474 -5.33558,5.26154 -0.95332,0.36285 -1.91336,0.69717 -2.8613,1.07464 -0.16545,0.0659 -1.25336,0.52763 -1.5512,0.56454 -0.0901,0.0111 -0.17131,-0.0603 -0.25696,-0.0904 l 2.06327,-2.02203 c 1.43943,-0.26575 2.93796,-1.07279 4.37021,-1.59874 1.34952,-0.689966 0.64811,-0.41762 -0.74888,1.06725 -0.17242,0.18331 0.38516,-0.32465 0.56575,-0.4999 0.67058,-0.65074 1.16513,-1.419648 1.61334,-2.235884 1.21258,-2.371024 2.03622,-4.864528 2.55186,-7.479533 0.68917,-2.860734 0.0681,-0.197805 0.64251,-2.898281 0.0307,-0.144301 0.41273,-1.949172 0.56772,-2.159158 1.62125,-2.196544 1.51156,-2.056187 2.88496,-2.935645 0.25348,-0.01641 0.50876,-0.08342 0.76047,-0.0492 1.91409,0.260299 3.88455,2.00193 5.56145,2.868145 0.29515,0.173226 0.57271,0.380381 0.88501,0.520375 0.97454,0.437041 1.88771,-0.387826 -0.85568,1.712466 -0.2532,0.193834 0.35626,-0.531001 0.49753,-0.816806 0.38446,-0.777922 0.6654,-1.693391 0.94372,-2.508475 0.80324,-1.896219 0.41368,-1.335062 2.8838,-3.455522 0.1099,-0.09429 0.29179,-0.07448 0.4327,-0.04083 0.38476,0.09191 0.61677,0.570652 1.04374,0.566392 -0.62319,0.631567 -1.20062,1.311753 -1.86949,1.894741 -0.0853,0.07428 0.0836,-0.218009 0.0749,-0.330681 -0.017,-0.219264 -0.0813,-0.433636 -0.15012,-0.642523 -0.2706,-0.821004 -0.6849,-1.592563 -1.14221,-2.322425 0.67354,-0.701457 1.32246,-1.427377 2.02058,-2.104315 0.0643,-0.06236 -0.10246,0.157637 -0.10524,0.247108 -0.036,1.151556 0.4006,2.381678 0.80428,3.43264 0.95449,0.839148 -0.0492,-0.251018 -0.87909,1.78232 -0.19905,0.487712 0.76867,-0.726468 1.09487,-1.140184 1.68237,-2.133602 2.88044,-4.622861 4.2645,-6.94339 1.48991,-2.945538 1.20351,-2.289427 2.48883,-5.159763 0.87623,-1.956742 2.01577,-5.992629 4.61065,-6.109466 0.11204,0.12341 0.25419,0.225048 0.33619,0.370095 0.53051,0.938495 0.29782,2.765461 -0.35726,3.58293 -0.78953,0.985257 -1.75116,1.819694 -2.6267,2.729489 -0.72069,0.571847 -1.10345,1.015624 -2.03246,1.22135 -1.65455,0.366403 -3.27625,-0.794193 -4.716,-1.370929 -1.48917,-0.697102 -2.98594,-1.389223 -4.54116,-1.930819 -0.37786,-0.131579 -1.22293,0.04732 -1.14946,-0.345718 0.40642,-2.173424 2.54529,-1.878703 1.33808,-2.005651 2.49577,1.651949 5.76082,1.935581 8.65623,2.215545 1.63258,-0.06993 2.00944,-0.391813 -0.13258,1.629676 -0.11266,0.106344 0.11632,-0.3182 0.0567,-0.461075 -0.47328,-1.133716 -1.74887,-1.826254 -2.25613,-2.947828 -0.15953,-0.331762 -0.63678,-0.662887 -0.4786,-0.995347 1.80908,-3.802476 4.75773,-3.172909 8.23706,-3.273168 2.38722,-0.01003 4.78234,-0.003 7.15631,-0.300904 0.65858,-0.08266 1.3181,-0.176854 1.963,-0.333695 0.49063,-0.119277 1.23149,-0.954751 1.43261,-0.491925 0.21979,0.50562 -0.74355,0.814572 -1.11537,1.221906 0.0305,-0.264833 0.18048,-0.543314 0.0913,-0.794531 -0.29634,-0.834522 -1.55928,-1.691556 -2.17073,-2.082396 -2.15501,-1.377465 -4.57647,-2.28087 -6.97788,-3.116283 -1.50932,-0.41528 -3.06856,-0.899278 -4.62534,-1.13574 -0.45252,-0.06876 -1.42823,0.369377 -1.37056,-0.0843 0.43454,-3.417555 1.31807,-1.935978 2.39949,-1.609225 0.59193,0.178842 1.20574,0.275277 1.80857,0.412872 5.53427,0.700468 11.23903,0.785389 16.62439,-0.873334 -0.2457,0.41372 -0.54986,0.797983 -0.73693,1.24124 -0.0904,0.214252 0.44387,-0.308004 0.44122,-0.540513 -0.004,-0.329677 -0.26384,-0.610128 -0.45731,-0.877172 -1.23621,-1.706155 -3.02197,-2.99373 -3.89412,-4.977244 -0.38603,-0.780194 -0.80511,-1.544884 -1.1581,-2.340594 -1.35117,-3.045899 -2.18174,-6.299522 -2.71327,-9.579987 l 2.18222,-1.722377 z"
     id="path1026" />
  <g
     style="opacity:0.26016002;fill:#f8d18c"
     transform="matrix(1.8537462,-1.6846112,1.1571136,1.2712653,-1026.6294,218.02423)"
     id="g1056">
    <path
       style="opacity:0.95934999"
       inkscape:connector-curvature="0"
       d="m 334.22021,418.26551 c -0.75455,-0.0176 0.61548,0.0136 0.69742,0.0258 0.0669,0.01 -0.1326,0.0386 -0.19237,0.0773 -0.16329,0.10554 -0.1317,0.19481 -0.029,0.3181 0.33209,0.41259 0.44966,0.75301 0.14427,1.24407 -0.48106,0.41326 -1.08942,0.44686 -1.65431,0.51334 l -1.13964,-0.21149 c 0.54006,-0.0543 1.10996,-0.0845 1.59681,-0.40918 0.3123,-0.37661 0.10244,-0.71815 -0.1606,-1.0437 -0.4939,-1.11804 1.59291,-0.72648 1.93902,-0.72045 z"
       id="path1028" />
    <path
       style="opacity:0.95934999"
       inkscape:connector-curvature="0"
       d="m 334.95149,420.63682 c 0.33653,-0.39994 0.57034,-0.86763 0.87376,-1.2905 0.5725,-0.68573 0.84193,-0.52829 1.75004,-0.44892 0.31541,0.3119 0.45975,0.76736 0.58016,1.18556 0.0689,0.30076 0.0433,0.15738 0.0812,0.42934 l -0.7737,0.008 c -0.0168,-0.26183 0.002,-0.12291 -0.0645,-0.41549 -0.12177,-0.40042 -0.25839,-0.85151 -0.60044,-1.11774 0.21112,-0.016 0.42318,-0.0225 0.63335,-0.048 0.051,-0.006 -0.10272,-0.0155 -0.15385,-0.0102 -0.29335,0.0301 -0.51603,0.265 -0.70655,0.46503 -0.30988,0.40885 -0.53474,0.87026 -0.82284,1.29438 z"
       id="path1030" />
    <path
       style="opacity:0.95934999"
       inkscape:connector-curvature="0"
       d="m 335.48978,420.31124 c 0.54759,-0.2393 1.09696,-0.47641 1.6595,-0.67864 0.35172,-0.10948 0.18252,-0.0664 0.50625,-0.13439 l 0.75214,0.10525 c -0.34012,0.0532 -0.16389,0.0153 -0.52729,0.11979 -0.54811,0.18736 -1.07865,0.41974 -1.60106,0.66963 z"
       id="path1032" />
    <path
       style="opacity:0.95934999"
       inkscape:connector-curvature="0"
       d="m 338.71764,418.17739 c 0.22029,0.57867 0.28711,1.19446 0.3483,1.80567 -0.0256,0.36433 0.10958,0.74143 0.0783,1.10319 l -0.80913,-0.0238 c 0.12918,-0.19617 -0.0197,-0.84079 0.002,-1.07233 -0.0568,-0.60284 -0.12532,-1.22639 -0.4123,-1.76986 z"
       id="path1034" />
    <path
       style="opacity:0.95934999"
       inkscape:connector-curvature="0"
       d="m 338.45901,418.53376 c 0.54407,0.009 1.08712,-0.0313 1.62313,0.0762 0.395,0.15844 0.64358,0.47075 0.62289,0.90027 -0.17281,0.39624 -0.63965,0.40884 -1.0161,0.44708 -0.43121,0.0907 -0.28134,0.24712 -0.004,0.38733 0.21675,0.0756 0.10487,0.0504 0.33585,0.0748 l -0.76873,0.10998 c -0.23578,-0.046 -0.12123,-0.0121 -0.34367,-0.10164 -0.33312,-0.19828 -0.44525,-0.46269 0.0251,-0.58296 0.34121,-0.0285 0.78074,-0.0213 0.98732,-0.34015 0.0383,-0.39238 -0.2299,-0.66679 -0.58702,-0.79042 -0.54635,-0.0954 -1.10025,-0.0553 -1.65272,-0.0573 z"
       id="path1036" />
    <path
       style="opacity:0.95934999"
       inkscape:connector-curvature="0"
       d="m 341.52411,418.83773 c 0.27499,0.53443 0.63263,1.02073 0.94682,1.53223 0.20696,0.30272 0.11194,0.15777 0.2868,0.4337 l -0.76263,0.0408 c -0.1513,-0.27556 -0.0663,-0.13006 -0.2585,-0.43439 -0.31383,-0.5236 -0.67032,-1.01925 -1.00507,-1.52944 z"
       id="path1038" />
    <path
       style="opacity:0.95934999"
       inkscape:connector-curvature="0"
       d="m 340.25619,421.45674 c 0.35661,-0.33024 0.63211,-0.73146 0.97493,-1.07553 0.35143,-0.34068 0.75276,-0.62247 1.11251,-0.95395 l 0.0802,-0.10151 0.78566,0.0539 -0.0942,0.1119 c -0.36761,0.33202 -0.78467,0.6041 -1.14188,0.9479 -0.33605,0.33788 -0.60241,0.7295 -0.92495,1.07963 z"
       id="path1040" />
    <path
       style="opacity:0.95934999"
       inkscape:connector-curvature="0"
       d="m 344.66684,419.01229 c -0.33862,0.15239 -0.62852,0.39146 -0.83745,0.69694 -0.16518,0.30474 -0.17189,0.57096 0.1095,0.79388 0.15739,0.0888 0.3348,0.12941 0.51464,0.14091 0.081,0.005 0.32396,0.009 0.24346,-0.002 -0.43713,-0.056 -0.72045,0.01 -0.19107,-0.0738 0.48476,-0.0749 0.83609,-0.32526 1.03277,-0.76925 0.0844,-0.38839 -0.0965,-0.56098 -0.43411,-0.69902 -0.30131,-0.10932 -1.22548,-0.0998 0.14676,-0.0509 l -0.78635,-0.1017 c 0.51495,-0.0246 0.93937,-0.11182 1.41097,0.0636 0.3665,0.17911 0.52939,0.40059 0.43657,0.81996 -0.20139,0.46533 -0.56021,0.75321 -1.06807,0.84188 -0.58655,0.10196 -0.2897,0.0634 -1.29581,0.0867 -0.27665,0.006 -0.5601,-0.0299 -0.79193,-0.19047 -0.26341,-0.25822 -0.2781,-0.58432 -0.0994,-0.90551 0.20552,-0.31727 0.49179,-0.55717 0.819,-0.74612 z"
       id="path1042" />
    <path
       style="opacity:0.95934999"
       inkscape:connector-curvature="0"
       d="m 347.52511,419.09537 c -0.37033,-0.21849 -1.44322,-0.18784 -0.11989,-0.14882 -0.31567,0.12518 -0.25404,0.30079 0.01,0.43121 0.32338,0.11214 0.66641,0.0856 0.93858,0.31326 0.18967,0.31409 -0.0691,0.56522 -0.31153,0.74387 -0.25467,0.11028 -0.59966,0.361 -0.8829,0.37392 -0.30789,0.014 -0.61641,0.004 -0.92461,0.006 -0.12927,-0.0404 -0.0983,0.004 -0.0956,-0.13 l 0.81575,0.0339 c -0.0382,-0.0625 -0.0396,-0.0426 0.0543,-0.0252 -1.15295,0.0206 -0.6978,0.0484 -0.45703,-0.021 0.24921,-0.0718 0.48672,-0.19805 0.7184,-0.31069 0.19103,-0.13513 0.47776,-0.34398 0.29788,-0.59872 -0.27964,-0.19592 -0.62864,-0.15913 -0.93259,-0.30352 -0.289,-0.19039 -0.34392,-0.43463 -0.0108,-0.62189 0.62451,-0.021 1.13605,-0.10086 1.69673,0.16924 z"
       id="path1044" />
    <path
       style="opacity:0.95934999"
       inkscape:connector-curvature="0"
       d="m 349.51845,420.01359 c -0.0902,0.11933 -0.14395,0.23061 -0.15254,0.37821 l -0.79047,-0.006 c 0.0154,-0.15264 0.0594,-0.2777 0.14275,-0.40887 z"
       id="path1046" />
    <path
       style="opacity:0.95934999"
       inkscape:connector-curvature="0"
       d="m 350.91813,418.3256 c 0.19176,0.42724 0.30943,0.88222 0.34785,1.34808 0.0121,0.37255 -0.0479,0.75866 -0.232,1.08718 l -0.79648,-0.049 c 0.24083,-0.27294 0.26318,-0.68641 0.27043,-1.03246 -0.0317,-0.46079 -0.14914,-0.9185 -0.39006,-1.31668 z"
       id="path1048" />
    <path
       style="opacity:0.95934999"
       inkscape:connector-curvature="0"
       d="m 349.52163,418.3435 c 0.57482,-0.15636 1.14143,-0.33782 1.72139,-0.47513 0.60086,-0.0826 1.40002,-0.38539 1.92663,0.004 0.20777,0.27733 0.0754,0.65017 -0.0318,0.94529 -0.16408,0.34126 -0.52397,0.44503 -0.86205,0.54568 -0.17463,0.0485 -0.35426,0.07 -0.53366,0.091 l -0.76843,-0.11339 c 0.17936,-0.0171 0.35902,-0.0344 0.53454,-0.0776 0.31835,-0.0852 0.6745,-0.1742 0.85339,-0.47411 0.10228,-0.25289 0.23033,-0.61007 0.0211,-0.83851 -0.22818,-0.12724 -0.74214,-0.14244 0.33959,-0.092 0.0751,0.003 -0.14962,0.0145 -0.22419,0.0239 -0.23318,0.0294 -0.28223,0.0418 -0.51986,0.0851 -0.56519,0.12467 -1.11405,0.29814 -1.66613,0.47009 z"
       id="path1050" />
    <path
       style="opacity:0.95934999"
       inkscape:connector-curvature="0"
       d="m 354.34445,418.529 c -0.0476,0.45184 -0.18314,0.86899 -0.3962,1.26806 -0.22708,0.42505 -0.0644,0.46517 0.32858,0.52954 l 0.19371,0.0181 -0.76298,0.1125 -0.19788,-0.0239 c -0.45162,-0.0972 -0.57159,-0.24524 -0.31953,-0.67399 0.21194,-0.38492 0.35424,-0.78508 0.35604,-1.23037 z"
       id="path1052" />
    <path
       style="opacity:0.95934999"
       inkscape:connector-curvature="0"
       d="m 339.72903,420.10341 c 0.3208,0.19391 0.61407,0.29653 0.80774,0.6374 l -0.7817,0.0416 c -0.19041,-0.31146 -0.51902,-0.42347 -0.82087,-0.60509 z"
       id="path1054" />
  </g>
  <path
     style="opacity:0.10976;fill:url(#h);stroke-width:0.63967848"
     inkscape:connector-curvature="0"
     d="m 16.581723,208.54706 c 0.05303,0.41018 -0.139925,1.9227 -0.67917,1.06694 -0.223076,1.15175 1.053058,2.06226 2.12071,1.6706 0.759936,2.07272 0.844889,4.62368 3.250994,5.55597 1.037729,1.15164 3.153092,1.36516 3.014861,3.14106 0.209291,1.3049 2.155555,0.3152 1.724999,1.73034 0.532839,1.87992 2.877293,2.35275 3.412892,4.24401 2.225257,0.36427 1.313664,3.63066 3.577076,4.09476 0.513856,0.49645 2.486242,0.79615 1.500995,1.48423 0.754029,0.48963 1.502412,1.0412 1.642918,1.805 1.472358,0.26286 1.988044,-1.74248 3.419208,-0.85867 0.155361,-0.5355 1.516714,-1.71845 1.515479,-0.47779 1.078914,0.0553 1.885871,-0.49358 1.485408,-1.4998 0.47545,-0.5988 3.20854,-0.14993 1.716857,-1.41035 -0.805959,-0.74121 1.15171,-0.53599 0.365596,-1.08179 0.567165,-0.7372 1.875603,-1.28865 2.53091,-0.35117 0.504282,-0.52894 0.869323,-1.6388 1.791516,-1.3283 -0.855258,-1.52205 2.379253,0.45673 1.291469,-0.7239 1.160167,0.0974 1.476392,-2.25117 0.0071,-1.8053 -0.795092,-1.10147 2.022231,-0.43686 1.007616,-1.36543 1.471111,-0.53528 -1.235212,-0.23771 -0.186904,-1.02943 0.604451,-0.66977 -1.350348,-0.73337 0.19395,-0.77589 1.357414,-0.0668 1.150702,1.33147 0.620081,1.83507 0.819788,0.53849 1.03515,-0.54173 1.642558,0.15629 1.36165,-0.44559 -1.146251,-0.84924 -0.08992,-1.41736 0.628071,-0.0915 2.022411,-1.10613 0.686614,-1.22361 -0.708989,-0.20911 -1.843418,-1.51542 -0.694772,-1.91707 0.227694,1.16319 1.829008,1.1718 2.105859,1.98391 0.858106,-1.07018 0.245903,-2.93378 1.67155,-3.76766 -1.004943,-0.32394 -1.106965,-2.03636 0.171285,-1.9546 0.116107,1.28496 1.716972,-1.14212 1.933822,0.64115 0.68589,0.51919 2.049844,-0.53094 1.074853,-1.1267 -1.137061,1.57428 -0.468182,-1.55355 0.276054,-0.85051 -0.306204,1.65157 2.243265,0.0158 0.813672,-0.58953 0.117618,-1.41791 2.249027,0.22581 2.037876,-1.5521 -0.123228,-1.20076 0.201239,-3.40396 1.410362,-3.2305 -0.632889,-0.82692 0.459045,-3.85219 1.358346,-2.13388 0.663301,0.662 0.731621,1.58525 0.590325,2.46167 1.586355,0.3285 1.372885,-2.29686 1.067077,-2.61873 -0.861445,-0.63252 0.996218,-2.06103 1.058368,-2.94301 0.77753,-0.96552 0.697988,-2.53786 1.42651,-3.06288 1.639242,-0.31971 1.318679,-2.34142 0.775747,-3.10355 0.655338,-1.01984 1.404856,0.18876 2.038214,0.0965 -0.30836,-1.18868 1.598861,-0.37246 1.007621,-1.36543 -0.36891,-1.20921 1.074704,-0.72158 1.508074,-0.3211 2.908728,-1.82645 5.530387,-4.16893 7.5295,-6.98101 4.327,-4.61876 9.388673,-8.46387 14.159092,-12.60356 13.125809,-11.04738 26.142099,-22.22291 39.199769,-33.35021 -5.33977,3.51434 -10.6414,7.0848 -15.90758,10.70886 -4.00013,0.19542 -5.60966,4.47214 -8.58045,6.484 -2.86133,2.21876 -6.14544,4.2332 -9.86923,4.32954 -2.951714,0.53081 -1.37591,4.32843 -1.3759,6.30372 -0.89341,3.11202 -5.035903,1.47927 -7.2598,2.97375 -2.420851,0.50304 -3.519195,3.19898 -5.998379,3.22839 -0.500148,3.26497 -5.683282,1.99299 -6.606376,5.10433 0.991423,0.25501 0.234511,1.02441 -0.335847,0.45515 -0.72543,0.88106 -2.407772,-0.13945 -2.956266,1.03758 1.808714,-0.16465 -1.103706,2.26593 -0.731568,0.51492 -0.42576,-1.28897 -1.268399,1.32714 -1.896323,0.22419 -0.448491,0.59664 -0.761125,2.39859 -1.798977,1.48496 0.849782,1.63946 -2.314959,0.9968 -1.635094,-0.31296 -0.959995,-0.36272 -3.007439,-1.95422 -3.29995,7e-4 0.234022,0.60111 1.284445,2.35212 -0.328064,1.94714 -1.10759,0.65669 -0.234024,4.04756 -2.425761,3.1039 -0.25984,-0.61812 0.07777,-2.35992 -0.970803,-1.06656 -0.170277,0.89211 1.723007,2.0205 0.19467,2.52144 0.49779,0.33369 1.017011,1.05348 0.104751,1.10408 -0.0423,0.31614 -0.281499,1.97474 -0.664304,0.7536 -0.33387,0.32351 -1.223186,0.44676 -0.851178,-0.27584 -1.481468,-0.37882 -0.586449,-2.1988 -0.866755,-3.25981 0.01415,1.14256 -2.05383,-0.12959 -1.55264,1.26107 0.274406,0.75356 2.20177,1.68198 0.679906,2.23042 -0.551962,-0.80162 -2.142013,0.6306 -1.306649,-0.61143 0.267773,-0.58837 -1.077637,-0.985 -0.462931,-0.17893 -1.115452,0.43448 -2.568234,-0.54095 -2.225095,-1.12598 -1.205851,-0.37409 -1.213624,1.26541 -0.141559,1.3279 1.13402,0.44072 -0.59545,1.09486 0.678543,1.26469 0.01392,0.20005 1.176802,0.40977 0.441626,-0.034 1.038859,0.23161 0.167917,-0.005 0.261177,-0.53718 1.021054,-0.17124 1.532346,0.22695 1.672644,1.17833 0.739534,0.88532 1.942423,-0.17737 1.701991,-1.09702 0.505266,0.41719 1.036893,2.30892 -0.156419,1.64125 -0.468034,0.65175 -0.130583,2.65492 -1.500248,1.81309 -0.552626,-1.36726 -0.704579,1.3516 0.343683,1.03688 -0.469236,0.30597 -0.562339,1.59757 0.254103,1.26813 -1.256023,-0.89752 1.426955,-1.18384 0.709254,-0.0449 -1.131107,-0.19306 0.303074,1.94915 -0.99275,1.05209 -0.750793,-0.40699 -0.247821,-1.82994 -1.247207,-1.86475 0.262116,-0.44724 0.05587,-2.10601 -0.649813,-1.20839 -1.402841,-1.20662 -2.361462,1.30415 -2.00034,2.41746 -0.56786,-0.51142 -1.985805,0.60938 -1.373926,-0.85012 0.76896,-0.98265 -1.516663,1.3815 -0.791364,0.11953 -0.745127,-0.20693 -1.303019,1.27269 -0.462571,1.46973 0.06994,0.6418 -0.02112,1.18829 0.455508,0.33558 1.076999,0.26062 0.0512,1.13433 -0.604494,1.14901 0.844849,0.52172 1.156506,1.62591 0.202075,2.36475 -0.0052,-0.56978 0.202063,-1.82025 -0.590005,-0.81302 -0.545537,0.90732 -1.031819,0.31277 -1.485756,-0.14887 -1.253865,0.38284 0.471943,2.1114 -1.022444,1.67872 -0.989608,-0.31224 0.500319,1.43808 -0.52237,1.07433 -0.332368,-1.04866 -2.165044,-2.86671 -2.926939,-1.23774 -1.537121,-0.21127 0.394765,-1.84007 1.224188,-0.96258 0.828475,0.72027 2.822262,-0.76218 1.47052,-1.18647 -0.470304,0.67103 -1.139597,-0.47033 -0.231476,-0.0895 0.71348,-0.35938 1.170737,-1.22223 1.350913,-1.9772 -1.590558,0.85326 -1.769971,-2.06916 -3.407181,-1.6201 -0.701219,0.061 -1.804965,-1.38694 -1.938783,0.0323 0.121107,1.06951 -0.546952,1.95052 -0.760913,2.79025 0.166071,0.89743 2.841578,0.44258 1.500992,1.48423 -0.772541,0.67506 -3.819487,1.02262 -1.836127,2.26825 0.647683,1.22857 1.603531,-0.31801 0.425411,-0.68637 -0.6661,-0.89975 1.222396,-0.80731 0.470361,0.0223 0.783784,-0.0907 0.587121,2.22244 1.836835,1.02909 1.180162,-0.0489 -0.814353,1.68248 0.552827,1.59633 1.60837,0.0567 -1.057701,2.75866 -0.828543,0.90287 -0.412417,-1.11448 -3.260544,-0.96027 -1.985849,0.45548 -1.527231,0.81899 1.499298,-0.007 1.202264,1.15603 0.646567,0.73534 -0.32182,1.3202 -0.75384,0.98488 -0.253036,-0.2063 -1.139583,-2.28517 -1.149916,-0.60401 -0.222498,0.57377 -1.880402,-1.43134 -1.881402,-0.0891 1.031212,1.75439 -2.538478,1.80348 -2.120333,-0.0219 0.829609,1.37295 1.63197,-1.26536 0.290925,-1.16384 -0.0486,-1.69182 1.75056,0.63016 2.665395,0.12622 1.011588,0.0601 -0.388579,-0.61095 -0.02265,-1.17869 -0.557068,-0.44365 -0.976917,-0.94344 -1.179953,-1.626 -0.232038,1.43113 -2.046905,0.32021 -1.456046,-0.77553 -0.211786,-0.0967 1.294941,-1.07866 0.04458,-0.93996 1.160234,-1.24497 -2.216532,0.42451 -0.514969,0.91772 -1.733824,0.69722 0.80964,1.87148 -0.223312,3.05122 -0.512719,0.41902 -1.140775,0.24799 -1.560425,-0.23092 0.200345,0.3198 0.823207,1.76065 -0.05945,1.2533 0.257818,-0.74873 -1.303668,-1.50282 -0.702178,-1.76039 0.876817,0.0363 1.364491,-0.26903 1.156957,-1.20131 0.823836,-1.35161 -1.578324,-0.81365 -0.634583,0.12696 -1.59311,-0.71389 -3.269214,0.89078 -4.957374,0.15775 -0.758969,1.04438 0.459897,3.70842 -1.582008,3.53639 -0.65439,-0.20195 -1.828888,-1.79903 -0.463301,-1.82762 0.01465,1.75161 1.606042,-0.84758 0.164222,-0.14923 0.02702,-0.59085 2.218407,-1.38306 0.679153,-1.06695 -0.275809,-0.0313 -0.909413,-0.94722 -0.627147,-0.0297 -1.719912,0.87226 -3.962278,0.0688 -5.718417,0.86638 -1.90248,0.27705 -3.853519,-0.11996 -5.465473,-0.297 -0.75551,0.21868 -1.504454,0.96769 -0.19395,0.7759 1.16592,0.3396 -1.059973,1.58516 -0.19358,2.42453 -0.515162,-0.31587 -1.974527,-2.03012 -1.866558,-0.40242 -0.981544,0.46168 -1.282999,-2.03542 -0.194295,-0.8728 -1.20113,-1.47822 2.458262,0.13801 0.985312,-0.89542 -0.863024,-0.0946 -2.414775,-0.77865 -2.919105,0.25429 z m 37.160002,10.00331 c -0.928905,-0.52754 -0.223603,0.9526 0,0 z M 21.620987,208.31474 c 1.030859,0.20989 -0.447909,1.3379 -0.246332,0.22385 z m 0.866038,-0.0375 0.455514,0.33559 c 0.170469,0.46942 -1.244947,-0.43725 -0.455514,-0.33559 z m -0.365596,1.08179 c 1.795253,0.62826 -0.793354,0.32939 0,0 z m 2.329173,-1.06731 c 0.413581,-0.58481 1.332587,0.48775 0.373385,0.41022 0.976958,1.35939 -1.924481,0.90532 -0.701844,-0.11176 l 0.328436,-0.29847 z m 0.903588,0.82788 c -0.06161,0.0152 1.394993,0.98132 -0.0074,0.15667 l -0.07467,-0.0821 z m 1.709452,-1.25367 c 1.295075,0.0775 2.540219,0.51142 3.815255,0.73021 -1.034728,0.86957 1.21072,2.38099 -0.808791,1.26306 -0.465151,-0.74903 -1.738136,0.0474 -0.601921,0.31876 0.621633,0.55878 -0.520981,2.06798 -0.582195,0.67899 -0.323361,-0.59557 -1.054987,-1.08009 -0.933617,-1.8499 -0.685051,1.03121 -0.81515,-1.19208 -0.888676,-1.14117 z m 3.247225,-2.2014 c -1.056636,0.41327 0.755508,1.81951 0.291273,0.48484 0.02097,-0.14691 -0.0626,-2.11558 -0.291273,-0.48484 z m 6.009182,-4.11171 c 0.40488,0.57484 2.131243,1.06499 1.165087,1.93935 0.719126,0.48648 2.420039,0.70419 1.284008,-0.56724 -0.736975,-0.70445 -1.549814,-1.90066 -2.665706,-1.77489 l 0.216599,0.40279 z m -2.209162,3.5067 0.373391,0.41022 c 0.0045,-0.17202 -0.475028,-1.23912 -0.373391,-0.41022 z m 0.522735,0.5743 c 0.493617,0.87919 -0.0038,-0.76311 0,0 z m 0.821104,-0.7462 c 1.06028,0.8947 0.314056,-0.5512 0,0 z m -5.07551,5.96164 c 0.475578,-0.30919 0.459757,1.23896 -0.01486,0.31332 l -0.141919,-0.32075 z m 6.464326,-5.42477 -0.07467,-0.0821 z m 0.238896,-0.0672 c 0.153069,0.73708 1.773077,0.12888 0.627148,0.0297 l -0.619721,-0.18636 z m 4.366993,-2.61944 c 0.904357,0.5429 0.501701,-1.28266 -0.291279,-0.48484 z m -2.388573,2.32056 -0.388251,-0.0969 z m 0.791364,-0.11953 c 1.284178,0.17701 0.368993,-1.10235 0,0 z m 1.149518,-1.04464 c 0.336867,0.16192 -0.58339,0.2409 0,0 z m 1.104958,-0.10467 c 0.565255,1.22812 1.908012,-0.65455 0.649426,-0.44026 -0.07505,0.42664 -1.26031,-0.25285 -0.649426,0.44026 z m 8.144117,-6.05201 c -0.708828,0.93331 0.658377,-0.264 0.194294,0.8728 0.694006,0.54478 0.888292,-2.38939 -0.172038,-1.34277 l -0.02229,0.46999 z m -7.725583,7.17061 c 1.072753,0.24916 -0.592438,-0.95997 0,0 z M 48.1162,199.6773 c 0.630494,1.26702 -2.295178,2.00099 -0.713986,0.56139 l 0.510233,-0.40117 0.203762,-0.16024 z m 0.895774,-0.66414 c 1.24292,-0.50227 0.04681,2.32451 -0.26862,0.69383 -0.01875,-0.24497 0.01985,-0.56529 0.26862,-0.69383 z m -5.433996,5.23799 c 0.326839,0.35687 0.0769,-0.70572 0,0 z m 8.860241,-7.90191 c -0.693849,0.61591 0.52126,1.46272 -0.790991,1.76817 -0.845756,0.27096 0.998968,0.72471 0.186904,1.02942 1.123149,1.23784 0.811789,-1.28614 0.873121,-1.84283 0.468781,-0.37631 1.158646,-1.37281 -0.01523,-1.33537 l -0.253778,0.38051 z m 1.716857,-1.41036 c 0.192073,-0.59861 -0.614571,0.13444 0,0 z m 1.276602,-0.41055 c -0.768037,0.89953 1.271283,2.27771 1.142452,0.76067 0.898376,0.65608 1.388752,-1.28038 2.314306,-0.75396 0.08063,-1.89016 -2.242755,-0.50587 -1.806742,-0.007 -0.552847,-0.0801 -1.546788,-1.31506 -1.649964,3.9e-4 z m -1.74659,2.03696 c -0.311808,0.9396 1.187343,1.09196 1.015373,0.1266 0.809771,0.92081 0.195519,-1.84973 -0.291276,-0.48485 -0.266672,-0.3426 -1.105333,-0.24163 -0.724129,0.35826 z M 40.696971,208.6682 c 1.233268,0.80262 -0.516408,0.75563 0,0 z m 8.77824,-7.82739 c 1.40804,0.48135 -0.928586,1.27325 -0.246327,0.22386 l 0.171597,-0.30593 z m 14.033257,-12.60306 c -0.773902,0.69562 0.65782,1.20349 0.306173,0.17146 0.429793,-0.44546 -0.649902,-0.75846 -0.306173,-0.17146 z m -18.429795,17.49743 c 0.530721,0.56534 0.174279,-1.26695 -0.298711,-0.32818 z m 5.530918,-5.62582 c 1.167911,0.77876 -1.262263,0.88154 0,0 z m -7.016336,7.12568 c 0.141205,0.52192 -0.592352,-0.46571 0,0 z m 10.151869,-8.62608 -0.216599,-0.40279 z m 15.623058,-14.64741 c 1.374379,0.18843 -0.689053,0.71267 0,0 z m -16.041009,15.17713 c 0.951792,0.21259 -0.567375,-0.68248 0,0 z m -8.800511,8.29742 c 0.760813,-0.27737 -0.405727,-0.52508 0,0 z m 0,0 c -0.995609,0.58432 0.937206,0.71241 0,0 z m 7.96461,-7.23798 c 0.496087,0.23871 1.237891,-0.53308 1.560425,0.23091 0.181016,-1.43044 -1.144941,-1.25435 -1.560425,-0.23091 z m -0.104401,0.5446 c -0.849512,0.95708 0.557803,1.13501 0.38825,0.0969 l -0.298711,-0.32818 z m -0.268621,0.69384 c -1.14357,-0.21983 0.03229,1.44983 0,0 z m -9.853113,8.95422 c 0.269017,1.08477 0.277785,-0.8797 0,0 z m 0.806233,-0.43286 c 0.710407,-0.01 -0.324632,-0.35888 0,0 z m 7.778226,-6.61897 c 0.610833,1.78189 0.55348,-1.23942 0,0 z m 5.120862,-3.60431 c 1.118997,-0.20953 -0.278293,1.6137 -0.171597,0.30593 L 55.418055,199.787 Z m 2.209522,-1.85799 c 0.394712,0.4239 1.936939,0.23893 0.746796,0.82046 -0.543389,0.41528 -2.018383,-1.1373 -0.746796,-0.82046 z m -0.597089,0.99232 c 0.908866,0.92029 -1.475652,0.5283 0,0 z m -1.328259,3.15589 0.537617,0.26098 c -0.132402,0.0647 -1.817576,-0.47466 -0.537617,-0.26098 z m 53.790708,-40.78802 c 0.86453,0.5649 -0.84165,0.009 0,0 z m 8.86024,-7.9019 0.63458,-0.12696 c -0.0473,0.20098 -0.89403,0.47916 -0.63458,0.12696 z m -49.920681,47.0143 c 0.997807,0.4267 -0.295161,0.95038 0,0 z m -2.761619,3.55901 c 1.120886,-0.76568 0.501261,1.90733 -0.01486,0.31332 l -0.06724,-0.23871 z m -8.650472,11.75894 c 1.273649,0.85729 -0.119767,-1.27747 0,0 z m -1.096799,3.24534 c -1.1186,0.90536 1.926396,1.67912 0.604861,0.49969 0.460034,-0.42784 -0.837909,-1.45386 -0.604861,-0.49969 z m -6.31508,5.58913 c 1.098251,0.45915 -1.011755,0.64693 0,0 z m 1.30633,-1.03724 c 0.315381,0.30424 1.283657,0.33125 0.559903,-0.209 0.613482,0.61227 1.38642,0.18293 0.410543,-0.37309 -0.213123,0.10953 -1.24465,0.17263 -0.97044,0.58208 z m -2.186857,3.03669 c 1.277207,0.74345 0.475537,-1.29937 -0.149351,-0.16409 z"
     id="path1058" />
</svg>
