<?xml version="1.0" encoding="UTF-8" standalone="no"?>
<svg
   xmlns:dc="http://purl.org/dc/elements/1.1/"
   xmlns:cc="http://creativecommons.org/ns#"
   xmlns:rdf="http://www.w3.org/1999/02/22-rdf-syntax-ns#"
   xmlns:svg="http://www.w3.org/2000/svg"
   xmlns="http://www.w3.org/2000/svg"
   xmlns:xlink="http://www.w3.org/1999/xlink"
   xmlns:sodipodi="http://sodipodi.sourceforge.net/DTD/sodipodi-0.dtd"
   xmlns:inkscape="http://www.inkscape.org/namespaces/inkscape"
   viewBox="0 0 250 250"
   id="svg2"
   version="1.1"
   inkscape:version="0.92.5 (2060ec1f9f, 2020-04-08)"
   sodipodi:docname="LabelSquarePhaseOffset.svg"
   inkscape:export-filename="/home/simon/Incoming/Stop.png"
   inkscape:export-xdpi="50"
   inkscape:export-ydpi="50"
   width="250"
   height="250">
  <metadata
     id="metadata38">
    <rdf:RDF>
      <cc:Work
         rdf:about="">
        <dc:format>image/svg+xml</dc:format>
        <dc:type
           rdf:resource="http://purl.org/dc/dcmitype/StillImage" />
        <dc:title></dc:title>
      </cc:Work>
    </rdf:RDF>
  </metadata>
  <sodipodi:namedview
     pagecolor="#ffffff"
     bordercolor="#666666"
     borderopacity="1"
     objecttolerance="10"
     gridtolerance="10"
     guidetolerance="10"
     inkscape:pageopacity="0"
     inkscape:pageshadow="2"
     inkscape:window-width="1426"
     inkscape:window-height="998"
     id="namedview36"
     showgrid="false"
     inkscape:zoom="0.43915055"
     inkscape:cx="-97.043189"
     inkscape:cy="-78.57991"
     inkscape:window-x="617"
     inkscape:window-y="587"
     inkscape:window-maximized="0"
     inkscape:current-layer="svg2"
     fit-margin-top="0"
     fit-margin-left="0"
     fit-margin-right="0"
     fit-margin-bottom="0" />
  <defs
     id="defs4">
    <filter
       id="filter5307">
      <feGaussianBlur
         stdDeviation="4.56079"
         id="feGaussianBlur7" />
    </filter>
    <filter
       id="filter6347">
      <feGaussianBlur
         stdDeviation="4.75657"
         id="feGaussianBlur10" />
    </filter>
    <linearGradient
       id="linearGradient2176">
      <stop
         offset="0"
         stop-color="#fff"
         id="stop13" />
      <stop
         offset="1"
         stop-color="#fff"
         stop-opacity="0"
         id="stop15" />
    </linearGradient>
    <linearGradient
       gradientUnits="userSpaceOnUse"
       id="linearGradient6313"
       x1="34.892929"
       x2="229.59978">
      <stop
         offset="0"
         stop-color="#710000"
         id="stop18" />
      <stop
         offset="1"
         stop-color="#00f"
         stop-opacity="0"
         id="stop20" />
    </linearGradient>
    <linearGradient
       gradientTransform="matrix(0.85329,0,0,0.9621,-33.36232,-334.51709)"
       gradientUnits="userSpaceOnUse"
       id="linearGradient5334"
       x1="144.08931"
       x2="142.5817"
       xlink:href="#linearGradient2176"
       y1="320.07269"
       y2="460.21436" />
    <linearGradient
       gradientUnits="userSpaceOnUse"
       id="linearGradient2182"
       x1="87.835258"
       x2="88.822166"
       xlink:href="#linearGradient2176"
       y1="210.72517"
       y2="151.51039" />
    <linearGradient
       y2="125.93738"
       y1="10.67599"
       x2="0"
       id="linearGradient2997"
       gradientUnits="userSpaceOnUse"
       gradientTransform="translate(220.02119,-12.648302)">
      <stop
         id="stop4171"
         stop-opacity=".51724"
         stop-color="#fff"
         offset="0" />
      <stop
         id="stop4173"
         stop-opacity="0"
         stop-color="#fff"
         offset="1" />
    </linearGradient>
    <linearGradient
       y2="149.94038"
       y1="89.098053"
       x2="150.87259"
       x1="59.787651"
       id="linearGradient3000"
       gradientUnits="userSpaceOnUse"
       gradientTransform="translate(220.02119,-12.648302)">
      <stop
         id="stop4176"
         stop-color="#cd0e00"
         offset="0" />
      <stop
         id="stop4178"
         stop-color="#550600"
         offset="1" />
    </linearGradient>
    <linearGradient
       id="linearGradient5190">
      <stop
         id="stop4213"
         stop-color="#fff"
         offset="0" />
      <stop
         id="stop4215"
         stop-color="#f00"
         offset="1" />
    </linearGradient>
    <linearGradient
       y2="611.84717"
       y1="529.36237"
       xlink:href="#linearGradient5190"
       x2="246.42752"
       x1="210.17181"
       id="linearGradient2109"
       gradientUnits="userSpaceOnUse"
       gradientTransform="matrix(0.9,0,0,0.9,-133.2315,-454.473)" />
    <linearGradient
       y2="427.54285"
       y1="262.87494"
       xlink:href="#linearGradient5190"
       x2="272.02597"
       x1="249.48328"
       id="linearGradient2107"
       gradientUnits="userSpaceOnUse"
       gradientTransform="matrix(-0.271467,0.07274001,-0.0746544,-0.278613,229.34025,202.62762)" />
    <linearGradient
       y2="611.84717"
       y1="529.36237"
       xlink:href="#linearGradient5190"
       x2="246.42752"
       x1="210.17181"
       id="linearGradient2109-6"
       gradientUnits="userSpaceOnUse" />
    <linearGradient
       y2="427.54285"
       y1="262.87494"
       xlink:href="#linearGradient5190"
       x2="272.02597"
       x1="249.48328"
       id="linearGradient2107-0"
       gradientUnits="userSpaceOnUse"
       gradientTransform="matrix(-0.30163,0.08082223,-0.08294933,-0.30957,402.8575,730.1118)" />
    <filter
       id="filter6126">
      <feGaussianBlur
         id="feGaussianBlur7-5"
         stdDeviation=".53036" />
    </filter>
    <filter
       id="filter11428">
      <feGaussianBlur
         id="feGaussianBlur10-2"
         stdDeviation="1.24347" />
    </filter>
    <linearGradient
       y2="391.44925"
       y1="300.86383"
       x2="341.99622"
       x1="275.60828"
       id="linearGradient8413"
       gradientUnits="userSpaceOnUse">
      <stop
         style="stop-color:#005500;stop-opacity:1"
         id="stop18-4"
         stop-color="#500"
         offset="0" />
      <stop
         style="stop-color:#00ff00;stop-opacity:1"
         id="stop20-1"
         stop-color="#f00"
         offset="1" />
    </linearGradient>
    <linearGradient
       y2="367.88477"
       y1="287.49377"
       xlink:href="#linearGradient2176"
       x2="315.47369"
       x1="241.40979"
       id="linearGradient8411"
       gradientUnits="userSpaceOnUse" />
    <linearGradient
       y2="337.74042"
       y1="287.91769"
       xlink:href="#linearGradient2176"
       x2="422.97784"
       x1="380.03381"
       id="linearGradient10449"
       gradientUnits="userSpaceOnUse" />
    <radialGradient
       r="53.035709"
       id="radialGradient8415"
       gradientUnits="userSpaceOnUse"
       gradientTransform="matrix(-0.59327,-0.59327,0.71505,-0.71505,243.27022,849.03358)"
       cy="386.57211"
       cx="312.78131">
      <stop
         id="stop25"
         stop-opacity=".40816"
         stop-color="#fff"
         offset="0" />
      <stop
         id="stop27"
         stop-opacity="0"
         stop-color="#fff"
         offset="1" />
    </radialGradient>
    <clipPath
       id="clipPath905"
       clipPathUnits="userSpaceOnUse">
      <path
         style="fill:#000000;stroke-width:0.18480755"
         d="m 103.25028,189.10311 c -1.52449,-0.47576 -2.79025,-1.65731 -3.368752,-3.14469 -0.626502,-1.61073 -0.0886,-4.09638 1.174682,-5.42825 0.62661,-0.6606 2.19186,-1.49719 2.80698,-1.5002 0.22837,-0.001 1.60034,-1.233 3.62252,-3.25281 l 3.25479,-3.25101 -0.26771,-0.76857 c -0.38709,-1.11109 -0.50528,-3.42218 -0.24441,-4.77922 0.12297,-0.64017 0.52461,-1.78766 0.89235,-2.55 0.6257,-1.29711 1.12002,-1.8407 7.70259,-8.4704 3.87152,-3.89924 7.40785,-7.30558 7.86559,-7.57642 1.77132,-1.04819 4.24571,-0.42818 5.24146,1.31331 0.59007,1.032 0.73138,1.94569 0.4689,3.03142 -0.20203,0.83567 -0.64804,1.32572 -7.20231,7.91352 -4.01432,4.03486 -7.07553,7.25776 -7.19514,7.5752 -0.58701,1.55787 1.0076,3.24219 2.52942,2.67171 0.28643,-0.10731 3.68126,-3.33851 7.54373,-7.18024 6.43993,-6.40529 7.09561,-7.00456 7.9013,-7.22152 2.55661,-0.68845 4.96733,1.07546 4.99162,3.65227 0.008,0.63032 -0.11571,1.3274 -0.29979,1.71472 -0.17682,0.37273 -3.45754,3.78979 -7.65268,7.97069 -6.2688,6.24745 -7.51172,7.40223 -8.49618,7.89385 -2.24975,1.12347 -4.74721,1.39835 -7.10852,0.78235 l -1.23899,-0.32308 -3.05189,3.0598 c -2.88042,2.88787 -3.06331,3.11357 -3.25518,4.01736 -0.62696,2.95298 -3.7201,4.75359 -6.61434,3.85037 z m 3.03822,-3.28962 c 1.30586,-1.19675 0.92209,-3.17692 -0.73817,-3.80881 -0.97487,-0.37121 -2.04853,-0.008 -2.66579,0.90445 -1.00309,1.48076 0.0982,3.51131 1.90456,3.51131 0.68852,0 0.95459,-0.1077 1.4994,-0.60695 z m 5.99075,-7.80177 c 2.22455,-2.21065 3.18819,-3.04934 3.50371,-3.04934 0.23945,0 0.97831,0.2173 1.64212,0.48283 1.05732,0.42299 1.40561,0.47337 2.81004,0.40619 2.84177,-0.13596 2.89291,-0.17453 10.93528,-8.23263 4.25403,-4.26243 6.97646,-7.12662 6.97646,-7.33968 0,-0.1921 -0.13749,-0.50151 -0.3059,-0.68738 -0.73951,-0.81714 -0.88765,-0.69799 -8.27984,6.66094 -7.82919,7.79394 -7.72612,7.71542 -9.93325,7.56652 -2.74367,-0.18522 -4.60087,-2.13537 -4.61653,-4.84788 -0.0115,-2.14866 0.0554,-2.23562 7.71241,-9.90557 4.2543,-4.26143 6.92189,-7.0691 6.92189,-7.28533 0,-0.48463 -0.53073,-1.0278 -1.0042,-1.0278 -0.27077,0 -2.63391,2.25021 -7.61782,7.25371 -6.72563,6.75202 -7.25245,7.32765 -7.61797,8.32326 -0.57815,1.57479 -0.54363,3.66468 0.0867,5.23986 0.27994,0.69967 0.43537,1.37254 0.37388,1.61783 -0.058,0.23105 -1.47962,1.78151 -3.15925,3.4457 l -3.05384,3.02577 0.68467,0.70117 c 0.37655,0.38564 0.72705,0.70116 0.77888,0.70116 0.0519,0 1.47508,-1.3722 3.16272,-3.04933 z"
         id="path907"
         inkscape:connector-curvature="0" />
    </clipPath>
    <filter
       id="filter6126-6">
      <feGaussianBlur
         stdDeviation=".53036"
         id="feGaussianBlur7-2" />
    </filter>
    <filter
       id="filter11428-0">
      <feGaussianBlur
         stdDeviation="1.24347"
         id="feGaussianBlur10-4" />
    </filter>
    <linearGradient
       gradientTransform="matrix(0.61943542,0,0,0.61943542,-63.534069,-50.056775)"
       gradientUnits="userSpaceOnUse"
       id="linearGradient8413-0"
       x1="275.60828"
       x2="341.99622"
       y1="300.86383"
       y2="391.44925">
      <stop
         offset="0"
         stop-color="#500"
         id="stop18-3" />
      <stop
         offset="1"
         stop-color="#f00"
         id="stop20-0" />
    </linearGradient>
    <linearGradient
       gradientTransform="matrix(0.73760064,0,0,0.73760064,-99.426756,-90.9552)"
       gradientUnits="userSpaceOnUse"
       id="linearGradient8411-8"
       x1="241.40979"
       x2="315.47369"
       xlink:href="#linearGradient2176"
       y1="287.49377"
       y2="367.88477" />
    <linearGradient
       gradientTransform="matrix(0.76865427,0,0,0.76865427,-193.59951,-77.541409)"
       gradientUnits="userSpaceOnUse"
       id="linearGradient10449-5"
       x1="380.03381"
       x2="422.97784"
       xlink:href="#linearGradient2176"
       y1="287.91769"
       y2="337.74042" />
    <radialGradient
       cx="312.78131"
       cy="386.57211"
       gradientTransform="matrix(-0.3457768,-0.3457768,0.41675409,-0.41675409,89.369885,457.4561)"
       gradientUnits="userSpaceOnUse"
       id="radialGradient8415-4"
       r="53.035709">
      <stop
         style="stop-color:#ff9955;stop-opacity:1"
         offset="0"
         stop-color="#fff"
         stop-opacity=".40816"
         id="stop25-3" />
      <stop
         style="stop-color:#c87137;stop-opacity:1"
         offset="1"
         stop-color="#fff"
         stop-opacity="0"
         id="stop27-7" />
    </radialGradient>
    <clipPath
       id="clipPath905-8"
       clipPathUnits="userSpaceOnUse">
      <path
         style="fill:#000000;stroke-width:0.18480755"
         d="m 103.25028,189.10311 c -1.52449,-0.47576 -2.79025,-1.65731 -3.368752,-3.14469 -0.626502,-1.61073 -0.0886,-4.09638 1.174682,-5.42825 0.62661,-0.6606 2.19186,-1.49719 2.80698,-1.5002 0.22837,-0.001 1.60034,-1.233 3.62252,-3.25281 l 3.25479,-3.25101 -0.26771,-0.76857 c -0.38709,-1.11109 -0.50528,-3.42218 -0.24441,-4.77922 0.12297,-0.64017 0.52461,-1.78766 0.89235,-2.55 0.6257,-1.29711 1.12002,-1.8407 7.70259,-8.4704 3.87152,-3.89924 7.40785,-7.30558 7.86559,-7.57642 1.77132,-1.04819 4.24571,-0.42818 5.24146,1.31331 0.59007,1.032 0.73138,1.94569 0.4689,3.03142 -0.20203,0.83567 -0.64804,1.32572 -7.20231,7.91352 -4.01432,4.03486 -7.07553,7.25776 -7.19514,7.5752 -0.58701,1.55787 1.0076,3.24219 2.52942,2.67171 0.28643,-0.10731 3.68126,-3.33851 7.54373,-7.18024 6.43993,-6.40529 7.09561,-7.00456 7.9013,-7.22152 2.55661,-0.68845 4.96733,1.07546 4.99162,3.65227 0.008,0.63032 -0.11571,1.3274 -0.29979,1.71472 -0.17682,0.37273 -3.45754,3.78979 -7.65268,7.97069 -6.2688,6.24745 -7.51172,7.40223 -8.49618,7.89385 -2.24975,1.12347 -4.74721,1.39835 -7.10852,0.78235 l -1.23899,-0.32308 -3.05189,3.0598 c -2.88042,2.88787 -3.06331,3.11357 -3.25518,4.01736 -0.62696,2.95298 -3.7201,4.75359 -6.61434,3.85037 z m 3.03822,-3.28962 c 1.30586,-1.19675 0.92209,-3.17692 -0.73817,-3.80881 -0.97487,-0.37121 -2.04853,-0.008 -2.66579,0.90445 -1.00309,1.48076 0.0982,3.51131 1.90456,3.51131 0.68852,0 0.95459,-0.1077 1.4994,-0.60695 z m 5.99075,-7.80177 c 2.22455,-2.21065 3.18819,-3.04934 3.50371,-3.04934 0.23945,0 0.97831,0.2173 1.64212,0.48283 1.05732,0.42299 1.40561,0.47337 2.81004,0.40619 2.84177,-0.13596 2.89291,-0.17453 10.93528,-8.23263 4.25403,-4.26243 6.97646,-7.12662 6.97646,-7.33968 0,-0.1921 -0.13749,-0.50151 -0.3059,-0.68738 -0.73951,-0.81714 -0.88765,-0.69799 -8.27984,6.66094 -7.82919,7.79394 -7.72612,7.71542 -9.93325,7.56652 -2.74367,-0.18522 -4.60087,-2.13537 -4.61653,-4.84788 -0.0115,-2.14866 0.0554,-2.23562 7.71241,-9.90557 4.2543,-4.26143 6.92189,-7.0691 6.92189,-7.28533 0,-0.48463 -0.53073,-1.0278 -1.0042,-1.0278 -0.27077,0 -2.63391,2.25021 -7.61782,7.25371 -6.72563,6.75202 -7.25245,7.32765 -7.61797,8.32326 -0.57815,1.57479 -0.54363,3.66468 0.0867,5.23986 0.27994,0.69967 0.43537,1.37254 0.37388,1.61783 -0.058,0.23105 -1.47962,1.78151 -3.15925,3.4457 l -3.05384,3.02577 0.68467,0.70117 c 0.37655,0.38564 0.72705,0.70116 0.77888,0.70116 0.0519,0 1.47508,-1.3722 3.16272,-3.04933 z"
         id="path907-5"
         inkscape:connector-curvature="0" />
    </clipPath>
    <filter
       id="filter6126-7">
      <feGaussianBlur
         stdDeviation=".53036"
         id="feGaussianBlur7-52" />
    </filter>
    <filter
       id="filter11428-7">
      <feGaussianBlur
         stdDeviation="1.24347"
         id="feGaussianBlur10-9" />
    </filter>
    <radialGradient
       cx="312.78131"
       cy="386.57211"
       gradientTransform="matrix(-0.3457768,-0.3457768,0.41675409,-0.41675409,89.369885,457.4561)"
       gradientUnits="userSpaceOnUse"
       id="radialGradient8415-5"
       r="53.035709">
      <stop
         style="stop-color:#ff9955;stop-opacity:1"
         offset="0"
         stop-color="#fff"
         stop-opacity=".40816"
         id="stop25-39" />
      <stop
         style="stop-color:#c87137;stop-opacity:1"
         offset="1"
         stop-color="#fff"
         stop-opacity="0"
         id="stop27-3" />
    </radialGradient>
    <linearGradient
       y2="291.75388"
       y1="34.529037"
       x2="76.748428"
       x1="74.978867"
       id="b"
       gradientTransform="matrix(1.1976421,0,0,0.83497402,-137.57651,92.044731)"
       gradientUnits="userSpaceOnUse">
      <stop
         id="stop904"
         offset="0"
         stop-opacity=".502"
         stop-color="#fff" />
      <stop
         id="stop906"
         offset="1"
         stop-opacity="0"
         stop-color="#666" />
    </linearGradient>
    <linearGradient
       y2="291.75388"
       y1="34.529037"
       x2="76.748428"
       x1="74.978867"
       id="b-4"
       gradientTransform="matrix(0.91403522,0,0,0.82441246,-26.30661,-29.860073)"
       gradientUnits="userSpaceOnUse">
      <stop
         id="stop904-8"
         offset="0"
         stop-opacity=".502"
         stop-color="#fff" />
      <stop
         id="stop906-2"
         offset="1"
         stop-opacity="0"
         stop-color="#666" />
    </linearGradient>
    <marker
       style="overflow:visible"
       id="Arrow2Mstart"
       refX="0"
       refY="0"
       orient="auto"
       inkscape:stockid="Arrow2Mstart">
      <path
         transform="scale(0.6,0.6)"
         d="M 8.7185878,4.0337352 L -2.2072895,0.016013256 L 8.7185884,-4.0017078 C 6.97309,-1.6296469 6.9831476,1.6157441 8.7185878,4.0337352 z"
         style="font-size:12px;fill-rule:evenodd;stroke-width:0.625;stroke-linejoin:round"
         id="path3239" />
    </marker>
    <marker
       style="overflow:visible"
       id="Arrow2Mend"
       refX="0"
       refY="0"
       orient="auto"
       inkscape:stockid="Arrow2Mend">
      <path
         transform="scale(-0.6,-0.6)"
         d="M 8.7185878,4.0337352 L -2.2072895,0.016013256 L 8.7185884,-4.0017078 C 6.97309,-1.6296469 6.9831476,1.6157441 8.7185878,4.0337352 z"
         style="font-size:12px;fill-rule:evenodd;stroke-width:0.625;stroke-linejoin:round"
         id="path3242" />
    </marker>
    <marker
       style="overflow:visible"
       id="Arrow1Mend"
       refX="0"
       refY="0"
       orient="auto"
       inkscape:stockid="Arrow1Mend">
      <path
         transform="matrix(-0.4,0,0,-0.4,-4,0)"
         style="fill-rule:evenodd;stroke:#000000;stroke-width:1pt;marker-start:none"
         d="M 0,0 L 5,-5 L -12.5,0 L 5,5 L 0,0 z"
         id="path3224" />
    </marker>
    <marker
       style="overflow:visible"
       id="Arrow1Lend"
       refX="0"
       refY="0"
       orient="auto"
       inkscape:stockid="Arrow1Lend">
      <path
         transform="matrix(-0.8,0,0,-0.8,-10,0)"
         style="fill-rule:evenodd;stroke:#000000;stroke-width:1pt;marker-start:none"
         d="M 0,0 L 5,-5 L -12.5,0 L 5,5 L 0,0 z"
         id="path3218" />
    </marker>
    <inkscape:perspective
       sodipodi:type="inkscape:persp3d"
       inkscape:vp_x="0 : 526.18109 : 1"
       inkscape:vp_y="0 : 1000 : 0"
       inkscape:vp_z="744.09448 : 526.18109 : 1"
       inkscape:persp3d-origin="372.04724 : 350.78739 : 1"
       id="perspective10" />
  </defs>
  <path
     id="path3210"
     d="m 3.9311304,113.00829 v 5.83579 H 241.83132 v -5.83579 z"
     style="fill:#000000;fill-opacity:1;stroke:none;stroke-width:12.27070332;stroke-miterlimit:4;stroke-dasharray:none;stroke-dashoffset:0;stroke-opacity:1"
     inkscape:connector-curvature="0" />
  <path
     inkscape:connector-curvature="0"
     style="fill:none;fill-opacity:1;stroke:#000000;stroke-width:2;stroke-linecap:square;stroke-miterlimit:4;stroke-dasharray:none;stroke-dashoffset:0;stroke-opacity:1"
     d="M 133.31179,90.978032 V 240.09863"
     id="path9827" />
  <path
     inkscape:connector-curvature="0"
     style="fill:none;fill-opacity:1;stroke:#000000;stroke-width:2;stroke-linecap:square;stroke-miterlimit:4;stroke-dasharray:none;stroke-dashoffset:0;stroke-opacity:1"
     d="M 96.71099,90.978032 V 240.09863"
     id="path9829" />
  <g
     id="g11436"
     transform="matrix(0.33737488,0,0,0.48402103,-0.9713483,-99.4783)"
     style="stroke-width:2.47463706;stroke-miterlimit:4;stroke-dasharray:none">
    <path
       inkscape:connector-curvature="0"
       style="fill:#000000;fill-opacity:1;stroke:none;stroke-width:2.47463706;stroke-linecap:square;stroke-miterlimit:4;stroke-dasharray:none;stroke-dashoffset:0;stroke-opacity:1"
       d="m 208.46875,664.9375 v 3 h 1.5 72 1.5 v -3 h -1.5 -72 z"
       id="path9831" />
    <path
       inkscape:connector-curvature="0"
       d="m 266.28654,659.1724 19.66658,7.2319 -19.66658,7.23189 c 3.1419,-4.26971 3.12379,-10.11141 0,-14.46379 z"
       style="font-size:12px;fill-rule:evenodd;stroke-width:2.47463706;stroke-linejoin:round;stroke-miterlimit:4;stroke-dasharray:none"
       id="path11442" />
  </g>
  <g
     id="g11444"
     transform="matrix(0.33737488,0,0,0.48402103,-0.9713483,-99.4783)"
     style="stroke-width:2.47463706;stroke-miterlimit:4;stroke-dasharray:none">
    <path
       inkscape:connector-curvature="0"
       style="fill:#000000;fill-opacity:1;stroke:none;stroke-width:2.47463706;stroke-linecap:square;stroke-miterlimit:4;stroke-dasharray:none;stroke-dashoffset:0;stroke-opacity:1"
       d="m 403.71875,664.875 v 3 h 1.5 72 1.5 v -3 h -1.5 -72 z"
       id="path10366" />
    <path
       inkscape:connector-curvature="0"
       d="m 420.91002,673.6362 -19.66658,-7.2319 19.66658,-7.23189 c -3.1419,4.26971 -3.12379,10.11141 0,14.46379 z"
       style="font-size:12px;fill-rule:evenodd;stroke-width:2.47463706;stroke-linejoin:round;stroke-miterlimit:4;stroke-dasharray:none"
       id="path11450" />
  </g>
  <text
     xml:space="preserve"
     style="font-style:normal;font-weight:normal;font-size:9.44927311px;line-height:0%;font-family:'Bitstream Vera Sans';fill:#000000;fill-opacity:1;stroke:none;stroke-width:1.94862676;stroke-linecap:butt;stroke-linejoin:miter;stroke-miterlimit:4;stroke-dasharray:none;stroke-opacity:1"
     x="127.59575"
     y="198.06299"
     id="text10372"
     transform="scale(0.83488037,1.1977764)"><tspan
       sodipodi:role="line"
       id="tspan10374"
       x="127.59575"
       y="198.06299"
       style="font-style:italic;font-size:31.49757767px;line-height:1.25;stroke-width:1.94862676;stroke-miterlimit:4;stroke-dasharray:none">θ</tspan></text>
  <path
     id="path11380"
     title="sin(x)"
     d="m 5.4320265,200.35552 c 4.8731915,-4.63983 9.7463855,-12.92999 14.6195775,-23.86429 4.873194,-10.93429 9.746385,-24.49742 14.61958,-39.02835 4.873191,-14.53093 9.746386,-30.00451 14.619577,-44.537317 4.873191,-14.532804 9.746386,-28.088892 14.619577,-39.028353 4.873194,-10.939456 9.746386,-19.224449 14.61958,-23.864289 4.873192,-4.639836 9.746386,-5.604141 14.619577,-2.796524 4.873192,2.807622 9.746385,9.402564 14.619575,18.963073 4.8732,9.560504 9.74639,22.083193 14.61958,36.031445 4.87319,13.948257 9.74639,29.300745 14.61958,44.186125 4.87319,14.88539 9.74639,29.26968 14.61958,41.40976 4.87319,12.14008 9.74638,21.99768 14.61958,28.38916 4.87319,6.39147 9.74638,9.28376 14.61957,8.34546 4.8732,-0.9383 9.74639,-5.72685 14.61958,-13.76279 4.8732,-8.03595 9.74639,-19.3207 14.61958,-32.46631 4.87319,-13.14561 9.74639,-28.13488 14.61958,-43.1381"
     style="fill:none;fill-opacity:1;stroke:#0000ff;stroke-width:8;stroke-linecap:round;stroke-miterlimit:4;stroke-dasharray:none;stroke-dashoffset:0;stroke-opacity:1"
     inkscape:connector-curvature="0" />
  <g
     id="g1049"
     transform="matrix(1,0,0,0.96939604,4.8305082,15.822933)">
    <path
       inkscape:connector-curvature="0"
       style="fill:#000002;fill-opacity:1;stroke:none;stroke-width:17.39212608;stroke-linecap:square;stroke-miterlimit:4;stroke-dasharray:none;stroke-dashoffset:0;stroke-opacity:1"
       d="M 1.5274521,1.9997341 V 3.2097866 239.59356 240.80361 H 6.6300117 V 239.59356 3.2097866 1.9997341 Z"
       id="path10480" />
    <path
       inkscape:connector-curvature="0"
       d="M -3.9396919,15.55035 4.0664357,-15.68529 12.072562,15.55036 C 7.3457486,10.560205 0.87864722,10.588956 -3.9396919,15.55035 Z"
       style="font-size:12px;fill-rule:evenodd;stroke-width:15.75065517;stroke-linejoin:round;stroke-miterlimit:4;stroke-dasharray:none"
       id="path11458" />
  </g>
  <path
     style="fill:none;fill-opacity:1;stroke:#ff0000;stroke-width:8;stroke-linecap:round;stroke-miterlimit:4;stroke-dasharray:none;stroke-dashoffset:0;stroke-opacity:1"
     d="M 5.4320265,115.20445 C 10.305218,100.20122 15.178412,85.215587 20.051604,72.066343 c 4.873194,-13.14924 9.746385,-24.423997 14.61958,-32.466306 4.873191,-8.042315 9.746386,-12.816969 14.619577,-13.76279 4.873191,-0.94582 9.746386,1.960813 14.619577,8.345467 4.873194,6.384648 9.746386,16.253513 14.61958,28.389159 4.873192,12.135647 9.746386,26.525311 14.619577,41.409757 4.873192,14.88444 9.746385,30.2351 14.619575,44.18613 4.8732,13.95103 9.74639,26.46513 14.61958,36.03145 4.87319,9.56632 9.74639,16.14803 14.61958,18.96306 4.87319,2.81502 9.74639,1.83614 14.61958,-2.79653 4.87319,-4.63267 9.74638,-12.93 14.61958,-23.8643 4.87319,-10.9343 9.74638,-24.49742 14.61957,-39.02836 4.8732,-14.53093 9.74639,-30.00451 14.61958,-44.537319 4.8732,-14.532804 9.74639,-28.088887 14.61958,-39.028348 4.87319,-10.939456 9.74639,-19.224444 14.61958,-23.864279"
     title="sin(x)"
     id="path11057"
     inkscape:connector-curvature="0" />
  <path
     id="path8871"
     style="font-size:12px;fill-rule:evenodd;stroke-width:8;stroke-linejoin:round;stroke-miterlimit:4;stroke-dasharray:none"
     d="M 238.94165,110.07621 250,115.9102 l -11.05835,5.83398 c 1.76666,-3.44438 1.75649,-8.15689 0,-11.66797 z"
     inkscape:connector-curvature="0" />
</svg>
