<?xml version="1.0" encoding="UTF-8" standalone="no"?>
<svg viewBox="0 0 273.80127 500.74579" xmlns="http://www.w3.org/2000/svg">
<g opacity=".98">
<g transform="matrix(.5,0,0,.5,-28.39923,-17.59392)">
<path d="m254.28571,365.21933-101.42857,141.42857 61.11316,51.80067 19.60114-31.08638 20.71427-162.14286z" fill="#fff" fill-rule="evenodd" stroke="#000" stroke-linecap="round" stroke-linejoin="round" stroke-width="5"/>
<path d="m108.4375,530.84375c-16.50728.45367-34.42221,15.21738-43.5625,37.59375-9.13445,22.36205-6.69653,45.44855 4.75,57.34375l6.3125-12.15625c-7.32068-9.17919-8.58684-25.33377-2.1875-41 6.73929-16.49848 19.94124-27.4145 32.125-27.875 2.81164-.10627 5.57313.33833 8.1875,1.40625 13.94332,5.69556 18.51326,26.81919 10.21875,47.125-5.09141,12.46426-13.85888,21.72633-23.09375,25.71875l-.96875,12.625c13.03805-4.96819 25.58973-17.8147 32.75-35.34375 11.18238-27.37561 5.01666-55.82145-13.78125-63.5-2.93717-1.19978-6.02014-1.84639-9.15625-1.9375-.52922-.01537-1.06126-.01463-1.59375,0z" fill="#ff0" stroke="#000" stroke-linecap="round" stroke-linejoin="round" stroke-width="5"/>
<path d="m439.28125,654.5-.34375,1.5c.32115.11644.65068.21382.96875.34375 18.79793,7.67857 24.96363,36.12439 13.78125,63.5-8.09377,19.81435-24.84262,35.07727-39.62947,38.30357l49.50447,19.91518c25.24446.37308 48.24214-4.89093 62.15625-32.84375 5.14612-16.81941 6.85229-34.4032-5-55-26.03205.057-40.69604-12.85439-53.5625-27.84375l-27.875-7.875z" fill="#fff" fill-rule="evenodd" stroke="#000" stroke-linecap="round" stroke-linejoin="round" stroke-width="5"/>
<path d="m453.57142,703.07648c.2607,18.5277-4.5203,31.72434-15.5676,42.63259-10.68778,1.15582-28.97223,6.31232-36.63077,6.31232-13.16546-9.53861-20.48927-20.55413-21.37306-48.94491-.9201-29.55711 16.48-53.57143 36.78572-53.57143s36.78571,24 36.78571,53.57143z" fill="#fff" stroke="#000" stroke-linecap="round" stroke-linejoin="round" stroke-width="6.74083" transform="matrix(.68667,.28049,-.28049,.68667,330.74871,106.12712)"/>
<path d="m453.57142,703.07648c0,18.69002-6.58312,35.15446-16.55452,44.74065-11.00994,3.0261-21.36654,5.58526-30.96663,8.01491-11.25314-6.93981-24.6112-24.28735-26.05028-52.75556-1.49295-29.53372 16.48-53.57143 36.78572-53.57143s36.78571,24 36.78571,53.57143z" fill="#ff0" stroke="#000" stroke-linecap="round" stroke-linejoin="round" stroke-width="6.74083" transform="matrix(.68667,.28049,-.28049,.68667,10.03442,-16.73002)"/>
<path d="m396.42857,735.21932-5.71429,14.64286 25.35714,5.35714 4.64287-13.57142-24.28572-6.42858z" fill="#fff" fill-rule="evenodd" stroke="#000" stroke-linecap="round" stroke-linejoin="round" stroke-width="5"/>
<path d="m118.5625,530.9375-.3125,1.5c.31191.11349.6285.21753.9375.34375 18.79791,7.67855 24.96363,36.12439 13.78125,63.5-7.70538,18.86355-21.63913,32.31202-35.71875,36.34375l4.19196.08036 44.27679,19.66964c32.45533.9412 50.36146-11.4633 60-31.4375 7.55768-20.74961 5.05108-39.49712-6.4375-56.4375l-1.125-.59375-.3125.59375c-27.59394.31861-34.23327-17.30602-50-27.125l.3125-.53125-.3125-.1875-29.28125-5.71875z" fill="#ff0" fill-rule="evenodd" stroke="#000" stroke-linecap="round" stroke-linejoin="round" stroke-width="5"/>
<path d="m162.14286,515.21933-14.28572,22.14285c15.76674,9.81898 22.40606,27.46147 50,27.14286l7.85715-13.57143-43.57143-35.71428z" fill="#ff0" fill-rule="evenodd" stroke="#000" stroke-linecap="round" stroke-linejoin="round" stroke-width="5"/>
<path d="m76.42857,614.86218-6.07143,12.14286 30.35715,4.64286 .71428-12.5-25-4.28572z" fill="#ff0" fill-rule="evenodd" stroke="#000" stroke-linecap="round" stroke-linejoin="round" stroke-width="5"/>
<path d="m439.28125,654.5-.34375,1.5c.32115.11644.65068.21382.96875.34375 18.79793,7.67857 24.96363,36.12439 13.78125,63.5-8.09377,19.81435-24.84262,35.07727-39.62947,38.30357l49.50447,19.91518c25.24446.37308 48.24214-4.89093 62.15625-32.84375 5.14612-16.81941 6.85229-34.4032-5-55-26.03205.057-40.69604-12.85439-53.5625-27.84375l-27.875-7.875z" fill="#fff" fill-rule="evenodd" stroke="#000" stroke-linecap="round" stroke-linejoin="round" stroke-width="5"/>
<path d="m439.28125,654.5-.34375,1.5c.32115.11644.65068.21382.96875.34375 18.79793,7.67857 24.96363,36.12439 13.78125,63.5-8.09377,19.81435-24.84262,35.07727-39.62947,38.30357l49.50447,19.91518c25.24446.37308 48.24214-4.89093 62.15625-32.84375 5.14612-16.81941 6.85229-34.4032-5-55-26.03205.057-40.69604-12.85439-53.5625-27.84375l-27.875-7.875z" fill="#fff" fill-rule="evenodd" stroke="#000" stroke-linecap="round" stroke-linejoin="round" stroke-width="5"/>
<path d="m494.26046,841.2403c-35.0772-27.61084-29.85294-64.38227-27.27413-80.8122 2.67318-17.03117 15.23007-48.84051 58.58885-60.60916 40.02973-10.86506 56.15173,25.22905 62.62946,62.62946l-3.03045,225.26402-122.22846,45.45688v-64.64978l29.29442-14.14213 2.02031-113.13709z" fill="#00f" fill-rule="evenodd" stroke="#000" stroke-linecap="round" stroke-linejoin="round" stroke-width="5"/>
<path d="m264.84685,160.05764c13.12461-29.90808 20.10424-60.93343 61.42857-85.71429l45.1943-19.89848c24.2877-16.98037 52.1559-16.74306 80.5497-.41842l34.256,16.03118c22.7573,16.12664 43.5779,25.93574 60,80 13.2245,23.66811 21.286,43.09359 13.2038,55.12255-14.6343,21.78049-28.7567,29.70773-46.0609,37.73459-68.0953,18.99311-136.1905,27.90503-204.28576,20-33.15984-6.71431-72.21638-5.92375-77.14286-48.57143-6.87691-19.71608 10.39815-37.23653 32.85715-54.28571z" fill="#f00" fill-rule="evenodd" stroke="#000" stroke-linecap="round" stroke-linejoin="round" stroke-width="5"/>
<path d="m525.28125,236.28125c-3.09165,1.61872-6.26537,3.12682-9.5625,4.65625-68.09524,18.99311-136.18601,27.90503-204.28125,20-6.45327-1.30668-13.14509-2.32381-19.75-3.4375l-.75,52.40625c9.37816,20.41232 21.26979,39.70249 54.53125,49.5 53.43262,7.17264 106.79769,13.18825 157.59375-19.1875 35.87748-36.83105 17.45611-69.49991 22.21875-103.9375z" fill="#ff0" fill-rule="evenodd" stroke="#000" stroke-linecap="round" stroke-linejoin="round" stroke-width="5"/>
<path d="m482.34375,351.3125c-44.49396,19.61694-90.66161,14.2973-136.875,8.09375-3.01585-.88835-5.85272-1.86806-8.53125-2.90625l.46875,14c50.65514,22.44636 100.16444,26.68347 145.4375-2l-.5-17.1875z" fill="#ff0" fill-rule="evenodd" stroke="#000" stroke-linecap="round" stroke-linejoin="round" stroke-width="5"/>
<path d="m303.65625,332.0625-44.0625,18.25 176.78125,70.71875 125.28125-51.53125-66.59375-24.53125c-4.2277,2.35225-8.45763,4.46507-12.71875,6.34375l.5,17.1875c-45.27306,28.68347-94.78236,24.44636-145.4375,2l-.46875-14c-15.71469-6.09097-25.85392-14.66744-33.28125-24.4375zm163.84375,24.875c-.91869.29474-1.83007.59875-2.75.875 .92168-.27674 1.82956-.57969 2.75-.875z" fill="#fff" fill-rule="evenodd" stroke="#000" stroke-linecap="round" stroke-linejoin="round" stroke-width="5"/>
<path d="m256.57875,349.29601-33.33504,254.55844 244.45692,92.93404-32.32488-278.80211-178.797-68.69037z" fill="#fff" fill-rule="evenodd" stroke="#000" stroke-linecap="round" stroke-linejoin="round" stroke-width="5"/>
<path d="m468.71078,696.78849 128.28937-47.47717-36.36549-279.81226-126.26907,51.51778 34.34519,275.77165z" fill="#fff" fill-rule="evenodd" stroke="#000" stroke-linecap="round" stroke-linejoin="round" stroke-width="5"/>
<path d="m231.32493,607.89506v51.51778l233.34524,85.86297v-48.48732l-233.34524-88.89343z" fill="#00f" fill-rule="evenodd" stroke="#000" stroke-linecap="round" stroke-linejoin="round" stroke-width="5"/>
<path d="m590.9375,652.34375-124.25,45.46875v50.5l4.875-2.03125c6.51424-16.8442 21.64691-37.49223 54.71875-46.46875 16.75056-4.54653 29.2957-.83502 38.71875,7.71875l25.9375-10.75v-44.4375z" fill="#00f" fill-rule="evenodd" stroke="#000" stroke-linecap="round" stroke-linejoin="round" stroke-width="5"/>
<path d="m348.42876,703.1385c-16.738,29.19213-11.53082,70.55123 13.19624,89.6115l-2,113.125-29.3125,14.15625v64.65625l18.43304-7.88839v-52.91965l31.78125-15.19642 1.31696-108.87054c-9.10117-7.73237-34.05482-59.53407-8.88453-87.5912-9.41052-3.25573-13.3297-5.87611-24.53046-9.0828z" fill="#00f" fill-rule="evenodd" stroke="#000" stroke-linecap="round" stroke-linejoin="round" stroke-width="5"/>
<path d="m349.95658,922.96548 .06128,66.26217 114.14723,44.95175v-66.16495l-114.20851-45.04897z" fill="#00f" fill-rule="evenodd" stroke="#000" stroke-linecap="round" stroke-linejoin="round" stroke-width="5"/>
<path d="m350.52293,924.07281 30.80966-15.15229 113.13708,44.95179-30.80965,14.64721-113.13709-44.44671z" fill="#00f" fill-rule="evenodd" stroke="#000" stroke-linecap="round" stroke-linejoin="round" stroke-width="5"/>
<path d="m383.35289,800.8342-2.0203,109.60155 112.12693,43.94164 1.51523-112.12694-111.62186-41.41625z" fill="#00f" fill-rule="evenodd" stroke="#000" stroke-linecap="round" stroke-linejoin="round" stroke-width="5"/>
<path d="m361.42857,795.21933c-28.17924-28.82353-27.88148-60.23589-14.28571-92.85715l-105-37.14285c-14.06018,30.92419-7.76229,59.30362 8.57143,86.42857l110.71428,43.57143z" fill="#00f" fill-rule="evenodd" stroke="#000" stroke-linecap="round" stroke-linejoin="round" stroke-width="5"/>
<path d="m491.42857,842.36219c-28.17924-28.82353-31.45291-60.95018-21.42857-95.00001l-97.85714-34.99999c-14.06018,30.92419-14.19086,49.30362 8.57143,86.42857l110.71428,43.57143z" fill="#00f" fill-rule="evenodd" stroke="#000" stroke-linecap="round" stroke-linejoin="round" stroke-width="5"/>
<path d="m250.71429,753.07647-.71429,107.14286 111.42857,43.57142v-109.28571l-110.71428-41.42857z" fill="#00f" fill-rule="evenodd" stroke="#000" stroke-linecap="round" stroke-linejoin="round" stroke-width="5"/>
<path d="m250,860.93361-32.14286,10.71429 113.57143,47.14285 29.28572-13.57142-110.71429-44.28572z" fill="#00f" fill-rule="evenodd" stroke="#000" stroke-linecap="round" stroke-linejoin="round" stroke-width="5"/>
<path d="m215.71429,870.93361-.71429,65.71429 115,49.28571v-67.14286l-114.28571-47.85714z" fill="#00f" fill-rule="evenodd" stroke="#000" stroke-linecap="round" stroke-linejoin="round" stroke-width="5"/>
<path d="m439.28125,654.5-.34375,1.5c.32115.11644.65068.21382.96875.34375 18.79793,7.67857 24.96363,36.12439 13.78125,63.5-8.09377,19.81435-24.84262,35.07727-39.62947,38.30357l49.50447,19.91518c25.24446.37308 48.24214-4.89093 62.15625-32.84375 5.14612-16.81941 6.85229-34.4032-5-55-26.03205.057-40.69604-12.85439-53.5625-27.84375l-27.875-7.875z" fill="#ff0" fill-rule="evenodd" stroke="#000" stroke-linecap="round" stroke-linejoin="round" stroke-width="5"/>
<path d="m430.28125,654.40625c-.47126-.00577-.93243.01334-1.40625.03125-16.42574.62083-34.19555,15.35106-43.28125,37.59375-9.12632,22.34216-6.70158,45.38439 4.71875,57.28125l5.625-13.78125c-6.68223-9.30635-7.65369-24.88989-1.46875-40.03125 6.9985-17.13302 20.93848-28.27116 33.5-27.90625 2.32621.06758 4.60261.54757 6.78125,1.4375 13.94333,5.69558 18.54451,26.78794 10.25,47.09375-5.33304,13.05583-14.69391,22.59893-24.40625,26.25l-6,14.59375c15.18063-2.70743 30.77532-16.76065 39.09375-37.125 11.18238-27.37561 5.01668-55.82143-13.78125-63.5-3.08403-1.25976-6.32615-1.89708-9.625-1.9375z" fill="#ff0" stroke="#000" stroke-linecap="round" stroke-linejoin="round" stroke-width="5"/>
<path d="m474.28571,643.79075-8.57142,20c9.72177,5.86416 30.95966,30.11945 54.28571,25.71429l10-20c-12.85715-17.14285-31.42857-25.71429-55.71429-25.71429z" fill="#ff0" fill-rule="evenodd" stroke="#000" stroke-linecap="round" stroke-linejoin="round" stroke-width="5"/>
<path d="m445.59401,715.41157c-5.36775,12.82786-14.72486,22.28256-24.4888,26.06645-8.6101-1.00978-16.62673-5.01269-24.07425-6.03657-5.91889-7.91806-10.32863-20.71376-3.1644-40.65633 7.43236-20.68898 26.97259-32.14833 41.24937-26.45544s18.97095,26.78558 10.47808,47.08189z" fill="#ff0" stroke="#000" stroke-linecap="round" stroke-linejoin="round" stroke-width="5"/>
<path d="m544.28571,672.36218 51.42858-112.85714c11.03413-24.21379 5.8792-41.69667-4.28572-61.42857l-24.28571-47.14286c-10.14737-24.20763-33.7063-54.35409-67.14286-40-29.68737,12.74459-33.87171,52.8033-28.57143,81.42857l28.57143,67.14286-37.14286,80c38.60441-5.0938 61.68189,11.55011 81.42857,32.85714z" fill="#fff" fill-rule="evenodd" stroke="#000" stroke-linecap="round" stroke-linejoin="round" stroke-width="5"/>
<path d="m476.09375,637.15625c-4.05928.02832-8.24102.31705-12.53125.90625-3.34742,0 .1355,5.86135 7.65625,12.84375l3.0625-7.125c24.28572,0 42.8616,8.57587 55.71875,25.71875l-4.96875,9.9375c10.83641,3.33986 19.63007,3.62788 20.6875-4.9375-18.36909-24.19888-41.21004-37.54201-69.625-37.34375z" fill="#fff" fill-rule="evenodd" stroke="#000" stroke-linecap="round" stroke-linejoin="round" stroke-width="5"/>
<path d="m358.09906,283.63611a7.57614,10.10153 0 1,1 -15.15229,0 7.57614,10.10153 0 1,1 15.15229,0z" stroke="#000" stroke-linecap="round" stroke-linejoin="round" stroke-width="5"/>
<path d="m304.34375,259.625c-1.71806,1.85234-2.8125,4.67054-2.8125,7.84375 0,5.57604 3.38047,10.09375 7.5625,10.09375s7.59376-4.5177 7.59375-10.09375c0-2.31041-.61373-4.42251-1.59375-6.125-1.22088-.13096-2.43537-.26452-3.65625-.40625-2.33585-.47297-4.71337-.8962-7.09375-1.3125z" stroke="#000" stroke-linecap="round" stroke-linejoin="round" stroke-width="5"/>
<path d="m435.375,43.53125c6.2617,2.02889 12.5891,4.85007 18.9375,8.5l34.25,16.03125c2.24958,1.59414 4.47814,3.13673 6.6875,4.65625-3.82909-14.04858-28.00258-25.52566-59.875-29.1875zm-44.90625.15625c-29.60774,3.61975-52.30755,13.99801-57.8125,26.875l41.125-18.09375c5.40116-3.77614 10.96579-6.69565 16.6875-8.78125z" fill="#f00" stroke="#000" stroke-linecap="round" stroke-linejoin="round" stroke-width="5"/>
<path d="m409.64285,38.32143c-13.55224.02264-26.57492,4.22856-38.71875,12.71875l-43.07589,20.62054c-32.47332,15.92644-57.7158,60.85466-60.68304,83.18304-7.82741,28.96693 21.67358,61.18673 67.47768,69.91518 26.62521,5.5322 81.90291,8.83102 108.125,5.03125 65.84626-9.54158 94.78778-26.82776 105.9375-73.96875-6.39763-25.05232-23.64603-73.63943-63-89.1875l-34.25-16.03125c-14.19691-8.16232-28.26026-12.30389-41.8125-12.28125z" fill="#f00" fill-rule="evenodd" stroke="#000" stroke-linecap="round" stroke-linejoin="round" stroke-width="5"/>
<path d="m562.1116,191.21429c-.48083,3.40396-3.53864,8.78679-5.19587,13.72433-22.07112,17.79454-53.35176,26.75817-95.74163,37.49442-69.60297,17.62863-205.50572,4.91279-229.14788-36.30971 2.26723,46.83644 39.85867,49.13425 76.55413,55.52846 72.54688,10.87279 165.03108,8.39912 216.94643-21.38058 16.97341-8.68255 36.35334-28.12432 36.58482-49.05692z" fill="#f00" fill-rule="evenodd" stroke="#000" stroke-linecap="round" stroke-linejoin="round" stroke-width="5"/>
<path d="m363.57143,53.07647c6.50325,14.7895 27.92404,18.46404 49.28571,20 30.81841-.73559 45.10626-11.20644 45.71429-17.85714-29.81044-22.06087-61.38054-23.88572-95-2.14286z" fill="none" stroke="#000" stroke-width="5"/>
<path d="m374.51189,64.76697c-40.05193,41.89128-64.69352,90.70634-72.36903,149.73807 7.61905,4.41123 15.23809,6.82687 22.85714,7.33328 2.50383-60.79182 22.70085-109.60607 65.19043-151.35706-9.00663-8.52054-11.55634-5.74149-15.67854-5.71429z" fill="#f00" fill-rule="evenodd" stroke="#000" stroke-width="5"/>
<path d="m402.14286,72.36218-.71429,158.57143h19.28572l-1.42858-157.85714c-10.81619-7.38076-12.18566-1.53612-17.14285-.71429z" fill="#f00" fill-rule="evenodd" stroke="#000" stroke-width="5"/>
<path d="m278.57143,444.50504-49.28572,162.14286 167.85715,63.57143c14.23999-14.77081 30.76526-21.16229 50.71428-15l-36.42857-159.28572-132.85714-51.42857z" fill="#00f" fill-rule="evenodd" stroke="#000" stroke-width="5"/>
<path d="m267.85714,354.50504 9.28572,73.57143 22.14285,7.85714-2.85714-72.14286-28.57143-9.28571z" fill="#00f" fill-rule="evenodd" stroke="#000" stroke-width="5"/>
<path d="m396.42857,402.36218-5,69.28571 18.57143,7.14286 15-63.57143-28.57143-12.85714z" fill="#00f" fill-rule="evenodd" stroke="#000" stroke-width="5"/>
<path d="m298.57143,439.86218a11.07143,15.35714 0 1,1 -22.14286,0 11.07143,15.35714 0 1,1 22.14286,0z" fill="#00f" stroke="#000" stroke-linecap="round" stroke-linejoin="round" stroke-width="5"/>
<path d="m298.57143,439.86218a11.07143,15.35714 0 1,1 -22.14286,0 11.07143,15.35714 0 1,1 22.14286,0z" fill="#00f" stroke="#000" stroke-linecap="round" stroke-linejoin="round" stroke-width="5" transform="translate(112.14286,43.57143)"/>
<path d="m302.85714,498.79075-.71428,97.14286 87.14285,32.14286-1.42857-98.57143-85-30.71429z" fill="#00f" fill-rule="evenodd" stroke="#000" stroke-width="5"/>
<path d="m302.85714,498.79075v39.28572l40.71429,41.42857 44.28571-11.42857v-37.14286l-85-32.14286z" fill="#00f" fill-rule="evenodd" stroke="#000" stroke-width="5"/>
<path d="m397.41334,736.35319-6.07143,12.14286 24.14454,5.33315 4.16573-11.80971-22.23884-5.6663z" fill="#ff0" fill-rule="evenodd" stroke="#000" stroke-linecap="round" stroke-linejoin="round" stroke-width="5"/>
<path d="m550.59737,156.05453c8.74602,18.70515 9.60378,17.49375 10.74751,37.79228-5.32952,22.25897-58.87429,40.12872-80.71242,47.15814-26.79844,8.62608-97.95621,13.07205-156.45122,4.93838-48.25616-6.70997-87.11492-22.91669-92.18344-44.19016 11.16682-26.2992 11.91253-27.97823 33.1796-40.81936-1.54944,30.37125 27.09042,58.10749 72.32483,64.54465 31.27946,4.45128 86.36813,8.44373 108.12469,5.01115 67.99253-10.72733 94.75478-29.62921 104.97045-74.43508z" fill="#f00" stroke="#000" stroke-linecap="round" stroke-linejoin="round" stroke-width="5"/>
<path d="m446.42858,65.93361c40.05193,41.89128 63.26495,79.95631 70.94046,138.98804-6.3599,4.20186-11.84893,8.98431-21.91668,10.71428-2.50383-60.79182-23.67706-102.23704-66.16664-143.98803 4.03175-3.5873 8.03237-7.20573 17.14286-5.71429z" fill="#f00" fill-rule="evenodd" stroke="#000" stroke-width="5"/>
<path d="m370.71429,61.6479c-72.07048,29.30984-86.03834,77.98722-96.42858,127.85714-6.13157-9.54064-11.40831-19.32551-8.57142-31.42857 16.76301-58.00139 50.12795-90.30709 97.33328-104.54765l7.66672,8.11907z" fill="#f00" fill-rule="evenodd" stroke="#000" stroke-width="5"/>
<path d="m453.57143,61.6479c70.93032,31.59017 73.82714,71.77848 84.96425,120.15467 5.256-7.42652 8.68426-16.68079 10.03575-28.01181-16.66596-60.70608-40.24198-81.43131-89.66655-100.71429-8.1443,2.85714-5.88474,5.71429-5.33345,8.57143z" fill="#f00" fill-rule="evenodd" stroke="#000" stroke-width="5"/>
<path d="m307.94828,313.50971c10.31719,19.08005 25.94824,20.44724 43.66428,14.86444" fill="none" stroke="#000" stroke-linecap="round" stroke-width="8"/>
</g>
</g>
</svg>
