<?xml version="1.0" encoding="UTF-8" standalone="no"?>
<svg viewBox="0 0 200 210" xmlns="http://www.w3.org/2000/svg" xmlns:xlink="http://www.w3.org/1999/xlink">
<defs>
<filter id="filter4234">
<feGaussianBlur stdDeviation="1.86537"/>
</filter>
<filter id="filter4358">
<feGaussianBlur stdDeviation="2.3403"/>
</filter>
<filter height="1.44891" id="filter3856" width="1.33917" x="-.16959" y="-.22445">
<feGaussianBlur stdDeviation="4.59762"/>
</filter>
<filter height="1.23333" id="filter3910" width="1.20107" x="-.10053" y="-.11667">
<feGaussianBlur stdDeviation="2.74961"/>
</filter>
<filter height="1.14195" id="filter3983" width="1.77593" x="-.38796" y="-.07098">
<feGaussianBlur stdDeviation=".70145"/>
</filter>
<filter height="1.28678" id="filter4324" width="1.14431" x="-.07215" y="-.14339">
<feGaussianBlur stdDeviation="2.27537"/>
</filter>
<linearGradient id="linearGradient4482">
<stop offset="0" stop-color="#fff"/>
<stop offset="1" stop-color="#fff" stop-opacity="0"/>
</linearGradient>
<linearGradient gradientUnits="userSpaceOnUse" id="linearGradient4392" x1="135.51721" x2="150.82463" y1="335.33248" y2="141.83539">
<stop offset="0" stop-color="#d7970b"/>
<stop offset=".31511" stop-color="#b06e00"/>
<stop offset="1" stop-color="#ffd634"/>
</linearGradient>
<linearGradient gradientUnits="userSpaceOnUse" id="linearGradient4444" x1="240.87176" x2="280.51021" y1="374.48781" y2="264.20799">
<stop offset="0" stop-color="#d7970b"/>
<stop offset=".47034" stop-color="#b06e00"/>
<stop offset="1" stop-color="#ffd634"/>
</linearGradient>
<linearGradient gradientUnits="userSpaceOnUse" id="linearGradient4446" x1="383.20038" x2="256.6629" y1="297.18451" y2="228.29456">
<stop offset="0" stop-color="#edd074"/>
<stop offset="1" stop-color="#f0db8c"/>
</linearGradient>
<radialGradient cx="68.95145" cy="55.39803" gradientTransform="matrix(1,0,0,.81746,5.74083,172.76917)" gradientUnits="userSpaceOnUse" id="radialGradient4394" r="43.56734">
<stop offset="0" stop-color="#c17f05"/>
<stop offset="1" stop-color="#c17f05" stop-opacity="0"/>
</radialGradient>
<radialGradient cx="290.78125" cy="235.91917" gradientTransform="matrix(1,0,0,.93126,0,16.43887)" gradientUnits="userSpaceOnUse" id="radialGradient4448" r="45.6875">
<stop offset="0" stop-color="#f9f6d4"/>
<stop offset="1" stop-color="#f9f6d4" stop-opacity="0"/>
</radialGradient>
<radialGradient cx="136.01587" cy="157.82816" gradientTransform="matrix(1,0,0,.86172,2.91582,30.90198)" gradientUnits="userSpaceOnUse" id="radialGradient4396" r="32.82053" xlink:href="#linearGradient4482"/>
<radialGradient cx="124.36958" cy="90.98658" gradientTransform="matrix(1.76207,0,0,1.51265,-94.7779,-38.20432)" gradientUnits="userSpaceOnUse" id="radialGradient4488" r="43.30331" xlink:href="#linearGradient4482"/>
</defs>
<path d="m104.14097,8.71124c-3.00667-.01115-5.9902.11856-8.96875.40625-12.39712,1.19741-25.09605,3.34223-36.375,8.625-10.10884,4.73473-19.69291,11.47041-26.78125,20.09375-6.06896,7.38321-7.18197,17.86106-12.4375,25.84376-2.67274,4.05966-7.61081,6.54858-9.5625,11-1.15968,2.64503-1.76038,5.81628-.96875,8.59375 .77824,2.7305 2.99261,4.96545 5.25,6.6875 2.6138,1.99393 6.98729,1.31976 9.09375,3.84375 1.88411,2.25753.87719,5.88239 1.9375,8.625 .92721,2.39834 2.34312,4.57736 3.8125,6.6875 4.39872,6.31687 9.03647,12.63506 14.84375,17.6875 6.80989,5.92475 14.41374,11.40469 22.9375,14.375 12.1229,4.22452 25.45269,4.77021 38.28125,4.28125 13.62621-.51936 27.808-1.93863 40.1875-7.65625 9.47345-4.37543 17.18827-12.05774 24.40625-19.59375 4.65505-4.86016 10.27226-9.76876 11.96875-16.28125 .64819-2.4883-.18643-5.20681-.96875-7.65625-.59071-1.84951-2.12831-3.31628-2.9375-5.0625 .31914.006.64609-.0175 1.03125-.125 2.26086-.631 3.18859-5.52464 3.75-7.96875s1.81094-3.99115.8125-4.90625-1.9953.72836-3.21875.1875c-.63673-.28148-1.41173-1.26534-2.03125-2.15625 .0838-.66019.13477-1.31185.1875-1.96875 .25647-3.19498 1.49955-6.4015.96875-9.5625-.75622-4.5034-3.54505-8.43866-5.75-12.4375-3.39588-6.15866-6.66789-12.57941-11.46875-17.71876-5.44289-5.82664-12.07346-10.62212-19.125-14.34375-7.44798-3.93085-15.6578-6.58532-23.9375-8.125-4.90329-.91181-9.92638-1.35641-14.9375-1.375z" filter="url(#filter4358)" opacity=".5"/>
<g transform="translate(-8.93209,-118.12165)">
<path d="m186.80856,188.08129-1.69141,15.39182c0,0 1.12196,1.66069 3.38282,1.02969s3.17453-5.52036 3.73594-7.96447 1.8293-3.98998.83086-4.90508-1.99023.71-3.21368.16914-3.04453-3.7211-3.04453-3.7211z" fill="#b69220"/>
<path d="m18.6577,198.69438c-.79163-2.77747-.20288-5.96622.9568-8.61124 1.95169-4.45143 6.89531-6.9436 9.56805-11.00326 5.25553-7.9827 6.3695-18.45052 12.43846-25.83373 7.08834-8.62334 16.68169-15.35818 26.79054-20.09291 11.27894-5.28277 23.96147-7.41383 36.35859-8.61124 7.94279-.76718 16.07486-.50209 23.92012.9568 8.2797,1.53968 16.47215,4.20199 23.92013,8.13284 7.05154,3.72163 13.69321,8.52544 19.1361,14.35208 4.80086,5.13934 8.08577,11.54223 11.48165,17.70089 2.20495,3.99884 4.98461,7.93506 5.74083,12.43846 .5308,3.161-.70033,6.37307-.9568,9.56805-.42184,5.25518-2.09037,10.6385-.95681,15.78728 .50625,2.29944 2.63247,3.97635 3.34882,6.21924 .78232,2.44944 1.605,5.16614.95681,7.65444-1.69649,6.51249-7.30502,11.40552-11.96007,16.26568-7.21798,7.53601-14.92507,15.23907-24.39852,19.6145-12.3795,5.71762-26.5596,7.13508-40.18581,7.65444-12.82856.48896-26.1493-.0811-38.2722-4.30562-8.52377-2.97031-16.15342-8.42733-22.96332-14.35208-5.80727-5.05244-10.43176-11.38402-14.83048-17.70089-1.46938-2.11014-2.90001-4.29929-3.82722-6.69763-1.06031-2.74261-.02953-6.35372-1.91361-8.61125-2.10646-2.52399-6.47585-1.83329-9.08965-3.82722-2.25739-1.72205-4.48419-3.96713-5.26243-6.69763z" fill="url(#linearGradient4392)"/>
<path d="m82.86904,195.25961c-7.65996-2.72813-16.22809-1.57736-24.35628-1.35313-4.08281.11263-9.04113-1.26243-12.17814,1.35313-3.61678,3.01558-4.53532,8.84636-4.05938,13.53126 .67308,6.62546 4.98946,12.66545 9.47189,17.59065 6.56762,7.21636 14.60959,16.69748 24.35628,16.23751 9.28814-.43833 14.74501-11.36309 21.65002-17.59064 3.31576-2.99045 9.47189-5.0068 9.47189-9.47189s-6.0773-6.57123-9.47189-9.47188c-4.66402-3.98537-9.10515-8.76671-14.88439-10.82501z" fill="url(#radialGradient4394)" filter="url(#filter3856)"/>
<path d="m158.52537,152.63612c-7.34968-4.21855-14.83917-8.55271-23.00315-10.82501-6.33424-1.76303-13.7013-4.89251-19.62034-2.02969-5.29415,2.56058-8.43166,9.09625-9.47188,14.88439-1.14229,6.35611.91777,13.3015 4.05938,18.94377 3.95717,7.10699 10.3589,13.18978 17.59064,16.91408 6.52766,3.3617 14.53311,5.86514 21.65003,4.05938 4.50644-1.14341 7.3725-5.68155 10.82501-8.79532 3.5526-3.20405 8.51103-5.65337 10.14845-10.14845 1.78204-4.8921 1.26828-11.06246-1.35313-15.56096-2.20466-3.78333-7.0273-5.26239-10.82501-7.44219z" fill="url(#radialGradient4396)" filter="url(#filter3910)"/>
<path d="m29.20958,180.71934c0,0-1.15903,2.47222-2.8125,4.125-2.545,2.54393-5.75466,5.05737-5.625,7 .14947,2.23946.0064,6.34865.8125,8.9375s7.5625,5.65625 7.5625,5.65625l2.9375,1.65625c0,0-.76564-6.03443-1.5625-8.59375s-1.61352-5.67395-1.75-7.71875c-.11667-1.74798.238-4.47576.625-6.75s.78125-4.09375.78125-4.09375z" fill="#b87905" filter="url(#filter3983)" opacity=".8796"/>
</g>
<g transform="translate(-157.56817,-111.20757)">
<path d="m346.31341,276.45721c0,0-6.08077,9.60824-9.81017,13.86954-4.46417,5.10086-9.19414,10.17931-14.89923,13.83986-5.23374,3.35811-11.13838,5.92141-17.23752,7.1336-8.73719,1.73649-18.01353,1.86476-26.72425,0-9.42662-2.01802-18.68343-6.04292-26.38597-11.83985-6.13711-4.61879-11.03993-10.94103-14.88439-17.59065-3.65982-6.33025-6.34944-13.40523-7.4422-20.63518-1.09652-7.25484.25499-14.69052 1.01485-21.9883 .50875-4.88612.93703-9.8466 2.36797-14.54611 1.73428-5.69575 3.75753-11.56072 7.4422-16.23752 1.24246-1.577 4.73594-3.7211 4.73594-3.7211z" fill="url(#linearGradient4444)"/>
<path d="m251.1613,197.64878c-4.64749,3.19189-9.37157,6.95136-11.96007,11.96006-3.49054,6.75413-4.81719,14.94688-3.82722,22.48492 1.0964,8.34844 5.9407,15.90046 10.52486,22.96332 5.78242,8.90902 12.45545,17.67947 21.0497,23.92013 8.14976,5.91788 17.96603,9.55884 27.74735,11.96006 10.40508,2.55435 21.96959,6.01362 32.05296,2.39201 9.97783-3.58371 18.47276-12.40261 22.96332-22.00652 2.97886-6.37084 2.65561-14.12355 1.43521-21.04971-2.1185-12.02316-7.21842-23.94348-14.83048-33.48817-8.80949-11.04615-20.82909-20.1562-33.96657-25.35533-9.25166-3.66133-19.82724-4.86421-29.66096-3.34882-7.76125,1.19602-15.05489,5.12226-21.5281,9.56805z" fill="#d7a916"/>
<path d="m-74.8125,10.28125c-2.47814.04243-4.91681.251-7.34375.625-7.57489,1.1673-14.76486,5.02644-21.1875,9.4375-4.61406,3.16893-9.23821,6.8877-11.71875,11.6875-3.40679,6.59207-4.71826,14.62724-3.75,22 1.0647,8.1071 5.85492,15.56458 10.4375,22.625 5.76005,8.87455 12.34787,17.54097 20.8125,23.6875 8.02854,5.82985 17.74961,9.45779 27.46875,11.84375 10.4349,2.56167 21.84837,5.93772 31.59375,2.4375 9.71863-3.49061 18.12534-12.20213 22.53125-21.625 2.86376-6.1247 2.58183-13.71332 1.375-20.5625-2.09591-11.89501-7.16964-23.69842-14.6875-33.125-8.7214-10.93569-20.62984-19.95094-33.625-25.09375-6.83565-2.7052-14.45697-4.06503-21.90625-3.9375z" fill="#f9f6d4" transform="translate(354.31291,178.28915)"/>
<path d="m247.62156,220.06541-1.01484-6.08907 5.75079-7.4422 6.08907-5.75078 5.07422,5.07422-1.69141-6.76563 4.39766-2.70626 8.11876-1.35312 5.41251-.67657 5.07422.33829 2.36797,6.76563 2.70626-6.76563 9.47188,2.36797 8.71254,2.97854 6.69763,4.06642 5.50163,4.54482-.4784,3.58802-2.15281,2.15281 5.74083-.2392h3.58801l2.87042,3.58802 3.82722,5.02322 4.78402,8.13285 3.34882,8.37204 .2392,3.34882-5.98003.7176-4.30562-.2392 8.13284,3.10961 2.15281,1.91361 1.43521,2.63122 1.19601,5.98003-.71761,5.74083-2.15281,6.69763-3.82722,3.82722-3.34882,1.91361-3.82722-1.67441-1.196-1.4352 1.196,5.02322-2.39201,2.63123-5.74083,3.82721-5.02322,1.91361h-6.93684l-7.89364-.4784-2.87041-1.67441v-5.26243l-1.91361,5.26243-6.21924-.7176-5.02322-.9568-4.78403-2.63122-5.26243-2.15282-6.69763-4.30562-5.02323-5.74083-2.15281-3.82722 1.19601-3.34882 1.91361-1.67441-3.82722,1.67441-3.82722-.2392-5.50163-6.69763-3.10961-4.30563-2.15282-6.21923-2.15281-5.50163v-5.26242l1.19601-6.69764h2.87041l2.15281-.7176-4.30562-1.19601z" fill="url(#linearGradient4446)"/>
<path d="m286.8125,196.59375-.96875.1875 6.15625,35.28125-.21875-.0312-.53125.4375-28.15625-28.53125-.71875.71875 28.09375,28.46875-.65625.5625c-7.36172-2.20935-.88005-1.53531-40.5-10.53125l-.21875,1c34.28347,7.78426 33.91734,8.26415 37.96875,9.6875l-.53125.0312 1.5,2.53125 1.875.53125-.34375,1.5 .15625.125-27.5,20.96875 .59375.78125 27.71875-21.125 .5625.4375 1.34375,1.53125 .28125-.0312 6.75,40.5625 .96875-.15625-6.75-40.59375 1.625-.28125 .0937-.0625 36.25,34.90625 .6875-.71875-36.0625-34.71875 .71875-.4375 .6875-1.6875 1.5-.0625 41.09375,7.375 .1875-.96875-41.875-7.53125-1.0625-.5-1.875-1.875 .375-1.15625 26.96875-21.0625-.625-.78125-26.71875,20.875-.6875-.90625-1.6875,1-.1875-.0312-6.28125-35.71875z" fill="url(#radialGradient4448)"/>
<path d="m346.31341,276.45721c0,0-6.08077,9.60824-9.81017,13.86954-4.46417,5.10086-9.19414,10.17931-14.89923,13.83986-5.23374,3.35811-11.13838,5.92141-17.23752,7.1336-8.73719,1.73649-18.01353,1.86476-26.72425,0-9.42662-2.01802-18.68343-6.04292-26.38597-11.83985-6.13711-4.61879-11.03993-10.94103-14.88439-17.59065-3.65982-6.33025-6.34944-13.40523-7.4422-20.63518-1.09652-7.25484.25499-14.69052 1.01485-21.9883 .50875-4.88612.93703-9.8466 2.36797-14.54611 1.73428-5.69575 3.75753-11.56072 7.4422-16.23752 1.24246-1.577 4.73594-3.7211 4.73594-3.7211z" fill="url(#linearGradient4444)"/>
<path d="m251.1613,197.64878c-4.64749,3.19189-9.37157,6.95136-11.96007,11.96006-3.49054,6.75413-4.81719,14.94688-3.82722,22.48492 1.0964,8.34844 5.9407,15.90046 10.52486,22.96332 5.78242,8.90902 12.45545,17.67947 21.0497,23.92013 8.14976,5.91788 17.96603,9.55884 27.74735,11.96006 10.40508,2.55435 21.96959,6.01362 32.05296,2.39201 9.97783-3.58371 18.47276-12.40261 22.96332-22.00652 2.97886-6.37084 2.65561-14.12355 1.43521-21.04971-2.1185-12.02316-7.21842-23.94348-14.83048-33.48817-8.80949-11.04615-20.82909-20.1562-33.96657-25.35533-9.25166-3.66133-19.82724-4.86421-29.66096-3.34882-7.76125,1.19602-15.05489,5.12226-21.5281,9.56805z" fill="#d7a916"/>
<path d="m-74.8125,10.28125c-2.47814.04243-4.91681.251-7.34375.625-7.57489,1.1673-14.76486,5.02644-21.1875,9.4375-4.61406,3.16893-9.23821,6.8877-11.71875,11.6875-3.40679,6.59207-4.71826,14.62724-3.75,22 1.0647,8.1071 5.85492,15.56458 10.4375,22.625 5.76005,8.87455 12.34787,17.54097 20.8125,23.6875 8.02854,5.82985 17.74961,9.45779 27.46875,11.84375 10.4349,2.56167 21.84837,5.93772 31.59375,2.4375 9.71863-3.49061 18.12534-12.20213 22.53125-21.625 2.86376-6.1247 2.58183-13.71332 1.375-20.5625-2.09591-11.89501-7.16964-23.69842-14.6875-33.125-8.7214-10.93569-20.62984-19.95094-33.625-25.09375-6.83565-2.7052-14.45697-4.06503-21.90625-3.9375z" fill="#f9f6d4" transform="translate(354.31291,178.28915)"/>
<path d="m247.62156,220.06541-1.01484-6.08907 5.75079-7.4422 6.08907-5.75078 5.07422,5.07422-1.69141-6.76563 4.39766-2.70626 8.11876-1.35312 5.41251-.67657 5.07422.33829 2.36797,6.76563 2.70626-6.76563 9.47188,2.36797 8.71254,2.97854 6.69763,4.06642 5.50163,4.54482-.4784,3.58802-2.15281,2.15281 5.74083-.2392h3.58801l2.87042,3.58802 3.82722,5.02322 4.78402,8.13285 3.34882,8.37204 .2392,3.34882-5.98003.7176-4.30562-.2392 8.13284,3.10961 2.15281,1.91361 1.43521,2.63122 1.19601,5.98003-.71761,5.74083-2.15281,6.69763-3.82722,3.82722-3.34882,1.91361-3.82722-1.67441-1.196-1.4352 1.196,5.02322-2.39201,2.63123-5.74083,3.82721-5.02322,1.91361h-6.93684l-7.89364-.4784-2.87041-1.67441v-5.26243l-1.91361,5.26243-6.21924-.7176-5.02322-.9568-4.78403-2.63122-5.26243-2.15282-6.69763-4.30562-5.02323-5.74083-2.15281-3.82722 1.19601-3.34882 1.91361-1.67441-3.82722,1.67441-3.82722-.2392-5.50163-6.69763-3.10961-4.30563-2.15282-6.21923-2.15281-5.50163v-5.26242l1.19601-6.69764h2.87041l2.15281-.7176-4.30562-1.19601z" fill="url(#linearGradient4446)"/>
<path d="m286.8125,196.59375-.96875.1875 6.15625,35.28125-.21875-.0312-.53125.4375-28.15625-28.53125-.71875.71875 28.09375,28.46875-.65625.5625c-7.36172-2.20935-.88005-1.53531-40.5-10.53125l-.21875,1c34.28347,7.78426 33.91734,8.26415 37.96875,9.6875l-.53125.0312 1.5,2.53125 1.875.53125-.34375,1.5 .15625.125-27.5,20.96875 .59375.78125 27.71875-21.125 .5625.4375 1.34375,1.53125 .28125-.0312 6.75,40.5625 .96875-.15625-6.75-40.59375 1.625-.28125 .0937-.0625 36.25,34.90625 .6875-.71875-36.0625-34.71875 .71875-.4375 .6875-1.6875 1.5-.0625 41.09375,7.375 .1875-.96875-41.875-7.53125-1.0625-.5-1.875-1.875 .375-1.15625 26.96875-21.0625-.625-.78125-26.71875,20.875-.6875-.90625-1.6875,1-.1875-.0312-6.28125-35.71875z" fill="url(#radialGradient4448)"/>
<path d="m278.16717,188.44218c-2.51888.0431-5.01032.24615-7.46875.625-7.76125,1.19602-15.05804,5.14796-21.53125,9.59375-4.20368,2.88709-8.46426,6.24228-11.15625,10.5625-.0768.0855-.18479.16723-.25.25-3.68467,4.6768-5.70322,10.523-7.4375,16.21875-1.43094,4.69951-1.86625,9.67638-2.375,14.5625-.75986,7.29778-2.12777,14.71391-1.03125,21.96875 1.09276,7.22995 3.80893,14.326 7.46875,20.65625 3.84446,6.64962 8.73789,12.97496 14.875,17.59375 7.70254,5.79693 16.94838,9.79448 26.375,11.8125 8.71072,1.86476 17.98156,1.73649 26.71875,0 6.09914-1.21219 12.01626-3.76689 17.25-7.125 5.70509-3.66055 10.44208-8.74289 14.90625-13.84375 1.76176-2.01302 4.0152-5.20836 5.9375-8.03125 2.96049-3.33371 5.43331-7.08342 7.25-10.96875 2.97886-6.37084 2.6579-14.10509 1.4375-21.03125-2.1185-12.02316-7.20044-23.95531-14.8125-33.5-8.80949-11.04615-20.83127-20.14462-33.96875-25.34375-6.93875-2.746-14.63085-4.12937-22.1875-4z" filter="url(#filter4234)" opacity=".5"/>
<path d="m346.31341,276.45721c0,0-6.08077,9.60824-9.81017,13.86954-4.46417,5.10086-9.19414,10.17931-14.89923,13.83986-5.23374,3.35811-11.13838,5.92141-17.23752,7.1336-8.73719,1.73649-18.01353,1.86476-26.72425,0-9.42662-2.01802-18.68343-6.04292-26.38597-11.83985-6.13711-4.61879-11.03993-10.94103-14.88439-17.59065-3.65982-6.33025-6.34944-13.40523-7.4422-20.63518-1.09652-7.25484.25499-14.69052 1.01485-21.9883 .50875-4.88612.93703-9.8466 2.36797-14.54611 1.73428-5.69575 3.75753-11.56072 7.4422-16.23752 1.24246-1.577 4.73594-3.7211 4.73594-3.7211z" fill="url(#linearGradient4444)"/>
<path d="m251.1613,197.64878c-4.64749,3.19189-9.37157,6.95136-11.96007,11.96006-3.49054,6.75413-4.81719,14.94688-3.82722,22.48492 1.0964,8.34844 5.9407,15.90046 10.52486,22.96332 5.78242,8.90902 12.45545,17.67947 21.0497,23.92013 8.14976,5.91788 17.96603,9.55884 27.74735,11.96006 10.40508,2.55435 21.96959,6.01362 32.05296,2.39201 9.97783-3.58371 18.47276-12.40261 22.96332-22.00652 2.97886-6.37084 2.65561-14.12355 1.43521-21.04971-2.1185-12.02316-7.21842-23.94348-14.83048-33.48817-8.80949-11.04615-20.82909-20.1562-33.96657-25.35533-9.25166-3.66133-19.82724-4.86421-29.66096-3.34882-7.76125,1.19602-15.05489,5.12226-21.5281,9.56805z" fill="#d7a916"/>
<path d="m-74.8125,10.28125c-2.47814.04243-4.91681.251-7.34375.625-7.57489,1.1673-14.76486,5.02644-21.1875,9.4375-4.61406,3.16893-9.23821,6.8877-11.71875,11.6875-3.40679,6.59207-4.71826,14.62724-3.75,22 1.0647,8.1071 5.85492,15.56458 10.4375,22.625 5.76005,8.87455 12.34787,17.54097 20.8125,23.6875 8.02854,5.82985 17.74961,9.45779 27.46875,11.84375 10.4349,2.56167 21.84837,5.93772 31.59375,2.4375 9.71863-3.49061 18.12534-12.20213 22.53125-21.625 2.86376-6.1247 2.58183-13.71332 1.375-20.5625-2.09591-11.89501-7.16964-23.69842-14.6875-33.125-8.7214-10.93569-20.62984-19.95094-33.625-25.09375-6.83565-2.7052-14.45697-4.06503-21.90625-3.9375z" fill="#f9f6d4" transform="translate(354.31291,178.28915)"/>
<path d="m247.62156,220.06541-1.01484-6.08907 5.75079-7.4422 6.08907-5.75078 5.07422,5.07422-1.69141-6.76563 4.39766-2.70626 8.11876-1.35312 5.41251-.67657 5.07422.33829 2.36797,6.76563 2.70626-6.76563 9.47188,2.36797 8.71254,2.97854 6.69763,4.06642 5.50163,4.54482-.4784,3.58802-2.15281,2.15281 5.74083-.2392h3.58801l2.87042,3.58802 3.82722,5.02322 4.78402,8.13285 3.34882,8.37204 .2392,3.34882-5.98003.7176-4.30562-.2392 8.13284,3.10961 2.15281,1.91361 1.43521,2.63122 1.19601,5.98003-.71761,5.74083-2.15281,6.69763-3.82722,3.82722-3.34882,1.91361-3.82722-1.67441-1.196-1.4352 1.196,5.02322-2.39201,2.63123-5.74083,3.82721-5.02322,1.91361h-6.93684l-7.89364-.4784-2.87041-1.67441v-5.26243l-1.91361,5.26243-6.21924-.7176-5.02322-.9568-4.78403-2.63122-5.26243-2.15282-6.69763-4.30562-5.02323-5.74083-2.15281-3.82722 1.19601-3.34882 1.91361-1.67441-3.82722,1.67441-3.82722-.2392-5.50163-6.69763-3.10961-4.30563-2.15282-6.21923-2.15281-5.50163v-5.26242l1.19601-6.69764h2.87041l2.15281-.7176-4.30562-1.19601z" fill="url(#linearGradient4446)"/>
<path d="m286.8125,196.59375-.96875.1875 6.15625,35.28125-.21875-.0312-.53125.4375-28.15625-28.53125-.71875.71875 28.09375,28.46875-.65625.5625c-7.36172-2.20935-.88005-1.53531-40.5-10.53125l-.21875,1c34.28347,7.78426 33.91734,8.26415 37.96875,9.6875l-.53125.0312 1.5,2.53125 1.875.53125-.34375,1.5 .15625.125-27.5,20.96875 .59375.78125 27.71875-21.125 .5625.4375 1.34375,1.53125 .28125-.0312 6.75,40.5625 .96875-.15625-6.75-40.59375 1.625-.28125 .0937-.0625 36.25,34.90625 .6875-.71875-36.0625-34.71875 .71875-.4375 .6875-1.6875 1.5-.0625 41.09375,7.375 .1875-.96875-41.875-7.53125-1.0625-.5-1.875-1.875 .375-1.15625 26.96875-21.0625-.625-.78125-26.71875,20.875-.6875-.90625-1.6875,1-.1875-.0312-6.28125-35.71875z" fill="url(#radialGradient4448)"/>
</g>
<path d="m169.34233,122.52431c-5.52513,4.55965-12.22742-7.65684-18.94377-10.14845-6.82284-2.53112-14.06975-5.45094-21.31174-4.73594-4.17011.41172-7.96471,2.82702-11.50158,5.07422-3.9126,2.48592-7.06309,6.0084-10.48673,9.13361-2.65063,2.41958-4.44286,8.76151-7.78047,7.44219-7.66663-3.03053-4.59163-17.11343-1.35313-24.69455 2.04197-4.78013 7.16141-7.8832 11.83986-10.14845 4.75704-2.30331 10.27719-2.91567 15.56095-3.04454 6.26523-.15281 12.67458.68123 18.60549,2.70625 4.77826,1.63146 9.32905,4.19204 13.19298,7.4422 3.67933,3.09488 6.8568,6.92868 9.13361,11.16329 1.62142,3.01566 5.68531,7.63085 3.04453,9.81017z" fill="url(#radialGradient4488)" filter="url(#filter4324)" opacity=".52849"/>
</svg>
