<?xml version="1.0" encoding="UTF-8" standalone="no"?>
<svg
   xmlns:dc="http://purl.org/dc/elements/1.1/"
   xmlns:cc="http://creativecommons.org/ns#"
   xmlns:rdf="http://www.w3.org/1999/02/22-rdf-syntax-ns#"
   xmlns:svg="http://www.w3.org/2000/svg"
   xmlns="http://www.w3.org/2000/svg"
   xmlns:xlink="http://www.w3.org/1999/xlink"
   xmlns:sodipodi="http://sodipodi.sourceforge.net/DTD/sodipodi-0.dtd"
   xmlns:inkscape="http://www.inkscape.org/namespaces/inkscape"
   viewBox="0 0 225.36565 156.33652"
   id="svg2"
   version="1.1"
   inkscape:version="0.91 r13725"
   sodipodi:docname="Letter.svg"
   width="225.36565"
   height="156.33652"
   inkscape:export-filename="/home/simon/Incoming/Letter.png"
   inkscape:export-xdpi="102.23"
   inkscape:export-ydpi="102.23">
  <metadata
     id="metadata29">
    <rdf:RDF>
      <cc:Work
         rdf:about="">
        <dc:format>image/svg+xml</dc:format>
        <dc:type
           rdf:resource="http://purl.org/dc/dcmitype/StillImage" />
        <dc:title></dc:title>
      </cc:Work>
    </rdf:RDF>
  </metadata>
  <sodipodi:namedview
     pagecolor="#ffffff"
     bordercolor="#666666"
     borderopacity="1"
     objecttolerance="10"
     gridtolerance="10"
     guidetolerance="10"
     inkscape:pageopacity="0"
     inkscape:pageshadow="2"
     inkscape:window-width="640"
     inkscape:window-height="480"
     id="namedview27"
     showgrid="false"
     fit-margin-top="0"
     fit-margin-left="0"
     fit-margin-right="0"
     fit-margin-bottom="0"
     inkscape:zoom="2.2854286"
     inkscape:cx="147.76554"
     inkscape:cy="71.793517"
     inkscape:current-layer="svg2" />
  <defs
     id="defs4">
    <linearGradient
       gradientTransform="matrix(-0.57274,0,0,0.57274,330.43609,224.68137)"
       gradientUnits="userSpaceOnUse"
       id="linearGradient3966"
       x1="290.79297"
       x2="279.31491"
       y1="-341.99673"
       y2="9.2272596">
      <stop
         offset="0"
         stop-color="#8e8e8e"
         id="stop7" />
      <stop
         offset=".5"
         stop-color="#fff"
         id="stop9" />
      <stop
         offset="1"
         stop-color="#666"
         id="stop11" />
    </linearGradient>
    <linearGradient
       inkscape:collect="always"
       xlink:href="#linearGradient3966"
       id="linearGradient4157"
       gradientUnits="userSpaceOnUse"
       gradientTransform="matrix(-0.57274,0,0,0.57274,330.43609,224.68137)"
       x1="290.79297"
       y1="-341.99673"
       x2="279.31491"
       y2="9.2272596" />
    <linearGradient
       inkscape:collect="always"
       xlink:href="#linearGradient3966"
       id="linearGradient4159"
       gradientUnits="userSpaceOnUse"
       gradientTransform="matrix(-0.57274,0,0,0.57274,330.43609,224.68137)"
       x1="290.79297"
       y1="-341.99673"
       x2="279.31491"
       y2="9.2272596" />
    <linearGradient
       inkscape:collect="always"
       xlink:href="#linearGradient3966"
       id="linearGradient4161"
       gradientUnits="userSpaceOnUse"
       gradientTransform="matrix(-0.57274,0,0,0.57274,330.43609,224.68137)"
       x1="290.79297"
       y1="-341.99673"
       x2="279.31491"
       y2="9.2272596" />
    <linearGradient
       inkscape:collect="always"
       xlink:href="#linearGradient3966"
       id="linearGradient4163"
       gradientUnits="userSpaceOnUse"
       gradientTransform="matrix(-0.57274,0,0,0.57274,330.43609,224.68137)"
       x1="290.79297"
       y1="-341.99673"
       x2="279.31491"
       y2="9.2272596" />
    <linearGradient
       inkscape:collect="always"
       xlink:href="#linearGradient3966"
       id="linearGradient4165"
       gradientUnits="userSpaceOnUse"
       gradientTransform="matrix(-0.57274,0,0,0.57274,330.43609,224.68137)"
       x1="290.79297"
       y1="-341.99673"
       x2="279.31491"
       y2="9.2272596" />
  </defs>
  <g
     transform="matrix(1.05388,0,0,1.05388,-52.998498,-83.115542)"
     id="g13">
    <path
       d="m 254.16393,78.86623 c 5.44978,0 9.96875,4.1905 9.96875,9.46875 l 0,129.40625 c 0,5.27826 -4.51897,9.46875 -9.96875,9.46875 l -193.90625,0 c -5.44978,0 -9.96875,-4.19049 -9.96875,-9.46875 l 0,-129.40625 c 0,-5.27826 4.51897,-9.46875 9.96875,-9.46875 l 193.90625,0 z"
       id="path15"
       inkscape:connector-curvature="0" />
    <path
       d="m 251.15405,85.335 c -8.2653,8.0764 -64.00613,58.49787 -67.00425,61.88175 -3.15124,3.55623 -3.14536,3.58398 -3.14536,7.1402 0,3.55622 -0.009,3.58344 3.14536,7.14021 2.81105,3.17185 51.14347,46.89999 64.24018,59.23725 l 9.43584,0 c 2.57172,0 4.67033,-2.67069 4.67033,-5.95017 l 0,-123.63131 c 0,-3.27944 -2.09861,-5.81793 -4.67033,-5.81793 l -6.67177,0 z"
       id="path17"
       inkscape:connector-curvature="0"
       style="fill:url(#linearGradient4157);stroke:#000000;stroke-width:3.27304006;stroke-linecap:round;stroke-linejoin:round" />
    <path
       d="m 63.82175,85.335 c 8.26526,8.0764 64.0061,58.49787 67.00426,61.88175 3.15119,3.55623 3.14531,3.58398 3.14531,7.1402 0,3.55622 0.009,3.58344 -3.14531,7.14021 -2.8111,3.17185 -51.14351,46.89999 -64.24022,59.23725 l -9.43585,0 c -2.57172,0 -4.67033,-2.67069 -4.67033,-5.95017 l 0,-123.63131 c 0,-3.27944 2.09861,-5.81793 4.67033,-5.81793 l 6.67181,0 z"
       id="path19"
       inkscape:connector-curvature="0"
       style="fill:url(#linearGradient4159);stroke:#000000;stroke-width:3.27304006;stroke-linecap:round;stroke-linejoin:round" />
    <path
       d="m 63.82175,85.335 c 8.26526,8.0764 64.0061,58.49787 67.00421,61.88175 3.15124,3.55623 3.14536,3.58398 3.14536,7.1402 0,3.55622 0.009,3.58344 -3.14536,7.14021 -2.81105,3.17185 -51.14347,46.89999 -64.24022,59.23725 l -9.43581,0 c -2.57171,0 -4.67032,-2.67069 -4.67032,-5.95017 l 0,-123.63131 c 0,-3.27944 2.09861,-5.81793 4.67032,-5.81793 l 6.67182,0 z"
       id="path21"
       inkscape:connector-curvature="0"
       style="fill:url(#linearGradient4161);stroke:#000000;stroke-width:3.27304006;stroke-linecap:round;stroke-linejoin:round" />
    <path
       d="m 161.70649,146.50231 c 2.60876,0.17512 3.68137,0.93036 7.80132,3.70234 4.51092,3.0353 63.44407,52.50765 87.79805,72.45982 -1.1234,1.72317 -3.20018,2.90899 -5.55349,2.90899 l -190.14094,0 c -1.46817,0 -2.75363,-0.56754 -3.83454,-1.32228 23.17225,-18.92487 85.03212,-70.94019 89.6492,-74.04653 5.4926,-3.69592 5.48214,-3.70234 10.97474,-3.70234 1.37315,0 2.43606,-0.0584 3.30566,0 z"
       id="path23"
       inkscape:connector-curvature="0"
       style="fill:url(#linearGradient4163);stroke:#000000;stroke-width:3.27304006;stroke-linecap:round;stroke-linejoin:round" />
    <path
       d="m 251.75237,80.50275 c 3.56768,0 6.47909,2.67068 6.47909,5.95017 l 0,0.26448 c -11.42261,9.07887 -85.73505,73.2577 -90.70704,76.69107 -5.20881,3.59786 -5.23701,3.5701 -10.44582,3.5701 -5.20881,0 -5.10414,0.0269 -10.31363,-3.5701 C 141.81215,159.9879 68.08665,96.21203 56.19017,86.7174 l 0,-3.5701 c 1.15501,-1.57409 3.19143,-2.64451 5.42125,-2.64451 l 190.14094,0 z"
       id="path25"
       inkscape:connector-curvature="0"
       style="fill:url(#linearGradient4165);stroke:#000000;stroke-width:3.27304006;stroke-linecap:round;stroke-linejoin:round" />
  </g>
</svg>
