<svg width="640" xmlns="http://www.w3.org/2000/svg" height="480" xmlns:xlink="http://www.w3.org/1999/xlink">
<defs>
<linearGradient id="linearGradient4758">
<stop offset="0" id="stop4760"/>
<stop offset="1" style="stop-color:#918a6f;stop-opacity:0" id="stop4762"/>
</linearGradient>
<linearGradient id="linearGradient3939">
<stop offset="0" style="stop-color:#b3b3b3" id="stop3941"/>
<stop offset="0.5" style="stop-color:#fff" id="stop3947"/>
<stop offset="1" style="stop-color:#808080" id="stop3943"/>
</linearGradient>
<linearGradient xlink:href="#linearGradient3939" id="linearGradient4820" y1="0.413042" y2="0.413042" x1="0.062913" x2="1.009359"/>
<linearGradient gradientTransform="translate(0, 70)" xlink:href="#linearGradient3939" id="linearGradient4822" y1="-2.951585" y2="-2.951585" x1="0.062913" x2="1.009359"/>
<linearGradient gradientTransform="translate(0, 154)" xlink:href="#linearGradient3939" id="linearGradient4824" y1="-6.989136" y2="-6.989136" x1="0.062913" x2="1.009359"/>
<radialGradient fx="841.56232" fy="-55.67453" cx="841.56232" cy="-55.67453" gradientTransform="matrix(0.460855, 2.27401, -3.26944, 0.66259, -240.232, -1638.02)" xlink:href="#linearGradient4758" id="radialGradient4764" r="181.35938" gradientUnits="userSpaceOnUse"/>
</defs>
<g>
<g id="layer1" transform="rotate(10.2791, 316.5, 226.174)">
<g id="g4826">
<path style="fill:url(#radialGradient4764);stroke-width:.832" id="rect4731" d="m 294.773,-17.361 c -4.11334,0.725281 -6.50714,7.247 -6.11548,15.5115 l -2.9713,.5239 c -2.5047,-7.46624 -6.80371,-12.4165 -10.78,-11.7154 l -364.3429,64.2436 c -4.93521,0.870243 -7.35713,10.0139 -5.4947,20.5762 l 80.1008,454.273 c 1.8624,10.5623 7.2656,18.3262 12.2008,17.456 l 343.6101,-60.5878 c 1.57559,8.73004 9.87268,14.4624 18.6176,12.9204 l 32.0896,-5.6583 c 8.76691,-1.54575 14.61,-9.80795 13.0641,-18.5749 l -.1165,-.6602 341.2332,-60.1688 c 4.93518,-0.870178 7.41144,-10.0916 5.54895,-20.6538 l -80.0891,-454.207 c -1.86243,-10.5623 -7.34326,-18.3806 -12.2784,-17.5104 l -364.2769,64.232 z "/>
<g id="g4766">
<g id="g3932">
<g style="fill:#918a6f" id="g3927">
<rect width="30.162613" x="-950.23815" y="280.334322" rx="7.489587" ry="7.489587" height="234.1936" style="stroke:#000;stroke-width:.832" id="rect3593" transform="matrix(-2.1129, 0.372562, 0.372562, 2.1129, -1815.41, -255.253)"/>
<rect width="180.85037" x="564.974874" y="-86.957221" rx="4.216206" ry="9.023321" height="233.02126" style="stroke:#000;stroke-width:1.92" id="rect3507" transform="matrix(2.1129, -0.372562, 0.372562, 2.1129, -1283.13, 437.413)"/>
<rect width="180.85037" x="-1115.97294" y="273.694773" rx="4.216206" ry="9.023321" height="233.02126" style="stroke:#000;stroke-width:1.92" id="rect3541" transform="matrix(-2.1129, 0.372562, 0.372562, 2.1129, -1815.41, -255.253)"/>
</g>
<rect width="22.216101" x="-946.26488" y="280.331992" rx="7.489587" ry="7.489587" height="230.66846" style="fill:#6c6753;stroke:#000;stroke-width:.832" id="rect3577" transform="matrix(-2.1129, 0.372562, 0.372562, 2.1129, -1815.41, -255.253)"/>
</g>
<g style="stroke:#000">
<g style="fill:#fff;stroke-width:1.664">
<rect width="149.46312" x="587.548914" y="-72.650441" rx="3.484468" ry="8.203018" height="211.83751" id="rect3539" transform="matrix(2.1129, -0.372562, 0.372562, 2.1129, -1283.13, 437.413)"/>
<rect width="149.46312" x="588.158104" y="-74.923981" rx="3.484468" ry="8.203018" height="211.83751" id="rect3537" transform="matrix(2.1129, -0.372562, 0.372562, 2.1129, -1283.13, 437.413)"/>
<rect width="149.46312" x="588.767294" y="-77.197541" rx="3.484468" ry="8.203018" height="211.83751" id="rect3535" transform="matrix(2.1129, -0.372562, 0.372562, 2.1129, -1283.13, 437.413)"/>
</g>
<g style="stroke-width:1.245">
<rect width="16.788687" x="576.496724" y="-65.305811" rx="2.48538" ry="6.431488" height="42.444939" style="fill:#aad400" id="rect3509" transform="matrix(2.1129, -0.372562, 0.372562, 2.1129, -1283.13, 437.413)"/>
<rect width="16.788687" x="576.496724" y="-33.661551" rx="2.48538" ry="6.431488" height="42.444939" style="fill:#f60" id="rect3511" transform="matrix(2.1129, -0.372562, 0.372562, 2.1129, -1283.13, 437.413)"/>
<rect width="16.788687" x="576.496723" y="-2.017221" rx="2.48538" ry="6.431488" height="42.444939" style="fill:#5f8dd3" id="rect3513" transform="matrix(2.1129, -0.372562, 0.372562, 2.1129, -1283.13, 437.413)"/>
<rect width="16.788687" x="576.496723" y="29.626949" rx="2.48538" ry="6.431488" height="42.444939" style="fill:#fd5" id="rect3515" transform="matrix(2.1129, -0.372562, 0.372562, 2.1129, -1283.13, 437.413)"/>
<rect width="16.788687" x="576.496723" y="61.271209" rx="2.48538" ry="6.431488" height="42.444939" style="fill:#f00" id="rect3517" transform="matrix(2.1129, -0.372562, 0.372562, 2.1129, -1283.13, 437.413)"/>
</g>
<g style="fill:#fff;stroke-width:1.664">
<rect width="149.46312" x="589.376484" y="-79.471091" rx="3.484468" ry="8.203018" height="211.83751" id="rect3505" transform="matrix(2.1129, -0.372562, 0.372562, 2.1129, -1283.13, 437.413)"/>
<rect width="149.46312" x="-1093.39891" y="288.001563" rx="3.484468" ry="8.203018" height="211.83751" id="rect3543" transform="matrix(-2.1129, 0.372562, 0.372562, 2.1129, -1815.41, -255.253)"/>
<rect width="149.46312" x="-1092.78991" y="285.728003" rx="3.484468" ry="8.203018" height="211.83751" id="rect3545" transform="matrix(-2.1129, 0.372562, 0.372562, 2.1129, -1815.41, -255.253)"/>
<rect width="149.46312" x="-1092.18065" y="283.454453" rx="3.484468" ry="8.203018" height="211.83751" id="rect3548" transform="matrix(-2.1129, 0.372562, 0.372562, 2.1129, -1815.41, -255.253)"/>
<rect width="149.46312" x="-1091.5714" y="281.180903" rx="3.484468" ry="8.203018" height="211.83751" id="rect3550" transform="matrix(-2.1129, 0.372562, 0.372562, 2.1129, -1815.41, -255.253)"/>
</g>
<g style="stroke-width:.758;fill-rule:evenodd;fill:none">
<path id="path4379" d="m 309.0958,400.5227 l -288.6445,50.8959"/>
<path id="path4381" d="m 303.3085,367.7009 l -288.6445,50.8961"/>
<path id="path4383" d="m 297.5211,334.8792 l -288.6445,50.896"/>
<path id="path4385" d="m 291.7337,302.0577 l -288.6444,50.8959"/>
<path id="path4387" d="m 285.9464,269.2359 l -288.6446,50.8958"/>
<path id="path4389" d="m 280.159,236.4142 l -288.6445,50.896"/>
<path id="path4391" d="m 274.3717,203.5927 l -288.6445,50.8959"/>
<path id="path4393" d="m 268.5843,170.7709 l -288.6445,50.896"/>
<path id="path4395" d="m 262.7969,137.9492 l -288.6445,50.8959"/>
<path id="path4397" d="m 257.0096,105.1277 l -288.6445,50.8959"/>
<path id="path4399" d="m 251.2223,72.3059 l -288.6445,50.8959"/>
<path id="path4401" d="m 245.4349,39.4844 l -288.6445,50.896"/>
<path id="path4479" d="m 651.3422,341.7532 l -288.6445,50.896"/>
<path id="path4481" d="m 645.5548,308.9315 l -288.6445,50.896"/>
<path id="path4483" d="m 639.7675,276.1098 l -288.6445,50.8959"/>
<path id="path4485" d="m 633.9802,243.2883 l -288.6445,50.8959"/>
<path id="path4487" d="m 628.1928,210.4665 l -288.6446,50.8959"/>
<path id="path4489" d="m 622.4054,177.6448 l -288.6445,50.896"/>
<path id="path4491" d="m 616.6181,144.8232 l -288.6445,50.896"/>
<path id="path4493" d="m 610.8306,112.0015 l -288.6444,50.8959"/>
<path id="path4495" d="m 605.0432,79.1798 l -288.6444,50.8959"/>
<path id="path4497" d="m 599.256,46.3582 l -288.6445,50.896"/>
<path id="path4499" d="m 593.4686,13.5365 l -288.6445,50.896"/>
<path id="path4501" d="m 587.6812,-19.2851 l -288.6444,50.896"/>
</g>
</g>
<path id="path4559" d="m 346.7722,203.7991 a 1.75383,2.83776 0 1,1 -3.50763,-19.893 1.75383,2.83776 0 1,13 19.893,0"/>
<path id="path4561" d="m 261.3005,217.236 a 1.75383,2.83776 0 1,1 -3.50766,-19.893 1.75383,2.83776 0 1,13 19.893,0"/>
<path id="path4570" d="m 376.7138,382.1333 a 1.75383,2.83776 0 1,1 -3.50763,-19.8929 1.75383,2.83776 0 1,13 19.8929,0"/>
<path id="path4572" d="m 291.2645,395.5685 a 1.75383,2.83776 0 1,1 -3.50775,-19.8929 1.75383,2.83776 0 1,13 19.8929,0"/>
<path id="path4578" d="m 319.2723,54.3885 a 1.75383,2.83776 0 1,1 -3.50766,-19.893 1.75383,2.83776 0 1,13 19.893,0"/>
<path id="path4580" d="m 233.8221,67.824 a 1.75383,2.83776 0 1,1 -3.50766,-19.893 1.75383,2.83776 0 1,13 19.893,0"/>
<g style="stroke:#000;stroke-width:.5">
<path style="fill:url(#linearGradient4820)" id="path4582" d="m 266.6285,6.8423 c -24.9687,4.40231 -42.0217,27.4309 -39.3936,52.2704 l 9.5057,-1.6761 c -1.72337,-19.6097 11.8079,-37.662 31.5544,-41.1435 19.7461,-3.48201 38.6355,8.85361 43.7228,27.87 l 9.5062,-1.6762 c -6.02673,-24.2403 -29.9271,-40.0473 -54.8954,-35.6447 z "/>
<path style="fill:url(#linearGradient4822)" id="path4719" d="m 292.7078,154.7452 c -24.9687,4.40231 -42.0217,27.431 -39.3936,52.2704 l 9.5058,-1.6761 c -1.72348,-19.6097 11.8079,-37.662 31.5543,-41.1435 19.7461,-3.482 38.6356,8.85364 43.7228,27.87 l 9.5061,-1.6762 c -6.02667,-24.2403 -29.9269,-40.0473 -54.8954,-35.6447 z "/>
<path style="fill:url(#linearGradient4824)" id="path4723" d="m 324.0031,332.2286 c -24.9688,4.40237 -42.0218,27.431 -39.3937,52.2705 l 9.5057,-1.6761 c -1.72336,-19.6098 11.8079,-37.662 31.5543,-41.1435 19.7462,-3.48199 38.6356,8.85367 43.7229,27.87 l 9.5061,-1.6761 c -6.0267,-24.2404 -29.927,-40.0473 -54.8954,-35.6448 z "/>
</g>
</g>
</g>
</g>
</g>
</svg>
