<?xml version="1.0" encoding="UTF-8" standalone="no"?>
<svg viewBox="0 0 397.0856 330.21423" xmlns="http://www.w3.org/2000/svg">
<defs>
<filter id="filter4774">
<feGaussianBlur stdDeviation="2.95592"/>
</filter>
<filter id="filter4824">
<feGaussianBlur stdDeviation="13.17857"/>
</filter>
<filter height="1.02266" id="filter4798" width="1.39353" x="-.19677" y="-.01133">
<feGaussianBlur stdDeviation="2.37403"/>
</filter>
</defs>
<g transform="translate(-.89286,6.30659)">
<g transform="matrix(.45279,0,0,.45279,-364.20963,-1.19694)">
<path d="m1215.6427,19.54698c27.546,21.83137 46.5328,10.4617 65.7538,0v660.98245c-36.8588,23.18255-49.3028,8.4826-65.7538,0z" fill="#666"/>
<path d="m1255.3713,24.34342h394.2857v660h-394.2857z" fill="#666" filter="url(#filter4824)" stroke="#666" stroke-width="4.053"/>
<path d="m840,22.36217h394.2857v660h-394.2857z" fill="#666" filter="url(#filter4824)" stroke="#666" stroke-width="4.053"/>
<path d="m832,22.36217h394.2857v660h-394.2857z" fill="#f2f2f2" stroke="#666" stroke-width="4.053"/>
<path d="m840,22.36217h394.2857v660h-394.2857z" fill="#f2f2f2" stroke="#666" stroke-width="4.053"/>
<g transform="matrix(.86639,0,0,1,114.20431,21.14286)">
<path d="m882.79685,82.36214h311.54915" fill="none" stroke="#00f" stroke-width="1.8417"/>
<path d="m882.79685,126.64785h311.54915" fill="none" stroke="#00f" stroke-width="1.8417"/>
<path d="m882.79685,170.93359h311.54915" fill="none" stroke="#00f" stroke-width="1.8417"/>
<path d="m882.79685,215.21927h311.54915" fill="none" stroke="#00f" stroke-width="1.8417"/>
<path d="m882.79685,259.50502h311.54915" fill="none" stroke="#00f" stroke-width="1.8417"/>
<path d="m882.79685,303.79074h311.54915" fill="none" stroke="#00f" stroke-width="1.8417"/>
<path d="m882.79685,348.07642h311.54915" fill="none" stroke="#00f" stroke-width="1.8417"/>
<path d="m882.79685,392.36215h311.54915" fill="none" stroke="#00f" stroke-width="1.8417"/>
<path d="m882.79683,436.64787h311.54917" fill="none" stroke="#00f" stroke-width="1.8417"/>
<path d="m882.79683,480.93358h311.54917" fill="none" stroke="#00f" stroke-width="1.8417"/>
<path d="m882.79683,525.21932h311.54917" fill="none" stroke="#00f" stroke-width="1.8417"/>
<path d="m882.79683,569.50503h311.54917" fill="none" stroke="#00f" stroke-width="1.8417"/>
<path d="m882.79682,613.79075h311.54918" fill="none" stroke="#00f" stroke-width="1.8417"/>
</g>
<path d="m878.57146,31.83947v625.42415" fill="none" stroke="#f00" stroke-width="2.52293"/>
<path d="m1173.8173,66.21134h-325.59698" fill="none" stroke="#f00" stroke-width="1.27866"/>
<path d="m1265.1428,22.36217h394.2857v660h-394.2857z" fill="#f2f2f2" stroke="#666" stroke-width="4.053"/>
<path d="m1257.1428,22.36217h394.2857v660h-394.2857z" fill="#f2f2f2" stroke="#666" stroke-width="4.053"/>
<g transform="matrix(.92681,0,0,1,508.04354,21.14286)">
<path d="m882.79685,82.36214h311.54915" fill="none" stroke="#00f" stroke-width="1.8417"/>
<path d="m882.79685,126.64785h311.54915" fill="none" stroke="#00f" stroke-width="1.8417"/>
<path d="m882.79685,170.93359h311.54915" fill="none" stroke="#00f" stroke-width="1.8417"/>
<path d="m882.79685,215.21927h311.54915" fill="none" stroke="#00f" stroke-width="1.8417"/>
<path d="m882.79685,259.50502h311.54915" fill="none" stroke="#00f" stroke-width="1.8417"/>
<path d="m882.79685,303.79074h311.54915" fill="none" stroke="#00f" stroke-width="1.8417"/>
<path d="m882.79685,348.07642h311.54915" fill="none" stroke="#00f" stroke-width="1.8417"/>
<path d="m882.79685,392.36215h311.54915" fill="none" stroke="#00f" stroke-width="1.8417"/>
<path d="m882.79683,436.64787h311.54917" fill="none" stroke="#00f" stroke-width="1.8417"/>
<path d="m882.79683,480.93358h311.54917" fill="none" stroke="#00f" stroke-width="1.8417"/>
<path d="m882.79683,525.21932h311.54917" fill="none" stroke="#00f" stroke-width="1.8417"/>
<path d="m882.79683,569.50503h311.54917" fill="none" stroke="#00f" stroke-width="1.8417"/>
<path d="m882.79682,613.79075h311.54918" fill="none" stroke="#00f" stroke-width="1.8417"/>
</g>
<path d="m1325.7143,30.24032v627.0233" fill="none" stroke="#f00" stroke-width="2.61275"/>
<path d="m1646.6033,67.63991h-351.1689" fill="none" stroke="#f00" stroke-width="1.9553"/>
<path d="m585.7143-96.20924c0,12.62365-10.87308,22.85714-24.28571,22.85714s-24.28572-10.23349-24.28572-22.85714 10.87309-22.85715 24.28572-22.85715 24.28571,10.23349 24.28571,22.85715z" fill="#f2f2f2" stroke="#000" stroke-width="4.053" transform="matrix(.59616,0,0,.58848,869.59621,159.57358)"/>
<path d="m585.7143-96.20924c0,12.62365-10.87308,22.85714-24.28571,22.85714s-24.28572-10.23349-24.28572-22.85714 10.87309-22.85715 24.28572-22.85715 24.28571,10.23349 24.28571,22.85715z" fill="#f2f2f2" stroke="#000" stroke-width="4.053" transform="matrix(.59616,0,0,.58848,869.59621,219.06404)"/>
<path d="m585.7143-96.20924c0,12.62365-10.87308,22.85714-24.28571,22.85714s-24.28572-10.23349-24.28572-22.85714 10.87309-22.85715 24.28572-22.85715 24.28571,10.23349 24.28571,22.85715z" fill="#f2f2f2" stroke="#000" stroke-width="4.053" transform="matrix(.59616,0,0,.58848,869.59621,278.55458)"/>
<path d="m585.7143-96.20924c0,12.62365-10.87308,22.85714-24.28571,22.85714s-24.28572-10.23349-24.28572-22.85714 10.87309-22.85715 24.28572-22.85715 24.28571,10.23349 24.28571,22.85715z" fill="#f2f2f2" stroke="#000" stroke-width="4.053" transform="matrix(.59616,0,0,.58848,869.59621,338.04509)"/>
<path d="m585.7143-96.20924c0,12.62365-10.87308,22.85714-24.28571,22.85714s-24.28572-10.23349-24.28572-22.85714 10.87309-22.85715 24.28572-22.85715 24.28571,10.23349 24.28571,22.85715z" fill="#f2f2f2" stroke="#000" stroke-width="4.053" transform="matrix(.59616,0,0,.58848,869.59621,397.53555)"/>
<path d="m585.7143-96.20924c0,12.62365-10.87308,22.85714-24.28571,22.85714s-24.28572-10.23349-24.28572-22.85714 10.87309-22.85715 24.28572-22.85715 24.28571,10.23349 24.28571,22.85715z" fill="#f2f2f2" stroke="#000" stroke-width="4.053" transform="matrix(.59616,0,0,.58848,869.59621,457.02609)"/>
<path d="m585.7143-96.20924c0,12.62365-10.87308,22.85714-24.28571,22.85714s-24.28572-10.23349-24.28572-22.85714 10.87309-22.85715 24.28572-22.85715 24.28571,10.23349 24.28571,22.85715z" fill="#f2f2f2" stroke="#000" stroke-width="4.053" transform="matrix(.59616,0,0,.58848,869.59621,516.51661)"/>
<path d="m585.7143-96.20924c0,12.62365-10.87308,22.85714-24.28571,22.85714s-24.28572-10.23349-24.28572-22.85714 10.87309-22.85715 24.28572-22.85715 24.28571,10.23349 24.28571,22.85715z" fill="#f2f2f2" stroke="#000" stroke-width="4.053" transform="matrix(.59616,0,0,.58848,869.59621,576.00707)"/>
<path d="m585.7143-96.20924c0,12.62365-10.87308,22.85714-24.28571,22.85714s-24.28572-10.23349-24.28572-22.85714 10.87309-22.85715 24.28572-22.85715 24.28571,10.23349 24.28571,22.85715z" fill="#f2f2f2" stroke="#000" stroke-width="4.053" transform="matrix(.59616,0,0,.58848,869.59621,635.49758)"/>
<path d="m585.7143-96.20924c0,12.62365-10.87308,22.85714-24.28571,22.85714s-24.28572-10.23349-24.28572-22.85714 10.87309-22.85715 24.28572-22.85715 24.28571,10.23349 24.28571,22.85715z" fill="#f2f2f2" stroke="#000" stroke-width="4.053" transform="matrix(.59616,0,0,.58848,954.59498,159.57358)"/>
<path d="m585.7143-96.20924c0,12.62365-10.87308,22.85714-24.28571,22.85714s-24.28572-10.23349-24.28572-22.85714 10.87309-22.85715 24.28572-22.85715 24.28571,10.23349 24.28571,22.85715z" fill="#f2f2f2" stroke="#000" stroke-width="4.053" transform="matrix(.59616,0,0,.58848,954.59498,219.06404)"/>
<path d="m585.7143-96.20924c0,12.62365-10.87308,22.85714-24.28571,22.85714s-24.28572-10.23349-24.28572-22.85714 10.87309-22.85715 24.28572-22.85715 24.28571,10.23349 24.28571,22.85715z" fill="#f2f2f2" stroke="#000" stroke-width="4.053" transform="matrix(.59616,0,0,.58848,954.59498,278.55458)"/>
<path d="m585.7143-96.20924c0,12.62365-10.87308,22.85714-24.28571,22.85714s-24.28572-10.23349-24.28572-22.85714 10.87309-22.85715 24.28572-22.85715 24.28571,10.23349 24.28571,22.85715z" fill="#f2f2f2" stroke="#000" stroke-width="4.053" transform="matrix(.59616,0,0,.58848,954.59498,338.04509)"/>
<path d="m585.7143-96.20924c0,12.62365-10.87308,22.85714-24.28571,22.85714s-24.28572-10.23349-24.28572-22.85714 10.87309-22.85715 24.28572-22.85715 24.28571,10.23349 24.28571,22.85715z" fill="#f2f2f2" stroke="#000" stroke-width="4.053" transform="matrix(.59616,0,0,.58848,954.59498,397.53555)"/>
<path d="m585.7143-96.20924c0,12.62365-10.87308,22.85714-24.28571,22.85714s-24.28572-10.23349-24.28572-22.85714 10.87309-22.85715 24.28572-22.85715 24.28571,10.23349 24.28571,22.85715z" fill="#f2f2f2" stroke="#000" stroke-width="4.053" transform="matrix(.59616,0,0,.58848,954.59498,457.02609)"/>
<path d="m585.7143-96.20924c0,12.62365-10.87308,22.85714-24.28571,22.85714s-24.28572-10.23349-24.28572-22.85714 10.87309-22.85715 24.28572-22.85715 24.28571,10.23349 24.28571,22.85715z" fill="#f2f2f2" stroke="#000" stroke-width="4.053" transform="matrix(.59616,0,0,.58848,954.59498,516.51661)"/>
<path d="m585.7143-96.20924c0,12.62365-10.87308,22.85714-24.28571,22.85714s-24.28572-10.23349-24.28572-22.85714 10.87309-22.85715 24.28572-22.85715 24.28571,10.23349 24.28571,22.85715z" fill="#f2f2f2" stroke="#000" stroke-width="4.053" transform="matrix(.59616,0,0,.58848,954.59498,576.00707)"/>
<path d="m585.7143-96.20924c0,12.62365-10.87308,22.85714-24.28571,22.85714s-24.28572-10.23349-24.28572-22.85714 10.87309-22.85715 24.28572-22.85715 24.28571,10.23349 24.28571,22.85715z" fill="#f2f2f2" stroke="#000" stroke-width="4.053" transform="matrix(.59616,0,0,.58848,954.59498,635.49758)"/>
<g filter="url(#filter4798)">
<path d="m585.7143-96.20924c0,12.62365-10.87308,22.85714-24.28571,22.85714s-24.28572-10.23349-24.28572-22.85714 10.87309-22.85715 24.28572-22.85715 24.28571,10.23349 24.28571,22.85715z" fill="#f2f2f2" stroke="#000" stroke-width="4.053" transform="matrix(.59616,0,0,.58848,869.59621,159.57358)"/>
<path d="m585.7143-96.20924c0,12.62365-10.87308,22.85714-24.28571,22.85714s-24.28572-10.23349-24.28572-22.85714 10.87309-22.85715 24.28572-22.85715 24.28571,10.23349 24.28571,22.85715z" fill="#f2f2f2" stroke="#000" stroke-width="4.053" transform="matrix(.59616,0,0,.58848,869.59621,219.06404)"/>
<path d="m585.7143-96.20924c0,12.62365-10.87308,22.85714-24.28571,22.85714s-24.28572-10.23349-24.28572-22.85714 10.87309-22.85715 24.28572-22.85715 24.28571,10.23349 24.28571,22.85715z" fill="#f2f2f2" stroke="#000" stroke-width="4.053" transform="matrix(.59616,0,0,.58848,869.59621,278.55458)"/>
<path d="m585.7143-96.20924c0,12.62365-10.87308,22.85714-24.28571,22.85714s-24.28572-10.23349-24.28572-22.85714 10.87309-22.85715 24.28572-22.85715 24.28571,10.23349 24.28571,22.85715z" fill="#f2f2f2" stroke="#000" stroke-width="4.053" transform="matrix(.59616,0,0,.58848,869.59621,338.04509)"/>
<path d="m585.7143-96.20924c0,12.62365-10.87308,22.85714-24.28571,22.85714s-24.28572-10.23349-24.28572-22.85714 10.87309-22.85715 24.28572-22.85715 24.28571,10.23349 24.28571,22.85715z" fill="#f2f2f2" stroke="#000" stroke-width="4.053" transform="matrix(.59616,0,0,.58848,869.59621,397.53555)"/>
<path d="m585.7143-96.20924c0,12.62365-10.87308,22.85714-24.28571,22.85714s-24.28572-10.23349-24.28572-22.85714 10.87309-22.85715 24.28572-22.85715 24.28571,10.23349 24.28571,22.85715z" fill="#f2f2f2" stroke="#000" stroke-width="4.053" transform="matrix(.59616,0,0,.58848,869.59621,457.02609)"/>
<path d="m585.7143-96.20924c0,12.62365-10.87308,22.85714-24.28571,22.85714s-24.28572-10.23349-24.28572-22.85714 10.87309-22.85715 24.28572-22.85715 24.28571,10.23349 24.28571,22.85715z" fill="#f2f2f2" stroke="#000" stroke-width="4.053" transform="matrix(.59616,0,0,.58848,869.59621,516.51661)"/>
<path d="m585.7143-96.20924c0,12.62365-10.87308,22.85714-24.28571,22.85714s-24.28572-10.23349-24.28572-22.85714 10.87309-22.85715 24.28572-22.85715 24.28571,10.23349 24.28571,22.85715z" fill="#f2f2f2" stroke="#000" stroke-width="4.053" transform="matrix(.59616,0,0,.58848,869.59621,576.00707)"/>
<path d="m585.7143-96.20924c0,12.62365-10.87308,22.85714-24.28571,22.85714s-24.28572-10.23349-24.28572-22.85714 10.87309-22.85715 24.28572-22.85715 24.28571,10.23349 24.28571,22.85715z" fill="#f2f2f2" stroke="#000" stroke-width="4.053" transform="matrix(.59616,0,0,.58848,869.59621,635.49758)"/>
</g>
<g filter="url(#filter4798)" transform="translate(84.99877)">
<path d="m585.7143-96.20924c0,12.62365-10.87308,22.85714-24.28571,22.85714s-24.28572-10.23349-24.28572-22.85714 10.87309-22.85715 24.28572-22.85715 24.28571,10.23349 24.28571,22.85715z" fill="#f2f2f2" stroke="#000" stroke-width="4.053" transform="matrix(.59616,0,0,.58848,869.59621,159.57358)"/>
<path d="m585.7143-96.20924c0,12.62365-10.87308,22.85714-24.28571,22.85714s-24.28572-10.23349-24.28572-22.85714 10.87309-22.85715 24.28572-22.85715 24.28571,10.23349 24.28571,22.85715z" fill="#f2f2f2" stroke="#000" stroke-width="4.053" transform="matrix(.59616,0,0,.58848,869.59621,219.06404)"/>
<path d="m585.7143-96.20924c0,12.62365-10.87308,22.85714-24.28571,22.85714s-24.28572-10.23349-24.28572-22.85714 10.87309-22.85715 24.28572-22.85715 24.28571,10.23349 24.28571,22.85715z" fill="#f2f2f2" stroke="#000" stroke-width="4.053" transform="matrix(.59616,0,0,.58848,869.59621,278.55458)"/>
<path d="m585.7143-96.20924c0,12.62365-10.87308,22.85714-24.28571,22.85714s-24.28572-10.23349-24.28572-22.85714 10.87309-22.85715 24.28572-22.85715 24.28571,10.23349 24.28571,22.85715z" fill="#f2f2f2" stroke="#000" stroke-width="4.053" transform="matrix(.59616,0,0,.58848,869.59621,338.04509)"/>
<path d="m585.7143-96.20924c0,12.62365-10.87308,22.85714-24.28571,22.85714s-24.28572-10.23349-24.28572-22.85714 10.87309-22.85715 24.28572-22.85715 24.28571,10.23349 24.28571,22.85715z" fill="#f2f2f2" stroke="#000" stroke-width="4.053" transform="matrix(.59616,0,0,.58848,869.59621,397.53555)"/>
<path d="m585.7143-96.20924c0,12.62365-10.87308,22.85714-24.28571,22.85714s-24.28572-10.23349-24.28572-22.85714 10.87309-22.85715 24.28572-22.85715 24.28571,10.23349 24.28571,22.85715z" fill="#f2f2f2" stroke="#000" stroke-width="4.053" transform="matrix(.59616,0,0,.58848,869.59621,457.02609)"/>
<path d="m585.7143-96.20924c0,12.62365-10.87308,22.85714-24.28571,22.85714s-24.28572-10.23349-24.28572-22.85714 10.87309-22.85715 24.28572-22.85715 24.28571,10.23349 24.28571,22.85715z" fill="#f2f2f2" stroke="#000" stroke-width="4.053" transform="matrix(.59616,0,0,.58848,869.59621,516.51661)"/>
<path d="m585.7143-96.20924c0,12.62365-10.87308,22.85714-24.28571,22.85714s-24.28572-10.23349-24.28572-22.85714 10.87309-22.85715 24.28572-22.85715 24.28571,10.23349 24.28571,22.85715z" fill="#f2f2f2" stroke="#000" stroke-width="4.053" transform="matrix(.59616,0,0,.58848,869.59621,576.00707)"/>
<path d="m585.7143-96.20924c0,12.62365-10.87308,22.85714-24.28571,22.85714s-24.28572-10.23349-24.28572-22.85714 10.87309-22.85715 24.28572-22.85715 24.28571,10.23349 24.28571,22.85715z" fill="#f2f2f2" stroke="#000" stroke-width="4.053" transform="matrix(.59616,0,0,.58848,869.59621,635.49758)"/>
</g>
<g stroke="#000">
<g stroke="#000">
<path d="m1197.8661,104.66249c58.8266-29.90134 98.7219-.0311 98.7634,0" fill="none" stroke="#000" stroke-linecap="round" stroke-width="12.72128"/>
<path d="m1197.8661,164.00125c58.8266-29.90134 98.7219-.0311 98.7634,0" fill="none" stroke="#000" stroke-linecap="round" stroke-width="12.72128"/>
<path d="m1197.8661,226.54751c58.8266-29.90134 98.7219-.0311 98.7634,0" fill="none" stroke="#000" stroke-linecap="round" stroke-width="12.72128"/>
<path d="m1197.8661,285.88627c58.8266-29.90134 98.7219-.0311 98.7634,0" fill="none" stroke="#000" stroke-linecap="round" stroke-width="12.72128"/>
<path d="m1197.8661,521.24132c58.8266-29.90134 98.7219-.0311 98.7634,0" fill="none" stroke="#000" stroke-linecap="round" stroke-width="12.72128"/>
<path d="m1197.8661,460.29881c58.8266-29.90134 98.7219-.0311 98.7634,0" fill="none" stroke="#000" stroke-linecap="round" stroke-width="12.72128"/>
<path d="m1197.8661,402.5638c58.8266-29.90134 98.7219-.0311 98.7634,0" fill="none" stroke="#000" stroke-linecap="round" stroke-width="12.72128"/>
<path d="m1197.8661,344.82879c58.8266-29.90134 98.7219-.0311 98.7634,0" fill="none" stroke="#000" stroke-linecap="round" stroke-width="12.72128"/>
</g>
<path d="m1199.4699,582.18383c58.8266-29.90134 98.7219-.0311 98.7634,0" fill="none" stroke="#000" stroke-linecap="round" stroke-width="12.72128"/>
</g>
<g filter="url(#filter4774)" stroke="#e6e6e6" stroke-width="2.2">
<g stroke="#e6e6e6" stroke-width="2.2">
<path d="m1197.8661,104.66249c58.8266-29.90134 98.7219-.0311 98.7634,0" fill="none" stroke="#e6e6e6" stroke-linecap="round" stroke-width="2.2"/>
<path d="m1197.8661,164.00125c58.8266-29.90134 98.7219-.0311 98.7634,0" fill="none" stroke="#e6e6e6" stroke-linecap="round" stroke-width="2.2"/>
<path d="m1197.8661,226.54751c58.8266-29.90134 98.7219-.0311 98.7634,0" fill="none" stroke="#e6e6e6" stroke-linecap="round" stroke-width="2.2"/>
<path d="m1197.8661,285.88627c58.8266-29.90134 98.7219-.0311 98.7634,0" fill="none" stroke="#e6e6e6" stroke-linecap="round" stroke-width="2.2"/>
<path d="m1197.8661,521.24132c58.8266-29.90134 98.7219-.0311 98.7634,0" fill="none" stroke="#e6e6e6" stroke-linecap="round" stroke-width="2.2"/>
<path d="m1197.8661,460.29881c58.8266-29.90134 98.7219-.0311 98.7634,0" fill="none" stroke="#e6e6e6" stroke-linecap="round" stroke-width="2.2"/>
<path d="m1197.8661,402.5638c58.8266-29.90134 98.7219-.0311 98.7634,0" fill="none" stroke="#e6e6e6" stroke-linecap="round" stroke-width="2.2"/>
<path d="m1197.8661,344.82879c58.8266-29.90134 98.7219-.0311 98.7634,0" fill="none" stroke="#e6e6e6" stroke-linecap="round" stroke-width="2.2"/>
</g>
<path d="m1199.4699,582.18383c58.8266-29.90134 98.7219-.0311 98.7634,0" fill="none" stroke="#e6e6e6" stroke-linecap="round" stroke-width="2.2"/>
</g>
<g font-family="Sans" font-size="19.90426" letter-spacing="0" word-spacing="0">
<path d="m1117.7774,51.97943h1.8077c1.8854,1e-006 3.3303-.53778 4.3346-1.61333 1.0108-1.07555 1.5161-2.61761 1.5161-4.62619s-.5021-3.54414-1.5064-4.60675-2.4524-1.59388-4.3443-1.5939h-1.8077v12.44016m-3.8195,1.0302v-1.0302h1.8465v-12.44016h-1.8465v-1.03992h5.773c2.5009,1.4e-005 4.448.63822 5.841,1.91462 1.3995,1.27642 2.0993,3.05174 2.0993,5.32594 0,2.2807-.6998,4.0625-2.0993,5.34538s-3.3465,1.92434-5.841,1.92434h-5.773"/>
<path d="m1136.7583,49.76353v-2.18675h-2.3033c-.8877,6e-006-1.5486.19114-1.9827.57341s-.6512.96865-.6511,1.75912c-.0001.7192.2202,1.28937.6608,1.71052s1.0367.63173 1.7883.63173 1.3444-.23001 1.798-.69004c.46-.46003.69-1.05936.69-1.79799m1.7883-3.20723v5.42313h1.5939v1.0302h-3.3822v-1.11767c-.3952.47946-.852.83258-1.3703,1.05936s-1.1242.34016-1.8175.34016c-1.1468-1e-006-2.0571-.30452-2.731-.91358s-1.0107-1.43191-1.0107-2.4686c0-1.06907.3855-1.89842 1.1565-2.48803s1.8596-.88441 3.2656-.88442h2.5074v-.70948c0-.78398-.2397-1.38979-.7192-1.81743-.4729-.4341-1.1403-.65116-2.002-.65116-.7128,1e-005-1.2797.16199-1.7008.48594s-.6836.80344-.7873,1.43839h-.9233v-2.08956c.622-.26564 1.2246-.46326 1.8077-.59285 .5896-.13605 1.1631-.20409 1.7203-.2041 1.4319,1.1e-005 2.5204.35637 3.2655,1.06908s1.1274,1.73645 1.1274,3.0906"/>
<path d="m1142.8424,43.71838h-1.5745v-1.03992h1.5745v-3.20723h1.798v3.20723h3.3627v1.03992h-3.3627v6.56024c-.0001.8747.084,1.43516.2526,1.68137s.4795.36932.9331.36932c.4665,0 .8066-.13606 1.0204-.40819 .2138-.27861.3272-.72567.3402-1.34121h1.3509c-.052.93949-.3078,1.62629-.7678,2.0604s-1.1598.65116-2.0992.65116c-1.0303-1e-006-1.7592-.22677-2.1868-.68032-.4276-.46003-.6414-1.23754-.6414-2.33253v-6.56024"/>
<path d="m1159.4908,48.03357h-7.7071v.07775c0,1.39304.2624,2.44592.7873,3.15863s1.299,1.05936 2.3228,1.05936c.784,0 1.4254-.2041 1.9243-.61229 .5054-.41467.8585-1.02696 1.0594-1.83687h1.4384c-.2851,1.13387-.8132,1.98589-1.5842,2.55606-.7646.57017-1.7721.85526-3.0226.85526-1.5097-1e-006-2.7245-.49566-3.6446-1.48699-.9135-.9978-1.3703-2.31957-1.3703-3.9653 0-1.63277.4503-2.94805 1.3509-3.94587s2.0831-1.4967 3.5474-1.49671c1.5615,1.1e-005 2.7601.48272 3.596,1.44811 .8358.95894 1.2699,2.35521 1.3023,4.18884m-2.109-1.0302c-.039-1.20513-.2948-2.11223-.7678-2.72129-.4665-.61552-1.1403-.92328-2.0215-.92329-.8229,1e-005-1.4708.30777-1.9438.92329s-.7613,1.52263-.865,2.72129h5.5981"/>
<path d="m1162.5522,51.99887c0-.36284.1231-.6706.3694-.92329s.5604-.37903.9233-.37904 .6673.12635.9135.37904 .3791.56046.3791.92329-.1231.6706-.3694.92329-.5539.36932-.9232.36932-.6771-.12311-.9233-.36932-.3694-.56045-.3694-.92329m0-6.33671c0-.36283.1231-.66736.3694-.91357s.5604-.37903.9233-.37904c.3693,9e-006 .677.12312.9232.36932s.3694.55398.3694.92329-.1231.67709-.3694.92329-.5539.36932-.9232.36932c-.3629,6e-006-.6706-.1231-.9233-.36932s-.3694-.56045-.3694-.92329"/>
</g>
<g font-family="Sans" font-size="19.90426" letter-spacing="0" word-spacing="0">
<path d="m1537.96,53.58318h1.8077c1.8855,1e-006 3.3303-.53778 4.3346-1.61333 1.0108-1.07555 1.5162-2.61761 1.5162-4.62619s-.5022-3.54414-1.5065-4.60675-2.4524-1.59388-4.3443-1.5939h-1.8077v12.44016m-3.8195,1.0302v-1.0302h1.8466v-12.44016h-1.8466v-1.03992h5.773c2.501,1.5e-005 4.448.63822 5.841,1.91462 1.3995,1.27642 2.0993,3.05174 2.0993,5.32594 0,2.2807-.6998,4.0625-2.0993,5.34538s-3.3465,1.92434-5.841,1.92434h-5.773"/>
<path d="m1556.941,51.36728v-2.18675h-2.3034c-.8877,6e-006-1.5486.19114-1.9827.57341s-.6511.96865-.6511,1.75912c0,.7192.2203,1.28937.6609,1.71052s1.0366.63173 1.7882.63173 1.3445-.23001 1.798-.69004c.46-.46003.69-1.05936.6901-1.79799m1.7882-3.20723v5.42313h1.5939v1.0302h-3.3821v-1.11767c-.3953.47947-.8521.83258-1.3704,1.05936s-1.1242.34016-1.8174.34016c-1.1469-1e-006-2.0572-.30452-2.731-.91358s-1.0108-1.43191-1.0108-2.4686c0-1.06907.3855-1.89842 1.1565-2.48803s1.8596-.88441 3.2656-.88442h2.5075v-.70948c-.0001-.78398-.2398-1.38979-.7192-1.81743-.473-.4341-1.1404-.65116-2.0021-.65116-.7128,1e-005-1.2797.16199-1.7008.48594s-.6836.80344-.7873,1.43839h-.9233v-2.08956c.6221-.26564 1.2246-.46326 1.8078-.59285 .5896-.13605 1.163-.20409 1.7202-.2041 1.4319,1.1e-005 2.5204.35637 3.2655,1.06908s1.1274,1.73645 1.1274,3.0906"/>
<path d="m1563.025,45.32214h-1.5745v-1.03992h1.5745v-3.20723h1.798v3.20723h3.3627v1.03992h-3.3627v6.56024c0,.8747.084,1.43516.2527,1.68137s.4794.36932.933.36932c.4665,0 .8066-.13606 1.0205-.40819 .2138-.27861.3271-.72567.3401-1.34121h1.3509c-.052.93949-.3077,1.62629-.7678,2.0604s-1.1597.65116-2.0992.65116c-1.0302-1e-006-1.7592-.22677-2.1868-.68032-.4276-.46003-.6414-1.23754-.6414-2.33253v-6.56024"/>
<path d="m1579.6734,49.63732h-7.7071v.07775c0,1.39304.2625,2.44592.7873,3.15863s1.2991,1.05936 2.3228,1.05936c.784,0 1.4254-.2041 1.9243-.61229 .5054-.41467.8585-1.02696 1.0594-1.83687h1.4384c-.2851,1.13387-.8132,1.98589-1.5842,2.55606-.7646.57017-1.7721.85526-3.0226.85526-1.5096-1e-006-2.7245-.49566-3.6446-1.48699-.9135-.9978-1.3703-2.31957-1.3703-3.9653 0-1.63277.4503-2.94805 1.3509-3.94586s2.0831-1.4967 3.5474-1.49671c1.5615,1.1e-005 2.7602.48272 3.596,1.44811 .8358.95894 1.2699,2.35521 1.3023,4.18884m-2.109-1.0302c-.039-1.20513-.2948-2.11223-.7678-2.72129-.4665-.61552-1.1403-.92328-2.0215-.92329-.8229,1e-005-1.4708.30777-1.9438.92329s-.7613,1.52263-.865,2.72129h5.5981"/>
<path d="m1582.7349,53.60262c0-.36284.1231-.6706.3693-.92329s.5604-.37903.9233-.37904 .6673.12635.9135.37904 .3791.56046.3791.92329-.1231.6706-.3693.92329-.554.36932-.9233.36932-.6771-.12311-.9233-.36932-.3693-.56045-.3693-.92329m0-6.33671c0-.36283.1231-.66736.3693-.91357s.5604-.37903.9233-.37904c.3693,8e-006 .6771.12311.9233.36932s.3693.55398.3693.92329-.1231.67709-.3693.92329-.554.36932-.9233.36932c-.3629,6e-006-.6706-.1231-.9233-.36932s-.3693-.56045-.3693-.92329"/>
</g>
<g font-family="Sans" font-size="40" letter-spacing="0" word-spacing="0">
<path d="m903.19995,647.5119 4.30664,11.19141 4.29688-11.19141h-1.64063v-1.04492h4.27735v1.04492h-1.41602l-5.20508,13.53516h-1.67969l-5.17578-13.53516h-1.45508v-1.04492h5.3125v1.04492h-1.62109"/>
<path d="m923.16089,656.04706h-7.74414v.0781c-1e-005,1.39975.26367,2.45769.79101,3.17383 .52734.70964 1.30534,1.06446 2.33399,1.06445 .78775,1e-005 1.43228-.20507 1.93359-.61523 .50781-.41666.86262-1.0319 1.06445-1.8457h1.44532c-.28647,1.13932-.81707,1.99544-1.5918,2.56836s-1.78061.85937-3.03711.85937c-1.51693,0-2.73763-.49805-3.66211-1.49414s-1.37695-2.33073-1.37695-3.98437c0-1.64062.45247-2.96224 1.35742-3.96485s2.0931-1.50389 3.56445-1.5039c1.56901,1e-005 2.77343.48503 3.61328,1.45507 .83984.96355 1.27604,2.36655 1.3086,4.20899m-2.11914-1.03516c-.0391-1.21093-.29623-2.12239-.77149-2.73437-.46875-.61848-1.14584-.92773-2.03125-.92774-.82682,1e-005-1.47787.30926-1.95312.92774s-.76498,1.52995-.86914,2.73437h5.625"/>
<path d="m933.71753,650.64667v2.59765h-1.03516c-.0326-.51431-.17579-.89843-.42968-1.15234s-.62501-.38085-1.11329-.38086c-.88542,1e-005-1.56576.306-2.04101.91797-.46876.61199-.70313,1.49089-.70313,2.63672v4.74609h2.08008v1.03516h-5.49805v-1.03516h1.6211v-8.32031h-1.71875v-1.02539h3.51562v1.8457c.35156-.72265.80404-1.2565 1.35743-1.60156s1.2272-.52733 2.02148-.52734c.29296,1e-005 .59895.0228.91797.0684 .32551.0456.66731.11069 1.02539.19532"/>
<path d="m935.67065,647.44354c0-.29946.10742-.55988.32227-.78125 .22135-.22134.48502-.33201.79102-.33203 .29947,2e-005 .55663.11069.77148.33203 .22135.22137.33203.48179.33203.78125 0,.30601-.10742.56642-.32226.78125s-.47527.32228-.78125.32227-.56967-.10741-.79102-.32227c-.21485-.21483-.32227-.47524-.32227-.78125m2.29493,12.56836h1.69921v1.03516h-5.21484v-1.03516h1.71875v-8.30078h-1.71875v-1.04492h3.51563v9.3457"/>
<path d="m950.59253,648.48846-.91797-.01c-.0195-.55988-.22787-.97655-.625-1.25-.39714-.27994-.9961-.41991-1.79687-.41992-.9961,1e-005-1.72527.23113-2.1875.69336s-.69337,1.19141-.69336,2.1875v.97656h6.94336v9.3457h1.69921v1.03516h-5.22461v-1.03516h1.72852v-8.30078h-5.14648v8.30078h1.69921v1.03516h-5.21484v-1.03516h1.71875v-8.30078h-1.71875v-1.04492h1.71875v-.9375c0-1.28254.38086-2.24934 1.14258-2.90039s1.88801-.97655 3.37891-.97656c.56639,1e-005 1.14582.0423 1.73828.12695s1.17837.21486 1.75781.39062v2.11914"/>
<path d="m964.33276,656.04706h-7.74414v.0781c0,1.39975.26367,2.45769.79102,3.17383 .52734.70964 1.30533,1.06446 2.33398,1.06445 .78776,1e-005 1.43229-.20507 1.9336-.61523 .5078-.41666.86262-1.0319 1.06445-1.8457h1.44531c-.28647,1.13932-.81706,1.99544-1.59179,2.56836s-1.78061.85937-3.03711.85937c-1.51694,0-2.73764-.49805-3.66211-1.49414s-1.37696-2.33073-1.37696-3.98437c0-1.64062.45248-2.96224 1.35743-3.96485s2.09309-1.50389 3.56445-1.5039c1.569,1e-005 2.77343.48503 3.61328,1.45507 .83983.96355 1.27603,2.36655 1.30859,4.20899m-2.11914-1.03516c-.0391-1.21093-.29623-2.12239-.77148-2.73437-.46876-.61848-1.14584-.92773-2.03125-.92774-.82683,1e-005-1.47787.30926-1.95313.92774s-.76497,1.52995-.86914,2.73437h5.625"/>
<path d="m975.8269,660.0119h1.71875v1.03516h-3.51562v-1.6211c-.35157.65105-.80079,1.13282-1.34766,1.44532-.54037.30599-1.21094.45898-2.01172.45898-1.27604,0-2.32096-.50456-3.13476-1.51367-.80729-1.01562-1.21094-2.33724-1.21094-3.96484s.40365-2.94596 1.21094-3.95508 1.85221-1.51366 3.13476-1.51367c.80078,1e-005 1.47135.15626 2.01172.46875 .54687.306.99609.78451 1.34766,1.43554v-5.40039h-1.69922v-1.03515h3.49609v14.16015m-1.79687-3.64258v-1.02539c-1e-005-1.24348-.24089-2.194-.72266-2.85156s-1.16862-.98632-2.08008-.98633c-.92448,1e-005-1.62435.36459-2.0996,1.09375-.46876.72918-.70313,1.81316-.70313,3.25196 0,1.43229.23437,2.51627.70313,3.25195 .47525.73568 1.17512,1.10352 2.0996,1.10351 .91146,1e-005 1.60482-.32552 2.08008-.97656 .48177-.65755.72265-1.61132.72266-2.86133"/>
<path d="m989.44995,660.0119h2.91992c1.17187,0 2.02799-.2539 2.56836-.76172s.81054-1.3151.81055-2.42187c-1e-005-1.10026-.27019-1.90104-.81055-2.40235-.53386-.5078-1.38998-.76171-2.56836-.76171h-2.91992v6.34765m0-7.38281h2.48047c1.0677,1e-005 1.84569-.20507 2.33398-.61524s.74218-1.05793.74219-1.94335-.2474-1.53971-.74219-1.94336c-.48829-.41015-1.26628-.61522-2.33398-.61524h-2.48047v5.11719m-3.83789,8.41797v-1.03516h1.85547v-12.5h-1.85547v-1.04492h7.19727c1.47134,1e-005 2.57811.30275 3.32031.9082 .74868.59897 1.12303,1.49741 1.12305,2.69532-2e-005,.86589-.26043,1.55599-.78125,2.07031-.51434.51433-1.26955.83008-2.26563.94726 1.23697.15626 2.17447.5534 2.8125,1.19141 .64452.63152.96678,1.48113.9668,2.54883-2e-005,1.44531-.45574,2.50977-1.36719,3.19336s-2.33399,1.02539-4.26758,1.02539h-6.73828"/>
<path d="m1003.5125,662.95135 .6835-1.72851-3.8769-9.51172h-1.18165v-1.04492h4.77535v1.04492h-1.6601l2.9199,7.13867 2.9199-7.13867h-1.5527v-1.04492h3.8965v1.04492h-1.1621l-4.7559,11.67969c-.3255.80729-.6868,1.35742-1.084,1.65039-.3971.29947-.957.44921-1.6797.44922-.306-1e-005-.6217-.026-.9472-.0781-.319-.0521-.6413-.12695-.96682-.22461v-1.98242h.91792c.039.44271.1498.75846.3321.94727 .1888.19531.4785.29296.8691.29297 .3581-1e-005 .6445-.10092.8594-.30274 .2213-.19531.4525-.59245.6934-1.19141"/>
<path d="m1012.5652,660.03143c0-.36458.1237-.67382.3711-.92773s.5631-.38086.9277-.38086 .6706.12695.918.38086 .3808.56315.3808.92773-.1237.67383-.3711.92774-.5566.37109-.9277.37109-.6803-.1237-.9277-.37109-.3711-.56315-.3711-.92774m0-6.36718c0-.36458.1237-.67057.3711-.91797s.5631-.38085.9277-.38086c.3711,1e-005 .6803.1237.9277.37109s.3711.55665.3711.92774-.1237.68034-.3711.92773-.5566.3711-.9277.37109c-.3646,1e-005-.6738-.12369-.9277-.37109s-.3711-.56314-.3711-.92773"/>
<path d="m1101.8718,660.34393v-3.32031l1.1231.01c.033,1.10677.3515,1.92708.957,2.46093s1.5397.79102 2.7832.79102c1.1589,0 2.041-.22786 2.6465-.68359s.918-1.13281.918-2.01172c0-.70312-.1856-1.24349-.5567-1.6211-.3646-.3776-1.1393-.74543-2.3242-1.10351l-1.9238-.57617c-1.3933-.42317-2.3763-.95052-2.9492-1.58204s-.8497-1.49738-.8497-2.59765c0-1.23697.4395-2.19725 1.3184-2.88086s2.1126-1.02538 3.7012-1.02539c.6771,1e-005 1.4192.0749 2.2265.22461 .8073.14324 1.6667.35483 2.5782.63476v3.10547h-1.1036c-.1106-1.02863-.4557-1.77082-1.0351-2.22656-.5729-.46223-1.4486-.69335-2.627-.69336-1.0286,1e-005-1.8131.2116-2.3535.63477-.5338.41668-.8008,1.0254-.8008,1.82617 0,.69662.2019,1.2435.6055,1.64062s1.2598.79103 2.5684,1.18164l1.8066.53711c1.3216.39715 2.2624.90496 2.8223,1.52344 .5664.61198.8496,1.43555.8496,2.4707 0,1.41277-.4525,2.47722-1.3574,3.19336-.905.71615-2.2526,1.07422-4.043,1.07422-.8008,0-1.6178-.0814-2.4512-.24414s-1.6699-.41016-2.5293-.74219"/>
<path d="m1115.6707,647.44354c0-.29946.1074-.55988.3222-.78125 .2214-.22134.485-.33201.791-.33203 .2995,2e-005 .5567.11069.7715.33203 .2214.22137.332.48179.3321.78125-.0001.30601-.1075.56642-.3223.78125s-.4753.32228-.7813.32227-.5696-.10741-.791-.32227c-.2148-.21483-.3222-.47524-.3222-.78125m2.2949,12.56836h1.6992v1.03516h-5.2148v-1.03516h1.7187v-8.30078h-1.7187v-1.04492h3.5156v9.3457"/>
<path d="m1130.6316,651.71112v9.11133c0,1.49088-.4102,2.63997-1.2305,3.44726s-1.9889,1.2207-3.5058,1.22071c-.6836-1e-005-1.3379-.0619-1.9629-.18555s-1.224-.30925-1.7969-.55664v-2.17773h.9375c.1172.67708.3939,1.17187.8301,1.48437s1.0612.46875 1.875.46875c1.0547,0 1.8261-.29948 2.3144-.89844 .4948-.59245.7422-1.52669.7422-2.80273v-1.39649c-.3516.65105-.8008,1.13282-1.3476,1.44532-.5404.30599-1.211.45898-2.0118.45898-1.276,0-2.3209-.50456-3.1347-1.51367-.8073-1.01562-1.211-2.33724-1.211-3.96484s.4037-2.94596 1.211-3.95508 1.8522-1.51366 3.1347-1.51367c.8008,1e-005 1.4714.15626 2.0118.46875 .5468.306.996.78451 1.3476,1.43554v-1.62109h3.5156v1.04492h-1.7187m-1.7969,3.63281c0-1.24348-.2409-2.194-.7226-2.85156s-1.1687-.98632-2.0801-.98633c-.9245,1e-005-1.6244.36459-2.0996,1.09375-.4688.72918-.7032,1.81316-.7032,3.25196 0,1.43229.2344,2.51627.7032,3.25195 .4752.73568 1.1751,1.10352 2.0996,1.10351 .9114,1e-005 1.6048-.32552 2.0801-.97656 .4817-.65755.7226-1.61132.7226-2.86133v-1.02539"/>
<path d="m1133.7664,661.04706v-1.03516h1.6211v-8.30078h-1.7188v-1.04492h3.5156v1.8457c.3321-.70311.7617-1.23371 1.2891-1.5918s1.1523-.53709 1.8555-.5371c1.1458,1e-005 1.9889.32878 2.5293.98632s.8105,1.68295.8105,3.07618v5.5664h1.6016v1.03516h-4.961v-1.03516h1.5528v-5c0-1.26952-.1563-2.13866-.4688-2.60742-.3125-.47525-.8626-.71288-1.6504-.71289-.8333,1e-005-1.4681.306-1.9043.91797s-.6543,1.49089-.6543,2.65625v4.74609h1.5625v1.03516h-4.9804"/>
<path d="m1147.9167,660.03143c0-.36458.1237-.67382.3711-.92773s.5632-.38086.9278-.38086 .6705.12695.9179.38086 .3809.56315.3809.92773-.1237.67383-.3711.92774-.5566.37109-.9277.37109-.6804-.1237-.9278-.37109-.3711-.56315-.3711-.92774m0-6.36718c0-.36458.1237-.67057.3711-.91797s.5632-.38085.9278-.38086c.3711,1e-005 .6803.1237.9277.37109s.3711.55665.3711.92774-.1237.68034-.3711.92773-.5566.3711-.9277.37109c-.3646,1e-005-.6739-.12369-.9278-.37109s-.3711-.56314-.3711-.92773"/>
</g>
<g font-family="Sans" font-size="40" letter-spacing="0" word-spacing="0">
<path d="m1360.2688,650.71942 4.3066,11.19141 4.2969-11.19141h-1.6406v-1.04492h4.2773v1.04492h-1.416l-5.2051,13.53516h-1.6796l-5.1758-13.53516h-1.4551v-1.04492h5.3125v1.04492h-1.6211"/>
<path d="m1380.2297,659.25458h-7.7441v.0781c0,1.39975.2637,2.45769.791,3.17383 .5274.70964 1.3053,1.06445 2.334,1.06445 .7877,0 1.4323-.20507 1.9336-.61523 .5078-.41667.8626-1.0319 1.0644-1.8457h1.4454c-.2865,1.13932-.8171,1.99544-1.5918,2.56836s-1.7806.85937-3.0372.85937c-1.5169,0-2.7376-.49805-3.6621-1.49414s-1.3769-2.33073-1.3769-3.98437c0-1.64062.4525-2.96224 1.3574-3.96485 .905-1.00259 2.0931-1.50389 3.5645-1.5039 1.569,1e-005 2.7734.48503 3.6132,1.45507 .8399.96355 1.2761,2.36655 1.3086,4.20899m-2.1191-1.03516c-.039-1.21093-.2962-2.12239-.7715-2.73437-.4687-.61848-1.1458-.92773-2.0312-.92774-.8269,1e-005-1.4779.30926-1.9532.92774s-.7649,1.52995-.8691,2.73437h5.625"/>
<path d="m1390.7864,653.85419v2.59765h-1.0352c-.033-.51431-.1758-.89843-.4297-1.15234s-.625-.38085-1.1132-.38086c-.8855,1e-005-1.5658.306-2.0411.91797-.4687.61199-.7031,1.49089-.7031,2.63672v4.74609h2.0801v1.03516h-5.4981v-1.03516h1.6211v-8.32031h-1.7187v-1.02539h3.5156v1.8457c.3516-.72265.804-1.2565 1.3574-1.60156s1.2272-.52733 2.0215-.52734c.293,1e-005 .599.0228.918.0684 .3255.0456.6673.11069 1.0254.19532"/>
<path d="m1392.7395,650.65106c0-.29946.1074-.55988.3223-.78125 .2213-.22134.485-.33201.791-.33203 .2995,2e-005 .5566.11069.7715.33203 .2213.22137.332.48179.332.78125 0,.306-.1074.56642-.3223.78125s-.4752.32228-.7812.32227-.5697-.10741-.791-.32227c-.2149-.21483-.3223-.47525-.3223-.78125m2.2949,12.56836h1.6992v1.03516h-5.2148v-1.03516h1.7187v-8.30078h-1.7187v-1.04492h3.5156v9.3457"/>
<path d="m1407.6614,651.69598-.918-.01c-.02-.55988-.2279-.97655-.625-1.25-.3971-.27994-.9961-.41991-1.7969-.41992-.9961,1e-005-1.7252.23113-2.1875.69336s-.6933,1.19141-.6933,2.1875v.97656h6.9433v9.3457h1.6993v1.03516h-5.2247v-1.03516h1.7286v-8.30078h-5.1465v8.30078h1.6992v1.03516h-5.2149v-1.03516h1.7188v-8.30078h-1.7188v-1.04492h1.7188v-.9375c0-1.28254.3809-2.24934 1.1426-2.90039s1.888-.97655 3.3789-.97656c.5664,1e-005 1.1458.0423 1.7383.12695s1.1783.21486 1.7578.39062v2.11914"/>
<path d="m1421.4016,659.25458h-7.7441v.0781c0,1.39975.2636,2.45769.791,3.17383 .5273.70964 1.3053,1.06445 2.334,1.06445 .7877,0 1.4323-.20507 1.9336-.61523 .5078-.41667.8626-1.0319 1.0644-1.8457h1.4453c-.2864,1.13932-.817,1.99544-1.5918,2.56836s-1.7806.85937-3.0371.85937c-1.5169,0-2.7376-.49805-3.6621-1.49414s-1.3769-2.33073-1.3769-3.98437c0-1.64062.4524-2.96224 1.3574-3.96485s2.0931-1.50389 3.5644-1.5039c1.569,1e-005 2.7735.48503 3.6133,1.45507 .8399.96355 1.276,2.36655 1.3086,4.20899m-2.1191-1.03516c-.039-1.21093-.2963-2.12239-.7715-2.73437-.4688-.61848-1.1459-.92773-2.0313-.92774-.8268,1e-005-1.4778.30926-1.9531.92774s-.765,1.52995-.8691,2.73437h5.625"/>
<path d="m1432.8958,663.21942h1.7187v1.03516h-3.5156v-1.6211c-.3516.65105-.8008,1.13282-1.3477,1.44532-.5404.30599-1.2109.45898-2.0117.45898-1.276,0-2.321-.50456-3.1348-1.51367-.8073-1.01562-1.2109-2.33724-1.2109-3.96484s.4036-2.94596 1.2109-3.95508 1.8522-1.51366 3.1348-1.51367c.8008,1e-005 1.4713.15626 2.0117.46875 .5469.30599.9961.78451 1.3477,1.43554v-5.40039h-1.6992v-1.03515h3.4961v14.16015m-1.7969-3.64258v-1.02539c0-1.24348-.2409-2.194-.7227-2.85156s-1.1686-.98632-2.0801-.98633c-.9244,1e-005-1.6243.36459-2.0996,1.09375-.4687.72918-.7031,1.81316-.7031,3.25196 0,1.43229.2344,2.51627.7031,3.25195 .4753.73568 1.1752,1.10351 2.0996,1.10351 .9115,0 1.6049-.32552 2.0801-.97656 .4818-.65755.7227-1.61132.7227-2.86133"/>
<path d="m1446.5188,663.21942h2.9199c1.1719,0 2.028-.2539 2.5684-.76172s.8105-1.3151.8105-2.42187c0-1.10026-.2702-1.90104-.8105-2.40235-.5339-.5078-1.39-.76171-2.5684-.76171h-2.9199v6.34765m0-7.38281h2.4805c1.0677,1e-005 1.8457-.20507 2.334-.61524s.7421-1.05793.7421-1.94335-.2474-1.53971-.7421-1.94336c-.4883-.41015-1.2663-.61523-2.334-.61524h-2.4805v5.11719m-3.8379,8.41797v-1.03516h1.8555v-12.5h-1.8555v-1.04492h7.1973c1.4713,1e-005 2.5781.30275 3.3203.9082 .7487.59897 1.123,1.49741 1.123,2.69532 0,.86589-.2604,1.55599-.7812,2.07031-.5144.51433-1.2696.83008-2.2656.94726 1.2369.15626 2.1744.5534 2.8125,1.19141 .6445.63152.9667,1.48112.9668,2.54883-.0001,1.44531-.4558,2.50976-1.3672,3.19336s-2.334,1.02539-4.2676,1.02539h-6.7383"/>
<path d="m1460.5813,666.15887 .6836-1.72851-3.877-9.51172h-1.1816v-1.04492h4.7754v1.04492h-1.6602l2.92,7.13867 2.9199-7.13867h-1.5528v-1.04492h3.8965v1.04492h-1.1621l-4.7558,11.67969c-.3256.80729-.6869,1.35742-1.084,1.65039-.3972.29947-.9571.44921-1.6797.44922-.306-1e-005-.6218-.0261-.9473-.0781-.319-.0521-.6413-.12696-.9668-.22461v-1.98242h.918c.039.44271.1497.75846.332.94727 .1888.19531.4785.29296.8692.29297 .358-1e-005 .6445-.10092.8593-.30274 .2214-.19531.4525-.59245.6934-1.19141"/>
<path d="m1469.634,663.23895c0-.36458.1237-.67382.3711-.92773s.5632-.38086.9278-.38086 .6705.12695.9179.38086 .3809.56315.3809.92773-.1237.67383-.3711.92774-.5566.37109-.9277.37109-.6804-.1237-.9278-.37109-.3711-.56315-.3711-.92774m0-6.36718c0-.36458.1237-.67057.3711-.91797s.5632-.38085.9278-.38086c.3711,1e-005 .6803.1237.9277.37109s.3711.55665.3711.92774-.1237.68034-.3711.92773-.5566.3711-.9277.37109c-.3646,1e-005-.6739-.12369-.9278-.37109s-.3711-.56314-.3711-.92773"/>
<path d="m1558.9407,663.55145v-3.32031l1.123.01c.033,1.10677.3516,1.92708.9571,2.46093s1.5397.79102 2.7832.79102c1.1588,0 2.041-.22786 2.6464-.68359s.918-1.13281.918-2.01172c0-.70312-.1855-1.24349-.5566-1.6211-.3646-.3776-1.1394-.74543-2.3243-1.10351l-1.9238-.57617c-1.3932-.42317-2.3763-.95052-2.9492-1.58204s-.8496-1.49738-.8496-2.59765c0-1.23697.4394-2.19725 1.3184-2.88086s2.1126-1.02538 3.7011-1.02539c.6771,1e-005 1.4193.0749 2.2266.22461 .8073.14324 1.6666.35483 2.5781.63476v3.10547h-1.1035c-.1107-1.02863-.4557-1.77082-1.0352-2.22656-.5729-.46223-1.4485-.69335-2.6269-.69336-1.0287,1e-005-1.8132.2116-2.3535.63477-.5339.41667-.8008,1.0254-.8008,1.82617 0,.69662.2018,1.2435.6055,1.64062s1.2597.79103 2.5683,1.18164l1.8067.53711c1.3216.39715 2.2623.90496 2.8222,1.52344 .5664.61198.8496,1.43555.8496,2.4707 0,1.41277-.4525,2.47722-1.3574,3.19336s-2.2526,1.07422-4.043,1.07422c-.8007,0-1.6178-.0814-2.4511-.24414s-1.67-.41016-2.5293-.74219"/>
<path d="m1572.7395,650.65106c0-.29946.1074-.55988.3223-.78125 .2213-.22134.485-.33201.791-.33203 .2995,2e-005 .5566.11069.7715.33203 .2213.22137.332.48179.332.78125 0,.306-.1074.56642-.3223.78125s-.4752.32228-.7812.32227-.5697-.10741-.791-.32227c-.2149-.21483-.3223-.47525-.3223-.78125m2.2949,12.56836h1.6992v1.03516h-5.2148v-1.03516h1.7187v-8.30078h-1.7187v-1.04492h3.5156v9.3457"/>
<path d="m1587.7004,654.91864v9.11133c0,1.49088-.4101,2.63997-1.2304,3.44726s-1.989,1.2207-3.5059,1.22071c-.6836-1e-005-1.3379-.0619-1.9629-.18555s-1.2239-.30925-1.7969-.55664v-2.17773h.9375c.1172.67708.3939,1.17187.8301,1.48437s1.0612.46875 1.875.46875c1.0547,0 1.8262-.29948 2.3145-.89844 .4948-.59245.7422-1.52669.7422-2.80273v-1.39649c-.3516.65105-.8008,1.13282-1.3477,1.44532-.5404.30599-1.2109.45898-2.0117.45898-1.2761,0-2.321-.50456-3.1348-1.51367-.8073-1.01562-1.2109-2.33724-1.2109-3.96484s.4036-2.94596 1.2109-3.95508 1.8522-1.51366 3.1348-1.51367c.8008,1e-005 1.4713.15626 2.0117.46875 .5469.30599.9961.78451 1.3477,1.43554v-1.62109h3.5156v1.04492h-1.7188m-1.7968,3.63281c0-1.24348-.2409-2.194-.7227-2.85156s-1.1686-.98632-2.0801-.98633c-.9245,1e-005-1.6243.36459-2.0996,1.09375-.4687.72918-.7031,1.81316-.7031,3.25196 0,1.43229.2344,2.51627.7031,3.25195 .4753.73568 1.1751,1.10351 2.0996,1.10351 .9115,0 1.6048-.32552 2.0801-.97656 .4818-.65755.7227-1.61132.7227-2.86133v-1.02539"/>
<path d="m1590.8352,664.25458v-1.03516h1.6211v-8.30078h-1.7188v-1.04492h3.5157v1.8457c.332-.70311.7617-1.23371 1.289-1.5918s1.1524-.53709 1.8555-.5371c1.1458,1e-005 1.9889.32878 2.5293.98632s.8105,1.68295.8105,3.07618v5.5664h1.6016v1.03516h-4.9609v-1.03516h1.5527v-5c0-1.26952-.1563-2.13866-.4687-2.60742-.3125-.47525-.8627-.71288-1.6504-.71289-.8334,1e-005-1.4681.306-1.9043.91797s-.6543,1.49089-.6543,2.65625v4.74609h1.5625v1.03516h-4.9805"/>
<path d="m1604.9856,663.23895c0-.36458.1237-.67382.3711-.92773s.5631-.38086.9277-.38086 .6706.12695.918.38086 .3808.56315.3809.92773-.1238.67383-.3711.92774-.5567.37109-.9278.37109-.6803-.1237-.9277-.37109-.3711-.56315-.3711-.92774m0-6.36718c0-.36458.1237-.67057.3711-.91797s.5631-.38085.9277-.38086c.3711,1e-005 .6804.1237.9278.37109s.371.55665.3711.92774-.1238.68034-.3711.92773-.5567.3711-.9278.37109c-.3646,1e-005-.6738-.12369-.9277-.37109s-.3711-.56314-.3711-.92773"/>
</g>
</g>
</g>
</svg>
