<?xml version="1.0" encoding="UTF-8" standalone="no"?>
<svg id="svg2" xmlns:rdf="http://www.w3.org/1999/02/22-rdf-syntax-ns#" xmlns="http://www.w3.org/2000/svg" height="50" width="50" version="1.1" xmlns:cc="http://creativecommons.org/ns#" xmlns:xlink="http://www.w3.org/1999/xlink" viewBox="0 0 50.000001 50.000001" xmlns:dc="http://purl.org/dc/elements/1.1/">
 <defs id="defs4">
  <filter id="filter4459">
   <feGaussianBlur id="feGaussianBlur4461" stdDeviation="0.7084166"/>
  </filter>
  <linearGradient id="linearGradient4552" y2="26.451" gradientUnits="userSpaceOnUse" x2="37.931" gradientTransform="matrix(.57895 0 0 .79348 12.436 1008.1)" y1="26.451" x1="31.925">
   <stop id="stop4497" offset="0"/>
   <stop id="stop4499" stop-color="#2e0202" offset="1"/>
  </linearGradient>
  <linearGradient id="linearGradient4554" y2="35.779" gradientUnits="userSpaceOnUse" x2="35.705" gradientTransform="matrix(-1 -.0030608 .0030608 1.7363 66.1 978.58)" y1="35.779" x1="31.403">
   <stop id="stop4507" stop-color="#ffc333" offset="0"/>
   <stop id="stop4509" stop-color="#775400" offset="1"/>
  </linearGradient>
  <linearGradient id="linearGradient4556" y2="35.779" gradientUnits="userSpaceOnUse" x2="35.705" gradientTransform="matrix(-1 -.0027207 -.0027207 -1.6545 66.312 1076.7)" y1="35.779" x1="31.403">
   <stop id="stop4507-3" stop-color="#ffc333" offset="0"/>
   <stop id="stop4509-6" stop-color="#775400" offset="1"/>
  </linearGradient>
  <filter id="filter4560" height="2.6393" width="1.4143" y="-.81967" x="-.20717">
   <feGaussianBlur id="feGaussianBlur4562" stdDeviation="0.21946047"/>
  </filter>
  <radialGradient id="radialGradient4569" gradientUnits="userSpaceOnUse" cy="15.502" cx="3.9062" gradientTransform="matrix(-.21470 1.4746 -1.3715 -.19521 26.753 7.7881)" r="21.52">
   <stop id="stop4485" stop-color="#add4f5" stop-opacity="0" offset="0"/>
   <stop id="stop4487" stop-color="#add4f5" offset="1"/>
  </radialGradient>
  <linearGradient id="linearGradient4573" y2="31.911" gradientUnits="userSpaceOnUse" x2="17.467" y1=".097902" x1="-19.605">
   <stop id="stop4465" stop-color="#fff" offset="0"/>
   <stop id="stop4471" stop-color="#f1ec99" stop-opacity="0" offset=".75824"/>
   <stop id="stop4467" stop-color="#fff" offset="1"/>
  </linearGradient>
 </defs>
 <g id="layer1" transform="translate(0 -1002.4)">
  <g id="g4547" transform="matrix(1.2511 -1.1003 .64051 .73515 -663.44 320.19)">
   <rect id="rect4493" height="23.074" width="3.477" y="1017.6" x="30.919" fill="url(#linearGradient4552)"/>
   <path id="path4503" d="m34.804 1039.3-4.3026-0.013 0.61927 2.6212 3.0733 0.01z" fill="url(#linearGradient4554)"/>
   <path id="path4503-7" d="m34.813 1018.6-4.3026-0.012 0.61055-2.4943 3.0733 0.01z" fill="url(#linearGradient4556)"/>
  </g>
  <rect id="rect4558" transform="matrix(1.3072 -1.2411 1.1123 1.4585 -28.731 1025.2)" height=".64259" filter="url(#filter4560)" width="2.5424" y="23.961" x="21.988" fill="#483300"/>
  <g id="g4564" transform="matrix(1.3151 0 0 1.3151 -5.7057 -317.43)">
   <path id="path4481" d="m33.505 19.418c0 11.478-9.4109 20.783-21.02 20.783s-21.02-9.3048-21.02-20.783 9.4109-20.783 21.02-20.783 21.02 9.3048 21.02 20.783z" transform="matrix(.51819 0 0 .52410 11.772 1005.7)" stroke="#865912" fill="url(#radialGradient4569)"/>
   <path id="path4404" d="m18.362 1003.9c-6.7891 0-12.293 5.5036-12.293 12.293 0 6.789 5.5036 12.293 12.293 12.293 6.7891 0 12.293-5.5037 12.293-12.293 0-6.7891-5.5036-12.293-12.293-12.293zm0 2.7316c5.2804 0 9.561 4.2807 9.561 9.5611 0 5.2803-4.2806 9.561-9.561 9.561s-9.561-4.2807-9.561-9.561c0-5.2804 4.2806-9.5611 9.561-9.5611z" stroke-width="0" fill="#e8c41e"/>
   <path id="path4445" d="m22.857 17.411c0 12.18-10.074 22.054-22.5 22.054s-22.5-9.8737-22.5-22.054 10.074-22.054 22.5-22.054 22.5 9.8737 22.5 22.054z" transform="matrix(.48439 0 0 .49126 17.951 1007.4)" filter="url(#filter4459)" stroke="url(#linearGradient4573)" fill="none"/>
  </g>
 </g>
</svg>
