<?xml version="1.0" encoding="UTF-8"?>
<!DOCTYPE svg  PUBLIC '-//W3C//DTD SVG 1.1//EN'  'http://www.w3.org/Graphics/SVG/1.1/DTD/svg11.dtd'>
<svg clip-rule="evenodd" fill-rule="evenodd" image-rendering="optimizeQuality" shape-rendering="geometricPrecision" text-rendering="geometricPrecision" viewBox="0 0 1920 1500" xml:space="preserve" xmlns="http://www.w3.org/2000/svg">
 <defs>
  <style type="text/css">
    .fil4 {fill:#2B2A29}
    .fil2 {fill:#434242}
    .fil6 {fill:#898989}
    .fil3 {fill:#C5C6C6}
    .fil7 {fill:#FEFEFE}
    .fil5 {fill:black}
    .fil8 {fill:url(#d)}
    .fil1 {fill:url(#e)}
    .fil0 {fill:url(#f)}
  </style>
  <linearGradient id="d" x1="959.5" x2="959.5" y1="1484.4" y2="1497.9" gradientUnits="userSpaceOnUse">
   <stop stop-color="#5B5B5B" offset="0"/>
   <stop stop-color="#434242" offset="1"/>
  </linearGradient>
  <linearGradient id="e" x1="960" x2="960" y1="1217" y2="1360.2" gradientUnits="userSpaceOnUse">
   <stop stop-color="#9D9E9E" offset="0"/>
   <stop stop-color="#D9DADA" offset="1"/>
  </linearGradient>
  <linearGradient id="f" x1="959.97" x2="959.97" y1="1395.7" y2="1466.8" gradientUnits="userSpaceOnUse">
   <stop stop-color="#D9DADA" offset="0"/>
   <stop stop-color="#9D9E9E" offset="1"/>
  </linearGradient>
 </defs>
  <path class="fil0" d="m711 1327h499c20 26 63 52 105 78 40 26 79 52 105 78h-923c37-26 75-52 115-78s81-52 99-78z"/>
  <path class="fil1" d="m1186 1090h-446c0 52 13 105-8 155-23 54-76 103-100 155 109-1 219-2 328-2h328c-23-51-73-100-94-154-20-50-7-103-7-154z"/>
  <rect class="fil2" width="1920" height="1186" rx="66" ry="66"/>
  <rect class="fil3" x="2" y="2" width="1916" height="1182" rx="66" ry="66"/>
  <path class="fil4" d="m69 2h1780c38 0 69 31 69 69v939h-1918v-939c0-38 31-69 69-69z"/>
  <rect class="fil5" x="50" y="51" width="1820" height="909"/>
  <rect class="fil6" x="54" y="55" width="1816" height="905"/>
  <rect class="fil7" x="54" y="55" width="1812" height="901"/>
  <path class="fil8" d="m497 1482h921v8c0 6-5 10-10 10h-900c-6 0-10-5-10-10v-8z"/>
</svg>
