<?xml version="1.0" encoding="UTF-8" standalone="no"?>
<!-- Created with Inkscape (http://www.inkscape.org/) -->

<svg
   xmlns:dc="http://purl.org/dc/elements/1.1/"
   xmlns:cc="http://creativecommons.org/ns#"
   xmlns:rdf="http://www.w3.org/1999/02/22-rdf-syntax-ns#"
   xmlns:svg="http://www.w3.org/2000/svg"
   xmlns="http://www.w3.org/2000/svg"
   xmlns:sodipodi="http://sodipodi.sourceforge.net/DTD/sodipodi-0.dtd"
   xmlns:inkscape="http://www.inkscape.org/namespaces/inkscape"
   version="1.1"
   id="svg2"
   xml:space="preserve"
   width="435.12888"
   height="61.49152"
   viewBox="0 0 435.12888 61.49152"
   sodipodi:docname="NetfabbLogo.svg"
   inkscape:version="0.92.1 r15371"><metadata
     id="metadata8"><rdf:RDF><cc:Work
         rdf:about=""><dc:format>image/svg+xml</dc:format><dc:type
           rdf:resource="http://purl.org/dc/dcmitype/StillImage" /><dc:title></dc:title></cc:Work></rdf:RDF></metadata><defs
     id="defs6"><clipPath
       clipPathUnits="userSpaceOnUse"
       id="clipPath20"><path
         d="M 370.566,774.316 H 553.324 V 976.937 H 370.566 Z"
         id="path18"
         inkscape:connector-curvature="0" /></clipPath><clipPath
       clipPathUnits="userSpaceOnUse"
       id="clipPath30"><path
         d="m 509.078,872.613 c 0,0 -0.476,-13.312 -8.215,-4.109 -9.07,10.789 -55.785,63.105 -58.789,66.996 -28.164,36.48 -63.785,41.438 -67.633,-3.477 -3.875,-45.214 -0.949,-128.632 -1.265,-148.539 l 2.215,-9.168 h 0.015 c -1.164,34.797 6.125,99.743 10.098,112.829 12.336,40.64 46.23,31 61.629,7.585 7.344,-11.164 15.383,-24.542 23.379,-38.468 4.976,-3.657 11.562,-8.004 23.715,-14.942 24.332,-13.906 31.101,-6.261 32.863,6.004 11.82,82.219 20.57,110.176 23.855,118.524 l -41.867,0.629 z"
         id="path28"
         inkscape:connector-curvature="0" /></clipPath><clipPath
       clipPathUnits="userSpaceOnUse"
       id="clipPath36"><path
         d="m 373.875,1001.14 204.262,-27.917 -30.5,-223.11 -204.262,27.922 z"
         id="path34"
         inkscape:connector-curvature="0" /></clipPath><radialGradient
       fx="0"
       fy="0"
       cx="0"
       cy="0"
       r="1"
       gradientUnits="userSpaceOnUse"
       gradientTransform="matrix(128.91,-17.621375,42.280833,309.30792,476.01667,967.63329)"
       spreadMethod="pad"
       id="radialGradient62"><stop
         style="stop-opacity:1;stop-color:#f8cba9"
         offset="0"
         id="stop38" /><stop
         style="stop-opacity:1;stop-color:#f8cba9"
         offset="0.05889"
         id="stop40" /><stop
         style="stop-opacity:1;stop-color:#eba348"
         offset="0.45637812"
         id="stop42" /><stop
         style="stop-opacity:1;stop-color:#eba348"
         offset="0.45798"
         id="stop44" /><stop
         style="stop-opacity:1;stop-color:#c48236"
         offset="0.63349767"
         id="stop46" /><stop
         style="stop-opacity:1;stop-color:#c48236"
         offset="0.63361"
         id="stop48" /><stop
         style="stop-opacity:1;stop-color:#8d531c"
         offset="0.7620259"
         id="stop50" /><stop
         style="stop-opacity:1;stop-color:#8d531c"
         offset="0.76218"
         id="stop52" /><stop
         style="stop-opacity:1;stop-color:#733c0f"
         offset="0.93611821"
         id="stop54" /><stop
         style="stop-opacity:1;stop-color:#733c0f"
         offset="0.93644"
         id="stop56" /><stop
         style="stop-opacity:1;stop-color:#733c0f"
         offset="0.96338773"
         id="stop58" /><stop
         style="stop-opacity:1;stop-color:#733c0f"
         offset="1"
         id="stop60" /></radialGradient><clipPath
       clipPathUnits="userSpaceOnUse"
       id="clipPath72"><path
         d="m 527.09,847.324 c -1.762,-12.265 -8.531,-19.91 -32.863,-6.004 -12.153,6.938 -18.739,11.285 -23.715,14.942 16.551,-28.821 32.914,-59.949 42.484,-78.504 0.539,-0.594 0.824,-0.91 0.824,-0.91 0,0 3.289,-0.922 6.004,0.316 4.125,1.879 13.875,6.641 20.543,11.059 5.434,3.597 12.938,13.277 12.641,37.925 -0.317,26.547 0.316,132.11 0.316,132.11 l -2.211,7.582 -0.168,0.008 C 547.66,957.5 538.91,929.543 527.09,847.324"
         id="path70"
         inkscape:connector-curvature="0" /></clipPath><clipPath
       clipPathUnits="userSpaceOnUse"
       id="clipPath78"><path
         d="m 468.895,965.828 84.425,0.723 1.621,-190.613 -84.425,-0.715 z"
         id="path76"
         inkscape:connector-curvature="0" /></clipPath><radialGradient
       fx="0"
       fy="0"
       cx="0"
       cy="0"
       r="1"
       gradientUnits="userSpaceOnUse"
       gradientTransform="matrix(109.83875,0.93433333,-3.524,414.26875,576.95,966.86667)"
       spreadMethod="pad"
       id="radialGradient98"><stop
         style="stop-opacity:1;stop-color:#eba348"
         offset="0"
         id="stop80" /><stop
         style="stop-opacity:1;stop-color:#eba348"
         offset="0.17436"
         id="stop82" /><stop
         style="stop-opacity:1;stop-color:#eba348"
         offset="0.17993233"
         id="stop84" /><stop
         style="stop-opacity:1;stop-color:#ee8822"
         offset="0.42043"
         id="stop86" /><stop
         style="stop-opacity:1;stop-color:#ee8822"
         offset="0.46375746"
         id="stop88" /><stop
         style="stop-opacity:1;stop-color:#a25916"
         offset="0.8418"
         id="stop90" /><stop
         style="stop-opacity:1;stop-color:#914f26"
         offset="0.99881"
         id="stop92" /><stop
         style="stop-opacity:1;stop-color:#914f26"
         offset="0.99931453"
         id="stop94" /><stop
         style="stop-opacity:1;stop-color:#914f26"
         offset="1"
         id="stop96" /></radialGradient><clipPath
       clipPathUnits="userSpaceOnUse"
       id="clipPath108"><path
         d="m 385.504,887.145 c -3.973,-13.086 -11.262,-78.032 -10.098,-112.829 h 41.446 c 0,0 0.027,70.051 0.257,78.262 0.317,11.379 6.004,18.332 14.852,8.535 1.965,-2.175 6.465,-7.16 12.394,-13.73 21.641,-23.973 62.348,-62.653 68.641,-69.625 -9.57,18.555 -25.933,49.683 -42.484,78.504 -7.996,13.926 -16.035,27.304 -23.379,38.468 -7.824,11.895 -20.422,20.231 -32.535,20.231 -11.739,0 -23.024,-7.82 -29.094,-27.816"
         id="path106"
         inkscape:connector-curvature="0" /></clipPath><clipPath
       clipPathUnits="userSpaceOnUse"
       id="clipPath114"><path
         d="M 502.957,950.902 549.426,784.488 384.277,738.379 337.813,904.793 Z"
         id="path112"
         inkscape:connector-curvature="0" /></clipPath><radialGradient
       fx="0"
       fy="0"
       cx="0"
       cy="0"
       r="1"
       gradientUnits="userSpaceOnUse"
       gradientTransform="matrix(44.074583,-157.85417,128.9725,36.0105,391.88708,773.75)"
       spreadMethod="pad"
       id="radialGradient132"><stop
         style="stop-opacity:1;stop-color:#eba348"
         offset="0"
         id="stop116" /><stop
         style="stop-opacity:1;stop-color:#eba348"
         offset="0.09135"
         id="stop118" /><stop
         style="stop-opacity:1;stop-color:#ee8822"
         offset="0.36081542"
         id="stop120" /><stop
         style="stop-opacity:1;stop-color:#ee8822"
         offset="0.47076"
         id="stop122" /><stop
         style="stop-opacity:1;stop-color:#ee8822"
         offset="0.5968499"
         id="stop124" /><stop
         style="stop-opacity:1;stop-color:#8f4f26"
         offset="0.92629"
         id="stop126" /><stop
         style="stop-opacity:1;stop-color:#8f4f26"
         offset="0.95754106"
         id="stop128" /><stop
         style="stop-opacity:1;stop-color:#8f4f26"
         offset="1"
         id="stop130" /></radialGradient><clipPath
       clipPathUnits="userSpaceOnUse"
       id="clipPath142"><path
         d="M 370.566,774.316 H 553.324 V 976.937 H 370.566 Z"
         id="path140"
         inkscape:connector-curvature="0" /></clipPath></defs><sodipodi:namedview
     pagecolor="#ffffff"
     bordercolor="#666666"
     borderopacity="1"
     objecttolerance="10"
     gridtolerance="10"
     guidetolerance="10"
     inkscape:pageopacity="0"
     inkscape:pageshadow="2"
     inkscape:window-width="1920"
     inkscape:window-height="1017"
     id="namedview4"
     showgrid="false"
     inkscape:zoom="0.79795036"
     inkscape:cx="-136.39191"
     inkscape:cy="-109.41397"
     inkscape:window-x="-8"
     inkscape:window-y="-8"
     inkscape:window-maximized="1"
     inkscape:current-layer="g10"
     fit-margin-top="0"
     fit-margin-left="0"
     fit-margin-right="0"
     fit-margin-bottom="0" /><g
     id="g10"
     inkscape:groupmode="layer"
     inkscape:label="NetfabbLogo"
     transform="matrix(1.3333333,0,0,-1.3333333,-119.17192,309.27263)"><g
       id="g14"
       transform="scale(0.24)"><g
         clip-path="url(#clipPath20)"
         id="g16"><path
           inkscape:connector-curvature="0"
           id="path22"
           style="fill:#ee8822;fill-opacity:1;fill-rule:nonzero;stroke:none"
           d="m 375.992,775.082 -2.047,8.484 c 0.082,5.387 -0.066,15.27 -0.257,27.766 -0.524,34.883 -1.317,87.602 1.515,120.625 0.902,10.543 3.578,18.641 7.945,24.063 4.012,4.98 9.274,7.5 15.641,7.5 12.953,0 28.906,-10.649 42.684,-28.485 1.484,-1.93 13.597,-15.625 26.414,-30.125 13.656,-15.445 27.777,-31.414 32.386,-36.898 1.989,-2.367 3.704,-3.516 5.227,-3.516 3.938,0 4.313,7.258 4.34,8.086 v 93.113 l 40.699,-0.609 2.02,-6.938 c -0.02,-3.98 -0.621,-106.14 -0.313,-132.011 0.297,-25.145 -7.578,-34.149 -12.301,-37.278 -6.468,-4.285 -15.89,-8.929 -20.437,-11 -0.84,-0.382 -1.844,-0.582 -2.985,-0.582 -1.039,0 -1.91,0.168 -2.293,0.258 l -0.667,0.735 c -2.215,2.46 -8.75,8.898 -17.02,17.043 -15.859,15.625 -37.578,37.023 -51.617,52.582 -5.934,6.57 -10.434,11.554 -12.399,13.73 -2.949,3.266 -5.734,4.926 -8.277,4.926 -4.566,0 -7.672,-5.477 -7.906,-13.949 -0.215,-7.668 -0.254,-69.872 -0.258,-77.52 h -40.094" /></g></g><g
       id="g24"
       transform="scale(0.24)"><g
         clip-path="url(#clipPath30)"
         id="g26"><g
           clip-path="url(#clipPath36)"
           id="g32"><path
             inkscape:connector-curvature="0"
             id="path64"
             style="fill:url(#radialGradient62);fill-opacity:1;fill-rule:nonzero;stroke:none"
             d="m 375,774 v 1 h -1 v 5 h -1 v 26 h -1 v 98 h 1 v 23 h 1 v 10 h 1 v 5 h 1 v 4 h 1 v 2 h 1 v 2 h 1 v 2 h 1 v 2 h 1 v 2 h 1 v 1 h 1 v 1 h 1 v 1 h 1 v 1 h 1 v 1 h 2 v 1 h 1 v 1 h 3 v 1 h 5 v 1 h 4 v -1 h 5 v -1 h 4 v -1 h 2 v -1 h 2 v -1 h 2 v -1 h 2 v -1 h 2 v -1 h 1 v -1 h 2 v -1 h 1 v -1 h 1 v -1 h 1 v -1 h 2 v -1 h 1 v -1 h 1 v -1 h 1 v -1 h 1 v -1 h 1 v -1 h 1 v -1 h 1 v -1 h 1 v -1 h 1 v -1 h 1 v -1 h 1 v -1 h 1 v -1 h 1 v -2 h 1 v -1 h 1 v -1 h 1 v -1 h 1 v -1 h 1 v -2 h 1 v -1 h 1 v -1 h 1 v -1 h 1 v -1 h 1 v -1 h 1 v -1 h 1 v -2 h 1 v -1 h 1 v -1 h 1 v -1 h 1 v -1 h 1 v -1 h 1 v -1 h 1 v -2 h 1 v -1 h 1 v -1 h 1 v -1 h 1 v -1 h 1 v -1 h 1 v -1 h 1 v -1 h 1 v -2 h 1 v -1 h 1 v -1 h 1 v -1 h 1 v -1 h 1 v -1 h 1 v -1 h 1 v -1 h 1 v -2 h 1 v -1 h 1 v -1 h 1 v -1 h 1 v -1 h 1 v -1 h 1 v -1 h 1 v -2 h 1 v -1 h 1 v -1 h 1 v -1 h 1 v -1 h 1 v -1 h 1 v -1 h 1 v -1 h 1 v -2 h 1 v -1 h 1 v -1 h 1 v -1 h 1 v -1 h 1 v -1 h 1 v -2 h 1 v -1 h 1 v -1 h 1 v -1 h 1 v -1 h 1 v -1 h 1 v -1 h 1 v -1 h 3 v 2 h 1 v 4 h 1 v 95 h 32 v -1 h 10 v -3 h -1 v -3 h -1 v -3 h -1 v -4 h -1 v -4 h -1 v -3 h -1 v -5 h -1 v -4 h -1 v -4 h -1 v -5 h -1 v -5 h -1 v -5 h -1 v -5 h -1 v -5 h -1 v -6 h -1 v -5 h -1 v -6 h -1 v -6 h -1 v -6 h -1 v -6 h -1 v -7 h -1 v -6 h -1 v -7 h -1 v -7 h -1 v -4 h -1 v -2 h -1 v -2 h -1 v -1 h -1 v -1 h -1 v -1 h -2 v -1 h -4 v -1 h -3 v 1 h -5 v 1 h -3 v 1 h -3 v 1 h -2 v 1 h -2 v 1 h -2 v 1 h -2 v 1 h -1 v 1 h -2 v 1 h -2 v 1 h -2 v 1 h -1 v 1 h -2 v 1 h -2 v 1 h -1 v 1 h -2 v 1 h -1 v 1 h -2 v 1 h -1 v 1 h -2 v 1 h -1 v 1 h -2 v 2 h -1 v 1 h -1 v 2 h -1 v 2 h -1 v 1 h -1 v 2 h -1 v 2 h -1 v 2 h -1 v 1 h -1 v 2 h -1 v 2 h -1 v 1 h -1 v 2 h -1 v 2 h -1 v 1 h -1 v 2 h -1 v 1 h -1 v 2 h -1 v 2 h -1 v 1 h -1 v 2 h -1 v 1 h -1 v 2 h -1 v 1 h -1 v 2 h -1 v 1 h -1 v 1 h -1 v 2 h -1 v 1 h -1 v 1 h -1 v 1 h -1 v 1 h -2 v 1 h -1 v 1 h -1 v 1 h -1 v 1 h -2 v 1 h -2 v 1 h -2 v 1 h -2 v 1 h -2 v 1 h -4 v 1 h -10 v -1 h -4 v -1 h -2 v -1 h -2 v -1 h -1 v -1 h -2 v -1 h -1 v -1 h -1 v -1 h -1 v -2 h -1 v -1 h -1 v -1 h -1 v -1 h -1 v -2 h -1 v -2 h -1 v -2 h -1 v -2 h -1 v -2 h -1 v -3 h -1 v -3 h -1 v -5 h -1 v -6 h -1 v -6 h -1 v -8 h -1 v -8 h -1 v -9 h -1 v -11 h -1 v -11 h -1 v -16 h -1 v -31" /></g></g></g><g
       id="g66"
       transform="scale(0.24)"><g
         clip-path="url(#clipPath72)"
         id="g68"><g
           clip-path="url(#clipPath78)"
           id="g74"><path
             inkscape:connector-curvature="0"
             id="path100"
             style="fill:url(#radialGradient98);fill-opacity:1;fill-rule:nonzero;stroke:none"
             d="m 513,776 v 1 h -1 v 2 h -1 v 2 h -1 v 2 h -1 v 2 h -1 v 2 h -1 v 2 h -1 v 2 h -1 v 2 h -1 v 2 h -1 v 1 h -1 v 2 h -1 v 2 h -1 v 2 h -1 v 2 h -1 v 2 h -1 v 2 h -1 v 2 h -1 v 1 h -1 v 2 h -1 v 2 h -1 v 2 h -1 v 2 h -1 v 2 h -1 v 2 h -1 v 1 h -1 v 2 h -1 v 2 h -1 v 2 h -1 v 2 h -1 v 2 h -1 v 1 h -1 v 2 h -1 v 2 h -1 v 2 h -1 v 2 h -1 v 1 h -1 v 2 h -1 v 2 h -1 v 2 h -1 v 1 h -1 v 2 h -1 v 2 h -1 v 2 h 1 v -1 h 2 v -1 h 1 v -1 h 2 v -1 h 1 v -1 h 2 v -1 h 1 v -1 h 2 v -1 h 1 v -1 h 2 v -1 h 2 v -1 h 1 v -1 h 2 v -1 h 2 v -1 h 2 v -1 h 1 v -1 h 2 v -1 h 2 v -1 h 2 v -1 h 2 v -1 h 3 v -1 h 3 v -1 h 5 v -1 h 1 v 1 h 4 v 1 h 2 v 1 h 1 v 1 h 1 v 1 h 1 v 2 h 1 v 2 h 1 v 4 h 1 v 7 h 1 v 7 h 1 v 6 h 1 v 7 h 1 v 6 h 1 v 6 h 1 v 6 h 1 v 6 h 1 v 5 h 1 v 6 h 1 v 5 h 1 v 5 h 1 v 5 h 1 v 5 h 1 v 5 h 1 v 4 h 1 v 4 h 1 v 5 h 1 v 3 h 1 v 4 h 1 v 3 h 1 v 4 h 1 v 3 h 1 v 2 h 2 v -3 h 1 v -3 h 1 v -71 h -1 v -62 h 1 v -4 h -1 v -12 h -1 v -5 h -1 v -4 h -1 v -3 h -1 v -2 h -1 v -2 h -1 v -1 h -1 v -2 h -1 v -1 h -1 v -1 h -1 v -1 h -1 v -1 h -1 v -1 h -2 v -1 h -2 v -1 h -1 v -1 h -2 v -1 h -2 v -1 h -2 v -1 h -2 v -1 h -2 v -1 h -2 v -1 h -2 v -1 h -2 v -1" /></g></g></g><g
       id="g102"
       transform="scale(0.24)"><g
         clip-path="url(#clipPath108)"
         id="g104"><g
           clip-path="url(#clipPath114)"
           id="g110"><path
             inkscape:connector-curvature="0"
             id="path134"
             style="fill:url(#radialGradient132);fill-opacity:1;fill-rule:nonzero;stroke:none"
             d="m 375,774 v 32 h 1 v 16 h 1 v 11 h 1 v 11 h 1 v 9 h 1 v 8 h 1 v 8 h 1 v 6 h 1 v 6 h 1 v 5 h 1 v 3 h 1 v 3 h 1 v 2 h 1 v 2 h 1 v 2 h 1 v 2 h 1 v 2 h 1 v 1 h 1 v 1 h 1 v 1 h 1 v 2 h 1 v 1 h 1 v 1 h 1 v 1 h 2 v 1 h 1 v 1 h 2 v 1 h 2 v 1 h 3 v 1 h 14 v -1 h 3 v -1 h 2 v -1 h 2 v -1 h 3 v -1 h 1 v -1 h 2 v -1 h 1 v -1 h 1 v -1 h 1 v -1 h 2 v -1 h 1 v -1 h 1 v -1 h 1 v -2 h 1 v -1 h 1 v -1 h 1 v -1 h 1 v -2 h 1 v -1 h 1 v -2 h 1 v -1 h 1 v -2 h 1 v -1 h 1 v -2 h 1 v -2 h 1 v -1 h 1 v -2 h 1 v -1 h 1 v -2 h 1 v -2 h 1 v -1 h 1 v -2 h 1 v -2 h 1 v -1 h 1 v -2 h 1 v -2 h 1 v -2 h 1 v -1 h 1 v -2 h 1 v -2 h 1 v -1 h 1 v -2 h 1 v -2 h 1 v -2 h 1 v -1 h 1 v -2 h 1 v -2 h 1 v -2 h 1 v -1 h 1 v -2 h 1 v -2 h 1 v -2 h 1 v -2 h 1 v -1 h 1 v -2 h 1 v -2 h 1 v -2 h 1 v -2 h 1 v -2 h 1 v -1 h 1 v -2 h 1 v -2 h 1 v -2 h 1 v -2 h 1 v -2 h 1 v -2 h 1 v -1 h 1 v -2 h 1 v -2 h 1 v -2 h 1 v -2 h 1 v -2 h 1 v -2 h 1 v -2 h 1 v -1 h 1 v -2 h 1 v -2 h 1 v -2 h 1 v -2 h 1 v -2 h 1 v -2 h 1 v -2 h 1 v -2 h 1 v -3 h -1 v 1 h -1 v 1 h -1 v 1 h -1 v 1 h -1 v 1 h -1 v 1 h -1 v 1 h -1 v 1 h -1 v 1 h -1 v 1 h -1 v 1 h -1 v 1 h -1 v 1 h -1 v 1 h -1 v 1 h -1 v 1 h -1 v 1 h -1 v 1 h -1 v 1 h -1 v 1 h -1 v 1 h -1 v 1 h -1 v 1 h -1 v 1 h -1 v 1 h -1 v 1 h -1 v 1 h -1 v 1 h -1 v 1 h -1 v 1 h -1 v 1 h -1 v 1 h -1 v 1 h -1 v 1 h -1 v 1 h -1 v 1 h -1 v 1 h -1 v 1 h -1 v 1 h -1 v 1 h -1 v 1 h -1 v 1 h -1 v 1 h -1 v 1 h -1 v 1 h -1 v 1 h -1 v 1 h -1 v 1 h -1 v 1 h -1 v 1 h -1 v 1 h -1 v 1 h -1 v 1 h -1 v 1 h -1 v 1 h -1 v 1 h -1 v 1 h -1 v 1 h -1 v 2 h -1 v 1 h -1 v 1 h -1 v 1 h -1 v 1 h -1 v 1 h -1 v 1 h -1 v 1 h -1 v 1 h -1 v 1 h -1 v 1 h -1 v 1 h -1 v 1 h -1 v 2 h -1 v 1 h -1 v 1 h -1 v 1 h -1 v 1 h -1 v 1 h -1 v 1 h -1 v 1 h -1 v 1 h -1 v 2 h -1 v 1 h -2 v 1 h -1 v 1 h -2 v 1 h -4 v -1 h -1 v -1 h -1 v -2 h -1 v -3 h -1 v -17 h -1 v -67" /></g></g></g><g
       id="g136"
       transform="scale(0.24)"><g
         clip-path="url(#clipPath142)"
         id="g138"><path
           inkscape:connector-curvature="0"
           id="path144"
           style="fill:#fbe2ca;fill-opacity:1;fill-rule:nonzero;stroke:none"
           d="m 470.754,856.547 c 0,0 0.148,-0.109 0.445,-0.324 0.293,-0.215 0.727,-0.532 1.297,-0.938 1.137,-0.812 2.82,-1.992 5.008,-3.43 2.187,-1.437 4.871,-3.14 7.992,-5.031 3.121,-1.886 6.672,-3.984 10.574,-6.187 1.957,-1.082 4.035,-2.157 6.235,-3.149 2.195,-0.988 4.519,-1.906 6.984,-2.574 1.231,-0.34 2.5,-0.609 3.789,-0.766 1.297,-0.152 2.621,-0.195 3.934,-0.031 1.312,0.156 2.613,0.531 3.785,1.184 1.18,0.644 2.199,1.574 3.019,2.676 0.825,1.097 1.446,2.359 1.934,3.675 0.488,1.328 0.832,2.711 1.098,4.121 0.132,0.707 0.234,1.418 0.343,2.141 0.11,0.715 0.211,1.438 0.321,2.16 0.218,1.446 0.433,2.899 0.656,4.356 0.437,2.918 0.859,5.859 1.324,8.808 0.461,2.95 0.926,5.907 1.391,8.871 0.453,2.961 0.949,5.914 1.437,8.864 0.243,1.468 0.489,2.941 0.731,4.406 0.242,1.461 0.476,2.926 0.738,4.375 0.508,2.91 1.008,5.793 1.508,8.637 0.516,2.847 1.031,5.656 1.535,8.418 0.496,2.765 1.043,5.476 1.555,8.129 0.258,1.328 0.511,2.64 0.765,3.937 0.27,1.293 0.532,2.57 0.789,3.832 0.258,1.266 0.516,2.504 0.766,3.731 0.27,1.226 0.527,2.429 0.785,3.613 0.258,1.183 0.512,2.344 0.758,3.488 0.25,1.141 0.52,2.258 0.77,3.352 0.25,1.097 0.5,2.168 0.742,3.214 0.246,1.047 0.504,2.067 0.746,3.063 0.246,0.996 0.488,1.961 0.719,2.902 0.246,0.938 0.484,1.852 0.714,2.735 0.235,0.883 0.45,1.738 0.68,2.562 0.231,0.821 0.453,1.613 0.668,2.375 0.414,1.52 0.848,2.906 1.223,4.16 0.183,0.633 0.375,1.223 0.558,1.778 0.18,0.554 0.348,1.074 0.504,1.562 0.321,0.965 0.617,1.778 0.848,2.442 0.496,1.316 0.758,2.015 0.758,2.015 0,0 -0.258,-0.703 -0.75,-2.019 -0.227,-0.664 -0.52,-1.481 -0.84,-2.446 -0.152,-0.484 -0.32,-1.004 -0.5,-1.562 -0.176,-0.555 -0.363,-1.149 -0.543,-1.777 -0.371,-1.258 -0.801,-2.645 -1.215,-4.168 -0.207,-0.766 -0.43,-1.555 -0.652,-2.375 -0.227,-0.825 -0.438,-1.68 -0.672,-2.563 -0.223,-0.887 -0.461,-1.797 -0.703,-2.738 -0.227,-0.942 -0.465,-1.914 -0.703,-2.906 -0.239,-0.997 -0.493,-2.016 -0.735,-3.063 -0.238,-1.047 -0.484,-2.125 -0.73,-3.215 -0.246,-1.101 -0.512,-2.215 -0.754,-3.359 -0.246,-1.141 -0.496,-2.305 -0.75,-3.492 -0.25,-1.184 -0.504,-2.387 -0.766,-3.614 -0.246,-1.222 -0.496,-2.468 -0.75,-3.73 -0.254,-1.258 -0.512,-2.539 -0.777,-3.836 -0.242,-1.297 -0.492,-2.609 -0.75,-3.938 -0.5,-2.656 -1.031,-5.363 -1.52,-8.132 -0.492,-2.766 -0.996,-5.575 -1.504,-8.418 -0.484,-2.852 -0.976,-5.735 -1.468,-8.645 -0.258,-1.453 -0.489,-2.914 -0.723,-4.379 -0.238,-1.465 -0.477,-2.937 -0.711,-4.41 -0.476,-2.949 -0.961,-5.902 -1.402,-8.863 -0.453,-2.965 -0.907,-5.926 -1.36,-8.875 -0.445,-2.949 -0.859,-5.891 -1.289,-8.813 -0.211,-1.461 -0.422,-2.914 -0.633,-4.359 -0.105,-0.719 -0.21,-1.441 -0.312,-2.164 -0.105,-0.715 -0.207,-1.442 -0.34,-2.156 -0.262,-1.43 -0.605,-2.844 -1.101,-4.2 -0.493,-1.359 -1.129,-2.668 -1.989,-3.82 -0.855,-1.156 -1.933,-2.148 -3.175,-2.836 -1.243,-0.695 -2.614,-1.094 -3.985,-1.265 -1.367,-0.176 -2.738,-0.137 -4.066,0.015 -1.328,0.16 -2.625,0.426 -3.875,0.762 -2.512,0.676 -4.867,1.594 -7.086,2.586 -2.227,0.992 -4.317,2.062 -6.293,3.148 -3.93,2.196 -7.485,4.278 -10.621,6.16 -3.137,1.879 -5.832,3.575 -8.032,5.008 -2.207,1.438 -3.902,2.613 -5.05,3.426 -0.575,0.406 -1.012,0.723 -1.305,0.937 -0.297,0.215 -0.445,0.325 -0.445,0.325 l 0.449,0.617" /><path
           inkscape:connector-curvature="0"
           id="path146"
           style="fill:#fbe2ca;fill-opacity:1;fill-rule:nonzero;stroke:none"
           d="m 512.996,777.758 c 0,0 -2.418,4.57 -6.644,12.574 -2.118,3.996 -4.704,8.848 -7.688,14.395 -2.988,5.546 -6.387,11.793 -10.105,18.597 -7.454,13.606 -16.309,29.387 -26.204,46.051 -4.96,8.324 -10.187,16.875 -15.789,25.352 -2.804,4.199 -6.246,8.011 -10.218,11.207 -3.973,3.183 -8.496,5.757 -13.375,7.238 -2.446,0.723 -4.961,1.199 -7.496,1.273 -2.536,0.082 -5.079,-0.183 -7.504,-0.879 -1.215,-0.339 -2.403,-0.777 -3.547,-1.3 -1.141,-0.532 -2.238,-1.157 -3.289,-1.848 -2.098,-1.395 -3.977,-3.094 -5.633,-4.977 l -0.613,-0.711 c -0.203,-0.238 -0.395,-0.488 -0.59,-0.734 -0.399,-0.484 -0.754,-1 -1.125,-1.504 -0.715,-1.027 -1.399,-2.074 -2.02,-3.16 -1.254,-2.156 -2.324,-4.41 -3.25,-6.707 -0.234,-0.57 -0.445,-1.152 -0.668,-1.73 -0.218,-0.579 -0.41,-1.161 -0.617,-1.747 -0.203,-0.578 -0.379,-1.168 -0.566,-1.753 -0.047,-0.141 -0.102,-0.297 -0.137,-0.43 l -0.125,-0.445 -0.246,-0.891 c -0.594,-2.344 -1.059,-4.754 -1.484,-7.129 -0.86,-4.762 -1.532,-9.48 -2.18,-14.098 -0.641,-4.613 -1.207,-9.144 -1.723,-13.55 -1.023,-8.829 -1.847,-17.188 -2.508,-24.914 -0.648,-7.727 -1.16,-14.813 -1.527,-21.106 -0.363,-6.285 -0.574,-11.777 -0.687,-16.297 -0.102,-4.523 -0.11,-8.082 -0.094,-10.5 0.039,-2.426 0.062,-3.719 0.062,-3.719 0,0 -0.043,1.293 -0.117,3.719 -0.047,2.418 -0.105,5.977 -0.047,10.504 0.063,4.524 0.215,10.016 0.508,16.316 0.293,6.293 0.727,13.395 1.336,21.133 0.609,7.735 1.375,16.102 2.344,24.942 0.484,4.422 1.023,8.957 1.629,13.586 0.3,2.316 0.629,4.652 0.984,7.007 0.355,2.36 0.73,4.739 1.156,7.129 0.426,2.399 0.879,4.789 1.489,7.219 l 0.246,0.891 0.121,0.445 c 0.047,0.168 0.093,0.301 0.14,0.457 0.192,0.59 0.371,1.188 0.575,1.774 0.207,0.589 0.402,1.183 0.621,1.769 0.222,0.586 0.433,1.176 0.672,1.754 0.933,2.336 2.019,4.629 3.292,6.836 0.629,1.105 1.325,2.183 2.055,3.238 0.383,0.516 0.746,1.043 1.153,1.539 0.203,0.254 0.394,0.508 0.601,0.754 l 0.633,0.738 c 1.699,1.938 3.637,3.7 5.808,5.149 1.086,0.723 2.227,1.371 3.415,1.926 1.187,0.55 2.421,1.007 3.687,1.367 2.523,0.73 5.176,1.012 7.801,0.933 2.633,-0.074 5.238,-0.558 7.754,-1.304 5.027,-1.535 9.648,-4.184 13.691,-7.446 4.051,-3.265 7.555,-7.168 10.395,-11.437 5.601,-8.527 10.812,-17.082 15.761,-25.43 4.946,-8.344 9.571,-16.504 13.903,-24.261 4.328,-7.762 8.359,-15.141 12.043,-21.965 3.691,-6.828 7.011,-13.114 9.937,-18.696 2.926,-5.582 5.457,-10.457 7.531,-14.476 2.082,-4.024 3.688,-7.192 4.79,-9.352 1.097,-2.16 1.683,-3.316 1.683,-3.316" /></g></g><path
       inkscape:connector-curvature="0"
       id="path148"
       style="fill:#000000;fill-opacity:1;fill-rule:nonzero;stroke:none;stroke-width:0.23999999"
       d="m 153.09192,206.96808 h 6.17616 l -3.1284,9.72672 z m 6.70584,-1.64424 h -7.23552 l -1.80192,-5.72352 h -2.04096 l 6.0684,18.55128 h 2.73096 l 6.25512,-18.55128 h -2.06832 l -1.90776,5.72352" /><path
       inkscape:connector-curvature="0"
       id="path150"
       style="fill:#000000;fill-opacity:1;fill-rule:nonzero;stroke:none;stroke-width:0.23999999"
       d="m 180.46584,218.1516 v -18.55128 h -1.77552 l -0.13224,2.30448 c -1.03392,-1.218 -2.8116,-2.62416 -5.69904,-2.62416 -4.05456,0 -5.80488,2.81064 -5.80488,6.28224 v 12.58872 h 1.98744 v -12.6684 c 0,-2.54448 1.08648,-4.58544 4.21392,-4.58544 2.75736,0 4.2948,1.56384 5.22288,3.02256 v 14.23128 h 1.98744" /><path
       inkscape:connector-curvature="0"
       id="path152"
       style="fill:#000000;fill-opacity:1;fill-rule:nonzero;stroke:none;stroke-width:0.23999999"
       d="m 197.68512,216.51 h -5.53896 V 199.60032 H 190.1568 V 216.51 h -5.51232 v 1.6416 h 13.04064 V 216.51" /><path
       inkscape:connector-curvature="0"
       id="path154"
       style="fill:#000000;fill-opacity:1;fill-rule:nonzero;stroke:none;stroke-width:0.23999999"
       d="m 202.45584,210.89064 v -4.1616 c 0,-3.25872 1.53768,-5.83128 5.22096,-5.83128 3.68448,0 5.22192,2.57256 5.22192,5.83128 v 4.1616 c 0,3.41904 -1.53744,5.96352 -5.22192,5.96352 -3.63096,0 -5.22096,-2.49192 -5.22096,-5.96352 z m 12.43032,-0.0262 v -4.08288 c 0,-4.16064 -2.22744,-7.50096 -7.20936,-7.50096 -4.98168,0 -7.2084,3.34032 -7.2084,7.50096 v 4.08288 c 0,4.37232 2.25288,7.6068 7.2084,7.6068 5.01,0 7.20936,-3.3132 7.20936,-7.6068" /><path
       inkscape:connector-curvature="0"
       id="path156"
       style="fill:#000000;fill-opacity:1;fill-rule:nonzero;stroke:none;stroke-width:0.23999999"
       d="m 230.84712,210.78384 c 0,3.552 -1.88328,5.75232 -5.61936,5.75232 h -3.18096 v -15.31968 h 2.62416 c 4.05456,0 6.17616,2.1732 6.17616,6.22872 z m 1.98672,-0.0526 v -3.23352 c 0,-4.85064 -2.86224,-7.89744 -8.16288,-7.89744 h -3.39192 -1.21872 v 18.55128 h 1.98648 3.28608 c 4.98264,0 7.50096,-2.9664 7.50096,-7.42032" /><path
       inkscape:connector-curvature="0"
       id="path158"
       style="fill:#000000;fill-opacity:1;fill-rule:nonzero;stroke:none;stroke-width:0.23999999"
       d="m 239.91288,216.53616 v -6.57264 h 7.47672 v -1.64448 h -7.47672 v -7.10256 h 8.05752 v -1.61616 h -9.99264 -0.0526 v 18.55128 h 1.98768 8.05752 v -1.61544 h -8.05752" /><path
       inkscape:connector-curvature="0"
       id="path160"
       style="fill:#000000;fill-opacity:1;fill-rule:nonzero;stroke:none;stroke-width:0.23999999"
       d="m 251.5536,204.7152 h 1.908 c 0.132,-2.04072 1.3536,-3.79008 4.9296,-3.79008 3.5784,0 4.4784,1.77456 4.4784,3.1536 v 0.60936 c 0,1.8816 -1.1136,2.5716 -3.8952,3.4716 l -2.676,0.87552 c -2.8632,0.95352 -4.0296,2.14704 -4.0296,4.39992 v 0.58296 c 0,1.98744 1.6968,4.4532 6.2016,4.4532 4.2144,0 6.2544,-2.28 6.3888,-5.22192 h -1.908 c -0.1344,1.80288 -1.1952,3.6048 -4.4808,3.6048 -3.204,0 -4.188,-1.61736 -4.188,-2.83608 v -0.52968 c 0,-1.37904 0.8232,-2.17392 3.3672,-2.9952 l 2.676,-0.8484 c 2.9952,-0.95448 4.5336,-2.1996 4.5336,-4.82352 v -0.66288 c 0,-2.49192 -1.8288,-4.87776 -6.468,-4.87776 -4.3728,0 -6.6264,2.20032 -6.8376,5.43456" /><path
       inkscape:connector-curvature="0"
       id="path162"
       style="fill:#000000;fill-opacity:1;fill-rule:nonzero;stroke:none;stroke-width:0.23999999"
       d="m 283.3344,201.00384 -0.0264,-1.37832 c -0.264,-0.132 -0.636,-0.21168 -1.0848,-0.21168 -1.2216,0 -1.9368,0.42456 -2.8368,1.72296 l -5.0352,7.368 -2.6256,-3.28608 v -5.6184 h -1.908 v 18.55128 h 1.908 v -10.23 l 8.136,10.23 h 2.1744 l -6.4656,-8.21448 5.5392,-8.0052 c 0.528,-0.74256 0.9264,-1.0068 1.6704,-0.98064 0.2088,0 0.4224,0.0271 0.5544,0.0526" /><path
       inkscape:connector-curvature="0"
       id="path164"
       style="fill:#000000;fill-opacity:1;fill-rule:nonzero;stroke:none;stroke-width:0.23999999"
       d="m 286.6368,216.27096 v 0.15288 c 0,0.27552 -0.2328,0.40392 -0.552,0.40392 h -0.3864 v -0.97872 h 0.3504 c 0.348,0 0.588,0.13968 0.588,0.42192 z m 0.48,-1.49256 c 0.0144,0 0.0384,0.006 0.0552,0.006 v -0.2448 c -0.048,-0.0187 -0.1152,-0.03 -0.1944,-0.03 -0.1656,0.006 -0.2928,0.0665 -0.384,0.25032 l -0.4296,0.80712 c -0.036,-0.005 -0.0672,-0.005 -0.1032,-0.005 h -0.3624 v -1.02288 h -0.3408 v 2.56968 h 0.3408 0.3984 c 0.54,0 0.8808,-0.27456 0.8808,-0.67224 v -0.1836 c 0,-0.30768 -0.1776,-0.52608 -0.4776,-0.62544 l 0.3912,-0.72744 c 0.0504,-0.091 0.1128,-0.12192 0.2256,-0.12192 z m 0.828,1.41288 c 0,0.84456 -0.7224,1.56648 -1.8744,1.56648 -1.0488,0 -1.8648,-0.72192 -1.8648,-1.56648 v -0.67224 c 0,-0.96744 0.7944,-1.6284 1.8648,-1.6284 1.152,0 1.8744,0.66096 1.8744,1.6284 z m 0.3192,-0.006 v -0.66168 c 0,-1.11936 -0.864,-1.91448 -2.1984,-1.91448 -1.2432,0 -2.184,0.79512 -2.184,1.91448 v 0.66168 c 0,0.99768 0.9624,1.85352 2.196,1.85352 1.3224,0 2.1864,-0.85584 2.1864,-1.85352" /><path
       inkscape:connector-curvature="0"
       id="path166"
       style="fill:#000000;fill-opacity:1;fill-rule:nonzero;stroke:none;stroke-width:0.23999999"
       d="m 312.936,218.1516 v -18.55128 h -3.8712 l -7.2888,14.36448 v -14.36448 h -2.9424 v 18.55128 h 4.0032 l 7.1328,-13.91352 v 13.91352 h 2.9664" /><path
       inkscape:connector-curvature="0"
       id="path168"
       style="fill:#000000;fill-opacity:1;fill-rule:nonzero;stroke:none;stroke-width:0.23999999"
       d="m 321.3048,215.58192 v -5.27352 h 6.9168 v -2.57256 h -6.9168 v -5.53872 h 7.5 v -2.5968 h -10.5216 -0.3168 v 18.55128 h 3.3384 7.5 v -2.56968 h -7.5" /><path
       inkscape:connector-curvature="0"
       id="path170"
       style="fill:#000000;fill-opacity:1;fill-rule:nonzero;stroke:none;stroke-width:0.23999999"
       d="m 345.4944,215.58192 h -5.1936 v -15.9816 h -3.3384 v 15.9816 H 331.74 v 2.56968 h 8.5608 5.1936 v -2.56968" /><path
       inkscape:connector-curvature="0"
       id="path172"
       style="fill:#000000;fill-opacity:1;fill-rule:nonzero;stroke:none;stroke-width:0.23999999"
       d="m 352.26,215.58192 v -5.51256 h 6.6816 v -2.5716 H 352.26 v -7.89744 h -3.336 v 18.55128 h 3.336 7.7952 v -2.56968 H 352.26" /><path
       inkscape:connector-curvature="0"
       id="path174"
       style="fill:#000000;fill-opacity:1;fill-rule:nonzero;stroke:none;stroke-width:0.23999999"
       d="m 366.1416,207.15288 h 4.8768 l -2.4648,8.66712 z m 5.6736,-2.67576 H 365.4 l -1.4064,-4.8768 h -3.3648 L 366.3,218.1516 h 4.5336 l 5.9616,-18.55128 h -3.444 l -1.536,4.8768" /><path
       inkscape:connector-curvature="0"
       id="path176"
       style="fill:#000000;fill-opacity:1;fill-rule:nonzero;stroke:none;stroke-width:0.23999999"
       d="m 389.7792,205.51032 c 0,1.40448 -1.0848,2.25288 -3.1248,2.25288 H 383.58 v -5.72544 h 2.412 c 2.3592,0 3.7872,0.8484 3.7872,2.51808 z m -6.1992,10.2048 v -5.5932 h 2.9136 c 1.6176,0 2.6784,0.74256 2.6784,2.25288 v 0.9804 c 0,1.61832 -1.2216,2.35992 -3.18,2.35992 z m 9.54,-10.25832 v -1.06128 c 0,-2.80776 -2.784,-4.7952 -7.1808,-4.7952 h -2.5176 -3.1824 v 18.55128 h 3.3408 2.3832 c 3.9768,0 6.5736,-1.66872 6.5736,-4.61064 v -1.16616 c 0,-1.96128 -1.4568,-2.83608 -2.7288,-3.15384 1.3512,-0.26544 3.312,-1.24584 3.312,-3.76416" /><path
       inkscape:connector-curvature="0"
       id="path178"
       style="fill:#000000;fill-opacity:1;fill-rule:nonzero;stroke:none;stroke-width:0.23999999"
       d="m 406.7736,205.51032 c 0,1.40448 -1.0848,2.25288 -3.1248,2.25288 h -3.0768 v -5.72544 h 2.4144 c 2.3592,0 3.7872,0.8484 3.7872,2.51808 z m -6.2016,10.2048 v -5.5932 h 2.916 c 1.62,0 2.6784,0.74256 2.6784,2.25288 v 0.9804 c 0,1.61832 -1.2216,2.35992 -3.18,2.35992 z m 9.5424,-10.25832 v -1.06128 c 0,-2.80776 -2.784,-4.7952 -7.1808,-4.7952 h -2.52 -3.18 v 18.55128 h 3.3384 2.3856 c 3.9768,0 6.5736,-1.66872 6.5736,-4.61064 v -1.16616 c 0,-1.96128 -1.4592,-2.83608 -2.7288,-3.15384 1.3512,-0.26544 3.312,-1.24584 3.312,-3.76416" /><path
       inkscape:connector-curvature="0"
       id="path180"
       style="fill:#000000;fill-opacity:1;fill-rule:nonzero;stroke:none;stroke-width:0.23999999"
       d="m 414.0984,216.27096 v 0.15288 c 0,0.27552 -0.2328,0.40392 -0.5496,0.40392 h -0.3864 v -0.97872 h 0.348 c 0.3504,0 0.588,0.13968 0.588,0.42192 z m 0.4848,-1.49256 c 0.012,0 0.0336,0.006 0.0552,0.006 v -0.2448 c -0.0504,-0.0187 -0.1176,-0.03 -0.1944,-0.03 -0.168,0.006 -0.2952,0.0665 -0.3888,0.25032 l -0.4272,0.80712 c -0.036,-0.005 -0.0672,-0.005 -0.1032,-0.005 h -0.3624 v -1.02288 h -0.3432 v 2.56968 h 0.3432 0.3984 c 0.5376,0 0.8832,-0.27456 0.8832,-0.67224 v -0.1836 c 0,-0.30768 -0.1776,-0.52608 -0.48,-0.62544 l 0.3936,-0.72744 c 0.048,-0.091 0.108,-0.12192 0.2256,-0.12192 z m 0.8232,1.41288 c 0,0.84456 -0.72,1.56648 -1.8696,1.56648 -1.0536,0 -1.8672,-0.72192 -1.8672,-1.56648 v -0.67224 c 0,-0.96744 0.7968,-1.6284 1.8672,-1.6284 1.1496,0 1.8696,0.66096 1.8696,1.6284 z m 0.3192,-0.006 v -0.66168 c 0,-1.11936 -0.8616,-1.91448 -2.196,-1.91448 -1.2408,0 -2.184,0.79512 -2.184,1.91448 v 0.66168 c 0,0.99768 0.96,1.85352 2.196,1.85352 1.3224,0 2.184,-0.85584 2.184,-1.85352" /></g></svg>