<?xml version="1.0" encoding="UTF-8" standalone="no"?>
<svg
   xmlns:dc="http://purl.org/dc/elements/1.1/"
   xmlns:cc="http://creativecommons.org/ns#"
   xmlns:rdf="http://www.w3.org/1999/02/22-rdf-syntax-ns#"
   xmlns:svg="http://www.w3.org/2000/svg"
   xmlns="http://www.w3.org/2000/svg"
   xmlns:xlink="http://www.w3.org/1999/xlink"
   xmlns:sodipodi="http://sodipodi.sourceforge.net/DTD/sodipodi-0.dtd"
   xmlns:inkscape="http://www.inkscape.org/namespaces/inkscape"
   viewBox="0 0 323.02487 323.0249"
   id="svg2"
   version="1.1"
   inkscape:version="0.91 r13725"
   sodipodi:docname="OKButton.svg"
   inkscape:export-filename="D:\Simon\Incoming\OKButton.png"
   inkscape:export-xdpi="6.6900001"
   inkscape:export-ydpi="6.6900001"
   width="323.02487"
   height="323.0249">
  <metadata
     id="metadata51">
    <rdf:RDF>
      <cc:Work
         rdf:about="">
        <dc:format>image/svg+xml</dc:format>
        <dc:type
           rdf:resource="http://purl.org/dc/dcmitype/StillImage" />
        <dc:title></dc:title>
      </cc:Work>
    </rdf:RDF>
  </metadata>
  <sodipodi:namedview
     pagecolor="#ffffff"
     bordercolor="#666666"
     borderopacity="1"
     objecttolerance="10"
     gridtolerance="10"
     guidetolerance="10"
     inkscape:pageopacity="0"
     inkscape:pageshadow="2"
     inkscape:window-width="1920"
     inkscape:window-height="1028"
     id="namedview49"
     showgrid="false"
     inkscape:zoom="0.834386"
     inkscape:cx="248.23665"
     inkscape:cy="88.278509"
     inkscape:window-x="-8"
     inkscape:window-y="-8"
     inkscape:window-maximized="1"
     inkscape:current-layer="g29"
     fit-margin-top="0"
     fit-margin-left="0"
     fit-margin-right="0"
     fit-margin-bottom="0" />
  <defs
     id="defs4">
    <filter
       id="filter6126">
      <feGaussianBlur
         stdDeviation=".53036"
         id="feGaussianBlur7" />
    </filter>
    <filter
       id="filter11428">
      <feGaussianBlur
         stdDeviation="1.24347"
         id="feGaussianBlur10" />
    </filter>
    <linearGradient
       id="linearGradient4156">
      <stop
         offset="0"
         stop-color="#fff"
         id="stop13" />
      <stop
         offset="1"
         stop-color="#fff"
         stop-opacity="0"
         id="stop15" />
    </linearGradient>
    <linearGradient
       gradientUnits="userSpaceOnUse"
       id="linearGradient8413"
       x1="275.60828"
       x2="341.99622"
       y1="300.86383"
       y2="391.44925">
      <stop
         offset="0"
         stop-color="#500"
         id="stop18"
         style="stop-color:#005500;stop-opacity:1" />
      <stop
         offset="1"
         stop-color="#f00"
         id="stop20"
         style="stop-color:#00ff00;stop-opacity:1" />
    </linearGradient>
    <linearGradient
       gradientUnits="userSpaceOnUse"
       id="linearGradient8411"
       x1="241.40979"
       x2="315.47369"
       xlink:href="#linearGradient4156"
       y1="287.49377"
       y2="367.88477" />
    <linearGradient
       gradientUnits="userSpaceOnUse"
       id="linearGradient10449"
       x1="380.03381"
       x2="422.97784"
       xlink:href="#linearGradient4156"
       y1="287.91769"
       y2="337.74042" />
    <radialGradient
       cx="312.78131"
       cy="386.57211"
       gradientTransform="matrix(-0.59327,-0.59327,0.71505,-0.71505,243.27022,849.03358)"
       gradientUnits="userSpaceOnUse"
       id="radialGradient8415"
       r="53.035709">
      <stop
         offset="0"
         stop-color="#fff"
         stop-opacity=".40816"
         id="stop25" />
      <stop
         offset="1"
         stop-color="#fff"
         stop-opacity="0"
         id="stop27" />
    </radialGradient>
  </defs>
  <g
     transform="matrix(2.90515,0,0,2.90515,-1046.4758,-780.70697)"
     id="g29">
    <path
       d="m 356.78571,346.11218 c 0,29.29082 -23.74489,53.03572 -53.03571,53.03572 -29.29082,0 -53.03571,-23.7449 -53.03571,-53.03572 0,-29.29082 23.74489,-53.03571 53.03571,-53.03571 29.29082,0 53.03571,23.7449 53.03571,53.03571 z"
       transform="matrix(0.97354,0,0,0.97354,120.09497,-12.62847)"
       id="path31"
       inkscape:connector-curvature="0"
       style="fill:#999999" />
    <path
       d="m 356.78571,346.11218 c 0,29.29082 -23.74489,53.03572 -53.03571,53.03572 -29.29082,0 -53.03571,-23.7449 -53.03571,-53.03572 0,-29.29082 23.74489,-53.03571 53.03571,-53.03571 29.29082,0 53.03571,23.7449 53.03571,53.03571 z"
       transform="matrix(0.9596,0,0,0.9596,124.33124,-7.80138)"
       id="path33"
       inkscape:connector-curvature="0"
       style="fill:url(#linearGradient8411)" />
    <path
       d="m 356.78571,346.11218 c 0,29.29082 -23.74489,53.03572 -53.03571,53.03572 -29.29082,0 -53.03571,-23.7449 -53.03571,-53.03572 0,-29.29082 23.74489,-53.03571 53.03571,-53.03571 29.29082,0 53.03571,23.7449 53.03571,53.03571 z"
       transform="matrix(0.87355,0,0,0.87355,150.46842,21.98099)"
       id="path35"
       inkscape:connector-curvature="0"
       style="fill:#ececec;filter:url(#filter6126)" />
    <path
       d="m 356.78571,346.11218 c 0,29.29082 -23.74489,53.03572 -53.03571,53.03572 -29.29082,0 -53.03571,-23.7449 -53.03571,-53.03572 0,-29.29082 23.74489,-53.03571 53.03571,-53.03571 29.29082,0 53.03571,23.7449 53.03571,53.03571 z"
       transform="matrix(0.83838,0,0,0.83838,161.14943,34.15161)"
       id="path37"
       inkscape:connector-curvature="0"
       style="fill:#999999;filter:url(#filter6126)" />
    <path
       d="m 356.78571,346.11218 c 0,29.29082 -23.74489,53.03572 -53.03571,53.03572 -29.29082,0 -53.03571,-23.7449 -53.03571,-53.03572 0,-29.29082 23.74489,-53.03571 53.03571,-53.03571 29.29082,0 53.03571,23.7449 53.03571,53.03571 z"
       transform="matrix(0.80587,0,0,0.80587,171.02576,45.40533)"
       id="path39"
       inkscape:connector-curvature="0"
       style="fill:url(#linearGradient8413)" />
    <path
       d="m 356.78571,346.11218 c 0,29.29082 -23.74489,53.03572 -53.03571,53.03572 -29.29082,0 -53.03571,-23.7449 -53.03571,-53.03572 0,-29.29082 23.74489,-53.03571 53.03571,-53.03571 29.29082,0 53.03571,23.7449 53.03571,53.03571 z"
       transform="matrix(0.75825,0,0,0.75825,186.75199,63.90633)"
       id="path41"
       inkscape:connector-curvature="0"
       style="fill:url(#radialGradient8415)" />
    <path
       d="m 414.80442,284.1471 c -13.3306,0.30069 -26.18606,7.35801 -33.33579,19.74172 -7.69026,13.31988 -6.71392,29.26602 1.15447,41.33061 0.85306,-26.53161 21.13176,-46.51511 46.32378,-45.05384 8.25891,0.47907 16.05431,3.20007 22.85883,7.59075 -3.25775,-7.44975 -8.8171,-13.95312 -16.3937,-18.32748 -6.48672,-3.74508 -13.62489,-5.43927 -20.60759,-5.28176 z"
       id="path43"
       inkscape:connector-curvature="0"
       style="opacity:0.31771001;fill:url(#linearGradient10449)" />
    <path
       d="m 398.24393,313.91344 -11.58137,11.58135 13.29545,13.29545 11.56645,11.56645 11.59626,-11.56645 28.85389,-28.45624 -11.58137,-11.58135 -28.86878,28.44134 z"
       id="path45"
       inkscape:connector-curvature="0"
       style="fill:#1a1a1a;filter:url(#filter11428)"
       sodipodi:nodetypes="ccccccccc" />
    <path
       d="m 398.81325,314.17994 -11.08743,11.08741 12.72841,12.72841 11.07315,11.07315 11.10169,-11.07315 28.49375,-27.68293 -11.08743,-11.08741 -28.50801,27.66866 z"
       id="path47"
       inkscape:connector-curvature="0"
       style="fill:#ffffff"
       sodipodi:nodetypes="ccccccccc" />
  </g>
</svg>
