<?xml version="1.0" encoding="UTF-8" standalone="no"?>
<!-- Created with Inkscape (http://www.inkscape.org/) -->

<svg
   xmlns:dc="http://purl.org/dc/elements/1.1/"
   xmlns:cc="http://creativecommons.org/ns#"
   xmlns:rdf="http://www.w3.org/1999/02/22-rdf-syntax-ns#"
   xmlns:svg="http://www.w3.org/2000/svg"
   xmlns="http://www.w3.org/2000/svg"
   xmlns:xlink="http://www.w3.org/1999/xlink"
   xmlns:sodipodi="http://sodipodi.sourceforge.net/DTD/sodipodi-0.dtd"
   xmlns:inkscape="http://www.inkscape.org/namespaces/inkscape"
   width="48"
   height="48"
   id="svg2"
   version="1.1"
   inkscape:version="0.91 r13725"
   sodipodi:docname="Pdf.svg"
   inkscape:export-filename="/home/simon/Incoming/ExportPdf.png"
   inkscape:export-xdpi="187.5"
   inkscape:export-ydpi="187.5">
  <defs
     id="defs4">
    <linearGradient
       inkscape:collect="always"
       id="linearGradient3650">
      <stop
         style="stop-color:#000000;stop-opacity:1;"
         offset="0"
         id="stop3652" />
      <stop
         style="stop-color:#000000;stop-opacity:0;"
         offset="1"
         id="stop3654" />
    </linearGradient>
    <linearGradient
       id="linearGradient3638">
      <stop
         style="stop-color:#d8d8d8;stop-opacity:1;"
         offset="0"
         id="stop3640" />
      <stop
         style="stop-color:#e2e3e4;stop-opacity:0.64822137;"
         offset="1"
         id="stop3642" />
    </linearGradient>
    <linearGradient
       id="linearGradient3622">
      <stop
         style="stop-color:#6a0000;stop-opacity:1;"
         offset="0"
         id="stop3624" />
      <stop
         style="stop-color:#ee0000;stop-opacity:1"
         offset="1"
         id="stop3626" />
    </linearGradient>
    <linearGradient
       inkscape:collect="always"
       id="linearGradient3614">
      <stop
         style="stop-color:#f2f2f2;stop-opacity:1;"
         offset="0"
         id="stop3616" />
      <stop
         style="stop-color:#cccccc;stop-opacity:1"
         offset="1"
         id="stop3618" />
    </linearGradient>
    <inkscape:perspective
       sodipodi:type="inkscape:persp3d"
       inkscape:vp_x="0 : 526.18109 : 1"
       inkscape:vp_y="0 : 1000 : 0"
       inkscape:vp_z="744.09448 : 526.18109 : 1"
       inkscape:persp3d-origin="372.04724 : 350.78739 : 1"
       id="perspective10" />
    <linearGradient
       inkscape:collect="always"
       xlink:href="#linearGradient3614"
       id="linearGradient3620"
       x1="23.436396"
       y1="18.740866"
       x2="29.404705"
       y2="40.721607"
       gradientUnits="userSpaceOnUse"
       gradientTransform="matrix(1.2834678,0,0,1.2073428,249.87381,404.79679)" />
    <linearGradient
       inkscape:collect="always"
       xlink:href="#linearGradient3622"
       id="linearGradient3628"
       x1="15.139054"
       y1="10.443499"
       x2="18.632669"
       y2="31.319656"
       gradientUnits="userSpaceOnUse"
       gradientTransform="matrix(1.2834678,0,0,1.2073428,249.87382,404.79679)" />
    <linearGradient
       inkscape:collect="always"
       xlink:href="#linearGradient3650"
       id="linearGradient3656"
       x1="20.292265"
       y1="18.098253"
       x2="19.542423"
       y2="12.128197"
       gradientUnits="userSpaceOnUse"
       gradientTransform="matrix(1.2834678,0,0,1.2073428,249.87381,404.79679)" />
    <inkscape:perspective
       id="perspective3690"
       inkscape:persp3d-origin="0.5 : 0.33333333 : 1"
       inkscape:vp_z="1 : 0.5 : 1"
       inkscape:vp_y="0 : 1000 : 0"
       inkscape:vp_x="0 : 0.5 : 1"
       sodipodi:type="inkscape:persp3d" />
  </defs>
  <sodipodi:namedview
     id="base"
     pagecolor="#ffffff"
     bordercolor="#666666"
     borderopacity="1.0"
     inkscape:pageopacity="0.0"
     inkscape:pageshadow="2"
     inkscape:zoom="8.9432316"
     inkscape:cx="19.001347"
     inkscape:cy="24.927999"
     inkscape:document-units="px"
     inkscape:current-layer="layer1"
     showgrid="false"
     showguides="true"
     inkscape:guide-bbox="true"
     inkscape:window-width="1889"
     inkscape:window-height="1003"
     inkscape:window-x="31"
     inkscape:window-y="29"
     inkscape:window-maximized="1" />
  <g
     inkscape:label="Layer 1"
     inkscape:groupmode="layer"
     id="layer1"
     transform="translate(-254.28572,-410.07648)">
    <g
       id="g4173"
       transform="matrix(1.1700541,0,0,1.2306214,-49.504273,-100.8363)">
      <rect
         ry="0.0024495577"
         y="410.086"
         x="254.28702"
         height="48"
         width="48"
         id="rect3763"
         style="color:#000000;display:inline;overflow:visible;visibility:visible;fill:none;fill-opacity:1;fill-rule:nonzero;stroke:none;stroke-width:1;marker:none;enable-background:accumulate" />
      <path
         inkscape:export-ydpi="89"
         inkscape:export-xdpi="89"
         inkscape:export-filename="/home/user/Документы/е-дом/img/path3707.png"
         sodipodi:nodetypes="ccccccc"
         id="rect3601"
         d="m 299.6613,415.99967 c -2.31301,10.45496 4.51023,24.87438 -2.26565,34.09131 -4.99773,1.67216 -14.7797,3.6513 -37.05928,3.87075 1.94994,0 3.46189,-4.22533 2.94136,-10.59743 l -2.66111,-15.58936 c -0.10798,-9.45383 10.94093,-9.58465 13.11415,-4.80627 4.59215,-3.21801 16.71455,-6.15594 25.93053,-6.969 z"
         style="color:#000000;display:inline;overflow:visible;visibility:visible;fill:url(#linearGradient3620);fill-opacity:1;fill-rule:nonzero;stroke:none;stroke-width:1;marker:none;enable-background:accumulate"
         inkscape:connector-curvature="0" />
      <path
         inkscape:export-ydpi="89"
         inkscape:export-xdpi="89"
         inkscape:export-filename="/home/user/Документы/е-дом/img/path3707.png"
         sodipodi:nodetypes="ccc"
         id="path3648"
         d="m 265.33067,420.24746 c 2.50512,-0.63856 6.02182,0.39063 8.32292,2.60977 8.45504,-3.13787 16.91008,-5.35373 25.36511,-6.83509"
         style="fill:none;stroke:url(#linearGradient3656);stroke-width:1.24482346px;stroke-linecap:butt;stroke-linejoin:miter;stroke-opacity:1"
         inkscape:connector-curvature="0" />
      <path
         sodipodi:nodetypes="cccc"
         id="path3761"
         d="m 267.74968,419.88426 c 2.62979,0.35121 4.48829,1.07782 6.06282,2.50981 7.95196,-3.2857 14.84114,-4.35257 23.0494,-6.0921 l -29.11222,3.58229 z"
         style="fill:#ffffff;stroke:none"
         inkscape:connector-curvature="0" />
    </g>
    <g
       id="g4165"
       transform="translate(-1.9008789,2.9072265)">
      <path
         inkscape:export-ydpi="89"
         inkscape:export-xdpi="89"
         inkscape:export-filename="/home/user/Документы/е-дом/img/path3707.png"
         sodipodi:nodetypes="ccccc"
         id="path3591"
         d="m 256.41292,428.65369 0,13.35703 34.75067,0 0,-13.35703 -34.75067,0 z"
         style="fill:url(#linearGradient3628);fill-opacity:1;stroke:none"
         inkscape:connector-curvature="0" />
      <g
         id="text3603"
         style="font-style:normal;font-weight:normal;font-size:49.79294205px;font-family:'Bitstream Vera Sans';fill:#ffffff;fill-opacity:1;stroke:none"
         transform="matrix(1.0310439,0,0,0.9698908,-3.0512063,5.0673929)">
        <path
           id="path2839"
           style="font-weight:bold;font-size:12.44823551px;-inkscape-font-specification:'Bitstream Charter Bold';fill:#ffffff"
           d="m 255.94059,439.09068 3.884,0 c 1.15486,10e-6 2.04025,0.25733 2.65619,0.77194 0.61997,0.51058 0.92996,1.23997 0.92997,2.18817 -1e-5,0.95226 -0.31,1.6857 -0.92997,2.20032 -0.61594,0.51058 -1.50133,0.76586 -2.65619,0.76586 l -1.54388,0 0,3.14853 -2.34012,0 0,-9.07482 m 2.34012,1.69583 0,2.53463 1.29467,0 c 0.45384,0 0.80435,-0.1094 1.05153,-0.32823 0.24718,-0.22286 0.37077,-0.5369 0.37078,-0.94212 -10e-6,-0.40521 -0.1236,-0.71723 -0.37078,-0.93605 -0.24718,-0.21881 -0.59769,-0.32822 -1.05153,-0.32823 l -1.29467,0"
           inkscape:connector-curvature="0" />
        <path
           id="path2841"
           style="font-weight:bold;font-size:12.44823551px;-inkscape-font-specification:'Bitstream Charter Bold';fill:#ffffff"
           d="m 267.39807,440.85945 0,5.53728 0.8388,0 c 0.95631,0 1.68569,-0.23705 2.18817,-0.71116 0.50651,-0.47409 0.75977,-1.16296 0.75978,-2.0666 -10e-6,-0.89957 -0.25124,-1.58439 -0.7537,-2.05444 -0.50248,-0.47005 -1.23389,-0.70507 -2.19425,-0.70508 l -0.8388,0 m -2.34012,-1.76877 2.46777,0 c 1.37773,10e-6 2.40292,0.0993 3.07559,0.29784 0.6767,0.19451 1.25616,0.52679 1.73837,0.99683 0.42547,0.40928 0.74154,0.88135 0.94821,1.41623 0.20665,0.53489 0.30998,1.14069 0.30999,1.81739 -10e-6,0.68482 -0.10334,1.2967 -0.30999,1.83563 -0.20667,0.53489 -0.52274,1.00697 -0.94821,1.41623 -0.48626,0.47005 -1.06977,0.80436 -1.75053,1.00291 -0.68077,0.19451 -1.70191,0.29176 -3.06343,0.29176 l -2.46777,0 0,-9.07482"
           inkscape:connector-curvature="0" />
        <path
           id="path2843"
           style="font-weight:bold;font-size:12.44823551px;-inkscape-font-specification:'Bitstream Charter Bold';fill:#ffffff"
           d="m 275.39096,439.09068 6.31529,0 0,1.76877 -3.97517,0 0,1.68975 3.73812,0 0,1.76877 -3.73812,0 0,3.84753 -2.34012,0 0,-9.07482"
           inkscape:connector-curvature="0" />
      </g>
      <path
         inkscape:export-ydpi="89"
         inkscape:export-xdpi="89"
         id="path3707"
         d="m 256.38451,441.95066 34.74353,-0.0937 0,-13.12373"
         style="fill:none;stroke:#700000;stroke-width:1.10084796px;stroke-linecap:butt;stroke-linejoin:miter;stroke-opacity:1"
         inkscape:connector-curvature="0" />
    </g>
  </g>
  <metadata
     id="metadata37">
    <rdf:RDF>
      <cc:Work>
        <dc:format>image/svg+xml</dc:format>
        <dc:type
           rdf:resource="http://purl.org/dc/dcmitype/StillImage" />
        <cc:license
           rdf:resource="http://creativecommons.org/publicdomain/zero/1.0/" />
        <dc:publisher>
          <cc:Agent
             rdf:about="http://openclipart.org/">
            <dc:title>Open Clip Art Library</dc:title>
          </cc:Agent>
        </dc:publisher>
        <dc:title></dc:title>
        <dc:date>2011-06-22T06:43:47</dc:date>
        <dc:description />
        <dc:source>http://openclipart.org/detail/146815/pdf-by-buggi</dc:source>
        <dc:creator>
          <cc:Agent>
            <dc:title>buggi</dc:title>
          </cc:Agent>
        </dc:creator>
        <dc:subject>
          <rdf:Bag>
            <rdf:li>clip art</rdf:li>
            <rdf:li>clipart</rdf:li>
            <rdf:li>ico</rdf:li>
            <rdf:li>pdf</rdf:li>
          </rdf:Bag>
        </dc:subject>
      </cc:Work>
      <cc:License
         rdf:about="http://creativecommons.org/licenses/publicdomain/">
        <cc:permits
           rdf:resource="http://creativecommons.org/ns#Reproduction" />
        <cc:permits
           rdf:resource="http://creativecommons.org/ns#Distribution" />
        <cc:permits
           rdf:resource="http://creativecommons.org/ns#DerivativeWorks" />
      </cc:License>
    </rdf:RDF>
  </metadata>
</svg>
