<?xml version='1.0' encoding='utf-8'?>
<svg xmlns="http://www.w3.org/2000/svg" version="1.1" width="600px" height="976px" viewBox="0 0 600 976"> <g id="layer1"> <g> <g style="fill:rgb(0,0,0); fill-opacity:1.0; stroke-linejoin: miter"> <path d="M22.759432,56.785286C22.5394,57.050056,21.438845,58.021004,20.426455,58.99183L18.489443,60.756966L18.765017,69.70313C18.903292,74.594734,19.131533,81.02894,19.311495,83.98145C19.492525,87.81544,19.450472,89.401985,19.097841,89.40247C18.833376,89.40272,18.61371,89.88795,18.614473,90.50489C18.615236,91.12183,18.439455,91.60682,18.175081,91.607185C17.954714,91.60743,17.734682,91.87232,17.735079,92.18067C17.735445,92.489265,17.33948,93.01856,16.855074,93.37159C16.062532,93.945564,15.97513,94.51856,15.981173,99.410416C15.984987,102.4955,15.811678,104.8755,15.547426,105.05214C15.327211,105.18471,15.107454,105.66969,15.107943,106.0663C15.108492,106.50697,14.712618,107.12453,14.228304,107.47768C13.699892,107.83095,13.3482685,108.62453,13.349123,109.32973C13.349947,109.99086,13.174532,110.652115,12.910311,110.78468C12.690126,110.91713,12.470522,111.53432,12.471224,112.107315C12.472048,112.768326,12.164125,113.253555,11.591371,113.43056C11.106782,113.56337,10.710725,114.00453,10.711152,114.35719C10.711579,114.70973,10.535554,114.97438,10.359315,114.974625C10.1389475,114.97487,9.390321,115.460464,8.685975,116.078384C7.9816294,116.696304,7.1448374,117.18202,6.8804636,117.18239C6.57187,117.182755,6.307832,117.44765,6.308259,117.800064C6.308717,118.152725,5.9566045,118.54982,5.472077,118.7267C5.0314946,118.85939,4.106751,119.477554,3.4023442,120.051285C2.6979983,120.669205,1.8612673,121.155045,1.5967715,121.15529C1.2882692,121.15578,1.024109,121.33229,1.0243837,121.55263C1.024933,121.9933,-3.5986943,125.12819,-4.2596745,125.12904C-4.480042,125.12929,-5.2726445,125.74721,-6.0209055,126.453384C-7.869752,128.26247,-7.428834,128.39418,0.98840344,128.1194C8.7005625,127.88942,8.96515,127.97719,8.968415,130.6216C8.969453,131.459,9.190675,132.16371,9.410951,132.16335C9.6754465,132.1631,9.852418,132.73586,9.853333,133.48512C9.8542185,134.1902,9.678742,134.80739,9.414247,134.80763C9.193971,134.808,8.974092,135.20497,8.974671,135.68959C8.975282,136.17445,8.799439,136.5713,8.535035,136.57155C8.314668,136.57191,8.0946665,136.83669,8.095094,137.18922C8.095521,137.54176,7.6994333,137.98293,7.214875,138.11586C6.7301645,138.24867,6.3341074,138.68983,6.3345957,139.08644C6.335023,139.43898,5.763245,140.32106,5.014832,140.98317C4.310517,141.64503,3.6946416,142.61537,3.6952825,143.14418C3.6959538,143.67299,3.520203,144.06996,3.2558293,144.07033C3.035462,144.07057,2.815369,144.29115,2.815674,144.55556C2.8160708,144.86403,2.4641116,145.39345,2.0239565,145.79054C1.5395815,146.18776,1.0558778,147.02577,0.88046277,147.68715C0.74911505,148.39235,0.3971253,148.92165,0.17675783,148.92189C-0.087615974,148.92226,-0.26297,149.6277,-0.2619324,150.46498C-0.2608948,151.30238,-0.08380128,152.00722,0.13656618,152.00697C0.35693362,152.0066,0.66592413,152.40285,0.8427125,152.8434C0.975525,153.28395,1.6813967,153.90016,2.3868716,154.20778C3.1365056,154.51527,3.7098393,154.91115,3.710053,155.08742C3.7102666,155.26369,4.327851,155.65968,5.033356,155.9673C5.7829595,156.2748,6.356324,156.67079,6.356599,156.89113C6.3568735,157.11159,6.6655893,157.28737,7.062196,157.28688C7.987672,157.28578,8.958863,158.56264,9.004487,159.79652C9.005158,160.32545,9.226228,160.89809,9.446656,161.03004C9.711335,161.16188,9.8891,162.39565,9.8907175,163.71791C9.892365,165.03993,10.114045,166.0973,10.334413,166.09694C10.598786,166.0967,10.775514,166.40504,10.775941,166.75758C10.776399,167.11012,11.173371,167.41823,11.614106,167.41762C12.098879,167.41713,12.760378,167.72475,13.113283,168.0768C13.466341,168.42897,14.877535,169.22035,16.24457,169.8799C17.611544,170.49513,18.714266,171.19911,18.71448,171.37526C18.714754,171.59572,19.067598,171.85951,19.552675,172.0353C21.316133,172.5619,22.243196,173.83888,22.245485,175.68983C22.247652,177.45277,22.15967,177.54091,20.485506,177.98378C19.031649,178.3821,18.723482,178.64699,18.72455,179.52846C18.725313,180.14552,18.549562,180.63039,18.285189,180.63075C18.064821,180.631,17.845827,181.73293,17.847445,183.05519C17.849092,184.37721,18.070803,185.47878,18.29117,185.47853C18.555544,185.47816,18.73224,185.74245,18.732668,186.09499C18.733126,186.44753,19.130312,186.88783,19.615206,187.01942C20.408785,187.28285,20.4975,187.67946,20.501528,190.94069C20.504091,193.012,20.28589,194.77505,20.02173,195.03983C19.66965,195.39285,20.06711,196.05338,21.523317,197.54996C23.464754,199.44266,23.773378,199.57462,27.65253,200.27481C29.900639,200.66873,33.77936,201.06046,36.29163,201.18973C39.817448,201.31754,40.787235,201.49258,40.787907,202.02151C40.788395,202.41812,40.303898,202.63907,39.466557,202.64017C38.629215,202.64114,38.144596,202.86209,38.145145,203.25882C38.14551,203.56717,37.573246,204.09683,36.824467,204.40604C36.119694,204.7156,35.50324,205.11307,35.50342,205.24515C35.503605,205.42142,34.754887,205.86295,33.873844,206.2167C32.948795,206.5264,30.482243,207.67532,28.368076,208.69156C26.253971,209.70792,23.4787,210.72488,22.156923,210.991C18.676027,211.61221,10.570436,214.44278,7.795869,215.94473C6.4746103,216.6514,5.065003,217.2261,4.7124944,217.2266C4.315766,217.22708,3.7433782,217.62442,3.4355168,218.10965C3.127625,218.59464,2.5992434,218.99197,2.202637,218.99246C1.8500063,218.99295,0.52862555,219.56754,-0.74856573,220.27408C-5.5490727,222.92435,-12.995424,224.25577,-18.020662,223.33646C-21.94385,222.63614,-25.733921,222.68509,-28.862064,223.4379C-31.153019,224.0137,-31.417454,223.97012,-33.490147,222.9589C-34.6807,222.38736,-35.695072,221.77164,-35.783573,221.55142C-35.871952,221.37527,-36.224613,221.24368,-36.533115,221.24405C-36.841587,221.24442,-37.19434,221.11258,-37.28275,220.89236C-37.547947,220.31961,-40.19373,219.04495,-41.119205,219.04605C-42.39728,219.04764,-44.467045,220.32816,-46.71201,222.44644C-47.020115,222.7554,-47.460514,223.0203,-47.72501,223.02054C-47.989384,223.0209,-48.20948,223.24149,-48.209175,223.50601C-48.207954,224.47562,-54.555397,223.51395,-61.917885,221.4075C-63.416756,221.01273,-65.09254,220.13333,-66.10731,219.25333C-67.03382,218.41702,-68.04829,217.75723,-68.35679,217.7576C-68.66529,217.75797,-68.93,217.538,-68.930275,217.31766C-68.93058,217.05313,-69.1511,216.8771,-69.415535,216.87747C-69.6359,216.87772,-70.782295,216.4385,-71.92875,215.95523C-74.22175,214.9003,-79.55567,213.84915,-82.68476,213.80887C-83.830605,213.81033,-86.51969,213.19669,-88.68003,212.49417C-93.57392,210.86966,-98.025314,210.74295,-105.51567,212.11844C-108.29155,212.60672,-113.13841,213.40591,-116.31096,213.8505C-119.43944,214.33926,-122.43562,214.82767,-122.920334,214.91641C-128.51567,216.24539,-140.41353,217.36185,-143.01445,216.79227C-143.58751,216.6608,-144.86583,216.44205,-145.83556,216.31094C-148.6125,215.91763,-156.0183,214.42838,-160.33858,213.376C-163.29222,212.67471,-164.35008,212.54373,-164.48183,212.94058C-164.56956,213.24918,-164.92146,213.77847,-165.27364,214.08731C-165.62581,214.44034,-165.88954,215.0137,-165.88905,215.41031C-165.88774,216.46805,-169.6798,214.88614,-171.48897,213.03726C-173.9601,210.52835,-174.26909,210.13211,-174.2697,209.64725C-174.27,209.38284,-174.57887,209.07474,-174.93166,208.89896C-175.28435,208.76724,-175.59325,208.45901,-175.59358,208.19461C-175.59389,207.9302,-175.90306,207.40176,-176.25609,207.04959C-176.60915,206.65347,-176.91844,205.9927,-176.91905,205.50784C-176.91963,205.0231,-177.22874,204.53873,-177.58147,204.40701C-177.93428,204.23099,-178.24333,203.7908,-178.24388,203.35013C-178.24443,202.90945,-178.50966,202.24857,-178.81853,201.94034C-179.1715,201.63248,-179.56914,200.79556,-179.74623,200.1348C-179.87926,199.47379,-180.23253,198.94547,-180.45284,198.94571C-180.71727,198.94608,-180.89406,198.54959,-180.8946,198.10892C-180.89519,197.62405,-181.20451,196.96329,-181.55757,196.56717C-181.91054,196.21512,-182.21977,195.64261,-182.2202,195.28995C-182.22063,194.93741,-182.61818,194.23282,-183.10368,193.66043C-183.58913,193.08817,-183.98683,192.25137,-183.98738,191.81056C-183.98799,191.3257,-184.29729,190.66505,-184.65031,190.31288C-185.00334,189.91676,-185.31267,189.256,-185.31325,188.77126C-185.3138,188.33058,-185.49059,187.93422,-185.71095,187.93446C-185.93126,187.93471,-186.5493,187.09804,-187.0353,186.12904C-187.56541,185.1161,-188.27187,184.01527,-188.62492,183.66298C-188.97792,183.31105,-189.28725,182.65028,-189.28783,182.16542C-189.28844,181.6808,-189.55373,180.97597,-189.90666,180.66774C-190.21559,180.31569,-190.61357,179.25844,-190.79103,178.28908C-190.92451,177.27565,-191.23402,176.4828,-191.45439,176.48305C-191.6747,176.48329,-191.94102,174.94106,-192.0315,173.09023C-192.12225,170.97499,-192.38828,169.65308,-192.741,169.52136C-193.04959,169.4336,-193.27051,168.99304,-193.27112,168.5083C-193.2717,168.02344,-193.58081,167.53906,-193.9335,167.40735C-194.28632,167.23157,-194.59525,166.8794,-194.59567,166.52686C-194.59607,166.21838,-194.99332,165.73401,-195.47845,165.47021C-195.96353,165.20642,-196.36078,164.72205,-196.36124,164.36963C-196.36166,164.01697,-196.5383,163.70862,-196.75867,163.70898C-196.97903,163.70923,-197.33212,163.2688,-197.5091,162.74036C-197.6419,162.21167,-198.08353,161.50696,-198.39246,161.15479C-198.74542,160.8468,-199.01065,160.18604,-199.01126,159.70117C-199.01181,159.2605,-199.18854,158.86401,-199.45297,158.86438C-199.67334,158.86462,-199.98245,158.38025,-200.15945,157.8075C-200.29239,157.19067,-200.68976,156.61829,-201.04248,156.48657C-201.39523,156.35474,-201.66013,155.95837,-201.66055,155.60583C-201.66095,155.29736,-201.96994,154.901,-202.32272,154.72522C-202.67548,154.5935,-202.98459,154.10913,-202.98517,153.62439C-202.98578,153.13965,-203.29507,152.47888,-203.64813,152.08264C-204.00113,151.73059,-204.31042,151.06995,-204.31104,150.58508C-204.31158,150.14429,-204.70929,149.3075,-205.19476,148.73523C-205.98917,147.81067,-206.2096,147.76685,-207.1785,148.29688C-208.1915,148.82703,-208.27924,149.13562,-208.27579,151.91211C-208.27371,153.58691,-208.0958,154.90857,-207.83142,154.90833C-207.61105,154.90796,-207.2575,155.70093,-207.12405,156.67041C-206.94656,157.63965,-206.68121,158.43262,-206.50491,158.43237C-206.28455,158.43213,-205.97522,159.09277,-205.8421,159.84204C-205.66483,160.63501,-205.22278,161.69214,-204.9137,162.17651C-204.56052,162.66089,-204.2951,163.45374,-204.29453,163.9386C-204.29385,164.46753,-204.07272,165.08423,-203.85214,165.30432C-203.58737,165.56836,-203.27734,166.802,-203.09949,168.07983C-202.96573,169.35779,-202.56747,170.63538,-202.25854,170.98743C-201.94965,171.29553,-201.55173,172.35278,-201.37418,173.36633C-201.1966,174.37976,-200.93124,175.1726,-200.75494,175.17236C-200.53458,175.17212,-200.26846,176.53796,-200.09009,178.25659C-199.91171,179.93103,-199.60147,181.34082,-199.3811,181.34045C-199.16074,181.34021,-198.98206,183.32336,-198.979,185.79126L-198.97348,190.24255L-200.16379,189.93542C-200.82498,189.80408,-201.83945,189.14417,-202.36908,188.52795C-203.64877,187.2074,-204.7503,187.38501,-206.77527,189.2384C-207.83188,190.16528,-208.22751,190.95898,-208.22635,191.88452C-208.22543,192.63367,-208.04837,193.25049,-207.784,193.25024C-207.56363,193.24988,-207.25424,193.95471,-207.0769,194.79187C-206.9437,195.62903,-206.54596,196.50989,-206.193,196.818C-205.84012,197.08203,-205.57504,197.61047,-205.57468,197.91907C-205.57422,198.27148,-205.44165,198.53589,-205.22134,198.53564C-205.04504,198.5354,-204.29456,199.54797,-203.58795,200.73706C-202.83725,201.92615,-202.13089,202.93896,-201.99866,202.93872C-201.82239,202.93848,-201.5571,203.64331,-201.4238,204.48035C-201.24655,205.31763,-200.93716,206.02246,-200.76086,206.02222C-200.5405,206.02185,-200.23032,207.38757,-200.09601,209.10632C-199.91763,210.78076,-199.60739,212.19067,-199.34296,212.1903C-199.12259,212.19006,-198.94553,212.85083,-198.94449,213.68823C-198.94345,214.52551,-198.67783,215.49487,-198.36893,215.8031C-198.01599,216.11108,-197.61829,216.94788,-197.44122,217.60864C-197.30817,218.26965,-196.95496,218.79797,-196.73459,218.79773C-196.47015,218.79736,-196.29364,219.0177,-196.29337,219.23804C-196.29303,219.50244,-195.58673,220.427,-194.74829,221.30737C-193.90985,222.18774,-193.20364,223.06824,-193.20337,223.2887C-193.20316,223.46484,-192.89444,223.64075,-192.5419,223.64038C-192.18927,223.6399,-191.88057,223.81595,-191.8803,224.03616C-191.8798,224.43289,-186.72014,227.15897,-185.92683,227.15799C-185.6624,227.20169,-184.69237,227.55313,-183.72221,228.03665C-182.75203,228.5203,-181.8261,228.87161,-181.6498,228.91556C-181.42943,228.91531,-179.84203,229.57437,-178.12227,230.36563C-176.35841,231.20071,-173.84508,232.21121,-172.56657,232.60623C-170.22984,233.39664,-169.921,233.6608,-170.71327,234.45499C-170.93336,234.67557,-171.28416,236.08621,-171.41463,237.5408L-171.67577,240.18546L-169.55977,240.66751C-154.08623,244.39432,-148.83998,245.79825,-145.79741,247.16068C-145.04778,247.51224,-143.76903,248.08365,-142.93123,248.43521C-142.09343,248.78677,-140.90276,249.40225,-140.2853,249.75406C-138.3889,250.85342,-136.18413,251.82034,-133.93562,252.52261C-132.74529,252.87381,-131.02553,253.66507,-130.09935,254.23672C-129.17314,254.8085,-128.20296,255.29214,-127.93855,255.2919C-127.718216,255.29153,-127.497635,255.46744,-127.4973,255.73196C-127.497025,255.9523,-127.27638,256.17252,-127.01195,256.17215C-126.74754,256.17178,-125.68916,256.74332,-124.67467,257.40317C-123.7043,258.06296,-122.16075,258.89847,-121.323044,259.2059C-120.485275,259.55734,-119.16249,260.0847,-118.456924,260.39224C-113.82704,262.36978,-108.88878,264.21463,-103.906784,265.83908C-100.73241,266.8488,-97.954666,267.85904,-97.734085,268.035C-97.469376,268.2551,-96.278915,268.69424,-95.08857,269.0455C-93.85413,269.39645,-90.10642,270.75803,-86.71128,272.12003C-78.554115,275.32712,-75.42408,276.1606,-60.25959,279.40317C-52.76554,281.02444,-52.060097,281.19986,-45.491642,282.69022C-41.96494,283.52322,-38.21793,284.3118,-37.11597,284.48666C-36.01404,284.6616,-34.911808,284.96884,-34.691227,285.1448C-34.029514,285.71683,-23.49521,286.7615,-10.889924,287.53928C8.018067,288.7059,10.662599,288.96695,10.83957,289.4515C10.92801,289.7159,11.368928,289.9357,11.853761,289.9351C12.294497,289.93454,12.691347,290.11032,12.691591,290.2866C12.6920185,290.63907,15.558321,292.04587,19.659029,293.71548L21.510958,294.50656L21.51407,297.01865C21.51581,298.42886,21.693544,299.6185,21.914034,299.70645C22.17859,299.7941,22.402468,302.61453,22.450777,306.09604C22.499208,309.57755,22.723055,312.39786,22.899294,312.39767C23.119661,312.39737,23.299868,315.57028,23.304659,319.44858C23.30945,323.32675,23.225252,326.50003,23.09302,326.50015C22.960878,326.50034,22.387362,326.06033,21.813784,325.48813C21.284243,324.95993,20.181276,324.0358,19.431307,323.4197C18.6373,322.80368,18.01935,322.05527,18.018984,321.7468C18.018648,321.48227,17.842073,321.21817,17.621706,321.2184C17.401339,321.21872,16.872103,320.9108,16.519014,320.51462C15.59244,319.6343,11.62555,319.24258,9.378724,319.8624C6.691285,320.57095,5.6790166,321.67392,5.681702,323.83334C5.6828923,324.80283,5.5075994,325.64047,5.243195,325.64078C5.0228276,325.64102,4.803162,326.21426,4.8040776,326.96353C4.8049626,327.6686,5.026093,328.28543,5.2464604,328.2852C5.5108647,328.28488,5.6878057,328.76926,5.6885686,329.38626C5.6893315,330.00333,5.9101872,330.48782,6.130555,330.48752C6.395051,330.4872,6.5717783,330.88358,6.5723886,331.36844C6.572999,331.85318,6.7497263,332.2496,6.9700937,332.2493C7.543092,332.24863,10.984773,335.59378,10.985475,336.16678C10.98578,336.43118,11.162293,336.65128,11.338563,336.6511C11.955537,336.6503,13.632235,338.23483,13.6329365,338.80765C13.633272,339.07217,13.809908,339.29233,13.986147,339.29208C14.559023,339.2914,16.279818,340.87576,16.280458,341.40463C16.280794,341.66904,16.677828,342.0212,17.162752,342.15274C17.64783,342.3284,18.397738,342.90048,18.751009,343.517C19.148348,344.0895,19.633791,344.57352,19.854158,344.5732C20.427034,344.57254,23.339388,347.52176,23.34009,348.09476C23.340364,348.3151,23.517,348.53513,23.69324,348.53494C23.913607,348.53464,24.53104,348.88663,25.016392,349.37064C25.81052,350.0308,25.987522,350.6475,25.9903,352.8951C25.99216,354.39352,26.169895,355.58334,26.43436,355.58298C26.698734,355.58267,26.8754,355.8909,26.875828,356.24344C26.876255,356.59604,27.09702,356.90427,27.317387,356.90396C27.581882,356.90366,27.758915,357.5646,27.759953,358.40195C27.76099,359.2393,27.982426,360.07632,28.202915,360.20822C28.467472,360.34012,28.644993,361.3536,28.646366,362.45535C28.647678,363.5131,28.869083,364.39413,29.089481,364.3939C29.353947,364.39352,29.530949,364.96634,29.531864,365.71555C29.532719,366.4207,29.665714,367.03745,29.886112,367.0372C30.282719,367.0367,30.287968,371.26755,29.89191,371.70877C29.36359,372.19418,29.45618,375.76382,29.985416,376.07162C30.249943,376.20358,30.427433,377.1288,30.428654,378.0983C30.429813,379.0239,30.651066,379.8168,30.871403,379.81656C31.135868,379.81625,31.313114,380.60928,31.314335,381.62296C31.3158,382.76883,31.625553,383.8262,32.199406,384.53058C32.68494,385.14697,33.082706,386.07196,33.083317,386.60083C33.08399,387.1297,32.688236,387.83527,32.203983,388.18848C31.675602,388.58582,31.323917,389.33545,31.324955,390.17273C31.325993,391.01007,30.974308,391.75983,30.446049,392.1571C29.697453,392.68677,29.565983,393.30396,29.569584,396.21265C29.572025,398.19592,29.750065,399.65002,30.014591,399.64972C30.278934,399.6494,30.45618,400.3543,30.457218,401.19165C30.458256,402.029,30.679386,402.73383,30.899723,402.73358C31.164188,402.73328,31.340824,403.0415,31.341312,403.3941C31.34174,403.74664,31.518375,404.05505,31.78284,404.0547C32.003178,404.05444,32.797184,404.6704,33.45917,405.37457C34.165165,406.07898,34.95917,406.69495,35.267704,406.69458C35.53217,406.6942,35.752934,407.0025,35.75336,407.3551C35.753788,407.70758,35.97449,408.01587,36.19489,408.01563C36.459232,408.01526,36.63593,408.3235,36.636356,408.6761C36.636784,409.0287,36.857487,409.3368,37.077885,409.33655C37.342228,409.33624,37.520634,410.96667,37.523563,413.30237C37.526432,415.63818,37.704716,417.26855,37.96918,417.26825C38.233524,417.26794,38.411198,418.41364,38.412968,419.82385C38.41596,422.24768,39.12427,424.75897,39.873417,424.75806C40.049747,424.7578,40.18256,425.33057,40.183475,426.07977C40.18439,426.7849,40.40552,427.4016,40.62586,427.40137C40.890385,427.401,41.06812,428.6349,41.070133,430.26544C41.072147,431.89612,40.897465,433.13025,40.63294,433.1306C40.4126,433.13086,40.19269,433.52777,40.193302,434.0125C40.193913,434.4973,40.06226,434.8941,39.88593,434.89435C39.35706,434.89496,38.43439,437.1438,38.435795,438.2896C38.436466,438.86255,38.260746,439.30353,37.996403,439.30383C37.776005,439.30414,37.55628,439.78912,37.55707,440.4062C37.557804,441.02313,37.42615,441.50806,37.24988,441.50824C36.456547,441.50922,35.79877,444.06622,35.80225,446.88678C35.804386,448.60553,35.62958,449.8838,35.36524,449.88416C35.14484,449.8844,34.925114,450.3695,34.925785,450.94238C34.92658,451.5594,34.75104,452.17657,34.48676,452.30914C34.266605,452.44165,34.047123,453.14703,34.04804,453.89624C34.048893,454.60138,33.873295,455.1745,33.60889,455.1748C33.388554,455.1751,33.168766,455.66016,33.169437,456.23303C33.170353,456.93823,32.86243,457.42346,32.2898,457.60034C31.584843,457.82166,31.409122,458.26257,31.411137,459.84912C31.412418,460.9068,31.237247,461.78845,30.972782,461.78876C30.752445,461.789,30.532963,462.45044,30.53394,463.24365C30.534977,464.081,30.183659,465.09503,29.65546,465.6687C29.083256,466.28638,28.775944,467.21228,28.777409,468.40216C28.778568,469.3717,28.603306,470.16522,28.338902,470.1656C28.118565,470.16583,27.898502,470.43054,27.898869,470.739C27.899265,471.04755,27.5033,471.5769,27.018894,471.93005C26.446507,472.3274,26.13895,473.07697,26.14008,474.00244C26.141056,474.79572,25.965641,475.45703,25.701145,475.45734C25.480778,475.45764,25.260868,475.8105,25.261387,476.25116C25.261936,476.6919,24.866093,477.30933,24.38181,477.66254C23.809328,478.05994,23.501741,478.8095,23.50287,479.735C23.503878,480.52826,23.328402,481.1895,23.063936,481.18988C22.84366,481.19012,22.623903,481.67517,22.624666,482.29218C22.62543,482.90918,22.449678,483.39417,22.185305,483.39453C21.964937,483.39478,21.745058,483.79175,21.745607,484.23248C21.746187,484.71722,21.57062,485.24622,21.306276,485.37878C21.086184,485.51123,20.86658,486.12854,20.867342,486.74548C20.868074,487.31842,20.692293,487.8034,20.42792,487.8037C20.207552,487.80402,19.987581,488.1128,19.988008,488.4654C19.988436,488.818,19.812563,489.1267,19.548098,489.127C19.283724,489.12738,19.10892,490.31744,19.11072,491.7718C19.11252,493.22614,18.937624,494.41632,18.67325,494.41663C18.452883,494.41693,18.233217,494.9901,18.234041,495.65112C18.23569,496.97327,17.357058,499.26605,16.82831,499.26672C16.607943,499.26697,16.476778,500.14862,16.478151,501.25037C16.479525,502.35217,16.304323,503.2337,16.039858,503.23407C15.81949,503.2343,15.599855,503.80762,15.600771,504.55682C15.601656,505.26196,15.426149,505.87915,15.161776,505.87952C14.941408,505.87976,14.721529,506.2766,14.722109,506.7614C14.722719,507.24622,14.546968,507.64307,14.282473,507.64337C14.018099,507.64374,13.843203,508.8338,13.845003,510.28815C13.846804,511.7425,13.6720295,512.9327,13.407656,512.933C13.187288,512.9333,12.9680195,513.815,12.969332,514.8727C12.970705,515.9744,12.795595,516.9883,12.531374,517.12085C12.311159,517.25336,12.091463,517.7824,12.092043,518.2672C12.092592,518.70795,11.91681,519.10486,11.652345,519.10516C11.38794,519.10547,11.213471,520.5159,11.215791,522.411C11.218141,524.3061,11.043519,525.71655,10.779145,525.7169C10.51468,525.7172,10.339875,526.90735,10.341676,528.3617C10.343476,529.81604,10.168733,531.00616,9.904237,531.00653C9.683961,531.0068,9.464662,531.8885,9.465974,532.94617C9.467347,534.048,9.292268,535.0618,9.028016,535.19434C8.807832,535.3268,8.589326,536.8255,8.591462,538.5442C8.593598,540.26306,8.418946,541.5854,8.154481,541.5857C7.9341135,541.586,7.714448,542.07104,7.715211,542.68805C7.715974,543.305,7.540223,543.79004,7.2758493,543.79034C7.0113535,543.7907,6.8365183,544.93677,6.838319,546.3911C6.8401194,547.84546,6.665498,549.1678,6.401185,549.30035C6.18097,549.43286,5.961945,550.4467,5.9633183,551.5485C5.9646306,552.6062,5.789368,553.4879,5.524964,553.4882C5.3045964,553.48846,5.084748,553.8854,5.0853276,554.3701C5.085938,554.855,4.9101872,555.2518,4.6456914,555.25214C4.3813176,555.25244,4.206757,556.70703,4.2093205,558.7783C4.211884,560.8497,4.0374455,562.3042,3.7730718,562.30457C3.508576,562.3049,3.3338017,563.49506,3.3356023,564.9494C3.3374028,566.40375,3.1625981,567.5939,2.8981326,567.59424C2.6777651,567.5945,2.4582827,568.29987,2.4592898,569.13715C2.4603274,569.97455,2.2849429,570.67993,2.0645754,570.68024C1.8883364,570.6804,1.5815737,572.091,1.4515382,573.85406C1.3214113,575.57306,1.0148317,577.11584,0.7946168,577.24835C0.57449347,577.38086,0.26754764,578.6152,0.13693239,579.9375C-0.037750248,581.2598,-0.34484866,582.40607,-0.6091004,582.4945C-0.82937634,582.58295,-1.0489808,583.20026,-1.0481569,583.86127C-1.0473939,584.4783,-1.3106385,585.4041,-1.6626589,585.88934C-1.9705203,586.3745,-2.3655703,587.6531,-2.4965212,588.71094C-2.6274416,589.7688,-2.9346926,590.7828,-3.1988835,590.91534C-3.4631658,591.092,-3.857819,592.67896,-4.119965,594.4862C-4.3822026,596.2935,-4.732758,597.8805,-4.952973,598.01294C-5.129029,598.1454,-5.4362187,599.2035,-5.611115,600.3936C-5.741822,601.6278,-6.049012,602.68585,-6.269105,602.8183C-6.4452524,602.9949,-6.7521677,604.27325,-6.926606,605.72784C-7.101136,607.13837,-7.3639536,608.4608,-7.5841684,608.5933C-7.7602854,608.7257,-8.066468,610.5771,-8.239991,612.7809C-8.369569,614.9405,-8.675721,616.83594,-8.895936,616.96844C-9.071992,617.1008,-9.378602,618.6437,-9.508637,620.40674C-9.638642,622.2138,-9.945069,623.88885,-10.165132,624.1536C-10.385102,624.46234,-10.689912,627.4596,-10.862,630.8092C-10.990052,634.2028,-11.294984,637.0678,-11.515199,637.20026C-11.691316,637.33276,-11.99521,641.03503,-12.122072,645.3983C-12.247927,650.4667,-12.5088215,653.3757,-12.817202,653.4641C-13.125582,653.5526,-13.298891,655.9327,-13.337618,660.29584C-13.33304,663.9978,-13.547518,668.7577,-13.765169,670.96155C-13.982851,673.1213,-14.371248,679.77655,-14.628267,685.72644C-14.885408,691.67633,-15.275881,696.61285,-15.451998,696.7453C-16.112612,697.1427,-16.186525,744.29895,-15.524935,744.6947C-15.260225,744.87067,-14.862673,745.6194,-14.685549,746.3243C-14.508425,747.02924,-14.110628,747.91016,-13.757723,748.2182C-13.448885,748.5263,-13.183565,749.1871,-13.182955,749.6718C-13.182405,750.11255,-13.005678,750.5089,-12.741274,750.5086C-12.520906,750.50836,-12.1676655,751.03674,-12.034609,751.69775C-11.857514,752.3585,-11.45987,753.19543,-11.106904,753.5035C-10.798005,753.8116,-10.53299,754.3401,-10.532563,754.6926C-10.5321665,755.00116,-10.223237,755.35333,-9.870423,755.52924C-9.51764,755.66095,-9.20865,756.0573,-9.208222,756.40985C-9.207826,756.7183,-8.898835,757.11456,-8.546113,757.2904C-8.19336,757.42224,-7.884431,757.7744,-7.884034,758.0829C-7.8396616,758.39136,-7.265748,759.1398,-6.5598764,759.7559C-5.809937,760.32794,-5.235932,761.1646,-5.2354436,761.5612C-5.2348943,762.00195,-5.0581365,762.3984,-4.7936406,762.48615C-4.5731816,762.57404,-4.174866,763.93976,-3.9524846,765.57007C-3.7299504,767.3327,-3.1991582,768.8746,-2.8020327,769.3148C-2.1401064,769.975,-2.0511477,770.636,-2.354645,774.6909C-2.4837039,777.2472,-2.8334963,779.4512,-3.0096745,779.5836C-3.2298894,779.71606,-3.5362859,781.39124,-3.7102666,783.24243C-4.014588,786.6362,-4.629914,787.9591,-5.863892,787.9607C-6.1723948,787.96106,-6.568635,788.27,-6.7003794,788.6668C-6.832185,789.0196,-7.140443,789.19617,-7.404969,789.06433C-7.6255198,788.9324,-7.8456736,789.109,-7.8451853,789.5056C-7.8447275,789.85815,-8.15268,790.29926,-8.505128,790.4319C-8.857423,790.60864,-9.165498,790.96155,-9.165101,791.2701C-9.164063,792.1074,-10.572663,793.5194,-11.806123,793.9176C-12.4229145,794.0946,-13.303896,794.49243,-13.788301,794.75745C-15.902163,796.0381,-21.629274,797.7639,-25.683079,798.3419C-26.872746,798.51965,-29.64835,799.2723,-31.850925,799.98016C-34.00971,800.6439,-37.314,801.4413,-39.12064,801.7079C-45.730076,802.6416,-51.28089,804.41125,-51.719887,805.734C-51.85157,806.1748,-52.159645,806.52783,-52.380013,806.5281C-52.60038,806.5283,-52.776253,806.83704,-52.775795,807.1896C-52.775307,807.58624,-53.08332,807.9833,-53.43577,808.1159C-53.83219,808.2927,-54.09574,808.9541,-54.094795,809.70325C-54.093513,810.761,-54.35752,811.1139,-55.679024,811.64435C-57.26478,812.30743,-57.264717,812.3515,-57.041847,814.37854C-56.90824,815.4801,-56.598488,816.49335,-56.33396,816.5812C-56.069405,816.66895,-55.848732,816.97723,-55.848457,817.19763C-55.846535,818.74005,-48.789772,823.0503,-45.395695,823.57495C-44.470036,823.706,-43.323704,824.1012,-42.838505,824.4092C-42.353336,824.7611,-41.29526,825.0242,-40.413914,825.0231C-39.57654,825.0221,-38.16605,825.2407,-37.328403,825.46C-35.60895,825.9867,-18.068392,826.14136,-14.587435,825.6522C-7.3168955,824.7178,-4.7172246,824.27386,1.0103456,822.9446C4.5349736,822.1029,13.609774,818.96265,14.225985,818.34485C14.358065,818.2125,15.547426,817.72626,16.86899,817.2839C18.190493,816.7975,19.379854,816.3113,19.511873,816.13477C19.863832,815.69366,24.357456,814.36597,25.5033,814.3645C26.076176,814.3638,26.561253,814.53955,26.561527,814.7599C26.561771,814.9802,26.958866,815.3323,27.44376,815.4639C27.928745,815.59546,28.32581,815.94763,28.326084,816.16797C28.326878,816.82904,29.253483,817.6653,30.929203,818.50055C32.03162,819.072,33.48621,819.2466,37.144108,819.24207C46.663403,819.1862,53.272717,818.07623,58.60225,815.6017C59.65944,815.1597,60.71669,814.7618,60.937027,814.7615C61.77437,814.76044,63.57863,812.64276,63.577408,811.6733C63.576797,811.1884,63.796646,810.79156,64.017044,810.79126C64.28151,810.79095,64.45613,809.46857,64.453995,807.70575C64.4518,805.94293,64.27388,804.62103,64.009415,804.6213C63.74501,804.62164,63.567215,803.43195,63.565445,801.9776C63.563614,800.52325,63.38588,799.33356,63.121475,799.3339C62.90114,799.33417,62.68013,798.8497,62.679398,798.23267C62.678604,797.61566,62.501785,797.13104,62.23726,797.1314C62.016922,797.13165,61.795303,796.11835,61.79384,794.92847C61.792313,793.6944,61.614883,792.7251,61.35048,792.7254C61.130142,792.72565,60.90944,792.4615,60.909073,792.153C60.908707,791.8886,60.511185,791.13983,60.02559,790.5235C59.540054,789.9071,59.141983,788.7177,59.140762,787.7481C59.139664,786.86664,58.962357,786.11774,58.698013,786.11804C58.477615,786.11835,58.256546,785.50165,58.25563,784.79645C58.254715,784.0472,58.077774,783.47455,57.81331,783.47485C57.59291,783.47516,57.372147,783.07874,57.371536,782.59393C57.370926,782.1092,57.194107,781.7127,56.929764,781.7131C56.665237,781.71344,56.485306,778.71686,56.47902,773.6486C56.46974,766.1125,56.513138,765.58356,57.349747,764.9655C57.83406,764.61237,58.229935,763.9949,58.229385,763.55414C58.228836,763.11346,58.448746,762.7606,58.669144,762.7603C58.933487,762.76,59.10933,762.3191,59.108597,761.74615C59.107925,761.1732,59.63588,760.4234,60.42842,759.89355L61.749405,759.0105L61.74379,754.4712C61.740494,751.78284,61.562027,749.97614,61.297623,749.9765C61.077286,749.97675,60.85652,749.6686,60.856094,749.31604C60.85414,747.7735,58.340042,746.146,54.01942,744.82916C53.534496,744.6535,52.872936,744.3017,52.608227,743.9936C51.94624,743.3333,51.854015,740.0281,52.47053,739.6307C52.734814,739.49817,52.909985,738.57245,52.908825,737.6469C52.907665,736.72144,53.126842,735.79565,53.34712,735.6632C53.61128,735.4866,53.782238,731.25555,53.773815,724.4246C53.765392,717.59357,53.583935,713.3629,53.319286,713.18695C53.098766,713.05505,52.87605,711.1602,52.873363,708.95667C52.870434,706.6209,53.04475,705.0342,53.309216,705.0338C53.57362,705.0335,53.748425,703.88745,53.746593,702.4331C53.744823,700.97876,53.963573,699.6563,54.183727,699.52386C54.44813,699.3913,54.62367,698.86224,54.62306,698.3775C54.62251,697.93677,54.84242,697.53986,55.062756,697.5396C55.32716,697.53925,55.502514,696.7457,55.501354,695.82025C55.500195,694.8507,55.71931,693.9249,55.939526,693.7925C56.20381,693.61584,56.37715,691.2358,56.373123,688.0186C56.369034,684.6692,56.542618,682.5535,56.807144,682.5532C57.071487,682.5529,57.246353,681.36273,57.244522,679.9084C57.242752,678.45404,57.417557,677.264,57.68196,677.2636C57.946426,677.2633,58.12062,675.5884,58.117508,673.07635C58.114395,670.5643,57.93605,668.8898,57.671585,668.8901C57.451187,668.8904,57.23018,668.31775,57.229324,667.6126C57.22841,666.8634,57.051163,666.15845,56.786697,666.0266C56.521927,665.8506,56.342728,663.42694,56.3387,660.1657C56.33235,655.05347,56.419754,654.4804,57.212357,653.9065C57.69673,653.5533,58.092606,652.9358,58.092056,652.4951C58.091507,652.05444,58.311417,651.7016,58.531815,651.7013C58.796158,651.701,58.972122,651.3923,58.971634,650.9956C58.971146,650.599,59.58699,649.7168,60.291336,649.05493C61.347855,648.08405,61.611465,647.46674,61.609634,646.0124C61.608414,644.9987,61.827835,644.20514,62.048172,644.2049C62.3127,644.2046,62.48781,643.32294,62.486465,642.2211C62.48506,641.1194,62.70436,640.2376,62.924698,640.23737C63.189102,640.23706,63.363785,638.9147,63.361588,637.15186C63.35939,635.389,63.534073,634.06665,63.798477,634.0663C64.06294,634.066,64.23872,633.66907,64.238174,633.1843C64.237564,632.6995,64.45741,632.3026,64.67781,632.3023C64.942154,632.302,65.11769,631.7289,65.11684,631.02374C65.11592,630.27454,65.33534,629.56915,65.55562,629.43665C65.8199,629.30414,65.995316,628.59875,65.99446,627.9376C65.99281,626.6156,66.87154,624.3669,67.44441,624.36615C67.62068,624.3659,67.752396,623.9691,67.751785,623.4844C67.751175,622.9996,67.971085,622.60266,68.19142,622.6024C68.455826,622.60205,68.63106,621.72046,68.629776,620.6627C68.62782,619.0761,68.80354,618.6352,69.508316,618.414C70.21321,618.1928,70.38899,617.75183,70.38728,616.3856C70.38594,615.2839,70.605545,614.6666,70.95802,614.6662C71.971634,614.6649,73.074844,615.72125,73.16426,616.7788C73.16493,617.3077,73.38582,617.7481,73.56209,617.7479C73.73836,617.7477,73.91542,618.32043,73.916336,619.0696C73.91719,619.7748,74.13832,620.3914,74.35872,620.3912C74.62312,620.3908,74.800186,621.0958,74.80122,621.93317C74.80226,622.7705,75.02351,623.47534,75.24385,623.4751C75.508316,623.4748,75.68605,624.6644,75.68788,626.1188C75.68965,627.5731,75.867386,628.7628,76.13185,628.7625C76.396255,628.7622,76.57301,629.15857,76.57362,629.64343C76.574234,630.1282,76.79506,630.52454,77.015396,630.52423C77.27992,630.5239,77.45711,631.31696,77.45827,632.2425C77.45943,633.21204,77.680984,634.13727,77.901505,634.26917C78.16609,634.4011,78.34346,635.32635,78.34468,636.29596C78.3459,637.2655,78.744644,638.8956,79.230545,639.8646C79.71657,640.87775,80.11495,642.24347,80.11587,642.94855C80.11666,643.6096,80.33767,644.18225,80.55801,644.182C80.82247,644.18164,81.000084,645.28326,81.00173,646.6054C81.00338,647.9275,81.22512,649.029,81.44546,649.02875C81.70986,649.02844,81.88668,649.42487,81.88723,649.86554C81.88784,650.35034,82.10885,650.87897,82.32925,651.0108C82.593956,651.1427,82.77114,651.9357,82.77212,652.72906C82.773155,653.5664,83.08279,654.44745,83.43575,654.7555C83.876915,655.10754,84.09823,655.9446,84.01144,657.00244C83.96871,658.0602,84.19021,658.9854,84.67562,659.5137C85.072716,659.95386,85.42666,660.9671,85.427574,661.7163C85.42855,662.5096,85.64968,663.1263,85.87008,663.12604C86.13442,663.1257,86.3113,663.6103,86.31197,664.18317C86.31277,664.8002,86.53384,665.4169,86.75442,665.5488C87.019066,665.68066,87.195946,666.20935,87.196556,666.69415C87.197105,667.1348,87.37386,667.53125,87.5942,667.531C88.211205,667.5302,89.27358,671.31903,89.14352,673.038C89.10055,673.87537,89.23354,674.5803,89.45388,674.58C89.67428,674.5798,89.85134,675.28467,89.85238,676.122C89.85342,676.95935,90.07467,677.6643,90.295006,677.664C90.55953,677.6637,90.73708,678.7211,90.73867,679.9992C90.74087,681.8061,90.91799,682.467,91.6238,682.9509C92.15304,683.3028,92.506615,684.09564,92.50747,684.80084C92.50832,685.46185,92.729454,686.1226,92.950035,686.2546C93.2145,686.3864,93.39248,687.6643,93.39419,689.0305C93.39669,691.0578,93.57363,691.67456,94.27944,692.2026C94.76461,692.5545,95.162315,693.3473,95.16317,694.00836C95.16396,694.66943,95.38509,695.28613,95.60543,695.37396C95.87002,695.46185,96.17971,696.38696,96.26913,697.4446C96.35854,698.45807,96.7568,699.7797,97.11013,700.39624C97.50747,700.9687,97.81722,702.02606,97.81814,702.7752C97.81905,703.4804,98.040184,704.0971,98.26052,704.09686C98.52505,704.0965,98.70223,704.8896,98.70345,705.85913C98.70467,706.8287,98.92605,707.62164,99.146385,707.6214C99.41079,707.62103,99.5873,707.84125,99.58761,708.0616C99.58791,708.32605,99.985374,708.9425,100.47079,709.47076C100.9562,709.999,101.398155,710.968,101.39901,711.67316C101.48934,713.4359,101.53365,713.6561,101.93081,714.0523C102.10726,714.2284,102.240135,714.7571,102.240685,715.1978C102.241234,715.6385,102.462,715.9908,102.682396,715.9905C102.9468,715.9902,103.12405,716.82733,103.12527,717.7969C103.12655,718.8105,103.39236,719.8679,103.74526,720.13196C104.58346,720.79193,105.77743,724.0958,105.77944,725.7265C105.7803,726.4316,106.178185,727.4447,106.66366,727.97296C107.14907,728.5012,107.546776,729.38214,107.54745,729.9551C107.54818,730.528,107.769066,730.96844,107.98946,730.96814C108.25381,730.96783,108.43099,731.62866,108.43197,732.42194C108.43301,733.25934,108.786766,734.2725,109.31637,734.8447C109.80184,735.373,110.199425,736.1658,110.200096,736.69464C110.20071,737.17944,110.42159,737.5758,110.64193,737.57556C110.906334,737.5752,111.0834,738.28015,111.084435,739.1175C111.08584,740.26337,111.439354,740.96796,112.410065,741.89233C113.33664,742.7726,113.734344,743.6095,113.735565,744.57904C113.73648,745.32825,113.95761,745.945,114.17801,745.9447C114.44235,745.9444,114.61899,746.2526,114.619415,746.60516C114.61984,746.95776,114.840546,747.26605,115.06094,747.26575C115.32541,747.26544,115.50253,747.9262,115.50351,748.71954C115.50467,749.645,115.813934,750.30566,116.38742,750.70166C116.87253,751.0096,117.26993,751.6261,117.27048,752.0668C117.27109,752.5516,117.492096,753.08014,117.712616,753.21204C117.9772,753.34393,118.15433,754.0048,118.15512,754.6659C118.15604,755.37103,118.50955,756.1638,119.03879,756.51575C119.52402,756.86774,119.92154,757.5724,119.92221,758.10126C119.92288,758.63007,120.232086,759.20264,120.628876,759.33435C120.98166,759.4661,121.2023,759.7743,121.070404,759.9949C120.76254,760.48004,121.690765,762.6824,122.219635,762.68176C122.39584,762.6815,122.5726,763.07794,122.57321,763.5627C122.57382,764.0475,122.79465,764.4439,123.015045,764.4436C123.27951,764.4433,123.45645,765.016,123.457306,765.6771C123.45828,766.47034,123.94412,767.3512,124.7825,768.1875C125.62088,769.0238,126.10672,769.9046,126.1077,770.6979C126.10855,771.35895,126.32956,771.93164,126.54996,771.93134C126.81442,771.931,126.99112,772.2393,126.99161,772.6359C126.992096,773.03253,127.34549,773.6932,127.78659,774.0893C128.58084,774.8376,129.64182,777.43646,129.64334,778.67035C129.64383,779.067,129.86453,779.4194,130.08487,779.41907C130.34933,779.41876,130.52615,779.8592,130.52676,780.344C130.52744,780.87286,130.96915,781.6656,131.49863,782.1497C132.51328,783.02985,133.70682,785.9371,133.35501,786.55457C133.22299,786.775,133.44406,787.30365,133.92941,787.6997C134.94424,788.668,135.82748,790.20935,135.82858,791.0908C135.82901,791.4434,136.0057,791.75165,136.18198,791.75146C136.40237,791.75116,136.84372,792.2795,137.19705,792.9401C137.55057,793.6448,137.90384,794.2613,138.03622,794.39343C138.56577,794.9216,139.36105,796.6394,139.36185,797.2564C139.36227,797.60895,139.75937,797.91693,140.24411,797.9163C140.94925,797.91547,141.126,798.22375,141.12723,799.2374C141.12808,799.94257,141.34915,800.55927,141.56955,800.559C141.83401,800.55865,142.01077,800.95514,142.01138,801.4399C142.012,801.9246,142.23282,802.32104,142.45322,802.32074C142.71756,802.32043,142.89438,802.6728,142.89499,803.15753C142.89554,803.5982,143.51364,804.567,144.2197,805.31537C144.96988,806.1077,145.54373,806.9003,145.54404,807.12067C145.54428,807.341,146.16177,807.73694,146.8674,808.0445C147.61691,808.3521,148.19028,808.704,148.19052,808.8803C148.1907,809.0565,149.55801,809.89215,151.27774,810.7274L154.36465,812.222L154.37436,820.1108L154.38412,827.99945L153.0635,829.2791C152.35928,829.9411,151.74313,830.647,151.74326,830.77924C151.7438,831.17584,149.58682,833.1617,149.14609,833.16223C148.88156,833.16254,148.2211,833.6041,147.60477,834.1337C146.06412,835.58997,145.44766,836.0755,144.25851,836.694C143.68588,837.00323,142.71732,837.70953,142.10098,838.2832C141.04453,839.2541,140.51596,839.5191,140.163,839.2111C140.0748,839.1671,139.2822,839.69696,138.44577,840.4472C135.45218,843.007,133.69058,844.111,130.0347,845.7021C129.10971,846.09985,128.0964,846.4096,127.74393,846.41003C127.39133,846.41046,126.862946,846.8078,126.55502,847.24884C126.20297,847.7341,125.41049,848.3521,124.74979,848.6614C124.08914,848.9707,123.56076,849.3239,123.56094,849.5002C123.56119,849.6765,123.07706,850.2941,122.50493,850.86786C121.932724,851.48553,121.27324,852.72034,121.09819,853.6901C120.791855,855.49744,120.04399,856.5561,119.118515,856.5572C118.32518,856.55817,117.4456,857.96954,117.44713,859.20355C117.44878,860.56976,118.37584,861.8466,119.34532,861.84546C119.74205,861.8449,120.050766,862.0209,120.05095,862.19714C120.051254,862.41754,120.84514,862.9454,121.81529,863.38495C122.785324,863.8244,123.57927,864.30817,123.57951,864.48444C123.5797,864.66077,124.0208,864.9246,124.593796,865.05615C125.12285,865.1877,126.62187,865.67065,127.90056,866.19794C133.58861,868.4826,135.08751,868.92145,139.23131,869.75366C150.73663,872.07526,163.07605,871.6192,176.91046,868.429C177.74756,868.2076,179.33344,867.7209,180.43475,867.3229C181.53595,866.8808,182.8576,866.4384,183.4303,866.30554C183.95898,866.17267,184.39941,865.90765,184.39917,865.6873C184.39893,865.51105,185.19165,865.1134,186.16095,864.84784C187.13019,864.58215,187.92291,864.1845,187.92273,864.00824C187.92242,863.7879,188.53894,863.39044,189.24365,863.0811C189.99255,862.77167,190.565,862.3743,190.56476,862.19806C190.56458,862.0218,191.18103,861.6244,191.8858,861.315C192.63466,861.00555,193.20699,860.56415,193.20674,860.3438C193.20607,859.815,194.35054,858.66766,194.83534,858.66705C195.05562,858.6668,195.89198,857.8725,196.72816,856.9019C197.56429,855.93134,198.40065,855.137,198.62099,855.1367C198.84138,855.1364,199.28175,854.82745,199.6338,854.4744C200.55824,853.5478,202.14485,853.634,204.26161,854.7331C206.29024,855.74426,207.47993,855.61053,211.04774,854.0196C215.188,852.11945,216.59761,851.5888,217.21474,851.5881C217.56721,851.5876,217.8755,851.41095,217.8752,851.14655C217.8749,850.92615,218.40327,850.57294,219.06429,850.43994C220.47398,850.08545,222.2791,848.5848,222.27806,847.7475C222.2777,847.43896,222.4536,847.1743,222.6298,847.17413C223.33507,847.1732,224.91956,845.5407,224.9187,844.8355C224.91827,844.483,225.09412,844.0861,225.3584,843.9976C225.57867,843.9533,225.8424,843.33594,225.8855,842.6308C225.92883,841.96967,226.14856,841.4405,226.32477,841.44025C226.85364,841.43964,226.75854,835.79865,226.22937,835.4908C226.00879,835.3588,225.78772,834.7421,225.78699,834.16925C225.78625,833.5963,225.60925,832.97955,225.3446,832.8476C225.12408,832.7157,224.90295,832.099,224.90222,831.482C224.90149,830.9091,224.72461,830.4245,224.4602,830.42487C224.23987,830.4251,224.01917,830.16095,224.0188,829.8525C224.01837,829.544,223.62114,829.01556,223.13579,828.66364C222.3861,828.1357,222.25304,827.51886,222.24919,824.38983C222.2465,822.2303,222.0684,820.7321,221.80394,820.7325C221.53954,820.7328,221.36174,819.5431,221.35991,818.08875C221.35814,816.63446,221.1804,815.44476,220.91606,815.44507C220.65154,815.4454,220.4735,813.9913,220.47093,811.91986C220.46837,809.8486,220.29033,808.3945,220.02586,808.3947C219.80547,808.395,219.5847,808.0868,219.58427,807.7342C219.58385,807.38165,219.40721,807.0733,219.1428,807.07367C218.92247,807.0739,218.70146,806.5895,218.70073,805.9725C218.69994,805.3555,218.523,804.8709,218.25859,804.8713C218.03825,804.8715,217.81718,804.2548,217.81627,803.5496C217.81535,802.8005,217.41747,801.7873,216.93205,801.2591C216.44652,800.7308,216.04893,799.93805,216.04839,799.4973C216.04784,799.0566,215.8712,798.7042,215.60667,798.7045C215.38634,798.70483,215.16545,798.2204,215.16472,797.60333C215.16393,796.9863,214.98705,796.5018,214.72264,796.50214C214.50224,796.5024,214.28087,795.7094,214.27971,794.73987C214.27849,793.77026,214.10124,792.9772,213.83678,792.9775C213.61638,792.9777,213.39568,792.5814,213.39507,792.0966C213.39445,791.6119,213.21758,791.21545,212.95323,791.21576C212.73283,791.216,212.51146,790.3349,212.51006,789.2331C212.50871,788.1313,212.33134,787.2501,212.06688,787.2504C211.84648,787.25073,211.62553,786.76624,211.6248,786.14923C211.62401,785.5322,211.44713,785.04767,211.18272,785.04803C210.96239,785.0483,210.74162,784.74005,210.7412,784.3875C210.74077,784.0349,210.5642,783.7266,210.29967,783.727C210.07933,783.72723,209.85844,783.3309,209.8579,782.89014C209.85728,782.40533,209.46,781.877,208.97508,781.7454C208.4901,781.61383,208.09306,781.30585,208.09288,781.1295C208.09264,780.9532,207.12242,780.3374,205.88762,779.766C204.69707,779.1945,203.68254,778.49066,203.68211,778.1381C203.68175,777.8296,203.50511,777.5654,203.2407,777.56573C202.97624,777.5661,202.7982,776.15607,202.79588,774.2609C202.7935,772.3659,202.61559,770.9558,202.35106,770.9561C202.13072,770.9564,201.90965,770.3397,201.9088,769.6346C201.90788,768.8854,201.73082,768.3126,201.46642,768.313C201.24608,768.31323,201.02531,768.00507,201.02489,767.65247C201.0244,767.2999,200.84776,766.99164,200.5833,766.992C200.36296,766.99225,200.14171,766.28735,200.14067,765.45C200.13963,764.6127,199.96251,763.9077,199.69817,763.9081C199.47777,763.9083,199.25694,763.51196,199.25633,763.02716C199.25566,762.4983,198.85808,761.70557,198.37254,761.17725C197.71062,760.42896,197.48924,759.59186,197.48686,757.6527C197.48509,756.24243,197.30742,755.0968,197.04295,755.0971C196.82256,755.0974,196.60173,754.70105,196.60112,754.21625C196.60051,753.7315,196.42375,753.3351,196.15935,753.3354C195.93901,753.33563,195.71782,752.67487,195.71684,751.8816C195.71568,750.9561,195.4063,750.2072,194.83281,749.81134C194.34764,749.4594,193.95036,748.931,193.95,748.62256C193.94963,748.314,193.77293,748.0498,193.50853,748.0502C193.28813,748.0504,193.06737,747.6982,193.06682,747.25745C193.06633,746.8608,192.66899,746.24426,192.18382,745.93634C191.6986,745.6284,191.30113,744.9238,191.3004,744.3509C191.29967,743.7339,191.1226,743.1171,190.85802,742.9852C190.63744,742.8533,190.41563,741.61957,190.41399,740.2974C190.41234,738.9753,190.23473,737.91785,189.97032,737.91815C189.74998,737.9184,189.52922,737.61017,189.52873,737.2576C189.5283,736.9051,189.35173,736.5968,189.0872,736.5971C188.86687,736.59735,188.64622,736.2892,188.6458,735.93665C188.64537,735.58405,188.46861,735.2757,188.20421,735.27606C187.98387,735.2763,187.7625,734.48334,187.76134,733.5138C187.76012,732.5442,187.58287,731.75116,187.3184,731.7515C187.09807,731.7518,186.87688,731.1351,186.87602,730.42993C186.8751,729.6807,186.6981,729.1079,186.43376,729.1082C186.21336,729.1085,185.99266,728.8003,185.99223,728.44775C185.9918,728.09515,185.81511,727.7869,185.55064,727.78723C185.33025,727.78754,185.10887,726.9064,185.10747,725.80457C185.10612,724.7028,184.92876,723.82166,184.66441,723.82196C184.44402,723.82227,184.22307,723.3377,184.22234,722.7207C184.22154,722.1037,184.04466,721.61914,183.7802,721.61945C183.5598,721.61975,183.33897,721.2234,183.33842,720.73865C183.33781,720.25385,183.16106,719.8574,182.89665,719.8577C182.67632,719.858,182.455,719.15314,182.45396,718.3158C182.45299,717.47845,182.27574,716.7735,182.01134,716.77386C181.791,716.7741,181.56975,716.0693,181.56871,715.23193C181.56767,714.3946,181.39061,713.68964,181.12608,713.69C180.90587,713.69025,180.68456,712.94135,180.6834,712.01587C180.68199,710.87,180.41661,710.16516,179.79906,709.72516C179.31389,709.3732,178.91637,708.6245,178.9157,708.09564C178.91502,707.5227,178.73808,707.0823,178.47374,707.0826C178.25334,707.0829,178.03209,706.378,178.03111,705.54065C178.03008,704.7033,177.85289,703.9984,177.58842,703.9987C177.36803,703.999,177.1475,703.7348,177.14714,703.42633C177.14671,703.1178,176.74937,702.5895,176.2642,702.2375C175.69078,701.8415,175.38127,701.0928,175.38017,700.1673C175.37914,699.37396,175.20207,698.7131,174.93767,698.71344C174.71733,698.7137,174.4962,698.097,174.49529,697.3919C174.49437,696.64264,174.31749,696.06995,174.05296,696.0703C173.83263,696.07056,173.6118,695.76227,173.61137,695.4097C173.61095,695.0572,173.43437,694.7489,173.16997,694.7492C172.94957,694.7495,172.72832,694.0446,172.72728,693.2073C172.72624,692.3699,172.54912,691.66504,172.28465,691.66534C172.06432,691.66565,171.84355,691.35736,171.84312,691.0048C171.8427,690.6523,171.666,690.34406,171.40166,690.34436C171.18126,690.34467,170.96043,689.9482,170.95988,689.46344C170.95927,688.97864,170.7824,688.5822,170.51805,688.5825C170.29765,688.58276,170.07622,687.70166,170.07487,686.5999C170.07347,685.4981,169.8961,684.61694,169.63164,684.6173C169.41136,684.61755,169.19011,683.91266,169.18907,683.0753C169.18803,682.238,169.01085,681.533,168.74644,681.5334C168.52611,681.5336,168.3048,680.7847,168.30363,679.85925C168.30223,678.7134,168.03697,678.00854,167.41942,677.5686C166.93413,677.2166,166.53691,676.6883,166.53648,676.37976C166.53612,676.0713,166.35954,675.80707,166.09508,675.8074C165.87474,675.8077,165.6541,675.5435,165.65367,675.1909C165.65324,674.8384,164.99089,673.8697,164.24065,673.0332C163.44646,672.19684,162.47551,671.14026,162.03423,670.70013C161.37224,669.9077,160.6663,669.29156,157.31357,666.5633C156.56357,665.94727,155.94571,665.1988,155.94528,664.8903C155.94498,664.6259,155.76828,664.3617,155.59201,664.36194C155.37167,664.3622,154.75418,664.01044,154.26889,663.52625C153.25418,662.69006,152.89822,659.9581,153.73557,659.9571C153.99997,659.9568,154.17569,659.4717,154.17496,658.85474C154.17416,658.23773,154.39389,657.75275,154.61429,657.75244C154.87875,657.75214,155.05441,657.26715,155.05362,656.65015C155.05289,656.03314,155.27261,655.5481,155.49301,655.54785C155.75735,655.5475,155.93088,653.2115,155.92612,649.3773C155.92136,645.54315,155.7421,643.2076,155.47775,643.20795C155.25735,643.2082,155.03665,642.89996,155.03622,642.5474C155.03574,642.1948,154.8591,641.88654,154.59464,641.88684C154.37424,641.88715,154.1536,641.57886,154.15317,641.2263C154.15274,640.8738,153.97598,640.5655,153.71158,640.5658C153.49124,640.5661,153.2703,640.08154,153.2695,639.46454C153.26877,638.84753,153.09195,638.363,152.91556,638.36316C152.69528,638.36346,152.03372,637.96765,151.46005,637.4395C150.88657,636.9554,149.87228,636.42786,149.21109,636.2964C148.50577,636.1651,147.9766,635.9013,147.97635,635.72504C147.9761,635.50464,146.82968,635.0213,145.46292,634.5823C144.05215,634.1434,142.64102,633.528,142.37631,633.264C141.71445,632.6037,141.5762,627.8002,142.23734,627.7994C142.50168,627.799,142.67532,625.55115,142.6708,621.89325C142.66647,618.4117,142.83951,615.8553,143.10373,615.6787C143.36801,615.54614,143.54263,614.2238,143.54092,612.81354C143.53915,611.40326,143.75784,610.0809,143.97812,609.94836C144.24228,609.7718,144.41568,607.3917,144.41177,604.2186C144.4078,601.0455,144.58115,598.66534,144.8453,598.48883C145.10959,598.31226,145.2822,595.4033,145.27701,591.21655C145.27182,587.0298,145.44461,584.12085,145.70877,583.94434C145.97299,583.81177,146.14816,582.88605,146.147,581.91644C146.14584,580.99097,146.36526,580.19745,146.5856,580.19714C146.85,580.19684,147.02542,579.49146,147.02438,578.6541C147.02335,577.8168,147.24277,577.1113,147.4631,577.111C147.72763,577.1107,147.90213,575.70026,147.89975,573.8052C147.89743,571.9101,148.07193,570.4997,148.3364,570.4993C148.6008,570.499,148.7764,569.92584,148.77554,569.22076C148.77457,568.47156,148.99405,567.7661,149.21426,567.6336C149.47855,567.45703,149.65189,565.077,149.64804,561.992C149.642,557.10016,149.55313,556.5273,148.75912,555.9554C147.8328,555.2954,147.52237,553.75336,148.3157,553.7523C148.58011,553.752,148.75601,553.4433,148.75558,553.09076C148.75516,552.73816,148.97507,552.4294,149.19547,552.42914C149.45993,552.4288,149.63583,552.12006,149.6354,551.7676C149.63498,551.415,149.85495,551.10614,150.07535,551.1059C150.33969,551.1055,150.51547,550.70874,150.51486,550.22394C150.51425,549.73914,150.73416,549.3422,150.9545,549.342C151.21896,549.3417,151.3948,548.98883,151.39426,548.54816C151.3937,548.1075,151.78952,547.49,152.27396,547.1368C152.80228,546.7835,153.1539,545.9898,153.15305,545.2847C153.15219,544.6236,153.37192,544.0505,153.59225,544.0502C153.85666,544.04987,154.03244,543.6089,154.03171,543.03595C154.03104,542.50714,154.42673,541.75745,154.9111,541.4043C155.48355,541.00696,155.79117,540.2573,155.79001,539.33185C155.78903,538.5386,156.00858,537.8772,156.22885,537.87695C156.49332,537.8766,156.66867,537.1713,156.66763,536.334C156.6666,535.4966,156.88608,534.79114,157.10648,534.7909C157.37082,534.7906,157.54611,533.90894,157.54477,532.8071C157.54343,531.7054,157.76266,530.82367,157.98306,530.8234C158.2474,530.8231,158.42307,530.338,158.42227,529.72107C158.42154,529.10406,158.64133,528.6191,158.86166,528.6188C159.12613,528.61847,159.30142,527.82495,159.3002,526.8554C159.29904,525.8858,159.51846,525.0923,159.7388,525.092C160.00322,525.0917,160.17833,524.20996,160.17699,523.1083C160.17558,522.0064,160.39488,521.1248,160.61522,521.1245C160.87975,521.1242,161.05559,520.81555,161.05516,520.4629C161.05473,520.11035,161.27477,519.8016,161.4951,519.80133C161.7595,519.80096,161.93529,519.4041,161.93468,518.9194C161.93407,518.4346,162.15392,518.0376,162.37431,518.03735C162.63878,518.037,162.81468,517.7283,162.8142,517.3758C162.81377,517.0232,163.03374,516.71436,163.25414,516.7141C163.51848,516.71375,163.69444,516.44916,163.69402,516.1407C163.69365,515.83215,164.08977,515.34686,164.57414,515.0378C165.05852,514.7287,165.45457,514.19934,165.45415,513.84674C165.45372,513.4942,165.67363,513.1855,165.89397,513.1852C166.15843,513.1849,166.33421,512.788,166.3336,512.3032C166.333,511.81842,166.5529,511.4215,166.77324,511.4212C167.03764,511.4209,167.21336,510.9359,167.21263,510.3189C167.21184,509.70184,167.43163,509.21686,167.65184,509.2166C167.91637,509.21625,168.0905,507.54138,168.08739,505.0293C168.08427,502.51727,168.25853,500.84235,168.523,500.84204C168.7874,500.84167,168.96135,498.9464,168.95769,495.99365C168.95409,493.0409,169.12798,491.14563,169.39238,491.14532C169.65685,491.14496,169.83104,489.47003,169.82799,487.002C169.82512,484.66632,169.99901,482.68286,170.26323,482.55035C170.52739,482.4178,170.70256,481.40393,170.70116,480.3022C170.69987,479.2445,170.91911,478.3628,171.13951,478.3625C171.40385,478.36218,171.5761,475.1007,171.56908,469.41553C171.56181,463.55408,171.73412,460.29266,172.04228,459.98376C172.39433,459.63074,172.39403,459.41034,172.04137,459.2345C171.77666,459.0586,171.55571,458.61816,171.55528,458.2655C171.55486,457.91296,171.77501,457.73645,171.99553,457.86835C172.26018,458.0003,172.43639,457.95593,172.43602,457.6916C172.43578,457.4712,172.25914,457.16296,172.08263,457.03088C171.86205,456.89893,171.6392,454.872,171.59227,452.49225C171.54521,450.11243,171.32237,448.08545,171.14592,447.95334C170.44023,447.51352,169.77562,444.64975,169.77257,442.1818C169.7708,440.72745,169.59306,439.58176,169.3286,439.58212C169.0642,439.58243,168.88646,438.3928,168.88469,436.93845C168.88286,435.4841,168.70506,434.29434,168.44066,434.2947C168.1762,434.295,167.99852,433.14944,167.99669,431.6951C167.99492,430.24075,167.81706,428.9188,167.55241,428.78696C167.28783,428.61093,167.10777,425.57022,167.10216,421.0309C167.09642,416.3594,166.91661,413.5831,166.6522,413.5834C166.43187,413.5837,166.2111,413.2756,166.21068,412.92288C166.21025,412.57034,166.43028,412.26163,166.65062,412.26132C166.91502,412.26102,167.09093,411.9523,167.0905,411.59976C167.09007,411.24716,167.3101,410.93845,167.53032,410.9382C167.79485,410.93784,167.9694,409.61545,167.96727,407.8967C167.96397,405.20828,168.09575,404.8115,168.84459,404.54617C169.32927,404.41336,169.72545,404.10446,169.72527,403.92813C169.72496,403.70773,170.562,403.44235,171.61955,403.30875C174.17528,402.95303,176.68578,401.76004,178.66673,399.90665C180.07542,398.58267,180.29515,398.0977,180.2932,396.51114C180.29185,395.4534,180.51122,394.61575,180.73143,394.6155C180.99596,394.61514,181.17113,393.73355,181.16972,392.63187C181.16838,391.53,181.38768,390.64822,181.60802,390.64798C181.87242,390.6476,182.04839,390.33902,182.04796,389.98636C182.0471,389.32535,185.17186,385.79575,185.7888,385.795C185.96507,385.79477,186.44939,385.44162,186.84557,385.00034C187.24156,384.5151,188.03404,383.89713,188.60661,383.58798C189.17912,383.27878,190.1038,382.6606,190.58818,382.21933C193.49358,379.57144,194.50615,378.73276,194.85875,378.73233C195.07903,378.73203,195.25505,378.4675,195.25462,378.15897C195.25426,377.8505,195.65019,377.32114,196.13457,376.96805C196.61894,376.61484,197.01494,376.08548,197.01457,375.77695C197.01427,375.5126,197.41039,375.1155,197.89494,374.9825C198.37962,374.84982,198.77568,374.40854,198.77525,374.05606C198.77483,373.70346,198.99486,373.4388,199.21526,373.43857C199.4796,373.4382,199.6555,373.12943,199.65501,372.77695C199.65453,372.38034,200.1829,371.983,200.97606,371.8057C201.72508,371.67252,202.29753,371.3193,202.29723,371.05484C202.29686,370.79044,202.69292,370.26108,203.22124,369.90793C203.74968,369.5546,204.76225,368.71597,205.4666,368.0101C206.21495,367.34805,206.96349,366.8182,207.18388,366.81796C207.40422,366.81766,207.58025,366.64114,207.57994,366.37674C207.57939,365.93613,209.51616,363.95047,211.05724,362.84677C211.58562,362.49356,211.98167,361.96432,211.98125,361.65573C211.98094,361.39133,212.33311,361.03824,212.77354,360.90555C213.17009,360.7288,214.18279,360.02237,215.01927,359.3162C215.81163,358.566,216.64824,357.9921,216.78044,357.9919C216.9127,357.9918,217.30864,357.41824,217.6162,356.66867C217.92381,355.96317,218.58403,355.2573,219.06865,355.12442C219.5092,354.94754,219.90526,354.50644,219.90477,354.10977C219.90422,353.66904,220.30003,353.0516,220.78435,352.6984C221.26878,352.34525,221.66478,351.8599,221.66441,351.55154C221.66411,351.28702,222.1483,350.84567,222.76494,350.58047C223.38158,350.27127,224.13025,349.82962,224.43848,349.60892C226.46368,347.8876,227.12408,347.402,227.47668,347.40158C227.6529,347.4014,227.82898,347.13675,227.82849,346.78415C227.82806,346.43155,228.22412,345.99033,228.70874,345.85757C229.19342,345.7247,229.5896,345.3716,229.5893,345.10727C229.58862,344.5784,231.30542,342.98984,231.87836,342.9891C232.05463,342.98886,232.23047,342.68008,232.22998,342.28348C232.22949,341.8868,232.84534,341.00455,233.5498,340.34274C234.2981,339.6807,234.87012,338.88675,234.86975,338.62234C234.86945,338.35788,235.08948,338.13724,235.30988,338.13693C235.57428,338.13663,235.75012,337.8279,235.7497,337.4753C235.74927,337.12277,235.9693,336.81393,236.18964,336.81363C236.4541,336.81332,236.62988,336.41647,236.62927,335.93173C236.62866,335.447,236.80444,335.0502,237.02478,335.0499C237.55365,335.0493,240.15082,332.5781,240.1502,332.09323C240.14996,331.8729,240.54602,331.43167,241.03046,331.07852C241.69086,330.59286,241.91034,329.9315,241.90845,328.38913C241.90686,327.11105,242.12616,326.22934,242.47864,326.09677C242.919,325.91983,242.91888,325.8317,242.47827,325.83224C242.08154,325.78867,241.90411,324.86343,241.90143,322.7039C241.89832,320.1918,241.72107,319.3988,241.01508,318.65045C240.52954,318.1222,240.13196,317.3294,240.13141,316.88867C240.13086,316.44794,239.95416,316.0957,239.6897,316.096C239.4693,316.09625,239.24854,315.69995,239.24792,315.2151C239.24731,314.73022,239.0705,314.3338,238.80609,314.33417C238.58575,314.3344,238.36493,313.98224,238.36438,313.5415C238.36383,313.10077,237.96649,312.48425,237.48132,312.13232C236.86371,311.69232,236.59839,310.98743,236.59692,309.79755C236.5957,308.784,236.4187,308.21136,236.15448,308.38788C235.89026,308.5204,235.71344,308.1681,235.7127,307.5511C235.71191,306.93408,235.53497,306.31738,235.27039,306.18542C235.0498,306.05347,234.82843,305.21637,234.8274,304.37903C234.82635,303.5417,234.64929,302.8808,234.38483,302.8811C234.16443,302.8814,233.94373,302.5733,233.9433,302.2207C233.94281,301.86804,233.76617,301.5598,233.50183,301.56012C233.28143,301.56036,233.06061,301.16406,233.06,300.67932C233.05945,300.19446,232.88269,299.79803,232.61823,299.7984C232.39783,299.79865,232.17664,299.13782,232.17566,298.3446C232.1745,297.41913,231.86505,296.67023,231.29169,296.27435C230.80646,295.92242,230.40894,295.21765,230.4082,294.64484C230.40753,294.11584,230.23065,293.5432,229.96594,293.41138C229.74554,293.27942,229.52405,292.3982,229.52301,291.51685C229.52155,290.3709,229.25623,289.66626,228.63867,289.22626C228.1535,288.87427,227.75616,288.25775,227.75562,287.81714C227.75507,287.3764,227.57825,287.02405,227.3139,287.02435C227.0935,287.0246,226.87274,286.71637,226.87231,286.36377C226.87189,286.01117,226.69525,285.703,226.43079,285.70337C226.21039,285.7036,225.9898,285.4394,225.98938,285.0869C225.98895,284.7343,225.59167,284.29407,225.10681,284.1624C224.62183,284.03082,224.22449,283.50244,224.22388,283.01776C224.22333,282.57703,224.04657,282.1806,223.78215,282.1809C223.56181,282.1812,223.34111,281.917,223.34068,281.56445C223.34026,281.21173,222.9431,280.7716,222.45805,280.63995C221.88493,280.46448,221.57591,279.97998,221.575,279.27496C221.57433,278.70197,221.39745,278.21747,221.13298,278.21777C220.91264,278.21802,220.69188,277.90973,220.69145,277.55725C220.69096,277.20465,220.51433,276.89636,220.24998,276.89667C220.02959,276.8969,219.80876,276.5006,219.80815,276.01575C219.80754,275.53113,219.4102,274.91455,218.92497,274.60663C218.4398,274.2987,218.04259,273.8145,218.04216,273.50598C218.0418,273.1975,217.86516,272.93323,217.60075,272.93353C217.38042,272.93384,217.15959,272.53748,217.15904,272.09674C217.15843,271.612,216.7611,271.08362,216.27623,270.9521C215.79118,270.8203,215.39403,270.3802,215.3936,270.0276C215.39317,269.6751,215.2166,269.41083,214.95207,269.41113C214.73174,269.41144,214.5111,269.1032,214.51067,268.7506C214.51024,268.39807,214.33354,268.08984,214.06914,268.09015C213.84874,268.0904,213.62804,267.8263,213.62761,267.4737C213.62718,267.1211,213.23003,266.68085,212.7451,266.54932C212.26012,266.41772,211.86284,265.88934,211.86223,265.40448C211.86168,264.96387,211.68492,264.56732,211.42046,264.56763C211.20006,264.56793,210.97942,264.30377,210.97905,263.9953C210.97862,263.68677,210.58134,263.15845,210.09612,262.80652C209.61095,262.45453,209.21349,261.838,209.21294,261.39728C209.21239,260.95667,209.03575,260.6043,208.77135,260.6046C208.55101,260.60492,208.33025,260.2967,208.32976,259.94403C208.32933,259.59143,208.1527,259.28333,207.88823,259.28363C207.6679,259.28387,207.44688,258.79932,207.44621,258.22644C207.4453,257.52124,207.13622,257.03693,206.56316,256.86127C206.07811,256.72968,205.68095,256.28937,205.68053,255.93683C205.6801,255.58429,205.50352,255.32013,205.23906,255.3205C205.01878,255.32074,204.79784,254.83612,204.7971,254.26324C204.79625,253.55804,204.4871,253.07367,203.91393,252.89813C203.42906,252.76654,203.03185,252.32623,203.03142,251.97382C203.03099,251.62115,202.8543,251.357,202.58989,251.35736C202.36955,251.3576,202.14867,250.96124,202.148,250.43231C202.14738,249.9035,201.57329,248.93463,200.82329,248.27448C200.1173,247.61444,199.49907,246.64557,199.4984,246.11664C199.49773,245.58783,199.32097,245.19147,199.05663,245.19171C198.83623,245.19208,198.61559,244.92792,198.61516,244.57526C198.61473,244.22272,198.21758,243.78241,197.73253,243.65094C197.15941,243.47528,196.85039,242.9909,196.84947,242.28583C196.8488,241.71283,196.67192,241.22821,196.40746,241.22858C196.18706,241.22882,195.96635,240.92072,195.96587,240.56818C195.96544,240.21552,195.7888,239.90717,195.5244,239.90753C195.30406,239.90778,195.08324,239.55548,195.08269,239.1148C195.08214,238.67413,194.6848,238.05756,194.19945,237.70563C193.71428,237.35358,193.31706,236.82538,193.31664,236.51678C193.31627,236.20819,193.13963,235.94415,192.87523,235.94452C192.65483,235.94476,192.434,235.5484,192.4334,235.06354C192.43279,234.5788,192.25603,234.18231,192.07982,234.18256C191.46269,234.18329,189.78612,232.59882,189.78532,231.98187C189.78459,231.36493,188.10796,229.78033,187.49095,229.78107C187.31462,229.78131,187.13786,229.38495,187.13725,228.9002C187.13664,228.41534,186.95988,228.01898,186.69542,228.01923C186.47508,228.01959,186.25426,227.6673,186.25371,227.22662C186.25316,226.78583,185.85576,226.16937,185.37059,225.81732C184.7971,225.42145,184.48772,224.67267,184.48656,223.74712C184.48558,222.95378,184.30852,222.2929,184.04417,222.29326C183.82378,222.2935,183.60301,221.94133,183.60246,221.50053C183.60191,221.05986,183.20445,220.44328,182.71922,220.09135C182.23405,219.73943,181.83653,219.03471,181.83592,218.54997C181.83531,218.06523,181.43785,217.3604,180.95256,217.00859C180.46739,216.65654,180.07011,216.12822,180.06975,215.81975C180.06932,215.51115,179.89268,215.247,179.62828,215.24736C179.40794,215.2476,178.7462,214.76384,178.17265,214.19145C177.59898,213.61919,176.67259,212.91533,176.09935,212.60735C175.52599,212.2996,174.59972,211.63982,174.02617,211.1115C170.8936,208.2509,169.48149,206.79826,169.481,206.44572C169.4807,206.1812,169.30418,206.00517,169.03972,206.00554C168.81944,206.00578,168.59868,205.69743,168.59825,205.34502C168.59782,204.99248,168.42113,204.68413,168.15672,204.6845C167.93639,204.68474,167.71556,204.37651,167.71513,204.02385C167.7147,203.67131,167.53813,203.36308,167.31773,203.36333C167.0974,203.3637,166.34746,202.83574,165.5974,202.13164C164.89146,201.47136,163.83275,200.6353,163.30339,200.28337C162.77422,199.93144,162.06834,199.35942,161.71538,199.05132C161.4066,198.78728,160.87743,198.5236,160.56895,198.52397C160.2163,198.52434,159.68698,198.12846,159.33383,197.64397C158.98062,197.15971,158.36313,196.76372,157.9224,196.7642C157.48166,196.76482,157.12888,196.5009,157.12839,196.14824C157.12772,195.57536,153.51175,193.9052,149.85257,192.85197C147.6041,192.19365,144.51761,190.91936,140.54886,189.02934C138.785,188.19414,135.56631,186.96416,133.40579,186.26176C129.17331,184.85674,126.08664,183.45012,125.02768,182.43791C124.71878,182.08574,124.05728,181.82195,123.61655,181.82256C123.175934,181.82304,122.734955,181.60332,122.646454,181.33904C122.558075,181.11882,120.88266,180.5479,118.9429,180.10966C115.28403,179.32072,113.03476,177.91338,113.03281,176.32683C113.03238,175.97417,112.85568,175.66606,112.67929,175.6663C112.06235,175.66704,110.38564,174.08244,110.38497,173.50957C110.384056,172.80437,109.41256,171.17497,108.53005,170.33867C108.08883,169.94255,107.73531,169.10564,107.73452,168.44463C107.73373,167.82768,107.556725,167.299,107.29238,167.29936C107.07198,167.2996,106.85116,166.94743,106.85067,166.50664C106.85012,166.06596,106.45272,165.44951,105.96755,165.09734C105.17342,164.52531,105.08468,163.95256,105.07888,159.28104C105.074974,156.10794,104.8962,154.08096,104.63174,154.08133C104.36733,154.0817,104.18923,152.62747,104.18667,150.55606C104.184105,148.48465,104.006004,147.03055,103.7416,147.03091C103.52126,147.03116,103.29958,146.01785,103.29812,144.82803C103.29659,143.59402,103.119225,142.62466,102.8547,142.62503C102.63436,142.62527,102.412865,141.74417,102.41146,140.64224C102.41012,139.54044,102.23281,138.65933,101.96841,138.6597C101.74801,138.65994,101.52688,137.99918,101.5259,137.20584C101.52413,135.79556,101.65627,135.70743,106.28091,133.45401C108.87954,132.21683,111.43435,131.06778,112.00705,130.93484C114.121735,130.35916,114.73715,129.08047,114.73251,125.33438C114.73007,123.35123,114.55203,121.897125,114.28757,121.89749C114.06717,121.897736,113.84622,121.41312,113.84549,120.79617C113.844696,120.17911,113.667816,119.69461,113.40347,119.69498C113.183075,119.69522,112.96213,119.210724,112.96146,118.637726C112.96054,117.88858,112.563324,117.44827,111.63735,117.052765C110.931725,116.74539,110.31411,116.21707,110.31362,115.820465C110.31277,115.159454,108.724266,113.53079,108.019066,113.53165C107.84286,113.53189,107.66634,113.3118,107.66598,113.04739C107.66537,112.51846,106.6946,111.59414,104.97445,110.45046C104.44521,110.09841,103.16561,108.95425,102.15084,107.985985C101.13589,106.973656,99.81252,105.9175,99.283226,105.60952C98.709984,105.3019,97.82778,104.68606,97.34249,104.24587C94.430504,101.60525,93.41573,100.769066,93.063255,100.76943C92.84286,100.7698,92.666405,100.54958,92.66604,100.28518C92.66537,99.71218,90.98867,98.12771,90.37173,98.12856C90.195335,98.128685,90.0187,97.864525,90.01833,97.55605C90.01803,97.29165,89.40011,96.543236,88.65011,95.92715C87.94424,95.31106,86.75301,94.29885,86.00301,93.63882C85.29702,92.97854,84.28268,92.31863,83.79769,92.18716C83.35671,92.011375,82.95968,91.659325,82.95925,91.306786C82.958824,90.95425,82.56179,90.60207,82.12081,90.42629C81.635826,90.2947,80.62136,89.63491,79.91548,88.97463C77.62129,86.95034,77.268326,86.68618,76.12184,86.15896C75.50447,85.895164,75.0193,85.543236,75.01912,85.36697C75.018875,85.1907,74.04854,84.61892,72.81392,84.04751C71.623245,83.4761,70.6089,82.860374,70.60866,82.684105C70.608475,82.50771,70.21138,82.19985,69.72652,82.06826C69.24147,81.89248,68.31526,81.3207,67.74165,80.70449C67.16792,80.132225,66.37416,79.64845,65.97749,79.64894C65.62489,79.64931,65.31618,79.473404,65.31593,79.25307C65.31563,79.03261,64.918594,78.68068,64.43355,78.548965C63.948624,78.37331,63.066544,77.80153,62.492813,77.229385C61.919266,76.65712,60.81642,75.86513,59.978592,75.4695C59.18483,75.02968,58.25856,74.413956,57.905594,74.10597C57.596634,73.75368,57.155594,73.48988,56.935257,73.49013C56.71486,73.49037,56.0533,73.00636,55.435497,72.39015C54.81776,71.77406,54.023815,71.29018,53.62721,71.290665C53.27461,71.29103,52.96583,71.11513,52.965588,70.89479C52.965282,70.67433,52.56825,70.3224,52.083385,70.19069C51.55427,70.01515,50.495556,69.22304,49.657177,68.386856C48.818798,67.55043,47.848522,66.89064,47.53999,66.89101C47.18739,66.891495,46.481823,66.49562,45.908215,66.011734C45.33473,65.5276,44.717297,65.13173,44.540905,65.13197C44.364635,65.132095,43.702953,64.64809,43.085217,64.031876C42.46742,63.415787,41.717594,62.931892,41.409122,62.93226C41.056583,62.932747,40.527225,62.53663,40.174015,62.052376C39.820988,61.568,39.29163,61.172005,38.93903,61.17237C38.630558,61.172737,38.27753,60.90882,38.144962,60.556404C38.012333,60.203987,37.306522,59.676033,36.601017,59.41236C35.89551,59.104866,35.32221,58.708992,35.321903,58.488655C35.32166,58.268196,34.924747,58.092537,34.439945,58.093147C33.955143,58.093758,33.558292,57.917854,33.557987,57.65345C33.556644,56.551643,23.860018,55.770393,22.759432,56.785286 Z M74.92934,155.30801C74.445145,155.79337,74.179886,155.13248,74.53139,154.29483C74.83888,153.50113,74.88301,153.501,75.01613,154.25015C75.10481,154.69083,75.061295,155.17545,74.92934,155.30801 Z"/> </g> </g> </g> </svg>