<?xml version="1.0" encoding="UTF-8" standalone="no"?>
<svg
   xmlns:dc="http://purl.org/dc/elements/1.1/"
   xmlns:cc="http://creativecommons.org/ns#"
   xmlns:rdf="http://www.w3.org/1999/02/22-rdf-syntax-ns#"
   xmlns:svg="http://www.w3.org/2000/svg"
   xmlns="http://www.w3.org/2000/svg"
   xmlns:sodipodi="http://sodipodi.sourceforge.net/DTD/sodipodi-0.dtd"
   xmlns:inkscape="http://www.inkscape.org/namespaces/inkscape"
   viewBox="0 0 556.26684 557.30653"
   id="svg2"
   version="1.1"
   inkscape:version="0.91 r13725"
   sodipodi:docname="Printer.svg"
   width="556.26685"
   height="557.30652">
  <metadata
     id="metadata44">
    <rdf:RDF>
      <cc:Work
         rdf:about="">
        <dc:format>image/svg+xml</dc:format>
        <dc:type
           rdf:resource="http://purl.org/dc/dcmitype/StillImage" />
        <dc:title></dc:title>
      </cc:Work>
    </rdf:RDF>
  </metadata>
  <defs
     id="defs42" />
  <sodipodi:namedview
     pagecolor="#ffffff"
     bordercolor="#666666"
     borderopacity="1"
     objecttolerance="10"
     gridtolerance="10"
     guidetolerance="10"
     inkscape:pageopacity="0"
     inkscape:pageshadow="2"
     inkscape:window-width="1889"
     inkscape:window-height="1003"
     id="namedview40"
     showgrid="false"
     fit-margin-top="0"
     fit-margin-left="0"
     fit-margin-right="0"
     fit-margin-bottom="0"
     inkscape:zoom="0.63429568"
     inkscape:cx="151.08831"
     inkscape:cy="230.4274"
     inkscape:window-x="31"
     inkscape:window-y="29"
     inkscape:window-maximized="1"
     inkscape:current-layer="svg2" />
  <g
     id="g4150"
     transform="scale(0.81787259,1.0007922)">
    <path
       style="fill:#a9a9a9;stroke:#000000;stroke-width:4.22212982"
       inkscape:connector-curvature="0"
       id="path4"
       d="m 4.2701238,229.46571 671.5985262,0 0,189.19872 -671.5985262,0 0,-189.19872 z" />
    <path
       inkscape:connector-curvature="0"
       id="path6"
       d="m 20.898464,418.06752 638.341796,0 0,20.40362 -638.341796,0 z" />
    <path
       style="fill:#dcdcdc;stroke:#000000;stroke-width:5.74101019"
       inkscape:connector-curvature="0"
       id="path8"
       d="m 26.455244,186.49573 627.228276,0 21.6642,40.49707 -670.5566862,0 21.6642102,-40.49707 z" />
    <path
       style="fill:#ffffff;stroke:#000000;stroke-width:2.56924009"
       inkscape:connector-curvature="0"
       id="path10"
       d="m 3.4436838,228.63927 673.2513962,0 0,69.88727 -673.2513962,0 0,-69.88727 z" />
    <path
       inkscape:connector-curvature="0"
       id="path12"
       d="m 141.85195,49.334205 392.06253,0 0,177.824565 -392.06253,0 z" />
    <path
       style="fill:#ffffff;stroke:#000000;stroke-width:5.41604996"
       inkscape:connector-curvature="0"
       id="path14"
       d="m 160.80905,2.708025 358.52075,0 0,212.780605 -358.52075,0 z" />
    <path
       style="fill:#ff0000;stroke:#000000;stroke-width:3.88330793"
       inkscape:connector-curvature="0"
       id="path16"
       d="m 609.6888,274.51346 a 17.488805,15.302724 0 1 1 -34.97761,0 17.488805,15.302724 0 1 1 34.97761,0 z" />
    <path
       style="fill:#00ff00;stroke:#000000;stroke-width:3.88330793"
       inkscape:connector-curvature="0"
       id="path18"
       d="m 654.8683,274.51346 a 17.488805,15.302724 0 1 1 -34.97761,0 17.488805,15.302724 0 1 1 34.97761,0 z" />
    <path
       style="stroke:#000000;stroke-width:2.18049002"
       inkscape:connector-curvature="0"
       id="path20"
       d="m 124.63705,318.75847 424.34927,0 0,98.82777 -424.34927,0 z" />
    <path
       style="fill:#ffffff;stroke:#000000;stroke-width:3.77626991"
       inkscape:connector-curvature="0"
       id="path22"
       d="m 169.78726,336.26002 328.21911,0 64.99267,218.71723 -458.2044,0 64.99262,-218.71723 z" />
    <path
       style="fill:none;stroke:#000000;stroke-width:5.38142014"
       inkscape:connector-curvature="0"
       id="path24"
       d="m 203.8943,362.71152 260.00508,-1.49201" />
    <path
       style="fill:none;stroke:#000000;stroke-width:5.41604996"
       inkscape:connector-curvature="0"
       id="path26"
       d="m 199.08723,376.74825 269.61922,-1.4574" />
    <path
       style="fill:none;stroke:#000000;stroke-width:5.45690012"
       inkscape:connector-curvature="0"
       id="path28"
       d="M 193.09995,393.54917 474.69373,392.1326" />
    <path
       style="fill:none;stroke:#000000;stroke-width:5.49173021"
       inkscape:connector-curvature="0"
       id="path30"
       d="M 187.70128,412.42861 480.0924,411.04692" />
    <path
       style="fill:none;stroke:#000000;stroke-width:5.52483988"
       inkscape:connector-curvature="0"
       id="path32"
       d="m 182.3018,436.15178 303.19007,-1.3486" />
    <path
       style="fill:none;stroke:#000000;stroke-width:5.55634022"
       inkscape:connector-curvature="0"
       id="path34"
       d="m 176.90151,461.25941 313.99066,-1.31713" />
    <path
       style="fill:none;stroke:#000000;stroke-width:6.40110016"
       inkscape:connector-curvature="0"
       id="path36"
       d="m 174.61583,487.34409 318.56202,-1.72296" />
    <path
       style="fill:none;stroke:#000000;stroke-width:8.12996006"
       inkscape:connector-curvature="0"
       id="path38"
       d="m 170.06423,515.75404 327.66521,-2.70212" />
  </g>
</svg>
