<?xml version="1.0" encoding="UTF-8" standalone="no"?>
<svg
   xmlns:dc="http://purl.org/dc/elements/1.1/"
   xmlns:cc="http://creativecommons.org/ns#"
   xmlns:rdf="http://www.w3.org/1999/02/22-rdf-syntax-ns#"
   xmlns:svg="http://www.w3.org/2000/svg"
   xmlns="http://www.w3.org/2000/svg"
   xmlns:sodipodi="http://sodipodi.sourceforge.net/DTD/sodipodi-0.dtd"
   xmlns:inkscape="http://www.inkscape.org/namespaces/inkscape"
   width="750"
   height="750"
   id="svg2"
   version="1.1"
   inkscape:version="0.91 r13725"
   sodipodi:docname="Recycle.svg">
  <metadata
     id="metadata16">
    <rdf:RDF>
      <cc:Work
         rdf:about="">
        <dc:format>image/svg+xml</dc:format>
        <dc:type
           rdf:resource="http://purl.org/dc/dcmitype/StillImage" />
        <dc:title></dc:title>
      </cc:Work>
    </rdf:RDF>
  </metadata>
  <defs
     id="defs14" />
  <sodipodi:namedview
     pagecolor="#ffffff"
     bordercolor="#666666"
     borderopacity="1"
     objecttolerance="10"
     gridtolerance="10"
     guidetolerance="10"
     inkscape:pageopacity="0"
     inkscape:pageshadow="2"
     inkscape:window-width="1681"
     inkscape:window-height="910"
     id="namedview12"
     showgrid="false"
     inkscape:zoom="0.36875"
     inkscape:cx="-64.483873"
     inkscape:cy="115.45547"
     inkscape:window-x="32"
     inkscape:window-y="24"
     inkscape:window-maximized="0"
     inkscape:current-layer="svg2" />
  <g
     id="layer1"
     transform="matrix(9.6775115,0,0,9.6774776,-12.096408,-12.101458)">
    <g
       id="g3535"
       transform="matrix(0.96875,0,0,0.98751,1.2501,-0.25079)"
       style="fill:#7ac143;fill-rule:evenodd;stroke-width:0.31200001">
      <path
         id="path2742"
         d="m 54.962,37.281 17.137,-10.262 7.6785,14.835 c 1.8547,8.1052 -8.3091,11.08 -16.47,10.596 L 54.9613,37.281 Z"
         inkscape:connector-curvature="0" />
      <path
         id="path2743"
         d="M 51.068,47.877 42.0542,63.827 51.068,80 l 0.2226,-6.4693 8.2349,0 c 3.0046,0.26025 6.8995,-1.7103 8.3462,-4.5731 l 10.572,-19.408 c -3.4868,3.4577 -7.9704,4.35 -13.131,4.35 l -13.91,0 -0.3339,-6.0231 z"
         inkscape:connector-curvature="0" />
      <path
         id="path2751"
         d="M 30.928,28.212 13.659,18.175 22.8721,4.246 c 6.1698,-5.5594 13.698,1.9035 17.237,9.2895 l -9.1809,14.677 z"
         inkscape:connector-curvature="0" />
      <path
         id="path2752"
         d="m 42.062,26.482 18.288,0.1571 9.7324,-15.749 -5.7511,2.9451 -3.9971,-7.2164 C 59.1028,3.8595 55.4934,1.4028 52.294,1.5246 l -22.061,0.156 c 4.7086,1.3773 7.6632,4.8732 10.168,9.3958 l 6.7518,12.19 -5.0918,3.2161 z"
         inkscape:connector-curvature="0" />
      <path
         id="path2753"
         d="m 0.444,27.381 5.3508,4.1012 -5.0361,9.4644 c -2.518,4.3641 1.8078,8.6156 4.5639,10.095 2.7133,1.4568 6.9246,1.63 10.859,1.5774 l 7.082,-11.357 5.3508,2.8393 -9.2852,-16.878 -18.885,0.1577 z"
         inkscape:connector-curvature="0" />
      <path
         id="path2754"
         d="m 1.2309,49.307 11.488,20.822 c 2.3082,2.8919 6.6623,3.5754 11.174,3.4703 l 12.118,0 0,-19.718 -22.977,-0.1577 C 9.4667,53.93392 4.7979,53.1978 1.2309,49.3069 Z"
         inkscape:connector-curvature="0" />
    </g>
  </g>
</svg>
