<?xml version="1.0" encoding="UTF-8" standalone="no"?>
<svg
   xmlns:dc="http://purl.org/dc/elements/1.1/"
   xmlns:cc="http://creativecommons.org/ns#"
   xmlns:rdf="http://www.w3.org/1999/02/22-rdf-syntax-ns#"
   xmlns:svg="http://www.w3.org/2000/svg"
   xmlns="http://www.w3.org/2000/svg"
   xmlns:xlink="http://www.w3.org/1999/xlink"
   xmlns:sodipodi="http://sodipodi.sourceforge.net/DTD/sodipodi-0.dtd"
   xmlns:inkscape="http://www.inkscape.org/namespaces/inkscape"
   viewBox="0 0 143.6458 143.64573"
   id="svg2"
   version="1.1"
   inkscape:version="0.91 r13725"
   sodipodi:docname="Restart.svg"
   width="143.6458"
   height="143.64574"
   inkscape:export-filename="/home/simon/Incoming/Cancel.png"
   inkscape:export-xdpi="62.654114"
   inkscape:export-ydpi="62.654114">
  <metadata
     id="metadata27">
    <rdf:RDF>
      <cc:Work
         rdf:about="">
        <dc:format>image/svg+xml</dc:format>
        <dc:type
           rdf:resource="http://purl.org/dc/dcmitype/StillImage" />
        <dc:title></dc:title>
      </cc:Work>
    </rdf:RDF>
  </metadata>
  <sodipodi:namedview
     pagecolor="#ffffff"
     bordercolor="#666666"
     borderopacity="1"
     objecttolerance="10"
     gridtolerance="10"
     guidetolerance="10"
     inkscape:pageopacity="0"
     inkscape:pageshadow="2"
     inkscape:window-width="1889"
     inkscape:window-height="1003"
     id="namedview25"
     showgrid="false"
     inkscape:zoom="1.0455475"
     inkscape:cx="193.90977"
     inkscape:cy="83.862889"
     inkscape:window-x="31"
     inkscape:window-y="29"
     inkscape:window-maximized="1"
     inkscape:current-layer="svg2"
     fit-margin-top="0"
     fit-margin-left="0"
     fit-margin-right="0"
     fit-margin-bottom="0" />
  <defs
     id="defs4">
    <linearGradient
       id="linearGradient4196">
      <stop
         id="stop4198"
         stop-color="#fff"
         offset="0" />
      <stop
         id="stop4200"
         stop-color="#f00"
         offset="1"
         style="stop-color:#0000ff;stop-opacity:1" />
    </linearGradient>
    <linearGradient
       id="linearGradient5190">
      <stop
         offset="0"
         stop-color="#fff"
         id="stop7" />
      <stop
         offset="1"
         stop-color="#f00"
         id="stop9"
         style="stop-color:#0000ff;stop-opacity:1" />
    </linearGradient>
    <linearGradient
       gradientUnits="userSpaceOnUse"
       id="linearGradient2109"
       x1="210.17181"
       x2="246.42752"
       xlink:href="#linearGradient4196"
       y1="529.36237"
       y2="611.84717"
       gradientTransform="matrix(0.9,0,0,0.9,-149.16284,-468.79419)" />
    <linearGradient
       gradientTransform="matrix(-0.271467,0.07274001,-0.0746544,-0.278613,213.40891,188.30643)"
       gradientUnits="userSpaceOnUse"
       id="linearGradient2107"
       x1="249.48328"
       x2="272.02597"
       xlink:href="#linearGradient5190"
       y1="262.87494"
       y2="427.54285" />
  </defs>
  <path
     style="fill:#0000ff;fill-rule:evenodd;stroke:#0000cb;stroke-width:5.55879736;stroke-opacity:1"
     inkscape:connector-curvature="0"
     id="path15"
     d="m 140.8664,71.822873 a 69.0435,69.0435 0 0 1 -138.0869983,0 69.0435,69.0435 0 1 1 138.0869983,0 z" />
  <path
     style="fill:url(#linearGradient2107);fill-rule:evenodd"
     inkscape:connector-curvature="0"
     id="path17"
     d="m 88.608295,133.24403 c 17.141975,-4.59316 30.755905,-15.89238 38.905835,-30.44154 13.23692,-31.336283 -36.150134,42.02992 -76.942157,28.70157 11.858427,4.34898 25.031961,5.22449 38.036322,1.73997 z" />
  <path
     style="fill:url(#linearGradient2109);fill-rule:evenodd"
     inkscape:connector-curvature="0"
     id="path19"
     d="m 71.928883,7.631808 c -35.493336,0 -64.29798,29.562615 -64.29798,65.989944 0,4.926519 0.546705,9.72162 1.54575,14.340933 C 44.461252,20.041665 82.477684,62.796048 131.493,48.770736 121.92111,24.652752 98.855101,7.631808 71.928883,7.631808 Z" />
  <g
     id="g4239"
     transform="matrix(0.14685376,0,0,0.14685376,202.51894,-45.481402)"
     style="opacity:0.74">
    <g
       style="stroke-miterlimit:0.5"
       id="g4241"
       stroke-miterlimit=".5"
       transform="matrix(1.0303393,0.37501372,-0.37501372,1.0303393,-866.20281,-109.16204)">
      <path
         inkscape:connector-curvature="0"
         id="path4243"
         d="M 350.4642,623.90121 C 258.34742,571.76802 140.1326,603.44434 86.421498,694.65292 32.710396,785.8615 63.84381,902.06096 155.96059,954.19415 c 92.11678,52.13315 210.33159,20.45688 264.0427,-70.75171 5.66146,-9.6139 10.46421,-19.68923 14.35427,-30.11246"
         style="fill:none;stroke:#ffffff;stroke-width:117.47613947;stroke-linecap:square;stroke-miterlimit:0.5;stroke-dasharray:none;stroke-opacity:1" />
      <path
         style="fill:#ffffff;fill-opacity:1;stroke-width:0"
         inkscape:connector-curvature="0"
         id="path4245"
         d="M 282.80324,738.64306 409.14383,507.11409 500.23148,716.80746 Z"
         sodipodi:nodetypes="cccc" />
    </g>
  </g>
  <g
     transform="matrix(0.14685376,0,0,0.14685376,202.51894,-45.481402)"
     id="layer1">
    <g
       transform="matrix(1.0303393,0.37501372,-0.37501372,1.0303393,-866.20281,-109.16204)"
       stroke-miterlimit=".5"
       id="g4884"
       style="stroke-miterlimit:0.5">
      <path
         style="fill:none;stroke:#ffffff;stroke-width:97.60074615;stroke-linecap:square;stroke-miterlimit:0.5;stroke-dasharray:none;stroke-opacity:1"
         d="M 350.4642,623.90121 C 258.34742,571.76802 140.1326,603.44434 86.421498,694.65292 32.710396,785.8615 63.84381,902.06096 155.96059,954.19415 c 92.11678,52.13315 210.33159,20.45688 264.0427,-70.75171 5.66146,-9.6139 10.46421,-19.68923 14.35427,-30.11246"
         id="path3069"
         inkscape:connector-curvature="0" />
      <path
         transform="matrix(2.4143,-4.39,3.3006,1.9982,-1050.7,900.01)"
         d="m 169.74,286.71 43.096,-0.19189 -21.382,37.418 z"
         id="path4864"
         inkscape:connector-curvature="0"
         style="fill:#ffffff;fill-opacity:1;stroke-width:0" />
    </g>
  </g>
  <g
     id="g4231"
     transform="matrix(0.14685376,0,0,0.14685376,202.51894,-45.481402)" />
</svg>
