<?xml version="1.0" encoding="UTF-8" standalone="no"?>
<svg
   xmlns:dc="http://purl.org/dc/elements/1.1/"
   xmlns:cc="http://creativecommons.org/ns#"
   xmlns:rdf="http://www.w3.org/1999/02/22-rdf-syntax-ns#"
   xmlns:svg="http://www.w3.org/2000/svg"
   xmlns="http://www.w3.org/2000/svg"
   xmlns:xlink="http://www.w3.org/1999/xlink"
   xmlns:sodipodi="http://sodipodi.sourceforge.net/DTD/sodipodi-0.dtd"
   xmlns:inkscape="http://www.inkscape.org/namespaces/inkscape"
   viewBox="0 0 493.99679 494.38899"
   id="svg2"
   version="1.1"
   inkscape:version="0.91 r13725"
   sodipodi:docname="ShowPrinters.svg"
   width="493.9968"
   height="494.38898"
   inkscape:export-filename="/home/simon/Incoming/DeletePrinter.png"
   inkscape:export-xdpi="16.161907"
   inkscape:export-ydpi="16.161907">
  <metadata
     id="metadata44">
    <rdf:RDF>
      <cc:Work
         rdf:about="">
        <dc:format>image/svg+xml</dc:format>
        <dc:type
           rdf:resource="http://purl.org/dc/dcmitype/StillImage" />
        <dc:title></dc:title>
      </cc:Work>
    </rdf:RDF>
  </metadata>
  <defs
     id="defs42">
    <filter
       id="filter3528">
      <feGaussianBlur
         stdDeviation="2.657031"
         id="feGaussianBlur3530" />
    </filter>
    <filter
       id="filter3382">
      <feGaussianBlur
         id="feGaussianBlur4310"
         stdDeviation="2.1557" />
    </filter>
    <filter
       id="filter3534">
      <feGaussianBlur
         id="feGaussianBlur4313"
         stdDeviation="1.37027" />
    </filter>
    <linearGradient
       id="linearGradient3470">
      <stop
         id="stop4316"
         offset="0" />
      <stop
         id="stop4318"
         stop-opacity="0"
         offset="1" />
    </linearGradient>
    <linearGradient
       id="linearGradient3390">
      <stop
         id="stop4321"
         stop-color="#fff"
         offset="0" />
      <stop
         id="stop4323"
         stop-opacity="0"
         stop-color="#fff"
         offset="1" />
    </linearGradient>
    <linearGradient
       id="linearGradient2898">
      <stop
         id="stop4326"
         stop-color="#eceee9"
         offset="0" />
      <stop
         id="stop4328"
         stop-opacity="0"
         stop-color="#c6b6b6"
         offset="1" />
    </linearGradient>
    <linearGradient
       y2="627.93921"
       y1="643.1156"
       x2="217.62431"
       x1="212.83177"
       id="linearGradient3480"
       gradientUnits="userSpaceOnUse">
      <stop
         id="stop4331"
         stop-opacity=".75138"
         stop-color="#fff"
         offset="0" />
      <stop
         id="stop4333"
         stop-opacity="0"
         stop-color="#fff"
         offset="1" />
    </linearGradient>
    <linearGradient
       xlink:href="#linearGradient2898"
       x2="621.52289"
       x1="487.50882"
       spreadMethod="reflect"
       id="linearGradient2944"
       gradientUnits="userSpaceOnUse" />
    <linearGradient
       y2="360.93362"
       y1="442.70932"
       xlink:href="#linearGradient3390"
       x2="365.05893"
       x1="396.95291"
       id="linearGradient3127"
       gradientUnits="userSpaceOnUse" />
    <linearGradient
       y2="314.88644"
       y1="486.28427"
       xlink:href="#linearGradient3390"
       x2="349.36731"
       x1="449.62631"
       id="linearGradient3135"
       gradientUnits="userSpaceOnUse" />
    <linearGradient
       y2="237.66515"
       y1="789.20844"
       xlink:href="#linearGradient3470"
       x2="487.61194"
       x1="475.95779"
       id="linearGradient3143"
       gradientUnits="userSpaceOnUse" />
    <linearGradient
       xlink:href="#linearGradient3390"
       x2="530.62659"
       x1="462.05515"
       id="linearGradient3246"
       gradientUnits="userSpaceOnUse" />
    <linearGradient
       y2="590.70825"
       y1="728.25836"
       xlink:href="#linearGradient3470"
       x2="500.29697"
       x1="312.56506"
       id="linearGradient3272"
       gradientUnits="userSpaceOnUse" />
    <linearGradient
       y2="534.75629"
       y1="935.02405"
       xlink:href="#linearGradient3470"
       x2="300.94659"
       x1="738.84052"
       id="linearGradient3296"
       gradientUnits="userSpaceOnUse" />
    <linearGradient
       y2="498.66617"
       y1="410.52774"
       xlink:href="#linearGradient3390"
       x2="476.02936"
       x1="393.42719"
       id="linearGradient3300"
       gradientUnits="userSpaceOnUse" />
    <linearGradient
       y2="645.0625"
       y1="639.38013"
       xlink:href="#linearGradient3390"
       x2="452.30872"
       x1="519.14221"
       id="linearGradient3322"
       gradientUnits="userSpaceOnUse" />
    <linearGradient
       y2="585.60388"
       y1="170.45996"
       xlink:href="#linearGradient3470"
       x2="508.94351"
       x1="415.92352"
       id="linearGradient3404"
       gradientUnits="userSpaceOnUse" />
    <linearGradient
       y2="565.23175"
       y1="658.16577"
       xlink:href="#linearGradient3390"
       x2="197.98991"
       x1="472.7514"
       id="linearGradient3416"
       gradientUnits="userSpaceOnUse" />
    <linearGradient
       y2="612.76282"
       y1="623.14667"
       xlink:href="#linearGradient3470"
       x2="201.46593"
       x1="202.63115"
       id="linearGradient3476"
       gradientUnits="userSpaceOnUse" />
    <radialGradient
       r="173.74623"
       id="radialGradient3256"
       gradientUnits="userSpaceOnUse"
       gradientTransform="matrix(1,0,0,0.36628,0,423.00496)"
       fy="706.10431"
       fx="343.45184"
       cy="667.49408"
       cx="284.86301">
      <stop
         id="stop4348"
         offset="0" />
      <stop
         id="stop4350"
         stop-opacity=".81081"
         offset=".72804" />
      <stop
         id="stop4352"
         stop-opacity="0"
         offset="1" />
    </radialGradient>
    <radialGradient
       r="107.07617"
       id="radialGradient3304"
       gradientUnits="userSpaceOnUse"
       gradientTransform="matrix(1,0,0,1.16038,0,-101.8667)"
       fy="754.88953"
       fx="394.22461"
       cy="655.15833"
       cx="388.66751">
      <stop
         id="stop4355"
         stop-opacity=".28729"
         offset="0" />
      <stop
         id="stop4357"
         stop-opacity="0"
         offset="1" />
    </radialGradient>
    <radialGradient
       xlink:href="#linearGradient2898"
       r="171.42857"
       id="radialGradient2904"
       gradientUnits="userSpaceOnUse"
       gradientTransform="matrix(0.92613,-4.6209423e-8,6.1492962e-8,1.98872,45.68531,-460.63562)"
       fy="598.38995"
       fx="199.9191"
       cy="464.34125"
       cx="204.14012" />
    <radialGradient
       xlink:href="#linearGradient2898"
       spreadMethod="reflect"
       r="171.42857"
       id="radialGradient2916"
       gradientUnits="userSpaceOnUse"
       gradientTransform="matrix(1.15525,0,0,0.5,-61.86471,180.4668)"
       cy="499.07516"
       cx="398.48984" />
    <radialGradient
       xlink:href="#linearGradient2898"
       r="24.24366"
       id="radialGradient2970"
       gradientUnits="userSpaceOnUse"
       gradientTransform="matrix(1,0,0,4.125,0,-1763.9326)"
       fy="545.35742"
       fx="252.53815"
       cy="564.4585"
       cx="264.65997" />
    <radialGradient
       xlink:href="#linearGradient3470"
       r="24.24366"
       id="radialGradient2972"
       gradientUnits="userSpaceOnUse"
       gradientTransform="matrix(1,0,0,4.125,0,-1763.9326)"
       fy="552.4173"
       fx="277.07745"
       cy="564.4585"
       cx="264.65997" />
    <radialGradient
       xlink:href="#linearGradient3470"
       r="171.42857"
       id="radialGradient3234"
       gradientUnits="userSpaceOnUse"
       gradientTransform="matrix(0.91304,2.7805358e-8,0,0.81625,24.84434,12.10697)"
       fy="648.23889"
       fx="292.74445"
       cy="532.36218"
       cx="285.71426" />
    <radialGradient
       xlink:href="#linearGradient3390"
       r="107.07617"
       id="radialGradient3286"
       gradientUnits="userSpaceOnUse"
       gradientTransform="matrix(0.17174,0.70808,-1.47486,0.21806,1268.1112,213.41957)"
       cy="588.42487"
       cx="400.02036" />
    <radialGradient
       xlink:href="#linearGradient3470"
       r="69.276512"
       id="radialGradient3340"
       gradientUnits="userSpaceOnUse"
       gradientTransform="matrix(0.97981,0.19994,-0.46661,2.28663,419.62974,-785.85654)"
       cy="623.29962"
       cx="196.99835" />
    <radialGradient
       xlink:href="#linearGradient3390"
       r="112.07617"
       id="radialGradient3396"
       gradientUnits="userSpaceOnUse"
       gradientTransform="matrix(0.82178,-0.42006,0.79423,0.79304,-439.66434,275.57864)"
       cy="662.97162"
       cx="401.50946" />
    <radialGradient
       xlink:href="#linearGradient3470"
       r="54.548241"
       id="radialGradient3444"
       gradientUnits="userSpaceOnUse"
       gradientTransform="matrix(1,0,0,0.25926,0,534.0979)"
       cy="721.03217"
       cx="210.11172" />
    <radialGradient
       xlink:href="#linearGradient3390"
       r="18.40757"
       id="radialGradient3456"
       gradientUnits="userSpaceOnUse"
       gradientTransform="matrix(0.44223,-1.51876,3.84246,1.11885,-2050.2279,199.92413)"
       cy="570.1958"
       cx="154.01448" />
    <radialGradient
       xlink:href="#linearGradient3390"
       r="18.40757"
       id="radialGradient3466"
       gradientUnits="userSpaceOnUse"
       gradientTransform="matrix(0.18187,-1.21501,3.95794,0.59246,-2066.1621,442.31135)"
       cy="571.40808"
       cx="192.24854" />
    <linearGradient
       id="linearGradient4113">
      <stop
         id="stop4115"
         offset="0"
         style="stop-color:#ffffff;stop-opacity:1;" />
      <stop
         style="stop-color:#d7ebff;stop-opacity:1;"
         offset="0.5"
         id="stop4121" />
      <stop
         id="stop4117"
         offset="1"
         style="stop-color:#d9d9d9;stop-opacity:1;" />
    </linearGradient>
    <linearGradient
       id="linearGradient4058">
      <stop
         id="stop4060"
         offset="0"
         style="stop-color:#ff9b2a;stop-opacity:1;" />
      <stop
         style="stop-color:#ffc12a;stop-opacity:1;"
         offset="0.5"
         id="stop4066" />
      <stop
         id="stop4062"
         offset="1"
         style="stop-color:#ff562a;stop-opacity:1;" />
    </linearGradient>
    <linearGradient
       id="linearGradient3030">
      <stop
         style="stop-color:#0092ff;stop-opacity:1;"
         offset="0"
         id="stop3032" />
      <stop
         id="stop3034"
         offset="0.5"
         style="stop-color:#92b4f7;stop-opacity:1;" />
      <stop
         style="stop-color:#0055ff;stop-opacity:1;"
         offset="1"
         id="stop3036" />
    </linearGradient>
    <linearGradient
       id="linearGradient3005">
      <stop
         id="stop3007"
         offset="0"
         style="stop-color:#000089;stop-opacity:1;" />
      <stop
         style="stop-color:#2f55c6;stop-opacity:1;"
         offset="0.5999037"
         id="stop3013" />
      <stop
         id="stop3009"
         offset="1"
         style="stop-color:#007cff;stop-opacity:1;" />
    </linearGradient>
    <linearGradient
       id="linearGradient2992">
      <stop
         id="stop2994"
         offset="0"
         style="stop-color:#0080ff;stop-opacity:1;" />
      <stop
         style="stop-color:#346ad6;stop-opacity:1;"
         offset="0.5"
         id="stop3024" />
      <stop
         id="stop2996"
         offset="1"
         style="stop-color:#000080;stop-opacity:1;" />
    </linearGradient>
    <inkscape:perspective
       id="perspective2843"
       inkscape:persp3d-origin="0.5 : 0.33333333 : 1"
       inkscape:vp_z="1 : 0.5 : 1"
       inkscape:vp_y="0 : 1000 : 0"
       inkscape:vp_x="0 : 0.5 : 1"
       sodipodi:type="inkscape:persp3d" />
    <inkscape:perspective
       sodipodi:type="inkscape:persp3d"
       inkscape:vp_x="0 : 40 : 1"
       inkscape:vp_y="0 : 1000 : 0"
       inkscape:vp_z="80.000001 : 40 : 1"
       inkscape:persp3d-origin="40 : 26.666667 : 1"
       id="perspective16" />
    <style
       id="style6"
       type="text/css"><![CDATA[
    .str0 {stroke:black;stroke-width:18.8719}
    .fil2 {fill:none}
    .fil0 {fill:black}
    .fil1 {fill:white}
    .fil4 {fill:url(#id0)}
    .fil3 {fill:url(#id1)}
   ]]></style>
    <radialGradient
       r="0.44999999"
       cy="0.37002"
       id="id0">
      <stop
         id="stop9"
         offset="0"
         stop-color="#FFBE00" />
      <stop
         id="stop11"
         offset=".30980"
         stop-color="#ff0" />
      <stop
         id="stop13"
         offset="1"
         stop-color="#f60" />
    </radialGradient>
    <radialGradient
       gradientUnits="userSpaceOnUse"
       fy="1517.9015"
       fx="1285.0653"
       cx="1285.0653"
       gradientTransform="scale(1.2619232,0.79244128)"
       r="345.25134"
       cy="1517.9015"
       xlink:href="#id0"
       id="id1" />
    <clipPath
       id="clipPath4199"
       clipPathUnits="userSpaceOnUse">
      <path
         class="fil4 str0"
         d="m 3635,1014 c 12,24 12,77 0,138 -12,61 -36,130 -78,193 -42,64 -102,122 -166,162 -63,40 -129,61 -198,71 -69,11 -141,11 -216,-8 -75,-18 -153,-55 -204,-116 -51,-61 -75,-146 -78,-196 -3,-50 15,-66 60,-85 45,-18 117,-39 204,-69 87,-29 189,-66 294,-84 105,-19 214,-19 280,-22 66,-2 90,-7 102,16 z"
         id="path4201"
         style="fill:url(#radialGradient4203);stroke:#000000;stroke-width:18.87190056"
         inkscape:connector-curvature="0" />
    </clipPath>
    <radialGradient
       r="345.32022"
       fy="1528.7839"
       fx="2512.022"
       cy="1528.7839"
       cx="2512.022"
       gradientTransform="scale(1.2616714,0.7925994)"
       gradientUnits="userSpaceOnUse"
       id="radialGradient4203"
       xlink:href="#id0"
       inkscape:collect="always" />
    <radialGradient
       r="58.570999"
       cx="267.14001"
       cy="288.07999"
       gradientUnits="userSpaceOnUse"
       fy="262.35999"
       fx="238.57001"
       id="radialGradient1905">
      <stop
         offset="0"
         stop-color="#fff"
         id="stop2764" />
      <stop
         offset="1"
         stop-opacity="0"
         stop-color="#fff"
         id="stop2766" />
    </radialGradient>
  </defs>
  <sodipodi:namedview
     pagecolor="#ffffff"
     bordercolor="#666666"
     borderopacity="1"
     objecttolerance="10"
     gridtolerance="10"
     guidetolerance="10"
     inkscape:pageopacity="0"
     inkscape:pageshadow="2"
     inkscape:window-width="1889"
     inkscape:window-height="1003"
     id="namedview40"
     showgrid="false"
     fit-margin-top="0"
     fit-margin-left="0"
     fit-margin-right="0"
     fit-margin-bottom="0"
     inkscape:zoom="0.44851478"
     inkscape:cx="-74.263859"
     inkscape:cy="91.831111"
     inkscape:window-x="31"
     inkscape:window-y="29"
     inkscape:window-maximized="1"
     inkscape:current-layer="svg2" />
  <style
     id="style4152"
     type="text/css"><![CDATA[
	.st0{enable-background:new    ;}
]]></style>
  <g
     id="g4416"
     transform="matrix(0.57928884,0,0,0.70823036,89.281968,-12.816303)">
    <path
       id="path4418"
       d="m 22.77217,247.56195 671.59853,0 0,189.19872 -671.59853,0 0,-189.19872 z"
       inkscape:connector-curvature="0"
       style="fill:#a9a9a9;stroke:#000000;stroke-width:4.22212982" />
    <path
       id="path4420"
       d="m 39.40051,436.16376 638.3418,0 0,20.40362 -638.3418,0 z"
       inkscape:connector-curvature="0" />
    <path
       id="path4422"
       d="m 44.95729,204.59197 627.22828,0 21.6642,40.49707 -670.55669,0 21.66421,-40.49707 z"
       inkscape:connector-curvature="0"
       style="fill:#dcdcdc;stroke:#000000;stroke-width:5.74101019" />
    <path
       id="path4424"
       d="m 21.94573,246.73551 673.2514,0 0,69.88727 -673.2514,0 0,-69.88727 z"
       inkscape:connector-curvature="0"
       style="fill:#ffffff;stroke:#000000;stroke-width:2.56924009" />
    <path
       id="path4426"
       d="m 160.354,67.43044 392.06253,0 0,177.82457 -392.06253,0 z"
       inkscape:connector-curvature="0" />
    <path
       id="path4428"
       d="m 179.3111,20.80426 358.52075,0 0,212.78061 -358.52075,0 z"
       inkscape:connector-curvature="0"
       style="fill:#ffffff;stroke:#000000;stroke-width:5.41604996" />
    <path
       id="path4430"
       transform="matrix(5.41605,0,0,5.41605,1091.6443,294.24274)"
       d="m -85.57038,-0.30152 a 3.22907,2.82544 0 1 1 -6.45814,0 3.22907,2.82544 0 1 1 6.45814,0 z"
       inkscape:connector-curvature="0"
       style="fill:#ff0000;stroke:#000000;stroke-width:0.71700001" />
    <path
       id="path4432"
       transform="matrix(5.41605,0,0,5.41605,1136.8238,294.24274)"
       d="m -85.57038,-0.30152 a 3.22907,2.82544 0 1 1 -6.45814,0 3.22907,2.82544 0 1 1 6.45814,0 z"
       inkscape:connector-curvature="0"
       style="fill:#00ff00;stroke:#000000;stroke-width:0.71700001" />
    <path
       id="path4434"
       d="m 143.1391,336.85471 424.34927,0 0,98.82777 -424.34927,0 z"
       inkscape:connector-curvature="0"
       style="stroke:#000000;stroke-width:2.18049002" />
    <path
       id="path4436"
       d="m 188.28931,354.35626 328.21911,0 64.99267,218.71723 -458.2044,0 64.99262,-218.71723 z"
       inkscape:connector-curvature="0"
       style="fill:#ffffff;stroke:#000000;stroke-width:3.77626991" />
    <path
       id="path4438"
       d="m 222.39635,380.80776 260.00508,-1.49201"
       inkscape:connector-curvature="0"
       style="fill:none;stroke:#000000;stroke-width:5.38142014" />
    <path
       id="path4440"
       d="m 217.58928,394.84449 269.61922,-1.4574"
       inkscape:connector-curvature="0"
       style="fill:none;stroke:#000000;stroke-width:5.41604996" />
    <path
       id="path4442"
       d="m 211.602,411.64541 281.59378,-1.41657"
       inkscape:connector-curvature="0"
       style="fill:none;stroke:#000000;stroke-width:5.45690012" />
    <path
       id="path4444"
       d="m 206.20333,430.52485 292.39112,-1.38169"
       inkscape:connector-curvature="0"
       style="fill:none;stroke:#000000;stroke-width:5.49173021" />
    <path
       id="path4446"
       d="m 200.80385,454.24802 303.19007,-1.3486"
       inkscape:connector-curvature="0"
       style="fill:none;stroke:#000000;stroke-width:5.52483988" />
    <path
       id="path4448"
       d="m 195.40356,479.35565 313.99066,-1.31713"
       inkscape:connector-curvature="0"
       style="fill:none;stroke:#000000;stroke-width:5.55634022" />
    <path
       id="path4450"
       d="M 193.11788,505.44033 511.6799,503.71737"
       inkscape:connector-curvature="0"
       style="fill:none;stroke:#000000;stroke-width:6.40110016" />
    <path
       id="path4452"
       d="m 188.56628,533.85028 327.66521,-2.70212"
       inkscape:connector-curvature="0"
       style="fill:none;stroke:#000000;stroke-width:8.12996006" />
  </g>
  <g
     transform="matrix(0.57928884,0,0,0.70823036,39.281888,37.183642)"
     id="g4378">
    <path
       style="fill:#a9a9a9;stroke:#000000;stroke-width:4.22212982"
       inkscape:connector-curvature="0"
       d="m 22.77217,247.56195 671.59853,0 0,189.19872 -671.59853,0 0,-189.19872 z"
       id="path4380" />
    <path
       inkscape:connector-curvature="0"
       d="m 39.40051,436.16376 638.3418,0 0,20.40362 -638.3418,0 z"
       id="path4382" />
    <path
       style="fill:#dcdcdc;stroke:#000000;stroke-width:5.74101019"
       inkscape:connector-curvature="0"
       d="m 44.95729,204.59197 627.22828,0 21.6642,40.49707 -670.55669,0 21.66421,-40.49707 z"
       id="path4384" />
    <path
       style="fill:#ffffff;stroke:#000000;stroke-width:2.56924009"
       inkscape:connector-curvature="0"
       d="m 21.94573,246.73551 673.2514,0 0,69.88727 -673.2514,0 0,-69.88727 z"
       id="path4386" />
    <path
       inkscape:connector-curvature="0"
       d="m 160.354,67.43044 392.06253,0 0,177.82457 -392.06253,0 z"
       id="path4388" />
    <path
       style="fill:#ffffff;stroke:#000000;stroke-width:5.41604996"
       inkscape:connector-curvature="0"
       d="m 179.3111,20.80426 358.52075,0 0,212.78061 -358.52075,0 z"
       id="path4390" />
    <path
       style="fill:#ff0000;stroke:#000000;stroke-width:0.71700001"
       inkscape:connector-curvature="0"
       d="m -85.57038,-0.30152 a 3.22907,2.82544 0 1 1 -6.45814,0 3.22907,2.82544 0 1 1 6.45814,0 z"
       transform="matrix(5.41605,0,0,5.41605,1091.6443,294.24274)"
       id="path4392" />
    <path
       style="fill:#00ff00;stroke:#000000;stroke-width:0.71700001"
       inkscape:connector-curvature="0"
       d="m -85.57038,-0.30152 a 3.22907,2.82544 0 1 1 -6.45814,0 3.22907,2.82544 0 1 1 6.45814,0 z"
       transform="matrix(5.41605,0,0,5.41605,1136.8238,294.24274)"
       id="path4394" />
    <path
       style="stroke:#000000;stroke-width:2.18049002"
       inkscape:connector-curvature="0"
       d="m 143.1391,336.85471 424.34927,0 0,98.82777 -424.34927,0 z"
       id="path4396" />
    <path
       style="fill:#ffffff;stroke:#000000;stroke-width:3.77626991"
       inkscape:connector-curvature="0"
       d="m 188.28931,354.35626 328.21911,0 64.99267,218.71723 -458.2044,0 64.99262,-218.71723 z"
       id="path4398" />
    <path
       style="fill:none;stroke:#000000;stroke-width:5.38142014"
       inkscape:connector-curvature="0"
       d="m 222.39635,380.80776 260.00508,-1.49201"
       id="path4400" />
    <path
       style="fill:none;stroke:#000000;stroke-width:5.41604996"
       inkscape:connector-curvature="0"
       d="m 217.58928,394.84449 269.61922,-1.4574"
       id="path4402" />
    <path
       style="fill:none;stroke:#000000;stroke-width:5.45690012"
       inkscape:connector-curvature="0"
       d="m 211.602,411.64541 281.59378,-1.41657"
       id="path4404" />
    <path
       style="fill:none;stroke:#000000;stroke-width:5.49173021"
       inkscape:connector-curvature="0"
       d="m 206.20333,430.52485 292.39112,-1.38169"
       id="path4406" />
    <path
       style="fill:none;stroke:#000000;stroke-width:5.52483988"
       inkscape:connector-curvature="0"
       d="m 200.80385,454.24802 303.19007,-1.3486"
       id="path4408" />
    <path
       style="fill:none;stroke:#000000;stroke-width:5.55634022"
       inkscape:connector-curvature="0"
       d="m 195.40356,479.35565 313.99066,-1.31713"
       id="path4410" />
    <path
       style="fill:none;stroke:#000000;stroke-width:6.40110016"
       inkscape:connector-curvature="0"
       d="M 193.11788,505.44033 511.6799,503.71737"
       id="path4412" />
    <path
       style="fill:none;stroke:#000000;stroke-width:8.12996006"
       inkscape:connector-curvature="0"
       d="m 188.56628,533.85028 327.66521,-2.70212"
       id="path4414" />
  </g>
  <g
     id="g30856"
     transform="matrix(0.57928903,0,0,0.7082306,-10.718032,87.183558)">
    <path
       id="path30814"
       d="m 22.77217,247.56195 671.59853,0 0,189.19872 -671.59853,0 0,-189.19872 z"
       inkscape:connector-curvature="0"
       style="fill:#a9a9a9;stroke:#000000;stroke-width:4.22212982" />
    <path
       id="path30816"
       d="m 39.40051,436.16376 638.3418,0 0,20.40362 -638.3418,0 z"
       inkscape:connector-curvature="0" />
    <path
       id="path30818"
       d="m 44.95729,204.59197 627.22828,0 21.6642,40.49707 -670.55669,0 21.66421,-40.49707 z"
       inkscape:connector-curvature="0"
       style="fill:#dcdcdc;stroke:#000000;stroke-width:5.74101019" />
    <path
       id="path30820"
       d="m 21.94573,246.73551 673.2514,0 0,69.88727 -673.2514,0 0,-69.88727 z"
       inkscape:connector-curvature="0"
       style="fill:#ffffff;stroke:#000000;stroke-width:2.56924009" />
    <path
       id="path30822"
       d="m 160.354,67.43044 392.06253,0 0,177.82457 -392.06253,0 z"
       inkscape:connector-curvature="0" />
    <path
       id="path30824"
       d="m 179.3111,20.80426 358.52075,0 0,212.78061 -358.52075,0 z"
       inkscape:connector-curvature="0"
       style="fill:#ffffff;stroke:#000000;stroke-width:5.41604996" />
    <path
       id="path30826"
       transform="matrix(5.41605,0,0,5.41605,1091.6443,294.24274)"
       d="m -85.57038,-0.30152 a 3.22907,2.82544 0 1 1 -6.45814,0 3.22907,2.82544 0 1 1 6.45814,0 z"
       inkscape:connector-curvature="0"
       style="fill:#ff0000;stroke:#000000;stroke-width:0.71700001" />
    <path
       id="path30828"
       transform="matrix(5.41605,0,0,5.41605,1136.8238,294.24274)"
       d="m -85.57038,-0.30152 a 3.22907,2.82544 0 1 1 -6.45814,0 3.22907,2.82544 0 1 1 6.45814,0 z"
       inkscape:connector-curvature="0"
       style="fill:#00ff00;stroke:#000000;stroke-width:0.71700001" />
    <path
       id="path30830"
       d="m 143.1391,336.85471 424.34927,0 0,98.82777 -424.34927,0 z"
       inkscape:connector-curvature="0"
       style="stroke:#000000;stroke-width:2.18049002" />
    <path
       id="path30832"
       d="m 188.28931,354.35626 328.21911,0 64.99267,218.71723 -458.2044,0 64.99262,-218.71723 z"
       inkscape:connector-curvature="0"
       style="fill:#ffffff;stroke:#000000;stroke-width:3.77626991" />
    <path
       id="path30834"
       d="m 222.39635,380.80776 260.00508,-1.49201"
       inkscape:connector-curvature="0"
       style="fill:none;stroke:#000000;stroke-width:5.38142014" />
    <path
       id="path30836"
       d="m 217.58928,394.84449 269.61922,-1.4574"
       inkscape:connector-curvature="0"
       style="fill:none;stroke:#000000;stroke-width:5.41604996" />
    <path
       id="path30838"
       d="m 211.602,411.64541 281.59378,-1.41657"
       inkscape:connector-curvature="0"
       style="fill:none;stroke:#000000;stroke-width:5.45690012" />
    <path
       id="path30840"
       d="m 206.20333,430.52485 292.39112,-1.38169"
       inkscape:connector-curvature="0"
       style="fill:none;stroke:#000000;stroke-width:5.49173021" />
    <path
       id="path30842"
       d="m 200.80385,454.24802 303.19007,-1.3486"
       inkscape:connector-curvature="0"
       style="fill:none;stroke:#000000;stroke-width:5.52483988" />
    <path
       id="path30844"
       d="m 195.40356,479.35565 313.99066,-1.31713"
       inkscape:connector-curvature="0"
       style="fill:none;stroke:#000000;stroke-width:5.55634022" />
    <path
       id="path30846"
       d="M 193.11788,505.44033 511.6799,503.71737"
       inkscape:connector-curvature="0"
       style="fill:none;stroke:#000000;stroke-width:6.40110016" />
    <path
       id="path30848"
       d="m 188.56628,533.85028 327.66521,-2.70212"
       inkscape:connector-curvature="0"
       style="fill:none;stroke:#000000;stroke-width:8.12996006" />
  </g>
  <g
     id="g4474"
     transform="matrix(1.5940892,0,0,1.684208,489.0919,-83.545781)">
    <g
       id="g4470">
      <rect
         style="opacity:1;fill:#ffffff;fill-opacity:1;stroke:none;stroke-width:18.91600037;stroke-miterlimit:0.5;stroke-dasharray:none;stroke-opacity:1"
         id="rect4466"
         width="136.76587"
         height="90.257591"
         x="-260.91931"
         y="100.84781" />
      <rect
         y="148.55327"
         x="-226.23517"
         height="67.368057"
         width="62.667938"
         id="rect4468"
         style="opacity:1;fill:#ffffff;fill-opacity:1;stroke:none;stroke-width:18.91600037;stroke-miterlimit:0.5;stroke-dasharray:none;stroke-opacity:1" />
    </g>
    <g
       transform="matrix(0.63394982,0,0,0.63394982,-343.78189,0.5038442)"
       id="eye">
      <path
         inkscape:connector-curvature="0"
         d="m 411.428,192.979 c 0,0 -55.924,-73.29 -170.008,-73.29 -113.18,0 -173.992,72.198 -173.992,72.198 -11.994,14.233 -11.264,34.654 1.623,45.358 8.244,6.86 19.557,8.111 29.805,4.453 14.893,47.049 56.266,110.61 139.992,110.61 82.844,0 124.516,-63.721 139.734,-110.736 9.814,3.689 20.723,2.813 29.002,-3.403 13.405,-10.048 15.139,-30.391 3.844,-45.19 z m -172.58,118.706 c -83.99,0 -103.1,-87.093 -105.092,-97.594 14.561,-10.545 37.359,-23.251 68.217,-29.533 l 16.609,34.33 -43.865,-15.062 c -2.602,6.985 -4.094,14.497 -4.094,22.388 0,35.534 28.803,64.312 64.32,64.312 35.521,0 64.312,-28.778 64.312,-64.312 0,-15.484 -5.484,-29.688 -14.592,-40.793 27.543,6.402 47.434,18.061 60.199,27.794 -2.639,12.39 -24.168,98.47 -106.014,98.47 z"
         id="path4250" />
    </g>
  </g>
</svg>
