<?xml version="1.0" encoding="UTF-8" standalone="no"?>
<!-- Created with Inkscape (http://www.inkscape.org/) -->

<svg
   xmlns:dc="http://purl.org/dc/elements/1.1/"
   xmlns:cc="http://creativecommons.org/ns#"
   xmlns:rdf="http://www.w3.org/1999/02/22-rdf-syntax-ns#"
   xmlns:svg="http://www.w3.org/2000/svg"
   xmlns="http://www.w3.org/2000/svg"
   xmlns:sodipodi="http://sodipodi.sourceforge.net/DTD/sodipodi-0.dtd"
   xmlns:inkscape="http://www.inkscape.org/namespaces/inkscape"
   width="25.21228mm"
   height="9.6181335mm"
   viewBox="0 0 89.334851 34.080001"
   id="svg2"
   version="1.1"
   inkscape:version="0.91 r13725"
   sodipodi:docname="SK.svg">
  <defs
     id="defs4">
    <filter
       inkscape:label="Film Grain"
       inkscape:menu="Image Effects"
       inkscape:menu-tooltip="Adds a small scale graininess"
       style="color-interpolation-filters:sRGB"
       id="filter3432">
      <feTurbulence
         type="fractalNoise"
         numOctaves="3"
         baseFrequency="1"
         seed="0"
         result="result0"
         id="feTurbulence3434" />
      <feColorMatrix
         result="result4"
         values="0"
         type="saturate"
         id="feColorMatrix3436" />
      <feComposite
         in="SourceGraphic"
         in2="result4"
         operator="arithmetic"
         k1="1.25"
         k2="0.5"
         k3="0.5"
         result="result2"
         id="feComposite3438"
         k4="0" />
      <feBlend
         result="result5"
         mode="normal"
         in="result2"
         in2="SourceGraphic"
         id="feBlend3440" />
      <feComposite
         in="result5"
         in2="SourceGraphic"
         operator="in"
         result="result3"
         id="feComposite3442" />
    </filter>
  </defs>
  <sodipodi:namedview
     id="base"
     pagecolor="#ffffff"
     bordercolor="#666666"
     borderopacity="1.0"
     inkscape:pageopacity="0.0"
     inkscape:pageshadow="2"
     inkscape:zoom="7.9195959"
     inkscape:cx="44.206337"
     inkscape:cy="24.773723"
     inkscape:document-units="px"
     inkscape:current-layer="layer1"
     showgrid="false"
     inkscape:window-width="1895"
     inkscape:window-height="997"
     inkscape:window-x="25"
     inkscape:window-y="24"
     inkscape:window-maximized="1"
     fit-margin-top="0"
     fit-margin-left="0"
     fit-margin-right="0"
     fit-margin-bottom="0" />
  <metadata
     id="metadata7">
    <rdf:RDF>
      <cc:Work
         rdf:about="">
        <dc:format>image/svg+xml</dc:format>
        <dc:type
           rdf:resource="http://purl.org/dc/dcmitype/StillImage" />
        <dc:title></dc:title>
      </cc:Work>
    </rdf:RDF>
  </metadata>
  <g
     inkscape:label="Layer 1"
     inkscape:groupmode="layer"
     id="layer1"
     transform="translate(-391.40185,-579.14507)">
    <g
       id="g4162">
      <path
         d="m 424.02985,582.38507 0,10.04 -0.84,0 q -2.72,-4.2 -6.36,-6.6 -4.4,-2.92 -9.84,-2.92 -3.24,0 -5.2,1.12 -1.92,1.12 -1.92,3 0,1.6 1.6,2.48 1.64,0.84 6.64,1.68 l 6.8,1.08 q 6.08,1 8.68,2.68 3.32,2.16 3.32,6.52 0,4.16 -3.24,6.56 -3.2,2.36 -8.92,2.36 -3.64,0 -6.56,-0.96 -2.88,-1 -6.48,-3.6 l -5.28,3.88 -0.92,0 -0.04,-11 0.92,0 q 2.68,4.4 7.32,7.36 5.28,3.36 11,3.36 7.2,0 7.2,-3.72 0,-1.64 -1.52,-2.52 -1.84,-1.08 -6.8,-1.88 l -7.68,-1.08 q -11.28,-1.64 -11.28,-8.84 0,-4.08 3.48,-6.72 3.52,-2.68 9,-2.68 6.08,0 11.52,4.04 l 4.76,-3.64 0.64,0 z m -25.08,2.76 q -1.64,0.96 -2.52,2.6 -0.88,1.6 -0.88,3.6 0,3.16 2.16,5 2.64,2.24 8.92,3.16 l 6.28,0.88 q 5.24,0.76 7.64,1.92 2.44,1.12 2.44,3.24 0,0.76 -0.2,1.28 -0.32,0.6 -0.48,1 1.48,-0.96 1.92,-1.96 0.48,-1.04 0.48,-3.2 0,-6.2 -10.44,-7.76 l -8.04,-1.2 q -4.36,-0.76 -4.84,-0.92 -3.64,-1.32 -3.64,-4.4 0,-1.52 1.2,-3.24 z m 22.72,-0.52 -2.36,1.92 q 1,0.92 1.28,1.2 0.28,0.28 1.08,1.2 l 0,-4.32 z m -25.36,24.2 3.64,-2.84 q -0.56,-0.4 -1.12,-0.8 -0.96,-0.84 -2.56,-2.84 l 0.04,6.48 z"
         style="font-style:normal;font-variant:normal;font-weight:normal;font-stretch:normal;font-size:medium;line-height:125%;font-family:'Cash Outline';-inkscape-font-specification:'Cash Outline';letter-spacing:0px;word-spacing:0px;fill:#000000;fill-opacity:1;stroke:none;stroke-width:1px;stroke-linecap:butt;stroke-linejoin:miter;stroke-opacity:1;filter:url(#filter3432)"
         id="path3464"
         inkscape:connector-curvature="0" />
      <path
         inkscape:connector-curvature="0"
         id="path4144"
         style="font-style:normal;font-variant:normal;font-weight:normal;font-stretch:normal;font-size:medium;line-height:125%;font-family:'Cash Outline';-inkscape-font-specification:'Cash Outline';letter-spacing:0px;word-spacing:0px;opacity:0.5;fill:#000000;fill-opacity:1;stroke:none;stroke-width:1px;stroke-linecap:butt;stroke-linejoin:miter;stroke-opacity:1;filter:url(#filter3432)"
         d="m 424.52985,582.38507 0,10.04 -0.84,0 q -2.72,-4.2 -6.36,-6.6 -4.4,-2.92 -9.84,-2.92 -3.24,0 -5.2,1.12 -1.92,1.12 -1.92,3 0,1.6 1.6,2.48 1.64,0.84 6.64,1.68 l 6.8,1.08 q 6.08,1 8.68,2.68 3.32,2.16 3.32,6.52 0,4.16 -3.24,6.56 -3.2,2.36 -8.92,2.36 -3.64,0 -6.56,-0.96 -2.88,-1 -6.48,-3.6 l -5.28,3.88 -0.92,0 -0.04,-11 0.92,0 q 2.68,4.4 7.32,7.36 5.28,3.36 11,3.36 7.2,0 7.2,-3.72 0,-1.64 -1.52,-2.52 -1.84,-1.08 -6.8,-1.88 l -7.68,-1.08 q -11.28,-1.64 -11.28,-8.84 0,-4.08 3.48,-6.72 3.52,-2.68 9,-2.68 6.08,0 11.52,4.04 l 4.76,-3.64 0.64,0 z m -25.08,2.76 q -1.64,0.96 -2.52,2.6 -0.88,1.6 -0.88,3.6 0,3.16 2.16,5 2.64,2.24 8.92,3.16 l 6.28,0.88 q 5.24,0.76 7.64,1.92 2.44,1.12 2.44,3.24 0,0.76 -0.2,1.28 -0.32,0.6 -0.48,1 1.48,-0.96 1.92,-1.96 0.48,-1.04 0.48,-3.2 0,-6.2 -10.44,-7.76 l -8.04,-1.2 q -4.36,-0.76 -4.84,-0.92 -3.64,-1.32 -3.64,-4.4 0,-1.52 1.2,-3.24 z m 22.72,-0.52 -2.36,1.92 q 1,0.92 1.28,1.2 0.28,0.28 1.08,1.2 l 0,-4.32 z m -25.36,24.2 3.64,-2.84 q -0.56,-0.4 -1.12,-0.8 -0.96,-0.84 -2.56,-2.84 l 0.04,6.48 z" />
    </g>
    <g
       id="g4158"
       transform="translate(-0.89285732,0)">
      <path
         d="m 446.65356,597.94507 10.32,-7.36 q 2.48,-1.72 2.48,-3.92 0,-2.88 -3.6,-2.88 l -0.96,0 0,-0.96 19.08,0 0,0.96 -0.52,0 q -3.48,0 -7.52,2.08 -2.24,1.16 -5.88,3.8 l -3.4,2.44 q 4.76,5.68 7.52,8.84 2.52,2.88 3.8,4.24 1,1.04 1.84,1.72 1.2,1 2.36,1.36 1.16,0.32 3.28,0.32 l 1.12,0 0.04,0.92 -22.64,0 0,-0.92 1.24,0 q 1.12,0 1.52,-0.28 0.44,-0.28 0.44,-1 0,-0.4 -0.24,-0.8 -0.2,-0.4 -0.88,-1.28 l -6.64,-7.92 -2.72,1.92 0,4.92 q 0,2.64 0.68,3.4 0.92,1.04 4.16,1.04 l 0.04,0.92 -20.12,0 0,-0.92 1.28,0 q 2.8,0 3.68,-0.76 0.92,-0.8 0.92,-3.68 l 0,-15.92 q 0,-0.64 0,-0.92 0,-1.8 -0.68,-2.52 -0.96,-1 -3.92,-1 l -1.28,0 0,-0.96 21.08,0 -0.04,0.96 -1.24,0 q -2.64,0 -3.28,0.4 -1.28,0.84 -1.28,4.04 l -0.04,9.72 z m 17.88,-14.16 -5.52,0 q 1.44,1.4 1.44,3 l -0.16,1.08 4.24,-4.08 z m -10.48,10.12 -3.88,2.76 7.28,8.84 q 0.8,1.04 0.8,1.92 0,0.6 -0.4,1.16 l 8.48,0 -12.28,-14.68 z m -17.08,-10.12 q 0.8,0.64 1.08,1.44 0.28,0.8 0.28,2.44 l 0.04,17 q 0,1.6 -0.28,2.4 -0.28,0.8 -1.12,1.52 l 7.48,0 q -0.48,-0.64 -0.64,-1.12 -0.16,-0.48 -0.16,-2.08 l 0,-18.4 q 0,-1.36 0.12,-1.96 0.16,-0.6 0.68,-1.24 l -7.48,0 z"
         style="font-style:normal;font-variant:normal;font-weight:normal;font-stretch:normal;font-size:medium;line-height:125%;font-family:'Cash Outline';-inkscape-font-specification:'Cash Outline';letter-spacing:0px;word-spacing:0px;fill:#000000;fill-opacity:1;stroke:none;stroke-width:1px;stroke-linecap:butt;stroke-linejoin:miter;stroke-opacity:1;filter:url(#filter3432)"
         id="path3466"
         inkscape:connector-curvature="0" />
      <path
         inkscape:connector-curvature="0"
         id="path4148"
         style="font-style:normal;font-variant:normal;font-weight:normal;font-stretch:normal;font-size:medium;line-height:125%;font-family:'Cash Outline';-inkscape-font-specification:'Cash Outline';letter-spacing:0px;word-spacing:0px;opacity:0.5;fill:#000000;fill-opacity:1;stroke:none;stroke-width:1px;stroke-linecap:butt;stroke-linejoin:miter;stroke-opacity:1;filter:url(#filter3432)"
         d="m 447.15356,597.94507 10.32,-7.36 q 2.48,-1.72 2.48,-3.92 0,-2.88 -3.6,-2.88 l -0.96,0 0,-0.96 19.08,0 0,0.96 -0.52,0 q -3.48,0 -7.52,2.08 -2.24,1.16 -5.88,3.8 l -3.4,2.44 q 4.76,5.68 7.52,8.84 2.52,2.88 3.8,4.24 1,1.04 1.84,1.72 1.2,1 2.36,1.36 1.16,0.32 3.28,0.32 l 1.12,0 0.04,0.92 -22.64,0 0,-0.92 1.24,0 q 1.12,0 1.52,-0.28 0.44,-0.28 0.44,-1 0,-0.4 -0.24,-0.8 -0.2,-0.4 -0.88,-1.28 l -6.64,-7.92 -2.72,1.92 0,4.92 q 0,2.64 0.68,3.4 0.92,1.04 4.16,1.04 l 0.04,0.92 -20.12,0 0,-0.92 1.28,0 q 2.8,0 3.68,-0.76 0.92,-0.8 0.92,-3.68 l 0,-15.92 q 0,-0.64 0,-0.92 0,-1.8 -0.68,-2.52 -0.96,-1 -3.92,-1 l -1.28,0 0,-0.96 21.08,0 -0.04,0.96 -1.24,0 q -2.64,0 -3.28,0.4 -1.28,0.84 -1.28,4.04 l -0.04,9.72 z m 17.88,-14.16 -5.52,0 q 1.44,1.4 1.44,3 l -0.16,1.08 4.24,-4.08 z m -10.48,10.12 -3.88,2.76 7.28,8.84 q 0.8,1.04 0.8,1.92 0,0.6 -0.4,1.16 l 8.48,0 -12.28,-14.68 z m -17.08,-10.12 q 0.8,0.64 1.08,1.44 0.28,0.8 0.28,2.44 l 0.04,17 q 0,1.6 -0.28,2.4 -0.28,0.8 -1.12,1.52 l 7.48,0 q -0.48,-0.64 -0.64,-1.12 -0.16,-0.48 -0.16,-2.08 l 0,-18.4 q 0,-1.36 0.12,-1.96 0.16,-0.6 0.68,-1.24 l -7.48,0 z" />
    </g>
  </g>
</svg>
