<?xml version="1.0" encoding="UTF-8" standalone="no"?>
<svg
   xmlns:dc="http://purl.org/dc/elements/1.1/"
   xmlns:cc="http://creativecommons.org/ns#"
   xmlns:rdf="http://www.w3.org/1999/02/22-rdf-syntax-ns#"
   xmlns:svg="http://www.w3.org/2000/svg"
   xmlns="http://www.w3.org/2000/svg"
   xmlns:xlink="http://www.w3.org/1999/xlink"
   xmlns:sodipodi="http://sodipodi.sourceforge.net/DTD/sodipodi-0.dtd"
   xmlns:inkscape="http://www.inkscape.org/namespaces/inkscape"
   viewBox="0 0 523.28052 479.2413"
   id="svg2"
   version="1.1"
   inkscape:version="0.91 r13725"
   sodipodi:docname="Slice.svg"
   width="523.28052"
   height="479.2413"
   inkscape:export-filename="/home/simon/Incoming/Slice.png"
   inkscape:export-xdpi="88.059998"
   inkscape:export-ydpi="88.059998">
  <metadata
     id="metadata355">
    <rdf:RDF>
      <cc:Work
         rdf:about="">
        <dc:format>image/svg+xml</dc:format>
        <dc:type
           rdf:resource="http://purl.org/dc/dcmitype/StillImage" />
        <dc:title>orange slice</dc:title>
      </cc:Work>
    </rdf:RDF>
  </metadata>
  <sodipodi:namedview
     pagecolor="#ffffff"
     bordercolor="#666666"
     borderopacity="1"
     objecttolerance="10"
     gridtolerance="10"
     guidetolerance="10"
     inkscape:pageopacity="0"
     inkscape:pageshadow="2"
     inkscape:window-width="640"
     inkscape:window-height="480"
     id="namedview353"
     showgrid="false"
     fit-margin-top="0"
     fit-margin-left="0"
     fit-margin-right="0"
     fit-margin-bottom="0"
     inkscape:zoom="1.1452831"
     inkscape:cx="138.21607"
     inkscape:cy="223.33611"
     inkscape:current-layer="svg2" />
  <defs
     id="defs4">
    <filter
       id="filter8006-2">
      <feGaussianBlur
         stdDeviation="1.3364"
         id="feGaussianBlur7" />
    </filter>
    <filter
       id="filter7748-2">
      <feGaussianBlur
         stdDeviation="1.13502"
         id="feGaussianBlur10" />
    </filter>
    <filter
       id="filter8037-1">
      <feGaussianBlur
         stdDeviation="2.83869"
         id="feGaussianBlur13" />
    </filter>
    <filter
       height="2.6134"
       id="filter12350"
       width="1.34076"
       x="-0.17038"
       y="-0.80669999">
      <feGaussianBlur
         stdDeviation="23.52871"
         id="feGaussianBlur16" />
    </filter>
    <filter
       height="1.3816"
       id="filter8289-3"
       width="1.63427"
       x="-0.31714001"
       y="-0.1908">
      <feGaussianBlur
         stdDeviation="1.05455"
         id="feGaussianBlur19" />
    </filter>
    <filter
       height="1.1375901"
       id="filter8101-85"
       width="1.21808"
       x="-0.10904"
       y="-0.068790004">
      <feGaussianBlur
         stdDeviation=".37067"
         id="feGaussianBlur22" />
    </filter>
    <filter
       height="125.57064"
       id="filter8059-5"
       width="1.3725801"
       x="-0.18629"
       y="-62.28532">
      <feGaussianBlur
         stdDeviation="1.96458"
         id="feGaussianBlur25" />
    </filter>
    <filter
       height="2.80446"
       id="filter8293-7"
       width="2.97575"
       x="-0.98787999"
       y="-0.90223002">
      <feGaussianBlur
         stdDeviation="3.66396"
         id="feGaussianBlur28" />
    </filter>
    <filter
       height="2.97575"
       id="filter8297-3"
       width="2.80446"
       x="-0.90223002"
       y="-0.98787999">
      <feGaussianBlur
         stdDeviation="3.66396"
         id="feGaussianBlur31" />
    </filter>
    <filter
       height="5.8067698"
       id="filter8301-0"
       width="5.3900299"
       x="-2.19502"
       y="-2.4033799">
      <feGaussianBlur
         stdDeviation="3.66396"
         id="feGaussianBlur34" />
    </filter>
    <filter
       height="1.34962"
       id="filter8305-5"
       width="1.23185"
       x="-0.11592"
       y="-0.17481001">
      <feGaussianBlur
         stdDeviation="3.66396"
         id="feGaussianBlur37" />
    </filter>
    <filter
       height="3.05287"
       id="filter8063-3"
       width="1.1338201"
       x="-0.066909999"
       y="-1.02644">
      <feGaussianBlur
         stdDeviation="7.87567"
         id="feGaussianBlur40" />
    </filter>
    <filter
       height="1.7158999"
       id="filter8385-1"
       width="1.09526"
       x="-0.047630001"
       y="-0.35795">
      <feGaussianBlur
         stdDeviation="4.59745"
         id="feGaussianBlur43" />
    </filter>
    <filter
       height="1.97709"
       id="filter8117-7"
       width="1.27939"
       x="-0.13969"
       y="-0.48855001">
      <feGaussianBlur
         stdDeviation="8.49346"
         id="feGaussianBlur46" />
    </filter>
    <filter
       height="1.6547101"
       id="filter8389-0"
       width="1.18721"
       x="-0.093599997"
       y="-0.32736">
      <feGaussianBlur
         stdDeviation="5.69115"
         id="feGaussianBlur49" />
    </filter>
    <filter
       height="1.37805"
       id="filter7966-0"
       width="1.20972"
       x="-0.10486"
       y="-0.18903001">
      <feGaussianBlur
         stdDeviation="3.65466"
         id="feGaussianBlur52" />
    </filter>
    <filter
       height="1.66592"
       id="filter8417-9"
       width="1.36941"
       x="-0.18471"
       y="-0.33296001">
      <feGaussianBlur
         stdDeviation="6.43744"
         id="feGaussianBlur55" />
    </filter>
    <filter
       height="3.8441701"
       id="filter8309-2"
       width="1.28705"
       x="-0.14352"
       y="-1.4220901">
      <feGaussianBlur
         stdDeviation="14.68816"
         id="feGaussianBlur58" />
    </filter>
    <filter
       height="1.09627"
       id="filter7922-8"
       width="1.67079"
       x="-0.33539999"
       y="-0.048140001">
      <feGaussianBlur
         stdDeviation=".77461"
         id="feGaussianBlur61" />
    </filter>
    <filter
       height="1.06953"
       id="filter7926-0"
       width="1.4471999"
       x="-0.2236"
       y="-0.034759998">
      <feGaussianBlur
         stdDeviation=".77461"
         id="feGaussianBlur64" />
    </filter>
    <filter
       height="1.0834301"
       id="filter7930-20"
       width="1.53664"
       x="-0.26831999"
       y="-0.041719999">
      <feGaussianBlur
         stdDeviation=".77461"
         id="feGaussianBlur67" />
    </filter>
    <filter
       height="1.6241"
       id="filter8321-8"
       width="3.1185901"
       x="-1.0592999"
       y="-0.31205001">
      <feGaussianBlur
         stdDeviation="6.32349"
         id="feGaussianBlur70" />
    </filter>
    <filter
       height="1.66362"
       id="filter8425-1"
       width="1.53535"
       x="-0.26767999"
       y="-0.33181">
      <feGaussianBlur
         stdDeviation="6.56135"
         id="feGaussianBlur73" />
    </filter>
    <filter
       height="1.97706"
       id="filter8325-3"
       width="1.65137"
       x="-0.32569"
       y="-0.48853001">
      <feGaussianBlur
         stdDeviation="3.66396"
         id="feGaussianBlur76" />
    </filter>
    <filter
       height="1.097"
       id="filter7732-0"
       width="1.77597"
       x="-0.38799"
       y="-0.048500001">
      <feGaussianBlur
         stdDeviation="1.77827"
         id="feGaussianBlur79" />
    </filter>
    <filter
       height="1.46497"
       id="filter8397-8"
       width="1.30503"
       x="-0.15252"
       y="-0.23248">
      <feGaussianBlur
         stdDeviation="4.72425"
         id="feGaussianBlur82" />
    </filter>
    <filter
       height="1.15396"
       id="filter7408-1"
       width="1.26667"
       x="-0.13333"
       y="-0.076980002">
      <feGaussianBlur
         stdDeviation="1.97204"
         id="feGaussianBlur85" />
    </filter>
    <filter
       height="1.60735"
       id="filter8075-67"
       width="1.35037"
       x="-0.17518"
       y="-0.30368">
      <feGaussianBlur
         stdDeviation="4.58151"
         id="feGaussianBlur88" />
    </filter>
    <filter
       height="6.3571401"
       id="filter8329-9"
       width="1.56016"
       x="-0.28007999"
       y="-2.67857">
      <feGaussianBlur
         stdDeviation="8.54454"
         id="feGaussianBlur91" />
    </filter>
    <filter
       height="2.2037201"
       id="filter8333-5"
       width="1.64033"
       x="-0.32016"
       y="-0.60185999">
      <feGaussianBlur
         stdDeviation="8.54454"
         id="feGaussianBlur94" />
    </filter>
    <filter
       height="1.34417"
       id="filter8337-6"
       width="3.1475799"
       x="-1.07379"
       y="-0.17208999">
      <feGaussianBlur
         stdDeviation="6.08196"
         id="feGaussianBlur97" />
    </filter>
    <filter
       height="1.38642"
       id="filter8341-3"
       width="2.1565499"
       x="-0.57827002"
       y="-0.19321001">
      <feGaussianBlur
         stdDeviation="6.08196"
         id="feGaussianBlur100" />
    </filter>
    <filter
       height="1.67539"
       id="filter8345-8"
       width="1.67371"
       x="-0.33686"
       y="-0.33770001">
      <feGaussianBlur
         stdDeviation="6.08196"
         id="feGaussianBlur103" />
    </filter>
    <linearGradient
       id="linearGradient8089-1">
      <stop
         offset="0"
         stop-color="#fff"
         id="stop106" />
      <stop
         offset="1"
         stop-color="#fff"
         stop-opacity="0"
         id="stop108" />
    </linearGradient>
    <linearGradient
       gradientUnits="userSpaceOnUse"
       id="linearGradient10961"
       x1="-218.76601"
       x2="-224.76601"
       y1="1002.8835"
       y2="949.88348">
      <stop
         offset="0"
         stop-color="#ff0"
         id="stop111" />
      <stop
         offset="1"
         stop-color="#f44800"
         id="stop113" />
    </linearGradient>
    <linearGradient
       gradientTransform="matrix(-0.51584,1.92958,-1.62482,-0.43637,807.39228,-49.83995)"
       gradientUnits="userSpaceOnUse"
       id="linearGradient10965"
       x1="290.33154"
       x2="196.92165"
       y1="282.9809"
       y2="250.60834">
      <stop
         offset="0"
         stop-color="#faa10f"
         id="stop116" />
      <stop
         offset="1"
         stop-color="#fcb927"
         id="stop118" />
    </linearGradient>
    <linearGradient
       gradientTransform="matrix(0.44908,-1.67985,1.676,0.45011,-266.01722,444.35262)"
       gradientUnits="userSpaceOnUse"
       id="linearGradient10967"
       x1="286.70337"
       x2="205.54802"
       y1="264.08154"
       y2="260.4371">
      <stop
         offset="0"
         stop-color="#faa10f"
         id="stop121" />
      <stop
         offset="1"
         stop-color="#fcbd25"
         id="stop123" />
    </linearGradient>
    <linearGradient
       id="linearGradient7297-2">
      <stop
         offset="0"
         stop-color="#faa10f"
         id="stop126" />
      <stop
         offset="1"
         stop-color="#fa7a0f"
         id="stop128" />
    </linearGradient>
    <linearGradient
       gradientTransform="matrix(-1.40322,0.86998,-0.81015,-1.50684,753.85319,474.54513)"
       gradientUnits="userSpaceOnUse"
       id="linearGradient10971"
       x1="293.15421"
       x2="209.3495"
       y1="292.96811"
       y2="272.90228">
      <stop
         offset="0"
         stop-color="#faa10f"
         id="stop131" />
      <stop
         offset="1"
         stop-color="#fabe28"
         id="stop133" />
    </linearGradient>
    <linearGradient
       gradientTransform="matrix(-1.40931,-1.41255,1.18945,-1.19219,247.21491,858.0056)"
       gradientUnits="userSpaceOnUse"
       id="linearGradient10973"
       x1="253.40836"
       x2="215.26793"
       y1="290.74161"
       y2="260.61469">
      <stop
         offset="0"
         stop-color="#faa10f"
         id="stop136" />
      <stop
         offset="1"
         stop-color="#fcc028"
         id="stop138" />
    </linearGradient>
    <linearGradient
       gradientUnits="userSpaceOnUse"
       id="linearGradient10957"
       x1="-2.7321501"
       x2="0.87465"
       xlink:href="#linearGradient8089-1"
       y1="426.65588"
       y2="425.78058" />
    <linearGradient
       gradientUnits="userSpaceOnUse"
       id="linearGradient10959"
       x1="-0.98872"
       x2="-6.99156"
       xlink:href="#linearGradient8089-1"
       y1="425.58005"
       y2="426.0488" />
    <linearGradient
       gradientTransform="matrix(1.7260453,-0.99882305,0.84106472,1.460122,-320.4134,63.138236)"
       gradientUnits="userSpaceOnUse"
       id="linearGradient10969"
       x1="227.17731"
       x2="286.55319"
       xlink:href="#linearGradient7297-2"
       y1="274.76596"
       y2="279.92908" />
    <linearGradient
       gradientTransform="matrix(1.22692,1.22974,-1.22692,1.22974,356.9181,-320.82795)"
       gradientUnits="userSpaceOnUse"
       id="linearGradient10975"
       x1="263.0817"
       x2="234.78738"
       xlink:href="#linearGradient7297-2"
       y1="319.72733"
       y2="262.22598" />
    <linearGradient
       gradientUnits="userSpaceOnUse"
       id="linearGradient10977"
       x1="364.37234"
       x2="467.39664"
       xlink:href="#linearGradient7297-2"
       y1="240.1058"
       y2="249.08504"
       gradientTransform="translate(-38.879326,18.83455)" />
    <radialGradient
       cx="-206"
       cy="197.23227"
       gradientTransform="matrix(0.22692,-3.95974,5.37592,0.3063,-1219.5585,-682.23408)"
       gradientUnits="userSpaceOnUse"
       id="radialGradient10963"
       r="8.8134003">
      <stop
         offset="0"
         stop-color="#fdca01"
         id="stop146" />
      <stop
         offset="1"
         stop-color="#eee"
         id="stop148" />
    </radialGradient>
    <radialGradient
       cx="-303"
       cy="917.46533"
       gradientTransform="matrix(2.56953,1.0584,-0.54877,1.33841,1377.1163,-734.41008)"
       gradientUnits="userSpaceOnUse"
       id="radialGradient10979"
       r="49.294479">
      <stop
         offset="0"
         stop-color="#fa8a07"
         id="stop151" />
      <stop
         offset="1"
         stop-color="#fca913"
         id="stop153" />
    </radialGradient>
    <linearGradient
       inkscape:collect="always"
       xlink:href="#linearGradient8089-1"
       id="linearGradient4483"
       gradientUnits="userSpaceOnUse"
       x1="-0.98872"
       y1="425.58005"
       x2="-6.99156"
       y2="426.0488" />
    <linearGradient
       inkscape:collect="always"
       xlink:href="#linearGradient8089-1"
       id="linearGradient4485"
       gradientUnits="userSpaceOnUse"
       x1="-2.7321501"
       y1="426.65588"
       x2="0.87465"
       y2="425.78058" />
    <linearGradient
       inkscape:collect="always"
       xlink:href="#linearGradient8089-1"
       id="linearGradient4487"
       gradientUnits="userSpaceOnUse"
       x1="-0.98872"
       y1="425.58005"
       x2="-6.99156"
       y2="426.0488" />
    <linearGradient
       inkscape:collect="always"
       xlink:href="#linearGradient8089-1"
       id="linearGradient4489"
       gradientUnits="userSpaceOnUse"
       x1="-0.98872"
       y1="425.58005"
       x2="-6.99156"
       y2="426.0488" />
    <linearGradient
       inkscape:collect="always"
       xlink:href="#linearGradient8089-1"
       id="linearGradient4491"
       gradientUnits="userSpaceOnUse"
       x1="-0.98872"
       y1="425.58005"
       x2="-6.99156"
       y2="426.0488" />
  </defs>
  <title
     id="title155">orange slice</title>
  <path
     d="m 485.47158,239.35542 c 0,103.60457 -88.11145,183.64331 -197.55764,197.01808 -9.80419,1.19789 -16.10951,7.37946 -26.27289,7.37946 -77.8368,0 -133.44508,-34.42778 -173.548993,-89.48137 -23.58796,-32.38039 -50.281833,-73.10957 -50.281833,-114.91617 0,-67.20193 35.602973,-125.89911 90.446926,-162.55834 37.28276,-24.92095 83.45749,-38.65978 133.3839,-41.83858 69.23845,-4.40853 122.42957,28.49571 160.60419,65.10315 39.90174,38.26355 63.22634,81.60254 63.22634,139.29377 z"
     id="path157"
     inkscape:connector-curvature="0"
     style="fill:#fb8b00" />
  <path
     d="m 488.8891,239.35832 c 0,105.1866 -89.45679,186.44724 -200.57406,200.02613 -9.95397,1.21738 -16.35554,7.492 -26.67415,7.492 -79.02517,0 -135.48251,-34.95279 -176.198893,-90.84713 -23.94814,-32.87501 -51.049113,-74.22618 -51.049113,-116.671 0,-68.2277 36.146273,-127.82128 91.827726,-165.04016 37.85201,-25.30122 84.73178,-39.25004 135.42028,-42.47742 70.2959,-4.47565 124.29914,28.93076 163.05647,66.09719 40.51124,38.84787 64.19174,82.84863 64.19174,141.4204 z"
     id="path159"
     inkscape:connector-curvature="0"
     style="fill:#fb8b00" />
  <path
     d="m -86,260 c 0,58.79792 -47.63196,104.22161 -106.79722,111.81226 C -198.09724,372.49223 -201.50586,376 -207,376 c -42.0776,0 -72.13877,-19.53817 -93.81844,-50.78225 C -313.5698,306.84088 -328,283.72617 -328,260 c 0,-38.13855 19.24642,-71.45069 48.89439,-92.2556 C -258.95101,153.60129 -233.9896,145.80404 -207,144 c 37.42947,-2.50187 66.18397,16.17196 86.82072,36.94758 C -98.60896,202.66306 -86,227.25896 -86,260 Z"
     transform="matrix(1.80193,0,0,1.7164,634.63975,-206.91482)"
     id="path161"
     inkscape:connector-curvature="0"
     style="fill:#fffcd9;filter:url(#filter8037-1)" />
  <path
     d="m 88.543627,216.68819 c 69.936253,39.75796 96.184473,35.26811 146.278213,34.22051 9.1128,-0.19021 7.71768,-15.23387 7.71768,-15.23387 C 222.64268,211.15993 166.75893,133.70142 140.5705,110.32532 121.29476,93.11931 56.474194,198.45715 88.543627,216.68819 Z"
     id="path163"
     inkscape:connector-curvature="0"
     style="fill:url(#radialGradient10979);stroke:#fcc627;stroke-width:1.83311999" />
  <use
     height="1052.3622"
     transform="matrix(0.2305,0,0,0.2305,281.11431,331.47392)"
     width="744.09448"
     id="use165"
     style="opacity:0.87828997;fill:#fa6707"
     x="0"
     y="0" />
  <use
     height="1052.3622"
     transform="matrix(0.2305,0,0,0.2305,283.58484,333.02003)"
     width="744.09448"
     id="use167"
     style="opacity:0.87828997;fill:#fa6707"
     x="0"
     y="0" />
  <use
     height="1052.3622"
     transform="matrix(0.2305,0,0,0.2305,285.11791,329.65488)"
     width="744.09448"
     id="use169"
     style="opacity:0.87828997;fill:#fa6707"
     x="0"
     y="0" />
  <use
     height="1052.3622"
     transform="matrix(0.2305,0,0,0.2305,281.53675,335.37841)"
     width="744.09448"
     id="use171"
     style="opacity:0.87828997;fill:#fa6707"
     x="0"
     y="0" />
  <use
     height="1052.3622"
     transform="matrix(0.2305,0,0,0.2305,284.49541,331.61389)"
     width="744.09448"
     id="use173"
     style="opacity:0.87828997;fill:#fa6707"
     x="0"
     y="0" />
  <use
     height="1052.3622"
     transform="matrix(0.2305,0,0,0.2305,282.80497,334.22808)"
     width="744.09448"
     id="use175"
     style="opacity:0.87828997;fill:#fa6707"
     x="0"
     y="0" />
  <use
     height="1052.3622"
     transform="matrix(0.2305,0,0,0.2305,283.27576,332.79772)"
     width="744.09448"
     id="use177"
     style="opacity:0.87828997;fill:#fa6707"
     x="0"
     y="0" />
  <use
     height="1052.3622"
     transform="matrix(0.2305,0,0,0.2305,283.69907,333.04308)"
     width="744.09448"
     id="use179"
     style="opacity:0.87828997;fill:#fa6707"
     x="0"
     y="0" />
  <use
     height="1052.3622"
     transform="matrix(0.2305,0,0,0.2305,285.48592,330.50849)"
     width="744.09448"
     id="use181"
     style="opacity:0.87828997;fill:#fa6707"
     x="0"
     y="0" />
  <use
     height="1052.3622"
     transform="matrix(0.2305,0,0,0.2305,282.35542,328.4532)"
     width="744.09448"
     id="use183"
     style="opacity:0.87828997;fill:#fa6707"
     x="0"
     y="0" />
  <use
     height="1052.3622"
     transform="matrix(0.2305,0,0,0.2305,283.59906,332.02762)"
     width="744.09448"
     id="use185"
     style="opacity:0.87828997;fill:#fa6707"
     x="0"
     y="0" />
  <use
     height="1052.3622"
     transform="matrix(0.2305,0,0,0.2305,281.42347,327.26372)"
     width="744.09448"
     id="use187"
     style="opacity:0.87828997;fill:#fa6707"
     x="0"
     y="0" />
  <use
     height="1052.3622"
     transform="matrix(0.2305,0,0,0.2305,283.24031,328.87138)"
     width="744.09448"
     id="use189"
     style="opacity:0.87828997;fill:#fa6707"
     x="0"
     y="0" />
  <use
     height="1052.3622"
     transform="matrix(0.2305,0,0,0.2305,284.47435,331.9205)"
     width="744.09448"
     id="use191"
     style="opacity:0.87828997;fill:#fa6707"
     x="0"
     y="0" />
  <use
     height="1052.3622"
     transform="matrix(0.2305,0,0,0.2305,281.95136,328.87954)"
     width="744.09448"
     id="use193"
     style="opacity:0.87828997;fill:#fa6707"
     x="0"
     y="0" />
  <use
     height="1052.3622"
     transform="matrix(0.2305,0,0,0.2305,283.15073,327.4119)"
     width="744.09448"
     id="use195"
     style="opacity:0.87828997;fill:#fa6707"
     x="0"
     y="0" />
  <use
     height="1052.3622"
     transform="matrix(0.19359,0,0,0.2669,288.08367,300.81324)"
     width="744.09448"
     id="use197"
     style="opacity:0.87828997;fill:#fa6707"
     x="0"
     y="0" />
  <use
     height="1052.3622"
     transform="matrix(0.2305,0,0,0.2305,285.88275,328.55422)"
     width="744.09448"
     id="use199"
     style="opacity:0.87828997;fill:#fa6707"
     x="0"
     y="0" />
  <use
     height="1052.3622"
     transform="matrix(0.2305,0,0,0.2305,282.27693,329.8081)"
     width="744.09448"
     id="use201"
     style="opacity:0.87828997;fill:#fa6707"
     x="0"
     y="0" />
  <use
     height="1052.3622"
     transform="matrix(0.2305,0,0,0.2305,283.38587,326.78754)"
     width="744.09448"
     id="use203"
     style="opacity:0.87828997;fill:#fa6707"
     x="0"
     y="0" />
  <use
     height="1052.3622"
     transform="matrix(0.2305,0,0,0.2305,281.60036,326.58957)"
     width="744.09448"
     id="use205"
     style="opacity:0.87828997;fill:#fa6707"
     x="0"
     y="0" />
  <use
     height="1052.3622"
     transform="matrix(0.2305,0,0,0.2305,285.29989,329.14505)"
     width="744.09448"
     id="use207"
     style="opacity:0.87828997;fill:#fa6707"
     x="0"
     y="0" />
  <use
     height="1052.3622"
     transform="matrix(0.2305,0,0,0.2305,285.0206,326.7809)"
     width="744.09448"
     id="use209"
     style="opacity:0.87828997;fill:#fa6707"
     x="0"
     y="0" />
  <use
     height="1052.3622"
     transform="matrix(0.2305,0,0,0.2305,284.32576,331.58327)"
     width="744.09448"
     id="use211"
     style="opacity:0.87828997;fill:#fa6707"
     x="0"
     y="0" />
  <use
     height="1052.3622"
     transform="matrix(0.2305,0,0,0.2305,285.79703,330.11369)"
     width="744.09448"
     id="use213"
     style="opacity:0.87828997;fill:#fa6707"
     x="0"
     y="0" />
  <use
     height="1052.3622"
     transform="matrix(0.2305,0,0,0.2305,284.00524,327.13037)"
     width="744.09448"
     id="use215"
     style="opacity:0.87828997;fill:#fa6707"
     x="0"
     y="0" />
  <use
     height="1052.3622"
     transform="matrix(0.2305,0,0,0.2305,281.39121,330.26727)"
     width="744.09448"
     id="use217"
     style="opacity:0.87828997;fill:#fa6707"
     x="0"
     y="0" />
  <use
     height="1052.3622"
     transform="matrix(0.2305,0,0,0.2305,283.91811,334.33887)"
     width="744.09448"
     id="use219"
     style="opacity:0.87828997;fill:#fa6707"
     x="0"
     y="0" />
  <use
     height="1052.3622"
     transform="matrix(0.2305,0,0,0.2305,285.02219,331.15728)"
     width="744.09448"
     id="use221"
     style="opacity:0.87828997;fill:#fa6707"
     x="0"
     y="0" />
  <use
     height="1052.3622"
     transform="matrix(0.2305,0,0,0.2305,284.88805,334.68214)"
     width="744.09448"
     id="use223"
     style="opacity:0.87828997;fill:#fa6707"
     x="0"
     y="0" />
  <use
     height="1052.3622"
     transform="matrix(0.2305,0,0,0.2305,281.92144,332.8633)"
     width="744.09448"
     id="use225"
     style="opacity:0.87828997;fill:#fa6707"
     x="0"
     y="0" />
  <use
     height="1052.3622"
     transform="matrix(0.2305,0,0,0.2305,285.11539,334.80735)"
     width="744.09448"
     id="use227"
     style="opacity:0.87828997;fill:#fa6707"
     x="0"
     y="0" />
  <use
     height="1052.3622"
     transform="matrix(0.2305,0,0,0.2305,281.88236,335.41599)"
     width="744.09448"
     id="use229"
     style="opacity:0.87828997;fill:#fa6707"
     x="0"
     y="0" />
  <use
     height="1052.3622"
     transform="matrix(0.2305,0,0,0.2305,284.68,336.91594)"
     width="744.09448"
     id="use231"
     style="opacity:0.87828997;fill:#fa6707"
     x="0"
     y="0" />
  <path
     d="m 448.67438,249.96108 c -10.19311,-13.49203 -108.68637,-14.5496 -152.29703,-13.46888 -7.93337,0.19765 -13.37049,11.37522 -6.71881,15.71367 57.48491,37.4939 73.8109,55.85918 114.22273,103.26125 27.01154,-16.30229 71.44424,-70.22953 44.79311,-105.50604 z"
     id="path233"
     inkscape:connector-curvature="0"
     style="fill:url(#linearGradient10977);stroke:#fcc627;stroke-width:1.73711002" />
  <path
     d="m 391.08703,356.74832 c 7.3358,-15.24322 -70.59877,-116.17898 -110.74508,-99.07148 -66.44589,28.31475 -8.7081,-3.83909 -9.11786,4.10433 -3.22363,62.49205 -25.08369,86.69097 -12.46351,139.5716 34.85678,16.14731 120.4087,-19.84063 132.32645,-44.60445 z"
     id="path235"
     inkscape:connector-curvature="0"
     style="fill:url(#linearGradient10975);stroke:#fcc627;stroke-width:1.73711002" />
  <path
     d="m 148.73049,112.02226 c 11.35364,13.39052 58.10086,69.49844 91.35246,114.46685 5.42734,7.33986 16.20458,-5.30203 16.20458,-5.30203 3.22552,-31.43601 20.64652,-93.70103 2.55376,-150.83816 -33.08945,-10.81466 -127.99607,20.57969 -110.1108,41.67334 z"
     id="path237"
     inkscape:connector-curvature="0"
     style="fill:url(#linearGradient10973);stroke:#fcc627;stroke-width:1.83311999" />
  <path
     d="m 127.77399,342.57463 c 14.52868,6.57918 83.93648,-56.76567 118.70181,-79.56807 6.32433,-4.14806 5.16316,-14.53003 -1.88644,-16.98391 -55.45945,-19.30466 -166.165413,-33.88947 -164.436463,-23.37728 -6.97718,32.04252 9.63428,102.72672 47.621093,119.92926 z"
     id="path239"
     inkscape:connector-curvature="0"
     style="fill:url(#linearGradient10971);stroke:#fcc627;stroke-width:4.0078702" />
  <path
     d="m 407.72677,126.28649 c -16.66498,-5.45992 -74.8356,67.38359 -117.69555,93.39546 -7.79695,4.73203 0.91564,17.0607 0.91564,17.0607 29.46043,11.25904 95.5498,6.70989 155.29638,3.98164 18.98619,-29.23637 5.05597,-100.16214 -38.51647,-114.4378 z"
     id="path241"
     inkscape:connector-curvature="0"
     style="fill:url(#linearGradient10969);stroke:#fcc627;stroke-width:1.83312404" />
  <path
     d="m 269.87525,67.98976 c -15.64066,6.37632 -7.96498,89.31278 -2.53341,140.79297 0.83504,7.91014 6.33613,14.18794 13.40459,10.57187 55.60718,-28.44742 75.86733,-64.12122 115.24808,-101.51616 C 387.27479,87.46819 310.76959,51.31746 269.87525,67.98976 Z"
     id="path243"
     inkscape:connector-curvature="0"
     style="fill:url(#linearGradient10967);stroke:#fcc627;stroke-width:1.73711002" />
  <path
     d="m 245.72955,401.59204 c 15.63568,-7.95022 7.61828,-80.71368 19.57385,-129.48299 2.17493,-8.87206 -12.68338,-11.41495 -12.68338,-11.41495 -28.77496,12.91832 -83.49606,48.19091 -123.81834,92.46432 11.56447,22.4653 76.04625,69.22043 116.92787,48.43362 z"
     id="path245"
     inkscape:connector-curvature="0"
     style="fill:url(#linearGradient10965);stroke:#fcc627;stroke-width:1.83311999" />
  <path
     d="m -272.99455,884.05609 c 20.41539,24.30939 55.03444,70.00781 64.07093,64.4539 l 2.58156,-88.23404 c 3.40626,29.5188 -5.99504,97.4603 10.32624,88.23404 32.22335,-16.90279 44.17499,-38.87351 66.19859,-58.32624 l -62.32625,64.78014 88.36171,3.58156 -87.07093,1.58157 c 30.79313,16.05202 42.09711,39.89968 60.90781,60.74468 -22.59555,-20.0225 -44.1694,-59.6623 -72.52483,-54.29078 0.71654,-0.74033 -7.06886,87.10058 -4.90482,84.45458 3.71609,-4.5437 7.51181,-78.50682 -4.13064,-83.1638 l -60.52483,41.1986 c 19.50792,-18.03548 58.25381,-36.07095 57.94327,-54.10641 l -95.65621,-0.42218 93.91152,0.84062 z"
     transform="matrix(1.73512,0,0,1.73911,620.8111,-1424.2957)"
     id="path247"
     inkscape:connector-curvature="0"
     style="fill:#fcfcbe;stroke:#fcc627;stroke-width:1.20000005;filter:url(#filter7748-2)" />
  <path
     d="m 182.76504,289.19678 c -18.07934,10.36261 -27.36166,34.99167 -35.49646,61.48166 l 19.61049,-31.14715 z"
     transform="matrix(1.38644,0,0,0.7899,-1.0699556,42.12982)"
     id="path249"
     inkscape:connector-curvature="0"
     style="opacity:0.54145998;fill:#f44800;filter:url(#filter7408-1)" />
  <path
     d="m 182.76504,289.19678 c -18.07934,10.36261 -27.36166,34.99167 -35.49646,61.48166 l 19.61049,-31.14715 z"
     transform="matrix(1.3392,0.35966,-0.20397,0.76298,183.96682,-91.66715)"
     id="path251"
     inkscape:connector-curvature="0"
     style="opacity:0.54145998;fill:#f44800;filter:url(#filter8345-8)" />
  <path
     d="m 182.76504,289.19678 c -18.07934,10.36261 -27.36166,34.99167 -35.49646,61.48166 l 19.61049,-31.14715 z"
     transform="matrix(1.3392,-0.35966,0.20397,0.76298,31.054174,-13.37353)"
     id="path253"
     inkscape:connector-curvature="0"
     style="opacity:0.54145998;fill:#f44800;filter:url(#filter8341-3)" />
  <path
     d="m 182.76504,289.19678 c -18.07934,10.36261 -27.36166,34.99167 -35.49646,61.48166 l 19.61049,-31.14715 z"
     transform="matrix(0.69322,-1.20345,0.6825,0.39495,-87.213666,236.1483)"
     id="path255"
     inkscape:connector-curvature="0"
     style="opacity:0.54145998;fill:#f44800;filter:url(#filter8337-6)" />
  <path
     d="m 182.76504,289.19678 c -18.07934,10.36261 -27.36166,34.99167 -35.49646,61.48166 l 19.61049,-31.14715 z"
     transform="matrix(0,-0.73063,0.75942,0,-76.963866,300.00421)"
     id="path257"
     inkscape:connector-curvature="0"
     style="opacity:0.54145998;fill:#f44800;filter:url(#filter8333-5)" />
  <path
     d="m 182.76504,289.19678 c -18.07934,10.36261 -27.36166,34.99167 -35.49646,61.48166 l 19.61049,-31.14715 z"
     transform="matrix(-0.36448,-0.63275,0.65768,-0.38058,9.0134344,479.69306)"
     id="path259"
     inkscape:connector-curvature="0"
     style="opacity:0.54145998;fill:#f44800;filter:url(#filter8329-9)" />
  <path
     d="m 182.76504,289.19678 c -18.07934,10.36261 -27.36166,34.99167 -35.49646,61.48166 l 19.61049,-31.14715 z"
     transform="matrix(-0.63129,-0.36532,0.37971,-0.65919,161.52603,549.47235)"
     id="path261"
     inkscape:connector-curvature="0"
     style="opacity:0.54145998;fill:#f44800;filter:url(#filter8075-67)" />
  <path
     d="m 182.76504,289.19678 c -18.07934,10.36261 -27.36166,34.99167 -35.49646,61.48166 l 19.61049,-31.14715 z"
     transform="matrix(-1.07637,0.44839,-1.12136,-0.46713,865.91001,393.01737)"
     id="path263"
     inkscape:connector-curvature="0"
     style="opacity:0.54145998;fill:#f44800;filter:url(#filter7408-1)" />
  <path
     d="m 182.76504,289.19678 c -18.07934,10.36261 -27.36166,34.99167 -35.49646,61.48166 l 19.61049,-31.14715 z"
     transform="matrix(-0.51545,0.51663,-0.53699,-0.53823,558.94259,408.37538)"
     id="path265"
     inkscape:connector-curvature="0"
     style="opacity:0.54145998;fill:#f44800;filter:url(#filter7408-1)" />
  <path
     d="m 182.76504,289.19678 c -18.07934,10.36261 -27.36166,34.99167 -35.49646,61.48166 l 19.61049,-31.14715 z"
     transform="matrix(-2.57976,0.51663,-2.68758,-0.53823,1655.1882,370.21349)"
     id="path267"
     inkscape:connector-curvature="0"
     style="opacity:0.54145998;fill:#f44800;filter:url(#filter7408-1)" />
  <path
     d="m -234.92199,165.69504 a 5.80851,14.84397 0 1 1 -11.61702,0 5.80851,14.84397 0 1 1 11.61702,0 z"
     transform="matrix(-0.07206,0.51612,-0.64479,0.83669,296.31243,325.70887)"
     id="path269"
     inkscape:connector-curvature="0"
     style="fill:#ffffff;filter:url(#filter8397-8)" />
  <path
     d="M -204,241.99711 -208,184 -207,155.99711 -207,154 Z"
     transform="matrix(1.73512,0,0,1.74415,620.8111,-203.58704)"
     id="path271"
     inkscape:connector-curvature="0"
     style="opacity:0.71219997;fill:url(#radialGradient10963);stroke:#fcc627;stroke-width:0.99855;filter:url(#filter7732-0)" />
  <path
     d="m -213,245 6,7 -9,11 10,-9 17,4 z"
     transform="matrix(1.73512,0,0,1.73911,620.8111,-202.81006)"
     id="path273"
     inkscape:connector-curvature="0"
     style="opacity:0.23415001;fill:#ce5902;filter:url(#filter8325-3)" />
  <path
     d="m -234.92199,165.69504 a 5.80851,14.84397 0 1 1 -11.61702,0 5.80851,14.84397 0 1 1 11.61702,0 z"
     transform="matrix(0.46543,0.1873,0.45478,0.57135,357.1597,303.55978)"
     id="path275"
     inkscape:connector-curvature="0"
     style="fill:#ffffff;filter:url(#filter8425-1)" />
  <path
     d="m -233,193 a 10,17 0 0 1 -10.88242,16.93368 L -243,193 Z"
     transform="matrix(1.16381,1.56725,0.2198,1.16649,468.18971,268.54896)"
     id="path277"
     inkscape:connector-curvature="0"
     style="opacity:0.07317002;fill:#b65454;filter:url(#filter8321-8)" />
  <path
     d="m -62.61903,1075.7183 6.92854,44.5634"
     transform="matrix(1.676,-0.45011,0.44908,1.67985,-177.19482,-1738.4531)"
     id="path279"
     inkscape:connector-curvature="0"
     style="fill:none;stroke:#fcc627;stroke-width:0.52388;filter:url(#filter7930-20)" />
  <path
     d="m -41.7415,1071.9861 c 0.92381,2.3767 -7.02044,56.6141 -7.02044,56.6141"
     transform="matrix(1.676,-0.45011,0.44908,1.67985,-177.19482,-1738.4531)"
     id="path281"
     inkscape:connector-curvature="0"
     style="fill:none;stroke:#fcc627;stroke-width:0.52388;filter:url(#filter7926-0)" />
  <path
     d="m -67.23806,1087.6019 c 11.55117,23.2717 12.08023,36.7695 15.25286,52.6114"
     transform="matrix(1.676,-0.45011,0.44908,1.67985,-204.95675,-1762.8006)"
     id="path283"
     inkscape:connector-curvature="0"
     style="fill:none;stroke:#fcc627;stroke-width:0.52388;filter:url(#filter7922-8)" />
  <path
     d="m -15,397 a 21,24 0 1 1 -42,0 21,24 0 1 1 42,0 z"
     transform="matrix(0.15228,0.09746,-0.57369,1.09092,545.54775,-279.68128)"
     id="path285"
     inkscape:connector-curvature="0"
     style="opacity:0.51219997;fill:#f44800;filter:url(#filter7966-0)" />
  <path
     d="m -15,397 a 21,24 0 1 1 -42,0 21,24 0 1 1 42,0 z"
     transform="matrix(0.08607,0.04095,-0.13575,0.89969,345.92586,-216.46765)"
     id="path287"
     inkscape:connector-curvature="0"
     style="opacity:0.51219997;fill:#f44800;filter:url(#filter7966-0)" />
  <path
     d="m -15,397 a 21,24 0 1 1 -42,0 21,24 0 1 1 42,0 z"
     transform="matrix(0.12111,0.0712,-0.19103,1.56413,366.39139,-456.44054)"
     id="path289"
     inkscape:connector-curvature="0"
     style="opacity:0.51219997;fill:#f44800;filter:url(#filter7966-0)" />
  <path
     d="m -15,397 a 21,24 0 1 1 -42,0 21,24 0 1 1 42,0 z"
     transform="matrix(0.0892,0.15485,-0.90944,0.52627,769.68224,-24.06663)"
     id="path291"
     inkscape:connector-curvature="0"
     style="opacity:0.51219997;fill:#f44800;filter:url(#filter8309-2)" />
  <path
     d="m -15,397 a 21,24 0 1 1 -42,0 21,24 0 1 1 42,0 z"
     transform="matrix(0.0892,0.15485,-0.90944,0.52627,739.87165,-29.39998)"
     id="path293"
     inkscape:connector-curvature="0"
     style="opacity:0.51219997;fill:#f44800;filter:url(#filter8309-2)" />
  <path
     d="m -15,397 a 21,24 0 1 1 -42,0 21,24 0 1 1 42,0 z"
     transform="matrix(0.0892,0.15485,-0.90944,0.52627,740.97838,2.4475594)"
     id="path295"
     inkscape:connector-curvature="0"
     style="opacity:0.51219997;fill:#f44800;filter:url(#filter8309-2)" />
  <path
     d="m -15,397 a 21,24 0 1 1 -42,0 21,24 0 1 1 42,0 z"
     transform="matrix(0.17232,-0.04628,-0.27179,-1.01668,405.72024,696.46899)"
     id="path297"
     inkscape:connector-curvature="0"
     style="opacity:0.51219997;fill:#f44800;filter:url(#filter8417-9)" />
  <path
     d="m -15,397 a 21,24 0 1 1 -42,0 21,24 0 1 1 42,0 z"
     transform="matrix(0.04142,-0.03967,-0.06533,-0.87157,307.92903,679.00573)"
     id="path299"
     inkscape:connector-curvature="0"
     style="opacity:0.51219997;fill:#f44800;filter:url(#filter8417-9)" />
  <path
     d="m -15,397 a 21,24 0 1 1 -42,0 21,24 0 1 1 42,0 z"
     transform="matrix(0.17232,-0.04628,-0.27179,-1.01668,413.16434,752.89623)"
     id="path301"
     inkscape:connector-curvature="0"
     style="opacity:0.51219997;fill:#f44800;filter:url(#filter7966-0)" />
  <path
     d="m -15,397 a 21,24 0 1 1 -42,0 21,24 0 1 1 42,0 z"
     transform="matrix(-0.15449,-0.0894,-0.52507,0.91153,427.08553,-32.99492)"
     id="path303"
     inkscape:connector-curvature="0"
     style="opacity:0.51219997;fill:#f44800;filter:url(#filter7966-0)" />
  <path
     d="m -15,397 a 21,24 0 1 1 -42,0 21,24 0 1 1 42,0 z"
     transform="matrix(-0.09643,-0.09099,-0.32771,0.92773,345.21464,-2.4879606)"
     id="path305"
     inkscape:connector-curvature="0"
     style="opacity:0.51219997;fill:#f44800;filter:url(#filter8389-0)" />
  <path
     d="m -15,397 a 21,24 0 1 1 -42,0 21,24 0 1 1 42,0 z"
     transform="matrix(-0.15449,-0.0894,-0.52507,0.91153,383.85204,-2.9342006)"
     id="path307"
     inkscape:connector-curvature="0"
     style="opacity:0.51219997;fill:#f44800;filter:url(#filter8389-0)" />
  <path
     d="m -15,397 a 21,24 0 1 1 -42,0 21,24 0 1 1 42,0 z"
     transform="matrix(-0.11857,-0.1027,-0.40298,1.04708,391.65439,-86.78286)"
     id="path309"
     inkscape:connector-curvature="0"
     style="opacity:0.51219997;fill:#f44800;filter:url(#filter8117-7)" />
  <path
     d="m -15,397 a 21,24 0 1 1 -42,0 21,24 0 1 1 42,0 z"
     transform="matrix(-0.17644,-0.13852,-1.0386,0.8154,576.82247,19.12826)"
     id="path311"
     inkscape:connector-curvature="0"
     style="opacity:0.18048999;fill:#f44800;filter:url(#filter8385-1)" />
  <path
     d="m -15,397 a 21,24 0 1 1 -42,0 21,24 0 1 1 42,0 z"
     transform="matrix(-0.04617,-0.16741,-1.01435,0.38891,607.99,105.32581)"
     id="path313"
     inkscape:connector-curvature="0"
     style="opacity:0.51219997;fill:#f44800;filter:url(#filter8063-3)" />
  <path
     d="m -15,397 a 21,24 0 1 1 -42,0 21,24 0 1 1 42,0 z"
     transform="matrix(-0.05587,-0.09304,-1.22746,0.21615,618.01806,182.77654)"
     id="path315"
     inkscape:connector-curvature="0"
     style="opacity:0.51219997;fill:#f44800;filter:url(#filter8063-3)" />
  <path
     d="m -15,397 a 21,24 0 1 1 -42,0 21,24 0 1 1 42,0 z"
     transform="matrix(-0.00137,0.08508,-1.08021,-0.05512,549.90058,282.64081)"
     id="path317"
     inkscape:connector-curvature="0"
     style="opacity:0.51219997;fill:#f44800;filter:url(#filter8063-3)" />
  <path
     d="m -231.23062,956.28419 c -2.86562,-1.58485 -75.85625,-26.44238 -75.85625,-26.44238 0,0 57.89468,15.81925 50.06566,12.17871 -7.82902,-3.64054 -43.41596,-15.39459 -43.41596,-15.39459 0,0 71.73599,21.7509 58.94357,16.05467 -12.79242,-5.69623 -43.19004,-26.64399 -43.19004,-26.64399 l 43.26535,22.89419 -20.93744,-32.9496 z"
     transform="matrix(1.73512,0,0,1.73911,620.8111,-1424.2957)"
     id="path319"
     inkscape:connector-curvature="0"
     style="opacity:0.04390001;fill:#980101;filter:url(#filter8305-5)" />
  <path
     d="m -220.47182,931.10391 c -1.41421,-2.82842 -45.96194,-60.10408 -45.96194,-60.10408 0,0 37.47665,41.71931 33.23402,34.64823 -4.24263,-7.07108 -26.16295,-34.64823 -26.16295,-34.64823 0,0 45.25483,53.74013 38.18377,42.42641 -7.07106,-11.31372 -19.79899,-45.25483 -19.79899,-45.25483 l 21.92031,41.71929 1.41421,-41.01219 z"
     transform="matrix(1.73512,0,0,1.73911,620.8111,-1424.2957)"
     id="path321"
     inkscape:connector-curvature="0"
     style="opacity:0.09268003;fill:#d40000;filter:url(#filter8006-2)" />
  <path
     d="m -216.85925,1011.5588 c -1.41421,-2.8284 -45.96194,-60.10411 -45.96194,-60.10411 0,0 37.47665,41.71927 33.23402,34.64827 -4.24263,-7.071 -26.16295,-34.64827 -26.16295,-34.64827 0,0 45.25483,53.74021 38.18377,42.42637 -7.07106,-11.31384 -19.79899,-45.25479 -19.79899,-45.25479 l 21.92031,41.71929 1.41421,-41.01219 z"
     transform="matrix(0,-1.73911,1.73512,0,-1504.5093,-131.09949)"
     id="path323"
     inkscape:connector-curvature="0"
     style="opacity:0.26829002;fill:url(#linearGradient10961);filter:url(#filter8006-2)" />
  <path
     d="m -225.62303,902.2939 1.04582,-3.6588 2.9603,0.8858 z"
     transform="matrix(1.73512,0,0,1.73911,620.8111,-1424.2957)"
     id="path325"
     inkscape:connector-curvature="0"
     style="fill:#ffffff;stroke:#feffff;stroke-width:0.18125001;filter:url(#filter8301-0)" />
  <path
     d="m -168.49316,904.91521 2.54435,-8.90142 7.20203,2.15504 z"
     transform="matrix(1.73512,0,0,1.73911,620.8111,-1424.2957)"
     id="path327"
     inkscape:connector-curvature="0"
     style="fill:#ffffff;stroke:#feffff;stroke-width:0.44095999;filter:url(#filter8297-3)" />
  <path
     d="m -149.35899,968.32872 8.90142,2.54434 -2.15505,7.20204 z"
     transform="matrix(1.73512,0,0,1.73911,610.48486,-1346.8489)"
     id="path329"
     inkscape:connector-curvature="0"
     style="fill:#ffffff;stroke:#feffff;stroke-width:0.44095999;filter:url(#filter8293-7)" />
  <path
     d="m -246.67525,977.74894 -17.56485,-0.0514 -7.7451,0.0757 z"
     transform="matrix(1.73512,0,0,1.73911,620.8111,-1424.2957)"
     id="path331"
     inkscape:connector-curvature="0"
     style="fill:#ffffff;stroke:#feffff;stroke-width:0.06948;filter:url(#filter8059-5)" />
  <path
     d="m 2,427 a 3.5,7 0 1 1 -7,0 3.5,7 0 1 1 7,0 z"
     transform="matrix(5.45359,3.15587,-2.45595,4.26362,1474.6744,-1521.2551)"
     id="path333"
     inkscape:connector-curvature="0"
     style="opacity:0.19024;fill:url(#linearGradient4483);filter:url(#filter8101-85)" />
  <path
     d="m 2,427 a 3.5,7 0 1 1 -7,0 3.5,7 0 1 1 7,0 z"
     transform="matrix(5.63776,3.81453,-2.5389,5.15348,1216.6246,-2031.1271)"
     id="path335"
     inkscape:connector-curvature="0"
     style="opacity:0.64389996;fill:url(#linearGradient4485);filter:url(#filter8289-3)" />
  <path
     d="m 237.74794,383.58601 -1.7713,0.23206 -1.86548,-0.0933 -1.53229,-0.39736 -0.84809,-0.61035 0.0304,-0.6835 0.90194,-0.60009 1.56685,-0.37919 1.87281,-0.0714 1.74973,0.2527 1.22581,0.51893 0.42107,0.66629 -0.48013,0.661 z"
     id="path337"
     inkscape:connector-curvature="0"
     style="fill:#ffffff" />
  <path
     d="m 130,533.79075 c -8.57143,2.85714 -62.85714,30 -62.85714,30 0,0 184.28571,17.14286 190,17.14286 5.71429,0 141.42857,-35.71429 141.42857,-35.71429 0,0 -24.28572,-17.14285 -34.28572,-17.14285 -10,0 -120,-17.14286 -120,-17.14286 z"
     transform="matrix(0.92786151,0,0,0.21178,39.358136,344.25218)"
     id="path339"
     inkscape:connector-curvature="0"
     style="filter:url(#filter12350)" />
  <path
     d="m -15,397 a 21,24 0 1 1 -42,0 21,24 0 1 1 42,0 z"
     transform="matrix(-0.07805,-0.07541,-1.12969,0.52648,587.44091,78.28284)"
     id="path341"
     inkscape:connector-curvature="0"
     style="opacity:0.51219997;fill:#f44800;filter:url(#filter8063-3)" />
  <path
     d="m 2,427 a 3.5,7 0 1 1 -7,0 3.5,7 0 1 1 7,0 z"
     transform="matrix(6.0878,-1.62473,1.27821,4.75145,-114.98996,-1841.2856)"
     id="path343"
     inkscape:connector-curvature="0"
     style="opacity:0.19024;fill:url(#linearGradient4487);filter:url(#filter8101-85)" />
  <path
     d="m 2,427 a 3.5,7 0 1 1 -7,0 3.5,7 0 1 1 7,0 z"
     transform="matrix(1.63684,-6.08456,4.75398,1.26876,-1697.4672,-439.60455)"
     id="path345"
     inkscape:connector-curvature="0"
     style="opacity:0.19024;fill:url(#linearGradient4489);filter:url(#filter8101-85)" />
  <path
     d="m 2,427 a 3.5,7 0 1 1 -7,0 3.5,7 0 1 1 7,0 z"
     transform="matrix(1.63684,-6.08456,4.75398,1.26876,-1829.1268,-184.03008)"
     id="path347"
     inkscape:connector-curvature="0"
     style="opacity:0.19024;fill:url(#linearGradient4491);filter:url(#filter8101-85)" />
  <path
     d="m 2,427 a 3.5,7 0 1 1 -7,0 3.5,7 0 1 1 7,0 z"
     transform="matrix(6.02186,-3.70627,2.7181,5.01874,-1028.7352,-1864.3132)"
     id="path349"
     inkscape:connector-curvature="0"
     style="opacity:0.19024;fill:url(#linearGradient10959);filter:url(#filter8101-85)" />
  <path
     d="m 2,427 a 3.5,7 0 1 1 -7,0 3.5,7 0 1 1 7,0 z"
     transform="matrix(-0.4846,6.78971,-5.73249,0.37799,2655.0067,-53.36072)"
     id="path351"
     inkscape:connector-curvature="0"
     style="opacity:0.64389996;fill:url(#linearGradient10957);filter:url(#filter8289-3)" />
</svg>
