<?xml version="1.0" encoding="UTF-8" standalone="no"?>
<svg viewBox="0 0 48 48" xmlns="http://www.w3.org/2000/svg" xmlns:xlink="http://www.w3.org/1999/xlink">
<defs>
<linearGradient id="linearGradient5060">
<stop offset="0"/>
<stop offset="1" stop-opacity="0"/>
</linearGradient>
<linearGradient gradientUnits="userSpaceOnUse" id="linearGradient5027" x2="0" y1="-150.69685" y2="327.66039">
<stop offset="0" stop-opacity="0"/>
<stop offset=".5"/>
<stop offset="1" stop-opacity="0"/>
</linearGradient>
<linearGradient id="linearGradient11594">
<stop offset="0" stop-color="#fff"/>
<stop offset="1" stop-color="#d1d1d1"/>
</linearGradient>
<linearGradient id="linearGradient11520">
<stop offset="0" stop-color="#fbfbfb"/>
<stop offset="1" stop-color="#dcdcdc"/>
</linearGradient>
<linearGradient gradientUnits="userSpaceOnUse" id="linearGradient7596" x2="0" y1="31.59765" y2="12.92525">
<stop offset="0" stop-color="#fff"/>
<stop offset=".46023" stop-color="#e3e3e3"/>
<stop offset=".61971" stop-color="#dadada" stop-opacity=".67059"/>
<stop offset="1" stop-color="#d1d1d1" stop-opacity=".34286"/>
</linearGradient>
<linearGradient gradientUnits="userSpaceOnUse" id="linearGradient11600" x1="19.84849" x2="32.08568" xlink:href="#linearGradient11594" y1="9.98589" y2="38.72241"/>
<linearGradient gradientUnits="userSpaceOnUse" id="linearGradient11608" x2="0" xlink:href="#linearGradient11520" y1="1.89302" y2="39.20135"/>
<linearGradient gradientTransform="matrix(.47633,0,0,.62772,12.75490,9.15693)" gradientUnits="userSpaceOnUse" id="linearGradient7584" x1="31.59717" x2="24.44569" xlink:href="#linearGradient11594" y1="33.44781" y2="21.06741"/>
<linearGradient gradientUnits="userSpaceOnUse" id="linearGradient7642" x1="25.27907" x2="28.28427" xlink:href="#linearGradient5060" y1="28.55456" y2="38.45406"/>
<radialGradient cx="24.39909" cy="29.09953" gradientTransform="matrix(2.40788,2.776254e-16,-5.900875e-16,1.86105,-34.35094,-20.55775)" gradientUnits="userSpaceOnUse" id="radialGradient7592" r="6.027">
<stop offset="0" stop-color="#525252"/>
<stop offset="1"/>
</radialGradient>
<radialGradient cx="24.48357" cy="29.60956" gradientTransform="matrix(2.77712,-8.126449e-2,6.891211e-2,2.22301,-45.28558,-33.24798)" gradientUnits="userSpaceOnUse" id="radialGradient7647" r="4.47748">
<stop offset="0" stop-color="#fff"/>
<stop offset=".21591" stop-color="#fff"/>
<stop offset=".5" stop-color="#838383"/>
<stop offset="1" stop-color="#838383" stop-opacity="0"/>
</radialGradient>
<radialGradient cx="605.71429" cy="486.64789" gradientTransform="matrix(-2.77439,0,0,1.96971,112.7623,-872.8854)" gradientUnits="userSpaceOnUse" id="radialGradient5031" r="117.14286" xlink:href="#linearGradient5060"/>
<radialGradient cx="605.71429" cy="486.64789" gradientTransform="matrix(2.77439,0,0,1.96971,-1891.633,-872.8854)" gradientUnits="userSpaceOnUse" id="radialGradient5029" r="117.14286" xlink:href="#linearGradient5060"/>
<radialGradient cx="24.44569" cy="35.87817" gradientTransform="matrix(1.99506,-1.535926e-32,0,1.85541,-24.37145,-30.20430)" gradientUnits="userSpaceOnUse" id="radialGradient11526" r="20.53096" xlink:href="#linearGradient11520"/>
</defs>
<g transform="matrix(2.312904e-2,0,0,1.818338e-2,45.14375,40.29231)">
<path d="m-1559.2523-150.69685h1339.6335v478.35718h-1339.6335z" fill="url(#linearGradient5027)" opacity=".40206"/>
<path d="m-219.61876-150.68038v478.33079c142.87417.90045 345.40022-107.16966 345.40014-239.19618s-159.43682-239.13459-345.40014-239.13462z" fill="url(#radialGradient5029)" opacity=".40206"/>
<path d="m-1559.2523-150.68038v478.33079c-142.8742.90045-345.4002-107.16966-345.4002-239.19618s159.4368-239.13459 345.4002-239.13462z" fill="url(#radialGradient5031)" opacity=".40206"/>
</g>
<path d="m9.82298,3.61719h29.15228a5.45482,5.45482 0 0,1 5.45482,5.45482v29.00524a5.45482,5.45482 0 0,1 -5.45482,5.45482h-29.15228a5.45482,5.45482 0 0,1 -5.45482-5.45482v-29.00524a5.45482,5.45482 0 0,1 5.45482-5.45482" fill="url(#radialGradient11526)" fill-rule="evenodd" stroke="#9b9b9b" stroke-linejoin="bevel" stroke-miterlimit="10"/>
<path d="m9.79346,4.65064h29.21131a4.24264,4.24264 0 0,1 4.24264,4.24264v29.29626a4.24264,4.24264 0 0,1 -4.24264,4.24264h-29.21131a4.24264,4.24264 0 0,1 -4.24264-4.24264v-29.29626a4.24264,4.24264 0 0,1 4.24264-4.24264" fill="none" stroke="#fff" stroke-linejoin="bevel" stroke-miterlimit="10"/>
<path d="m14.56802,7.52207h19.66218a2.2981,2.2981 0 0,1 2.2981,2.2981v28.11011a2.2981,2.2981 0 0,1 -2.2981,2.29809h-19.66218a2.2981,2.2981 0 0,1 -2.2981-2.29809v-28.11011a2.2981,2.2981 0 0,1 2.2981-2.2981" fill="url(#linearGradient11608)" fill-rule="evenodd" stroke="url(#linearGradient11600)" stroke-linejoin="bevel" stroke-miterlimit="10"/>
<path d="m20.10952,13.86577h8.93268a1.59099,1.59099 0 0,1 1.59099,1.59099v17.7208a1.59099,1.59099 0 0,1 -1.59099,1.59099h-8.93268a1.59099,1.59099 0 0,1 -1.59099-1.59099v-17.7208a1.59099,1.59099 0 0,1 1.59099-1.59099" fill="url(#radialGradient7592)" fill-rule="evenodd" stroke="url(#linearGradient7584)" stroke-linejoin="bevel" stroke-miterlimit="10"/>
<path d="m19.97577,34.03464 2.65165,2.65165 11.13693-.17678-2.82843-9.36917-.70711-9.36917-.70711,15.9099-9.54594.35355z" fill="url(#linearGradient7642)" fill-rule="evenodd" opacity=".31551"/>
<path d="m21.08062,29.21788h6.85011a1.06065,1.06065 0 0,1 1.06065,1.06065v2.19419a1.06065,1.06065 0 0,1 -1.06065,1.06065h-6.85011a1.06065,1.06065 0 0,1 -1.06065-1.06065v-2.19419a1.06065,1.06065 0 0,1 1.06065-1.06065" fill="#8a8a8a" fill-rule="evenodd" stroke="#595959" stroke-linejoin="bevel" stroke-miterlimit="10"/>
<path d="m20.93345,15.23061h7.14444a.88388,.88388 0 0,1 .88388.88388v14.04464a.88388,.88388 0 0,1 -.88388.88388h-7.14444a.88388,.88388 0 0,1 -.88388-.88388v-14.04464a.88388,.88388 0 0,1 .88388-.88388" fill="url(#linearGradient7596)" fill-rule="evenodd" stroke="url(#radialGradient7647)" stroke-linejoin="bevel" stroke-miterlimit="10"/>
</svg>
