<?xml version="1.0" encoding="UTF-8" standalone="no"?>
<!-- Created with Inkscape (http://www.inkscape.org/) -->

<svg
   xmlns:dc="http://purl.org/dc/elements/1.1/"
   xmlns:cc="http://creativecommons.org/ns#"
   xmlns:rdf="http://www.w3.org/1999/02/22-rdf-syntax-ns#"
   xmlns:svg="http://www.w3.org/2000/svg"
   xmlns="http://www.w3.org/2000/svg"
   xmlns:xlink="http://www.w3.org/1999/xlink"
   xmlns:sodipodi="http://sodipodi.sourceforge.net/DTD/sodipodi-0.dtd"
   xmlns:inkscape="http://www.inkscape.org/namespaces/inkscape"
   width="85.466995mm"
   height="85.46701mm"
   viewBox="0 0 85.466997 85.467015"
   version="1.1"
   id="svg8"
   inkscape:version="0.92.5 (2060ec1f9f, 2020-04-08)"
   sodipodi:docname="ThermalTune.svg">
  <defs
     id="defs2">
    <clipPath
       id="k">
      <path
         id="path815"
         d="m 1217.1,377.98 c -9.7188,0 -17.562,7.8124 -17.562,17.531 v 102.56 c 0,0.0319 -2e-4,0.0619 0,0.0937 -9.43,5.8738 -15.719,16.322 -15.719,28.25 0,18.376 14.905,33.281 33.281,33.281 18.376,0 33.281,-14.905 33.281,-33.281 0,-11.937 -6.3074,-22.379 -15.75,-28.25 10e-5,-0.0318 0,-0.0619 0,-0.0937 v -102.56 c 0,-9.7188 -7.8125,-17.531 -17.531,-17.531 z"
         inkscape:connector-curvature="0"
         style="fill:none;stroke:#000000;stroke-width:3" />
    </clipPath>
    <filter
       height="1.0357"
       width="1.2548"
       y="-0.017844999"
       x="-0.12738"
       id="o"
       style="color-interpolation-filters:sRGB">
      <feGaussianBlur
         id="feGaussianBlur818"
         stdDeviation="0.839544" />
    </filter>
    <filter
       id="q"
       style="color-interpolation-filters:sRGB">
      <feGaussianBlur
         id="feGaussianBlur821"
         stdDeviation="10.350888" />
    </filter>
    <filter
       id="l"
       style="color-interpolation-filters:sRGB">
      <feGaussianBlur
         id="feGaussianBlur824"
         stdDeviation="1.47038" />
    </filter>
    <filter
       height="1.415"
       width="1.383"
       y="-0.20748"
       x="-0.19152001"
       id="p"
       style="color-interpolation-filters:sRGB">
      <feGaussianBlur
         id="feGaussianBlur827"
         stdDeviation="1.6598" />
    </filter>
    <filter
       id="n"
       style="color-interpolation-filters:sRGB">
      <feGaussianBlur
         id="feGaussianBlur830"
         stdDeviation="2.159783" />
    </filter>
    <filter
       id="m"
       style="color-interpolation-filters:sRGB">
      <feGaussianBlur
         id="feGaussianBlur833"
         stdDeviation="1.117021" />
    </filter>
    <linearGradient
       y2="184.75224"
       y1="158.09328"
       x2="2955.7026"
       x1="2955.7026"
       id="s"
       gradientTransform="scale(0.41199654,2.4272048)"
       gradientUnits="userSpaceOnUse">
      <stop
         id="stop836"
         offset="0"
         stop-color="#fff" />
      <stop
         id="stop838"
         offset="1"
         stop-opacity="0"
         stop-color="#fff" />
    </linearGradient>
    <linearGradient
       y2="703.66437"
       y1="662.22253"
       x2="924.33057"
       x1="923.63257"
       id="r"
       gradientTransform="scale(1.3183372,0.75853125)"
       gradientUnits="userSpaceOnUse">
      <stop
         id="stop841"
         offset="0"
         stop-color="#fff" />
      <stop
         id="stop843"
         offset="1"
         stop-opacity="0"
         stop-color="#fff" />
    </linearGradient>
    <linearGradient
       y2="279.09058"
       y1="222.79871"
       x2="2166.3872"
       x1="2166.3872"
       id="t"
       gradientTransform="scale(0.56017585,1.7851537)"
       gradientUnits="userSpaceOnUse">
      <stop
         id="stop846"
         offset="0"
         stop-opacity=".425" />
      <stop
         id="stop848"
         offset="1"
         stop-opacity="0" />
    </linearGradient>
    <clipPath
       clipPathUnits="userSpaceOnUse"
       id="clipPath4802">
      <rect
         style="opacity:1;fill:#008000;fill-opacity:1;stroke:#550000;stroke-width:0.29491231;stroke-opacity:1"
         id="rect4804"
         width="152.63251"
         height="152.18524"
         x="159.87956"
         y="-19.24427"
         transform="rotate(45)" />
    </clipPath>
    <clipPath
       clipPathUnits="userSpaceOnUse"
       id="clipPath4806">
      <rect
         style="opacity:1;fill:#008000;fill-opacity:1;stroke:#550000;stroke-width:1.11462915;stroke-opacity:1"
         id="rect4808"
         width="576.87878"
         height="575.18829"
         x="102.09948"
         y="-124.00622"
         transform="rotate(45)" />
    </clipPath>
    <clipPath
       clipPathUnits="userSpaceOnUse"
       id="clipPath4810">
      <rect
         style="opacity:1;fill:#008000;fill-opacity:1;stroke:#550000;stroke-width:0.29060856;stroke-opacity:1"
         id="rect4812"
         width="150.40511"
         height="149.96436"
         x="1144.399"
         y="396.73474" />
    </clipPath>
    <clipPath
       id="clipPath905"
       clipPathUnits="userSpaceOnUse">
      <path
         style="fill:#000000;stroke-width:0.18480755"
         d="m 103.25028,189.10311 c -1.52449,-0.47576 -2.79025,-1.65731 -3.368752,-3.14469 -0.626502,-1.61073 -0.0886,-4.09638 1.174682,-5.42825 0.62661,-0.6606 2.19186,-1.49719 2.80698,-1.5002 0.22837,-0.001 1.60034,-1.233 3.62252,-3.25281 l 3.25479,-3.25101 -0.26771,-0.76857 c -0.38709,-1.11109 -0.50528,-3.42218 -0.24441,-4.77922 0.12297,-0.64017 0.52461,-1.78766 0.89235,-2.55 0.6257,-1.29711 1.12002,-1.8407 7.70259,-8.4704 3.87152,-3.89924 7.40785,-7.30558 7.86559,-7.57642 1.77132,-1.04819 4.24571,-0.42818 5.24146,1.31331 0.59007,1.032 0.73138,1.94569 0.4689,3.03142 -0.20203,0.83567 -0.64804,1.32572 -7.20231,7.91352 -4.01432,4.03486 -7.07553,7.25776 -7.19514,7.5752 -0.58701,1.55787 1.0076,3.24219 2.52942,2.67171 0.28643,-0.10731 3.68126,-3.33851 7.54373,-7.18024 6.43993,-6.40529 7.09561,-7.00456 7.9013,-7.22152 2.55661,-0.68845 4.96733,1.07546 4.99162,3.65227 0.008,0.63032 -0.11571,1.3274 -0.29979,1.71472 -0.17682,0.37273 -3.45754,3.78979 -7.65268,7.97069 -6.2688,6.24745 -7.51172,7.40223 -8.49618,7.89385 -2.24975,1.12347 -4.74721,1.39835 -7.10852,0.78235 l -1.23899,-0.32308 -3.05189,3.0598 c -2.88042,2.88787 -3.06331,3.11357 -3.25518,4.01736 -0.62696,2.95298 -3.7201,4.75359 -6.61434,3.85037 z m 3.03822,-3.28962 c 1.30586,-1.19675 0.92209,-3.17692 -0.73817,-3.80881 -0.97487,-0.37121 -2.04853,-0.008 -2.66579,0.90445 -1.00309,1.48076 0.0982,3.51131 1.90456,3.51131 0.68852,0 0.95459,-0.1077 1.4994,-0.60695 z m 5.99075,-7.80177 c 2.22455,-2.21065 3.18819,-3.04934 3.50371,-3.04934 0.23945,0 0.97831,0.2173 1.64212,0.48283 1.05732,0.42299 1.40561,0.47337 2.81004,0.40619 2.84177,-0.13596 2.89291,-0.17453 10.93528,-8.23263 4.25403,-4.26243 6.97646,-7.12662 6.97646,-7.33968 0,-0.1921 -0.13749,-0.50151 -0.3059,-0.68738 -0.73951,-0.81714 -0.88765,-0.69799 -8.27984,6.66094 -7.82919,7.79394 -7.72612,7.71542 -9.93325,7.56652 -2.74367,-0.18522 -4.60087,-2.13537 -4.61653,-4.84788 -0.0115,-2.14866 0.0554,-2.23562 7.71241,-9.90557 4.2543,-4.26143 6.92189,-7.0691 6.92189,-7.28533 0,-0.48463 -0.53073,-1.0278 -1.0042,-1.0278 -0.27077,0 -2.63391,2.25021 -7.61782,7.25371 -6.72563,6.75202 -7.25245,7.32765 -7.61797,8.32326 -0.57815,1.57479 -0.54363,3.66468 0.0867,5.23986 0.27994,0.69967 0.43537,1.37254 0.37388,1.61783 -0.058,0.23105 -1.47962,1.78151 -3.15925,3.4457 l -3.05384,3.02577 0.68467,0.70117 c 0.37655,0.38564 0.72705,0.70116 0.77888,0.70116 0.0519,0 1.47508,-1.3722 3.16272,-3.04933 z"
         id="path907"
         inkscape:connector-curvature="0" />
    </clipPath>
    <filter
       id="filter6126">
      <feGaussianBlur
         stdDeviation=".53036"
         id="feGaussianBlur7" />
    </filter>
    <filter
       id="filter11428">
      <feGaussianBlur
         stdDeviation="1.24347"
         id="feGaussianBlur10" />
    </filter>
    <linearGradient
       id="linearGradient4156">
      <stop
         offset="0"
         stop-color="#fff"
         id="stop13" />
      <stop
         offset="1"
         stop-color="#fff"
         stop-opacity="0"
         id="stop15" />
    </linearGradient>
    <linearGradient
       gradientTransform="matrix(0.61943542,0,0,0.61943542,-63.534069,-50.056775)"
       gradientUnits="userSpaceOnUse"
       id="linearGradient8413"
       x1="275.60828"
       x2="341.99622"
       y1="300.86383"
       y2="391.44925">
      <stop
         offset="0"
         stop-color="#500"
         id="stop18" />
      <stop
         offset="1"
         stop-color="#f00"
         id="stop20" />
    </linearGradient>
    <linearGradient
       gradientTransform="matrix(0.73760064,0,0,0.73760064,-229.62412,25.66652)"
       gradientUnits="userSpaceOnUse"
       id="linearGradient8411"
       x1="241.40979"
       x2="315.47369"
       xlink:href="#linearGradient4156"
       y1="287.49377"
       y2="367.88477" />
    <linearGradient
       gradientTransform="matrix(0.76865427,0,0,0.76865427,-323.79687,39.080311)"
       gradientUnits="userSpaceOnUse"
       id="linearGradient10449"
       x1="380.03381"
       x2="422.97784"
       xlink:href="#linearGradient4156"
       y1="287.91769"
       y2="337.74042" />
    <radialGradient
       cx="312.78131"
       cy="386.57211"
       gradientTransform="matrix(-0.3457768,-0.3457768,0.41675409,-0.41675409,-40.827475,574.07782)"
       gradientUnits="userSpaceOnUse"
       id="radialGradient8415"
       r="53.035709">
      <stop
         style="stop-color:#87cdde;stop-opacity:1"
         offset="0"
         stop-color="#fff"
         stop-opacity=".40816"
         id="stop25" />
      <stop
         style="stop-color:#5599ff;stop-opacity:1"
         offset="1"
         stop-color="#fff"
         stop-opacity="0"
         id="stop27" />
    </radialGradient>
    <clipPath
       id="clipPath905-8"
       clipPathUnits="userSpaceOnUse">
      <path
         style="fill:#000000;stroke-width:0.18480755"
         d="m 103.25028,189.10311 c -1.52449,-0.47576 -2.79025,-1.65731 -3.368752,-3.14469 -0.626502,-1.61073 -0.0886,-4.09638 1.174682,-5.42825 0.62661,-0.6606 2.19186,-1.49719 2.80698,-1.5002 0.22837,-0.001 1.60034,-1.233 3.62252,-3.25281 l 3.25479,-3.25101 -0.26771,-0.76857 c -0.38709,-1.11109 -0.50528,-3.42218 -0.24441,-4.77922 0.12297,-0.64017 0.52461,-1.78766 0.89235,-2.55 0.6257,-1.29711 1.12002,-1.8407 7.70259,-8.4704 3.87152,-3.89924 7.40785,-7.30558 7.86559,-7.57642 1.77132,-1.04819 4.24571,-0.42818 5.24146,1.31331 0.59007,1.032 0.73138,1.94569 0.4689,3.03142 -0.20203,0.83567 -0.64804,1.32572 -7.20231,7.91352 -4.01432,4.03486 -7.07553,7.25776 -7.19514,7.5752 -0.58701,1.55787 1.0076,3.24219 2.52942,2.67171 0.28643,-0.10731 3.68126,-3.33851 7.54373,-7.18024 6.43993,-6.40529 7.09561,-7.00456 7.9013,-7.22152 2.55661,-0.68845 4.96733,1.07546 4.99162,3.65227 0.008,0.63032 -0.11571,1.3274 -0.29979,1.71472 -0.17682,0.37273 -3.45754,3.78979 -7.65268,7.97069 -6.2688,6.24745 -7.51172,7.40223 -8.49618,7.89385 -2.24975,1.12347 -4.74721,1.39835 -7.10852,0.78235 l -1.23899,-0.32308 -3.05189,3.0598 c -2.88042,2.88787 -3.06331,3.11357 -3.25518,4.01736 -0.62696,2.95298 -3.7201,4.75359 -6.61434,3.85037 z m 3.03822,-3.28962 c 1.30586,-1.19675 0.92209,-3.17692 -0.73817,-3.80881 -0.97487,-0.37121 -2.04853,-0.008 -2.66579,0.90445 -1.00309,1.48076 0.0982,3.51131 1.90456,3.51131 0.68852,0 0.95459,-0.1077 1.4994,-0.60695 z m 5.99075,-7.80177 c 2.22455,-2.21065 3.18819,-3.04934 3.50371,-3.04934 0.23945,0 0.97831,0.2173 1.64212,0.48283 1.05732,0.42299 1.40561,0.47337 2.81004,0.40619 2.84177,-0.13596 2.89291,-0.17453 10.93528,-8.23263 4.25403,-4.26243 6.97646,-7.12662 6.97646,-7.33968 0,-0.1921 -0.13749,-0.50151 -0.3059,-0.68738 -0.73951,-0.81714 -0.88765,-0.69799 -8.27984,6.66094 -7.82919,7.79394 -7.72612,7.71542 -9.93325,7.56652 -2.74367,-0.18522 -4.60087,-2.13537 -4.61653,-4.84788 -0.0115,-2.14866 0.0554,-2.23562 7.71241,-9.90557 4.2543,-4.26143 6.92189,-7.0691 6.92189,-7.28533 0,-0.48463 -0.53073,-1.0278 -1.0042,-1.0278 -0.27077,0 -2.63391,2.25021 -7.61782,7.25371 -6.72563,6.75202 -7.25245,7.32765 -7.61797,8.32326 -0.57815,1.57479 -0.54363,3.66468 0.0867,5.23986 0.27994,0.69967 0.43537,1.37254 0.37388,1.61783 -0.058,0.23105 -1.47962,1.78151 -3.15925,3.4457 l -3.05384,3.02577 0.68467,0.70117 c 0.37655,0.38564 0.72705,0.70116 0.77888,0.70116 0.0519,0 1.47508,-1.3722 3.16272,-3.04933 z"
         id="path907-6"
         inkscape:connector-curvature="0" />
    </clipPath>
    <filter
       id="filter6126-4">
      <feGaussianBlur
         stdDeviation=".53036"
         id="feGaussianBlur7-0" />
    </filter>
    <filter
       id="filter11428-3">
      <feGaussianBlur
         stdDeviation="1.24347"
         id="feGaussianBlur10-5" />
    </filter>
    <linearGradient
       gradientTransform="matrix(0.73760064,0,0,0.73760064,-99.426756,-90.9552)"
       gradientUnits="userSpaceOnUse"
       id="linearGradient8411-9"
       x1="241.40979"
       x2="315.47369"
       xlink:href="#linearGradient4156"
       y1="287.49377"
       y2="367.88477" />
    <linearGradient
       gradientTransform="matrix(0.76865427,0,0,0.76865427,-193.59951,-77.541409)"
       gradientUnits="userSpaceOnUse"
       id="linearGradient10449-1"
       x1="380.03381"
       x2="422.97784"
       xlink:href="#linearGradient4156"
       y1="287.91769"
       y2="337.74042" />
    <radialGradient
       cx="312.78131"
       cy="386.57211"
       gradientTransform="matrix(-0.3457768,-0.3457768,0.41675409,-0.41675409,89.369885,457.4561)"
       gradientUnits="userSpaceOnUse"
       id="radialGradient8415-3"
       r="53.035709">
      <stop
         style="stop-color:#ff9955;stop-opacity:1"
         offset="0"
         stop-color="#fff"
         stop-opacity=".40816"
         id="stop25-5" />
      <stop
         style="stop-color:#c87137;stop-opacity:1"
         offset="1"
         stop-color="#fff"
         stop-opacity="0"
         id="stop27-5" />
    </radialGradient>
  </defs>
  <sodipodi:namedview
     id="base"
     pagecolor="#ffffff"
     bordercolor="#666666"
     borderopacity="1.0"
     inkscape:pageopacity="0.0"
     inkscape:pageshadow="2"
     inkscape:zoom="0.7"
     inkscape:cx="-19.615819"
     inkscape:cy="143.14464"
     inkscape:document-units="mm"
     inkscape:current-layer="layer1"
     showgrid="false"
     fit-margin-top="0"
     fit-margin-left="0"
     fit-margin-right="0"
     fit-margin-bottom="0"
     inkscape:window-width="1486"
     inkscape:window-height="863"
     inkscape:window-x="1041"
     inkscape:window-y="493"
     inkscape:window-maximized="0" />
  <metadata
     id="metadata5">
    <rdf:RDF>
      <cc:Work
         rdf:about="">
        <dc:format>image/svg+xml</dc:format>
        <dc:type
           rdf:resource="http://purl.org/dc/dcmitype/StillImage" />
        <dc:title></dc:title>
      </cc:Work>
    </rdf:RDF>
  </metadata>
  <g
     inkscape:label="Layer 1"
     inkscape:groupmode="layer"
     id="layer1"
     transform="translate(48.311418,-238.22559)">
    <g
       id="g863"
       clip-path="url(#clipPath4810)"
       transform="matrix(1.0148094,0,0,1.0148094,-1107.9605,-272.32438)">
      <rect
         id="rect857"
         height="80.272003"
         width="81.411003"
         y="-593.41998"
         x="-1324.9"
         transform="translate(-67.98,-32.289)"
         style="fill:#80e5ff" />
      <rect
         id="rect859"
         height="56.745998"
         width="81.411003"
         y="-517.35999"
         x="-1324.9"
         transform="translate(-67.98,-32.289)"
         style="fill:#00b2ff" />
      <rect
         id="rect861"
         height="56.745998"
         width="81.411003"
         y="-465.04001"
         x="-1324.9"
         transform="translate(-67.98,-32.289)"
         style="fill:#0066ff" />
    </g>
    <path
       d="m 34.10953,280.95909 c 0,21.91878 -17.76867,39.68746 -39.68745,39.68746 -21.91878,0 -39.68745,-17.76868 -39.68745,-39.68746 0,-21.91878 17.76867,-39.68746 39.68745,-39.68746 21.91878,0 39.68745,17.76869 39.68745,39.68746 z"
       id="path31"
       inkscape:connector-curvature="0"
       style="fill:#999999;stroke-width:0.74831569" />
    <path
       d="m 33.54125,280.95909 c 0,21.60492 -17.51425,39.11918 -39.11918,39.11918 -21.60492,0 -39.119165,-17.51426 -39.119165,-39.11918 0,-21.60493 17.514245,-39.11918 39.119165,-39.11918 21.60493,0 39.11918,17.51426 39.11918,39.11918 z"
       id="path33"
       inkscape:connector-curvature="0"
       style="fill:url(#linearGradient8411);stroke-width:0.73760062" />
    <path
       d="m 356.78571,346.11218 c 0,29.29082 -23.74489,53.03572 -53.03571,53.03572 -29.29082,0 -53.03571,-23.7449 -53.03571,-53.03572 0,-29.29082 23.74489,-53.03571 53.03571,-53.03571 29.29082,0 53.03571,23.7449 53.03571,53.03571 z"
       transform="matrix(0.67145794,0,0,0.67145794,-209.53327,48.559314)"
       id="path35"
       inkscape:connector-curvature="0"
       style="fill:#ececec;filter:url(#filter6126)" />
    <path
       d="m 356.78571,346.11218 c 0,29.29082 -23.74489,53.03572 -53.03571,53.03572 -29.29082,0 -53.03571,-23.7449 -53.03571,-53.03572 0,-29.29082 23.74489,-53.03571 53.03571,-53.03571 29.29082,0 53.03571,23.7449 53.03571,53.03571 z"
       transform="matrix(0.64442437,0,0,0.64442437,-201.32182,57.915962)"
       id="path37"
       inkscape:connector-curvature="0"
       style="fill:#999999;filter:url(#filter6126)" />
    <path
       d="m 27.27428,280.95909 c 0,18.14377 -14.70843,32.8522 -32.8522,32.8522 -18.14377,0 -32.8522,-14.70843 -32.8522,-32.8522 0,-18.14377 14.70843,-32.8522 32.8522,-32.8522 18.14377,0 32.8522,14.70843 32.8522,32.8522 z"
       id="path39"
       inkscape:connector-curvature="0"
       style="fill:#6c5d53;stroke-width:0.61943543" />
    <path
       d="m 25.33299,280.95909 c 0,17.07163 -13.83928,30.91092 -30.91092,30.91092 -17.07163,0 -30.910905,-13.83929 -30.910905,-30.91092 0,-17.07163 13.839275,-30.91092 30.910905,-30.91092 17.07164,0 30.91092,13.83929 30.91092,30.91092 z"
       id="path41"
       inkscape:connector-curvature="0"
       style="fill:url(#radialGradient8415);stroke-width:0.5828321" />
    <path
       d="m -4.95568,257.4912 c -10.24662,0.23112 -20.12803,5.65576 -25.623696,15.17455 -5.91115,10.23839 -5.16068,22.49545 0.887386,31.76895 0.65571,-20.39363 16.24302,-35.75403 35.60697,-34.63082 6.34825,0.36824 12.34021,2.45974 17.57054,5.83466 -2.50409,-5.72628 -6.7773,-10.72513 -12.60109,-14.0875 C 5.89839,258.67237 0.4116,257.37012 -4.95568,257.4912 Z"
       id="path43"
       inkscape:connector-curvature="0"
       style="opacity:0.31771001;fill:url(#linearGradient10449);stroke-width:0.76865429" />
    <g
       style="fill:#4d4d4d;stroke:none"
       transform="matrix(0.28684606,0,0,0.28684606,-43.311774,224.93529)"
       id="g5256">
      <path
         style="fill:#4d4d4d;stroke:none;filter:url(#q)"
         inkscape:connector-curvature="0"
         d="m 162.12,28.597 c -37.276,0 -67.361,29.965 -67.361,67.241 v 393.38 c 0,0.12238 -7.63e-4,0.2374 0,0.35934 -36.169,22.529 -60.289,62.604 -60.289,108.35 0,70.483 57.167,127.65 127.65,127.65 70.483,0 127.65,-57.167 127.65,-127.65 0,-45.785 -24.192,-85.834 -60.409,-108.35 7.3e-4,-0.12195 0,-0.23743 0,-0.35934 V 95.838 c 0,-37.276 -29.964,-67.241 -67.241,-67.241 z"
         id="path5214"
         transform="matrix(0.18708867,-0.18708867,0.18708867,0.18708867,26.37255,163.09573)"
         clip-path="url(#clipPath4806)" />
      <g
         style="fill:#4d4d4d;stroke:none"
         id="g5254"
         transform="rotate(-45,127.25211,203.31366)"
         clip-path="url(#clipPath4802)">
        <path
           transform="matrix(1.0148094,0,0,1.0148094,-1107.9605,-272.32438)"
           style="fill:#4d4d4d;stroke:none;filter:url(#m)"
           inkscape:connector-curvature="0"
           d="m 1242.7,512.46 c 0,8.1552 -11.49,14.766 -25.663,14.766 -14.174,0 -25.664,-6.6111 -25.664,-14.766 0,-8.1552 11.49,-14.766 25.664,-14.766 14.173,0 25.663,6.611 25.663,14.766 z"
           id="path5216" />
        <path
           transform="matrix(1.0148094,0,0,1.0148094,-1107.9605,-272.32438)"
           style="opacity:0.38900003;fill:#4d4d4d;stroke:none;filter:url(#n)"
           inkscape:connector-curvature="0"
           d="m 1212.5,496.6 c -0.4735,0.0675 -0.9398,0.16141 -1.4062,0.24997 0.4729,-0.0933 0.9253,-0.17914 1.4062,-0.24997 z m -1.4062,0.25 c -14.404,2.7346 -25.281,15.363 -25.281,30.562 0,17.197 13.928,31.125 31.125,31.125 17.197,0 31.125,-13.928 31.125,-31.125 0,-15.2 -10.877,-27.828 -25.281,-30.562 13.243,2.6131 23.219,13.895 23.219,27.438 0,15.477 -13.012,28.031 -29.062,28.031 -16.05,0 -29.062,-12.554 -29.062,-28.031 0,-13.542 9.976,-24.824 23.219,-27.438 z m 11.688,0 c -0.4664,-0.0885 -0.9327,-0.1825 -1.4062,-0.24997 0.481,0.0709 0.9334,0.15665 1.4062,0.24997 z"
           id="path5218" />
        <rect
           transform="matrix(1.0148094,0,0,1.0148094,-1107.9605,-272.32438)"
           style="opacity:0.56600001;fill:#4d4d4d;stroke:none;filter:url(#o)"
           x="1209.6"
           y="381.95999"
           width="15.819"
           height="112.91"
           rx="7.9092999"
           ry="7.9092999"
           id="rect5220" />
        <path
           transform="matrix(1.0148094,0,0,1.0148094,-1107.9605,-272.32438)"
           style="fill:#4d4d4d;stroke:none;filter:url(#l)"
           inkscape:connector-curvature="0"
           d="m 1217.1,377.7 c -10.274,0 -18.562,7.394 -18.562,16.595 v 84.989 c 0,9.2008 8.2881,16.623 18.562,16.623 10.2739,0 18.531,-7.422 18.531,-16.623 v -84.989 c 0,-9.2008 -8.2568,-16.595 -18.531,-16.595 z m -2.1875,1.7071 h 4.375 c 4.6781,0 8.4375,3.3666 8.4375,7.5558 v 92.825 c 0,4.1892 -3.7594,7.5558 -8.4375,7.5558 h -4.375 c -4.6781,0 -8.4375,-3.3666 -8.4375,-7.5558 v -92.825 c 0,-4.1892 3.7594,-7.5558 8.4375,-7.5558 z"
           id="path5222" />
        <g
           transform="matrix(1.0148094,0,0,1.0148094,-1107.9605,-272.32438)"
           style="fill:#4d4d4d;stroke:none"
           id="g5250">
          <g
             style="fill:#4d4d4d;stroke:none;stroke-width:1.602"
             id="g5246">
            <path
               style="fill:#4d4d4d;stroke:none"
               inkscape:connector-curvature="0"
               d="m 1201.5,396.24 h 27.664"
               id="path5224" />
            <path
               style="fill:#4d4d4d;stroke:none"
               inkscape:connector-curvature="0"
               d="m 1201.5,485.3 h 27.664"
               id="path5226" />
            <path
               style="fill:#4d4d4d;stroke:none"
               inkscape:connector-curvature="0"
               d="m 1201.5,440.77 h 27.664"
               id="path5228" />
            <path
               style="fill:#4d4d4d;stroke:none"
               inkscape:connector-curvature="0"
               d="m 1201.5,431.86 h 9.2214"
               id="path5230" />
            <path
               style="fill:#4d4d4d;stroke:none"
               inkscape:connector-curvature="0"
               d="m 1201.5,422.96 h 9.2214"
               id="path5232" />
            <path
               style="fill:#4d4d4d;stroke:none"
               inkscape:connector-curvature="0"
               d="m 1201.5,414.05 h 9.2214"
               id="path5234" />
            <path
               style="fill:#4d4d4d;stroke:none"
               inkscape:connector-curvature="0"
               d="m 1201.5,405.14 h 9.2214"
               id="path5236" />
            <path
               style="fill:#4d4d4d;stroke:none"
               inkscape:connector-curvature="0"
               d="m 1201.5,449.68 h 9.2214"
               id="path5238" />
            <path
               style="fill:#4d4d4d;stroke:none"
               inkscape:connector-curvature="0"
               d="m 1201.5,458.58 h 9.2214"
               id="path5240" />
            <path
               style="fill:#4d4d4d;stroke:none"
               inkscape:connector-curvature="0"
               d="m 1201.5,467.49 h 9.2214"
               id="path5242" />
            <path
               style="fill:#4d4d4d;stroke:none"
               inkscape:connector-curvature="0"
               d="m 1201.5,476.4 h 9.2214"
               id="path5244" />
          </g>
          <path
             style="opacity:0.74500002;fill:#4d4d4d;stroke:none;filter:url(#p)"
             inkscape:connector-curvature="0"
             d="m 1225.8,384.17 c 0,3.3462 -4.2207,6.0589 -9.427,6.0589 -5.2063,0 -9.4269,-2.7127 -9.4269,-6.0589 0,-3.3462 4.2206,-6.059 9.4269,-6.059 5.2063,0 9.427,2.7127 9.427,6.059 z"
             id="path5248" />
        </g>
        <path
           style="fill:#4d4d4d;stroke:none;stroke-width:3.04442811"
           inkscape:connector-curvature="0"
           d="m 127.16402,111.25328 c -9.86273,0 -17.82208,7.92809 -17.82208,17.79062 v 104.07885 c 0,0.0324 -2e-4,0.0628 0,0.0951 -9.569655,5.96079 -15.951791,16.56372 -15.951791,28.66837 0,18.64813 15.125731,33.77387 33.773871,33.77387 18.64814,0 33.77387,-15.12574 33.77387,-33.77387 0,-12.11378 -6.40081,-22.71042 -15.98325,-28.66837 1.1e-4,-0.0323 0,-0.0628 0,-0.0951 V 129.0439 c 0,-9.86273 -7.92819,-17.79062 -17.79062,-17.79062 z"
           id="path5252" />
      </g>
    </g>
    <g
       style="fill:#4d4d4d;stroke:none"
       transform="rotate(-90,33.638952,159.91583)"
       id="g5266">
      <path
         style="fill:#4d4d4d;stroke:none;stroke-width:0.2651068"
         d="m -94.19324,92.471343 c -8.50503,0.47073 -16.21212,8.483757 -15.49805,17.089847 0.8595,1.95511 3.51345,0.45001 3.05664,-1.4043 0.44484,-7.01013 6.81875,-12.543787 13.70898,-12.744137 2.53272,-0.58182 0.74617,-3.66204 -1.26757,-2.94141 z"
         id="path5258"
         inkscape:connector-curvature="0" />
      <path
         style="fill:#4d4d4d;stroke:none;stroke-width:0.2651068"
         d="m -63.46473,122.58658 c -2.28361,0.45583 -1.13031,3.67324 -2.10547,5.27148 -1.71224,5.48109 -7.00934,9.3449 -12.68359,9.65235 -2.27149,-0.19929 -2.07333,3.43861 0.17578,3.02539 8.79266,0.005 16.92917,-8.32292 16.12695,-17.14258 -0.17515,-0.66135 -0.89181,-0.92167 -1.51367,-0.80664 z"
         id="path5260"
         inkscape:connector-curvature="0" />
      <path
         style="fill:#4d4d4d;stroke:none;stroke-width:0.2651068"
         d="m -92.36121,99.996733 c -5.17474,0.795037 -10.21543,5.763867 -9.79883,11.210937 1.12375,1.7893 3.40542,0.14473 3.14453,-1.61719 0.92746,-3.85342 4.60909,-6.09153 8.2168,-6.91601 1.44794,-0.95546 -0.019,-3.241377 -1.5625,-2.677737 z"
         id="path5262"
         inkscape:connector-curvature="0" />
      <path
         style="fill:#4d4d4d;stroke:none;stroke-width:0.2651068"
         d="m -70.92957,121.03189 c -2.33051,0.53671 -1.35441,3.89267 -3.08985,5.24414 -1.6726,2.61633 -4.97014,3.00524 -7.28515,4.62695 -0.64418,3.0716 3.68557,2.06328 5.25998,1.05169 3.65248,-1.86351 7.28251,-5.993 6.49392,-10.28997 -0.30869,-0.42558 -0.84837,-0.70195 -1.3789,-0.63281 z"
         id="path5264"
         inkscape:connector-curvature="0" />
    </g>
    <g
       id="g5212">
      <g
         transform="matrix(0.28684606,0,0,0.28684606,-41.724273,223.34778)"
         id="g4921">
        <path
           style="fill:#c83737;filter:url(#q)"
           inkscape:connector-curvature="0"
           d="m 162.12,28.597 c -37.276,0 -67.361,29.965 -67.361,67.241 v 393.38 c 0,0.12238 -7.63e-4,0.2374 0,0.35934 -36.169,22.529 -60.289,62.604 -60.289,108.35 0,70.483 57.167,127.65 127.65,127.65 70.483,0 127.65,-57.167 127.65,-127.65 0,-45.785 -24.192,-85.834 -60.409,-108.35 7.3e-4,-0.12195 0,-0.23743 0,-0.35934 V 95.838 c 0,-37.276 -29.964,-67.241 -67.241,-67.241 z"
           id="path855"
           transform="matrix(0.18708867,-0.18708867,0.18708867,0.18708867,26.37255,163.09573)"
           clip-path="url(#clipPath4806)" />
        <g
           id="g1030"
           transform="rotate(-45,127.25211,203.31366)"
           clip-path="url(#clipPath4802)">
          <path
             transform="matrix(1.0148094,0,0,1.0148094,-1107.9605,-272.32438)"
             style="fill:url(#r);filter:url(#m)"
             inkscape:connector-curvature="0"
             d="m 1242.7,512.46 c 0,8.1552 -11.49,14.766 -25.663,14.766 -14.174,0 -25.664,-6.6111 -25.664,-14.766 0,-8.1552 11.49,-14.766 25.664,-14.766 14.173,0 25.663,6.611 25.663,14.766 z"
             id="path865" />
          <path
             transform="matrix(1.0148094,0,0,1.0148094,-1107.9605,-272.32438)"
             style="opacity:0.38900003;fill:#1a1a1a;filter:url(#n)"
             inkscape:connector-curvature="0"
             d="m 1212.5,496.6 c -0.4735,0.0675 -0.9398,0.16141 -1.4062,0.24997 0.4729,-0.0933 0.9253,-0.17914 1.4062,-0.24997 z m -1.4062,0.25 c -14.404,2.7346 -25.281,15.363 -25.281,30.562 0,17.197 13.928,31.125 31.125,31.125 17.197,0 31.125,-13.928 31.125,-31.125 0,-15.2 -10.877,-27.828 -25.281,-30.562 13.243,2.6131 23.219,13.895 23.219,27.438 0,15.477 -13.012,28.031 -29.062,28.031 -16.05,0 -29.062,-12.554 -29.062,-28.031 0,-13.542 9.976,-24.824 23.219,-27.438 z m 11.688,0 c -0.4664,-0.0885 -0.9327,-0.1825 -1.4062,-0.24997 0.481,0.0709 0.9334,0.15665 1.4062,0.24997 z"
             id="path867" />
          <rect
             transform="matrix(1.0148094,0,0,1.0148094,-1107.9605,-272.32438)"
             style="opacity:0.56600001;fill:url(#s);filter:url(#o)"
             x="1209.6"
             y="381.95999"
             width="15.819"
             height="112.91"
             rx="7.9092999"
             ry="7.9092999"
             id="rect869" />
          <path
             transform="matrix(1.0148094,0,0,1.0148094,-1107.9605,-272.32438)"
             style="fill:url(#t);filter:url(#l)"
             inkscape:connector-curvature="0"
             d="m 1217.1,377.7 c -10.274,0 -18.562,7.394 -18.562,16.595 v 84.989 c 0,9.2008 8.2881,16.623 18.562,16.623 10.2739,0 18.531,-7.422 18.531,-16.623 v -84.989 c 0,-9.2008 -8.2568,-16.595 -18.531,-16.595 z m -2.1875,1.7071 h 4.375 c 4.6781,0 8.4375,3.3666 8.4375,7.5558 v 92.825 c 0,4.1892 -3.7594,7.5558 -8.4375,7.5558 h -4.375 c -4.6781,0 -8.4375,-3.3666 -8.4375,-7.5558 v -92.825 c 0,-4.1892 3.7594,-7.5558 8.4375,-7.5558 z"
             id="path871" />
          <g
             transform="matrix(1.0148094,0,0,1.0148094,-1107.9605,-272.32438)"
             style="fill:#ffffff"
             id="g899">
            <g
               style="stroke:#ffffff;stroke-width:1.602"
               id="g895">
              <path
                 inkscape:connector-curvature="0"
                 d="m 1201.5,396.24 h 27.664"
                 id="path873" />
              <path
                 inkscape:connector-curvature="0"
                 d="m 1201.5,485.3 h 27.664"
                 id="path875" />
              <path
                 inkscape:connector-curvature="0"
                 d="m 1201.5,440.77 h 27.664"
                 id="path877" />
              <path
                 inkscape:connector-curvature="0"
                 d="m 1201.5,431.86 h 9.2214"
                 id="path879" />
              <path
                 inkscape:connector-curvature="0"
                 d="m 1201.5,422.96 h 9.2214"
                 id="path881" />
              <path
                 inkscape:connector-curvature="0"
                 d="m 1201.5,414.05 h 9.2214"
                 id="path883" />
              <path
                 inkscape:connector-curvature="0"
                 d="m 1201.5,405.14 h 9.2214"
                 id="path885" />
              <path
                 inkscape:connector-curvature="0"
                 d="m 1201.5,449.68 h 9.2214"
                 id="path887" />
              <path
                 inkscape:connector-curvature="0"
                 d="m 1201.5,458.58 h 9.2214"
                 id="path889" />
              <path
                 inkscape:connector-curvature="0"
                 d="m 1201.5,467.49 h 9.2214"
                 id="path891" />
              <path
                 inkscape:connector-curvature="0"
                 d="m 1201.5,476.4 h 9.2214"
                 id="path893" />
            </g>
            <path
               style="opacity:0.74500002;filter:url(#p)"
               inkscape:connector-curvature="0"
               d="m 1225.8,384.17 c 0,3.3462 -4.2207,6.0589 -9.427,6.0589 -5.2063,0 -9.4269,-2.7127 -9.4269,-6.0589 0,-3.3462 4.2206,-6.059 9.4269,-6.059 5.2063,0 9.427,2.7127 9.427,6.059 z"
               id="path897" />
          </g>
          <path
             style="fill:none;stroke:#550000;stroke-width:3.04442811"
             inkscape:connector-curvature="0"
             d="m 127.16402,111.25328 c -9.86273,0 -17.82208,7.92809 -17.82208,17.79062 v 104.07885 c 0,0.0324 -2e-4,0.0628 0,0.0951 -9.569655,5.96079 -15.951791,16.56372 -15.951791,28.66837 0,18.64813 15.125731,33.77387 33.773871,33.77387 18.64814,0 33.77387,-15.12574 33.77387,-33.77387 0,-12.11378 -6.40081,-22.71042 -15.98325,-28.66837 1.1e-4,-0.0323 0,-0.0628 0,-0.0951 V 129.0439 c 0,-9.86273 -7.92819,-17.79062 -17.79062,-17.79062 z"
             id="path901" />
        </g>
      </g>
      <g
         style="fill:#ffaaaa"
         transform="rotate(-90,33.374369,158.59293)"
         id="g5183">
        <path
           style="fill:#ffaaaa;stroke-width:0.2651068"
           d="m -94.19324,92.471343 c -8.50503,0.47073 -16.21212,8.483757 -15.49805,17.089847 0.8595,1.95511 3.51345,0.45001 3.05664,-1.4043 0.44484,-7.01013 6.81875,-12.543787 13.70898,-12.744137 2.53272,-0.58182 0.74617,-3.66204 -1.26757,-2.94141 z"
           id="path851"
           inkscape:connector-curvature="0" />
        <path
           style="fill:#ffaaaa;stroke-width:0.2651068"
           d="m -63.46473,122.58658 c -2.28361,0.45583 -1.13031,3.67324 -2.10547,5.27148 -1.71224,5.48109 -7.00934,9.3449 -12.68359,9.65235 -2.27149,-0.19929 -2.07333,3.43861 0.17578,3.02539 8.79266,0.005 16.92917,-8.32292 16.12695,-17.14258 -0.17515,-0.66135 -0.89181,-0.92167 -1.51367,-0.80664 z"
           id="path849"
           inkscape:connector-curvature="0" />
        <path
           style="fill:#ffaaaa;stroke-width:0.2651068"
           d="m -92.36121,99.996733 c -5.17474,0.795037 -10.21543,5.763867 -9.79883,11.210937 1.12375,1.7893 3.40542,0.14473 3.14453,-1.61719 0.92746,-3.85342 4.60909,-6.09153 8.2168,-6.91601 1.44794,-0.95546 -0.019,-3.241377 -1.5625,-2.677737 z"
           id="path847"
           inkscape:connector-curvature="0" />
        <path
           style="fill:#ffaaaa;stroke-width:0.2651068"
           d="m -70.92957,121.03189 c -2.33051,0.53671 -1.35441,3.89267 -3.08985,5.24414 -1.6726,2.61633 -4.97014,3.00524 -7.28515,4.62695 -0.64418,3.0716 3.68557,2.06328 5.25998,1.05169 3.65248,-1.86351 7.28251,-5.993 6.49392,-10.28997 -0.30869,-0.42558 -0.84837,-0.70195 -1.3789,-0.63281 z"
           id="path843"
           inkscape:connector-curvature="0" />
      </g>
    </g>
  </g>
</svg>
