<?xml version="1.0" encoding="UTF-8" standalone="no"?>
<svg width="219.52" xmlns="http://www.w3.org/2000/svg" height="351.62">
 <defs>
  <filter id="filter3528">
   <feGaussianBlur id="feGaussianBlur3530" stdDeviation="2.657031"/>
  </filter>
 </defs>
 <g id="layer1" externalResourcesRequired="false">
  <g fill-rule="evenodd">
   <rect id="rect3532" height="351.44" width="219.52" y=".000003" x="-.000003" stroke-width=".765" fill="none"/>
   <path id="rect3494" filter="url(#filter3528)" stroke-width=".885" d="m106.46 8.1337c-27.578 0-54.801 3.375-81.938 10.125l-1 12-2 2-0.1875 1.25h-0.0625v0.3125l-0.75 4.875-0.75-0.1875-1.25 2.5 0.4375 0.0938-0.0938 0.4687-0.5938 0.4375v0.96875c-0.51123 0.36728-0.84375 0.96942-0.84375 1.6562l-9.9688 12.938c0 0.021511-0.00064 0.041172 0 0.062504-0.19196 0.31219-0.3125 0.69684-0.3125 1.0938v12.938c0 1.1253 0.89389 2.0312 2 2.0312h19.562l17.938 242.09c0 9.7934 7.8941 17.688 17.688 17.688h91.969c8.2969 0 15.175-5.9047 16.906-13.812-0.18735 0.43884-0.40622 0.86304-0.625 1.2812 0.15915-0.52417 0.29553-1.0499 0.40625-1.5938 0.23471-1.1529 0.34375-2.3383 0.34375-3.5625l14.781-224.25c0.046082 0.1731 0.086548 0.35412 0.125 0.53125l1.0312-18.375h21.938c1.1061 0 2-0.90591 2-2.0312v-12.938c0-0.11121-0.014282-0.20657-0.03125-0.3125v-0.25h-0.0625c-0.18353-0.62399-0.64645-1.13-1.25-1.3438l-11.594-9.4062 0.0625-0.0312-1.0312-0.7812-1.4688-1.1875-0.9375-3.875 0.875-0.2812-1.2812-1.4062-0.9688-4.0938v-4.5l-1.5-1.5-3.5-11.5c-28.55-6.75-56.484-10.125-84.062-10.125z"/>
   <g id="g3545">
    <g stroke-width=".885">
     <rect id="rect3190" rx="17.678" ry="17.678" height="260.33" width="126.69" y="69.134" x="48.656" fill="#f00"/>
     <path id="rect2418" fill="#77ab28" d="m191.34 68.812l-16 242.98c0 9.7935-7.8843 17.678-17.678 17.678h-91.332c-9.7934 0-17.678-7.8842-17.678-17.678l-18-242.98h160.69z"/>
     <path id="path3193" fill="#5b9f2e" d="m186.31 68.812l-14.865 240.01c0 9.6739-7.3248 17.462-16.423 17.462h-84.851c-9.0985 0-16.423-7.788-16.423-17.462l-12.723-240.01h145.28z"/>
     <path id="path3199" fill="#1d6128" d="m33.644 68.821l17.664 242.97c0 9.7935 7.7467 17.688 17.357 17.688h89.638c8.2969 0 15.166-5.9047 16.897-13.812-2.5526 5.9797-8.096 10.125-14.597 10.125l-88.166 0.5c-8.9286 0-16.131-7.7949-16.131-17.469l-14.231-228.25c3.4276-4.4758 9.6467-4.3717 20.395-4.75 27.603-0.96274 67.254-0.51392 97.336-0.375 17.321 0.079994 28.522 3.8812 30.421 12.625l1.104-19.25h-157.69z"/>
    </g>
    <path id="rect3203" fill="#5b9f2e" d="m21.426 38.602c-1.1023 0-2 0.90594-2 2.0312l-9.9688 12.938c0 0.021511-0.00061 0.041142 0 0.062504-0.19196 0.31219-0.3125 0.69684-0.3125 1.0938v12.938c0 1.1253 0.89386 2.0312 2 2.0312h202.06c1.1061 0 2-0.90594 2-2.0312v-12.938c0-0.88971-0.56403-1.6301-1.3438-1.9062l-15-12.188c0-1.1253-0.89764-2.0312-2-2.0312h-175.44z"/>
    <rect id="rect3210" height="3" width="205.93" y="54.171" x="9.2372" fill="#fff"/>
    <path id="path3216" fill="#5b9e2d" d="m19.519 44.246l18 5 148.5-1.5 14.5-3.5-3-12.5v-4.5l-1.5-1.5-3.5-11.5c-61.344-9.9645-110.31-9.9645-166 0l-1 12-2 2-1 6.5-1.5 2-1.5 7.5z"/>
    <path id="path3214" fill="#1f582d" d="m20.269 43.996l17.75 4-0.25-16.5 159.5-0.5-0.25-2.25-173.75 0.75 0.25 6-3.25 2.5v6z"/>
    <g fill="#fff">
     <path id="path3218" d="m20.519 36.996l17 3.75 150.75 0.25 11.5-3.75-2.25-2.5-9.25 3.5h-151l-15.5-3.75-1.25 2.5z"/>
     <path id="path3220" d="m26.519 16.496c2.75-0.25 165.75-0.5 165.75-0.5l-0.5-1.5h-165l-0.25 2z"/>
    </g>
    <path id="path3224" fill="#282828" d="m20.267 44.908l17.871 3.8384 150.13 0.25 14.063-5.6062-2.5151-1.8813-11.548 4.7375h-150.13l-17.871-4.1035v2.7652z"/>
   </g>
  </g>
 </g>
</svg>
