<?xml version="1.0" encoding="utf-8"?>
<!-- Generator: Adobe Illustrator 10.0, SVG Export Plug-In . SVG Version: 3.0.0 Build 77)  -->
<!DOCTYPE svg PUBLIC "-//W3C//DTD SVG 1.0//EN"    "http://www.w3.org/TR/2001/REC-SVG-20010904/DTD/svg10.dtd" [
	<!ENTITY ns_flows "http://ns.adobe.com/Flows/1.0/">
	<!ENTITY ns_svg "http://www.w3.org/2000/svg">
	<!ENTITY ns_xlink "http://www.w3.org/1999/xlink">
	<!ENTITY st0 "fill:none;stroke:#000000;">
	<!ENTITY st1 "fill:none;">
]>
<svg  xmlns="&ns_svg;" xmlns:xlink="&ns_xlink;" xmlns:a="http://ns.adobe.com/AdobeSVGViewerExtensions/3.0/"
	 width="302.484" height="404.519" viewBox="0 0 302.484 404.519"
	 style="overflow:visible;enable-background:new 0 0 302.484 404.519" xml:space="preserve">
	<metadata>
<?xpacket begin='﻿' id='W5M0MpCehiHzreSzNTczkc9d'?><?adobe-xap-filters esc="CR"?>
<rdf:RDF xmlns:rdf='http://www.w3.org/1999/02/22-rdf-syntax-ns#' xmlns:iX='http://ns.adobe.com/iX/1.0/'>

 <rdf:Description about=''
  xmlns:pdf='http://ns.adobe.com/pdf/1.3/'>
  <pdf:Producer>Adobe PDF library 5.00</pdf:Producer>
  <!-- pdf:CreationDate is aliased -->
  <!-- pdf:ModDate is aliased -->
  <!-- pdf:Creator is aliased -->
 </rdf:Description>

 <rdf:Description about=''
  xmlns:xap='http://ns.adobe.com/xap/1.0/'>
  <xap:CreateDate>2004-01-25T16:10:22-04:00</xap:CreateDate>
  <xap:ModifyDate>2006-01-01T00:14:30Z</xap:ModifyDate>
  <xap:CreatorTool>Adobe Illustrator 10.0</xap:CreatorTool>
  <xap:MetadataDate>2004-01-25T16:10:23-05:00</xap:MetadataDate>
 </rdf:Description>

</rdf:RDF>
                                                                                                                                                                                                                                                                                                                                                                                                                                                                                                                                                                                                                                                                                                                                                                                                                                                                                                                                                                                                                                                                                                                                                                                                                                                                                                                                                                                                                                                                                                                                                                                                                                                                                                                                                                                                                                                                                                                                                                                                                                                                                                                                <?xpacket end='w'?>
			</metadata>
		<g id="Layer_1">
			<path style="&st1;" d="M302.484,404.519h-2v-2.272h2V404.519z"/>
			<path style="&st0;" d="M76.938,198.246l82-143"/>
			<path style="&st0;" d="M158.938,55.246l117.5,197.5"/>
			<path style="&st0;" d="M276.438,252.746l14.5-27"/>
			<path style="&st0;" d="M290.938,225.746l-132-223.5"/>
			<path style="&st0;" d="M46.938,199.246l112-197"/>
			<path style="&st0;" d="M126.438,1.246h32.5"/>
			<path style="&st0;" d="M0.438,226.246l127.5-226"/>
			<path style="&st0;" d="M0.438,226.246h229"/>
			<path style="&st0;" d="M229.438,226.246l-85.5-145"/>
			<path style="&st0;" d="M0.438,226.246l14.5,26.5"/>
			<path style="&st0;" d="M14.938,252.746h261.5"/>
			<path style="&st0;" d="M212.938,199.246h-166"/>
			<path style="&st0;" d="M11.358,333.949h205.925"/>
			<path style="&st0;" d="M11.358,314.412h215.676"/>
			<path style="&st0;" d="M227.034,314.412l74.42,68.675"/>
			<path style="&st0;" d="M301.454,383.086v20.278"/>
			<path style="&st0;" d="M301.454,403.365H40.368"/>
			<path style="&st0;" d="M41.552,383.086h259.902"/>
			<path style="&st0;" d="M11.358,333.949h205.749"/>
			<path style="&st0;" d="M25.567,368.878h226.749"/>
			<path style="&st0;" d="M25.567,349.341h191.818"/>
			<path style="&st0;" d="M217.385,349.341l19.537,18.944"/>
			<path style="&st0;" d="M217.385,349.341v-14.801"/>
			<path style="&st0;" d="M216.912,333.843l35.403,35.035"/>
			<path style="&st0;" d="M31.105,359.246c0-5.522-2.687-10-6-10s-6,4.478-6,10s2.687,10,6,10S31.105,364.768,31.105,359.246z"/>
			<path style="&st0;" d="M47.771,393.246c0-5.522-2.687-10-6-10s-6,4.478-6,10s2.687,10,6,10S47.771,398.768,47.771,393.246z"/>
			<path style="&st0;" d="M17.438,324.246c0-5.522-2.687-10-6-10s-6,4.478-6,10s2.687,10,6,10S17.438,329.768,17.438,324.246z"/>
		</g>
	</svg>
