<?xml version="1.0" encoding="UTF-8" standalone="no"?>
<svg
   xmlns:dc="http://purl.org/dc/elements/1.1/"
   xmlns:cc="http://creativecommons.org/ns#"
   xmlns:rdf="http://www.w3.org/1999/02/22-rdf-syntax-ns#"
   xmlns:svg="http://www.w3.org/2000/svg"
   xmlns="http://www.w3.org/2000/svg"
   xmlns:xlink="http://www.w3.org/1999/xlink"
   xmlns:sodipodi="http://sodipodi.sourceforge.net/DTD/sodipodi-0.dtd"
   xmlns:inkscape="http://www.inkscape.org/namespaces/inkscape"
   width="50"
   height="50"
   id="svg2"
   version="1.1"
   inkscape:version="0.91 r13725"
   sodipodi:docname="Wand.svg"
   inkscape:export-filename="/home/simon/Incoming/Wand.png"
   inkscape:export-xdpi="183.2587"
   inkscape:export-ydpi="183.2587">
  <metadata
     id="metadata36">
    <rdf:RDF>
      <cc:Work
         rdf:about="">
        <dc:format>image/svg+xml</dc:format>
        <dc:type
           rdf:resource="http://purl.org/dc/dcmitype/StillImage" />
        <dc:title></dc:title>
      </cc:Work>
    </rdf:RDF>
  </metadata>
  <sodipodi:namedview
     pagecolor="#ffffff"
     bordercolor="#666666"
     borderopacity="1"
     objecttolerance="10"
     gridtolerance="10"
     guidetolerance="10"
     inkscape:pageopacity="0"
     inkscape:pageshadow="2"
     inkscape:window-width="1889"
     inkscape:window-height="1002"
     id="namedview34"
     showgrid="false"
     fit-margin-top="0"
     fit-margin-left="0"
     fit-margin-right="0"
     fit-margin-bottom="0"
     inkscape:zoom="4.9166667"
     inkscape:cx="-25.580463"
     inkscape:cy="16.575681"
     inkscape:window-x="31"
     inkscape:window-y="29"
     inkscape:window-maximized="1"
     inkscape:current-layer="svg2" />
  <defs
     id="defs4">
    <linearGradient
       id="linearGradient3111"
       y2="20.624138"
       x2="16.240061"
       y1="27.255384"
       x1="23.302048"
       gradientTransform="scale(0.96106237,1.0405152)"
       gradientUnits="userSpaceOnUse">
      <stop
         id="stop3115"
         stop-color="#424441"
         offset="0" />
      <stop
         id="stop3117"
         stop-color="#757772"
         offset="1" />
    </linearGradient>
    <linearGradient
       id="linearGradient3095"
       y2="30.897697"
       xlink:href="#linearGradient2209"
       x2="6.5382447"
       y1="37.998894"
       x1="13.694054"
       gradientTransform="scale(0.9850946,1.0151309)"
       gradientUnits="userSpaceOnUse" />
    <linearGradient
       id="linearGradient2215"
       y2="11.314566"
       xlink:href="#linearGradient2209"
       x2="24.787287"
       y1="18.417967"
       x1="31.941032"
       gradientTransform="scale(0.9850946,1.0151309)"
       gradientUnits="userSpaceOnUse" />
    <linearGradient
       id="linearGradient2209">
      <stop
         id="stop2211"
         stop-color="#555753"
         offset="0" />
      <stop
         id="stop2213"
         stop-color="#fff"
         offset="1" />
    </linearGradient>
    <radialGradient
       id="radialGradient3132"
       gradientUnits="userSpaceOnUse"
       cy="45.409"
       cx="23.537001"
       gradientTransform="matrix(1.2967,0,0,0.30778,-11.57158,31.870198)"
       r="13.496">
      <stop
         id="stop3128"
         stop-opacity=".265"
         offset="0" />
      <stop
         id="stop3130"
         stop-opacity="0"
         offset="1" />
    </radialGradient>
  </defs>
  <g
     style="stroke:#2e3436"
     id="g18"
     transform="translate(-4.996492,-4.3968274)">
    <path
       style="fill:url(#linearGradient3111);stroke-width:0.99000001"
       inkscape:connector-curvature="0"
       d="M 29.272,6.8384 6.478,32.0234 6.457,32.0466 c -0.06303,0.05834 -0.10933,0.1208 -0.16776,0.18535 -1.3597,1.5024 -0.93495,4.1273 0.97246,5.8537 1.9074,1.7263 4.5751,1.9002 5.9349,0.39787 0.05842,-0.06456 0.10245,-0.12907 0.15424,-0.19759 0.02354,-0.03115 0.0617,-0.06076 0.08388,-0.09268 l 22.731,-25.116 -6.8938,-6.2393 z"
       id="path2182" />
    <path
       style="fill:#eeeeec;stroke-width:1.296"
       inkscape:connector-curvature="0"
       d="M 36.506,12.727 A 5.2635289,4.1459011 0 1 1 29.5951,6.4722 5.2635289,4.1459011 0 1 1 36.506,12.727 Z"
       id="path1307" />
    <g
       style="stroke-width:0.99000001"
       id="g22">
      <path
         style="fill:url(#linearGradient2215)"
         inkscape:connector-curvature="0"
         d="m 31.128,18.633 c -1.7172,1.5016 -4.1302,1.2354 -5.9035,-0.36952 -1.7733,-1.60492 -2.3012,-4.0005 -1.1246,-5.6963 l 5.1795,-5.7229 0.0232,0.021 c -0.97857,1.5351 -0.46077,3.8821 1.2902,5.4668 1.7524,1.586 4.1382,1.87 5.568,0.74024 l -5.0328,5.5607 z"
         id="path2192" />
      <path
         style="fill:url(#linearGradient3095)"
         inkscape:connector-curvature="0"
         d="M 13.153,38.513 C 11.4358,40.0146 9.0228,39.7484 7.2495,38.14348 5.4762,36.53856 4.9483,34.14298 6.1249,32.44718 l 5.1795,-5.7229 0.0232,0.021 c -0.97857,1.5351 -0.46077,3.8821 1.2902,5.4668 1.7524,1.5861 4.1382,1.87 5.568,0.74024 l -5.0328,5.5607 z"
         id="path3093" />
    </g>
  </g>
  <path
     id="path3124"
     d="m 36.44842,45.846198 a 17.5,4.1538 0 0 1 -35.0000004,0 17.5,4.1538 0 1 1 35.0000004,0 z"
     inkscape:connector-curvature="0"
     style="fill:url(#radialGradient3132);stroke-width:1.18400002;stroke-miterlimit:5" />
  <g
     id="g4197"
     transform="matrix(0.90857808,0.41771506,-0.41771506,0.90857808,19.820927,-13.927165)">
    <path
       id="path3158"
       d="m 30.344233,48.164657 c -0.48332,0.42968 -5.0563,-3.1186 -5.6999,-3.0551 -0.64357,0.06351 -4.4347,4.4373 -4.9927,4.1104 -0.55799,-0.3269 1.4035,-5.7726 1.1442,-6.365 -0.2593,-0.59244 -5.5906,-2.8464 -5.4521,-3.4781 0.13846,-0.6317 5.9237,-0.44899 6.407,-0.87867 0.48333,-0.42968 0.97953,-6.1965 1.6231,-6.26 0.64357,-0.06352 2.2576,5.495 2.8156,5.8219 0.558,0.32689 6.1959,-0.98324 6.4552,-0.39079 0.25928,0.59244 -4.5285,3.8451 -4.6669,4.4768 -0.13846,0.63171 2.8498,5.5888 2.3664,6.0185 z"
       inkscape:connector-curvature="0"
       style="fill:#007fff;stroke:#003f7f;stroke-width:0.866;stroke-miterlimit:5" />
    <path
       style="fill:#ffff00;stroke:#003f7f;stroke-width:0.4477483;stroke-miterlimit:5"
       inkscape:connector-curvature="0"
       d="m 27.279254,44.577724 c -0.249891,0.222158 -2.614261,-1.612411 -2.947022,-1.57958 -0.332745,0.03284 -2.292874,2.294219 -2.581377,2.125202 -0.288498,-0.169017 0.725652,-2.98461 0.591586,-3.290898 -0.134066,-0.30631 -2.89051,-1.471676 -2.818901,-1.798284 0.07159,-0.326608 3.062732,-0.232141 3.312613,-0.454299 0.249897,-0.222157 0.506447,-3.203779 0.839192,-3.23661 0.332746,-0.03284 1.167248,2.841082 1.455751,3.010099 0.288503,0.169012 3.203469,-0.508365 3.337535,-0.20205 0.134055,0.306309 -2.341373,1.988033 -2.41293,2.314642 -0.07159,0.326613 1.473434,2.889579 1.223501,3.111747 z"
       id="path4187" />
  </g>
  <g
     id="g4201"
     transform="translate(4.2711864,-2.2372881)">
    <path
       id="use3154"
       d="m 42.444784,44.546843 c -0.21575,0.3594 -3.7317,-0.94981 -4.1175,-0.78587 -0.3858,0.16393 -1.8838,3.6037 -2.2922,3.5096 -0.40847,-0.09414 -0.24985,-3.8426 -0.52498,-4.1588 -0.27514,-0.31625 -4.0095,-0.67796 -4.0462,-1.0955 -0.0367,-0.41757 3.5773,-1.425 3.7931,-1.7844 0.21576,-0.3594 -0.59421,-4.0227 -0.20841,-4.1867 0.3858,-0.16394 2.4608,2.9619 2.8692,3.056 0.40848,0.09414 3.6422,-1.8082 3.9174,-1.492 0.27513,0.31625 -2.0565,3.2556 -2.0198,3.6732 0.0367,0.41758 2.8452,2.9052 2.6295,3.2646 z"
       inkscape:connector-curvature="0"
       style="fill:#005fbf;stroke:#003f7f;stroke-width:0.53600001;stroke-miterlimit:5;stroke-dasharray:none" />
    <path
       style="fill:#ffff00;stroke:#003f7f;stroke-width:0.27000001;stroke-miterlimit:5;stroke-dasharray:none"
       inkscape:connector-curvature="0"
       d="m 39.66021,42.745361 c -0.09205,0.153358 -1.59228,-0.405274 -1.756896,-0.335322 -0.164617,0.06995 -0.803798,1.537661 -0.978059,1.49751 -0.174289,-0.04016 -0.106596,-1.639598 -0.224003,-1.774517 -0.1174,-0.134938 -1.710812,-0.289279 -1.726472,-0.467439 -0.01558,-0.178172 1.526397,-0.608034 1.618477,-0.761385 0.09207,-0.153358 -0.253544,-1.716447 -0.08892,-1.786423 0.164617,-0.06995 1.05,1.263812 1.224259,1.303964 0.174295,0.04016 1.55409,-0.77154 1.671515,-0.636621 0.117401,0.134938 -0.877487,1.389132 -0.861828,1.567316 0.01558,0.178179 1.214019,1.23962 1.121981,1.392972 z"
       id="path4189" />
  </g>
  <g
     id="g4193"
     transform="translate(0,-5.7966102)">
    <path
       id="path3152"
       d="m 45.507606,35.054383 c -0.62035,0.52147 -6.2256,-4.082 -7.034,-4.0248 -0.80837,0.05722 -5.7091,5.4045 -6.3967,4.9757 -0.68763,-0.42885 1.9584,-7.1823 1.6542,-7.9334 -0.30424,-0.75112 -6.9042,-3.7596 -6.7088,-4.5461 0.19536,-0.78649 7.436,-0.35687 8.0563,-0.87832 0.62036,-0.52146 1.4421,-7.7281 2.2504,-7.7853 0.80837,-0.05724 2.6372,6.9617 3.3249,7.3906 0.68764,0.42885 7.7954,-1.0166 8.0997,-0.2655 0.30423,0.75112 -5.806,4.6594 -6.0014,5.446 -0.19536,0.7865 3.3758,7.0998 2.7554,7.6212 z"
       inkscape:connector-curvature="0"
       style="fill:#007fff;stroke:#003f7f;stroke-width:0.69099998;stroke-miterlimit:5" />
    <path
       style="fill:#ffff00;stroke:#003f7f;stroke-width:0.39525115;stroke-miterlimit:5"
       inkscape:connector-curvature="0"
       d="m 42.247875,30.941994 c -0.354839,0.298281 -3.561035,-2.334899 -4.023439,-2.302181 -0.462387,0.03273 -3.265599,3.091367 -3.658905,2.846095 -0.393324,-0.245302 1.120202,-4.108268 0.946201,-4.537896 -0.174025,-0.42964 -3.949195,-2.150487 -3.837426,-2.600364 0.11175,-0.449871 4.253383,-0.204129 4.608193,-0.502398 0.354846,-0.298273 0.82488,-4.420463 1.287227,-4.453181 0.462387,-0.03274 1.508475,3.982084 1.901839,4.227413 0.393329,0.245302 4.45896,-0.581493 4.633018,-0.151866 0.174019,0.429641 -3.321024,2.665172 -3.432793,3.115106 -0.11175,0.449877 1.930953,4.061077 1.576085,4.359318 z"
       id="path4191" />
  </g>
</svg>
