<?xml version="1.0" encoding="UTF-8" standalone="no"?>
<svg viewBox="0 0 686.2125 517.475" xml:space="preserve" xmlns="http://www.w3.org/2000/svg"><defs><clipPath id="clipPath6968"><path d="m0,0h2287v1724.92h-2287v-1724.92z"></path></clipPath></defs><g transform="matrix(1.25,0,0,-1.25,0,517.475)"><g transform="scale(.24)"><g clip-path="url(#clipPath6968)"><path d="m12.5,12.5h2262.39v1699.92h-2262.39v-1699.92z" fill="#f47216" fill-rule="evenodd"></path><path d="m12.5,12.5h2262.39v1699.92h-2262.39v-1699.92z" fill="none" stroke="#231f20" stroke-width="25"></path><path d="m2225.61,1012.44c0-69.038-69.75-125.002-155.79-125.002h-1838.355c-86.039,0-155.7931,55.964-155.7931,125.002v487.5c0,69.03 69.7541,125 155.7931,125h1838.355c86.04,0 155.79-55.97 155.79-125v-487.5" fill="#231f20"></path><path d="m2169.39,1121.21c0-23.01-19.88-41.67-44.39-41.67l-977.46-135.587-971.255,135.587c-24.519,0-44.39,18.66-44.39,41.67v270.83c0,23.01 19.871,41.67 44.39,41.67l972.275,137.5 976.44-137.5c24.51,0 44.39-18.66 44.39-41.67v-270.83" fill="#f47216"></path><path d="m354.609,1125.46-59.953,256.78h53.516l37.891-176.38 46.636,176.38h62.184l44.824-179.36 39.203,179.36h52.203l-61.972-256.78h-55.848l-50.668,191.98-50.766-191.98h-57.25" fill="#231f20"></path><path d="m869.922,1125.46h-56.027l-22.059,58.34h-102.906l-21.282-58.34h-55.019l99.746,256.78h54.883l102.664-256.78zm-94.988,101.57-35.485,95.31-34.761-95.31h70.246" fill="#231f20"></path><path d="m897.918,1125.46v256.78h109.062c27.42,0 47.35-2.31 59.78-6.92s22.37-12.8 29.85-24.58c7.46-11.79 11.2-25.26 11.2-40.42 0-19.26-5.62-35.15-16.85-47.69-11.25-12.55-28.04-20.45-50.39-23.72 11.11-6.55 20.29-13.74 27.52-21.57s16.99-21.74 29.27-41.73l31.28-50.15h-61.31l-37.52,56.18c-13.36,19.88-22.51,32.42-27.43,37.59-4.923,5.18-10.138,8.73-15.646,10.65s-14.242,2.88-26.187,2.88h-10.547v-107.3h-52.082zm52.082,148.44h38.148c24.732,0 40.172,1.05 46.332,3.15 6.15,2.1 10.98,5.72 14.46,10.85 3.49,5.14 5.23,11.56 5.23,19.26 0,8.63-2.3,15.6-6.89,20.9-4.59,5.31-11.06,8.67-19.42,10.07-4.18.58-16.73.88-37.626.88h-40.234v-65.11" fill="#231f20"></path><path d="m1157.15,1125.46v256.78h50.23l106.55-172.94v172.94h47.91v-256.78h-51.82l-104.95,169.35v-169.35h-47.92" fill="#231f20"></path><path d="m1414.84,1125.46h52.0859v256.773h-52.0859v-256.773z" fill="#231f20"></path><path d="m1516.14,1125.46v256.78h50.22l106.55-172.94v172.94h47.91v-256.78h-51.82l-104.95,169.35v-169.35h-47.91" fill="#231f20"></path><path d="m1895.17,1219.74v43.22h111.46v-102.46c-10.86-10.5-26.59-19.74-47.2-27.73-20.61-8-41.48-11.99-62.61-11.99-26.86,0-50.27,5.65-70.23,16.95-19.97,11.29-34.96,27.44-45.01,48.45-10.04,21-15.06,43.86-15.06,68.55 0,26.8 5.61,50.62 16.83,71.45 11.21,20.84 27.63,36.81 49.26,47.93 16.47,8.54 36.98,12.82 61.52,12.82 31.91,0 56.82-6.65 74.76-19.93 17.93-13.29 29.47-31.64 34.61-55.07l-51.56-9.9c-3.62,12.55-10.42,22.46-20.39,29.73-9.98,7.26-22.43,10.9-37.35,10.9-22.65,0-40.64-7.21-53.99-21.64-13.36-14.41-20.04-35.81-20.04-64.18 0-30.6 6.77-53.54 20.32-68.84s31.31-22.95 53.26-22.95c10.86,0 21.76,2.13 32.68,6.41 10.92,4.29 20.28,9.47 28.12,15.58v32.7h-59.38" fill="#231f20"></path><path d="m284.645,615.125v148.695h-53.125v30.207h142.187v-30.207h-52.867v-148.695h-36.195" fill="#231f20"></path><path d="m396.727,615.125v178.902h36.199v-70.312h70.574v70.312h36.195v-178.902h-36.195v78.383h-70.574v-78.383h-36.199" fill="#231f20"></path><path d="m576.23,615.125h36.1953v178.902h-36.1953v-178.902z" fill="#231f20"></path><path d="m637.355,673.195 35.153,3.387c2.109-11.824 6.387-20.512 12.832-26.059 6.449-5.543 15.148-8.316 26.094-8.316 11.593,0 20.332,2.473 26.211,7.41s8.82,10.715 8.82,17.332c0,4.246-1.235,7.86-3.699,10.84-2.469,2.977-6.778,5.574-12.934,7.777-4.207,1.477-13.793,4.106-28.769,7.879-19.262,4.84-32.778,10.766-40.551,17.785-10.93,9.875-16.387,21.915-16.387,36.118 0,9.14 2.57,17.679 7.715,25.644 5.148,7.957 12.558,14.016 22.242,18.18s21.371,6.246 35.066,6.246c22.364,0 39.204-4.953 50.5-14.84 11.305-9.887 17.239-23.086 17.809-39.59l-36.199-1.3c-1.528,9.16-4.805,15.746-9.832,19.757s-12.571,6.02-22.625,6.02c-10.375,0-18.5-2.152-24.367-6.461-3.789-2.766-5.676-6.465-5.676-11.094 0-4.234 1.781-7.851 5.347-10.859 4.524-3.824 15.532-7.828 33.012-12.012s30.406-8.5 38.781-12.953 14.93-10.535 19.668-18.254c4.731-7.715 7.102-17.25 7.102-28.598 0-10.293-2.848-19.925-8.535-28.914-5.688-8.984-13.738-15.66-24.137-20.027-10.406-4.367-23.367-6.555-38.887-6.555-22.597,0-39.945,5.235-52.054,15.7-12.11,10.464-19.348,25.722-21.7,45.757" fill="#231f20"></path><path d="m882.676,615.125v178.902h54.14l32.188-122.035 31.786,122.035h54.28v-178.902h-33.33l-.13,140.832-35.313-140.832h-35l-35.16,140.832-.129-140.832h-33.332" fill="#231f20"></path><path d="m1252.64,615.125h-38.97l-15.48,40.625h-72.07l-14.83-40.625h-38.33l69.43,178.902h38.18l72.07-178.902zm-66.25,70.832-25.02,66.406-24.23-66.406h49.25" fill="#231f20"></path><path d="m1386.05,681.008 35.16-10.938c-5.38-19.64-14.32-34.234-26.82-43.765-12.5-9.543-28.35-14.305-47.57-14.305-23.78,0-43.33,8.129-58.63,24.395-15.32,16.273-22.97,38.507-22.97,66.722 0,29.84 7.69,53.02 23.08,69.531s35.62,24.77 60.7,24.77c21.9,0 39.69-6.473 53.37-19.402 8.14-7.645 14.24-18.629 18.32-32.946l-35.68-8.59c-2.12,9.254-6.54,16.559-13.27,21.911-6.73,5.355-14.9,8.035-24.52,8.035-13.29,0-24.08-4.766-32.35-14.297s-12.41-24.977-12.41-46.32c0-22.657 4.06-38.789 12.2-48.399s18.71-14.422 31.73-14.422c9.6,0 17.85,3.059 24.77,9.172s11.88,15.727 14.89,28.848" fill="#231f20"></path><path d="m1452.27,615.125v178.902h36.2v-70.312h70.57v70.312h36.2v-178.902h-36.2v78.383h-70.57v-78.383h-36.2" fill="#231f20"></path><path d="m1631.77,615.125h36.2031v178.902h-36.2031v-178.902z" fill="#231f20"></path><path d="m1702.27,615.125v178.902h34.94l73.92-120.359v120.359h33.33v-178.902h-36.04l-72.81,118.066v-118.066h-33.34" fill="#231f20"></path><path d="m1882.81,615.125v178.902h132.56v-30.207h-96.36v-39.582h89.59v-30.211h-89.59v-48.695h99.74v-30.207h-135.94" fill="#231f20"></path><path d="m646.691,412.793 35.161,3.387c2.101-11.825 6.382-20.512 12.832-26.059s15.14-8.316 26.086-8.316c11.601,0 20.335,2.468 26.214,7.406s8.825,10.719 8.825,17.336c0,4.246-1.239,7.855-3.704,10.836-2.472,2.98-6.781,5.574-12.933,7.781-4.207,1.473-13.797,4.098-28.774,7.879-19.261,4.836-32.777,10.766-40.543,17.781-10.929,9.875-16.394,21.918-16.394,36.117 0,9.141 2.574,17.684 7.723,25.645 5.14,7.961 12.554,14.019 22.238,18.18 9.687,4.164 21.371,6.246 35.07,6.246 22.363,0 39.196-4.949 50.5-14.836 11.305-9.887 17.235-23.09 17.805-39.594l-36.195-1.297c-1.536,9.156-4.809,15.742-9.84,19.758-5.028,4.012-12.567,6.02-22.621,6.02-10.379,0-18.504-2.153-24.371-6.461-3.782-2.77-5.668-6.469-5.668-11.102 0-4.23 1.773-7.848 5.339-10.855 4.532-3.825 15.536-7.829 33.016-12.012s30.406-8.5 38.781-12.949 14.93-10.539 19.664-18.254c4.735-7.719 7.102-17.25 7.102-28.602 0-10.289-2.844-19.93-8.531-28.91s-13.739-15.664-24.141-20.031-23.367-6.555-38.887-6.555c-22.593,0-39.945,5.234-52.054,15.703s-19.344,25.719-21.7,45.758" fill="#231f20"></path><path d="m863.441,354.723v148.695h-53.125v30.207h142.188v-30.207h-52.867v-148.695h-36.196" fill="#231f20"></path><path d="m1118.43,354.723h-38.98l-15.47,40.625h-72.082l-14.824-40.625h-38.332l69.438,178.902h38.18l72.07-178.902zm-66.25,70.832-25.03,66.402-24.22-66.402h49.25" fill="#231f20"></path><path d="m1137.51,354.723v178.902h76.05c19.12,0 33.01-1.605 41.68-4.816s15.6-8.926 20.81-17.133 7.81-17.606 7.81-28.172c0-13.422-3.93-24.496-11.79-33.238s-19.61-14.246-35.25-16.52c7.79-4.562 14.22-9.57 19.29-15.023 5.07-5.457 11.89-15.149 20.5-29.071l21.84-34.929h-43.21l-25.97,39.035c-9.3,13.89-15.66,22.644-19.09,26.258-3.42,3.613-7.06,6.093-10.89,7.433-3.84,1.34-9.91,2.008-18.23,2.008h-7.35v-74.734h-36.2zm36.2,103.382h26.71c17.31,0 28.12.727 32.43,2.196 4.3,1.457 7.68,3.976 10.12,7.551 2.43,3.574 3.66,8.035 3.66,13.398 0,6.004-1.61,10.859-4.82,14.555-3.21,3.695-7.74,6.023-13.6,7.004-2.92.406-11.71.609-26.33.609h-28.17v-45.313" fill="#231f20"></path><path d="m1358.68,354.723v148.695h-53.13v30.207h142.19v-30.207h-52.86v-148.695h-36.2" fill="#231f20"></path><path d="m1461.39,412.793 35.15,3.387c2.11-11.825 6.39-20.512 12.84-26.059 6.44-5.547 15.14-8.316 26.08-8.316 11.6,0 20.34,2.468 26.22,7.406s8.82,10.719 8.82,17.336c0,4.246-1.23,7.855-3.7,10.836s-6.78,5.574-12.93,7.781c-4.21,1.473-13.8,4.098-28.77,7.879-19.26,4.836-32.78,10.766-40.55,17.781-10.93,9.875-16.39,21.918-16.39,36.117 0,9.141 2.57,17.684 7.72,25.645 5.14,7.961 12.56,14.019 22.24,18.18 9.69,4.164 21.37,6.246 35.07,6.246 22.36,0 39.19-4.949 50.49-14.836 11.31-9.887 17.24-23.09 17.81-39.594l-36.2-1.297c-1.53,9.156-4.8,15.742-9.83,19.758-5.03,4.012-12.57,6.02-22.62,6.02-10.38,0-18.51-2.153-24.38-6.461-3.78-2.77-5.67-6.469-5.67-11.102 0-4.23 1.78-7.848 5.35-10.855 4.53-3.825 15.54-7.829 33.01-12.012 17.49-4.184 30.41-8.5 38.78-12.949 8.38-4.454 14.94-10.539 19.68-18.254 4.72-7.719 7.09-17.25 7.09-28.602 0-10.289-2.84-19.93-8.53-28.91s-13.74-15.664-24.13-20.031c-10.41-4.367-23.38-6.555-38.9-6.555-22.59,0-39.94,5.234-52.05,15.703s-19.34,25.719-21.7,45.758" fill="#231f20"></path><path d="m273.777,83.8984h-38.984l-15.473,40.6246h-72.074l-14.824-40.6246h-38.3322l69.4372,178.9106h38.172l72.078-178.9106zm-66.254,70.8356-25.023,66.407-24.227-66.407h49.25" fill="#231f20"></path><path d="m292.859,262.809h36.2v-97.039c0-15.403.441-25.383 1.332-29.946 1.539-7.332 5.199-13.219 10.988-17.656 5.785-4.445 13.699-6.664 23.738-6.664 10.196,0 17.883,2.098 23.063,6.297s8.297,9.344 9.351,15.457 1.578,16.254 1.578,30.433v99.118h36.2v-94.141c0-21.523-.981-36.723-2.93-45.605-1.945-8.887-5.543-16.387-10.777-22.5-5.243-6.1138-12.25-10.981-21.024-14.6099-8.773-3.6211-20.226-5.4375-34.363-5.4375-17.063,0-29.996,1.9805-38.809,5.9297-8.816,3.9531-15.781,9.0899-20.898,15.4067-5.121,6.312-8.492,12.937-10.117,19.863-2.356,10.273-3.532,25.43-3.532,45.48v95.614" fill="#231f20"></path><path d="m514.023,83.8984v148.7036h-53.125v30.207h142.188v-30.207h-52.859v-148.7036h-36.204" fill="#231f20"></path><path d="m614.305,172.25c0,18.293 2.722,33.645 8.179,46.055 4.071,9.14 9.629,17.347 16.676,24.617 7.043,7.266 14.758,12.652 23.149,16.164 11.152,4.738 24.019,7.105 38.601,7.105 26.383,0 47.488-8.203 63.332-24.617s23.758-39.234 23.758-68.465c0-28.988-7.863-51.668-23.574-68.039-15.723-16.3708-36.731-24.5544-63.031-24.5544-26.629,0-47.805,8.1446-63.516,24.4334-15.719,16.289-23.574,38.723-23.574,67.301zm37.238,1.227c0-20.336 4.687-35.747 14.066-46.235s21.286-15.738 35.723-15.738 26.285,5.203 35.543,15.613c9.254,10.406 13.887,26.024 13.887,46.844 0,20.578-4.508,35.93-13.52,46.051-9.015,10.125-20.984,15.191-35.91,15.191-14.922,0-26.953-5.129-36.09-15.375-9.133-10.246-13.699-25.699-13.699-46.351" fill="#231f20"></path><path d="m815.793,83.8984v178.9106h54.141l32.187-122.039 31.781,122.039h54.286v-178.9106h-33.333l-.128,140.8356-35.313-140.8356h-35l-35.16,140.8356-.129-140.8356h-33.332" fill="#231f20"></path><path d="m1185.76,83.8984h-38.97l-15.48,40.6246h-72.08l-14.82-40.6246h-38.34l69.44,178.9106h38.18l72.07-178.9106zm-66.25,70.8356-25.02,66.407-24.23-66.407h49.25" fill="#231f20"></path><path d="m1226.91,83.8984v148.7036h-53.12v30.207h142.19v-30.207h-52.87v-148.7036h-36.2" fill="#231f20"></path><path d="m1337.96,83.8984h36.1953v178.91h-36.1953v-178.91z" fill="#231f20"></path><path d="m1522.78,149.789 35.16-10.937c-5.37-19.649-14.32-34.239-26.82-43.7739-12.5-9.5351-28.36-14.2968-47.57-14.2968-23.78,0-43.33,8.121-58.64,24.3947-15.3,16.265-22.96,38.504-22.96,66.715 0,29.847 7.69,53.023 23.07,69.535 15.4,16.512 35.62,24.765 60.71,24.765 21.9,0 39.69-6.464 53.37-19.398 8.13-7.648 14.25-18.629 18.32-32.941l-35.68-8.598c-2.12,9.254-6.54,16.559-13.26,21.914-6.74,5.352-14.91,8.035-24.53,8.035-13.29,0-24.07-4.769-32.35-14.301s-12.41-24.972-12.41-46.32c0-22.652 4.06-38.785 12.2-48.394 8.13-9.618 18.72-14.422 31.74-14.422 9.58,0 17.85,3.054 24.76,9.168s11.88,15.73 14.89,28.855" fill="#231f20"></path><path d="m1750.46,83.8984h-38.98l-15.47,40.6246h-72.08l-14.82-40.6246h-38.34l69.44,178.9106h38.18l72.07-178.9106zm-66.26,70.8356-25.02,66.407-24.23-66.407h49.25" fill="#231f20"></path><path d="m1770.58,83.8984v177.6056h36.2v-147.395h89.58v-30.2106h-125.78" fill="#231f20"></path><path d="m1923.29,83.8984v177.6056h36.2v-147.395h89.58v-30.2106h-125.78" fill="#231f20"></path><path d="m2098.76,83.8984v75.3006l-65.5,103.61h42.36l42.21-70.739 41.04,70.739h41.58l-65.5-103.856v-75.0546h-36.19" fill="#231f20"></path></g></g></g></svg>
