<?xml version="1.0" encoding="UTF-8" standalone="no"?>
<!-- Created with Inkscape (http://www.inkscape.org/) -->

<svg
   xmlns:dc="http://purl.org/dc/elements/1.1/"
   xmlns:cc="http://creativecommons.org/ns#"
   xmlns:rdf="http://www.w3.org/1999/02/22-rdf-syntax-ns#"
   xmlns:svg="http://www.w3.org/2000/svg"
   xmlns="http://www.w3.org/2000/svg"
   xmlns:sodipodi="http://sodipodi.sourceforge.net/DTD/sodipodi-0.dtd"
   xmlns:inkscape="http://www.inkscape.org/namespaces/inkscape"
   id="svg4221"
   version="1.1"
   inkscape:version="0.91 r13725"
   xml:space="preserve"
   width="652.34625"
   height="232.22775"
   viewBox="0 0 652.34626 232.22775"
   sodipodi:docname="XJetLogo.svg"
   inkscape:export-filename="/home/simon/Incoming/Xjet.jpg"
   inkscape:export-xdpi="17.52137"
   inkscape:export-ydpi="17.52137"><metadata
     id="metadata4227"><rdf:RDF><cc:Work
         rdf:about=""><dc:format>image/svg+xml</dc:format><dc:type
           rdf:resource="http://purl.org/dc/dcmitype/StillImage" /><dc:title></dc:title></cc:Work></rdf:RDF></metadata><defs
     id="defs4225"><clipPath
       clipPathUnits="userSpaceOnUse"
       id="clipPath4235"><path
         d="m 0,234 583.28,0 0,-234 L 0,0 0,234 Z"
         id="path4237"
         inkscape:connector-curvature="0" /></clipPath></defs><sodipodi:namedview
     pagecolor="#ffffff"
     bordercolor="#666666"
     borderopacity="1"
     objecttolerance="10"
     gridtolerance="10"
     guidetolerance="10"
     inkscape:pageopacity="0"
     inkscape:pageshadow="2"
     inkscape:window-width="756"
     inkscape:window-height="480"
     id="namedview4223"
     showgrid="false"
     fit-margin-top="0"
     fit-margin-left="0"
     fit-margin-right="0"
     fit-margin-bottom="0"
     inkscape:zoom="0.28125219"
     inkscape:cx="228.68789"
     inkscape:cy="-13.017852"
     inkscape:window-x="689"
     inkscape:window-y="283"
     inkscape:window-maximized="0"
     inkscape:current-layer="g4229" /><g
     id="g4229"
     inkscape:groupmode="layer"
     inkscape:label="XJET_LOGO"
     transform="matrix(1.25,0,0,-1.25,-38.3765,267.2305)"><g
       id="g4231"
       transform="translate(0,-1.0742187e-6)"><g
         id="g4233"
         clip-path="url(#clipPath4235)"><g
           id="g4239"
           transform="translate(111.6152,125.3184)"><path
             d="m 0,0 28.31,86.95 c 6.573,1.012 12.893,1.516 18.96,1.516 3.198,0 6.444,-0.086 9.73,-0.251 3.287,-0.171 6.613,-0.507 9.983,-1.01 L 34.883,0.758 74.314,-94.283 c -3.877,-0.504 -7.29,-0.884 -10.237,-1.139 -2.951,-0.252 -5.94,-0.376 -8.972,-0.376 -2.868,0 -5.775,0.124 -8.72,0.376 -2.952,0.255 -6.533,0.721 -10.743,1.393 L 0,0 Z m -40.977,0.758 -32.608,86.447 c 3.37,0.503 6.7,0.839 9.986,1.01 3.286,0.165 6.528,0.251 9.732,0.251 6.066,0 12.385,-0.504 18.957,-1.516 L -6.096,0 -42.24,-94.029 c -4.214,-0.672 -7.796,-1.138 -10.743,-1.393 -2.951,-0.252 -5.857,-0.376 -8.721,-0.376 -3.033,0 -6.026,0.124 -8.972,0.376 -2.951,0.255 -6.364,0.635 -10.238,1.139 l 39.937,95.041 z"
             style="fill:#ed1c24;fill-opacity:1;fill-rule:nonzero;stroke:none"
             id="path4241"
             inkscape:connector-curvature="0" /></g><g
           id="g4243"
           transform="translate(245.0317,181.4312)"><path
             d="m 0,0 -30.079,0 c -0.506,2.358 -0.884,4.93 -1.138,7.71 -0.252,2.781 -0.379,5.516 -0.379,8.215 0,5.392 0.506,10.528 1.517,15.418 l 66.984,0 0,-133.461 c 0,-9.27 -1.478,-17.148 -4.425,-23.633 -2.95,-6.489 -6.993,-11.799 -12.133,-15.922 -5.141,-4.131 -11.207,-7.122 -18.198,-8.977 -6.995,-1.851 -14.621,-2.779 -22.875,-2.779 -2.868,0 -6.446,0.253 -10.743,0.758 -4.298,0.505 -8.385,1.263 -12.26,2.275 -0.17,1.176 -0.295,2.358 -0.379,3.537 -0.087,1.178 -0.127,2.442 -0.127,3.793 0,7.748 1.429,15.503 4.297,23.255 1.854,-0.339 3.875,-0.759 6.067,-1.267 2.189,-0.502 4.464,-0.757 6.824,-0.757 2.865,0 5.897,0.168 9.101,0.508 3.199,0.336 6.106,1.347 8.72,3.032 2.611,1.681 4.803,4.17 6.573,7.456 1.768,3.287 2.653,7.963 2.653,14.029 L 0,0 Z"
             style="fill:#110f0d;fill-opacity:1;fill-rule:nonzero;stroke:none"
             id="path4245"
             inkscape:connector-curvature="0" /></g><g
           id="g4247"
           transform="translate(301.0586,212.7739)"><path
             d="m 0,0 103.129,0 c 1.012,-5.054 1.517,-10.197 1.517,-15.418 0,-5.561 -0.505,-10.868 -1.517,-15.925 l -66.226,0 0,-39.43 52.576,0 c 1.012,-5.396 1.517,-10.616 1.517,-15.674 0,-5.392 -0.505,-10.7 -1.517,-15.922 l -52.576,0 0,-48.027 67.994,0 c 1.013,-5.054 1.519,-10.196 1.519,-15.417 0,-5.562 -0.506,-10.869 -1.519,-15.926 L 0,-181.739 0,0 Z"
             style="fill:#110f0d;fill-opacity:1;fill-rule:nonzero;stroke:none"
             id="path4249"
             inkscape:connector-curvature="0" /></g><g
           id="g4251"
           transform="translate(468.6602,181.4312)"><path
             d="m 0,0 -45.245,0 c -1.009,5.057 -1.517,10.364 -1.517,15.925 0,5.221 0.508,10.364 1.517,15.418 l 127.647,0 C 83.414,26.289 83.918,21.146 83.918,15.925 83.918,10.364 83.414,5.057 82.402,0 l -45.243,0 0,-150.396 c -3.034,-0.336 -6.069,-0.631 -9.101,-0.884 -3.032,-0.255 -5.983,-0.381 -8.848,-0.381 -2.865,0 -5.938,0.089 -9.226,0.253 -3.286,0.172 -6.615,0.508 -9.984,1.012 L 0,0 Z"
             style="fill:#110f0d;fill-opacity:1;fill-rule:nonzero;stroke:none"
             id="path4253"
             inkscape:connector-curvature="0" /></g></g></g></g></svg>