<?xml version="1.0" encoding="UTF-8" standalone="no"?>
<!-- Created with Inkscape (http://www.inkscape.org/) -->

<svg
   xmlns:dc="http://purl.org/dc/elements/1.1/"
   xmlns:cc="http://creativecommons.org/ns#"
   xmlns:rdf="http://www.w3.org/1999/02/22-rdf-syntax-ns#"
   xmlns:svg="http://www.w3.org/2000/svg"
   xmlns="http://www.w3.org/2000/svg"
   xmlns:sodipodi="http://sodipodi.sourceforge.net/DTD/sodipodi-0.dtd"
   xmlns:inkscape="http://www.inkscape.org/namespaces/inkscape"
   id="svg2"
   version="1.1"
   inkscape:version="0.91 r13725"
   width="646.05994"
   height="245.8472"
   sodipodi:docname="xjet-logo.svg">
  <metadata
     id="metadata8">
    <rdf:RDF>
      <cc:Work
         rdf:about="">
        <dc:format>image/svg+xml</dc:format>
        <dc:type
           rdf:resource="http://purl.org/dc/dcmitype/StillImage" />
        <dc:title></dc:title>
      </cc:Work>
    </rdf:RDF>
  </metadata>
  <defs
     id="defs6">
    <clipPath
       clipPathUnits="userSpaceOnUse"
       id="clipPath3000">
      <rect
         style="fill:none;stroke:#000000;stroke-width:0.0854805;stroke-miterlimit:4;stroke-dasharray:none;stroke-opacity:1"
         id="rect3002"
         width="388.66837"
         height="264.53177"
         x="24.977655"
         y="48.939507" />
    </clipPath>
  </defs>
  <sodipodi:namedview
     pagecolor="#ffffff"
     bordercolor="#666666"
     borderopacity="1"
     objecttolerance="10"
     gridtolerance="10"
     guidetolerance="10"
     inkscape:pageopacity="0"
     inkscape:pageshadow="2"
     inkscape:window-width="1890"
     inkscape:window-height="998"
     id="namedview4"
     showgrid="false"
     inkscape:zoom="0.60800313"
     inkscape:cx="343.38251"
     inkscape:cy="-2.8601086"
     inkscape:window-x="30"
     inkscape:window-y="24"
     inkscape:window-maximized="1"
     inkscape:current-layer="svg2"
     fit-margin-top="0"
     fit-margin-left="0"
     fit-margin-right="0"
     fit-margin-bottom="0" />
  <path
     sodipodi:nodetypes="cccscccscccccccccccccccccccccccccccccccc"
     inkscape:connector-curvature="0"
     id="path2991"
     d="m 290.54545,228.69354 -30.80077,43.58922 c -5.91415,7.14058 -13.548,11.70516 -20.71476,12.26619 -4.00914,0.29579 -10.42832,0.38192 -21.88375,0.44569 l -24.84634,0.13832 65.9968,-105.00803 -68.22084,-107.401486 51.00266,-0.04123 c 5.8414,-0.0047 11.95018,5.482288 16.41191,9.95903 1.90478,1.966908 9.77978,13.13077 17.5,24.808576 l 48.80355,70.83341 z m -260.428859,53.18154 154.455229,-2.5849 -4.09081,5.89203 z m 10.99809,-33.38369 164.839799,-3.42672 -3.57252,6.11754 z m 10.09098,-34.8861 178.733599,-2.02314 -4.78733,7.18156 z m 7.54705,-34.77555 186.434989,-3.39116 3.2966,6.24497 z m -9,-34.01748 172.470159,-3.56635 3.82272,6.43562 z m -10.72498,-34.0217 160.049769,-4.26108 5.11339,6.37142 z M 28.752711,75.820307 180.05445,73.98146 l 4.38156,6.435394 z"
     style="fill:#706e74"
     clip-path="url(#clipPath3000)"
     transform="translate(-28.752711,-40.822056)" />
  <path
     sodipodi:nodetypes="ccccccsscscsssscccccccscccsssssssscssssscssssssscssssccccccccccccccssssccccc"
     inkscape:connector-curvature="0"
     id="path2989"
     d="m 300.42617,245.66865 -38.90698,-57.80439 33.065,-50.31163 68.316,108.29456 z m 63.63294,-47.11275 c -4.125,-0.47513 -8.0625,-1.07762 -8.75,-1.33888 -0.91261,-0.34681 -1.25,-4.02687 -1.25,-13.63421 l 0,-13.1592 4.25,0.86905 c 2.3375,0.47798 8.15562,0.873 12.92916,0.87781 7.20088,0.007 9.15961,-0.34288 11.5,-2.05577 3.51414,-2.57195 5.99706,-7.45519 7.30955,-14.37594 1.08115,-5.70087 1.44977,-92.753286 0.4043,-95.477736 -0.49978,-1.302398 -2.44814,-1.581788 -11.03078,-1.581788 l -10.42379,0 0.28078,-12.249996 0.28078,-12.25 28.78306,-0.26539 28.78307,-0.26539 -0.28307,68.26538 -0.28306,68.26539 c 0.0118,5.67698 -5.03544,14.13647 -12.67713,19.99219 -6.27712,4.81007 -14.83257,7.52177 -19.25653,8.41333 -6.7678,1.24834 -19.58284,1.23624 -30.56634,-0.0289 z m 121,-43.37269 c -33.67102,-6.7761 -50.65468,-29.64578 -48.64506,-65.503976 1.06239,-18.95655 6.32844,-31.816028 17.6088,-42.999994 11.68791,-11.58803 24.87286,-16.26965 46.03626,-16.34624 24.87961,-0.09 40.1472,7.80893 49.00328,25.352736 3.8875,7.701098 5.63605,16.015588 6.52618,31.032488 0.56014,9.4499 0.42232,11.75614 -0.76121,12.73838 -1.05827,0.878286 -12.13048,1.269436 -41.35672,1.461006 l -39.91153,0.26162 -0.31475,3.26869 c -0.42722,4.43663 3.63468,12.98896 8.33896,17.55771 5.87639,5.70707 10.9026,6.81582 34.47579,7.60514 19.09935,0.63952 20.88197,0.86152 26.09052,3.24911 7.8652,3.60539 10.29628,7.34741 10.76175,16.56494 l 0.36633,7.25441 -30.8593,-0.094 c -21.08752,-0.0642 -32.91756,-0.50815 -37.3593,-1.40202 z m 36.572,-78.934846 c 1.09905,-4.37896 -2.38415,-13.69934 -6.6289,-17.737668 -7.24693,-6.894516 -22.67464,-7.583726 -31.97585,-1.42848 -4.38226,2.900038 -8.79374,9.752948 -9.64156,14.977458 -1.11086,6.84543 -1.934,6.61956 24.12387,6.61956 l 23.51234,0 z m 85.928,79.360156 c -18.08108,-1.72523 -27.94006,-8.82506 -32.53442,-23.42929 -0.85195,-2.70811 -1.45332,-15.14251 -1.86197,-38.499996 l -0.60361,-34.795688 -13.5,0 0,-12.704306 0,-12.70431 14.32438,0 0,-33.47493 37.64701,0 0,33.47493 35.02861,0 0,12.70431 0,12.704306 -35.02861,0 0,58.386314 c -0.01,11.64664 9.18489,13.57417 17.36787,13.62117 3.38841,-0.021 8.12982,-0.75226 10.53647,-1.625 7.35906,-2.66867 7.12427,-3.02638 7.12427,10.85418 0,6.84254 -0.38381,12.67819 -0.85291,12.96811 -3.20607,1.98146 -26.76484,3.55855 -37.64709,2.5202 z m -346.71329,-67.687966 37.2133,-55.241314 62.93937,0.75 c -0.11339,1.40278 -65.33477,103.75887 -66.39009,104.11064 z"
     style="fill:#045488" />
</svg>
