<?xml version="1.0" encoding="UTF-8" standalone="no"?>
<!-- Created with Inkscape (http://www.inkscape.org/) -->

<svg
   xmlns:dc="http://purl.org/dc/elements/1.1/"
   xmlns:cc="http://creativecommons.org/ns#"
   xmlns:rdf="http://www.w3.org/1999/02/22-rdf-syntax-ns#"
   xmlns:svg="http://www.w3.org/2000/svg"
   xmlns="http://www.w3.org/2000/svg"
   xmlns:xlink="http://www.w3.org/1999/xlink"
   xmlns:sodipodi="http://sodipodi.sourceforge.net/DTD/sodipodi-0.dtd"
   xmlns:inkscape="http://www.inkscape.org/namespaces/inkscape"
   id="svg4221"
   version="1.1"
   inkscape:version="0.92.1 r15371"
   xml:space="preserve"
   width="213.33333"
   height="213.33333"
   viewBox="0 0 200 200"
   sodipodi:docname="XJetX_3D.svg"
   inkscape:export-filename="D:\Simon\Incoming\xjetlogotree_develop.jpg"
   inkscape:export-xdpi="7.1999998"
   inkscape:export-ydpi="7.1999998"><metadata
     id="metadata4227"><rdf:RDF><cc:Work
         rdf:about=""><dc:format>image/svg+xml</dc:format><dc:type
           rdf:resource="http://purl.org/dc/dcmitype/StillImage" /><dc:title></dc:title></cc:Work></rdf:RDF></metadata><defs
     id="defs4225"><linearGradient
       inkscape:collect="always"
       id="linearGradient847"><stop
         style="stop-color:#ff0000;stop-opacity:1;"
         offset="0"
         id="stop843" /><stop
         style="stop-color:#ff0000;stop-opacity:0;"
         offset="1"
         id="stop845" /></linearGradient><linearGradient
       inkscape:collect="always"
       id="linearGradient839"><stop
         style="stop-color:#ff0000;stop-opacity:1"
         offset="0"
         id="stop835" /><stop
         style="stop-color:#990000;stop-opacity:1"
         offset="1"
         id="stop837" /></linearGradient><clipPath
       clipPathUnits="userSpaceOnUse"
       id="clipPath4235"><path
         d="M 0,234 H 583.28 V 0 H 0 Z"
         id="path4237"
         inkscape:connector-curvature="0" /></clipPath><linearGradient
       inkscape:collect="always"
       xlink:href="#linearGradient839"
       id="linearGradient841"
       x1="12.222798"
       y1="87.890175"
       x2="80.498871"
       y2="-96.085915"
       gradientUnits="userSpaceOnUse" /><linearGradient
       inkscape:collect="always"
       xlink:href="#linearGradient847"
       id="linearGradient849"
       x1="-4.1161041"
       y1="12.934251"
       x2="39.116238"
       y2="-31.345463"
       gradientUnits="userSpaceOnUse" /></defs><sodipodi:namedview
     pagecolor="#ffffff"
     bordercolor="#666666"
     borderopacity="1"
     objecttolerance="10"
     gridtolerance="10"
     guidetolerance="10"
     inkscape:pageopacity="0"
     inkscape:pageshadow="2"
     inkscape:window-width="1092"
     inkscape:window-height="1008"
     id="namedview4223"
     showgrid="false"
     fit-margin-top="0"
     fit-margin-left="0"
     fit-margin-right="0"
     fit-margin-bottom="0"
     inkscape:zoom="1.4142136"
     inkscape:cx="89.135784"
     inkscape:cy="162.81315"
     inkscape:window-x="819"
     inkscape:window-y="0"
     inkscape:window-maximized="0"
     inkscape:current-layer="g4239"
     inkscape:measure-start="154.097,112.564"
     inkscape:measure-end="160.75,112.875" /><g
     id="g4229"
     inkscape:groupmode="layer"
     inkscape:label="XJET_LOGO"
     transform="matrix(1.25,0,0,-1.25,-38.3765,236.9005)"><g
       id="g4239"
       transform="matrix(1.0307419,0,0,0.86831937,114.10265,112.70366)"><path
         d="m 0,0 28.31,86.95 c 6.573,1.012 12.893,1.516 18.96,1.516 3.198,0 6.444,-0.086 9.73,-0.251 3.287,-0.171 6.613,-0.507 9.983,-1.01 L 30.112108,6.2559531 30.626771,-5.4283932 74.314,-94.283 c -3.877,-0.504 -7.29,-0.884 -10.237,-1.139 -2.951,-0.252 -5.94,-0.376 -8.972,-0.376 -2.868,0 -5.775,0.124 -8.72,0.376 -2.952,0.255 -6.533,0.721 -10.743,1.393 z m -40.977,0.758 -32.608,86.447 c 3.37,0.503 6.7,0.839 9.986,1.01 3.286,0.165 6.528,0.251 9.732,0.251 6.066,0 12.385,-0.504 18.957,-1.516 L -6.096,0 -42.24,-94.029 c -4.214,-0.672 -7.796,-1.138 -10.743,-1.393 -2.951,-0.252 -5.857,-0.376 -8.721,-0.376 -3.033,0 -6.026,0.124 -8.972,0.376 -2.951,0.255 -6.364,0.635 -10.238,1.139 z"
         style="fill:url(#linearGradient841);fill-opacity:1;fill-rule:nonzero;stroke:none"
         id="path4241"
         inkscape:connector-curvature="0"
         sodipodi:nodetypes="ccsccccccsccccccsccccsccc" /><path
         inkscape:connector-curvature="0"
         id="path819"
         style="fill:#ff0000;fill-opacity:1;fill-rule:nonzero;stroke:#000000;stroke-opacity:1;stroke-width:0.07927688;stroke-miterlimit:4;stroke-dasharray:none"
         d="M -40.977,0.758 -73.585,87.205 -34.587901,6.2559531 -34.587751,-5.4283932 -80.914,-94.283 Z"
         sodipodi:nodetypes="cccccc" /><path
         inkscape:connector-curvature="0"
         id="path829"
         style="fill:#990000;fill-opacity:1;fill-rule:nonzero;stroke:#000000;stroke-opacity:1;stroke-width:0.07927688;stroke-miterlimit:4;stroke-dasharray:none"
         d="M 30.112108,6.2559531 66.983,87.205 35.099016,0.758 74.314,-94.283 30.626771,-5.4283932 Z"
         sodipodi:nodetypes="cccccc" /><path
         sodipodi:nodetypes="cccc"
         d="m -34.587901,6.2559531 c 4.8e-5,-3.8947821 9.9e-5,-7.7895642 1.5e-4,-11.6843463 l 28.3624537,5.73420593 z"
         style="fill:#cf0000;fill-opacity:1;fill-rule:nonzero;stroke:#000000;stroke-opacity:1;stroke-width:0.07927688;stroke-miterlimit:4;stroke-dasharray:none"
         id="path831"
         inkscape:connector-curvature="0" /><path
         inkscape:connector-curvature="0"
         id="path833"
         style="fill:url(#linearGradient849);fill-opacity:1;fill-rule:nonzero;stroke:#000000;stroke-opacity:1;stroke-width:0.07927688;stroke-miterlimit:4;stroke-dasharray:none"
         d="M 30.626771,-5.4283932 30.112108,6.2559531 0,0 Z"
         sodipodi:nodetypes="cccc" /></g></g></svg>