<?xml version="1.0" encoding="UTF-8" standalone="no"?>
<!-- Created with Inkscape (http://www.inkscape.org/) -->

<svg
   xmlns:dc="http://purl.org/dc/elements/1.1/"
   xmlns:cc="http://creativecommons.org/ns#"
   xmlns:rdf="http://www.w3.org/1999/02/22-rdf-syntax-ns#"
   xmlns:svg="http://www.w3.org/2000/svg"
   xmlns="http://www.w3.org/2000/svg"
   xmlns:xlink="http://www.w3.org/1999/xlink"
   xmlns:sodipodi="http://sodipodi.sourceforge.net/DTD/sodipodi-0.dtd"
   xmlns:inkscape="http://www.inkscape.org/namespaces/inkscape"
   width="328.42874"
   height="100"
   viewBox="0 0 328.42874 100"
   id="svg2"
   version="1.1"
   inkscape:version="0.91 r13725"
   inkscape:export-filename="D:\Simon\Incoming\xjetlogolarge.png"
   inkscape:export-xdpi="90"
   inkscape:export-ydpi="90"
   sodipodi:docname="XjetWorkshopLogo_Develop.svg">
  <defs
     id="defs4">
    <clipPath
       clipPathUnits="userSpaceOnUse"
       id="clipPath4235">
      <path
         d="m 0,234 583.28,0 0,-234 L 0,0 0,234 Z"
         id="path4237"
         inkscape:connector-curvature="0" />
    </clipPath>
    <linearGradient
       y2="-38.88818"
       y1="375.79111"
       x2="797.93317"
       x1="782.90363"
       id="linearGradient4333"
       gradientUnits="userSpaceOnUse"
       gradientTransform="matrix(-0.49473,0.51056,-0.51056,-0.49473,626.65037,345.42675)">
      <stop
         id="stop4151"
         stop-color="#920309"
         offset="0" />
      <stop
         id="stop4153"
         stop-opacity="0"
         stop-color="#920309"
         offset="1" />
    </linearGradient>
    <linearGradient
       inkscape:collect="always"
       xlink:href="#linearGradient4333"
       id="linearGradient4534"
       gradientUnits="userSpaceOnUse"
       gradientTransform="matrix(-0.49473,0.51056,-0.51056,-0.49473,626.65037,345.42675)"
       x1="782.90363"
       y1="375.79111"
       x2="797.93317"
       y2="-38.88818" />
  </defs>
  <sodipodi:namedview
     id="base"
     pagecolor="#ffffff"
     bordercolor="#666666"
     borderopacity="1.0"
     inkscape:pageopacity="0.0"
     inkscape:pageshadow="2"
     inkscape:zoom="3.959798"
     inkscape:cx="175.01669"
     inkscape:cy="68.462579"
     inkscape:document-units="px"
     inkscape:current-layer="layer1"
     showgrid="false"
     units="px"
     inkscape:window-width="1920"
     inkscape:window-height="1019"
     inkscape:window-x="-9"
     inkscape:window-y="-9"
     inkscape:window-maximized="1"
     fit-margin-top="0"
     fit-margin-left="0"
     fit-margin-right="0"
     fit-margin-bottom="0" />
  <metadata
     id="metadata7">
    <rdf:RDF>
      <cc:Work
         rdf:about="">
        <dc:format>image/svg+xml</dc:format>
        <dc:type
           rdf:resource="http://purl.org/dc/dcmitype/StillImage" />
        <dc:title></dc:title>
      </cc:Work>
    </rdf:RDF>
  </metadata>
  <g
     inkscape:label="Layer 1"
     inkscape:groupmode="layer"
     id="layer1"
     transform="translate(-26.571259,-952.36213)">
    <g
       id="g4231"
       transform="matrix(0.24221911,0,0,-0.24221911,77.268549,1004.1448)">
      <g
         id="g4233"
         clip-path="url(#clipPath4235)">
        <g
           id="g4239"
           transform="translate(111.6152,125.3184)">
          <path
             d="m 0,0 28.31,86.95 c 6.573,1.012 12.893,1.516 18.96,1.516 3.198,0 6.444,-0.086 9.73,-0.251 3.287,-0.171 6.613,-0.507 9.983,-1.01 L 34.883,0.758 74.314,-94.283 c -3.877,-0.504 -7.29,-0.884 -10.237,-1.139 -2.951,-0.252 -5.94,-0.376 -8.972,-0.376 -2.868,0 -5.775,0.124 -8.72,0.376 -2.952,0.255 -6.533,0.721 -10.743,1.393 L 0,0 Z m -40.977,0.758 -32.608,86.447 c 3.37,0.503 6.7,0.839 9.986,1.01 3.286,0.165 6.528,0.251 9.732,0.251 6.066,0 12.385,-0.504 18.957,-1.516 L -6.096,0 -42.24,-94.029 c -4.214,-0.672 -7.796,-1.138 -10.743,-1.393 -2.951,-0.252 -5.857,-0.376 -8.721,-0.376 -3.033,0 -6.026,0.124 -8.972,0.376 -2.951,0.255 -6.364,0.635 -10.238,1.139 l 39.937,95.041 z"
             style="fill:#ed1c24;fill-opacity:1;fill-rule:nonzero;stroke:none"
             id="path4241"
             inkscape:connector-curvature="0" />
        </g>
        <g
           id="g4243"
           transform="translate(245.0317,181.4312)">
          <path
             d="m 0,0 -30.079,0 c -0.506,2.358 -0.884,4.93 -1.138,7.71 -0.252,2.781 -0.379,5.516 -0.379,8.215 0,5.392 0.506,10.528 1.517,15.418 l 66.984,0 0,-133.461 c 0,-9.27 -1.478,-17.148 -4.425,-23.633 -2.95,-6.489 -6.993,-11.799 -12.133,-15.922 -5.141,-4.131 -11.207,-7.122 -18.198,-8.977 -6.995,-1.851 -14.621,-2.779 -22.875,-2.779 -2.868,0 -6.446,0.253 -10.743,0.758 -4.298,0.505 -8.385,1.263 -12.26,2.275 -0.17,1.176 -0.295,2.358 -0.379,3.537 -0.087,1.178 -0.127,2.442 -0.127,3.793 0,7.748 1.429,15.503 4.297,23.255 1.854,-0.339 3.875,-0.759 6.067,-1.267 2.189,-0.502 4.464,-0.757 6.824,-0.757 2.865,0 5.897,0.168 9.101,0.508 3.199,0.336 6.106,1.347 8.72,3.032 2.611,1.681 4.803,4.17 6.573,7.456 1.768,3.287 2.653,7.963 2.653,14.029 L 0,0 Z"
             style="fill:#110f0d;fill-opacity:1;fill-rule:nonzero;stroke:none"
             id="path4245"
             inkscape:connector-curvature="0" />
        </g>
        <g
           id="g4247"
           transform="translate(301.0586,212.7739)">
          <path
             d="m 0,0 103.129,0 c 1.012,-5.054 1.517,-10.197 1.517,-15.418 0,-5.561 -0.505,-10.868 -1.517,-15.925 l -66.226,0 0,-39.43 52.576,0 c 1.012,-5.396 1.517,-10.616 1.517,-15.674 0,-5.392 -0.505,-10.7 -1.517,-15.922 l -52.576,0 0,-48.027 67.994,0 c 1.013,-5.054 1.519,-10.196 1.519,-15.417 0,-5.562 -0.506,-10.869 -1.519,-15.926 L 0,-181.739 0,0 Z"
             style="fill:#110f0d;fill-opacity:1;fill-rule:nonzero;stroke:none"
             id="path4249"
             inkscape:connector-curvature="0" />
        </g>
        <g
           id="g4251"
           transform="translate(468.6602,181.4312)">
          <path
             d="m 0,0 -45.245,0 c -1.009,5.057 -1.517,10.364 -1.517,15.925 0,5.221 0.508,10.364 1.517,15.418 l 127.647,0 C 83.414,26.289 83.918,21.146 83.918,15.925 83.918,10.364 83.414,5.057 82.402,0 l -45.243,0 0,-150.396 c -3.034,-0.336 -6.069,-0.631 -9.101,-0.884 -3.032,-0.255 -5.983,-0.381 -8.848,-0.381 -2.865,0 -5.938,0.089 -9.226,0.253 -3.286,0.172 -6.615,0.508 -9.984,1.012 L 0,0 Z"
             style="fill:#110f0d;fill-opacity:1;fill-rule:nonzero;stroke:none"
             id="path4253"
             inkscape:connector-curvature="0" />
        </g>
      </g>
    </g>
    <g
       id="g4155"
       transform="matrix(0.08569179,0,0,0.0855913,14.280176,928.16879)">
      <path
         id="path4157"
         d="m 230.55491,789.75024 c -10.08492,-24.05398 1.68737,-34.28164 27.95832,-57.38908 67.97455,-56.66138 81.0682,-69.41078 97.6541,-88.36979 24.48097,-26.18557 71.38442,-104.06321 85.21937,-116.78346 6.4389,-5.92011 29.65751,-17.45466 44.19501,-29.86876 11.2472,-10.24673 14.30637,-14.05187 25.49042,-31.21399 14.59606,10.3815 23.08251,15.50559 29.7888,17.84549 1.82692,5.57988 1.08356,32.13914 -10.24711,49.29545 -17.23781,14.42656 -29.09059,-1.03542 -56.35318,43.64857 -6.44462,7.60899 -39.36708,69.05629 -76.05529,106.91857 -36.68821,37.86228 -74.18051,65.64942 -102.08792,86.75129 -27.90741,21.10187 -45.50671,43.06266 -65.56252,19.16571 z"
         inkscape:connector-curvature="0"
         style="fill:#fa0b0d" />
      <path
         id="path4159"
         d="m 437.88983,632.85435 c 3.30991,-14.04987 -11.33173,-0.89504 24.5584,-62.19129 7.39908,-12.61615 14.75124,-25.63504 21.70725,-30.6885 6.95601,-5.05346 18.60595,2.80583 20.34242,4.48846 -12.7669,8.45657 -17.76723,14.65109 -27.95935,28.54702 -15.46425,24.55676 -30.40683,49.38334 -38.64872,59.84431 z"
         inkscape:connector-curvature="0"
         style="fill:#1b40f6" />
      <path
         id="path4161"
         d="m 240.64871,798.17864 c -2.16,-2.09303 10.93856,-1.30921 19.18757,-9.8222 8.24901,-8.51299 21.424,-9.81221 23.58401,-7.71918 -8.72444,6.60887 -11.50912,10.23093 -21.9448,15.85338 -9.96079,5.36662 -16.09794,3.77837 -20.82678,1.688 z"
         inkscape:connector-curvature="0"
         style="fill:#1b40f6" />
      <path
         id="path4163"
         d="m 176.12087,751.52101 c 15.84052,11.16625 33.13649,-3.17646 55.4052,-30.16203 54.49284,-69.72508 61.53912,-76.13169 93.24811,-104.84183 25.40169,-25.2934 100.12024,-75.32585 114.02277,-88.191 17.71671,-11.19207 31.20726,-18.3183 47.46408,-31.1703 10.43002,-11.03857 17.82638,-16.32155 24.85792,-30.98532 -10.83596,-14.26191 -21.00862,-29.49653 -32.61266,-41.11215 0.23923,-1.24299 -34.06268,-0.1206 -49.35154,10.52596 -8.69194,12.49894 -0.0935,29.2025 -43.41269,59.81547 -23.51838,19.62819 -67.18559,41.21321 -104.33143,78.62662 -30.51918,26.58289 -69.47658,82.16798 -89.81224,110.63857 -22.09849,30.93848 -37.57585,45.06698 -15.47752,66.85601 z"
         inkscape:connector-curvature="0"
         style="fill:#fa0b0d" />
      <path
         id="path4165"
         d="m 374.18948,566.07115 c -2.26663,0.008 -24.33155,-3.09672 -33.87881,0.23133 -38.44812,22.66377 -100.26643,98.60357 -134.21457,145.08178 -2.25503,5.78404 1.56586,18.04276 1.85532,20.62231 2.01765,3.70897 -17.99367,30.17616 -31.36791,19.74123 -6.70968,-5.58579 -11.44098,-14.61156 -11.01876,-18.09153 -0.021,-5.41511 -1.06233,-3.79395 3.41767,-15.66901 24.2462,-41.96375 51.72294,-76.24627 89.12472,-120.98609 42.93868,-44.42019 58.17503,-52.93505 96.66799,-80.05597 44.47514,-27.21515 61.91148,-50.66024 64.38856,-56.06289 2.55369,-2.6354 12.95239,14.82276 15.92675,18.54645 11.30619,14.81777 19.89171,22.28793 17.62267,26.10752 -2.15551,3.7023 -16.47297,15.52328 -34.07454,28.78592 -16.39057,12.35014 -31.17673,28.00412 -44.44909,31.74895 z"
         inkscape:connector-curvature="0"
         style="fill:#1b40f6" />
      <path
         id="path4167"
         d="m 610.09064,409.36942 c -19.22054,23.15624 -27.22336,33.77073 -31.30982,38.49419 -0.91122,-0.29008 -1.72026,-0.70428 -3.3869,-1.27834 -2.66761,3.71577 -6.8203,8.13638 -9.81944,11.03235 -2.99914,2.89597 -5.36707,5.0235 -12.28273,9.83253 -0.0889,4.06041 -0.33988,4.32215 -0.3533,5.64323 -0.0824,0.085 -12.15422,10.86428 -12.06788,10.93121 0.91481,0.70908 -6.93814,-2.90945 -9.5777,-4.52161 -7.13057,-3.84887 -13.75133,-8.64401 -20.08364,-13.3167 -9.8422,-13.00771 -20.73877,-27.37602 -32.94913,-41.13191 5.11455,-5.75538 6.50153,-6.91796 12.45783,-13.57898 1.73679,0.1381 2.23513,0.10222 4.42681,0.67222 1.30961,-2.66504 6.19801,-9.74056 9.03024,-12.68086 2.83223,-2.9403 9.0934,-8.48062 12.36229,-10.02721 -0.58704,-1.71253 -0.9718,-2.88167 -0.96572,-4.19561 20.6747,-18.14061 26.01673,-21.56528 44.00397,-37.6397 32.17574,-20.92308 51.43893,-33.46646 81.98431,-52.36677 l 24.814,24.1678 c -20.8301,34.58931 -33.02343,51.74368 -56.28319,89.96416 z"
         inkscape:connector-curvature="0"
         style="fill:#c1d4ce" />
      <path
         id="path4169"
         transform="matrix(-0.43541,0.44934,-0.42656,-0.41333,694.88452,338.89414)"
         d="m 340.08018,69.90358 a 58.69282,47.58224 0 1 1 -117.38564,0 58.69282,47.58224 0 1 1 117.38564,0 z"
         inkscape:connector-curvature="0"
         style="fill:#273136" />
      <path
         id="path4171"
         transform="matrix(-0.27373,0.28249,-0.26817,-0.25985,638.22917,374.81782)"
         d="m 340.08018,69.90358 a 58.69282,47.58224 0 1 1 -117.38564,0 58.69282,47.58224 0 1 1 117.38564,0 z"
         inkscape:connector-curvature="0"
         style="fill:#c3d7d1" />
      <path
         id="path4173"
         d="m 491.65447,440.90307 c 3.24706,-3.82737 10.02626,-11.70252 12.38939,-14.67577 2.20118,0.42625 1.68766,0.3671 3.98021,0.98684 2.11815,-3.44532 2.79921,-6.10655 9.4086,-12.92745 4.54116,-4.68648 8.86222,-8.17274 14.42932,-10.7616 l -1.92224,-7.06177 36.44126,-41.28742 88.4982,-46.97351 -13.32376,-12.96504 c -30.54538,18.90031 -49.80917,31.43624 -81.98491,52.35933 -17.98728,16.07438 -23.31684,19.50543 -43.99154,37.64603 -0.006,1.3139 0.37766,2.48872 0.96474,4.2013 -3.26889,1.5466 -9.54884,7.08398 -12.38107,10.02429 -2.83223,2.94031 -7.71172,10.01598 -9.02132,12.68101 -2.19168,-0.57 -2.68371,-0.52499 -4.4205,-0.66309 -5.91448,6.61426 -7.47186,8.00402 -12.39209,13.65379 l 1.63205,1.86102 c 5.90081,6.79684 6.88214,8.17567 11.69366,13.90204 z"
         inkscape:connector-curvature="0"
         style="fill:#425961" />
      <path
         id="path4175"
         d="m 484.90227,461.62301 c 6.48585,-6.69341 8.25894,-15.48851 3.97636,-19.63829 -4.28258,-4.14978 -13.00345,-2.08703 -19.48931,4.60638 -3.13789,3.2383 -5.16292,6.97508 -5.94613,10.43448 -1.59749,-3.01325 -4.17222,-6.27732 -7.50002,-9.22733 -7.41749,-6.57543 -15.68581,-9.11395 -18.46219,-5.66766 -2.77638,3.44629 0.9835,11.58222 8.40099,18.15766 7.41749,6.57544 15.68579,9.11394 18.46219,5.66766 l 0.0544,-0.0562 c 0.10963,-0.14192 0.19467,-0.30397 0.28306,-0.46068 0.21438,0.28254 0.44547,0.54055 0.70368,0.79075 l 0.0702,0.068 c 4.31637,4.06476 12.9986,1.97967 19.44675,-4.67484 z"
         inkscape:connector-curvature="0"
         style="opacity:0.82682004;fill:#fc3f6c;fill-opacity:0.49007" />
      <path
         id="path4177"
         transform="matrix(-0.42868,0.40344,-0.42095,-0.44728,698.30266,416.04514)"
         d="m 402.87909,175.21251 a 25.60263,15.69972 0 1 1 -0.001,-0.1433"
         inkscape:connector-curvature="0"
         style="opacity:0.82682004;fill:#fc3f6c;fill-opacity:0.49007" />
      <path
         id="path4179"
         d="m 514.67492,536.20827 c -14.63487,12.57316 -19.50909,-2.90771 -29.51523,3.2117 -5.18543,2.52856 -14.58984,11.81224 -18.69535,5.76152 l -11.8419,-7.79487 c -4.10551,-6.05072 3.80728,-10.84512 8.89594,-16.73002 l 28.54453,-17.77406 c 5.18542,-2.52855 12.66513,0.30699 16.77064,6.3577 l 7.79069,11.48198 c 4.10552,6.05071 3.23611,12.9575 -1.94932,15.48605 z"
         inkscape:connector-curvature="0"
         style="opacity:0.82682004;fill:#fc3f6c;fill-opacity:0.49007" />
      <path
         id="path4181"
         d="m 655.21614,308.52887 -0.33693,-0.32648 -88.4982,46.97351 -36.44126,41.28742 1.90777,7.02052 123.36862,-94.95497 z m -123.57355,95.11027 c -0.0318,0.015 -0.0644,0.0279 -0.0961,0.043 l 0.014,0.0136 0.0821,-0.0566 z"
         inkscape:connector-curvature="0"
         style="fill:#dfe8e5;fill-rule:evenodd" />
      <path
         id="path4183"
         d="m 608.50607,363.16671 c -0.75708,1.21938 -38.56658,38.1502 -38.95617,40.48373 -0.0985,0.63413 4.70884,5.59185 5.33955,5.4734 0.63071,-0.11845 37.99438,-39.29057 38.74896,-39.59568 0.17504,-0.0708 0.59144,0.0248 0.89947,0.055 l -6.03181,-6.41641 z"
         inkscape:connector-curvature="0"
         style="fill:#435256" />
      <path
         id="path4185"
         d="m 612.572,357.11661 c -0.0248,0.18638 -0.009,0.41746 -0.0883,0.54055 -0.60642,0.94589 -3.56451,1.39362 -4.015,2.26135 -0.0194,0.0373 0.002,0.0856 -0.0119,0.12461 l 9.05496,9.64523 c 0.0215,-0.01 0.063,0.01 0.0829,-0.001 0.85312,-0.4776 1.69503,-4.09193 2.62134,-4.72784 0.0948,-0.0651 0.25166,-0.0468 0.37209,-0.075 l -8.01619,-7.76762 z"
         inkscape:connector-curvature="0"
         style="fill:#435256" />
      <path
         id="path4187"
         d="m 624.56565,364.62805 c 0.71051,-0.90704 0.4478,-2.79076 1.36677,-3.62975 0.12175,-0.11116 0.33794,-0.14783 0.50812,-0.21538 l -9.96759,-9.65851 c -0.95186,0.87875 -3.15532,0.53963 -3.87494,1.49879 -0.0584,0.0779 -0.0417,0.23174 -0.0777,0.33302 l 12.04535,11.67183 z"
         inkscape:connector-curvature="0"
         style="fill:#435256" />
      <path
         id="path4189"
         d="M 624.56565,364.62805 612.5203,352.95622 c -0.36579,1.02842 0.20259,3.02629 0.0517,4.16039 l 8.01619,7.76762 c 1.05639,-0.24695 2.94103,0.69542 3.81552,-0.005 0.076,-0.0608 0.10183,-0.17466 0.16194,-0.25139 z"
         inkscape:connector-curvature="0"
         style="fill:#69817d" />
      <path
         id="path4191"
         d="m 617.51183,369.68835 -9.05496,-9.64523 c -0.31551,0.86932 0.56316,2.13991 0.29406,2.87089 -0.002,0.005 -0.24004,0.24494 -0.24486,0.2527 l 6.03181,6.41641 c 0.98887,0.0967 2.28792,0.41266 2.97395,0.10523 z"
         inkscape:connector-curvature="0"
         style="fill:#69817d" />
      <path
         id="path4193"
         d="m 621.43562,345.83438 c -1.11704,0.49367 -3.03803,-0.15148 -3.92794,0.76691 -0.0809,0.0835 -0.0902,0.22017 -0.14702,0.32028 l 13.35096,12.93696 c 0.0143,-0.0134 0.0412,-0.0144 0.0548,-0.0285 0.86675,-0.89448 0.34634,-2.99644 0.76311,-4.2147 l -10.09395,-9.78094 z"
         inkscape:connector-curvature="0"
         style="fill:#435256" />
      <path
         id="path4195"
         d="m 631.24356,337.45426 8.45139,8.18933 c 0.10577,-1.41361 -1.02798,-5.39252 -0.77323,-6.08448 0.2812,-0.76382 23.35267,-23.65181 23.45119,-24.28593 0.0985,-0.63412 -0.97073,-0.63812 -1.06826,-1.1168 -0.0975,-0.47868 -23.20037,24.52897 -23.50734,24.23152 -0.30697,-0.29745 -5.59556,-1.47698 -6.35014,-1.17186 -0.0423,0.0171 -0.15291,0.2024 -0.20361,0.23822 z"
         inkscape:connector-curvature="0"
         style="fill:#435256" />
      <path
         id="path4197"
         d="m 627.65832,341.54752 8.36716,8.1077 c 0.0431,-0.54854 0.11151,-1.03555 0.28361,-1.30398 0.60642,-0.94588 2.92916,-1.35596 3.37966,-2.22369 0.0424,-0.0816 -0.005,-0.33717 0.006,-0.48396 l -8.45139,-8.18933 c -0.84025,0.59373 -2.68919,3.42084 -3.58524,4.09326 z"
         inkscape:connector-curvature="0"
         style="fill:#69817d" />
      <path
         id="path4199"
         d="m 635.49407,353.65891 c 0.53642,-0.71497 0.42275,-2.61934 0.53141,-4.00369 l -8.36716,-8.1077 c -0.0154,0.0116 -0.0532,0.06 -0.068,0.0702 -0.92632,0.6359 -3.26512,-1.34921 -4.2393,-0.56917 -0.16343,0.13086 -0.25314,0.38125 -0.34977,0.61379 l 12.42439,12.03913 c 0.0176,-0.0203 0.0521,-0.0208 0.0684,-0.0426 z"
         inkscape:connector-curvature="0"
         style="fill:#435256" />
      <path
         id="path4201"
         d="m 635.42562,353.70146 -12.42439,-12.03913 c -0.47941,1.15358 -0.33768,3.25638 -1.16719,4.0137 -0.10429,0.0952 -0.26786,0.10065 -0.39842,0.15835 l 10.09395,9.78094 c 0.0611,-0.17876 0.0729,-0.39712 0.18522,-0.52826 0.859,-1.00254 2.91961,-0.47553 3.71083,-1.3856 z"
         inkscape:connector-curvature="0"
         style="fill:#69817d" />
      <path
         id="path4203"
         d="m 630.71162,359.85853 -13.35096,-12.93696 c -0.64132,1.12973 0.0558,3.17629 -0.75081,4.11774 -0.0344,0.0401 -0.0981,0.0493 -0.1369,0.0851 l 9.96759,9.65851 c 1.20387,-0.47784 3.3689,-0.0799 4.27108,-0.92439 z"
         inkscape:connector-curvature="0"
         style="fill:#69817d" />
      <path
         id="path4205"
         transform="matrix(-0.50983,0.52615,-0.59311,-0.57472,704.05537,362.07313)"
         d="m 283.98201,80.09045 a 57.84745,39.97391 0 0 1 -33.60452,34.4601"
         inkscape:connector-curvature="0"
         style="fill:none;stroke:#000000;stroke-width:13.27031422" />
      <path
         id="path4207"
         d="m 575.5412,446.34014 c 6.73466,-11.56871 7.38465,-25.44088 -0.23406,-37.20364"
         inkscape:connector-curvature="0"
         style="fill:none;stroke:#000000;stroke-width:10.21151733" />
      <path
         id="path4209"
         d="m 183.61721,739.04768 c -13.15053,-12.74275 29.29506,-80.97363 101.03251,-155.00675 71.73745,-74.03312 151.89243,-118.81557 165.04294,-106.07284 13.15051,12.74273 -73.54204,48.81002 -145.27949,122.84315 -71.3206,73.60293 -107.45281,150.44739 -121.17733,138.45103"
         inkscape:connector-curvature="0"
         style="opacity:0.82682004;fill:#f9f9f9;fill-opacity:0.10596002" />
      <path
         id="path4211"
         d="m 371.2943,663.70336 c 36.68822,-37.86228 69.6075,-99.30563 76.05212,-106.91463 27.2626,-44.68399 38.6721,-32.72824 55.97072,-44.22166 14.94977,-17.17187 13.10175,-29.349 13.67197,-42.17306 -1.94298,-1.34188 -3.94306,-2.76225 -6.06718,-4.27303 -11.18405,17.16212 -13.82109,19.45203 -25.06829,29.69877 -14.53751,12.4141 -37.81416,24.77625 -44.25307,30.69636 -13.83495,12.72025 -60.9419,91.29081 -85.42286,117.47638 -16.58589,18.959 -29.68718,31.7091 -97.66176,88.37052 -22.11224,19.4495 -33.94627,29.77438 -31.12714,46.89946 12.06758,-3.20825 25.09761,-16.15958 41.82204,-28.80555 27.90744,-21.1019 65.39523,-48.89128 102.08345,-86.75356 z"
         inkscape:connector-curvature="0"
         style="fill:url(#linearGradient4534)" />
      <path
         id="path4213"
         d="m 654.87921,308.20239 -13.32376,-12.96504 c -30.41748,18.82117 -49.68168,31.3527 -81.61546,52.11847 l 7.49676,7.2643 87.44246,-46.41773 z"
         inkscape:connector-curvature="0"
         style="fill:#182022" />
      <path
         id="path4215"
         d="m 531.6698,403.61106 -15.13967,-14.15301 c -3.27325,1.55685 -9.53972,7.07467 -12.36746,10.01025 -2.82774,2.93558 -7.71172,10.01598 -9.02132,12.68101 l -0.30537,-0.0781 12.99792,15.09917 0.19437,0.0522 c 2.11816,-3.44533 2.79501,-6.11499 9.4044,-12.93589 4.48895,-4.63261 8.76216,-8.0961 14.23713,-10.67563 z"
         inkscape:connector-curvature="0"
         style="fill:#182120" />
      <path
         id="path4217"
         d="m 531.86199,403.52509 -1.92224,-7.06177 0.0136,-0.014 -14.30635,-11.27677 c -0.0267,0.0234 -0.0412,0.0467 -0.068,0.0702 -0.006,1.3139 0.37766,2.48872 0.96474,4.2013 -0.005,0.002 -0.008,0.0115 -0.0136,0.014 l 15.16731,14.15257 0.16455,-0.0855 z"
         inkscape:connector-curvature="0"
         style="fill:#040305" />
      <path
         id="path4219"
         d="m 507.86155,427.1699 -13.02557,-15.09873 c -1.86217,-0.46652 -2.46348,-0.4639 -4.03218,-0.58623 l 13.37968,14.76134 c 1.9205,0.37483 1.75128,0.39714 3.67807,0.92362 z"
         inkscape:connector-curvature="0"
         style="fill:#000609" />
      <path
         id="path4221"
         fill=".42458"
         d="m 528.99578,404.99416 -14.67062,-14.2157 c -3.38073,2.29335 -7.88012,6.32041 -10.16249,8.68984 -1.1758,1.22062 -2.71042,3.16033 -4.18997,5.19495 l 13.94057,13.50829 c 0.94918,-1.13688 2.08963,-2.40933 3.5194,-3.88485 3.72981,-3.84917 7.31808,-6.89403 11.56311,-9.29253 z"
         inkscape:connector-curvature="0"
         style="opacity:0.42457999" />
      <path
         id="path4223"
         d="m 524.3274,396.75668 -1.95921,-1.79038 c -1.97823,1.36122 -10.39148,8.10947 -13.26774,10.9975 -2.87084,2.88253 -7.85477,9.77446 -9.14768,12.03249 0,0 0.47555,0.45078 1.7041,1.82512 1.30435,-2.82059 2.1293,-5.38395 8.73868,-12.20485 4.48896,-4.63261 11.42422,-9.273 13.93185,-10.85988 z"
         inkscape:connector-curvature="0"
         style="fill:#01080b" />
      <path
         id="path4225"
         d="m 578.77606,447.86836 c 4.08645,-4.72346 12.09425,-15.34082 31.31479,-38.49706 23.25976,-38.22048 35.45695,-55.38302 56.28705,-89.97233 l -0.15442,-0.14964 -87.62818,128.55276 c 0.0598,0.0203 0.12038,0.047 0.18076,0.0663 z"
         inkscape:connector-curvature="0"
         style="fill:#ffffff;fill-opacity:0.51656003" />
      <g
         id="g4227"
         transform="matrix(1,0,0,-1,41.2758,1080.7576)">
        <path
           id="path4229"
           d="m 372.46444,526.62946 -12.39584,-19.94114 -2.1558,-14.55164 12.93479,-10.24005 c 29.38489,-5.58462 52.16636,-24.97639 65.75187,-63.59607 L 578.8822,283.02418 c 37.97177,-16.8228 71.36417,33.36504 65.21287,59.28447 L 503.42923,479.20189 c -46.22625,16.53863 -66.36973,39.16323 -69.52452,65.75187 l -12.39584,11.31794 -15.62954,-0.53895 -19.4022,-13.47374 -14.01269,-15.62955 z"
           inkscape:connector-curvature="0"
           style="fill-rule:evenodd;stroke:#000000;stroke-width:14.59572315;stroke-linecap:round;stroke-linejoin:round" />
        <path
           id="path4231"
           d="m 594.53827,279.64082 c -5.06143,-0.0308 -10.31647,1.00929 -15.65625,3.375 L 436.60077,418.29707 c -13.58551,38.61968 -36.36512,58.00914 -65.75,63.59375 l -12.9375,10.25 2.15625,14.5625 12.40625,19.9375 8.03125,8.96875 22.67051,-36.52746 c 30.32427,-12.61934 47.60522,-36.09818 68.41123,-60.4196 L 627.47577,296.04707 c -8.7908,-9.51928 -20.26952,-16.32922 -32.9375,-16.40625 z"
           inkscape:connector-curvature="0"
           style="fill:#333333;fill-rule:evenodd;stroke:#000000;stroke-width:14.59572315;stroke-linecap:round;stroke-linejoin:round" />
        <path
           id="path4233"
           d="m 606.81952,285.73457 c -2.18377,-0.0603 -4.3535,0.27208 -6.375,1.0625 L 455.47577,424.76582 c -10.55485,11.99772 -14.32545,21.47617 -13.5625,27.5625 1.41917,11.32094 18.45344,10.89809 36.25,-6.96875 l 146.5312,-139.15625 c 4.0205,-7.81067 -2.7631,-16.12122 -11.4062,-19.21875 -2.09236,-0.74987 -4.28498,-1.18971 -6.46875,-1.25 z m -200.8125,198.59375 c -4.01449,-0.01 -8.96289,0.53683 -14.6875,1.34375 l -14.89567,12.83846 c 1.62158,7.33964 11.86009,21.95387 21.92692,21.94279 l 15.0625,-13.21875 c 8.34755,-17.85613 4.63722,-22.877 -7.40625,-22.90625 z"
           inkscape:connector-curvature="0"
           style="fill:#ffcc00;fill-rule:evenodd" />
        <path
           id="path4235"
           d="m 637.62767,315.90011 -168.90873,161.90244 3.77264,8.40568 168.48459,-161.31804 -3.3485,-8.99008 z"
           inkscape:connector-curvature="0"
           style="fill:#333333;fill-rule:evenodd;stroke:#000000;stroke-width:14.59572315;stroke-linecap:round;stroke-linejoin:round" />
        <path
           id="path4237-8"
           d="m 640.86137,324.52331 0.539,17.24639 -139.58799,133.12059 c -9.0486,1.45587 -19.10154,5.44315 -29.58488,11.20323 L 640.86137,324.52331 Z"
           inkscape:connector-curvature="0"
           style="fill:#4d4d4d;fill-rule:evenodd;stroke:#000000;stroke-width:14.59572315;stroke-linecap:round;stroke-linejoin:round" />
        <path
           id="path4239"
           d="m 406.41827,537.40846 28.02539,-26.94749 3.2337,7.5453 -26.94749,25.86959 -4.3116,-6.4674 z"
           inkscape:connector-curvature="0"
           style="fill:#333333;fill-rule:evenodd;stroke:#000000;stroke-width:14.59572315;stroke-linecap:round;stroke-linejoin:round" />
        <path
           id="path4241-5"
           d="m 437.56378,518.6588 -7.66852,22.64553 -7.62029,7.08134 -11.5451,-4.82161 26.83391,-24.90526 z"
           inkscape:connector-curvature="0"
           style="fill:#4d4d4d;fill-rule:evenodd;stroke:#000000;stroke-width:14.59572315;stroke-linecap:round;stroke-linejoin:round" />
        <path
           id="path4243"
           d="m 468.3975,477.95192 21.01904,-25.15857 142.82163,-135.27639 5.9285,-2.1558 -169.76917,162.59076 z"
           inkscape:connector-curvature="0"
           style="fill:#1a1a1a;fill-rule:evenodd;stroke:#000000;stroke-width:14.59572315;stroke-linecap:round;stroke-linejoin:round" />
        <path
           id="path4245-7"
           d="m 406.95722,536.33056 0,0 z"
           inkscape:connector-curvature="0"
           style="fill:#ffffff;fill-rule:evenodd;stroke:#000000;stroke-width:14.59572315;stroke-linecap:round;stroke-linejoin:round" />
        <path
           id="path4247"
           d="m 419.88238,519.62312 -6.78885,6.78883 -6.88311,10.44792 27.69429,-25.85995 -14.02233,8.6232 z"
           inkscape:connector-curvature="0"
           style="fill:#1a1a1a;fill-rule:evenodd;stroke:#000000;stroke-width:14.59572315;stroke-linecap:round;stroke-linejoin:round" />
        <path
           id="path4249-5"
           d="m 366.53599,493.75353 15.10024,-12.29192 -9.71074,3.12977 -10.77899,9.7011 4.85054,6.4674 0.53895,-7.00635 z"
           inkscape:connector-curvature="0"
           style="fill:#808080;fill-rule:evenodd;stroke:#000000;stroke-width:14.59572315;stroke-linecap:round;stroke-linejoin:round" />
        <path
           id="path4251"
           d="m 432.5591,438.91097 15.89726,-19.53251 143.36063,-137.43218 -11.31794,2.15579 -141.74379,134.73744 -6.19616,20.07146 z"
           inkscape:connector-curvature="0"
           style="fill:#808080;fill-rule:evenodd;stroke:#000000;stroke-width:14.59572315;stroke-linecap:round;stroke-linejoin:round" />
        <path
           id="path4253-9"
           d="m 362.07054,506.50894 c 7.03008,-13.78745 53.68928,42.30223 49.35915,47.5231 -9.19244,7.58548 -52.27487,-40.55305 -49.35915,-47.5231 z"
           inkscape:connector-curvature="0"
           style="fill:#1a1a1a;fill-rule:evenodd" />
        <path
           id="path4255"
           d="m 373.50306,516.14884 c 3.60842,-6.97024 27.55789,21.38578 25.3353,24.02519 -4.71834,3.83483 -26.8319,-20.50152 -25.3353,-24.02519 z"
           inkscape:connector-curvature="0"
           style="fill-rule:evenodd;stroke:#000000;stroke-width:16.31252861;stroke-linecap:round;stroke-linejoin:round" />
        <path
           id="path4257"
           d="m 379.21479,519.75102 -260.23831,245.00484 -9.52091,19.04183 3.03141,5.18708 4.12339,1.81374 20.77321,-8.905 257.66451,-245.36985 c 1.32736,-2.09325 -13.15439,-19.90964 -15.8333,-16.77264 z"
           inkscape:connector-curvature="0"
           style="fill:#f9f9f9;fill-rule:evenodd;stroke:#000000;stroke-width:14.59572315;stroke-linecap:round;stroke-linejoin:round" />
        <path
           id="path4259"
           d="m 387.36495,525.85755 -260.13701,247.14977 -14.59874,15.86819 4.21307,1.54205 20.62407,-9.23423 256.67237,-244.73927 c -0.20485,-3.95367 -3.8727,-7.67526 -6.77376,-10.58651 z"
           inkscape:connector-curvature="0"
           style="fill:#999999;fill-rule:evenodd" />
        <path
           id="path4261"
           d="m 393.38053,533.81053 -258.31105,244.86481 1.56134,-5.20445 -13.11222,-2.34396 -4.19399,-5.99459 -9.51409,18.6665 2.99559,4.9503 3.88593,1.13315 20.13546,-8.32711 257.67063,-245.39835 c -0.23502,-0.85086 -0.44147,-1.716 -1.1176,-2.3463 z"
           inkscape:connector-curvature="0"
           style="fill:#808080;fill-rule:evenodd" />
        <path
           id="path4263"
           d="m 146.93194,762.53524 -5.78882,2.30939 -12.31727,12.31727 -11.57823,9.85381 1.13527,1.25904 16.35525,-8.15671 12.56361,-11.33188 -5.41959,0.73904 5.04978,-6.98996 z"
           inkscape:connector-curvature="0"
           style="fill:#b3b3b3;fill-rule:evenodd;stroke:#000000;stroke-width:14.59572315;stroke-linecap:round;stroke-linejoin:round" />
        <path
           id="path4265"
           d="m 141.49717,769.6176 -5.03461,0.40029 4.9269,-4.92691 5.60417,-2.24779 -5.49646,6.77441 z"
           inkscape:connector-curvature="0"
           style="fill:#ececec;fill-rule:evenodd;stroke:#000000;stroke-width:14.59572315;stroke-linecap:round;stroke-linejoin:round" />
        <path
           id="path4267"
           d="M 123.49411,771.49142 385.50148,523.92343 c 1.34775,1.33246 2.48471,3.38538 3.87181,4.85564 l -260.58984,247.29297 -1.66462,-3.21278 -3.62472,-1.36784 z"
           inkscape:connector-curvature="0"
           style="fill:#cccccc;fill-rule:evenodd" />
        <path
           id="path4269"
           d="m 374.99436,523.13713 c 7.16067,5.89837 12.01654,18.04207 -1.04089,34.86977 l 20.29733,-21.85866 c -2.44742,-7.94549 -8.75205,-12.98964 -14.052,-17.17467 l -5.20444,4.16356 z"
           inkscape:connector-curvature="0"
           style="opacity:0.41000001;fill:#999999;fill-rule:evenodd" />
        <path
           id="path4271"
           d="m 139.01829,754.22145 -3.04842,5.69628 -13.0563,11.57823 -9.36113,12.31726 -2.2171,-0.73903 8.86843,-17.49052 14.53437,-13.54899 -2.46345,6.15863 6.7436,-3.97186 z"
           inkscape:connector-curvature="0"
           style="fill:#cccccc;fill-rule:evenodd;stroke:#000000;stroke-width:14.59572315;stroke-linecap:round;stroke-linejoin:round" />
        <path
           id="path4273"
           d="m 132.02834,758.43966 0.49269,4.43421 3.94153,-3.20249 2.18617,-5.32671 -6.62039,4.09499 z"
           inkscape:connector-curvature="0"
           style="fill:#808080;fill-rule:evenodd;stroke:#000000;stroke-width:14.59572315;stroke-linecap:round;stroke-linejoin:round" />
        <path
           id="path4275"
           d="m 621.88197,292.48457 -176.87495,165.5625 c 5.91952,4.55284 19.29661,1.22687 33.15625,-12.6875 l 146.5312,-139.15625 c 2.4854,-4.82842 0.8467,-9.85788 -2.8125,-13.71875 z m -206.93745,193.71875 -29.34375,27.46875 c 3.77533,3.86277 8.26624,6.78619 12.75,6.78125 l 15.0625,-13.21875 c 5.6474,-12.08028 5.76823,-18.27155 1.53125,-21.03125 z"
           inkscape:connector-curvature="0"
           style="fill:#ffd42a;fill-rule:evenodd" />
        <path
           id="path4277"
           d="m 606.81952,285.73457 c -2.18377,-0.0603 -4.3535,0.27208 -6.375,1.0625 L 455.47577,424.76582 c -6.85176,7.78841 -10.81288,14.51113 -12.5625,19.9375 L 610.94452,286.29707 c -1.3596,-0.32373 -2.74493,-0.5244 -4.125,-0.5625 z m -206.25,198.875 c -2.80193,0.23413 -5.87679,0.58702 -9.25,1.0625 l -14.90625,12.84375 c 0.39623,1.79345 1.328,4.03237 2.625,6.375 l 21.53125,-20.28125 z"
           inkscape:connector-curvature="0"
           style="fill:#d4aa00;fill-rule:evenodd" />
      </g>
    </g>
  </g>
</svg>
