<?xml version="1.0" encoding="UTF-8" standalone="no"?>
<svg width="640" xmlns="http://www.w3.org/2000/svg" xmlns:xlink="http://www.w3.org/1999/xlink" height="480">
 <defs>
  <filter id="filter3628">
   <feGaussianBlur id="feGaussianBlur3630" stdDeviation="5.206257"/>
  </filter>
  <filter id="filter3598">
   <feGaussianBlur id="feGaussianBlur3600" stdDeviation="4.679283"/>
  </filter>
  <filter id="filter3339">
   <feGaussianBlur id="feGaussianBlur3341" stdDeviation="0.807626"/>
  </filter>
  <filter id="filter3377">
   <feGaussianBlur id="feGaussianBlur3379" stdDeviation="0.614983"/>
  </filter>
 </defs>
 <g id="layer1">
  <g id="g3632">
   <g fill="#0f0e0e" fill-rule="evenodd">
    <path id="path3602" opacity=".548" stroke-linejoin="round" d="m293.89 145.38c32.018-8.4484 53.268 16.734 62.811 40.618 8.4912 32.397 11.243 63.761 40.826 59.765 39.257 12.924 74.233 54.036 62.11 91.058-9.7891-34.355-28.333-64.689-64.043-80.277-18.282-4.7647-26.946-5.4119-31.762-31.635-19.946-22.597-38.815-54.698-45.701-78.646-11.022-0.33925-42.185-0.5522-12.888-2.9453 40.709-7.5702 9.5631 56.622 39.91 66.95 5.688 29.482 47.354 41.505 75.673 34.075 25.032 15.964 33.886 48.138 39.766 75.803-5.5176 9.1749-2.5709-46.52-19.366-57.602-14.645-25.025-44.362-29.085-69.866-28.746-37.634-15.476-31.69-71.006-68.655-86.471-3.1031-0.45796-25.79-0.093185-8.812-1.9482z" filter="url(#filter3628)" stroke-linecap="round" stroke-width="7"/>
    <path id="path3418" filter="url(#filter3598)" stroke="#000" d="m319.57 98.298c-2.1232 0.23879-5.4233 3.1023-5.4233 3.1023 0 1.9563 0.4772 6.839 1.4123 11.73 0.93512 4.8907 3.7538 12.719 4.6889 17.609 0.93512 4.8907 4.6606 18.082 4.6606 18.082l-6.5531 3.4273c-2.8053 1.4672-14.949 5.8796-17.287 5.8796-2.3377 0-5.621 5.3774-5.621 5.3774s1.8865 0.48908 3.7567 0c1.8702-0.48906 22.896-7.8266 26.636-8.8047 3.7404-0.97816 2.8246-5.8797 2.8246-5.8796 0 0-4.6985-11.252-6.1012-17.609-1.4026-6.3579-2.7867-21.514-1.3841-29.339 0.526-2.9344-0.33612-3.7183-1.61-3.5751zm-34.121 55.96c-8.3637-0.043869-6.5531 11.552-6.5531 11.552 0.66602-3.3655 7.6979-10.893 8.3891-4.3137 0.10757 1.0237 0.3284 2.1267 0.67792 3.0137-2.2592 0.19504-12.451 1.5654-14.942 10.252-0.63944 2.2295-1.2612 4.2243-1.8078 6.0865-1.003-0.028976-2.2535 0.32748-3.333 0.73865-5.946 2.2645-2.59-7.6651 0-9.7797 0 0-10.774 3.4319-7.0333 11.257 1.7159 3.5898 3.1451 4.9056 4.1804 5.2887-0.96014 0.4127-1.7671 0.9151-2.0902 1.5955-1.0401 2.19-6.9582 14.57-9.4625 16.546-2.5043 1.9752-5.847 4.6092-5.847 4.6092s-12.894-12.312-16.665-15.364c-3.7712-3.052-9.222-9.1801-12.993-12.232-3.7712-3.0519-9.1716-3.2069-10.846-4.0773 0 0-10.007 4.5984-2.6834 6.766 7.3237 2.1675 21.082 7.7938 25.902 11.937 4.8194 4.1427 15.62 16.457 15.62 16.457s3.769 3.0687 6.2706 0c2.5016-3.0688 14.878-22.457 16.128-23.991 0.30731-0.37701 0.5784-0.78799 0.79086-1.1818-0.17874 1.6108-0.034393 2.7709 0.5932 3.4273 1.8702 1.9563 4.6606 4.9046 4.6606 4.9046s-2.3155 4.3961 1.8925 6.3524 11.199 11.254 15.874 12.232c4.6756 0.97813 7.9721-0.982 10.31-3.4273 1.029-1.0765 2.5992-3.0506 4.2369-5.0819 0.2124 1.366 1.0941 3.0587 2.9658 5.4364-3.5098 7.2312 0.60968 15.368 3.6155 19.264 4.8284 3.6609 10.488 6.1486 14.886 10.016l-3.2765 0.6796s-10.276-0.50229-12.146-0.50229c-1.8702 0-13.558-4.8751-13.558-4.8751s-12.165-2.925-14.97-2.925c-2.8053 0-25.711-4.8914-28.048-4.4023-2.3378 0.48906-1.4123 4.4023-1.4123 4.4023l26.184 3.9001s3.7352 1.9438 6.0729 3.9001c2.3378 1.9563 9.3495 0.50229 9.3495 0.50229s6.0922 2.4593 8.8975 4.9046 6.5412 2.915 10.282 1.4478c3.7404-1.4672 7.489-1.4478 10.762-1.4478l5.9599-0.8568c1.3287 2.1113 2.326 4.5985 2.8529 7.6524 1.6427 1.4562 3.2497 3.2941 4.8018 5.3478-0.21237 0.085388-0.46393 0.20352-0.76266 0.41364-5.8306 6.5756-7.1154 16.498-12.908 23.105-2.9566 2.3808-5.4334 5.5318-6.7791 9.3661-1.7116 3.9829-2.1999 8.279-1.723 12.616 0.1597 4.8566-1.7959 9.8532-0.19772 14.566 1.5433 4.0252 4.8348 7.4426 4.1522 12.232-0.95743 7.5306-1.0436 15.153-1.949 22.691-0.30725 4.964-2.3679 9.3808-4.6606 13.532 2.5329 1.366 6.1156-5.6536 6.1859-9.5138 3.1563-9.0986 2.5886-19.034 2.6552-28.6-0.40201-5.489 2.0776-11.013 0.42368-16.398-1.7911-4.2018-4.2533-10.278-0.48016-14.034 6.4917-3.6283 9.5732-11.7 11.101-19.205 0.22427-5.9604 3.636-10.774 5.7904-15.984-0.21393-0.67566 0.12894-2.1941 0.19775-3.3682 3.5652 4.9964 6.884 10.96 9.9709 16.073-3.497 10.411-3.0953 21.734-5.847 32.353-0.60953 6.5823-1.0855 13.952 2.4292 19.737 3.9945 6.3365 2.6903 15.086 7.7394 20.889 6.1789 9.9185 12.115 20.057 19.603 28.985 4.8991 6.1989 6.6275 14.198 9.8862 21.332 1.9906 3.4814 3.3901 11.494 5.7622 12.025 1.7802-6.2903-4.542-11.386-5.5645-17.462-3.2622-8.4531-6.9247-16.812-12.174-24.139-3.625-5.963-8.0213-11.542-10.649-18.082-1.4516-7.0316-3.0727-14.298-8.1631-19.53-4.3339-4.5767-1.1448-10.128-0.56494-15.334 1.2555-11.663-0.50342-23.351-0.84738-35.012 0.091705-0.54837 0.28274-1.4479 0.48019-2.4227 0.28302 0.43671 0.56857 0.91867 0.84738 1.3295 6.4392-7.0265 6.7938 3.4096 10.366 7.7115-5.3172 8.7538-5.4632 21.148 0.84738 29.398 7.8533 13.781 24.044 21.934 39.234 19.234 7.0736-2.4328 11.287-10.461 11.072-17.994 2.0371-16.451-5.6359-34.15-19.49-42.517-0.19553-0.090363-0.39493-0.15222-0.59317-0.23636 3.9815 0.94736 8.3798-0.31906 12.287 1.2409 4.8268 2.5143 3.7264 9.797 6.4119 14.182 1.6912 5.3791 5.8188 9.2034 8.4174 14.034 3.4117 9.2571 9.4662 17.162 15.309 24.878 3.2403 4.8977 7.4788 9.1902 12.908 11.286 3.9816 0.085358 9.5282 7.4618 12.089 1.8318-2.2119-2.8213-5.6477-4.0186-8.8128-5.2296-8.6635-2.5725-14.15-10.69-19.094-17.994-3.2103-5.6148-7.5204-10.549-10.056-16.575-1.1857-5.5533-3.2535-10.918-6.1577-15.748-3.5676-4.525-4.1709-10.912-8.3326-14.98-5.1531-3.1313-10.31-7.9522-16.694-7.2683-6.998 2.5257-13.946-1.3461-20.93-1.9205-1.7089-3.1122-3.6136-5.9281-5.282-8.0365-1.6356-4.9968-4.4846-8.9638-7.683-12.646 1.6172-2.0233 3.0789-4.3137 3.0789-4.3137s12.146-9.7602 16.354-11.228c4.208-1.4672 6.0729-8.3319 6.0729-8.3319l6.1012-9.7797s7.0117-1.95 9.3495-1.95c2.3377 0 11.214-5.3774 11.214-5.3774l7.005-0.5023s11.22-1.4742 13.558-2.4523c2.3378-0.97813 13.085-5.8602 15.422-7.3274 2.3377-1.4672 1.8925-5.3774 1.8925-5.3774s-14.491 6.3493-18.699 7.3274c-4.208 0.97813-17.767 4.9046-17.767 4.9046l-11.694 1.95-8.8975 5.3774-5.1408-0.4727-7.4852 6.3524s-5.6024 6.8453-7.005 9.7797c-1.4027 2.9344-8.4174 9.2774-8.4174 9.2774l-8.5868 8.1251c-2.7952-2.9494-5.6291-5.8556-8.0502-9.1297 0.090332 0.011841 0.1972 0.014496 0.28247 0.029556 1.6832-5.7221 3.3447-11.444 5.0278-17.166 1.1342-4.4304-0.67712-9.1186-0.81912-13.65 4.44 0.99123 7.8481-1.6654 11.383-4.0478 3.2341-2.8685 7.8244-2.9079 10.931-5.7319 2.9727-2.7903 4.6398-6.4338 3.6437-10.607-0.22092-1.1441 0.10248-5.9058-0.50839-4.491-0.82358 4.4848-2.5315 8.9206-6.1577 11.73-2.6537 2.6734-6.5804 3.1314-9.8296 4.7864-4.6222-0.57722-9.2758-0.43147-13.925-0.41364-1.901 1.6713-1.5389 6.2892-2.5422 9.1297 0.47134 4.295 1.1111 8.5691 1.6665 12.852 0.25687 4.1027-1.2362 8.1559-1.6948 12.232-0.11276 0.29483-0.22617 0.59149-0.33896 0.88638-0.33612-0.62399-0.63464-1.2636-0.93213-1.9205 0.42856-16.064-14.987-24.181-25.224-23.962-0.56222-0.9314-1.3077-1.5638-2.1467-1.95 0.67654-0.39165 1.4639-1.0941 2.4574-2.3932 3.7404-4.8907 5.1468-11.244 3.2766-15.157-1.8702-3.9126-4.6799-2.9452-7.4852-5.8796s-2.7837-4.3961-2.3162-6.3524c0.46756-1.9563-4.6703-5.3673-6.0729-3.9001s-2.8253-0.010101-7.0333-1.4773c-1.8885-0.65849-4.2294-0.79999-6.2989-0.73865 1.4533-1.2181 2.7116-2.4228 2.7116-2.4228l-3.7285-3.516s1.4717-3.5016-6.8921-3.5455zm89.569 116.32c0.53506 0.20792 1.0932 0.37088 1.6383 0.41364 5.8439-0.47672 10.564 3.6154 15.705 5.7615 0.2727 0.17825 0.53958 0.36008 0.81915 0.50226-5.2163-1.5756-11.034-1.1985-15.903 1.2705-0.32382-2.5783-1.1504-5.3013-2.2597-7.9478z"/>
    <g id="g3399">
     <g stroke="#000">
      <path id="path3025" d="m313.1 98.569s8.9096-7.4246 7.4246 0.49497c-1.4849 7.9196 0 23.264 1.4849 29.699 1.485 6.4347 6.4347 17.819 6.4347 17.819s0.98996 4.9498-2.9698 5.9397c-3.9598 0.98994-26.234 8.4146-28.214 8.9096-1.9799 0.49496-3.9598 0-3.9598 0s3.4648-5.4448 5.9397-5.4448 15.344-4.4548 18.314-5.9397l6.9297-3.4648s-3.9598-13.364-4.9498-18.314c-0.98996-4.9498-3.9598-12.869-4.9498-17.819-0.98996-4.9498-1.4849-9.8995-1.4849-11.879z"/>
      <path id="path3027" d="m199.79 177.54s-10.613 4.6758-2.8601 6.8695c7.7532 2.1937 22.319 7.8756 27.421 12.068 5.102 4.1927 16.56 16.661 16.56 16.661s3.9924 3.0888 6.6408-0.017059c2.6484-3.1058 15.743-22.72 17.067-24.273 1.3242-1.5529 1.7618-3.5463 1.7618-3.5463s-6.4177 0.68051-7.5188 2.8969-7.3517 14.73-10.003 16.729l-6.1861 4.6644s-13.672-12.462-17.664-15.551c-3.9924-3.0888-9.7636-9.2722-13.756-12.361s-9.69-3.2594-11.463-4.1403z"/>
      <path id="path3029" d="m264.1 169.85s-11.384 3.4648-7.4246 11.384c3.9598 7.9196 6.4347 4.9498 6.4347 4.9498l4.9498 1.9799s1.4849-4.9497 1.4849-7.4247c0-2.4749-3.1192-1.8366-5.4447-0.98996-6.2947 2.2919-2.742-7.7593 0-9.8995z"/>
      <path id="path3031" d="m275.78 163.77s-1.9334-11.742 6.9208-11.698c8.8543 0.044373 7.2871 3.5783 7.2871 3.5783l3.9667 3.5617s-3.7808 3.5228-6 4.6185c-2.2191 1.0957-3.0278-1.9837-3.2982-4.4438-0.73178-6.6588-8.1714 0.97668-8.8765 4.3828z"/>
      <path id="path3035" stroke-width=".978" d="m318.21 199.98c10.837-0.22198 27.142 8.0032 26.688 24.261 5.9981 12.664 19.865 18.906 24.541 32.563 7.1801 8.674 18.7 29.068 2.1531 34.143-9.7365 3.6019-7.2915-18.688-16.437-9.1467-5.7527-8.1032-12.351-21.501-19.844-27.852-2.4068-13.337-14.105-16.14-23.108-22.666-3.1821-3.9426-7.5592-12.174-3.8435-19.493-5.1678-6.2758-3.2852-7.7755 0.033112-11.248 1.5541-3.3252 7.3807-4.4204 9.8169-0.56218z"/>
      <path id="path3045" d="m374.48 281.71c-12.974 6.9661-16.585 26.216-7.4493 37.633 8.3138 13.948 25.458 22.2 41.538 19.468 7.4885-2.4621 11.944-10.578 11.717-18.201 2.1566-16.649-5.9491-34.554-20.616-43.021-8.2125-3.627-18.727-2.3484-25.19 4.1211z"/>
      <path id="path3170" d="m325.97 247.06c-3.4648 0-7.4246 0-11.384 1.4849-3.9598 1.485-7.9196 0.99-10.89-1.4849-2.9699-2.4748-9.4045-4.9497-9.4045-4.9497s-7.4246 1.4849-9.8995-0.49498c-2.4748-1.9799-6.4347-3.9598-6.4347-3.9598l-27.719-3.9598s-0.98994-3.9598 1.4849-4.4548c2.4749-0.49498 26.729 4.4548 29.698 4.4548 2.9699 0 15.839 2.9699 15.839 2.9699s12.374 4.9497 14.354 4.9497c1.9799 0 12.869 0.49498 12.869 0.49498l4.9497-0.99 3.9598 4.9497-7.4247 0.9899z"/>
      <path id="path3172" d="m346.26 225.28c0.4855-4.1254 2.0531-8.2208 1.7811-12.373-0.58804-4.3352-1.2534-8.6603-1.7524-13.007 1.0621-2.8748 0.66248-7.5694 2.675-9.2609 4.9222-0.017975 9.8571-0.14694 14.75 0.43727 3.4397-1.675 7.606-2.1631 10.415-4.8689 3.8389-2.843 5.6283-7.3117 6.5002-11.851 0.6467-1.432 0.29864 3.3771 0.53253 4.535 1.0544 4.2236-0.70087 7.9006-3.8479 10.724-3.289 2.8582-8.146 2.9064-11.57 5.8094-3.7424 2.4113-7.3595 5.1189-12.06 4.1157 0.15033 4.5863 2.0916 9.3259 0.8909 13.81-1.7819 5.7912-3.5638 11.582-5.3457 17.374-2.3103-0.38914-6.5315 0.38103-3.9598-2.9698 0.33002-0.82495 0.65997-1.6499 0.98996-2.4749z"/>
      <path id="path3174" d="m356.16 241.12l10.394-9.4045s7.4246-6.4347 8.9096-9.4046c1.4849-2.9698 7.4246-9.8995 7.4246-9.8995l7.9196-6.4347 5.4447 0.495 9.4045-5.4447 12.374-1.9799s14.354-3.9598 18.809-4.9498c4.4548-0.98994 19.799-7.4246 19.799-7.4246s0.49496 3.9598-1.9799 5.4447-13.859 6.4347-16.334 7.4247c-2.4748 0.98991-14.354 2.4748-14.354 2.4748l-7.4247 0.495s-9.4046 5.4447-11.879 5.4447c-2.4748 0-9.8995 1.98-9.8995 1.98l-6.4347 9.8995s-1.9799 6.9297-6.4347 8.4146-17.324 11.384-17.324 11.384-4.9498 7.4246-6.9297 7.4246 0-6.4346-1.4849-5.9397z"/>
      <path id="path3176" stroke-width="1.033" d="m341.3 264.22c-2.2809 5.2736-5.908 10.135-6.1454 16.167-1.6172 7.5959-4.8684 15.754-11.741 19.426-3.9944 3.8021-1.407 9.9639 0.48917 14.217 1.7509 5.4498-0.87247 11.034-0.4469 16.589-0.070496 9.6816 0.53 19.727-2.8114 28.935-0.074371 3.9069-3.8699 11.031-6.5514 9.6484 2.4271-4.2014 4.6128-8.6722 4.938-13.696 0.95856-7.6292 1.0711-15.352 2.0847-22.974 0.7226-4.8473-2.7669-8.3039-4.4007-12.378-1.692-4.7699 0.36844-9.8244 0.19937-14.74-0.50485-4.3895 0.003754-8.724 1.8157-12.755 1.4246-3.8805 4.0489-7.0924 7.1788-9.5019 6.1328-6.6867 7.5111-16.711 13.684-23.366 3.31-2.2252 1.2327 2.9956 1.7072 4.4281z"/>
      <path id="path3178" d="m352.7 275.28c-4.4311 11.015-3.7666 23.178-6.8442 34.533-0.64536 6.6619-1.1359 14.132 2.585 19.987 4.2288 6.413 2.8525 15.255 8.1978 21.128 6.5413 10.038 12.83 20.294 20.756 29.329 5.1864 6.2738 6.9907 14.384 10.44 21.603 2.1074 3.5234 3.5943 11.633 6.1056 12.171 1.8846-6.3662-4.8009-11.54-5.8834-17.689-3.4536-8.5552-7.3309-16.997-12.888-24.412-3.8376-6.035-8.4958-11.683-11.277-18.302-1.5367-7.1164-3.2489-14.466-8.6379-19.761-4.588-4.632-1.2246-10.272-0.61069-15.541 1.3291-11.804-0.52295-23.624-0.88708-35.426 0.42096-2.4072 2.6149-10.557 0.33569-9.8478-0.46405 0.74249-0.9281 1.4849-1.3921 2.2274z"/>
      <path id="path3180" d="m374.48 264.88c7.5877 0.41165 15.141 4.6095 22.742 1.987 6.7578-0.69217 12.206 4.1781 17.661 7.3472 4.4058 4.1171 5.0475 10.603 8.8243 15.183 3.0745 4.8878 5.2453 10.314 6.5005 15.935 2.6839 6.0991 7.2673 11.08 10.666 16.762 5.2342 7.3921 11.038 15.598 20.209 18.202 3.3507 1.2256 6.9781 2.4458 9.3197 5.3012-2.7114 5.698-8.5701-1.7529-12.785-1.8394-5.7481-2.1217-10.253-6.488-13.683-11.445-6.1859-7.8093-12.579-15.784-16.191-25.153-2.751-4.8893-7.1354-8.7792-8.9258-14.223-2.843-4.438-1.6526-11.801-6.7625-14.346-5.2003-1.9849-11.238 0.55212-16.164-2.5268-5.4428-2.1719-10.442-6.3415-16.628-5.859-2.6726-0.20044-5.6932-2.2983-4.783-5.3256z"/>
     </g>
     <path id="path3299" filter="url(#filter3339)" d="m374.55 298.3c-4.762-0.87079-6.0536 1.994-7.1343 5.4879-1.1596 3.749 1.3338 6.4595 4.2956 4.6303 4.2953-2.6528-0.92947 8.2141 2.8388 9.6383 1.8948 0.71616 8.9234 1.8471 8.2319 0.5488-2.1838-4.1001 5.5319 4.6071 6.6295 4.2412 3.8219-1.274-8.857-11.27-11.02-14.668-2.3297-3.661-2.6211-5.9117-3.8416-9.8783z"/>
     <path id="path3363" stroke-linejoin="round" d="m327.87 205.03c0.16254 2.579 0.94272 5.0859 2.3232 7.2423 1.6114 1.7308 3.5418 3.0905 5.1643 4.8116 1.7653 2.0223 1.4405 4.2227 0.099487 6.348-1.5472 1.7506-2.1923 2.5537-1.0779 4.7492 1.3434 2.4765 3.3157 4.2083 5.6369 5.6687 2.6138 1.4606 4.6705 1.1268 6.8729 3.3832 1.1912 2.0975 1.8152 4.4329 2.9804 6.5645 1.135 2.1878 3.1634 3.3457 5.1499 4.574 1.9397 1.0324 3.9399 1.9459 5.8638 3.009 1.8824 1.3194 1.6016 3.2983 1.7216 5.3408 0.44531 2.2986 2.5447 3.5787 4.2588 4.877 2.2546 1.8403 4.5463 3.08 5.4313 6.0479-0.1814 2.3471-0.090759 3.8927 1.0728 5.9472 1.2796 2.0605 3.3856 3.3172 4.8368 5.2262 0.14795 0.35522 0.29593 0.71039 0.44388 1.0657l-11.19 0.5055c-0.13193-0.25558-0.26386-0.51117-0.39581-0.76672-1.6414-1.823-3.7282-3.2405-4.9389-5.4511-1.003-1.9812-1.4031-3.9186-1.1327-6.1529-0.9003-2.4831-3.5113-3.7521-5.421-5.34-1.9963-1.5437-4.1374-3.1473-4.4708-5.885-0.11008-1.7593 0.14935-3.2113-1.6397-4.1194-2.0031-0.98943-4.0234-1.9537-5.9561-3.0833-2.1461-1.3258-4.0547-2.8743-5.2726-5.1856-1.0913-2.0148-1.6274-4.3363-3.0252-6.1334-2.093-1.507-4.776-1.6797-6.877-3.2217-2.4279-1.6841-4.5143-3.6408-5.91-6.334-1.0225-2.4709-0.88718-4.1815 1.1136-6.0649 1.4494-1.738 1.597-2.8532-0.016846-4.6058-1.748-1.6981-3.8152-3.0754-5.2248-5.1116-1.3194-2.443-2.0867-5.1298-2.4051-7.9053h11.984z" filter="url(#filter3377)" stroke-linecap="round" stroke-width="7"/>
     <path id="path3033" stroke="#000" d="m285.88 162.42s-13.364 0.49498-16.334 10.394c-2.9698 9.8995-5.4447 16.334-3.4648 18.314 1.9799 1.9799 4.9497 4.9498 4.9497 4.9498s-2.4748 4.4547 1.9799 6.4346c4.4548 1.9799 11.879 11.384 16.829 12.374 4.9497 0.98994 8.4146-0.98994 10.889-3.4648 2.4749-2.4749 7.9196-9.4046 10.394-11.879 2.4749-2.4749 3.4648 0.98991 7.4246-3.9598s5.4447-11.384 3.4648-15.344c-1.9799-3.9598-4.9497-2.9698-7.9196-5.9397-2.9699-2.9698-2.9699-4.4548-2.4749-6.4347 0.49496-1.9799-4.9498-5.4447-6.4347-3.9598s-2.9699 0-7.4246-1.4849c-4.4548-1.4849-11.384-0.49496-11.879 0z"/>
    </g>
   </g>
  </g>
 </g>
</svg>
