<?xml version="1.0" encoding="UTF-8" standalone="no"?>
<svg viewBox="0 0 198.75 247.5" xml:space="preserve" xmlns="http://www.w3.org/2000/svg"><defs>
    
  
    
    
  
      
    <clipPath id="clipPath18">
      <path d="m.06.06h158.728v197.48h-158.728v-197.48z"></path>
    </clipPath></defs>
  
  <g clip-path="url(#clipPath18)" transform="matrix(1.25,0,0,-1.25,0,247.5)">
        
        <path d="m101.3016,143.9599c-4.519-1.667-13.367.054-15.84-3.06 .581-1.843 2.418-3.599 3.42-5.94 .88-2.055 2.366-4.637 2.52-6.66 .074-.973-.512-2.254-.72-3.42-.611-3.422-1.256-6.265-4.68-6.84-1.686-.283-3.491.834-5.58-.18 1.25-1.636 3.633-2.799 4.32-5.22 .679-2.396-.303-4.837-.9-7.2 2.523.663 4.064,3.85 6.3,5.4 .782,1.472 1.491,2.792 2.7,4.32 .9,1.139 2.82,2.448 3.24,3.78 .962,3.053-.119,10.046.36,13.32 .111.759.489,1.934 1.44,2.16 1.096-1.251-.914-2.421-.72-3.96 1.602.285 2.064,2.219 2.7,3.42 .685,1.293 1.56,2.368 2.34,3.6 .523.827.718,1.901 1.26,2.7 1.143,1.686 2.764,2.816 3.6,5.04 .704.284.372-.467.72-.54 .476.304-.16,1.719.54,1.8 .48.498 2.072-.897 2.88-1.26-2.453-1.564-3.959-3.863-5.76-6.48-1.109-1.61-1.655-2.997-2.88-4.86-.898-1.365-2.325-2.447-2.88-3.6-1.887-3.922-.57-8.702-2.16-13.5-.875-2.638-3.958-6.591-5.94-8.46-2.856-2.692-6.124-4.695-8.64-7.56 .042-2.958.349-5.651 1.26-7.74 4.412-1.799 7.683,2.603 12.42,1.62 2.357,1.722 9.058,2.381 11.52.72 3.304-5.995 5.968-12.632 7.38-20.52 2.378-2.062 5.34-3.54 7.56-5.76 .238-.301.477-.603.36-1.26 4.676-1.804 7.472-5.488 9.54-9.9-.958-.176-1.63.695-2.7-.18 .128.805-.966,1.576-.54,3.24-2.4,1.32-4.634,2.805-5.94,5.22-3.689.978-5.728,3.571-8.1,5.94-.541.54-1.33.83-1.62,1.62-.132.37-1.187-.992-1.44,0-2.36,6.581-3.371,14.509-6.3,20.52-.731-1.618-2.299-.928-3.96-1.26-2.026-.404-3.815-2.089-5.58-2.34-2.066-.294-4.054.552-5.94.18-1.903-.375-2.744-1.891-4.68-1.98-.05-.874.488-1.67-.18-2.16-2.752.309-2.646,3.474-5.4,3.78-.131-2.71 2.816-2.344 2.7-5.04 .527-.253 1.076-.484 1.98-.36 7.269-4.611 17.436-6.323 23.22-12.42 .249-3.033 1.216-5.747 1.44-8.82 .341-4.691-.93-10.268.18-14.22 .399-1.422 2.125-4.688 3.06-6.3 .385-.664 1.078-1.156 1.44-1.8 .926-1.651.797-3.404 1.8-4.68 1.458-1.854 2.537-5.505 3.06-8.28-.811-.69-1.401-1.6-2.7-1.8-.48,1.073.573,1.338.54,2.52-.051,1.797-3.228,6.998-4.32,9-1.682,3.082-3.29,6.116-4.14,9-.305,1.036-1.698,2.026-2.16,3.06-.928,2.077-.049,4.856.18,6.66 .268,2.109.159,4.94 0,7.2-.145,2.059.477,5.011.18,6.12-.61,2.279-7.094,3.682-9.54,4.5-4.202,1.405-8.207,2.746-10.26,6.3-1.313-1.047-2.797.098-4.68,0-.468-1.734 1.32-2.59 1.62-4.14 6.204-1.18 9.685-3.91 11.52-9.72 1.777-5.628 1.592-14.357-.72-19.8-.687-1.618-1.912-3.409-2.88-5.04-2.739-4.61-6.658-9.779-10.8-12.6-3.079.281-4.55,2.17-7.02,3.06-2.847,3.522-6.323,5.851-8.46,10.98-1,2.4-2.603,5.205-3.06,7.38-1.777,8.444-.601,17.68 3.78,22.68 2.605.815 4.431,2.409 7.56,2.7-.373,2.172.814,2.786.72,4.68-2.318.411-4.203-1.287-5.76-2.52-1.62-1.282-3.214-2.662-4.86-3.78-3.484-2.366-7.477-3.777-10.98-6.3-.232-4.99.145-9.279.9-13.5 .587-3.283 2.428-6.046.72-9.36-.826-1.602-2.603-2.952-3.78-4.68-1.144-1.678-2.369-3.646-3.24-5.22-1.974-3.566-.869-9.615-5.4-11.34-.509.896.466,1.385.72,2.16 1.408,4.307 1.789,10.093 5.4,12.42 .034.754-.884.556-.72,1.44 1.142,2.645 4.331,3.907 4.68,7.2 .23,2.168-1.308,5.464-1.62,8.82-.405,4.346-.93,10.924 1.26,13.86 2.941,3.501 6.462,6.03 10.8,8.64 2.033,1.224 4.459,2.099 6.3,3.42 1.451,1.041 2.514,2.542 4.86,2.88 .075,1.065.645,1.635.72,2.7 .553.647 1.705.695 1.98,1.62-2.486.755-3.302-3.141-5.76-3.6-.536,1.018.181,2.173.54,2.88-.797.197-.895-.305-1.44-.36-1.437,2.369-4.043.714-7.02.9-4.113.257-8.31,4.098-10.8.36 .063-3.44-2.124-5.548-2.88-8.1-.805-2.714-.006-6.681-1.8-8.64-4.406-3.334-7.974-7.506-12.78-10.44-.72-1.712-2.257-3.254-4.5-2.88 2.706,3.234 6.248,5.632 8.46,9.36 .959.253 2.099.772 3.06,1.44 1.421.988 3.617,2.779 3.96,3.96 .788,2.718-.247,6.008.36,8.82 .556,2.576 2.629,9.809 4.86,10.8 6.34,2.817 14.623-2.377 21.78-1.44 .518,3.386 1.324,7.511-.72,9.72-6.486,1.507-9.879,6.029-12.42,12.06-.498,1.18-1.333,2.126-1.8,3.24-1.606,3.83-1.724,8.33-1.98,13.32-1.258,2.909-4.948,4.047-7.2,6.3-1.131,1.131-1.904,2.824-3.24,3.96-1.58,1.343-3.976,2.117-3.96,5.04 2.163,1.347 2.433-1.177 3.6-2.52 .486-.56 1.532-1.442 2.34-2.16 .796-.708 1.59-1.565 2.34-2.16 .687-.546 1.916-.698 2.34-1.62 .304-.662 1.53-1.151 2.52-1.98 1.185-.993 1.674-2.597 3.06-2.88 1.079,1.111-1.612,2.881-.54,3.96 .751-.571 1.865-1.923 1.98-3.06 .098-.973-.616-1.837-.72-2.88-.429-4.312 1.958-9.51 1.62-14.04 4.527-3.213 6.952-8.528 10.98-12.24 .102,2.717-.271,6.824.72,9.18 .889,1.691 3.441,1.719 4.32,3.42-5.105-.826-9.813.586-10.62,5.04-.156.859.21,1.871.18,2.88-.052,1.674-.641,3.008-.18,4.86 .929,3.731 3.193,7.623 5.04,9.36-4.119,4.334-16.587-.83-18.36,5.4-.555,6.117-2.733,10.699-5.04,15.12-1.334,2.555-3.405,5.112-3.42,8.28 1.796.459 2.948-1.243 3.6-2.34 2.187-3.676 3.827-9.772 5.58-14.76 .859-2.444 1.607-3.892 1.62-6.84 5.833.308 13.174-.655 17.46-3.06 .827,1.333.994,3.326 1.98,4.5 2.202,1.809 4.197,3.553 6.84.9 .758-.762 1.364-2.3 1.44-3.24 1.742-.615 3.81.05 6.48.72 1.824.458 3.621.616 5.22.9 1.868.332 3.563.943 5.94.72 .688,4.185 1.525,10.142 3.96,14.04 .288,2.832 1.063,5.177 2.7,6.66 .153,2.426 1.706,3.454 2.7,5.04 1.02.692 1.843-.307 1.8-1.62-.03-.917-1.427-2.568-2.16-3.78-3.622-5.985-6.647-13.61-7.56-22.32" fill="#231f20" fill-rule="evenodd"></path>
      </g>
</svg>
