<?xml version="1.0" encoding="UTF-8" standalone="no"?>
<svg
   xmlns:dc="http://purl.org/dc/elements/1.1/"
   xmlns:cc="http://creativecommons.org/ns#"
   xmlns:rdf="http://www.w3.org/1999/02/22-rdf-syntax-ns#"
   xmlns:svg="http://www.w3.org/2000/svg"
   xmlns="http://www.w3.org/2000/svg"
   xmlns:xlink="http://www.w3.org/1999/xlink"
   xmlns:sodipodi="http://sodipodi.sourceforge.net/DTD/sodipodi-0.dtd"
   xmlns:inkscape="http://www.inkscape.org/namespaces/inkscape"
   width="131.83981"
   height="560.34662"
   id="svg2"
   version="1.1"
   inkscape:version="0.91 r13725"
   sodipodi:docname="Roller.svg">
  <metadata
     id="metadata59">
    <rdf:RDF>
      <cc:Work
         rdf:about="">
        <dc:format>image/svg+xml</dc:format>
        <dc:type
           rdf:resource="http://purl.org/dc/dcmitype/StillImage" />
        <dc:title />
      </cc:Work>
    </rdf:RDF>
  </metadata>
  <sodipodi:namedview
     pagecolor="#ffffff"
     bordercolor="#666666"
     borderopacity="1"
     objecttolerance="10"
     gridtolerance="10"
     guidetolerance="10"
     inkscape:pageopacity="0"
     inkscape:pageshadow="2"
     inkscape:window-width="1889"
     inkscape:window-height="1003"
     id="namedview57"
     showgrid="false"
     fit-margin-top="0"
     fit-margin-left="0"
     fit-margin-right="0"
     fit-margin-bottom="0"
     inkscape:zoom="0.69384853"
     inkscape:cx="158.54981"
     inkscape:cy="268.70303"
     inkscape:window-x="31"
     inkscape:window-y="29"
     inkscape:window-maximized="1"
     inkscape:current-layer="svg2" />
  <defs
     id="defs4">
    <filter
       id="filter20024-6-4"
       style="color-interpolation-filters:sRGB">
      <feGaussianBlur
         id="feGaussianBlur20026-8-9"
         stdDeviation="2.429856" />
    </filter>
    <filter
       id="filter20024-6-4-0"
       style="color-interpolation-filters:sRGB">
      <feGaussianBlur
         id="feGaussianBlur20026-8-9-0"
         stdDeviation="2.429856" />
    </filter>
    <filter
       id="filter20024-6"
       style="color-interpolation-filters:sRGB">
      <feGaussianBlur
         id="feGaussianBlur20026-8"
         stdDeviation="2.429856" />
    </filter>
    <filter
       id="filter20024-6-7"
       style="color-interpolation-filters:sRGB">
      <feGaussianBlur
         id="feGaussianBlur20026-8-1"
         stdDeviation="2.429856" />
    </filter>
    <filter
       id="filter20792"
       style="color-interpolation-filters:sRGB">
      <feGaussianBlur
         id="feGaussianBlur20794"
         stdDeviation="8.508806" />
    </filter>
    <filter
       id="filter20024"
       style="color-interpolation-filters:sRGB">
      <feGaussianBlur
         id="feGaussianBlur20026"
         stdDeviation="2.429856" />
    </filter>
    <filter
       id="filter20024-2"
       style="color-interpolation-filters:sRGB">
      <feGaussianBlur
         id="feGaussianBlur20026-89"
         stdDeviation="2.429856" />
    </filter>
    <linearGradient
       id="linearGradient19968">
      <stop
         id="stop19970"
         stop-color="#b6481f"
         offset="0" />
      <stop
         id="stop19972"
         stop-color="#8b2d0a"
         offset="1" />
    </linearGradient>
    <linearGradient
       id="linearGradient19958">
      <stop
         id="stop19960"
         stop-color="#8e3e05"
         offset="0" />
      <stop
         id="stop19966"
         stop-color="#c64b1d"
         offset=".5" />
      <stop
         id="stop19962"
         stop-color="#8e3e05"
         offset="1" />
    </linearGradient>
    <linearGradient
       id="linearGradient19964"
       y2="485.96359"
       xlink:href="#linearGradient19958"
       x2="492.80884"
       y1="485.96359"
       x1="469.57175"
       gradientTransform="scale(1.1344971,0.88144781)"
       gradientUnits="userSpaceOnUse" />
    <linearGradient
       id="linearGradient21741"
       y2="0.49998999"
       xlink:href="#linearGradient19958"
       x2="1.0052"
       y1="0.49998999"
       x1="-0.0052220002" />
    <linearGradient
       id="linearGradient19974"
       y2="362.52649"
       xlink:href="#linearGradient19968"
       x2="752.44257"
       y1="362.52649"
       x1="706.10858"
       gradientTransform="scale(0.84437877,1.1843026)"
       gradientUnits="userSpaceOnUse" />
    <linearGradient
       id="linearGradient20004"
       y2="310.44043"
       xlink:href="#linearGradient19958"
       x2="655.63751"
       y1="310.44043"
       x1="549.39642"
       gradientTransform="matrix(0.36732274,0.75923723,-1.0672931,0.51636168,186.71945,-126.81226)"
       gradientUnits="userSpaceOnUse" />
    <linearGradient
       id="linearGradient20012"
       y2="189.67899"
       xlink:href="#linearGradient19958"
       x2="54.071983"
       y1="189.67899"
       x1="26.046593"
       gradientTransform="matrix(0.45400752,0.96512431,-0.84839547,0.39909669,464.0033,-182.338)"
       gradientUnits="userSpaceOnUse" />
    <linearGradient
       id="linearGradient20000"
       y2="412.61859"
       xlink:href="#linearGradient19958"
       x2="273.75357"
       y1="412.61859"
       x1="223.53905"
       gradientTransform="matrix(0.52732941,1.0899628,-0.74344612,0.35968292,186.71945,-126.81226)"
       gradientUnits="userSpaceOnUse" />
    <clipPath
       clipPathUnits="userSpaceOnUse"
       id="clipPath3440">
      <rect
         style="opacity:1;fill:#ffffff"
         id="rect3442"
         width="23.439491"
         height="420.89172"
         x="-192.60799"
         y="172.08113"
         transform="matrix(0.42566759,-0.90487961,0.90487961,0.42566759,0,0)" />
    </clipPath>
    <clipPath
       clipPathUnits="userSpaceOnUse"
       id="clipPath3446">
      <rect
         style="opacity:1;fill:#ffffff"
         id="rect3448"
         width="25.477707"
         height="416.81528"
         x="-103.94556"
         y="162.90915"
         transform="matrix(0.42566759,-0.90487961,0.90487961,0.42566759,0,0)" />
    </clipPath>
    <linearGradient
       inkscape:collect="always"
       xlink:href="#linearGradient19968"
       id="linearGradient4206"
       gradientUnits="userSpaceOnUse"
       gradientTransform="matrix(0.0546305,0.06929071,-0.07701986,0.02286563,78.43455,478.20997)"
       x1="575.63287"
       y1="439.02094"
       x2="586.59302"
       y2="446.79498" />
    <linearGradient
       inkscape:collect="always"
       xlink:href="#linearGradient19958"
       id="linearGradient4208"
       gradientUnits="userSpaceOnUse"
       gradientTransform="matrix(0.03805406,0.07865579,-0.1105699,0.05349426,78.43455,453.2031)"
       x1="549.39642"
       y1="310.44043"
       x2="655.63751"
       y2="310.44043" />
    <linearGradient
       inkscape:collect="always"
       xlink:href="#linearGradient19968"
       id="linearGradient4277"
       gradientUnits="userSpaceOnUse"
       gradientTransform="matrix(0.0546305,0.06929071,-0.07701986,0.02286563,78.43455,478.20997)"
       x1="575.63287"
       y1="439.02094"
       x2="586.59302"
       y2="446.79498" />
    <linearGradient
       inkscape:collect="always"
       xlink:href="#linearGradient19958"
       id="linearGradient4279"
       gradientUnits="userSpaceOnUse"
       gradientTransform="matrix(0.03805406,0.07865579,-0.1105699,0.05349426,78.43455,453.2031)"
       x1="549.39642"
       y1="310.44043"
       x2="655.63751"
       y2="310.44043" />
  </defs>
  <g
     transform="matrix(1.297537,0,0,1.297537,-19.613609,-635.06838)"
     id="g4265">
    <g
       transform="matrix(1.5211569,0,0,1.5211569,-32.813233,-251.87075)"
       id="g4267">
      <path
         inkscape:connector-curvature="0"
         style="fill:url(#linearGradient4277);fill-opacity:1;stroke:none;stroke-width:3.4849999;stroke-linecap:round;stroke-linejoin:bevel"
         d="m 72.723286,517.45886 0.0045,-27.61618 c -0.01915,-0.21684 -0.118644,-0.43086 -0.284359,-0.62949 -0.894879,-1.07259 -3.653552,-1.76072 -6.808033,-1.60698 -3.599431,0.17546 -6.403497,1.38511 -6.463365,2.74581 l -0.02349,27.57452"
         id="path4269" />
      <path
         inkscape:connector-curvature="0"
         style="fill:url(#linearGradient4279);fill-opacity:1;stroke:#000000;stroke-width:0.05179922;stroke-linecap:round;stroke-linejoin:bevel;stroke-miterlimit:4;stroke-dasharray:none;stroke-opacity:1"
         d="m 66.278272,521.70268 c -3.738624,0.29699 -6.918506,-1.33852 -7.102437,-3.65288 -0.183838,-2.3144 2.697978,-4.43137 6.436602,-4.72837 3.738719,-0.29704 6.918506,1.33852 7.102439,3.65288 0.183837,2.3144 -2.69784,4.43142 -6.436604,4.72837 z"
         id="path4271" />
      <path
         style="opacity:0.25;fill:#ffffff;stroke:#000000;stroke-width:1;filter:url(#filter20024)"
         inkscape:connector-curvature="0"
         d="m 112.75,153.26 c -3.0305,4.0406 112.63,68.185 165.16,91.419 52.528,23.234 193.95,85.358 200.01,81.317 6.0609,-4.0406 -153.54,-81.822 -185.87,-95.459 C 259.725,216.9 121.84,146.694 112.75,153.26 Z"
         id="path4273"
         transform="matrix(0.04511844,0.05722607,-0.09325751,0.02768625,78.43455,478.20997)"
         clip-path="url(#clipPath3446)" />
      <path
         style="opacity:0.52399998;fill:#0a0000;stroke:#000000;stroke-width:1;filter:url(#filter20024-2)"
         inkscape:connector-curvature="0"
         d="m 85.671,241.69 c -3.0305,4.0406 114.78,63.9 167.3,87.133 52.528,23.234 191.09,89.644 197.15,85.603 6.061,-4.0406 -153.54,-84.68 -185.87,-98.317 -32.325,-13.637 -169.5,-80.986 -178.59,-74.42 z"
         id="path4275"
         transform="matrix(0.04511844,0.05722607,-0.09325751,0.02768625,78.848943,478.20997)"
         clip-path="url(#clipPath3440)" />
    </g>
  </g>
  <path
     inkscape:connector-curvature="0"
     style="fill:url(#linearGradient20000);stroke:none;stroke-width:3.4849999;stroke-linecap:round;stroke-linejoin:bevel"
     d="m 131.59059,490.58398 0.043,-434.410461 c -0.18482,-3.41087 -1.14523,-6.777558 -2.74482,-9.901985 C 120.25082,29.399313 93.622296,18.574913 63.17318,20.993289 28.429119,23.753265 1.3624312,42.781503 0.78454589,64.185692 L 0.55779439,497.94077"
     id="path19194-8" />
  <path
     style="opacity:0.52399998;fill:#0a0000;stroke:#000000;stroke-width:1;filter:url(#filter20024-2)"
     inkscape:connector-curvature="0"
     d="m 85.671,241.69 c -3.0305,4.0406 114.78,63.9 167.3,87.133 52.528,23.234 191.09,89.644 197.15,85.603 6.061,-4.0406 -153.54,-84.68 -185.87,-98.317 -32.325,-13.637 -169.5,-80.986 -178.59,-74.42 z"
     id="path20014-7"
     transform="matrix(0.43551278,0.90018255,-0.90018255,0.43551278,185.62391,-126.81226)"
     clip-path="url(#clipPath3440)" />
  <path
     style="opacity:0.25;fill:#ffffff;stroke:#000000;stroke-width:1;filter:url(#filter20024)"
     inkscape:connector-curvature="0"
     d="m 112.75,153.26 c -3.0305,4.0406 112.63,68.185 165.16,91.419 52.528,23.234 193.95,85.358 200.01,81.317 6.0609,-4.0406 -153.54,-81.822 -185.87,-95.459 C 259.725,216.9 121.84,146.694 112.75,153.26 Z"
     id="path20014"
     transform="matrix(0.43551278,0.90018255,-0.90018255,0.43551278,186.71945,-126.81226)"
     clip-path="url(#clipPath3446)" />
  <path
     inkscape:connector-curvature="0"
     style="fill:url(#linearGradient20004);fill-opacity:1;stroke:#000000;stroke-width:0.5;stroke-linecap:round;stroke-linejoin:bevel;stroke-miterlimit:4;stroke-dasharray:none;stroke-opacity:1"
     d="M 69.379095,534.39054 C 33.29145,537.25733 2.5971477,521.47027 0.82171879,499.1306 -0.95280481,476.79049 26.864368,456.35604 62.952024,453.48925 c 36.088556,-2.86722 66.781946,12.92028 68.557386,35.25995 1.77452,22.3401 -26.04132,42.77501 -62.130315,45.64134 z"
     id="path19194" />
  <g
     id="g4214"
     transform="matrix(1.297537,0,0,1.297537,-19.613609,-142.83908)">
    <g
       id="g4253"
       transform="matrix(1.5211569,0,0,1.5211569,-32.813233,-251.87075)">
      <path
         id="path4198"
         d="m 72.723286,517.45886 0.0045,-27.61618 c -0.01915,-0.21684 -0.118644,-0.43086 -0.284359,-0.62949 -0.894879,-1.07259 -3.653552,-1.76072 -6.808033,-1.60698 -3.599431,0.17546 -6.403497,1.38511 -6.463365,2.74581 l -0.02349,27.57452"
         style="fill:url(#linearGradient4206);fill-opacity:1;stroke:none;stroke-width:3.4849999;stroke-linecap:round;stroke-linejoin:bevel"
         inkscape:connector-curvature="0" />
      <path
         id="path4200"
         d="m 66.278272,521.70268 c -3.738624,0.29699 -6.918506,-1.33852 -7.102437,-3.65288 -0.183838,-2.3144 2.697978,-4.43137 6.436602,-4.72837 3.738719,-0.29704 6.918506,1.33852 7.102439,3.65288 0.183837,2.3144 -2.69784,4.43142 -6.436604,4.72837 z"
         style="fill:url(#linearGradient4208);fill-opacity:1;stroke:#000000;stroke-width:0.05179922;stroke-linecap:round;stroke-linejoin:bevel;stroke-miterlimit:4;stroke-dasharray:none;stroke-opacity:1"
         inkscape:connector-curvature="0" />
      <path
         clip-path="url(#clipPath3446)"
         transform="matrix(0.04511844,0.05722607,-0.09325751,0.02768625,78.43455,478.20997)"
         id="path4202"
         d="m 112.75,153.26 c -3.0305,4.0406 112.63,68.185 165.16,91.419 52.528,23.234 193.95,85.358 200.01,81.317 6.0609,-4.0406 -153.54,-81.822 -185.87,-95.459 C 259.725,216.9 121.84,146.694 112.75,153.26 Z"
         inkscape:connector-curvature="0"
         style="opacity:0.25;fill:#ffffff;stroke:#000000;stroke-width:1;filter:url(#filter20024)" />
      <path
         clip-path="url(#clipPath3440)"
         transform="matrix(0.04511844,0.05722607,-0.09325751,0.02768625,78.848943,478.20997)"
         id="path4204"
         d="m 85.671,241.69 c -3.0305,4.0406 114.78,63.9 167.3,87.133 52.528,23.234 191.09,89.644 197.15,85.603 6.061,-4.0406 -153.54,-84.68 -185.87,-98.317 -32.325,-13.637 -169.5,-80.986 -178.59,-74.42 z"
         inkscape:connector-curvature="0"
         style="opacity:0.52399998;fill:#0a0000;stroke:#000000;stroke-width:1;filter:url(#filter20024-2)" />
    </g>
  </g>
</svg>
